<svg xmlns="http://www.w3.org/2000/svg" xmlns:xlink="http://www.w3.org/1999/xlink" width="610" height="425" viewBox="0 0 610 425">
  <defs>
    <clipPath id="clip-path">
      <rect id="Rectángulo_403469" data-name="Rectángulo 403469" width="257.825" height="345.543" transform="translate(0 0)" fill="none"/>
    </clipPath>
  </defs>
  <g id="Grupo_1103103" data-name="Grupo 1103103" transform="translate(-180.051 -2081)">
    <rect id="Rectángulo_403468" data-name="Rectángulo 403468" width="610" height="425" transform="translate(180.051 2081)" fill="#f6fce7" opacity="0.999"/>
    <g id="Grupo_1103094" data-name="Grupo 1103094" transform="translate(355.741 2118.957)">
      <g id="Grupo_1103093" data-name="Grupo 1103093" transform="translate(0 0)" clip-path="url(#clip-path)">
        <path id="Trazado_882715" data-name="Trazado 882715" d="M163.124,317.273c2.715,5.818,4.322,41.608,4.322,41.608l61.282-1.465c1.268-16.117.924-37.848,1.373-58.672.348-16.121-2.71-44.142-4.521-51.023a264.689,264.689,0,0,1-6.164-36.441c-.905-11.77-2.9-25.895-3.258-33.862s3.258-39.838,5.07-39.657,2.536,17.022,3.984,26.257,2.534,19.014,5.07,38.028,12.858,48.53,15.935,57.4,4.527,12.314,4.527,12.314a23.362,23.362,0,0,1,.577,7c-1.434,5.823-5,10.533-5.675,15.713s.5,7.021.047,11.555-1.135,14.07.98,14.625c2.172.57,3.152-3.083,4.244-6.133,1.37-3.827,1.68-14.476,3.724-13.062s6.409,15.093,7.556,22.873.442,12.171,4.072,11.39c2.288-.491,2.388-5.932-.128-20.306,0,0,1.083,5.232,1.86,9.086.893,4.431,1.26,16.237,4.461,16.654,2.577.335,2.991-4.322,1.671-15.352-.531-4.431-1.38-9.919-1.645-13.545l2.679,14.777c.327,2.443.464,5.981,2.5,5.566,2.278-.465,1.968-6.4,1.709-9.655-.33-4.148-.869-15.3-.869-15.3.471.161,1.161,11.305,1.312,12.605s.495,3.388,2.7,2.1c1.829-1.064,1.419-10.429,1.419-10.429-.29-8.3.222-11.416-3.605-22.855s-9.238-14.221-9.6-22.321c0,0-3.582-29.183-5.03-44.635s-3.129-34.616-6.51-44.758-4.828-16.659-5.069-29.938.241-21.489-.966-30.905.966-18.35.725-27.525S248.49,62.7,241.812,55.911c-5.635-5.73-12.072-8.45-33.56-16.418s-20.688-13.116-21.357-14.68c-1.05-2.448-.089-24.435-.089-24.435H132.9s.961,21.987-.088,24.435c-.669,1.563.132,6.711-21.357,14.68S83.527,50.181,77.891,55.911C71.213,62.7,66.06,79.815,65.818,88.99s1.932,18.108.725,27.525-.724,17.625-.965,30.905-1.69,19.8-5.07,29.938-5.061,29.3-6.509,44.758-5.031,44.635-5.031,44.635c-.362,8.1-5.774,10.882-9.6,22.321s-3.315,14.553-3.605,22.855c0,0-.409,9.364,1.42,10.429,2.21,1.287,2.554-.8,2.7-2.1s.84-12.445,1.312-12.605c0,0-1.033,12.714-.977,15.981s-.507,8.907,1.816,8.975,2.528-3.655,2.883-7.379l2.317-12.969c-.189,1.888-1.3,10.079-2.051,15.54-1.507,10.992.089,13.563,2.053,13.362,3.212-.328,3.892-12.328,4.462-16.654a92.026,92.026,0,0,1,1.86-9.086c-2.517,14.374-2.416,19.815-.128,20.306,3.63.78,2.925-3.609,4.072-11.39s5.512-21.459,7.556-22.873,2.354,9.234,3.724,13.062c1.092,3.05,2.072,6.7,4.244,6.133,2.114-.555,1.436-10.092.98-14.625s.723-6.375.047-11.555-4.24-9.89-5.675-15.713a23.384,23.384,0,0,1,.578-7s1.448-3.44,4.527-12.314,13.4-38.39,15.936-57.4,3.621-28.792,5.07-38.028,2.174-26.076,3.984-26.257,5.432,31.69,5.07,39.657-2.353,22.093-3.259,33.862a264.482,264.482,0,0,1-6.164,36.441c-1.811,6.881-4.868,34.9-4.52,51.023.45,20.824.106,42.554,1.374,58.672l61.258.378s3.039-36.061,5.56-40.521c2.565-4.537,2.576-5.9,5.331,0" transform="translate(-30.923 -6.819)" fill="#eec0ab"/>
        <path id="Trazado_882716" data-name="Trazado 882716" d="M587.382,1449.493c4.663,3.031,2.877,8.461-1.734,14.258s-10.293,9.76-14.956,6.73-4.708-10.184-.1-15.98,12.125-8.038,16.788-5.008" transform="translate(-490.966 -1260.075)" fill="#b6accc"/>
        <path id="Trazado_882717" data-name="Trazado 882717" d="M1165.4,1442.686c-4.663,3.03-2.875,8.462,1.733,14.258s10.3,9.76,14.958,6.73,4.707-10.184.1-15.981-12.127-8.037-16.79-5.008" transform="translate(-1006.465 -1254.183)" fill="#b6accc"/>
        <path id="Trazado_882718" data-name="Trazado 882718" d="M655.741,66.644c-9.075-17.839-28.6-25.37-32.486-25.37,0,0-8.425,0-9.074,7.38-.116,1.325-.277,4.08-.464,7.706a9.9,9.9,0,0,1-1.858-6.467C612,46.483,610.88,0,610.88,0H606.61s.644,44.888.461,50.224a9.56,9.56,0,0,1-2.716,6.51c-.2-3.827-.363-6.726-.482-8.082-.649-7.38-9.074-7.38-9.074-7.38-3.889,0-23.394,10.263-32.469,28.1s-8.944,54.684-7.648,63.912,19.615,9.134,35,4.305c11.785-3.7,16.951-28.518,16.951-28.518s-1.188-29.823-2.055-47.856c1.81-.937,3.557-2.211,4.244-3.832,0,0,.163-.3.392-.812.606,1.483,2.423,2.922,4.29,4.078-.853,17.61-2.021,47.052-2.021,47.052s5.669,24,17.452,27.7c15.384,4.829,33.7,4.92,35-4.305s.879-46.621-8.193-64.458" transform="translate(-479.609 -6.492)" fill="#f8dbcc"/>
        <path id="Trazado_882719" data-name="Trazado 882719" d="M747.2,1250.229a.981.981,0,0,0-1.288.019.771.771,0,0,0,.018,1.166,12.158,12.158,0,0,1,3.745,7.689c-1-.09-2.625.192-5.351,1.186-2-.465-6.37.546-8.726,1.492-2.917,1.17-13.676,6.476-12.909,8.034s12.763-1.222,15.681-2.394c2.486-1,6.318-3.9,6.921-5.706,3.152-1.125,4.1-1.008,4.309-.947-.379,2.8-2.038,5.542-4.952,8.175a.771.771,0,0,0,0,1.167.983.983,0,0,0,1.291,0c3.731-3.373,5.607-6.966,5.573-10.682-.049-5.41-4.136-9.047-4.311-9.2" transform="translate(-625.565 -1088.55)" fill="#d8d894"/>
        <path id="Trazado_882720" data-name="Trazado 882720" d="M596.9,1029.981s-2.935-16.895,9.524-23.292,21.6-4.862,36.445-3.069,18.845,1.535,25.411.768,23.7-2.049,23.413,2.048-9.994,5.63-13.706,12.029-18.274,16.382-26.553,16.637-10.279,1.023-12.563,4.606-35.405,17.914-37.69,9.724-4.282-19.451-4.282-19.451" transform="translate(-516.443 -873.92)" fill="#cf7e7d"/>
        <path id="Trazado_882721" data-name="Trazado 882721" d="M731.848,1442.887s5.1,1.08,6.515.436,2.042-4.725,4.906-4.725,5.26-.8,7.488,2.368a15.911,15.911,0,0,0,11.463,6.332c4.776.289,12.416-.577,16.554-1.152s16.874-8.632,20.377-7.194,4.775,7.194-1.592,10.936-12.1,9.5-25.151,9.5-15.282.288-23.56-2.3-10.708-8.284-10.189-10.935l-7.745-.528Z" transform="translate(-632.716 -1251.734)" fill="#f3b86b"/>
        <path id="Trazado_882722" data-name="Trazado 882722" d="M760.92,225.506c-1.911-3.454.29-6.855-19.527-5.589-19.606,1.252-27.781,1-37.145-5.923-9.909-7.328,1.12-17.875,13.007-16.22,6.971.97,8.621,5.668,13.585,7.085s18.807,3.07,35.527-11.336,13.587-26.806,9.668-34.127-12.541-10.267-19.594-10.031-15.9-17.965-15.9-17.965c-3.982-21.6-5.963-127.685-5.963-127.685h-3.734s-.106,2.9,4.284,122.792c1.342,14.445,5.287,21.042,8.945,33.793,2.582,9-5.732,20.72-21.526,26.219-4.8,1.673-9.9,1.865-19.926,7.949-16.03,9.73-6.54,21.63-2.661,24.885,0,0,5.559,5.29,26.253,6.728s25.152-3.165,27.061,1.152Z" transform="translate(-600.437 -9.706)" fill="#f1a098"/>
        <path id="Trazado_882723" data-name="Trazado 882723" d="M849.811,703.345s-10.864-7.014-6.983-19.289,18.234-10.872,22.115-9.82,10.088,4.56,12.8,13.327,3.88,16.134,1.941,19.64-9.313,4.56-18.235,1.4-8.692-2.756-11.64-5.261" transform="translate(-728.869 -589.569)" fill="#eb8985"/>
        <path id="Trazado_882724" data-name="Trazado 882724" d="M673.3,1753.9c-2.109,0-3.879-1.359-4.006-3.122-.134-1.832,1.554-3.4,3.769-3.513,2.314-.115,11.292-.44,21.728-.437,7.453,0,21.679-.058,29.318-.09,3.074-.013,5.222-.022,5.706-.022.121,0,.256,0,.4,0a9.318,9.318,0,0,0,1.7-.089,1.984,1.984,0,0,0,.053-.507c0-.738-.239-1.058-1.023-1.365a7.1,7.1,0,0,0-2.092-.409c-2.621.059-38.158.863-40.06.863a17.2,17.2,0,0,1-5.779-.807c-3.238-1.171-5.095-3.631-5.095-6.75a6.893,6.893,0,0,1,2.808-5.632c3.019-2.315,7.316-2.293,8.339-2.252,14.307.071,41.346.2,41.945.2.956-.015.956-.347.956-.9,0-.805-1.848-1.227-2.464-1.345-4.233.086-36.182.728-41.818.728-7.1,0-10.088-4.494-10.768-7.12l-2.25-5.556c-.7-1.738.429-3.622,2.533-4.2a4.257,4.257,0,0,1,5.086,2.1l2.333,5.759a1.849,1.849,0,0,1,.147.48c.235.876.935,1.9,2.919,1.9,5.812,0,41.673-.727,42.033-.735a4.677,4.677,0,0,1,.611.026c4.659.494,9.672,3.2,9.672,7.966a6.945,6.945,0,0,1-4.232,6.491,11.524,11.524,0,0,1-4.759,1.048c-.7,0-40.406-.2-42.095-.2a2.706,2.706,0,0,1-.279-.009,4.9,4.9,0,0,0-2.454.494.951.951,0,0,0-.231.759,1.127,1.127,0,0,0,.1.585c.149.119.706.331,2.7.331h0c1.552,0,29.384-.625,39.98-.866h.109a16.522,16.522,0,0,1,5.163.908c3.81,1.359,5.995,4.1,5.995,7.509a6.5,6.5,0,0,1-2.392,5.245c-2.5,2.044-5.876,2.008-7.5,1.99l-.3,0c-.481,0-2.615.01-5.665.022-7.647.032-21.881.088-29.362.09-10.275,0-18.994.314-21.244.426-.083,0-.164.006-.244.006" transform="translate(-579.369 -1487.971)" fill="#dd959c"/>
        <path id="Trazado_882725" data-name="Trazado 882725" d="M609.987,1657.947a9.243,9.243,0,0,0-7.665-3.757,9.344,9.344,0,0,0-7.382,3.37,9.765,9.765,0,0,0-5.822-1.86c-4.9,0-8.875,3.388-8.875,7.569a6.6,6.6,0,0,0,.387,2.213,7.032,7.032,0,0,0-2.6,5.352,6.788,6.788,0,0,0,1.511,4.227,6.253,6.253,0,0,0-2.063,4.557c0,3.172,2.545,5.827,5.985,6.587a8.07,8.07,0,0,0,3.345,2.055l.976,3.008s.2,1.009,1.118,1.009c.668,0,1.859-.112,1.859-.112s.992.059.992-.841c0-.327.216-1.719.31-3.027,2.183-.734,4.394-2.319,5.149-4.223a6.615,6.615,0,0,0,3.565-5.673,5.881,5.881,0,0,0-.2-1.511c.067,0,.161-.049.2,0,.27.356,4.424,1.51,7.054-.244a5.528,5.528,0,0,0,2.943-5.619c5.56,2.819,11.156-.189,11.634-4.733,2.588,1.689,5.977,1.824,8.081.211,3.169-2.43,2.636-4.588,2.3-7.633a7.513,7.513,0,0,0,7.893-3.565c2.946-4.732-1.955-7.869-1.955-7.869a5.559,5.559,0,0,0,6.021-3.75c1.539-4.437-2.842-6.9-2.842-6.9a7.005,7.005,0,0,0,2.483-5.248,7.114,7.114,0,0,0-2.93-5.618,6.7,6.7,0,0,0-.057-9.206,7.259,7.259,0,0,0,3.55-6.057,7.409,7.409,0,0,0-4.218-6.443,6.746,6.746,0,0,0,.1-1.125c0-4.18-3.974-7.567-8.872-7.567a9.558,9.558,0,0,0-6.678,2.587,7.7,7.7,0,0,0-6.616-.441c-3.6,1.238-3.055,3.68-4.437,4.438-1.38-.758-2.353-1.812-4.617-1.721a7.739,7.739,0,0,0-6.458,3.445,9.857,9.857,0,0,0-5.362-1.541,9.616,9.616,0,0,0-6.475,2.4,9.617,9.617,0,0,0-6.476-2.4,9.856,9.856,0,0,0-5.414,1.573,9.48,9.48,0,0,0-6.973-2.89,9.653,9.653,0,0,0-6.3,2.243c-.31-1.611-.687-6.157-5.938-6.7a11.817,11.817,0,0,0-6.059,1.571c-1.437-.855-3.073-3.751-7.616-2.556-4.159,1.094-3.608,2.726-5.141,4.995a10.209,10.209,0,0,0-1.182-.069c-4.9,0-8.872,3.387-8.872,7.567a6.816,6.816,0,0,1,0,10.81,7.006,7.006,0,0,1,0,12.707,7.327,7.327,0,0,0,3.88,6.257c-2.342,1.363-3.1,5.4-1.826,7.663,1.9,3.38,4.267,3.314,5.7,2.958-1.626,1.37-2.113,4.232-2.113,6.338,0,2.653,2.227,4.565,4.648,5.915a14.643,14.643,0,0,0-1.075,2.994,6.822,6.822,0,0,0,7.013,6.611,7.2,7.2,0,0,0,4.727-1.739c.627.346,1.76,1.355,1.295,4.018a1.256,1.256,0,0,0,1.135,1.411,1.571,1.571,0,0,0,.215.014,1.33,1.33,0,0,0,1.345-1.04,6.823,6.823,0,0,0-.464-4.282,7.4,7.4,0,0,0,1.473.152,6.82,6.82,0,0,0,7.012-6.612,6.371,6.371,0,0,0-1.8-4.41c.626-1.036,1.634-3.96.671-6.127-.924-2.08-3.749-5.619-6.74-3.732,1.863-1.388,2.78-2.322,2.78-4.6a7.036,7.036,0,0,0-2.608-5.36,6.744,6.744,0,0,0,1.346-4.007,6.671,6.671,0,0,1,0-8.772c0-2.036-.407-4.656-1.941-6.016,1.056-.056,1.8-.169,2.118-1.771.676.141-.327.757.926,1.938,1.428,1.348,5.528,1.18,6.4-.729a7.714,7.714,0,0,0,5.225,2.113,9.832,9.832,0,0,0,5.515-1.642,9.832,9.832,0,0,0,5.516,1.642,9.72,9.72,0,0,0,6.053-2.036,10.007,10.007,0,0,0,12.17-.054c1.475.936,3.23,2.11,5.211,2.11,2.777,0,4.534-1.18,5.217-2.752,1.556,1.145,7.641,1.292,8.215-1.325.007-.029.062,0,.092,0a7.46,7.46,0,0,0,3.463,4.976,6.742,6.742,0,0,0,.291,9.795s-5.3,5.341-.506,10.139c0,0-6.791,3.351-1.992,8.692,0,0-9.124-1.858-9.948,7.673" transform="translate(-459.959 -1387.412)" fill="#d78687"/>
      </g>
    </g>
    <path id="Trazado_882714" data-name="Trazado 882714" d="M-7859.051-9486.146v407.463" transform="translate(8344.038 11579.683)" fill="none" stroke="#000" stroke-width="3"/>
    <path id="Trazado_882726" data-name="Trazado 882726" d="M0,0V441.035" transform="translate(705.505 2314.055) rotate(90)" fill="none" stroke="#000" stroke-width="3"/>
    <rect id="Rectángulo_403470" data-name="Rectángulo 403470" width="141" height="72" transform="translate(249.051 2155)" fill="#d7e8fc"/>
    <path id="Trazado_884830" data-name="Trazado 884830" d="M9.688,13.391a4.185,4.185,0,0,1-1.332,2.785,4.365,4.365,0,0,1-2.98.98,4.008,4.008,0,0,1-3.23-1.445A5.815,5.815,0,0,1,.93,11.844V10.75A6.481,6.481,0,0,1,1.5,7.961,4.231,4.231,0,0,1,3.1,6.113a4.47,4.47,0,0,1,2.406-.645A4.11,4.11,0,0,1,8.414,6.48a4.235,4.235,0,0,1,1.273,2.8H8.18a3.268,3.268,0,0,0-.848-1.975A2.565,2.565,0,0,0,5.508,6.7,2.684,2.684,0,0,0,3.254,7.759a4.882,4.882,0,0,0-.816,3.026v1.1a5.018,5.018,0,0,0,.773,2.948A2.5,2.5,0,0,0,5.375,15.93a2.887,2.887,0,0,0,1.918-.566,3.143,3.143,0,0,0,.887-1.973Zm7.039,2.773a3.07,3.07,0,0,1-2.477.992,2.628,2.628,0,0,1-2.059-.785,3.4,3.4,0,0,1-.715-2.324v-5.5h1.445v5.461q0,1.922,1.563,1.922a2.163,2.163,0,0,0,2.2-1.234V8.547h1.445V17H16.758Zm8.82.836a3.036,3.036,0,0,1-.2-.891,3.225,3.225,0,0,1-2.406,1.047,2.984,2.984,0,0,1-2.051-.707,2.287,2.287,0,0,1-.8-1.793,2.39,2.39,0,0,1,1-2.051,4.733,4.733,0,0,1,2.824-.73H25.32v-.664A1.623,1.623,0,0,0,24.867,10a1.821,1.821,0,0,0-1.336-.449,2.107,2.107,0,0,0-1.3.391,1.151,1.151,0,0,0-.523.945H20.258a2,2,0,0,1,.449-1.223,3.066,3.066,0,0,1,1.219-.934,4.1,4.1,0,0,1,1.691-.344,3.342,3.342,0,0,1,2.289.73,2.635,2.635,0,0,1,.859,2.012v3.891a4.757,4.757,0,0,0,.3,1.852V17Zm-2.4-1.1a2.54,2.54,0,0,0,1.289-.352,2.127,2.127,0,0,0,.883-.914V12.9H24.188q-2.656,0-2.656,1.555a1.316,1.316,0,0,0,.453,1.063A1.742,1.742,0,0,0,23.148,15.9Zm5.531-3.2A4.952,4.952,0,0,1,29.6,9.574a3.137,3.137,0,0,1,4.766-.168V5h1.445V17H34.484l-.07-.906A2.943,2.943,0,0,1,32,17.156a2.887,2.887,0,0,1-2.395-1.2,5.008,5.008,0,0,1-.926-3.141Zm1.445.164a3.749,3.749,0,0,0,.594,2.25,1.92,1.92,0,0,0,1.641.813A2.108,2.108,0,0,0,34.367,14.7V10.813a2.125,2.125,0,0,0-1.992-1.2,1.929,1.929,0,0,0-1.656.82A4.128,4.128,0,0,0,30.125,12.867ZM42.141,9.844a4.331,4.331,0,0,0-.711-.055A1.9,1.9,0,0,0,39.5,11v6H38.055V8.547h1.406l.023.977A2.251,2.251,0,0,1,41.5,8.391a1.477,1.477,0,0,1,.641.109ZM48.375,17a3.036,3.036,0,0,1-.2-.891,3.225,3.225,0,0,1-2.406,1.047,2.984,2.984,0,0,1-2.051-.707,2.287,2.287,0,0,1-.8-1.793,2.39,2.39,0,0,1,1-2.051,4.733,4.733,0,0,1,2.824-.73h1.406v-.664A1.623,1.623,0,0,0,47.7,10a1.821,1.821,0,0,0-1.336-.449,2.107,2.107,0,0,0-1.3.391,1.151,1.151,0,0,0-.523.945H43.086a2,2,0,0,1,.449-1.223,3.066,3.066,0,0,1,1.219-.934,4.1,4.1,0,0,1,1.691-.344,3.342,3.342,0,0,1,2.289.73,2.635,2.635,0,0,1,.859,2.012v3.891a4.757,4.757,0,0,0,.3,1.852V17Zm-2.4-1.1a2.54,2.54,0,0,0,1.289-.352,2.127,2.127,0,0,0,.883-.914V12.9H47.016q-2.656,0-2.656,1.555a1.316,1.316,0,0,0,.453,1.063A1.742,1.742,0,0,0,45.977,15.9Zm7.25-7.352.047,1.063A3.08,3.08,0,0,1,55.8,8.391q2.68,0,2.7,3.023V17H57.063V11.406a1.946,1.946,0,0,0-.418-1.352,1.675,1.675,0,0,0-1.277-.437,2.086,2.086,0,0,0-1.234.375,2.546,2.546,0,0,0-.828.984V17H51.859V8.547ZM62.648,6.5V8.547h1.578V9.664H62.648v5.249a1.173,1.173,0,0,0,.211.763.888.888,0,0,0,.719.254,3.5,3.5,0,0,0,.688-.094V17a4.215,4.215,0,0,1-1.109.155A1.8,1.8,0,0,1,61.7,16.57a2.517,2.517,0,0,1-.492-1.664V9.664H59.664V8.547H61.2V6.5Zm6.773,10.656a3.693,3.693,0,0,1-2.8-1.129,4.19,4.19,0,0,1-1.078-3.02v-.266a5.073,5.073,0,0,1,.48-2.246,3.748,3.748,0,0,1,1.344-1.547,3.378,3.378,0,0,1,1.871-.559A3.166,3.166,0,0,1,71.8,9.477a4.7,4.7,0,0,1,.914,3.109v.6H66.992a3,3,0,0,0,.73,2.02,2.3,2.3,0,0,0,1.777.77,2.517,2.517,0,0,0,1.3-.312,3.259,3.259,0,0,0,.93-.828l.883.688A3.55,3.55,0,0,1,69.422,17.156Zm-.18-7.578a1.928,1.928,0,0,0-1.469.637A3.1,3.1,0,0,0,67.039,12h4.234v-.109a2.753,2.753,0,0,0-.594-1.707A1.815,1.815,0,0,0,69.242,9.578ZM4.672,35.93a7.053,7.053,0,0,1-2.809-1.363,2.6,2.6,0,0,1-.879-2,2.751,2.751,0,0,1,1.074-2.223,4.269,4.269,0,0,1,2.793-.879,4.66,4.66,0,0,1,2.09.453,3.436,3.436,0,0,1,1.422,1.25,3.2,3.2,0,0,1,.5,1.742H7.359A2.08,2.08,0,0,0,6.7,31.287,2.669,2.669,0,0,0,4.852,30.7a2.732,2.732,0,0,0-1.73.489A1.632,1.632,0,0,0,2.5,32.542a1.468,1.468,0,0,0,.59,1.178A5.786,5.786,0,0,0,5.1,34.6a9.316,9.316,0,0,1,2.219.88A3.367,3.367,0,0,1,8.5,36.6a2.861,2.861,0,0,1,.387,1.508,2.658,2.658,0,0,1-1.078,2.215,4.6,4.6,0,0,1-2.883.832,5.347,5.347,0,0,1-2.187-.449,3.681,3.681,0,0,1-1.566-1.23A3,3,0,0,1,.625,37.7H2.133a1.959,1.959,0,0,0,.762,1.629,3.207,3.207,0,0,0,2.035.6,2.948,2.948,0,0,0,1.82-.484,1.573,1.573,0,0,0,.633-1.32A1.545,1.545,0,0,0,6.8,36.832,6.755,6.755,0,0,0,4.672,35.93ZM15.8,40.164a3.07,3.07,0,0,1-2.477.992,2.628,2.628,0,0,1-2.059-.785,3.4,3.4,0,0,1-.715-2.324v-5.5H12v5.461q0,1.922,1.563,1.922a2.163,2.163,0,0,0,2.2-1.234V32.547h1.445V41H15.836Zm10.742-3.3a5.062,5.062,0,0,1-.883,3.109,2.829,2.829,0,0,1-2.391,1.18,3.1,3.1,0,0,1-2.422-.977v4.07H19.406v-11.7h1.32l.07.938a2.977,2.977,0,0,1,2.453-1.094,2.882,2.882,0,0,1,2.41,1.148,5.117,5.117,0,0,1,.887,3.2ZM25.1,36.7a3.735,3.735,0,0,0-.609-2.258,1.963,1.963,0,0,0-1.672-.828,2.125,2.125,0,0,0-1.969,1.164V38.82a2.129,2.129,0,0,0,1.984,1.156,1.954,1.954,0,0,0,1.652-.824A4.077,4.077,0,0,0,25.1,36.7Zm6.789,4.453a3.693,3.693,0,0,1-2.8-1.129,4.19,4.19,0,0,1-1.078-3.02v-.266A5.073,5.073,0,0,1,28.5,34.5a3.748,3.748,0,0,1,1.344-1.547,3.378,3.378,0,0,1,1.871-.559,3.166,3.166,0,0,1,2.563,1.086,4.7,4.7,0,0,1,.914,3.109v.6H29.461a3,3,0,0,0,.73,2.02,2.3,2.3,0,0,0,1.777.77,2.517,2.517,0,0,0,1.3-.312,3.258,3.258,0,0,0,.93-.828l.883.688A3.55,3.55,0,0,1,31.891,41.156Zm-.18-7.578a1.928,1.928,0,0,0-1.469.637A3.1,3.1,0,0,0,29.508,36h4.234v-.109a2.753,2.753,0,0,0-.594-1.707A1.815,1.815,0,0,0,31.711,33.578Zm9.234.266a4.331,4.331,0,0,0-.711-.055A1.9,1.9,0,0,0,38.3,35v6H36.859V32.547h1.406l.023.977A2.251,2.251,0,0,1,40.3,32.391a1.477,1.477,0,0,1,.641.109ZM43.844,41H42.4V32.547h1.445ZM42.281,30.3a.863.863,0,0,1,.215-.594.807.807,0,0,1,.637-.242.819.819,0,0,1,.641.242.854.854,0,0,1,.219.594.826.826,0,0,1-.219.586.834.834,0,0,1-.641.234.821.821,0,0,1-.637-.234A.834.834,0,0,1,42.281,30.3ZM45.773,36.7a4.993,4.993,0,0,1,.488-2.234,3.643,3.643,0,0,1,1.359-1.531,3.7,3.7,0,0,1,1.988-.539,3.565,3.565,0,0,1,2.793,1.2,4.6,4.6,0,0,1,1.066,3.18v.1A5.036,5.036,0,0,1,53,39.082a3.589,3.589,0,0,1-1.352,1.527,3.743,3.743,0,0,1-2.02.547,3.556,3.556,0,0,1-2.785-1.2A4.575,4.575,0,0,1,45.773,36.8Zm1.453.172a3.616,3.616,0,0,0,.652,2.258,2.211,2.211,0,0,0,3.5-.012,3.955,3.955,0,0,0,.648-2.418,3.61,3.61,0,0,0-.66-2.254,2.1,2.1,0,0,0-1.754-.863,2.075,2.075,0,0,0-1.727.852A3.925,3.925,0,0,0,47.227,36.867Zm12.141-3.023a4.331,4.331,0,0,0-.711-.055A1.9,1.9,0,0,0,56.727,35v6H55.281V32.547h1.406l.023.977a2.251,2.251,0,0,1,2.016-1.133,1.477,1.477,0,0,1,.641.109ZM64.3,36.7a4.952,4.952,0,0,1,.922-3.129,3.137,3.137,0,0,1,4.766-.168V29h1.445V41H70.109l-.07-.906a2.943,2.943,0,0,1-2.414,1.063,2.887,2.887,0,0,1-2.395-1.2,5.008,5.008,0,0,1-.926-3.141Zm1.445.164a3.749,3.749,0,0,0,.594,2.25,1.92,1.92,0,0,0,1.641.813A2.108,2.108,0,0,0,69.992,38.7V34.813A2.125,2.125,0,0,0,68,33.617a1.929,1.929,0,0,0-1.656.82A4.128,4.128,0,0,0,65.75,36.867Zm11.438,4.289a3.693,3.693,0,0,1-2.8-1.129,4.19,4.19,0,0,1-1.078-3.02v-.266a5.073,5.073,0,0,1,.48-2.246,3.748,3.748,0,0,1,1.344-1.547,3.378,3.378,0,0,1,1.871-.559,3.166,3.166,0,0,1,2.563,1.086,4.7,4.7,0,0,1,.914,3.109v.6H74.758a3,3,0,0,0,.73,2.02,2.3,2.3,0,0,0,1.777.77,2.517,2.517,0,0,0,1.3-.312,3.259,3.259,0,0,0,.93-.828l.883.688A3.55,3.55,0,0,1,77.188,41.156Zm-.18-7.578a1.928,1.928,0,0,0-1.469.637A3.1,3.1,0,0,0,74.8,36h4.234v-.109a2.753,2.753,0,0,0-.594-1.707A1.815,1.815,0,0,0,77.008,33.578Zm9.234.266a4.331,4.331,0,0,0-.711-.055A1.9,1.9,0,0,0,83.6,35v6H82.156V32.547h1.406l.023.977A2.251,2.251,0,0,1,85.6,32.391a1.477,1.477,0,0,1,.641.109Zm4.836,7.313a3.693,3.693,0,0,1-2.8-1.129,4.19,4.19,0,0,1-1.078-3.02v-.266a5.073,5.073,0,0,1,.48-2.246,3.748,3.748,0,0,1,1.344-1.547,3.378,3.378,0,0,1,1.871-.559,3.166,3.166,0,0,1,2.563,1.086,4.7,4.7,0,0,1,.914,3.109v.6H88.648a3,3,0,0,0,.73,2.02,2.3,2.3,0,0,0,1.777.77,2.517,2.517,0,0,0,1.3-.312,3.259,3.259,0,0,0,.93-.828l.883.688A3.55,3.55,0,0,1,91.078,41.156Zm-.18-7.578a1.928,1.928,0,0,0-1.469.637A3.1,3.1,0,0,0,88.7,36H92.93v-.109a2.753,2.753,0,0,0-.594-1.707A1.815,1.815,0,0,0,90.9,33.578Zm8.539,6.4a2.082,2.082,0,0,0,1.352-.469,1.649,1.649,0,0,0,.641-1.172H102.8a2.621,2.621,0,0,1-.5,1.383,3.293,3.293,0,0,1-1.23,1.047,3.55,3.55,0,0,1-1.629.391A3.482,3.482,0,0,1,96.691,40a4.59,4.59,0,0,1-1.02-3.152v-.242a5.089,5.089,0,0,1,.453-2.2,3.451,3.451,0,0,1,1.3-1.492,3.7,3.7,0,0,1,2-.531,3.39,3.39,0,0,1,2.363.852,3.043,3.043,0,0,1,1,2.211H101.43a1.992,1.992,0,0,0-.621-1.348,1.932,1.932,0,0,0-1.379-.527,2.023,2.023,0,0,0-1.707.793,3.724,3.724,0,0,0-.605,2.293v.273a3.65,3.65,0,0,0,.6,2.25A2.033,2.033,0,0,0,99.438,39.977Zm6.43-6.406a3.073,3.073,0,0,1,2.5-1.18q2.68,0,2.7,3.023V41h-1.445V35.406a1.946,1.946,0,0,0-.418-1.352,1.675,1.675,0,0,0-1.277-.437,2.086,2.086,0,0,0-1.234.375,2.546,2.546,0,0,0-.828.984V41h-1.445V29h1.445Zm6.984,3.125a4.993,4.993,0,0,1,.488-2.234A3.643,3.643,0,0,1,114.7,32.93a3.7,3.7,0,0,1,1.988-.539,3.565,3.565,0,0,1,2.793,1.2,4.6,4.6,0,0,1,1.066,3.18v.1a5.036,5.036,0,0,1-.473,2.215,3.589,3.589,0,0,1-1.352,1.527,3.743,3.743,0,0,1-2.02.547,3.556,3.556,0,0,1-2.785-1.2,4.575,4.575,0,0,1-1.066-3.164Zm1.453.172a3.616,3.616,0,0,0,.652,2.258,2.211,2.211,0,0,0,3.5-.012A3.955,3.955,0,0,0,119.1,36.7a3.61,3.61,0,0,0-.66-2.254,2.1,2.1,0,0,0-1.754-.863,2.075,2.075,0,0,0-1.727.852A3.925,3.925,0,0,0,114.3,36.867Z" transform="translate(260.051 2172)" fill="#12263f"/>
    <rect id="Rectángulo_403471" data-name="Rectángulo 403471" width="160" height="72" transform="translate(571.051 2155)" fill="#d7e8fc"/>
    <path id="Trazado_884831" data-name="Trazado 884831" d="M9.688,13.391a4.185,4.185,0,0,1-1.332,2.785,4.365,4.365,0,0,1-2.98.98,4.008,4.008,0,0,1-3.23-1.445A5.815,5.815,0,0,1,.93,11.844V10.75A6.481,6.481,0,0,1,1.5,7.961,4.231,4.231,0,0,1,3.1,6.113a4.47,4.47,0,0,1,2.406-.645A4.11,4.11,0,0,1,8.414,6.48a4.235,4.235,0,0,1,1.273,2.8H8.18a3.268,3.268,0,0,0-.848-1.975A2.565,2.565,0,0,0,5.508,6.7,2.684,2.684,0,0,0,3.254,7.759a4.882,4.882,0,0,0-.816,3.026v1.1a5.018,5.018,0,0,0,.773,2.948A2.5,2.5,0,0,0,5.375,15.93a2.887,2.887,0,0,0,1.918-.566,3.143,3.143,0,0,0,.887-1.973Zm7.039,2.773a3.07,3.07,0,0,1-2.477.992,2.628,2.628,0,0,1-2.059-.785,3.4,3.4,0,0,1-.715-2.324v-5.5h1.445v5.461q0,1.922,1.563,1.922a2.163,2.163,0,0,0,2.2-1.234V8.547h1.445V17H16.758Zm8.82.836a3.036,3.036,0,0,1-.2-.891,3.225,3.225,0,0,1-2.406,1.047,2.984,2.984,0,0,1-2.051-.707,2.287,2.287,0,0,1-.8-1.793,2.39,2.39,0,0,1,1-2.051,4.733,4.733,0,0,1,2.824-.73H25.32v-.664A1.623,1.623,0,0,0,24.867,10a1.821,1.821,0,0,0-1.336-.449,2.107,2.107,0,0,0-1.3.391,1.151,1.151,0,0,0-.523.945H20.258a2,2,0,0,1,.449-1.223,3.066,3.066,0,0,1,1.219-.934,4.1,4.1,0,0,1,1.691-.344,3.342,3.342,0,0,1,2.289.73,2.635,2.635,0,0,1,.859,2.012v3.891a4.757,4.757,0,0,0,.3,1.852V17Zm-2.4-1.1a2.54,2.54,0,0,0,1.289-.352,2.127,2.127,0,0,0,.883-.914V12.9H24.188q-2.656,0-2.656,1.555a1.316,1.316,0,0,0,.453,1.063A1.742,1.742,0,0,0,23.148,15.9Zm5.531-3.2A4.952,4.952,0,0,1,29.6,9.574a3.137,3.137,0,0,1,4.766-.168V5h1.445V17H34.484l-.07-.906A2.943,2.943,0,0,1,32,17.156a2.887,2.887,0,0,1-2.395-1.2,5.008,5.008,0,0,1-.926-3.141Zm1.445.164a3.749,3.749,0,0,0,.594,2.25,1.92,1.92,0,0,0,1.641.813A2.108,2.108,0,0,0,34.367,14.7V10.813a2.125,2.125,0,0,0-1.992-1.2,1.929,1.929,0,0,0-1.656.82A4.128,4.128,0,0,0,30.125,12.867ZM42.141,9.844a4.331,4.331,0,0,0-.711-.055A1.9,1.9,0,0,0,39.5,11v6H38.055V8.547h1.406l.023.977A2.251,2.251,0,0,1,41.5,8.391a1.477,1.477,0,0,1,.641.109ZM48.375,17a3.036,3.036,0,0,1-.2-.891,3.225,3.225,0,0,1-2.406,1.047,2.984,2.984,0,0,1-2.051-.707,2.287,2.287,0,0,1-.8-1.793,2.39,2.39,0,0,1,1-2.051,4.733,4.733,0,0,1,2.824-.73h1.406v-.664A1.623,1.623,0,0,0,47.7,10a1.821,1.821,0,0,0-1.336-.449,2.107,2.107,0,0,0-1.3.391,1.151,1.151,0,0,0-.523.945H43.086a2,2,0,0,1,.449-1.223,3.066,3.066,0,0,1,1.219-.934,4.1,4.1,0,0,1,1.691-.344,3.342,3.342,0,0,1,2.289.73,2.635,2.635,0,0,1,.859,2.012v3.891a4.757,4.757,0,0,0,.3,1.852V17Zm-2.4-1.1a2.54,2.54,0,0,0,1.289-.352,2.127,2.127,0,0,0,.883-.914V12.9H47.016q-2.656,0-2.656,1.555a1.316,1.316,0,0,0,.453,1.063A1.742,1.742,0,0,0,45.977,15.9Zm7.25-7.352.047,1.063A3.08,3.08,0,0,1,55.8,8.391q2.68,0,2.7,3.023V17H57.063V11.406a1.946,1.946,0,0,0-.418-1.352,1.675,1.675,0,0,0-1.277-.437,2.086,2.086,0,0,0-1.234.375,2.546,2.546,0,0,0-.828.984V17H51.859V8.547ZM62.648,6.5V8.547h1.578V9.664H62.648v5.249a1.173,1.173,0,0,0,.211.763.888.888,0,0,0,.719.254,3.5,3.5,0,0,0,.688-.094V17a4.215,4.215,0,0,1-1.109.155A1.8,1.8,0,0,1,61.7,16.57a2.517,2.517,0,0,1-.492-1.664V9.664H59.664V8.547H61.2V6.5Zm6.773,10.656a3.693,3.693,0,0,1-2.8-1.129,4.19,4.19,0,0,1-1.078-3.02v-.266a5.073,5.073,0,0,1,.48-2.246,3.748,3.748,0,0,1,1.344-1.547,3.378,3.378,0,0,1,1.871-.559A3.166,3.166,0,0,1,71.8,9.477a4.7,4.7,0,0,1,.914,3.109v.6H66.992a3,3,0,0,0,.73,2.02,2.3,2.3,0,0,0,1.777.77,2.517,2.517,0,0,0,1.3-.312,3.259,3.259,0,0,0,.93-.828l.883.688A3.55,3.55,0,0,1,69.422,17.156Zm-.18-7.578a1.928,1.928,0,0,0-1.469.637A3.1,3.1,0,0,0,67.039,12h4.234v-.109a2.753,2.753,0,0,0-.594-1.707A1.815,1.815,0,0,0,69.242,9.578ZM4.672,35.93a7.053,7.053,0,0,1-2.809-1.363,2.6,2.6,0,0,1-.879-2,2.751,2.751,0,0,1,1.074-2.223,4.269,4.269,0,0,1,2.793-.879,4.66,4.66,0,0,1,2.09.453,3.436,3.436,0,0,1,1.422,1.25,3.2,3.2,0,0,1,.5,1.742H7.359A2.08,2.08,0,0,0,6.7,31.287,2.669,2.669,0,0,0,4.852,30.7a2.732,2.732,0,0,0-1.73.489A1.632,1.632,0,0,0,2.5,32.542a1.468,1.468,0,0,0,.59,1.178A5.786,5.786,0,0,0,5.1,34.6a9.316,9.316,0,0,1,2.219.88A3.367,3.367,0,0,1,8.5,36.6a2.861,2.861,0,0,1,.387,1.508,2.658,2.658,0,0,1-1.078,2.215,4.6,4.6,0,0,1-2.883.832,5.347,5.347,0,0,1-2.187-.449,3.681,3.681,0,0,1-1.566-1.23A3,3,0,0,1,.625,37.7H2.133a1.959,1.959,0,0,0,.762,1.629,3.207,3.207,0,0,0,2.035.6,2.948,2.948,0,0,0,1.82-.484,1.573,1.573,0,0,0,.633-1.32A1.545,1.545,0,0,0,6.8,36.832,6.755,6.755,0,0,0,4.672,35.93ZM15.8,40.164a3.07,3.07,0,0,1-2.477.992,2.628,2.628,0,0,1-2.059-.785,3.4,3.4,0,0,1-.715-2.324v-5.5H12v5.461q0,1.922,1.563,1.922a2.163,2.163,0,0,0,2.2-1.234V32.547h1.445V41H15.836Zm10.742-3.3a5.062,5.062,0,0,1-.883,3.109,2.829,2.829,0,0,1-2.391,1.18,3.1,3.1,0,0,1-2.422-.977v4.07H19.406v-11.7h1.32l.07.938a2.977,2.977,0,0,1,2.453-1.094,2.882,2.882,0,0,1,2.41,1.148,5.117,5.117,0,0,1,.887,3.2ZM25.1,36.7a3.735,3.735,0,0,0-.609-2.258,1.963,1.963,0,0,0-1.672-.828,2.125,2.125,0,0,0-1.969,1.164V38.82a2.129,2.129,0,0,0,1.984,1.156,1.954,1.954,0,0,0,1.652-.824A4.077,4.077,0,0,0,25.1,36.7Zm6.789,4.453a3.693,3.693,0,0,1-2.8-1.129,4.19,4.19,0,0,1-1.078-3.02v-.266A5.073,5.073,0,0,1,28.5,34.5a3.748,3.748,0,0,1,1.344-1.547,3.378,3.378,0,0,1,1.871-.559,3.166,3.166,0,0,1,2.563,1.086,4.7,4.7,0,0,1,.914,3.109v.6H29.461a3,3,0,0,0,.73,2.02,2.3,2.3,0,0,0,1.777.77,2.517,2.517,0,0,0,1.3-.312,3.258,3.258,0,0,0,.93-.828l.883.688A3.55,3.55,0,0,1,31.891,41.156Zm-.18-7.578a1.928,1.928,0,0,0-1.469.637A3.1,3.1,0,0,0,29.508,36h4.234v-.109a2.753,2.753,0,0,0-.594-1.707A1.815,1.815,0,0,0,31.711,33.578Zm9.234.266a4.331,4.331,0,0,0-.711-.055A1.9,1.9,0,0,0,38.3,35v6H36.859V32.547h1.406l.023.977A2.251,2.251,0,0,1,40.3,32.391a1.477,1.477,0,0,1,.641.109ZM43.844,41H42.4V32.547h1.445ZM42.281,30.3a.863.863,0,0,1,.215-.594.807.807,0,0,1,.637-.242.819.819,0,0,1,.641.242.854.854,0,0,1,.219.594.826.826,0,0,1-.219.586.834.834,0,0,1-.641.234.821.821,0,0,1-.637-.234A.834.834,0,0,1,42.281,30.3ZM45.773,36.7a4.993,4.993,0,0,1,.488-2.234,3.643,3.643,0,0,1,1.359-1.531,3.7,3.7,0,0,1,1.988-.539,3.565,3.565,0,0,1,2.793,1.2,4.6,4.6,0,0,1,1.066,3.18v.1A5.036,5.036,0,0,1,53,39.082a3.589,3.589,0,0,1-1.352,1.527,3.743,3.743,0,0,1-2.02.547,3.556,3.556,0,0,1-2.785-1.2A4.575,4.575,0,0,1,45.773,36.8Zm1.453.172a3.616,3.616,0,0,0,.652,2.258,2.211,2.211,0,0,0,3.5-.012,3.955,3.955,0,0,0,.648-2.418,3.61,3.61,0,0,0-.66-2.254,2.1,2.1,0,0,0-1.754-.863,2.075,2.075,0,0,0-1.727.852A3.925,3.925,0,0,0,47.227,36.867Zm12.141-3.023a4.331,4.331,0,0,0-.711-.055A1.9,1.9,0,0,0,56.727,35v6H55.281V32.547h1.406l.023.977a2.251,2.251,0,0,1,2.016-1.133,1.477,1.477,0,0,1,.641.109ZM66.227,41H64.781V32.547h1.445ZM64.664,30.3a.863.863,0,0,1,.215-.594.807.807,0,0,1,.637-.242.819.819,0,0,1,.641.242.854.854,0,0,1,.219.594.826.826,0,0,1-.219.586.834.834,0,0,1-.641.234.821.821,0,0,1-.637-.234A.834.834,0,0,1,64.664,30.3ZM69.9,39.82h4.945V41H68.133V39.938l4.664-6.2H68.2v-1.2h6.406V33.57ZM76.117,36.7a4.961,4.961,0,0,1,.914-3.152,3.226,3.226,0,0,1,4.82-.152l.063-.852h1.328v11.7H81.8V40.219a3.033,3.033,0,0,1-2.328.938,2.915,2.915,0,0,1-2.441-1.191,5.072,5.072,0,0,1-.91-3.16Zm1.445.164a3.761,3.761,0,0,0,.613,2.281,1.951,1.951,0,0,0,1.652.828A2.164,2.164,0,0,0,81.8,38.836V34.7a2.171,2.171,0,0,0-1.953-1.117,1.965,1.965,0,0,0-1.664.832A4.094,4.094,0,0,0,77.563,36.867Zm13.219,3.3a3.07,3.07,0,0,1-2.477.992,2.628,2.628,0,0,1-2.059-.785,3.4,3.4,0,0,1-.715-2.324v-5.5h1.445v5.461q0,1.922,1.563,1.922a2.163,2.163,0,0,0,2.2-1.234V32.547h1.445V41H90.813ZM95.953,41H94.508V32.547h1.445ZM94.391,30.3a.863.863,0,0,1,.215-.594.807.807,0,0,1,.637-.242.819.819,0,0,1,.641.242.854.854,0,0,1,.219.594.826.826,0,0,1-.219.586.834.834,0,0,1-.641.234.821.821,0,0,1-.637-.234A.834.834,0,0,1,94.391,30.3Zm7.383,10.852a3.693,3.693,0,0,1-2.8-1.129,4.19,4.19,0,0,1-1.078-3.02v-.266a5.073,5.073,0,0,1,.48-2.246,3.748,3.748,0,0,1,1.344-1.547,3.378,3.378,0,0,1,1.871-.559,3.166,3.166,0,0,1,2.563,1.086,4.7,4.7,0,0,1,.914,3.109v.6H99.344a3,3,0,0,0,.73,2.02,2.3,2.3,0,0,0,1.777.77,2.517,2.517,0,0,0,1.3-.312,3.259,3.259,0,0,0,.93-.828l.883.688A3.55,3.55,0,0,1,101.773,41.156Zm-.18-7.578a1.928,1.928,0,0,0-1.469.637A3.1,3.1,0,0,0,99.391,36h4.234v-.109a2.753,2.753,0,0,0-.594-1.707A1.815,1.815,0,0,0,101.594,33.578Zm9.234.266a4.331,4.331,0,0,0-.711-.055A1.9,1.9,0,0,0,108.188,35v6h-1.445V32.547h1.406l.023.977a2.251,2.251,0,0,1,2.016-1.133,1.477,1.477,0,0,1,.641.109ZM111.8,36.7a4.952,4.952,0,0,1,.922-3.129,3.137,3.137,0,0,1,4.766-.168V29h1.445V41h-1.328l-.07-.906a2.943,2.943,0,0,1-2.414,1.063,2.887,2.887,0,0,1-2.395-1.2,5.008,5.008,0,0,1-.926-3.141Zm1.445.164a3.749,3.749,0,0,0,.594,2.25,1.92,1.92,0,0,0,1.641.813,2.108,2.108,0,0,0,2.008-1.234V34.813a2.125,2.125,0,0,0-1.992-1.2,1.929,1.929,0,0,0-1.656.82A4.128,4.128,0,0,0,113.25,36.867ZM120.8,36.7a4.993,4.993,0,0,1,.488-2.234,3.643,3.643,0,0,1,1.359-1.531,3.7,3.7,0,0,1,1.988-.539,3.565,3.565,0,0,1,2.793,1.2,4.6,4.6,0,0,1,1.066,3.18v.1a5.036,5.036,0,0,1-.473,2.215,3.589,3.589,0,0,1-1.352,1.527,3.743,3.743,0,0,1-2.02.547,3.556,3.556,0,0,1-2.785-1.2A4.575,4.575,0,0,1,120.8,36.8Zm1.453.172a3.616,3.616,0,0,0,.652,2.258,2.211,2.211,0,0,0,3.5-.012,3.955,3.955,0,0,0,.648-2.418,3.61,3.61,0,0,0-.66-2.254,2.1,2.1,0,0,0-1.754-.863,2.075,2.075,0,0,0-1.727.852A3.925,3.925,0,0,0,122.25,36.867Z" transform="translate(580.051 2172)" fill="#12263f"/>
    <rect id="Rectángulo_403472" data-name="Rectángulo 403472" width="141" height="72" transform="translate(258.051 2352)" fill="#d7e8fc"/>
    <path id="Trazado_884832" data-name="Trazado 884832" d="M9.688,13.391a4.185,4.185,0,0,1-1.332,2.785,4.365,4.365,0,0,1-2.98.98,4.008,4.008,0,0,1-3.23-1.445A5.815,5.815,0,0,1,.93,11.844V10.75A6.481,6.481,0,0,1,1.5,7.961,4.231,4.231,0,0,1,3.1,6.113a4.47,4.47,0,0,1,2.406-.645A4.11,4.11,0,0,1,8.414,6.48a4.235,4.235,0,0,1,1.273,2.8H8.18a3.268,3.268,0,0,0-.848-1.975A2.565,2.565,0,0,0,5.508,6.7,2.684,2.684,0,0,0,3.254,7.759a4.882,4.882,0,0,0-.816,3.026v1.1a5.018,5.018,0,0,0,.773,2.948A2.5,2.5,0,0,0,5.375,15.93a2.887,2.887,0,0,0,1.918-.566,3.143,3.143,0,0,0,.887-1.973Zm7.039,2.773a3.07,3.07,0,0,1-2.477.992,2.628,2.628,0,0,1-2.059-.785,3.4,3.4,0,0,1-.715-2.324v-5.5h1.445v5.461q0,1.922,1.563,1.922a2.163,2.163,0,0,0,2.2-1.234V8.547h1.445V17H16.758Zm8.82.836a3.036,3.036,0,0,1-.2-.891,3.225,3.225,0,0,1-2.406,1.047,2.984,2.984,0,0,1-2.051-.707,2.287,2.287,0,0,1-.8-1.793,2.39,2.39,0,0,1,1-2.051,4.733,4.733,0,0,1,2.824-.73H25.32v-.664A1.623,1.623,0,0,0,24.867,10a1.821,1.821,0,0,0-1.336-.449,2.107,2.107,0,0,0-1.3.391,1.151,1.151,0,0,0-.523.945H20.258a2,2,0,0,1,.449-1.223,3.066,3.066,0,0,1,1.219-.934,4.1,4.1,0,0,1,1.691-.344,3.342,3.342,0,0,1,2.289.73,2.635,2.635,0,0,1,.859,2.012v3.891a4.757,4.757,0,0,0,.3,1.852V17Zm-2.4-1.1a2.54,2.54,0,0,0,1.289-.352,2.127,2.127,0,0,0,.883-.914V12.9H24.188q-2.656,0-2.656,1.555a1.316,1.316,0,0,0,.453,1.063A1.742,1.742,0,0,0,23.148,15.9Zm5.531-3.2A4.952,4.952,0,0,1,29.6,9.574a3.137,3.137,0,0,1,4.766-.168V5h1.445V17H34.484l-.07-.906A2.943,2.943,0,0,1,32,17.156a2.887,2.887,0,0,1-2.395-1.2,5.008,5.008,0,0,1-.926-3.141Zm1.445.164a3.749,3.749,0,0,0,.594,2.25,1.92,1.92,0,0,0,1.641.813A2.108,2.108,0,0,0,34.367,14.7V10.813a2.125,2.125,0,0,0-1.992-1.2,1.929,1.929,0,0,0-1.656.82A4.128,4.128,0,0,0,30.125,12.867ZM42.141,9.844a4.331,4.331,0,0,0-.711-.055A1.9,1.9,0,0,0,39.5,11v6H38.055V8.547h1.406l.023.977A2.251,2.251,0,0,1,41.5,8.391a1.477,1.477,0,0,1,.641.109ZM48.375,17a3.036,3.036,0,0,1-.2-.891,3.225,3.225,0,0,1-2.406,1.047,2.984,2.984,0,0,1-2.051-.707,2.287,2.287,0,0,1-.8-1.793,2.39,2.39,0,0,1,1-2.051,4.733,4.733,0,0,1,2.824-.73h1.406v-.664A1.623,1.623,0,0,0,47.7,10a1.821,1.821,0,0,0-1.336-.449,2.107,2.107,0,0,0-1.3.391,1.151,1.151,0,0,0-.523.945H43.086a2,2,0,0,1,.449-1.223,3.066,3.066,0,0,1,1.219-.934,4.1,4.1,0,0,1,1.691-.344,3.342,3.342,0,0,1,2.289.73,2.635,2.635,0,0,1,.859,2.012v3.891a4.757,4.757,0,0,0,.3,1.852V17Zm-2.4-1.1a2.54,2.54,0,0,0,1.289-.352,2.127,2.127,0,0,0,.883-.914V12.9H47.016q-2.656,0-2.656,1.555a1.316,1.316,0,0,0,.453,1.063A1.742,1.742,0,0,0,45.977,15.9Zm7.25-7.352.047,1.063A3.08,3.08,0,0,1,55.8,8.391q2.68,0,2.7,3.023V17H57.063V11.406a1.946,1.946,0,0,0-.418-1.352,1.675,1.675,0,0,0-1.277-.437,2.086,2.086,0,0,0-1.234.375,2.546,2.546,0,0,0-.828.984V17H51.859V8.547ZM62.648,6.5V8.547h1.578V9.664H62.648v5.249a1.173,1.173,0,0,0,.211.763.888.888,0,0,0,.719.254,3.5,3.5,0,0,0,.688-.094V17a4.215,4.215,0,0,1-1.109.155A1.8,1.8,0,0,1,61.7,16.57a2.517,2.517,0,0,1-.492-1.664V9.664H59.664V8.547H61.2V6.5Zm6.773,10.656a3.693,3.693,0,0,1-2.8-1.129,4.19,4.19,0,0,1-1.078-3.02v-.266a5.073,5.073,0,0,1,.48-2.246,3.748,3.748,0,0,1,1.344-1.547,3.378,3.378,0,0,1,1.871-.559A3.166,3.166,0,0,1,71.8,9.477a4.7,4.7,0,0,1,.914,3.109v.6H66.992a3,3,0,0,0,.73,2.02,2.3,2.3,0,0,0,1.777.77,2.517,2.517,0,0,0,1.3-.312,3.259,3.259,0,0,0,.93-.828l.883.688A3.55,3.55,0,0,1,69.422,17.156Zm-.18-7.578a1.928,1.928,0,0,0-1.469.637A3.1,3.1,0,0,0,67.039,12h4.234v-.109a2.753,2.753,0,0,0-.594-1.707A1.815,1.815,0,0,0,69.242,9.578ZM79.922,17H78.477V8.547h1.445ZM78.359,6.3a.863.863,0,0,1,.215-.594.807.807,0,0,1,.637-.242.819.819,0,0,1,.641.242.854.854,0,0,1,.219.594.826.826,0,0,1-.219.586.834.834,0,0,1-.641.234.821.821,0,0,1-.637-.234A.834.834,0,0,1,78.359,6.3ZM83.6,8.547l.047,1.063A3.08,3.08,0,0,1,86.18,8.391q2.68,0,2.7,3.023V17H87.438V11.406a1.946,1.946,0,0,0-.418-1.352,1.675,1.675,0,0,0-1.277-.437,2.086,2.086,0,0,0-1.234.375,2.546,2.546,0,0,0-.828.984V17H82.234V8.547ZM91.773,17V9.664H90.438V8.547h1.336V7.68a2.878,2.878,0,0,1,.727-2.1,2.745,2.745,0,0,1,2.055-.742,3.816,3.816,0,0,1,.992.132l-.078,1.165a4.151,4.151,0,0,0-.781-.07,1.41,1.41,0,0,0-1.086.411,1.669,1.669,0,0,0-.383,1.18v.893h1.8V9.664h-1.8V17Zm8.352.156a3.693,3.693,0,0,1-2.8-1.129,4.19,4.19,0,0,1-1.078-3.02v-.266a5.073,5.073,0,0,1,.48-2.246,3.748,3.748,0,0,1,1.344-1.547,3.378,3.378,0,0,1,1.871-.559,3.166,3.166,0,0,1,2.563,1.086,4.7,4.7,0,0,1,.914,3.109v.6H97.7a3,3,0,0,0,.73,2.02,2.3,2.3,0,0,0,1.777.77,2.517,2.517,0,0,0,1.3-.312,3.259,3.259,0,0,0,.93-.828l.883.688A3.55,3.55,0,0,1,100.125,17.156Zm-.18-7.578a1.928,1.928,0,0,0-1.469.637A3.1,3.1,0,0,0,97.742,12h4.234v-.109a2.753,2.753,0,0,0-.594-1.707A1.815,1.815,0,0,0,99.945,9.578Zm9.234.266a4.331,4.331,0,0,0-.711-.055A1.9,1.9,0,0,0,106.539,11v6h-1.445V8.547H106.5l.023.977a2.251,2.251,0,0,1,2.016-1.133,1.477,1.477,0,0,1,.641.109Zm2.9,7.156h-1.445V8.547h1.445ZM110.516,6.3a.863.863,0,0,1,.215-.594.807.807,0,0,1,.637-.242.819.819,0,0,1,.641.242.854.854,0,0,1,.219.594.826.826,0,0,1-.219.586.834.834,0,0,1-.641.234.821.821,0,0,1-.637-.234A.834.834,0,0,1,110.516,6.3Zm3.492,6.391a4.993,4.993,0,0,1,.488-2.234,3.643,3.643,0,0,1,1.359-1.531,3.7,3.7,0,0,1,1.988-.539,3.565,3.565,0,0,1,2.793,1.2,4.6,4.6,0,0,1,1.066,3.18v.1a5.036,5.036,0,0,1-.473,2.215,3.589,3.589,0,0,1-1.352,1.527,3.743,3.743,0,0,1-2.02.547,3.556,3.556,0,0,1-2.785-1.2,4.575,4.575,0,0,1-1.066-3.164Zm1.453.172a3.616,3.616,0,0,0,.652,2.258,2.211,2.211,0,0,0,3.5-.012,3.955,3.955,0,0,0,.648-2.418,3.61,3.61,0,0,0-.66-2.254,2.1,2.1,0,0,0-1.754-.863,2.075,2.075,0,0,0-1.727.852A3.925,3.925,0,0,0,115.461,12.867ZM127.6,9.844a4.331,4.331,0,0,0-.711-.055A1.9,1.9,0,0,0,124.961,11v6h-1.445V8.547h1.406l.023.977a2.251,2.251,0,0,1,2.016-1.133,1.477,1.477,0,0,1,.641.109ZM1.32,41V29.625H4.531a5.169,5.169,0,0,1,2.625.656,4.438,4.438,0,0,1,1.762,1.867,6.078,6.078,0,0,1,.629,2.781v.727a6.1,6.1,0,0,1-.621,2.82,4.369,4.369,0,0,1-1.773,1.859A5.5,5.5,0,0,1,4.469,41Zm1.5-10.148v8.922H4.4a3.434,3.434,0,0,0,2.7-1.079,4.458,4.458,0,0,0,.965-3.073v-.665a4.529,4.529,0,0,0-.91-3.014A3.239,3.239,0,0,0,4.57,30.852Zm12.273,10.3a3.693,3.693,0,0,1-2.8-1.129,4.19,4.19,0,0,1-1.078-3.02v-.266A5.073,5.073,0,0,1,11.7,34.5a3.748,3.748,0,0,1,1.344-1.547,3.378,3.378,0,0,1,1.871-.559,3.166,3.166,0,0,1,2.563,1.086,4.7,4.7,0,0,1,.914,3.109v.6H12.664a3,3,0,0,0,.73,2.02,2.3,2.3,0,0,0,1.777.77,2.517,2.517,0,0,0,1.3-.312,3.259,3.259,0,0,0,.93-.828l.883.688A3.55,3.55,0,0,1,15.094,41.156Zm-.18-7.578a1.928,1.928,0,0,0-1.469.637A3.1,3.1,0,0,0,12.711,36h4.234v-.109a2.753,2.753,0,0,0-.594-1.707A1.815,1.815,0,0,0,14.914,33.578Zm9.234.266a4.331,4.331,0,0,0-.711-.055A1.9,1.9,0,0,0,21.508,35v6H20.063V32.547h1.406l.023.977a2.251,2.251,0,0,1,2.016-1.133,1.477,1.477,0,0,1,.641.109Zm4.836,7.313a3.693,3.693,0,0,1-2.8-1.129,4.19,4.19,0,0,1-1.078-3.02v-.266a5.073,5.073,0,0,1,.48-2.246,3.748,3.748,0,0,1,1.344-1.547,3.378,3.378,0,0,1,1.871-.559,3.166,3.166,0,0,1,2.563,1.086,4.7,4.7,0,0,1,.914,3.109v.6H26.555a3,3,0,0,0,.73,2.02,2.3,2.3,0,0,0,1.777.77,2.517,2.517,0,0,0,1.3-.312,3.259,3.259,0,0,0,.93-.828l.883.688A3.55,3.55,0,0,1,28.984,41.156Zm-.18-7.578a1.928,1.928,0,0,0-1.469.637A3.1,3.1,0,0,0,26.6,36h4.234v-.109a2.753,2.753,0,0,0-.594-1.707A1.815,1.815,0,0,0,28.8,33.578Zm8.539,6.4a2.082,2.082,0,0,0,1.352-.469,1.649,1.649,0,0,0,.641-1.172H40.7a2.621,2.621,0,0,1-.5,1.383,3.293,3.293,0,0,1-1.23,1.047,3.55,3.55,0,0,1-1.629.391A3.482,3.482,0,0,1,34.6,40a4.59,4.59,0,0,1-1.02-3.152v-.242a5.089,5.089,0,0,1,.453-2.2,3.451,3.451,0,0,1,1.3-1.492,3.7,3.7,0,0,1,2-.531,3.39,3.39,0,0,1,2.363.852,3.043,3.043,0,0,1,1,2.211H39.336a1.992,1.992,0,0,0-.621-1.348,1.932,1.932,0,0,0-1.379-.527,2.023,2.023,0,0,0-1.707.793,3.724,3.724,0,0,0-.605,2.293v.273a3.65,3.65,0,0,0,.6,2.25A2.033,2.033,0,0,0,37.344,39.977Zm6.43-6.406a3.073,3.073,0,0,1,2.5-1.18q2.68,0,2.7,3.023V41H47.531V35.406a1.946,1.946,0,0,0-.418-1.352,1.675,1.675,0,0,0-1.277-.437,2.086,2.086,0,0,0-1.234.375,2.546,2.546,0,0,0-.828.984V41H42.328V29h1.445ZM50.758,36.7a4.993,4.993,0,0,1,.488-2.234,3.643,3.643,0,0,1,1.359-1.531,3.7,3.7,0,0,1,1.988-.539,3.565,3.565,0,0,1,2.793,1.2,4.6,4.6,0,0,1,1.066,3.18v.1a5.036,5.036,0,0,1-.473,2.215,3.589,3.589,0,0,1-1.352,1.527,3.743,3.743,0,0,1-2.02.547,3.556,3.556,0,0,1-2.785-1.2A4.575,4.575,0,0,1,50.758,36.8Zm1.453.172a3.616,3.616,0,0,0,.652,2.258,2.211,2.211,0,0,0,3.5-.012,3.955,3.955,0,0,0,.648-2.418,3.61,3.61,0,0,0-.66-2.254,2.1,2.1,0,0,0-1.754-.863,2.075,2.075,0,0,0-1.727.852A3.925,3.925,0,0,0,52.211,36.867Z" transform="translate(265.051 2369)" fill="#12263f"/>
    <rect id="Rectángulo_403473" data-name="Rectángulo 403473" width="153" height="72" transform="translate(571.051 2357)" fill="#d7e8fc"/>
    <path id="Trazado_884833" data-name="Trazado 884833" d="M9.688,13.391a4.185,4.185,0,0,1-1.332,2.785,4.365,4.365,0,0,1-2.98.98,4.008,4.008,0,0,1-3.23-1.445A5.815,5.815,0,0,1,.93,11.844V10.75A6.481,6.481,0,0,1,1.5,7.961,4.231,4.231,0,0,1,3.1,6.113a4.47,4.47,0,0,1,2.406-.645A4.11,4.11,0,0,1,8.414,6.48a4.235,4.235,0,0,1,1.273,2.8H8.18a3.268,3.268,0,0,0-.848-1.975A2.565,2.565,0,0,0,5.508,6.7,2.684,2.684,0,0,0,3.254,7.759a4.882,4.882,0,0,0-.816,3.026v1.1a5.018,5.018,0,0,0,.773,2.948A2.5,2.5,0,0,0,5.375,15.93a2.887,2.887,0,0,0,1.918-.566,3.143,3.143,0,0,0,.887-1.973Zm7.039,2.773a3.07,3.07,0,0,1-2.477.992,2.628,2.628,0,0,1-2.059-.785,3.4,3.4,0,0,1-.715-2.324v-5.5h1.445v5.461q0,1.922,1.563,1.922a2.163,2.163,0,0,0,2.2-1.234V8.547h1.445V17H16.758Zm8.82.836a3.036,3.036,0,0,1-.2-.891,3.225,3.225,0,0,1-2.406,1.047,2.984,2.984,0,0,1-2.051-.707,2.287,2.287,0,0,1-.8-1.793,2.39,2.39,0,0,1,1-2.051,4.733,4.733,0,0,1,2.824-.73H25.32v-.664A1.623,1.623,0,0,0,24.867,10a1.821,1.821,0,0,0-1.336-.449,2.107,2.107,0,0,0-1.3.391,1.151,1.151,0,0,0-.523.945H20.258a2,2,0,0,1,.449-1.223,3.066,3.066,0,0,1,1.219-.934,4.1,4.1,0,0,1,1.691-.344,3.342,3.342,0,0,1,2.289.73,2.635,2.635,0,0,1,.859,2.012v3.891a4.757,4.757,0,0,0,.3,1.852V17Zm-2.4-1.1a2.54,2.54,0,0,0,1.289-.352,2.127,2.127,0,0,0,.883-.914V12.9H24.188q-2.656,0-2.656,1.555a1.316,1.316,0,0,0,.453,1.063A1.742,1.742,0,0,0,23.148,15.9Zm5.531-3.2A4.952,4.952,0,0,1,29.6,9.574a3.137,3.137,0,0,1,4.766-.168V5h1.445V17H34.484l-.07-.906A2.943,2.943,0,0,1,32,17.156a2.887,2.887,0,0,1-2.395-1.2,5.008,5.008,0,0,1-.926-3.141Zm1.445.164a3.749,3.749,0,0,0,.594,2.25,1.92,1.92,0,0,0,1.641.813A2.108,2.108,0,0,0,34.367,14.7V10.813a2.125,2.125,0,0,0-1.992-1.2,1.929,1.929,0,0,0-1.656.82A4.128,4.128,0,0,0,30.125,12.867ZM42.141,9.844a4.331,4.331,0,0,0-.711-.055A1.9,1.9,0,0,0,39.5,11v6H38.055V8.547h1.406l.023.977A2.251,2.251,0,0,1,41.5,8.391a1.477,1.477,0,0,1,.641.109ZM48.375,17a3.036,3.036,0,0,1-.2-.891,3.225,3.225,0,0,1-2.406,1.047,2.984,2.984,0,0,1-2.051-.707,2.287,2.287,0,0,1-.8-1.793,2.39,2.39,0,0,1,1-2.051,4.733,4.733,0,0,1,2.824-.73h1.406v-.664A1.623,1.623,0,0,0,47.7,10a1.821,1.821,0,0,0-1.336-.449,2.107,2.107,0,0,0-1.3.391,1.151,1.151,0,0,0-.523.945H43.086a2,2,0,0,1,.449-1.223,3.066,3.066,0,0,1,1.219-.934,4.1,4.1,0,0,1,1.691-.344,3.342,3.342,0,0,1,2.289.73,2.635,2.635,0,0,1,.859,2.012v3.891a4.757,4.757,0,0,0,.3,1.852V17Zm-2.4-1.1a2.54,2.54,0,0,0,1.289-.352,2.127,2.127,0,0,0,.883-.914V12.9H47.016q-2.656,0-2.656,1.555a1.316,1.316,0,0,0,.453,1.063A1.742,1.742,0,0,0,45.977,15.9Zm7.25-7.352.047,1.063A3.08,3.08,0,0,1,55.8,8.391q2.68,0,2.7,3.023V17H57.063V11.406a1.946,1.946,0,0,0-.418-1.352,1.675,1.675,0,0,0-1.277-.437,2.086,2.086,0,0,0-1.234.375,2.546,2.546,0,0,0-.828.984V17H51.859V8.547ZM62.648,6.5V8.547h1.578V9.664H62.648v5.249a1.173,1.173,0,0,0,.211.763.888.888,0,0,0,.719.254,3.5,3.5,0,0,0,.688-.094V17a4.215,4.215,0,0,1-1.109.155A1.8,1.8,0,0,1,61.7,16.57a2.517,2.517,0,0,1-.492-1.664V9.664H59.664V8.547H61.2V6.5Zm6.773,10.656a3.693,3.693,0,0,1-2.8-1.129,4.19,4.19,0,0,1-1.078-3.02v-.266a5.073,5.073,0,0,1,.48-2.246,3.748,3.748,0,0,1,1.344-1.547,3.378,3.378,0,0,1,1.871-.559A3.166,3.166,0,0,1,71.8,9.477a4.7,4.7,0,0,1,.914,3.109v.6H66.992a3,3,0,0,0,.73,2.02,2.3,2.3,0,0,0,1.777.77,2.517,2.517,0,0,0,1.3-.312,3.259,3.259,0,0,0,.93-.828l.883.688A3.55,3.55,0,0,1,69.422,17.156Zm-.18-7.578a1.928,1.928,0,0,0-1.469.637A3.1,3.1,0,0,0,67.039,12h4.234v-.109a2.753,2.753,0,0,0-.594-1.707A1.815,1.815,0,0,0,69.242,9.578ZM79.922,17H78.477V8.547h1.445ZM78.359,6.3a.863.863,0,0,1,.215-.594.807.807,0,0,1,.637-.242.819.819,0,0,1,.641.242.854.854,0,0,1,.219.594.826.826,0,0,1-.219.586.834.834,0,0,1-.641.234.821.821,0,0,1-.637-.234A.834.834,0,0,1,78.359,6.3ZM83.6,8.547l.047,1.063A3.08,3.08,0,0,1,86.18,8.391q2.68,0,2.7,3.023V17H87.438V11.406a1.946,1.946,0,0,0-.418-1.352,1.675,1.675,0,0,0-1.277-.437,2.086,2.086,0,0,0-1.234.375,2.546,2.546,0,0,0-.828.984V17H82.234V8.547ZM91.773,17V9.664H90.438V8.547h1.336V7.68a2.878,2.878,0,0,1,.727-2.1,2.745,2.745,0,0,1,2.055-.742,3.816,3.816,0,0,1,.992.132l-.078,1.165a4.151,4.151,0,0,0-.781-.07,1.41,1.41,0,0,0-1.086.411,1.669,1.669,0,0,0-.383,1.18v.893h1.8V9.664h-1.8V17Zm8.352.156a3.693,3.693,0,0,1-2.8-1.129,4.19,4.19,0,0,1-1.078-3.02v-.266a5.073,5.073,0,0,1,.48-2.246,3.748,3.748,0,0,1,1.344-1.547,3.378,3.378,0,0,1,1.871-.559,3.166,3.166,0,0,1,2.563,1.086,4.7,4.7,0,0,1,.914,3.109v.6H97.7a3,3,0,0,0,.73,2.02,2.3,2.3,0,0,0,1.777.77,2.517,2.517,0,0,0,1.3-.312,3.259,3.259,0,0,0,.93-.828l.883.688A3.55,3.55,0,0,1,100.125,17.156Zm-.18-7.578a1.928,1.928,0,0,0-1.469.637A3.1,3.1,0,0,0,97.742,12h4.234v-.109a2.753,2.753,0,0,0-.594-1.707A1.815,1.815,0,0,0,99.945,9.578Zm9.234.266a4.331,4.331,0,0,0-.711-.055A1.9,1.9,0,0,0,106.539,11v6h-1.445V8.547H106.5l.023.977a2.251,2.251,0,0,1,2.016-1.133,1.477,1.477,0,0,1,.641.109Zm2.9,7.156h-1.445V8.547h1.445ZM110.516,6.3a.863.863,0,0,1,.215-.594.807.807,0,0,1,.637-.242.819.819,0,0,1,.641.242.854.854,0,0,1,.219.594.826.826,0,0,1-.219.586.834.834,0,0,1-.641.234.821.821,0,0,1-.637-.234A.834.834,0,0,1,110.516,6.3Zm3.492,6.391a4.993,4.993,0,0,1,.488-2.234,3.643,3.643,0,0,1,1.359-1.531,3.7,3.7,0,0,1,1.988-.539,3.565,3.565,0,0,1,2.793,1.2,4.6,4.6,0,0,1,1.066,3.18v.1a5.036,5.036,0,0,1-.473,2.215,3.589,3.589,0,0,1-1.352,1.527,3.743,3.743,0,0,1-2.02.547,3.556,3.556,0,0,1-2.785-1.2,4.575,4.575,0,0,1-1.066-3.164Zm1.453.172a3.616,3.616,0,0,0,.652,2.258,2.211,2.211,0,0,0,3.5-.012,3.955,3.955,0,0,0,.648-2.418,3.61,3.61,0,0,0-.66-2.254,2.1,2.1,0,0,0-1.754-.863,2.075,2.075,0,0,0-1.727.852A3.925,3.925,0,0,0,115.461,12.867ZM127.6,9.844a4.331,4.331,0,0,0-.711-.055A1.9,1.9,0,0,0,124.961,11v6h-1.445V8.547h1.406l.023.977a2.251,2.251,0,0,1,2.016-1.133,1.477,1.477,0,0,1,.641.109ZM2.93,41H1.43V29.625h1.5ZM6.8,39.82H11.75V41H5.039V39.938l4.664-6.2H5.109v-1.2h6.406V33.57ZM13.023,36.7a4.961,4.961,0,0,1,.914-3.152,2.962,2.962,0,0,1,2.453-1.16A2.96,2.96,0,0,1,18.758,33.4l.063-.852h1.328v11.7H18.7V40.219a3.033,3.033,0,0,1-2.328.938,2.915,2.915,0,0,1-2.441-1.191,5.072,5.072,0,0,1-.91-3.16Zm1.445.164a3.761,3.761,0,0,0,.613,2.281,1.951,1.951,0,0,0,1.652.828A2.164,2.164,0,0,0,18.7,38.836V34.7a2.171,2.171,0,0,0-1.953-1.117,1.965,1.965,0,0,0-1.664.832A4.094,4.094,0,0,0,14.469,36.867Zm13.219,3.3a3.07,3.07,0,0,1-2.477.992,2.628,2.628,0,0,1-2.059-.785,3.4,3.4,0,0,1-.715-2.324v-5.5h1.445v5.461q0,1.922,1.563,1.922a2.163,2.163,0,0,0,2.2-1.234V32.547h1.445V41H27.719ZM32.859,41H31.414V32.547h1.445ZM31.3,30.3a.863.863,0,0,1,.215-.594.807.807,0,0,1,.637-.242.819.819,0,0,1,.641.242.854.854,0,0,1,.219.594.826.826,0,0,1-.219.586.834.834,0,0,1-.641.234.821.821,0,0,1-.637-.234A.834.834,0,0,1,31.3,30.3ZM38.68,41.156a3.693,3.693,0,0,1-2.8-1.129,4.19,4.19,0,0,1-1.078-3.02v-.266a5.073,5.073,0,0,1,.48-2.246,3.748,3.748,0,0,1,1.344-1.547,3.378,3.378,0,0,1,1.871-.559,3.166,3.166,0,0,1,2.563,1.086,4.7,4.7,0,0,1,.914,3.109v.6H36.25a3,3,0,0,0,.73,2.02,2.3,2.3,0,0,0,1.777.77,2.517,2.517,0,0,0,1.3-.312,3.258,3.258,0,0,0,.93-.828l.883.688A3.55,3.55,0,0,1,38.68,41.156Zm-.18-7.578a1.928,1.928,0,0,0-1.469.637A3.1,3.1,0,0,0,36.3,36h4.234v-.109a2.753,2.753,0,0,0-.594-1.707A1.815,1.815,0,0,0,38.5,33.578Zm9.234.266a4.331,4.331,0,0,0-.711-.055A1.9,1.9,0,0,0,45.094,35v6H43.648V32.547h1.406l.023.977a2.251,2.251,0,0,1,2.016-1.133,1.477,1.477,0,0,1,.641.109Zm.977,2.859a4.952,4.952,0,0,1,.922-3.129,3.137,3.137,0,0,1,4.766-.168V29h1.445V41H54.516l-.07-.906a2.943,2.943,0,0,1-2.414,1.063,2.887,2.887,0,0,1-2.395-1.2,5.008,5.008,0,0,1-.926-3.141Zm1.445.164a3.749,3.749,0,0,0,.594,2.25,1.919,1.919,0,0,0,1.641.813A2.108,2.108,0,0,0,54.4,38.7V34.813a2.125,2.125,0,0,0-1.992-1.2,1.929,1.929,0,0,0-1.656.82A4.128,4.128,0,0,0,50.156,36.867ZM57.7,36.7a4.993,4.993,0,0,1,.488-2.234,3.643,3.643,0,0,1,1.359-1.531,3.7,3.7,0,0,1,1.988-.539,3.565,3.565,0,0,1,2.793,1.2,4.6,4.6,0,0,1,1.066,3.18v.1a5.036,5.036,0,0,1-.473,2.215,3.589,3.589,0,0,1-1.352,1.527,3.743,3.743,0,0,1-2.02.547,3.556,3.556,0,0,1-2.785-1.2A4.575,4.575,0,0,1,57.7,36.8Zm1.453.172a3.616,3.616,0,0,0,.652,2.258,2.211,2.211,0,0,0,3.5-.012,3.955,3.955,0,0,0,.648-2.418,3.61,3.61,0,0,0-.66-2.254,2.1,2.1,0,0,0-1.754-.863,2.075,2.075,0,0,0-1.727.852A3.925,3.925,0,0,0,59.156,36.867Z" transform="translate(580.051 2374)" fill="#12263f"/>
  </g>
</svg>
