<svg id="Grupo_1103167" data-name="Grupo 1103167" xmlns="http://www.w3.org/2000/svg" xmlns:xlink="http://www.w3.org/1999/xlink" width="62" height="50.477" viewBox="0 0 62 50.477">
  <defs>
    <clipPath id="clip-path">
      <rect id="Rectángulo_403530" data-name="Rectángulo 403530" width="62" height="50.477" fill="none"/>
    </clipPath>
  </defs>
  <g id="Grupo_1103166" data-name="Grupo 1103166" clip-path="url(#clip-path)">
    <path id="Trazado_882898" data-name="Trazado 882898" d="M37.511,50.034a2.16,2.16,0,0,1-1.538-.637.765.765,0,0,1,1.081-1.082.662.662,0,0,0,.912,0c4.643-4.643,8.537-8.478,11.8-11.693,14.518-14.3,16.384-16.138,16.384-22.2A13.007,13.007,0,0,0,43.925,5.361l-5.874,5.874a.765.765,0,0,1-1.082,0L31.432,5.7a13.926,13.926,0,0,0-9.773-4.062A12.949,12.949,0,0,0,8.767,14.61,13.15,13.15,0,0,0,10.116,20.4a.765.765,0,0,1-1.371.677A14.688,14.688,0,0,1,7.237,14.61,14.48,14.48,0,0,1,21.659.1a15.464,15.464,0,0,1,10.854,4.51l5,5,5.333-5.333A14.536,14.536,0,0,1,67.68,14.421c0,6.7-1.917,8.593-16.84,23.291-3.261,3.213-7.152,7.045-11.792,11.685a2.16,2.16,0,0,1-1.538.637" transform="translate(-5.68)" fill="#2f3542"/>
    <path id="Trazado_882899" data-name="Trazado 882899" d="M227.223,32.176a.764.764,0,0,1-.757-.879,8.648,8.648,0,0,0-1.988-7.03,8.754,8.754,0,0,0-6.66-3.026.765.765,0,0,1,0-1.53,10.215,10.215,0,0,1,10.16,11.813.765.765,0,0,1-.755.651" transform="translate(-170.359 -15.471)" fill="#2f3542"/>
    <path id="Trazado_882900" data-name="Trazado 882900" d="M247.83,90a.765.765,0,0,1-.541-1.306,9.8,9.8,0,0,0,1.706-2.29.765.765,0,1,1,1.347.723,11.315,11.315,0,0,1-1.971,2.648.762.762,0,0,1-.541.224" transform="translate(-193.914 -67.503)" fill="#2f3542"/>
    <path id="Trazado_882901" data-name="Trazado 882901" d="M42.094,107.463a3.024,3.024,0,0,1-2.284-1.043l-7.34-8.47a3.023,3.023,0,1,1,4.57-3.96l4.449,5.134L49.176,84.6a3.024,3.024,0,1,1,5.345,2.829l-9.755,18.424a3.024,3.024,0,0,1-2.329,1.589,2.9,2.9,0,0,1-.343.02M34.752,94.476a1.493,1.493,0,0,0-1.126,2.472l7.34,8.47a1.494,1.494,0,0,0,2.449-.28l9.754-18.424a1.494,1.494,0,1,0-2.64-1.4l-8.212,15.51a.765.765,0,0,1-1.254.143l-5.18-5.978a1.483,1.483,0,0,0-1.022-.512c-.036,0-.073,0-.109,0" transform="translate(-24.906 -65.139)" fill="#2f3542"/>
    <path id="Trazado_882902" data-name="Trazado 882902" d="M16.338,115.372A16.345,16.345,0,1,1,22,83.687a.765.765,0,1,1-.528,1.436,14.8,14.8,0,1,0,7.822,6.689.765.765,0,1,1,1.335-.746,16.352,16.352,0,0,1-14.287,24.306" transform="translate(0 -64.895)" fill="#2f3542"/>
  </g>
</svg>
