<svg id="Grupo_1103165" data-name="Grupo 1103165" xmlns="http://www.w3.org/2000/svg" xmlns:xlink="http://www.w3.org/1999/xlink" width="46.358" height="60.251" viewBox="0 0 46.358 60.251">
  <defs>
    <clipPath id="clip-path">
      <rect id="Rectángulo_403529" data-name="Rectángulo 403529" width="46.358" height="60.251" fill="#12263f"/>
    </clipPath>
  </defs>
  <g id="Grupo_1103164" data-name="Grupo 1103164" clip-path="url(#clip-path)">
    <path id="Trazado_882889" data-name="Trazado 882889" d="M35.652,99.774a6.615,6.615,0,0,1-.753-.043C10.464,96.918,6.741,82.8,6.275,76.863c-.738-9.394,4.315-17.974,9.326-19.368C26.182,54.546,32.57,68,32.634,68.133a.712.712,0,0,1-1.291.6c-.058-.125-5.947-12.487-15.36-9.867-4.387,1.221-8.963,9.3-8.289,17.885.439,5.588,3.985,18.874,27.369,21.566,5.012.578,8.079-6.295,9.176-12.357,1.959-10.821-.82-23.716-8.725-25.681a.712.712,0,0,1-.159-1.321c.221-.115,5.45-2.788,10.56.192,1.221.713,2.159.656,2.863-.171,1.35-1.586,1.295-4.844.794-5.452s-4.443-2.668-9.418-2.687h-.071c-3.9,0-9.57,1.269-14.591,7.27A.712.712,0,1,1,24.4,57.2c5.406-6.46,11.574-7.832,15.759-7.779,5.184.02,9.6,2.1,10.511,3.206,1.07,1.3.828,5.356-.808,7.278-.68.8-2.188,1.924-4.665.479a9.663,9.663,0,0,0-7.436-.8C45.115,63.113,47.6,75.4,45.639,86.214c-1.532,8.463-5.32,13.56-9.987,13.56" transform="translate(-4.961 -39.523)" fill="#12263f"/>
    <path id="Trazado_882890" data-name="Trazado 882890" d="M11.615,70.761a.712.712,0,0,1-.7-.83c.019-.114,2.053-11.434,12.69-11.156a.712.712,0,0,1,.695.729.736.736,0,0,1-.729.694c-9.366-.206-11.181,9.554-11.253,9.971a.712.712,0,0,1-.7.592" transform="translate(-8.72 -47.007)" fill="#12263f"/>
    <path id="Trazado_882891" data-name="Trazado 882891" d="M3.993,33.02A.712.712,0,0,1,3.971,31.6a3.954,3.954,0,0,0,2.785-1.383,3.216,3.216,0,0,0,.919-2.172.712.712,0,1,1,1.418-.125,4.541,4.541,0,0,1-1.271,3.241,5.382,5.382,0,0,1-3.8,1.861H3.993" transform="translate(-2.625 -21.81)" fill="#12263f"/>
    <path id="Trazado_882892" data-name="Trazado 882892" d="M73.987,16.606a.712.712,0,0,1-.651-1,22.47,22.47,0,0,1,1.832-3.192c-.536-1.236-2.116-4.562-2.959-6.319a.712.712,0,0,1,.5-1,4.756,4.756,0,0,0,1.9-1.176.761.761,0,0,1,.574-.395.717.717,0,0,1,.631.237c1.266,1.572,2.673,3.3,3.377,4.124q.5-.419,1.012-.788c-.04-1.4-.17-5.577-.17-5.577a.712.712,0,0,1,.644-.731,5.623,5.623,0,0,0,2.2-.7.714.714,0,0,1,.951.258L86.384,4.6a11.77,11.77,0,0,1,1.891-.087L89.833.761A.712.712,0,0,1,90.868.43a1.842,1.842,0,0,0,1.813.311.712.712,0,0,1,1.02.571l.454,4.7A22.3,22.3,0,0,1,97.316,7.83a.711.711,0,0,1-.8,1.176A20.387,20.387,0,0,0,93.2,7.145a.711.711,0,0,1-.424-.584l-.413-4.276a3.178,3.178,0,0,1-1.514-.263l-1.458,3.5a.71.71,0,0,1-.706.429,10.467,10.467,0,0,0-2.548.115.71.71,0,0,1-.731-.337L82.942,1.64a6.931,6.931,0,0,1-1.47.466c.043,1.426.147,4.8.161,5.332a.712.712,0,0,1-.31.605A15.962,15.962,0,0,0,79.6,9.407a.711.711,0,0,1-.965-.007c-.347-.324-2.368-2.81-3.413-4.1a6.955,6.955,0,0,1-1.4.879c.746,1.562,2.494,5.24,2.812,6.067a.712.712,0,0,1-.081.663,21.861,21.861,0,0,0-1.919,3.275.713.713,0,0,1-.651.423" transform="translate(-57.699 -0.001)" fill="#12263f"/>
    <path id="Trazado_882893" data-name="Trazado 882893" d="M5.6,37.717a.711.711,0,0,1-.6-.329A48.78,48.78,0,0,0,.728,31.356a2.78,2.78,0,0,1-.043-3.711c1.086-1.572,3.4-2.964,4.77-2.4,1.575.653,7.573,6.081,8.252,6.7A.712.712,0,1,1,12.749,33c-2.493-2.266-6.826-6.017-7.84-6.437-.449-.186-2.143.572-3.054,1.891-.806,1.166-.268,1.739-.091,1.927A48.992,48.992,0,0,1,6.2,36.623a.711.711,0,0,1-.6,1.094" transform="translate(0 -20.091)" fill="#12263f"/>
    <path id="Trazado_882894" data-name="Trazado 882894" d="M91.186,143.648a.712.712,0,0,1-.709-.665,7.663,7.663,0,0,1,1.064-5.131c.756-1.379,1.791-3.267,2.454-8.963.717-6.153-3.579-12.165-7.308-16.125a.712.712,0,0,1,1.036-.976c3.937,4.18,8.466,10.569,7.686,17.266-.7,5.972-1.808,8-2.62,9.482a6.3,6.3,0,0,0-.891,4.355.712.712,0,0,1-.664.757h-.047" transform="translate(-69.179 -89.232)" fill="#12263f"/>
    <path id="Trazado_882895" data-name="Trazado 882895" d="M126.743,211.381a.713.713,0,0,1-.228-.037c-3-1.016-3.388-4.359-3.4-4.5a.712.712,0,0,1,1.415-.151,4.084,4.084,0,0,0,2.444,3.3.712.712,0,0,1-.228,1.386" transform="translate(-98.465 -164.81)" fill="#12263f"/>
    <path id="Trazado_882896" data-name="Trazado 882896" d="M126.88,173.238c-3.415,0-4.8-2.093-5.056-3.211a.712.712,0,0,1,1.386-.324c.025.1.614,2.183,3.763,2.112a.676.676,0,0,1,.721.7.712.712,0,0,1-.7.721h-.111" transform="translate(-97.424 -135.295)" fill="#12263f"/>
    <path id="Trazado_882897" data-name="Trazado 882897" d="M103.066,138.249a.712.712,0,0,1-.508-1.21c.7-.714.308-3.734-.179-5.55a.711.711,0,0,1,1.374-.369c.238.883,1.344,5.366-.179,6.916a.708.708,0,0,1-.508.213" transform="translate(-81.866 -104.452)" fill="#12263f"/>
  </g>
</svg>
