<svg xmlns="http://www.w3.org/2000/svg" xmlns:xlink="http://www.w3.org/1999/xlink" width="105" height="105" viewBox="0 0 105 105">
  <defs>
    <clipPath id="clip-path">
      <rect id="Rectángulo_403841" data-name="Rectángulo 403841" width="68.588" height="63.888" fill="#12263f"/>
    </clipPath>
  </defs>
  <g id="Grupo_1103840" data-name="Grupo 1103840" transform="translate(-1125 -10555)">
    <circle id="Elipse_11831" data-name="Elipse 11831" cx="52.5" cy="52.5" r="52.5" transform="translate(1125 10555)" fill="#ffb27e"/>
    <g id="Grupo_1103839" data-name="Grupo 1103839" transform="translate(1143.412 10576.556)">
      <g id="Grupo_1103838" data-name="Grupo 1103838" clip-path="url(#clip-path)">
        <path id="Trazado_884075" data-name="Trazado 884075" d="M33.812,82.595a7.345,7.345,0,0,1-3.505-.892A92.067,92.067,0,0,1,11.938,68.737C3.807,61.1-.207,53.358.008,45.719A18.383,18.383,0,0,1,5.657,33a20.067,20.067,0,0,1,12.88-5.6,20.789,20.789,0,0,1,15.276,5.283,20,20,0,0,1,6.729-4.062.95.95,0,1,1,.644,1.786,18,18,0,0,0-6.7,4.262.978.978,0,0,1-1.354,0A18.775,18.775,0,0,0,18.642,29.3,18.166,18.166,0,0,0,6.979,34.367,16.492,16.492,0,0,0,1.907,45.773c-.2,7.073,3.613,14.333,11.331,21.58a90.092,90.092,0,0,0,17.974,12.68,5.441,5.441,0,0,0,5.2,0A90.115,90.115,0,0,0,54.387,67.353c7.718-7.247,11.53-14.508,11.331-21.58a.95.95,0,1,1,1.9-.053c.215,7.638-3.8,15.383-11.929,23.018A92.071,92.071,0,0,1,37.317,81.7a7.354,7.354,0,0,1-3.505.892" transform="translate(0 -18.707)" fill="#12263f"/>
        <path id="Trazado_884076" data-name="Trazado 884076" d="M66.916,99.278h-.051a.949.949,0,0,1-.89-.812L63.21,79.289l-2.5,12.145a.949.949,0,0,1-1.824.127l-2.322-6.509L55.55,87.789a.949.949,0,0,1-.89.621l-7.551.008h0a.95.95,0,0,1,0-1.9L54,86.512l1.685-4.573a.95.95,0,0,1,.891-.621h.005a.95.95,0,0,1,.889.63L59.53,87.73l2.915-14.136a.949.949,0,0,1,1.87.056l2.858,19.809L70.7,79.551a.95.95,0,0,1,1.823-.062l2.315,7.07,7.482-.04h.005a.95.95,0,0,1,0,1.9l-8.174.043h0a.95.95,0,0,1-.9-.654l-1.512-4.62-3.9,15.375a.949.949,0,0,1-.92.716" transform="translate(-31.55 -49.784)" fill="#12263f"/>
        <path id="Trazado_884077" data-name="Trazado 884077" d="M161.567,44.752a8.612,8.612,0,1,1,8.612-8.612,8.622,8.622,0,0,1-8.612,8.612m0-15.326a6.713,6.713,0,1,0,6.713,6.713,6.721,6.721,0,0,0-6.713-6.713" transform="translate(-104.545 -18.815)" fill="#12263f"/>
        <path id="Trazado_884078" data-name="Trazado 884078" d="M173.641,49.163a.946.946,0,0,1-.671-.278L170.9,46.813a.949.949,0,0,1,1.343-1.343l2.072,2.072a.95.95,0,0,1-.671,1.621" transform="translate(-116.618 -30.889)" fill="#12263f"/>
        <path id="Trazado_884079" data-name="Trazado 884079" d="M178.116,5.945a.949.949,0,0,1-.95-.95V.95a.95.95,0,1,1,1.9,0V5a.949.949,0,0,1-.949.95" transform="translate(-121.093)" fill="#12263f"/>
        <path id="Trazado_884080" data-name="Trazado 884080" d="M161.116,12.306a.949.949,0,0,1-.878-.589l-.266-.646a.95.95,0,1,1,1.756-.723l.266.646a.95.95,0,0,1-.878,1.311" transform="translate(-109.292 -6.671)" fill="#12263f"/>
        <path id="Trazado_884081" data-name="Trazado 884081" d="M146.515,21.721a.947.947,0,0,1-.675-.281L143.9,19.478a.95.95,0,1,1,1.35-1.336L147.19,20.1a.949.949,0,0,1-.675,1.618" transform="translate(-98.167 -12.207)" fill="#12263f"/>
        <path id="Trazado_884082" data-name="Trazado 884082" d="M194.54,12.306a.95.95,0,0,1-.878-1.311l.266-.646a.95.95,0,0,1,1.756.723l-.266.646a.949.949,0,0,1-.878.589" transform="translate(-132.319 -6.671)" fill="#12263f"/>
        <path id="Trazado_884083" data-name="Trazado 884083" d="M205.521,21.721a.95.95,0,0,1-.675-1.618l1.942-1.961a.95.95,0,0,1,1.35,1.336L206.2,21.439a.948.948,0,0,1-.675.281" transform="translate(-139.825 -12.207)" fill="#12263f"/>
        <path id="Trazado_884084" data-name="Trazado 884084" d="M178.116,80.237a.949.949,0,0,1-.95-.95V76.9a.95.95,0,1,1,1.9,0v2.388a.949.949,0,0,1-.949.95" transform="translate(-121.093 -51.912)" fill="#12263f"/>
      </g>
    </g>
  </g>
</svg>
