<svg xmlns="http://www.w3.org/2000/svg" xmlns:xlink="http://www.w3.org/1999/xlink" width="254" height="170" viewBox="0 0 254 170">
  <defs>
    <clipPath id="clip-path">
      <rect id="Rectángulo_403880" data-name="Rectángulo 403880" width="254" height="170" transform="translate(0 -0.408)" fill="none"/>
    </clipPath>
  </defs>
  <g id="Grupo_1103852" data-name="Grupo 1103852" transform="translate(0.051 0.774)">
    <path id="Trazado_884333" data-name="Trazado 884333" d="M930.35,118.907V10.176h55.006V119.715Z" transform="translate(-740.621 -8.145)" fill="#fff"/>
    <g id="Grupo_1103851" data-name="Grupo 1103851" transform="translate(-0.051 -0.366)">
      <g id="Grupo_1103850" data-name="Grupo 1103850" clip-path="url(#clip-path)">
        <path id="Trazado_884334" data-name="Trazado 884334" d="M984.56,119.123h0l-55.006-.808a.2.2,0,0,1-.2-.2V9.38a.2.2,0,0,1,.2-.2H984.56a.2.2,0,0,1,.2.2V118.919a.2.2,0,0,1-.2.2m-54.8-1.213,54.6.8V9.584h-54.6Z" transform="translate(-739.774 -6.983)" fill="#281d57"/>
        <rect id="Rectángulo_403874" data-name="Rectángulo 403874" width="26.757" height="50.203" transform="translate(196.609 10.327)" fill="#fff"/>
        <path id="Trazado_884335" data-name="Trazado 884335" d="M989.8,98.67H963.041a.2.2,0,0,1-.2-.2v-50.2a.2.2,0,0,1,.2-.2H989.8a.2.2,0,0,1,.2.2v50.2a.2.2,0,0,1-.2.2m-26.553-.408h26.349V48.468H963.245Z" transform="translate(-766.432 -37.937)" fill="#281d57"/>
        <rect id="Rectángulo_403875" data-name="Rectángulo 403875" width="26.757" height="31.983" transform="translate(196.609 67.576)" fill="#fff"/>
        <path id="Trazado_884336" data-name="Trazado 884336" d="M989.8,361.164H963.041a.2.2,0,0,1-.2-.2V328.976a.2.2,0,0,1,.2-.2H989.8a.2.2,0,0,1,.2.2V360.96a.2.2,0,0,1-.2.2m-26.553-.408h26.349V329.18H963.245Z" transform="translate(-766.432 -261.4)" fill="#281d57"/>
        <path id="Trazado_884337" data-name="Trazado 884337" d="M895.55,532.18l-9.131,11.254h72.925l-8.9-11.254Z" transform="translate(-705.598 -423.325)" fill="#fff"/>
        <path id="Trazado_884338" data-name="Trazado 884338" d="M958.548,542.841H885.622a.2.2,0,0,1-.158-.332l9.131-11.254a.2.2,0,0,1,.159-.076h54.891a.2.2,0,0,1,.16.077l8.9,11.254a.2.2,0,0,1-.16.33m-72.5-.408h72.076l-8.58-10.846h-54.7Z" transform="translate(-704.802 -422.529)" fill="#281d57"/>
        <rect id="Rectángulo_403876" data-name="Rectángulo 403876" width="7.58" height="89.033" transform="translate(230.079 10.526)" fill="#ebecfd"/>
        <rect id="Rectángulo_403877" data-name="Rectángulo 403877" width="94.437" height="85.595" transform="translate(20.949 3.01)" fill="#fff"/>
        <path id="Trazado_884339" data-name="Trazado 884339" d="M196.144,98.181H101.707a.2.2,0,0,1-.2-.2V12.383a.2.2,0,0,1,.2-.2h94.437a.2.2,0,0,1,.2.2V97.978a.2.2,0,0,1-.2.2m-94.233-.408H195.94V12.587H101.911Z" transform="translate(-80.758 -9.373)" fill="#ebecfd"/>
        <path id="Trazado_884340" data-name="Trazado 884340" d="M196.145,155.032H101.708a.2.2,0,1,1,0-.408h94.437a.2.2,0,0,1,0,.408" transform="translate(-80.759 -122.768)" fill="#ebecfd"/>
        <path id="Trazado_884341" data-name="Trazado 884341" d="M196.145,294H101.708a.2.2,0,0,1,0-.408h94.437a.2.2,0,0,1,0,.408" transform="translate(-80.759 -233.398)" fill="#ebecfd"/>
        <path id="Trazado_884342" data-name="Trazado 884342" d="M411.938,98.181a.2.2,0,0,1-.2-.2V12.383a.2.2,0,1,1,.408,0V97.978a.2.2,0,0,1-.2.2" transform="translate(-327.72 -9.373)" fill="#ebecfd"/>
        <path id="Trazado_884343" data-name="Trazado 884343" d="M249.552,98.181a.2.2,0,0,1-.2-.2V12.383a.2.2,0,0,1,.408,0V97.978a.2.2,0,0,1-.2.2" transform="translate(-198.451 -9.373)" fill="#ebecfd"/>
        <path id="Trazado_884344" data-name="Trazado 884344" d="M36.263,0a8.1,8.1,0,0,1-4.527,1.466A7.951,7.951,0,0,1,27.212,0V0h0V0a8.105,8.105,0,0,1-4.525,1.464A7.95,7.95,0,0,1,18.16,0V0h0a8.1,8.1,0,0,1-4.525,1.465A7.952,7.952,0,0,1,9.108,0V0h0V0A8.105,8.105,0,0,1,4.581,1.466,7.949,7.949,0,0,1,.054,0C.033.222,0,2,0,2.188V103.46c0,2.018,2.051,3.654,4.581,3.654,2.288,0,4.184-1.338,4.526-3.086.342,1.748,2.238,3.086,4.526,3.086s4.185-1.338,4.526-3.087c.341,1.749,2.237,3.088,4.526,3.088s4.184-1.338,4.526-3.086c.342,1.748,4.533-1.256,4.533-1.256s4.574.323,4.574-1.694V2.188c0-.191-.019-2-.054-2.188" transform="translate(0.045 0.322)" fill="#ebecfd"/>
        <path id="Trazado_884345" data-name="Trazado 884345" d="M134.176,110.69a.2.2,0,0,1-.2-.2V20.19a.2.2,0,1,1,.408,0v90.3a.2.2,0,0,1-.2.2" transform="translate(-106.605 -15.588)" fill="#fff"/>
        <path id="Trazado_884346" data-name="Trazado 884346" d="M89.211,148.913a.2.2,0,0,1-.2-.2V60.039a.2.2,0,0,1,.408,0v88.67a.2.2,0,0,1-.2.2" transform="translate(-70.81 -47.31)" fill="#fff"/>
        <path id="Trazado_884347" data-name="Trazado 884347" d="M43.246,117.191a.2.2,0,0,1-.2-.2V20.19a.2.2,0,0,1,.408,0v96.8a.2.2,0,0,1-.2.2" transform="translate(-34.219 -15.588)" fill="#fff"/>
        <path id="Trazado_884348" data-name="Trazado 884348" d="M515.893,0a8.1,8.1,0,0,1-4.527,1.466A7.952,7.952,0,0,1,506.841,0V0h0V0a8.105,8.105,0,0,1-4.525,1.464A7.95,7.95,0,0,1,497.79,0V0h0a8.1,8.1,0,0,1-4.525,1.465A7.952,7.952,0,0,1,488.738,0V0h0V0a8.105,8.105,0,0,1-4.525,1.464A7.949,7.949,0,0,1,479.684,0c-.021.222-.054,2-.054,2.188V103.46c0,2.018,2.051,3.654,4.581,3.654,2.288,0,4.184-1.338,4.526-3.086.342,1.748,2.238,3.086,4.526,3.086s4.185-1.338,4.526-3.087c.341,1.749,2.237,3.088,4.526,3.088s4.184-1.338,4.526-3.086c.342,1.748,2.238,3.086,4.526,3.086,2.53,0,4.581-1.636,4.581-3.654V2.188c0-.191-.019-2-.054-2.188" transform="translate(-381.77 0.322)" fill="#ebecfd"/>
        <path id="Trazado_884349" data-name="Trazado 884349" d="M613.807,110.69a.2.2,0,0,1-.2-.2V20.19a.2.2,0,0,1,.408,0v90.3a.2.2,0,0,1-.2.2" transform="translate(-488.42 -15.588)" fill="#fff"/>
        <path id="Trazado_884350" data-name="Trazado 884350" d="M568.841,148.913a.2.2,0,0,1-.2-.2V60.039a.2.2,0,1,1,.408,0v88.67a.2.2,0,0,1-.2.2" transform="translate(-452.625 -47.31)" fill="#fff"/>
        <path id="Trazado_884351" data-name="Trazado 884351" d="M522.877,117.191a.2.2,0,0,1-.2-.2V20.19a.2.2,0,0,1,.408,0v96.8a.2.2,0,0,1-.2.2" transform="translate(-416.034 -15.588)" fill="#fff"/>
        <path id="Trazado_884352" data-name="Trazado 884352" d="M206.177,549.682a.2.2,0,0,1-.08-.016.2.2,0,0,1-.108-.268l13.731-32.255a.2.2,0,0,1,.375.16l-13.731,32.255a.2.2,0,0,1-.188.124" transform="translate(-163.922 -411.256)" fill="#281d57"/>
        <path id="Trazado_884353" data-name="Trazado 884353" d="M186.025,666.136a3.906,3.906,0,1,0,3.906-3.913,3.91,3.91,0,0,0-3.906,3.913" transform="translate(-148.042 -526.847)" fill="#281d57"/>
        <path id="Trazado_884354" data-name="Trazado 884354" d="M311.713,230.9H197.62a29.47,29.47,0,0,1-28.953-34.785l3.608-19.784c4.056-22.242,23.4-29.117,45.969-29.117h72.324c22.127,0,41.221,6.263,45.743,27.962l4.213,20.212A29.471,29.471,0,0,1,311.713,230.9" transform="translate(-133.836 -116.866)" fill="#fff"/>
        <path id="Trazado_884355" data-name="Trazado 884355" d="M310.935,230.3H196.842a29.674,29.674,0,0,1-29.153-35.026l3.608-19.784c3.544-19.432,19.077-29.284,46.169-29.284H289.79c12.417,0,22.089,1.919,29.568,5.868,8.75,4.619,14.259,12.107,16.374,22.257l4.213,20.212a29.676,29.676,0,0,1-29.01,35.758m-93.47-83.687c-26.866,0-42.265,9.74-45.768,28.95l-3.608,19.784A29.266,29.266,0,0,0,196.842,229.9H310.935a29.268,29.268,0,0,0,28.611-35.267l-4.213-20.212c-3.9-18.706-18.8-27.8-45.543-27.8Z" transform="translate(-133.058 -116.07)" fill="#281d57"/>
        <path id="Trazado_884356" data-name="Trazado 884356" d="M409.839,401.134H289.576a.2.2,0,0,1,0-.408H409.839a.2.2,0,1,1,0,.408" transform="translate(-230.313 -318.68)" fill="#281d57"/>
        <path id="Trazado_884357" data-name="Trazado 884357" d="M177.553,188.449A57.721,57.721,0,0,0,136.7,205.392l-.016.015v.041A57.877,57.877,0,0,0,153.6,246.337l.013.013a57.721,57.721,0,0,0,40.852-16.943l.016-.016v-.041a57.877,57.877,0,0,0-16.915-40.888Z" transform="translate(-108.765 -149.695)" fill="#fff"/>
        <path id="Trazado_884358" data-name="Trazado 884358" d="M152.817,245.759a.2.2,0,0,1-.144-.06,58.08,58.08,0,0,1-16.988-41.046v-.041a.2.2,0,0,1,.059-.143l.015-.016a57.924,57.924,0,0,1,41-17,.2.2,0,0,1,.144.06l.013.013a58.08,58.08,0,0,1,16.974,41.032v.041a.2.2,0,0,1-.059.143l-.015.015a57.925,57.925,0,0,1-41,17M136.093,204.7A57.294,57.294,0,0,0,152.9,245.351a57.132,57.132,0,0,0,40.579-16.839,57.294,57.294,0,0,0-16.809-40.654A57.132,57.132,0,0,0,136.093,204.7" transform="translate(-107.969 -148.9)" fill="#281d57"/>
        <path id="Trazado_884359" data-name="Trazado 884359" d="M808.817,231.354s30.648-3.969,31.6-4.485c.626-.338,3.746-2.626,5.825-4.164a1.061,1.061,0,0,1,1.687.951l-2.671,29.611-33.8-2.535Z" transform="translate(-643.822 -176.798)" fill="#fff"/>
        <path id="Trazado_884360" data-name="Trazado 884360" d="M844.467,252.675h-.015l-33.8-2.535a.2.2,0,0,1-.187-.176l-2.642-19.378a.2.2,0,0,1,.176-.23c12.266-1.589,30.787-4.088,31.534-4.463.465-.251,2.525-1.724,5.8-4.148a1.265,1.265,0,0,1,2.012,1.133l-2.671,29.61a.2.2,0,0,1-.2.186m-33.624-2.93,33.439,2.507,2.653-29.41a.857.857,0,0,0-1.363-.769c-2.327,1.723-5.231,3.846-5.849,4.179-.944.509-27.5,3.967-31.471,4.481Z" transform="translate(-643.026 -176.001)" fill="#281d57"/>
        <path id="Trazado_884361" data-name="Trazado 884361" d="M957.372,278.416h0a.2.2,0,0,1-.2-.208l.512-22.428a.2.2,0,0,1,.2-.2h0a.2.2,0,0,1,.2.209l-.512,22.428a.2.2,0,0,1-.2.2" transform="translate(-761.918 -203.135)" fill="#281d57"/>
        <path id="Trazado_884362" data-name="Trazado 884362" d="M887.64,372.592l22.878,2.967a4.15,4.15,0,0,0,4.506-2.916l8.12-26.834a1.065,1.065,0,0,0-1.517-1.25l-8.153,4.335L885.34,346.1Z" transform="translate(-704.739 -273.866)" fill="#fff"/>
        <path id="Trazado_884363" data-name="Trazado 884363" d="M910.265,375a4.444,4.444,0,0,1-.569-.037L886.818,372a.2.2,0,0,1-.177-.184l-2.3-26.493a.2.2,0,0,1,.06-.163.21.21,0,0,1,.164-.058l28.073,2.788,8.1-4.306a1.269,1.269,0,0,1,1.809,1.489l-8.12,26.834a4.34,4.34,0,0,1-4.159,3.1m-23.232-3.388,22.715,2.946a3.932,3.932,0,0,0,4.285-2.773l8.12-26.835a.861.861,0,0,0-1.227-1.011l-8.152,4.335a.2.2,0,0,1-.116.023l-27.89-2.77Z" transform="translate(-703.943 -273.069)" fill="#281d57"/>
        <path id="Trazado_884364" data-name="Trazado 884364" d="M997.107,399.644a.213.213,0,0,1-.057-.008.2.2,0,0,1-.139-.253,138.513,138.513,0,0,0,4.587-23.06.2.2,0,0,1,.406.045,138.966,138.966,0,0,1-4.6,23.128.2.2,0,0,1-.2.147" transform="translate(-793.55 -299.11)" fill="#281d57"/>
        <path id="Trazado_884365" data-name="Trazado 884365" d="M323.947,253.43l-32.283,19.161s6.691,17.8,34.73,13.5c17.031-2.61,59.543-9.325,59.543-9.325l31.363,4.3,1.576-52.345-45.2,5.295a25.245,25.245,0,0,0-6.389,1.614c-10.4,4.134-43.46,17.313-43.339,17.8" transform="translate(-232.137 -181.756)" fill="#fff"/>
        <path id="Trazado_884366" data-name="Trazado 884366" d="M317.156,286.062c-9.7,0-15.97-2.991-19.743-5.842a21.491,21.491,0,0,1-6.918-8.455l-.06-.16.147-.087,32.254-19.144c.257-.244,1.317-.749,5.312-2.433,2.943-1.241,7.138-2.966,12.468-5.127,9.443-3.829,20.1-8.076,25.617-10.268a25.479,25.479,0,0,1,6.441-1.627l45.436-5.322-.007.236L416.518,280.4l-.225-.031-31.333-4.295c-1.337.211-42.865,6.768-59.514,9.32a54.712,54.712,0,0,1-8.29.664m-26.215-14.284a21.53,21.53,0,0,0,6.738,8.131c4.692,3.538,13.306,7.293,27.706,5.086,16.836-2.581,59.116-9.257,59.542-9.325l.03,0,.03,0,31.138,4.268,1.562-51.882-44.966,5.267a25.067,25.067,0,0,0-6.337,1.6c-20.032,7.96-41.663,16.691-43.188,17.673l.008.032-.131.078Z" transform="translate(-231.158 -180.858)" fill="#281d57"/>
        <path id="Trazado_884367" data-name="Trazado 884367" d="M476.1,339.995a.2.2,0,0,1-.034-.4l52.683-9.067a20.758,20.758,0,0,1,5.477-.208l29.146,2.76a.2.2,0,0,1,.184.222.2.2,0,0,1-.222.184l-29.145-2.76a20.349,20.349,0,0,0-5.369.2l-52.683,9.067a.2.2,0,0,1-.035,0" transform="translate(-378.801 -262.555)" fill="#281d57"/>
        <path id="Trazado_884368" data-name="Trazado 884368" d="M200.466,147.914,233.01,137.2s-7.412-24.621-9.463-30.559-12.336-12.463-18.532-3.89c-9.063,12.542-15.485,47.441-4.549,45.165" transform="translate(-154.956 -78.188)" fill="#281d57"/>
        <path id="Trazado_884369" data-name="Trazado 884369" d="M245.446,256.346l-8.792-40.91s16.522-9.623,23.129-11.554c0,0,17.831,23.768,21.379,29.464l-7.7,4.961-14.55,9.37Z" transform="translate(-188.346 -161.98)" fill="#fff"/>
        <path id="Trazado_884370" data-name="Trazado 884370" d="M379.048,228.682s-23.219-29.543-28.981-25.97l20.6,30.1Z" transform="translate(-278.63 -160.81)" fill="#fff"/>
        <path id="Trazado_884371" data-name="Trazado 884371" d="M341.553,246.383a.2.2,0,0,1-.11-.376l21.993-14.031-20.478-29.927a.2.2,0,0,1,.061-.288c2.485-1.541,8.173,2.389,16.908,11.679,6.456,6.866,12.283,14.264,12.341,14.338a.2.2,0,1,1-.321.252c-.058-.074-5.875-7.46-12.319-14.313-8.235-8.757-13.824-12.794-16.2-11.711l20.468,29.913a.2.2,0,0,1-.059.287l-22.171,14.145a.2.2,0,0,1-.11.032" transform="translate(-271.69 -160.032)" fill="#281d57"/>
        <path id="Trazado_884372" data-name="Trazado 884372" d="M270.109,187.84l-.549,10.48s3.408,2.4,9.017,1.4-.4-4.042-.4-4.042l.224-8.279Z" transform="translate(-214.541 -148.861)" fill="#fff"/>
        <path id="Trazado_884373" data-name="Trazado 884373" d="M275.061,199.377a11.706,11.706,0,0,1-6.415-1.686.2.2,0,0,1-.086-.177l.549-10.48a.2.2,0,0,1,.193-.193l8.286-.438a.209.209,0,0,1,.153.058.205.205,0,0,1,.062.152l-.22,8.151c.614.324,2.966,1.654,2.783,2.9-.1.7-.937,1.182-2.55,1.469a15.694,15.694,0,0,1-2.755.249m-6.087-1.96a12.718,12.718,0,0,0,8.771,1.309c1.378-.246,2.145-.635,2.218-1.127.132-.894-1.942-2.16-2.679-2.532a.2.2,0,0,1-.112-.188l.218-8.058-7.883.417Z" transform="translate(-213.745 -148.065)" fill="#281d57"/>
        <path id="Trazado_884374" data-name="Trazado 884374" d="M271.173,145.778s4.423,4.723,8.725,2.8,1.8-11.227.96-13.081a9.794,9.794,0,0,1-8.287.114c-2.24-.94-3.638,4.723-1.4,10.167" transform="translate(-214.921 -107.542)" fill="#fff"/>
        <path id="Trazado_884375" data-name="Trazado 884375" d="M276.975,148.443c-3.565,0-6.687-3.28-6.724-3.32a.2.2,0,0,1-.04-.062c-1.723-4.188-1.34-8.679.082-10.091a1.384,1.384,0,0,1,1.584-.342,9.682,9.682,0,0,0,8.106-.1.2.2,0,0,1,.288.093c.6,1.323,2.359,7.444.994,11.032a3.929,3.929,0,0,1-2.057,2.319,5.418,5.418,0,0,1-2.233.473m-6.4-3.573c.361.371,4.513,4.5,8.468,2.728a3.537,3.537,0,0,0,1.842-2.092c1.262-3.316-.257-8.908-.9-10.522a10.224,10.224,0,0,1-8.263.02.975.975,0,0,0-1.139.256c-1.326,1.317-1.652,5.582-.007,9.61" transform="translate(-214.148 -106.747)" fill="#281d57"/>
        <path id="Trazado_884376" data-name="Trazado 884376" d="M256.578,119.226s1.778-2.123,1.415,1.226c-1.286,11.866-5.753,9.563-4.262,15.347,2.163,8.392-2.023,7.721-6.192,8.985,0,0-3.314-22.487,9.04-25.558" transform="translate(-196.689 -94.061)" fill="#281d57"/>
        <path id="Trazado_884377" data-name="Trazado 884377" d="M276.649,296.221c-10.537-2.8-30-5.017-30-5.017s-16.321-19.147-23.129-30.668c0,0-3.794,1.321-3.325,10.407.832,16.121,6.072,26.33,13.787,33.289,6.408,5.779,37.8,3.144,40.576,5.119,0,0,1.844,5.279,4.38,1.679.344,1.188,2.341,3.244,3.941.942l.159.05c.824,1.227,2.07,2.1,3.057,1.027,1.828-1.987,1.092-14.032-9.444-16.828" transform="translate(-175.211 -207.08)" fill="#fff"/>
        <path id="Trazado_884378" data-name="Trazado 884378" d="M284.3,312.772c-.037,0-.075,0-.113,0a3.1,3.1,0,0,1-2.053-1.5,2.021,2.021,0,0,1-1.984.958,3.149,3.149,0,0,1-2.073-1.75,2.159,2.159,0,0,1-1.929,1.031c-1.462-.2-2.4-2.556-2.562-2.993-1.087-.661-6.089-.765-11.866-.886-10.37-.216-24.573-.512-28.678-4.215-8.559-7.72-13.091-18.655-13.854-33.43-.471-9.134,3.3-10.554,3.462-10.61l.158-.055.085.144c6.531,11.053,22.034,29.375,23.057,30.579,1.377.16,19.861,2.335,29.95,5.013a13.6,13.6,0,0,1,9.764,9.67c.992,3.4.658,6.537-.221,7.494a1.527,1.527,0,0,1-1.142.551M282,310.766l.37.117.04.059a2.849,2.849,0,0,0,1.814,1.418,1.121,1.121,0,0,0,.923-.416c.808-.878,1.053-3.942.13-7.1a13.208,13.208,0,0,0-9.477-9.39c-10.4-2.761-29.777-4.989-29.971-5.011l-.08-.009-.052-.061c-.163-.19-16.259-19.114-23.055-30.536-.678.372-3.441,2.373-3.041,10.132.757,14.662,5.245,25.5,13.72,33.148,3.992,3.6,18.107,3.895,28.414,4.109,6.426.134,11.069.231,12.144.994l.053.038.021.061c.009.026.925,2.6,2.258,2.789.573.079,1.164-.31,1.762-1.16l.245-.347.118.408a2.8,2.8,0,0,0,1.886,1.819,1.728,1.728,0,0,0,1.691-.937Z" transform="translate(-174.414 -206.114)" fill="#281d57"/>
        <path id="Trazado_884379" data-name="Trazado 884379" d="M498.053,501.641q-.052,0-.1,0a2.949,2.949,0,0,1-1.911-1.438,2.149,2.149,0,0,1-2,.749,3.25,3.25,0,0,1-2.18-1.636,2.356,2.356,0,0,1-1.921,1.081c-1.145-.06-1.935-1.259-2.222-1.772a.2.2,0,0,1,.356-.2c.2.354.918,1.513,1.887,1.564.6.03,1.2-.373,1.786-1.2a.2.2,0,0,1,.363.061,2.766,2.766,0,0,0,2,1.7,1.893,1.893,0,0,0,1.911-.972.2.2,0,0,1,.371.13l-.017.258a2.524,2.524,0,0,0,1.61,1.269,1.158,1.158,0,0,0,.939-.447c.47-.511.907-1.837.726-4.024a.2.2,0,0,1,.186-.22.2.2,0,0,1,.22.186c.162,1.94-.157,3.6-.831,4.334a1.576,1.576,0,0,1-1.166.581" transform="translate(-388.186 -394.953)" fill="#281d57"/>
        <path id="Trazado_884380" data-name="Trazado 884380" d="M242.156,306.648l-.031,0c-3.126-.48-7.239-1.4-9.078-3.059-8.559-7.72-13.091-18.655-13.854-33.43-.471-9.134,3.3-10.554,3.462-10.61a.2.2,0,0,1,.243.089c6.531,11.053,22.034,29.374,23.057,30.579.169.02.6.07,1.244.148a.2.2,0,1,1-.049.405c-.844-.1-1.321-.157-1.322-.157a.2.2,0,0,1-.132-.07c-.163-.191-16.259-19.114-23.055-30.537-.678.372-3.441,2.373-3.041,10.133.757,14.662,5.245,25.5,13.72,33.148,1.4,1.259,4.462,2.282,8.866,2.958a.2.2,0,0,1-.031.405" transform="translate(-174.414 -206.284)" fill="#281d57"/>
        <path id="Trazado_884381" data-name="Trazado 884381" d="M498.5,481.071a.2.2,0,0,1-.2-.26c.574-2-.746-5.021-2.3-6.67a.2.2,0,1,1,.3-.28c1.664,1.769,3.014,4.895,2.393,7.062a.2.2,0,0,1-.2.148" transform="translate(-394.759 -376.849)" fill="#281d57"/>
        <path id="Trazado_884382" data-name="Trazado 884382" d="M518.209,479.966h-.016a.2.2,0,0,1-.188-.219,10.532,10.532,0,0,0-2.569-8.314.2.2,0,0,1,.305-.271,10.914,10.914,0,0,1,2.67,8.616.2.2,0,0,1-.2.189" transform="translate(-410.233 -374.696)" fill="#281d57"/>
        <path id="Trazado_884383" data-name="Trazado 884383" d="M673.315,461.977l-43.279.875a13.115,13.115,0,0,0-12.346,16.412L630.1,527.093l-3.919,6.58a2.086,2.086,0,0,0,1.79,3.155H657.22a3.763,3.763,0,0,0,3.489-5.164L647.2,489.9l32.985.3Z" transform="translate(-491.333 -367.44)" fill="#281d57"/>
        <path id="Trazado_884384" data-name="Trazado 884384" d="M656.429,536.235H627.184a2.29,2.29,0,0,1-1.965-3.463l3.876-6.507L616.7,478.519a13.318,13.318,0,0,1,12.538-16.668l43.28-.875a.207.207,0,0,1,.2.156l6.869,28.225a.2.2,0,0,1-.038.175.2.2,0,0,1-.161.077l-32.7-.3,13.423,41.5a3.966,3.966,0,0,1-3.683,5.431m15.935-74.848-43.116.872A12.911,12.911,0,0,0,617.1,478.417l12.415,47.828a.2.2,0,0,1-.022.156l-3.92,6.58a1.882,1.882,0,0,0,1.615,2.846h29.245a3.5,3.5,0,0,0,2.943-1.563,3.558,3.558,0,0,0,.356-3.321l-13.514-41.779a.2.2,0,0,1,.194-.267h0l32.723.3Z" transform="translate(-490.542 -366.643)" fill="#281d57"/>
        <path id="Trazado_884385" data-name="Trazado 884385" d="M668.942,671.147a69.782,69.782,0,0,1-12.067-1.055.2.2,0,1,1,.071-.4,69.133,69.133,0,0,0,25.255-.235.2.2,0,0,1,.078.4,69.7,69.7,0,0,1-13.337,1.291" transform="translate(-522.733 -532.601)" fill="#fff"/>
        <path id="Trazado_884386" data-name="Trazado 884386" d="M749.477,554.25a.2.2,0,0,1-.2-.145l-3.183-10.5a.2.2,0,0,1,.391-.118l3.183,10.5a.2.2,0,0,1-.136.254.208.208,0,0,1-.059.009" transform="translate(-593.888 -432.212)" fill="#fff"/>
        <path id="Trazado_884387" data-name="Trazado 884387" d="M775.625,439.595c.071.424,18.741,13.068,2.585,32.485S761.141,491.4,761.141,491.4l37.62,3.74a10.054,10.054,0,0,1,6.714,3.552L819.96,516a1.835,1.835,0,0,1-1.4,3.013H733.594a15.82,15.82,0,0,1-13.062-24.726,555.871,555.871,0,0,1,39.384-51.718Z" transform="translate(-571.336 -349.622)" fill="#281d57"/>
        <path id="Trazado_884388" data-name="Trazado 884388" d="M732.745,570.419a16.024,16.024,0,0,1-13.23-25.045c10.582-15.529,20.616-29.065,30.675-41.382a.2.2,0,0,1,.316.258c-10.051,12.307-20.078,25.834-30.654,41.353a15.616,15.616,0,0,0,12.893,24.407.2.2,0,1,1,0,.408" transform="translate(-570.487 -400.827)" fill="#fff"/>
        <path id="Trazado_884389" data-name="Trazado 884389" d="M883.656,691.881h0l-11.165-.029a.2.2,0,0,1,0-.408h0l11.165.029a.2.2,0,0,1,0,.408" transform="translate(-694.348 -550.109)" fill="#fff"/>
        <path id="Trazado_884390" data-name="Trazado 884390" d="M992.592,725.262a.2.2,0,0,1-.2-.164,136.507,136.507,0,0,0-7.8-25.652.2.2,0,0,1,.377-.156,136.943,136.943,0,0,1,7.822,25.729.2.2,0,0,1-.16.24.194.194,0,0,1-.04,0" transform="translate(-783.738 -556.254)" fill="#fff"/>
        <path id="Trazado_884391" data-name="Trazado 884391" d="M765.588,110.924S757.8,97.342,751.926,100.9c-6.266,3.792-.8,6.8-.8,6.8s-2.1,3.053,3.306,3.438c1.156.082,5.348,2.775,6.477,2.783,4.141.028,4.677-3,4.677-3" transform="translate(-596.139 -79.526)" fill="#281d57"/>
        <path id="Trazado_884392" data-name="Trazado 884392" d="M760.061,155.61a18.97,18.97,0,0,1,.135-2.346c1.676.712,4.181,1.447,5.492.221,2.082-1.947,2.735-8.059,2.735-8.059l-5.568-3.815,10.288,3.208s6.812,9.593-1.864,13.363-11.129,1.254-11.219-2.572" transform="translate(-605.008 -112.409)" fill="#281d57"/>
        <path id="Trazado_884393" data-name="Trazado 884393" d="M766.225,152.867c-1.311,1.226-3.816.491-5.492-.221.494-4.6,2.152-11.811,2.152-11.811l.508.158,4.688,3.212a1.722,1.722,0,0,1,.729,1.691c-.294,1.848-1.052,5.537-2.584,6.97" transform="translate(-605.545 -111.791)" fill="#fff"/>
        <path id="Trazado_884394" data-name="Trazado 884394" d="M763.185,141.356l.027.008,4.638,3.178a1.321,1.321,0,0,1,.556,1.291c-.249,1.566-.987,5.358-2.46,6.736a2.374,2.374,0,0,1-1.676.547,8.732,8.732,0,0,1-3.1-.73c.447-3.879,1.661-9.454,2.013-11.031m-.3-.521s-1.658,7.207-2.152,11.811a9.711,9.711,0,0,0,3.538.878,2.773,2.773,0,0,0,1.955-.657c1.533-1.433,2.291-5.122,2.585-6.97a1.723,1.723,0,0,0-.729-1.691l-4.688-3.212Z" transform="translate(-605.544 -111.791)" fill="#281d57"/>
        <path id="Trazado_884395" data-name="Trazado 884395" d="M795.03,120.39a.374.374,0,0,0-.031.558,1.622,1.622,0,0,1,.211,1.77,3.59,3.59,0,0,1-2.016,1.525,11.337,11.337,0,0,1-3.192.73,3,3,0,0,1-3.746-2.705,18.526,18.526,0,0,1-.623-5.93,3.441,3.441,0,0,1,.841-2.405c.745-.684-5.7-10.481-4.751-10.139,2.5.9,10.64-1.693,15.083,5.878,2.776,4.731.482,7.346.14,8.37a5.633,5.633,0,0,1-1.917,2.347" transform="translate(-622.178 -82.298)" fill="#281d57"/>
        <path id="Trazado_884396" data-name="Trazado 884396" d="M813.372,184.138c-1.222,1.242-3.934,3.05-9.121,2.536a1.49,1.49,0,0,1-1.078-.641c-.858-1.247-2.907-4.211-3.585-5.075-.866-1.1-.82-5.387-.319-6.73s3.25-2.168,4.323-.759.941,3.221-1.859,3.944l.43.911a1.745,1.745,0,0,0,2.071.93c1.663-.49,4.253-1.319,4.884-1.9l4.3,4.824a1.433,1.433,0,0,1-.051,1.96" transform="translate(-635.936 -137.186)" fill="#fff"/>
        <path id="Trazado_884397" data-name="Trazado 884397" d="M802.045,184.935a.2.2,0,0,1-.168-.088c-.951-1.378-2.637-3.8-3.231-4.561-.948-1.209-.838-5.618-.349-6.927a2.967,2.967,0,0,1,2.357-1.588,2.366,2.366,0,0,1,2.32.778,2.587,2.587,0,0,1,.553,2.421,3.068,3.068,0,0,1-2.286,1.779l.327.691a1.534,1.534,0,0,0,1.829.821,18.038,18.038,0,0,0,4.8-1.855.2.2,0,0,1,.29.014l4.3,4.824a.2.2,0,1,1-.3.271l-4.177-4.681a22.577,22.577,0,0,1-4.8,1.818,1.94,1.94,0,0,1-2.313-1.038l-.431-.91a.2.2,0,0,1,.134-.285,2.926,2.926,0,0,0,2.24-1.583,2.2,2.2,0,0,0-.492-2.041,1.976,1.976,0,0,0-1.936-.621,2.593,2.593,0,0,0-2.034,1.328c-.489,1.312-.5,5.522.288,6.533.571.728,2.08,2.893,3.246,4.581a.2.2,0,0,1-.168.32" transform="translate(-635.155 -136.387)" fill="#281d57"/>
        <path id="Trazado_884398" data-name="Trazado 884398" d="M805.535,186.967a.216.216,0,0,1-.054-.007.2.2,0,0,1-.143-.251,2.24,2.24,0,0,1,1.424-1.513.2.2,0,0,1,.131.386,1.852,1.852,0,0,0-1.161,1.234.2.2,0,0,1-.2.15" transform="translate(-641.047 -147.097)" fill="#281d57"/>
        <path id="Trazado_884399" data-name="Trazado 884399" d="M399.32,308.725a32.817,32.817,0,0,1-5.164-2.452c-1.994-1.316-.771-3.807,5.757-1.577a80.3,80.3,0,0,1,10.853,5.092c.07.575.135,1.151.189,1.728a85.918,85.918,0,0,1-.095,15.723c-.011.117-.023.235-.034.352a130.673,130.673,0,0,1-17.362-10.28c-1.508-1.035-1.806-2.788,2.758-1.143,0,0-4.38-1.658-5.109-3.179-.634-1.323,1.529-1.764,4.636-.865-2.042-.75-5.528-2.259-5.612-3.844-.059-1.118,2.557-2.02,9.181.446" transform="translate(-310.529 -241.524)" fill="#fff"/>
        <path id="Trazado_884400" data-name="Trazado 884400" d="M410.031,326.981a.206.206,0,0,1-.087-.02,126.5,126.5,0,0,1-17.174-10.146l-.216-.15c-.706-.485-1.294-1.217-1.016-1.76.185-.36.693-.491,1.5-.4a6.936,6.936,0,0,1-2.9-2.245.924.924,0,0,1,.072-1.069c.4-.477,1.372-.649,2.655-.517-1.937-.883-3.659-2-3.722-3.2a.987.987,0,0,1,.448-.849c.374-.275,1.717-.922,5.366-.045a16.359,16.359,0,0,1-1.706-.952c-.822-.543-1.158-1.291-.856-1.907.478-.974,2.513-1.495,6.792-.034a77.244,77.244,0,0,1,10.884,5.105.2.2,0,0,1,.105.154c.077.626.139,1.193.19,1.733a85.609,85.609,0,0,1-.094,15.76l-.034.352a.2.2,0,0,1-.2.185m-17.453-12.1c-.541,0-.658.173-.676.208-.115.225.19.762.883,1.238l.218.151a126.9,126.9,0,0,0,16.854,9.988l.006-.061a85.239,85.239,0,0,0,.095-15.686c-.048-.507-.106-1.037-.176-1.618a77.53,77.53,0,0,0-10.729-5.028c-4.311-1.473-5.985-.8-6.294-.172-.206.42.074.964.715,1.386a32.293,32.293,0,0,0,5.126,2.432.2.2,0,0,1-.145.381c-4.983-1.856-7.723-1.809-8.625-1.147a.579.579,0,0,0-.282.5c.056,1.07,2.053,2.406,5.478,3.664a.2.2,0,0,1-.127.387c-2.333-.674-3.969-.534-4.381-.048a.545.545,0,0,0-.015.629c.686,1.431,4.954,3.06,5,3.076a.2.2,0,0,1-.141.383,8.89,8.89,0,0,0-2.781-.663" transform="translate(-309.733 -240.711)" fill="#281d57"/>
        <path id="Trazado_884401" data-name="Trazado 884401" d="M590.6,299.934s11.406-14.7,6.352-30.489c-3.367-10.516-10.813-28.3-15.437-39.923a25.121,25.121,0,0,0-13.511-13.838,17.664,17.664,0,0,0-16.8,1.617l-31.543,21.3s-21.7,0-35.469-.081c0,0-3.207,12.161-1.1,20.019a145.266,145.266,0,0,0,27.121,2.305,44.482,44.482,0,0,0,19.9-5.245l15.792-8.431,7.653,17.875s22.323,23.1,37.043,34.893" transform="translate(-383.959 -170.254)" fill="#bee00f"/>
        <path id="Trazado_884402" data-name="Trazado 884402" d="M768.308,283.292l-2.609-3.246,3.242-2.612-2.443-3.04-3.242,2.612-2.609-3.246-3.037,2.446,2.609,3.246-3.242,2.612,2.443,3.04,3.242-2.612,2.609,3.246Z" transform="translate(-602.555 -217.608)" fill="#fff"/>
        <path id="Trazado_884403" data-name="Trazado 884403" d="M801.537,325.112a.2.2,0,0,1-.1-.382,71.259,71.259,0,0,0,15.723-12,.2.2,0,1,1,.29.287,71.652,71.652,0,0,1-15.813,12.07.2.2,0,0,1-.1.026" transform="translate(-637.864 -248.581)" fill="#281d57"/>
        <rect id="Rectángulo_403878" data-name="Rectángulo 403878" width="1.803" height="2.767" transform="translate(76.539 121.655)" fill="#fff"/>
        <path id="Trazado_884404" data-name="Trazado 884404" d="M376.089,597.122h-1.8a.2.2,0,0,1-.2-.2v-2.767a.2.2,0,0,1,.2-.2h1.8a.2.2,0,0,1,.2.2v2.767a.2.2,0,0,1-.2.2m-1.6-.408h1.4v-2.359h-1.4Z" transform="translate(-297.747 -472.496)" fill="#281d57"/>
        <rect id="Rectángulo_403879" data-name="Rectángulo 403879" width="1.803" height="2.767" transform="translate(98.403 121.655)" fill="#fff"/>
        <path id="Trazado_884405" data-name="Trazado 884405" d="M483.3,597.122h-1.8a.2.2,0,0,1-.2-.2v-2.767a.2.2,0,0,1,.2-.2h1.8a.2.2,0,0,1,.2.2v2.767a.2.2,0,0,1-.2.2m-1.6-.408h1.4v-2.359h-1.4Z" transform="translate(-383.094 -472.496)" fill="#281d57"/>
        <path id="Trazado_884406" data-name="Trazado 884406" d="M374.767,556.895v-5.541a1.843,1.843,0,0,1,1.838-1.837h15.056a1.843,1.843,0,0,1,1.838,1.837v5.541h3.127v-7.034a3.135,3.135,0,0,0-3.127-3.125H374.767a3.135,3.135,0,0,0-3.126,3.125v7.034Z" transform="translate(-295.804 -434.913)" fill="#fff"/>
        <path id="Trazado_884407" data-name="Trazado 884407" d="M395.829,556.3H392.7a.2.2,0,0,1-.2-.2v-5.541a1.635,1.635,0,0,0-1.634-1.633H375.808a1.635,1.635,0,0,0-1.634,1.633V556.1a.2.2,0,0,1-.2.2h-3.126a.2.2,0,0,1-.2-.2v-7.033a3.334,3.334,0,0,1,3.33-3.33H392.7a3.334,3.334,0,0,1,3.33,3.33V556.1a.2.2,0,0,1-.2.2m-2.922-.408h2.718v-6.829a2.925,2.925,0,0,0-2.922-2.922H373.97a2.925,2.925,0,0,0-2.922,2.922V555.9h2.719v-5.337a2.044,2.044,0,0,1,2.042-2.041h15.057a2.044,2.044,0,0,1,2.042,2.041Z" transform="translate(-295.007 -434.117)" fill="#281d57"/>
        <path id="Trazado_884408" data-name="Trazado 884408" d="M333.256,651.329H270.1a2.046,2.046,0,0,1-2.04-2.04V608.439a2.045,2.045,0,0,1,2.04-2.039h63.152a2.046,2.046,0,0,1,2.04,2.039v40.849a2.046,2.046,0,0,1-2.04,2.04" transform="translate(-213.35 -482.409)" fill="#fff"/>
        <path id="Trazado_884409" data-name="Trazado 884409" d="M332.46,650.735H269.307a2.246,2.246,0,0,1-2.243-2.243v-40.85a2.246,2.246,0,0,1,2.243-2.243H332.46a2.246,2.246,0,0,1,2.243,2.243v40.85a2.246,2.246,0,0,1-2.243,2.243m-63.153-44.929a1.837,1.837,0,0,0-1.835,1.835v40.85a1.837,1.837,0,0,0,1.835,1.835H332.46a1.837,1.837,0,0,0,1.835-1.835v-40.85a1.837,1.837,0,0,0-1.835-1.835Z" transform="translate(-212.554 -481.612)" fill="#281d57"/>
        <path id="Trazado_884410" data-name="Trazado 884410" d="M396.817,664.336h-8.839V655.5H380.8v8.836h-8.839v7.172H380.8v8.836h7.174v-8.836h8.839Z" transform="translate(-296.061 -521.495)" fill="#fff"/>
        <path id="Trazado_884411" data-name="Trazado 884411" d="M387.181,679.751h-7.174a.2.2,0,0,1-.2-.2v-8.632h-8.635a.2.2,0,0,1-.2-.2V663.54a.2.2,0,0,1,.2-.2H379.8V654.7a.2.2,0,0,1,.2-.2h7.174a.2.2,0,0,1,.2.2v8.632h8.635a.2.2,0,0,1,.2.2v7.172a.2.2,0,0,1-.2.2h-8.635v8.632a.2.2,0,0,1-.2.2m-6.97-.408h6.767v-8.632a.2.2,0,0,1,.2-.2h8.635v-6.764h-8.635a.2.2,0,0,1-.2-.2v-8.632h-6.767v8.632a.2.2,0,0,1-.2.2h-8.635v6.764h8.635a.2.2,0,0,1,.2.2Z" transform="translate(-295.265 -520.699)" fill="#281d57"/>
      </g>
    </g>
  </g>
</svg>
