<svg xmlns="http://www.w3.org/2000/svg" xmlns:xlink="http://www.w3.org/1999/xlink" width="295" height="196" viewBox="0 0 295 196">
  <defs>
    <clipPath id="clip-path">
      <rect id="Rectángulo_403947" data-name="Rectángulo 403947" width="295" height="196" transform="translate(0 0)" fill="none"/>
    </clipPath>
  </defs>
  <g id="Grupo_1103873" data-name="Grupo 1103873" transform="translate(0 -0.334)">
    <path id="Trazado_884543" data-name="Trazado 884543" d="M930.35,136.506V10.176h63.91V137.445Z" transform="translate(-709.905 -7.823)" fill="#fff"/>
    <g id="Grupo_1103872" data-name="Grupo 1103872" transform="translate(0 0.334)">
      <g id="Grupo_1103871" data-name="Grupo 1103871" clip-path="url(#clip-path)">
        <path id="Trazado_884544" data-name="Trazado 884544" d="M993.5,136.919h0l-63.909-.939a.237.237,0,0,1-.233-.237V9.413a.237.237,0,0,1,.237-.237H993.5a.237.237,0,0,1,.237.237V136.682a.237.237,0,0,1-.237.237m-63.673-1.409,63.436.932V9.65H929.824Z" transform="translate(-709.142 -7.394)"/>
        <rect id="Rectángulo_403941" data-name="Rectángulo 403941" width="31.088" height="58.328" transform="translate(228.38 11.232)" fill="#fff"/>
        <path id="Trazado_884545" data-name="Trazado 884545" d="M994.162,106.862H963.074a.237.237,0,0,1-.237-.237V48.3a.237.237,0,0,1,.237-.237h31.088a.237.237,0,0,1,.237.237v58.328a.237.237,0,0,1-.237.237m-30.851-.474h30.614V48.534H963.311Z" transform="translate(-734.694 -37.065)"/>
        <rect id="Rectángulo_403942" data-name="Rectángulo 403942" width="31.088" height="37.16" transform="translate(228.38 77.747)" fill="#fff"/>
        <path id="Trazado_884546" data-name="Trazado 884546" d="M994.162,366.406H963.074a.237.237,0,0,1-.237-.237v-37.16a.237.237,0,0,1,.237-.237h31.088a.237.237,0,0,1,.237.237v37.16a.237.237,0,0,1-.237.237m-30.851-.474h30.614V329.246H963.311Z" transform="translate(-734.694 -251.262)"/>
        <path id="Trazado_884547" data-name="Trazado 884547" d="M897.028,532.18l-10.609,13.076h84.729L960.8,532.18Z" transform="translate(-676.383 -406.473)" fill="#fff"/>
        <path id="Trazado_884548" data-name="Trazado 884548" d="M970.384,544.729H885.656a.237.237,0,0,1-.184-.386l10.609-13.076a.237.237,0,0,1,.184-.088H960.04a.236.236,0,0,1,.186.09l10.344,13.076a.237.237,0,0,1-.186.384m-84.231-.474h83.741l-9.969-12.6H896.378Z" transform="translate(-675.62 -405.709)"/>
        <rect id="Rectángulo_403943" data-name="Rectángulo 403943" width="8.806" height="103.443" transform="translate(267.266 11.464)" fill="#e2eaff"/>
        <rect id="Rectángulo_403944" data-name="Rectángulo 403944" width="109.722" height="99.448" transform="translate(24.288 2.73)" fill="#fff"/>
        <path id="Trazado_884549" data-name="Trazado 884549" d="M211.462,112.1H101.74a.237.237,0,0,1-.237-.237V12.416a.237.237,0,0,1,.237-.237H211.462a.237.237,0,0,1,.237.237v99.448a.237.237,0,0,1-.237.237m-109.485-.474H211.225V12.653H101.977Z" transform="translate(-77.452 -9.686)" fill="#e2eaff"/>
        <path id="Trazado_884550" data-name="Trazado 884550" d="M211.463,155.1H101.741a.237.237,0,1,1,0-.474H211.463a.237.237,0,0,1,0,.474" transform="translate(-77.453 -118.378)" fill="#e2eaff"/>
        <path id="Trazado_884551" data-name="Trazado 884551" d="M211.463,294.07H101.741a.237.237,0,1,1,0-.474H211.463a.237.237,0,0,1,0,.474" transform="translate(-77.453 -224.421)" fill="#e2eaff"/>
        <path id="Trazado_884552" data-name="Trazado 884552" d="M411.971,112.1a.237.237,0,0,1-.237-.237V12.416a.237.237,0,1,1,.474,0v99.448a.237.237,0,0,1-.237.237" transform="translate(-314.174 -9.686)" fill="#e2eaff"/>
        <path id="Trazado_884553" data-name="Trazado 884553" d="M249.585,112.1a.237.237,0,0,1-.237-.237V12.416a.237.237,0,1,1,.474,0v99.448a.237.237,0,0,1-.237.237" transform="translate(-190.265 -9.686)" fill="#e2eaff"/>
        <path id="Trazado_884554" data-name="Trazado 884554" d="M42.132,0a9.414,9.414,0,0,1-5.26,1.7A9.238,9.238,0,0,1,31.616,0V0h0V0a9.417,9.417,0,0,1-5.257,1.7A9.237,9.237,0,0,1,21.1,0V0h0a9.416,9.416,0,0,1-5.258,1.7A9.238,9.238,0,0,1,10.582,0V0h0V0A9.417,9.417,0,0,1,5.322,1.7,9.235,9.235,0,0,1,.063,0C.039.259,0,2.32,0,2.542V120.205c0,2.344,2.383,4.245,5.322,4.245,2.658,0,4.861-1.555,5.258-3.586.4,2.031,2.6,3.586,5.258,3.586S20.7,122.9,21.1,120.863c.4,2.033,2.6,3.588,5.259,3.588s4.861-1.555,5.258-3.586c.4,2.031,5.267-1.46,5.267-1.46s5.314.376,5.314-1.969V2.543c0-.222-.022-2.329-.063-2.542" transform="translate(0 -0.392)" fill="#e2eaff"/>
        <path id="Trazado_884555" data-name="Trazado 884555" d="M134.209,125.37a.237.237,0,0,1-.237-.237V20.223a.237.237,0,1,1,.474,0v104.91a.237.237,0,0,1-.237.237" transform="translate(-102.228 -15.643)" fill="#fff"/>
        <path id="Trazado_884556" data-name="Trazado 884556" d="M89.244,163.331a.237.237,0,0,1-.237-.237V60.072a.237.237,0,0,1,.474,0V163.094a.237.237,0,0,1-.237.237" transform="translate(-67.917 -46.05)" fill="#fff"/>
        <path id="Trazado_884557" data-name="Trazado 884557" d="M43.279,132.924a.237.237,0,0,1-.237-.237V20.223a.237.237,0,1,1,.474,0V132.687a.237.237,0,0,1-.237.237" transform="translate(-32.843 -15.643)" fill="#fff"/>
        <path id="Trazado_884558" data-name="Trazado 884558" d="M521.762,0a9.414,9.414,0,0,1-5.26,1.7A9.238,9.238,0,0,1,511.246,0V0h0V0a9.417,9.417,0,0,1-5.257,1.7A9.237,9.237,0,0,1,500.729,0V0h0a9.416,9.416,0,0,1-5.258,1.7A9.238,9.238,0,0,1,490.212,0V0h0V0a9.417,9.417,0,0,1-5.257,1.7,9.235,9.235,0,0,1-5.26-1.7c-.024.259-.063,2.32-.063,2.542V120.205c0,2.344,2.383,4.245,5.322,4.245,2.658,0,4.861-1.555,5.258-3.586.4,2.031,2.6,3.586,5.258,3.586s4.862-1.555,5.259-3.587c.4,2.033,2.6,3.588,5.258,3.588s4.862-1.555,5.258-3.586c.4,2.031,2.6,3.586,5.258,3.586,2.94,0,5.322-1.9,5.322-4.245V2.543c0-.222-.021-2.329-.063-2.542" transform="translate(-365.982 -0.392)" fill="#e2eaff"/>
        <path id="Trazado_884559" data-name="Trazado 884559" d="M613.84,125.37a.237.237,0,0,1-.237-.237V20.223a.237.237,0,1,1,.474,0v104.91a.237.237,0,0,1-.237.237" transform="translate(-468.211 -15.643)" fill="#fff"/>
        <path id="Trazado_884560" data-name="Trazado 884560" d="M568.874,163.331a.237.237,0,0,1-.237-.237V60.072a.237.237,0,1,1,.474,0V163.094a.237.237,0,0,1-.237.237" transform="translate(-433.899 -46.05)" fill="#fff"/>
        <path id="Trazado_884561" data-name="Trazado 884561" d="M522.91,132.924a.237.237,0,0,1-.237-.237V20.223a.237.237,0,1,1,.474,0V132.687a.237.237,0,0,1-.237.237" transform="translate(-398.826 -15.643)" fill="#fff"/>
        <path id="Trazado_884562" data-name="Trazado 884562" d="M206.21,554.968a.237.237,0,0,1-.218-.33l15.953-37.476a.237.237,0,0,1,.436.186l-15.953,37.476a.237.237,0,0,1-.218.144" transform="translate(-157.168 -394.904)"/>
        <path id="Trazado_884563" data-name="Trazado 884563" d="M186.025,666.77a4.538,4.538,0,1,0,4.538-4.547,4.542,4.542,0,0,0-4.538,4.547" transform="translate(-141.947 -505.703)"/>
        <path id="Trazado_884564" data-name="Trazado 884564" d="M334.945,244.442H202.385a34.24,34.24,0,0,1-33.639-40.415l4.192-22.987c4.713-25.842,27.187-33.83,53.409-33.83h84.03c25.708,0,47.892,7.277,53.147,32.488l4.895,23.483a34.241,34.241,0,0,1-33.474,41.26" transform="translate(-128.329 -112.721)" fill="#fff"/>
        <path id="Trazado_884565" data-name="Trazado 884565" d="M334.2,243.916H201.639a34.477,34.477,0,0,1-33.872-40.7l4.192-22.986c4.117-22.577,22.165-34.024,53.642-34.024h84.031c14.426,0,25.664,2.23,34.354,6.817,10.166,5.366,16.567,14.067,19.025,25.859L367.9,202.37A34.479,34.479,0,0,1,334.2,243.916M225.6,146.684c-31.214,0-49.105,11.317-53.176,33.635l-4.192,22.987a34,34,0,0,0,33.406,40.136H334.2a34,34,0,0,0,33.242-40.975l-4.895-23.483c-4.53-21.734-21.839-32.3-52.915-32.3Z" transform="translate(-127.584 -111.958)"/>
        <path id="Trazado_884566" data-name="Trazado 884566" d="M429.337,401.2H289.609a.237.237,0,0,1,0-.474H429.337a.237.237,0,1,1,0,.474" transform="translate(-220.806 -306.167)"/>
        <path id="Trazado_884567" data-name="Trazado 884567" d="M184.167,188.449A67.063,67.063,0,0,0,136.7,208.135l-.018.018v.047a67.245,67.245,0,0,0,19.652,47.506l.016.016a67.064,67.064,0,0,0,47.464-19.686l.018-.018v-.047a67.245,67.245,0,0,0-19.652-47.506Z" transform="translate(-104.298 -144.189)" fill="#fff"/>
        <path id="Trazado_884568" data-name="Trazado 884568" d="M155.59,255.2a.237.237,0,0,1-.168-.069,67.481,67.481,0,0,1-19.737-47.689v-.047a.237.237,0,0,1,.068-.166l.018-.018A67.3,67.3,0,0,1,183.4,187.45a.237.237,0,0,1,.168.069l.016.016a67.48,67.48,0,0,1,19.722,47.673v.047a.237.237,0,0,1-.068.167l-.018.018A67.3,67.3,0,0,1,155.59,255.2m-19.431-47.708a66.567,66.567,0,0,0,19.529,47.234,66.379,66.379,0,0,0,47.147-19.565,66.568,66.568,0,0,0-19.529-47.234,66.379,66.379,0,0,0-47.147,19.565" transform="translate(-103.535 -143.426)"/>
        <path id="Trazado_884569" data-name="Trazado 884569" d="M808.817,232.788s35.608-4.612,36.72-5.211c.728-.393,4.353-3.05,6.767-4.838a1.233,1.233,0,0,1,1.96,1.105l-3.1,34.4L811.886,255.3Z" transform="translate(-617.169 -170.168)" fill="#fff"/>
        <path id="Trazado_884570" data-name="Trazado 884570" d="M850.4,257.722h-.018l-39.275-2.945a.237.237,0,0,1-.217-.2l-3.069-22.514a.237.237,0,0,1,.2-.267c14.252-1.846,35.769-4.75,36.638-5.185.54-.291,2.934-2,6.738-4.819a1.47,1.47,0,0,1,2.337,1.317l-3.1,34.4a.237.237,0,0,1-.236.216m-39.066-3.4,38.851,2.913,3.082-34.171a1,1,0,0,0-1.584-.893c-2.7,2-6.078,4.468-6.8,4.856-1.1.591-31.955,4.609-36.565,5.207Z" transform="translate(-616.406 -169.404)"/>
        <path id="Trazado_884571" data-name="Trazado 884571" d="M957.4,282.112H957.4a.237.237,0,0,1-.232-.242l.595-26.058a.237.237,0,0,1,.237-.232H958a.237.237,0,0,1,.232.242l-.595,26.058a.237.237,0,0,1-.237.232" transform="translate(-730.368 -195.413)"/>
        <path id="Trazado_884572" data-name="Trazado 884572" d="M888.013,377.15l26.581,3.448a4.822,4.822,0,0,0,5.235-3.388l9.434-31.178a1.237,1.237,0,0,0-1.763-1.453l-9.472,5.037L885.34,346.37Z" transform="translate(-675.56 -263.211)" fill="#fff"/>
        <path id="Trazado_884573" data-name="Trazado 884573" d="M914.461,380.112a5.169,5.169,0,0,1-.661-.043l-26.581-3.448a.237.237,0,0,1-.206-.214l-2.672-30.781a.237.237,0,0,1,.069-.189.244.244,0,0,1,.19-.067l32.617,3.24,9.408-5a1.474,1.474,0,0,1,2.1,1.73l-9.434,31.178a5.043,5.043,0,0,1-4.832,3.6m-26.992-3.936,26.392,3.423a4.569,4.569,0,0,0,4.978-3.221l9.434-31.178a1,1,0,0,0-1.425-1.175l-9.472,5.037a.238.238,0,0,1-.135.027l-32.4-3.219Z" transform="translate(-674.797 -262.447)"/>
        <path id="Trazado_884574" data-name="Trazado 884574" d="M997.14,403.448a.244.244,0,0,1-.066-.009.237.237,0,0,1-.162-.294,160.962,160.962,0,0,0,5.33-26.793.237.237,0,0,1,.471.053,161.452,161.452,0,0,1-5.345,26.872.237.237,0,0,1-.228.171" transform="translate(-760.688 -287.408)"/>
        <path id="Trazado_884575" data-name="Trazado 884575" d="M329.172,257.428l-37.508,22.263s7.775,20.682,40.351,15.689c19.788-3.033,69.18-10.834,69.18-10.834l36.439,4.995,1.831-60.817-52.517,6.152a29.33,29.33,0,0,0-7.423,1.875c-12.086,4.8-50.494,20.115-50.354,20.677" transform="translate(-222.555 -174.921)" fill="#e2eaff"/>
        <path id="Trazado_884576" data-name="Trazado 884576" d="M476.137,341.577a.237.237,0,0,1-.04-.47l61.21-10.534a24.117,24.117,0,0,1,6.363-.242l33.863,3.206a.237.237,0,0,1,.213.258.233.233,0,0,1-.258.214L543.626,330.8a23.642,23.642,0,0,0-6.238.237l-61.21,10.534a.237.237,0,0,1-.041,0" transform="translate(-363.136 -252.369)"/>
        <path id="Trazado_884577" data-name="Trazado 884577" d="M201.4,155.892l37.811-12.451s-8.611-28.607-10.995-35.5-14.333-14.48-21.531-4.519c-10.53,14.572-17.991,55.119-5.285,52.475" transform="translate(-148.574 -75.647)"/>
        <path id="Trazado_884578" data-name="Trazado 884578" d="M246.869,264.838l-10.215-47.532s19.2-11.18,26.873-13.424c0,0,20.717,27.614,24.839,34.233Z" transform="translate(-180.579 -155.965)" fill="#fff"/>
        <path id="Trazado_884579" data-name="Trazado 884579" d="M383.739,232.933s-26.977-34.324-33.672-30.173L374,237.733Z" transform="translate(-267.119 -154.843)" fill="#fff"/>
        <path id="Trazado_884580" data-name="Trazado 884580" d="M373.234,237.225a.236.236,0,0,1-.2-.1l-23.93-34.972a.236.236,0,0,1,.071-.335c2.886-1.79,9.5,2.776,19.644,13.569,7.5,7.978,14.271,16.573,14.339,16.659a.237.237,0,0,1-.373.293c-.067-.086-6.826-8.667-14.313-16.629-9.568-10.175-16.062-14.866-18.828-13.606l23.781,34.755a.237.237,0,0,1-.2.371" transform="translate(-266.356 -154.098)"/>
        <path id="Trazado_884581" data-name="Trazado 884581" d="M270.2,187.911l-.638,12.177s3.96,2.791,10.476,1.63-.47-4.7-.47-4.7l.26-9.619Z" transform="translate(-205.688 -143.39)" fill="#fff"/>
        <path id="Trazado_884582" data-name="Trazado 884582" d="M276.113,201.477a13.6,13.6,0,0,1-7.453-1.959.237.237,0,0,1-.1-.206l.638-12.177a.237.237,0,0,1,.224-.224l9.628-.509a.242.242,0,0,1,.178.067.238.238,0,0,1,.072.176l-.256,9.47c.713.377,3.446,1.921,3.233,3.365-.12.815-1.089,1.373-2.962,1.707a18.235,18.235,0,0,1-3.2.289m-7.073-2.277a14.777,14.777,0,0,0,10.191,1.521c1.6-.285,2.493-.738,2.577-1.31.153-1.039-2.257-2.509-3.113-2.942a.237.237,0,0,1-.13-.218l.253-9.362-9.159.484Z" transform="translate(-204.925 -142.626)"/>
        <path id="Trazado_884583" data-name="Trazado 884583" d="M271.356,147.442s5.139,5.487,10.137,3.254,2.086-13.045,1.116-15.2a11.379,11.379,0,0,1-9.628.132c-2.6-1.093-4.227,5.487-1.624,11.813" transform="translate(-206.052 -103.784)" fill="#fff"/>
        <path id="Trazado_884584" data-name="Trazado 884584" d="M278.255,150.7c-4.142,0-7.769-3.811-7.812-3.858a.236.236,0,0,1-.046-.072c-2-4.866-1.557-10.084.1-11.724a1.608,1.608,0,0,1,1.84-.4,11.249,11.249,0,0,0,9.418-.118.238.238,0,0,1,.335.108c.692,1.537,2.741,8.649,1.154,12.818a4.565,4.565,0,0,1-2.39,2.694,6.3,6.3,0,0,1-2.594.549m-7.438-4.151c.42.431,5.243,5.223,9.838,3.169a4.11,4.11,0,0,0,2.14-2.43c1.466-3.853-.3-10.349-1.047-12.225a11.879,11.879,0,0,1-9.6.023,1.133,1.133,0,0,0-1.323.3c-1.541,1.53-1.92,6.485-.008,11.166" transform="translate(-205.311 -103.022)"/>
        <path id="Trazado_884585" data-name="Trazado 884585" d="M258.107,119.333s2.066-2.466,1.644,1.424c-1.494,13.787-6.685,11.111-4.952,17.831,2.513,9.75-2.351,8.971-7.195,10.439,0,0-3.85-26.127,10.5-29.694" transform="translate(-188.576 -90.861)"/>
        <path id="Trazado_884586" data-name="Trazado 884586" d="M285.793,302c-12.242-3.249-34.856-5.828-34.856-5.828s-18.963-22.246-26.873-35.632c0,0-4.408,1.534-3.863,12.091.967,18.73,7.054,30.592,16.018,38.677,7.445,6.715,43.913,3.653,47.143,5.947,0,0,2.142,6.134,5.089,1.951.4,1.38,2.72,3.769,4.579,1.094l.185.058c.958,1.425,2.405,2.44,3.552,1.193,2.123-2.309,1.269-16.3-10.973-19.552" transform="translate(-167.989 -199.195)" fill="#fff"/>
        <path id="Trazado_884587" data-name="Trazado 884587" d="M499.73,502.467c-.04,0-.081,0-.121,0a3.427,3.427,0,0,1-2.22-1.671,2.5,2.5,0,0,1-2.323.871,3.775,3.775,0,0,1-2.533-1.9,2.737,2.737,0,0,1-2.232,1.257c-1.33-.07-2.248-1.463-2.581-2.059a.237.237,0,0,1,.414-.231c.23.411,1.067,1.758,2.192,1.817.7.035,1.4-.433,2.075-1.4a.237.237,0,0,1,.422.071,3.214,3.214,0,0,0,2.321,1.975,2.2,2.2,0,0,0,2.22-1.13.237.237,0,0,1,.431.151l-.02.3a2.932,2.932,0,0,0,1.87,1.474,1.346,1.346,0,0,0,1.091-.519c.546-.594,1.054-2.135.843-4.675a.237.237,0,0,1,.216-.256.234.234,0,0,1,.256.216c.188,2.254-.183,4.183-.966,5.036a1.831,1.831,0,0,1-1.355.675" transform="translate(-372.133 -379.277)"/>
        <path id="Trazado_884588" data-name="Trazado 884588" d="M245.88,314.274l-.036,0c-3.632-.557-8.411-1.626-10.548-3.554-9.945-8.969-15.21-21.674-16.1-38.841-.548-10.613,3.835-12.263,4.022-12.327a.237.237,0,0,1,.282.1c7.588,12.842,25.6,34.129,26.789,35.528.2.023.7.081,1.446.172a.237.237,0,1,1-.057.471c-.981-.119-1.535-.182-1.535-.182a.235.235,0,0,1-.153-.081c-.189-.222-18.89-22.208-26.786-35.479-.788.432-4,2.757-3.533,11.773.88,17.035,6.094,29.633,15.94,38.513,1.622,1.463,5.185,2.651,10.3,3.437a.237.237,0,0,1-.036.471" transform="translate(-167.225 -198.432)"/>
        <path id="Trazado_884589" data-name="Trazado 884589" d="M498.909,482.248a.24.24,0,0,1-.065-.009.237.237,0,0,1-.163-.293c.667-2.325-.867-5.833-2.67-7.75a.237.237,0,0,1,.345-.325c1.933,2.056,3.5,5.687,2.78,8.205a.236.236,0,0,1-.228.172" transform="translate(-378.433 -361.924)"/>
        <path id="Trazado_884590" data-name="Trazado 884590" d="M518.666,481.4h-.018a.237.237,0,0,1-.218-.254,12.237,12.237,0,0,0-2.984-9.66.237.237,0,0,1,.355-.315,12.681,12.681,0,0,1,3.1,10.01.237.237,0,0,1-.236.219" transform="translate(-393.265 -359.86)"/>
        <path id="Trazado_884591" data-name="Trazado 884591" d="M682.388,461.977,632.1,462.994a15.237,15.237,0,0,0-14.344,19.069l14.424,55.569-4.554,7.645a2.424,2.424,0,0,0,2.079,3.665h33.979a4.372,4.372,0,0,0,4.054-6l-15.7-48.526,38.323.354Z" transform="translate(-471.003 -352.905)" fill="#fff"/>
        <path id="Trazado_884592" data-name="Trazado 884592" d="M662.929,548.416H628.951a2.661,2.661,0,0,1-2.283-4.024l4.5-7.56-14.4-55.474a15.474,15.474,0,0,1,14.568-19.365l50.285-1.017a.24.24,0,0,1,.235.181l7.981,32.793a.237.237,0,0,1-.045.2.231.231,0,0,1-.188.09l-37.995-.351,15.6,48.213a4.608,4.608,0,0,1-4.279,6.31m18.515-86.962-50.094,1.013a15,15,0,0,0-14.12,18.773l14.425,55.569a.238.238,0,0,1-.026.181l-4.554,7.645a2.187,2.187,0,0,0,1.876,3.307h33.979a4.072,4.072,0,0,0,3.42-1.816,4.134,4.134,0,0,0,.414-3.859l-15.7-48.541a.237.237,0,0,1,.226-.31h0l38.019.351Z" transform="translate(-470.244 -352.141)"/>
        <path id="Trazado_884593" data-name="Trazado 884593" d="M670.922,671.421A81.079,81.079,0,0,1,656.9,670.2a.237.237,0,1,1,.082-.467,80.325,80.325,0,0,0,29.343-.273.237.237,0,0,1,.091.465,80.988,80.988,0,0,1-15.5,1.5" transform="translate(-501.1 -511.218)"/>
        <path id="Trazado_884594" data-name="Trazado 884594" d="M750.025,556.015a.237.237,0,0,1-.227-.168l-3.7-12.2a.237.237,0,0,1,.454-.137l3.7,12.2a.237.237,0,0,1-.158.3.242.242,0,0,1-.069.01" transform="translate(-569.305 -414.992)"/>
        <path id="Trazado_884595" data-name="Trazado 884595" d="M784.99,439.6c.082.493,21.775,15.183,3,37.743s-19.832,22.446-19.832,22.446l43.709,4.346a11.681,11.681,0,0,1,7.8,4.127L836.5,528.364a2.132,2.132,0,0,1-1.632,3.5H736.156a18.381,18.381,0,0,1-15.176-28.728,645.845,645.845,0,0,1,45.758-60.089Z" transform="translate(-547.688 -335.826)" fill="#fff"/>
        <path id="Trazado_884596" data-name="Trazado 884596" d="M834.057,531.338H735.343a18.618,18.618,0,0,1-15.371-29.1,640.722,640.722,0,0,1,45.775-60.111.238.238,0,0,1,.135-.077l18.252-3.453a.236.236,0,0,1,.256.128c.056.063.268.247.492.44,12.657,10.932,13.538,24.27,2.481,37.559-10.236,12.3-17.229,20.27-19.391,22.118l43.11,4.286a11.852,11.852,0,0,1,7.96,4.212l16.829,20.107a2.368,2.368,0,0,1-1.813,3.889M766.051,442.5a640.408,640.408,0,0,0-45.687,60,18.144,18.144,0,0,0,14.98,28.357h98.714a1.894,1.894,0,0,0,1.45-3.111l-16.829-20.107a11.382,11.382,0,0,0-7.643-4.044l-43.709-4.346h0a.237.237,0,0,1-.036-.464c.235-.119,2.514-1.7,19.711-22.368,10.865-13.058,10-26.162-2.426-36.9-.25-.216-.4-.345-.49-.435Zm1.318,56.282h0m17.043-59.992h0" transform="translate(-546.875 -335.063)"/>
        <path id="Trazado_884597" data-name="Trazado 884597" d="M885.5,691.952h0l-12.972-.034a.237.237,0,0,1,0-.474h0l12.972.034a.237.237,0,0,1,0,.474" transform="translate(-665.6 -528)"/>
        <path id="Trazado_884598" data-name="Trazado 884598" d="M993.889,729.486a.237.237,0,0,1-.232-.191,158.594,158.594,0,0,0-9.061-29.8.237.237,0,0,1,.438-.182,159.1,159.1,0,0,1,9.088,29.894.237.237,0,0,1-.186.278.22.22,0,0,1-.047,0" transform="translate(-751.283 -533.89)"/>
        <path id="Trazado_884599" data-name="Trazado 884599" d="M768.286,112.643s-9.048-15.78-15.874-11.649c-7.28,4.406-.927,7.906-.927,7.906s-2.444,3.547,3.84,3.994c1.343.1,6.214,3.225,7.526,3.233,4.811.032,5.434-3.484,5.434-3.484" transform="translate(-571.463 -76.93)"/>
        <path id="Trazado_884600" data-name="Trazado 884600" d="M760.062,157.875a22.056,22.056,0,0,1,.157-2.725c1.948.827,4.858,1.681,6.381.257,2.419-2.262,3.178-9.363,3.178-9.363l-6.469-4.433,11.953,3.727s7.914,11.146-2.165,15.525-12.93,1.457-13.035-2.988" transform="translate(-579.964 -108.449)"/>
        <path id="Trazado_884601" data-name="Trazado 884601" d="M767.114,154.815c-1.524,1.424-4.434.571-6.381-.257.574-5.35,2.5-13.723,2.5-13.723l.59.184,5.447,3.732a2,2,0,0,1,.847,1.965c-.341,2.147-1.222,6.434-3,8.1" transform="translate(-580.478 -107.857)" fill="#fff"/>
        <path id="Trazado_884602" data-name="Trazado 884602" d="M763.582,141.44l.031.01L769,145.142a1.536,1.536,0,0,1,.646,1.5c-.289,1.82-1.147,6.226-2.859,7.826a2.758,2.758,0,0,1-1.947.636,10.145,10.145,0,0,1-3.6-.848c.52-4.507,1.93-10.984,2.339-12.816m-.349-.605s-1.927,8.374-2.5,13.723a11.283,11.283,0,0,0,4.11,1.02,3.222,3.222,0,0,0,2.271-.764c1.781-1.665,2.662-5.951,3-8.1a2,2,0,0,0-.847-1.965l-5.447-3.732Z" transform="translate(-580.478 -107.857)"/>
        <path id="Trazado_884603" data-name="Trazado 884603" d="M797.2,123.078a.434.434,0,0,0-.036.649,1.885,1.885,0,0,1,.246,2.056,4.17,4.17,0,0,1-2.343,1.772,13.172,13.172,0,0,1-3.708.849,3.489,3.489,0,0,1-4.352-3.143,21.525,21.525,0,0,1-.724-6.89,4,4,0,0,1,.978-2.794c.865-.794-6.624-12.178-5.52-11.78,2.907,1.047,12.363-1.967,17.525,6.83,3.225,5.5.56,8.535.162,9.725a6.545,6.545,0,0,1-2.227,2.727" transform="translate(-596.422 -79.586)"/>
        <path id="Trazado_884604" data-name="Trazado 884604" d="M815.713,185.983c-1.419,1.443-4.57,3.544-10.6,2.947a1.732,1.732,0,0,1-1.253-.745c-1-1.449-3.378-4.892-4.166-5.9-1.006-1.283-.952-6.259-.37-7.82s3.776-2.519,5.023-.881,1.093,3.743-2.16,4.583l.5,1.058a2.027,2.027,0,0,0,2.406,1.08c1.932-.569,4.941-1.533,5.674-2.208l5,5.605a1.665,1.665,0,0,1-.059,2.277" transform="translate(-609.61 -132.199)" fill="#fff"/>
        <path id="Trazado_884605" data-name="Trazado 884605" d="M802.711,187.072a.236.236,0,0,1-.2-.1c-1.105-1.6-3.063-4.419-3.754-5.3-1.1-1.4-.973-6.527-.406-8.049a3.447,3.447,0,0,1,2.738-1.845,2.749,2.749,0,0,1,2.7.9,3.006,3.006,0,0,1,.642,2.813,3.564,3.564,0,0,1-2.656,2.066l.38.8a1.783,1.783,0,0,0,2.125.954c3.028-.893,5.062-1.678,5.581-2.155a.237.237,0,0,1,.337.016l5,5.605a.237.237,0,1,1-.354.315l-4.854-5.439a26.23,26.23,0,0,1-5.579,2.112,2.254,2.254,0,0,1-2.687-1.207l-.5-1.058a.237.237,0,0,1,.155-.331,3.4,3.4,0,0,0,2.6-1.839,2.554,2.554,0,0,0-.571-2.371,2.3,2.3,0,0,0-2.249-.722,3.012,3.012,0,0,0-2.363,1.543c-.568,1.524-.587,6.416.335,7.59.663.845,2.417,3.361,3.771,5.323a.237.237,0,0,1-.195.372" transform="translate(-608.861 -131.432)"/>
        <path id="Trazado_884606" data-name="Trazado 884606" d="M805.568,187.255a.25.25,0,0,1-.063-.008.237.237,0,0,1-.166-.291,2.6,2.6,0,0,1,1.655-1.758.237.237,0,0,1,.152.449,2.151,2.151,0,0,0-1.349,1.434.237.237,0,0,1-.228.174" transform="translate(-614.509 -141.698)"/>
        <path id="Trazado_884607" data-name="Trazado 884607" d="M400.807,309.522a38.136,38.136,0,0,1-6-2.849c-2.316-1.529-.9-4.423,6.689-1.833a93.3,93.3,0,0,1,12.61,5.916c.082.668.157,1.337.22,2.007a99.815,99.815,0,0,1-.11,18.268c-.012.136-.027.273-.04.409A151.821,151.821,0,0,1,394,319.5c-1.752-1.2-2.1-3.239,3.2-1.328,0,0-5.089-1.926-5.936-3.693-.737-1.538,1.776-2.049,5.386-1.005-2.372-.871-6.423-2.624-6.52-4.467-.069-1.3,2.971-2.347,10.667.518" transform="translate(-297.696 -232.21)" fill="#fff"/>
        <path id="Trazado_884608" data-name="Trazado 884608" d="M413.413,330.9a.238.238,0,0,1-.1-.023,146.965,146.965,0,0,1-19.953-11.789l-.251-.174c-.82-.563-1.5-1.414-1.18-2.045.215-.419.806-.571,1.741-.46-1.406-.72-2.923-1.673-3.371-2.609a1.074,1.074,0,0,1,.083-1.242c.469-.554,1.594-.754,3.085-.6-2.25-1.026-4.251-2.325-4.325-3.719a1.146,1.146,0,0,1,.52-.986c.435-.32,1.995-1.071,6.235-.052a19,19,0,0,1-1.982-1.107c-.955-.63-1.345-1.5-.994-2.215.555-1.132,2.92-1.737,7.891-.04a89.742,89.742,0,0,1,12.646,5.932.237.237,0,0,1,.122.179c.089.727.162,1.386.221,2.014a99.467,99.467,0,0,1-.11,18.311l-.04.409a.238.238,0,0,1-.236.215m-20.278-14.056c-.629,0-.765.2-.786.242-.134.261.22.885,1.026,1.438l.253.175a147.439,147.439,0,0,0,19.581,11.6l.007-.071a99.033,99.033,0,0,0,.11-18.224c-.056-.589-.123-1.2-.2-1.879a90.082,90.082,0,0,0-12.466-5.841c-5.009-1.711-6.954-.931-7.312-.2-.239.488.087,1.12.83,1.611a37.519,37.519,0,0,0,5.956,2.826.237.237,0,0,1-.169.443c-5.79-2.156-8.973-2.1-10.021-1.332a.673.673,0,0,0-.327.579c.065,1.244,2.385,2.8,6.365,4.257a.237.237,0,0,1-.147.45c-2.71-.783-4.611-.621-5.09-.056a.633.633,0,0,0-.018.731c.8,1.663,5.756,3.555,5.806,3.574a.237.237,0,0,1-.164.445,10.329,10.329,0,0,0-3.231-.77" transform="translate(-296.932 -231.431)"/>
        <path id="Trazado_884609" data-name="Trazado 884609" d="M608.12,313.8s13.253-17.084,7.38-35.424c-3.912-12.218-12.563-32.875-17.936-46.385a29.187,29.187,0,0,0-15.7-16.078,20.523,20.523,0,0,0-19.516,1.879L525.7,242.535s-25.218,0-41.21-.094c0,0-3.726,14.129-1.277,23.259a168.775,168.775,0,0,0,31.511,2.678,51.681,51.681,0,0,0,23.116-6.093l18.348-9.8,8.892,20.768S591.018,300.1,608.12,313.8" transform="translate(-368.081 -163.895)" fill="#1e4678"/>
        <path id="Trazado_884610" data-name="Trazado 884610" d="M770.142,284.835l-3.031-3.771,3.767-3.034-2.839-3.532-3.767,3.035-3.031-3.771-3.528,2.842,3.031,3.771-3.767,3.034,2.839,3.532,3.767-3.034,3.031,3.771Z" transform="translate(-577.612 -209.286)" fill="#fff"/>
        <path id="Trazado_884611" data-name="Trazado 884611" d="M801.57,327.126a.237.237,0,0,1-.116-.443,82.79,82.79,0,0,0,18.268-13.944.237.237,0,1,1,.337.333A83.249,83.249,0,0,1,801.686,327.1a.233.233,0,0,1-.116.031" transform="translate(-611.458 -238.974)"/>
        <rect id="Rectángulo_403945" data-name="Rectángulo 403945" width="2.095" height="3.215" transform="translate(88.875 140.579)" fill="#fff"/>
        <path id="Trazado_884612" data-name="Trazado 884612" d="M376.414,597.636h-2.1a.237.237,0,0,1-.237-.237v-3.215a.237.237,0,0,1,.237-.237h2.1a.237.237,0,0,1,.237.237V597.4a.237.237,0,0,1-.237.237m-1.858-.474h1.621v-2.741h-1.621Z" transform="translate(-285.444 -453.605)"/>
        <rect id="Rectángulo_403946" data-name="Rectángulo 403946" width="2.095" height="3.215" transform="translate(114.279 140.579)" fill="#fff"/>
        <path id="Trazado_884613" data-name="Trazado 884613" d="M483.625,597.636h-2.1a.237.237,0,0,1-.237-.237v-3.215a.237.237,0,0,1,.237-.237h2.1a.237.237,0,0,1,.237.237V597.4a.237.237,0,0,1-.237.237m-1.858-.474h1.621v-2.741h-1.621Z" transform="translate(-367.251 -453.605)"/>
        <path id="Trazado_884614" data-name="Trazado 884614" d="M375.273,558.539V552.1a2.141,2.141,0,0,1,2.135-2.134H394.9a2.141,2.141,0,0,1,2.135,2.134v6.438h3.633v-8.172a3.643,3.643,0,0,0-3.633-3.631H375.273a3.642,3.642,0,0,0-3.632,3.631v8.172Z" transform="translate(-283.581 -417.58)" fill="#fff"/>
        <path id="Trazado_884615" data-name="Trazado 884615" d="M399.906,558.013h-3.632a.237.237,0,0,1-.237-.237v-6.438a1.9,1.9,0,0,0-1.9-1.9H376.645a1.9,1.9,0,0,0-1.9,1.9v6.438a.237.237,0,0,1-.237.237h-3.632a.237.237,0,0,1-.237-.237V549.6a3.873,3.873,0,0,1,3.869-3.868h21.764a3.873,3.873,0,0,1,3.869,3.868v8.172a.237.237,0,0,1-.237.237m-3.4-.474h3.159V549.6a3.4,3.4,0,0,0-3.4-3.395H374.509a3.4,3.4,0,0,0-3.4,3.395v7.935h3.159v-6.2a2.375,2.375,0,0,1,2.372-2.371h17.494a2.374,2.374,0,0,1,2.372,2.371Z" transform="translate(-282.817 -416.817)"/>
        <path id="Trazado_884616" data-name="Trazado 884616" d="M343.808,658.6H270.434a2.377,2.377,0,0,1-2.37-2.37V608.769a2.376,2.376,0,0,1,2.37-2.369h73.374a2.377,2.377,0,0,1,2.37,2.369v47.461a2.377,2.377,0,0,1-2.37,2.37" transform="translate(-204.547 -463.107)" fill="#fff"/>
        <path id="Trazado_884617" data-name="Trazado 884617" d="M343.045,658.073H269.67a2.61,2.61,0,0,1-2.606-2.606V608.005a2.609,2.609,0,0,1,2.606-2.606h73.374a2.609,2.609,0,0,1,2.606,2.606v47.462a2.609,2.609,0,0,1-2.606,2.606m-73.374-52.2a2.135,2.135,0,0,0-2.133,2.132v47.462a2.135,2.135,0,0,0,2.133,2.133h73.374a2.135,2.135,0,0,0,2.133-2.133V608.005a2.135,2.135,0,0,0-2.133-2.132Z" transform="translate(-203.784 -462.343)"/>
        <path id="Trazado_884618" data-name="Trazado 884618" d="M400.839,665.766h-10.27V655.5h-8.336v10.266h-10.27V674.1h10.27v10.266h8.336V674.1h10.27Z" transform="translate(-283.828 -500.572)" fill="#fff"/>
        <path id="Trazado_884619" data-name="Trazado 884619" d="M389.806,683.838h-8.336a.237.237,0,0,1-.237-.237V673.572H371.2a.237.237,0,0,1-.237-.237V665a.237.237,0,0,1,.237-.237h10.033V654.737a.237.237,0,0,1,.237-.237h8.336a.237.237,0,0,1,.237.237v10.029h10.033a.237.237,0,0,1,.237.237v8.333a.237.237,0,0,1-.237.237H390.043V683.6a.237.237,0,0,1-.237.237m-8.1-.474h7.862V673.335a.237.237,0,0,1,.237-.237h10.033V665.24H389.806a.237.237,0,0,1-.237-.237V654.974h-7.862V665a.237.237,0,0,1-.237.237H371.438V673.1h10.033a.237.237,0,0,1,.237.237Z" transform="translate(-283.065 -499.81)"/>
      </g>
    </g>
  </g>
</svg>
