<svg id="Grupo_1103870" data-name="Grupo 1103870" xmlns="http://www.w3.org/2000/svg" xmlns:xlink="http://www.w3.org/1999/xlink" width="303.231" height="202.556" viewBox="0 0 303.231 202.556">
  <defs>
    <clipPath id="clip-path">
      <rect id="Rectángulo_403940" data-name="Rectángulo 403940" width="303.231" height="202.556" fill="none"/>
    </clipPath>
  </defs>
  <g id="Grupo_1103869" data-name="Grupo 1103869" clip-path="url(#clip-path)">
    <path id="Trazado_884452" data-name="Trazado 884452" d="M661.46,513.6h-.1a9.075,9.075,0,0,1-9.075-9.075V483.412a9.075,9.075,0,0,1,9.075-9.075h.1a9.075,9.075,0,0,1,9.075,9.075v21.117a9.075,9.075,0,0,1-9.075,9.075" transform="translate(-493.29 -358.718)"/>
    <path id="Trazado_884453" data-name="Trazado 884453" d="M342.8,513.6h-.1a9.075,9.075,0,0,1-9.075-9.075V483.412a9.075,9.075,0,0,1,9.075-9.075h.1a9.075,9.075,0,0,1,9.075,9.075v21.117A9.075,9.075,0,0,1,342.8,513.6" transform="translate(-252.303 -358.718)"/>
    <path id="Trazado_884454" data-name="Trazado 884454" d="M32.527,513.6h-.1a9.075,9.075,0,0,1-9.075-9.075V483.412a9.075,9.075,0,0,1,9.075-9.075h.1a9.075,9.075,0,0,1,9.075,9.075v21.117a9.075,9.075,0,0,1-9.075,9.075" transform="translate(-17.658 -358.718)"/>
    <rect id="Rectángulo_403925" data-name="Rectángulo 403925" width="183.836" height="12.508" transform="translate(0 122.667)"/>
    <path id="Trazado_884455" data-name="Trazado 884455" d="M101.255,136.6H23.967a6.481,6.481,0,0,1-6.482-6.48v-29.5a6.479,6.479,0,0,1,1.661-4.332l17.232-19.17L50.909,51.942l49.5-42.676Z" transform="translate(-13.223 -7.007)" fill="#fff"/>
    <path id="Trazado_884456" data-name="Trazado 884456" d="M100.5,136.087H23.211a6.732,6.732,0,0,1-6.726-6.724v-29.5a6.713,6.713,0,0,1,1.723-4.494L35.423,76.215l14.519-25.15A.243.243,0,0,1,49.994,51l49.5-42.676a.244.244,0,0,1,.4.183l.847,127.333a.244.244,0,0,1-.244.245M50.343,51.344,35.833,76.481a.237.237,0,0,1-.03.041L18.571,95.692a6.227,6.227,0,0,0-1.6,4.169v29.5a6.244,6.244,0,0,0,6.238,6.237h77.043L99.412,9.039Z" transform="translate(-12.467 -6.252)"/>
    <path id="Trazado_884457" data-name="Trazado 884457" d="M406.9,131.07l-95.663-.445a7.773,7.773,0,0,1-7.8-7.741L303.709,64a7.583,7.583,0,0,1,.129-1.358L314.09,7.825a7.8,7.8,0,0,1,7.745-6.31l73.131.34a7.81,7.81,0,0,1,7.621,6.057L414.866,63a7.575,7.575,0,0,1,.182,1.684l-.273,58.719a7.772,7.772,0,0,1-7.874,7.668" transform="translate(-229.473 -1.145)" fill="#fff"/>
    <path id="Trazado_884458" data-name="Trazado 884458" d="M406.182,130.558h-.039l-95.663-.445a8.1,8.1,0,0,1-5.7-2.353,7.83,7.83,0,0,1-2.342-5.633l.274-58.886a7.841,7.841,0,0,1,.133-1.4L313.095,7.024A8.038,8.038,0,0,1,321.041.515h.039l73.131.341A8.008,8.008,0,0,1,402.069,7.1L414.347,62.19a7.846,7.846,0,0,1,.187,1.739l-.273,58.719a7.83,7.83,0,0,1-2.395,5.611,8.1,8.1,0,0,1-5.685,2.3M321.041,1a7.55,7.55,0,0,0-7.467,6.111L303.321,61.928a7.343,7.343,0,0,0-.125,1.315l-.274,58.886a7.346,7.346,0,0,0,2.2,5.284,7.612,7.612,0,0,0,5.361,2.212l95.663.445h.037a7.613,7.613,0,0,0,5.345-2.162,7.348,7.348,0,0,0,2.247-5.264l.273-58.719a7.352,7.352,0,0,0-.176-1.63L401.593,7.209a7.523,7.523,0,0,0-7.384-5.866L321.078,1Z" transform="translate(-228.717 -0.389)"/>
    <path id="Trazado_884459" data-name="Trazado 884459" d="M416.759,139.105,328.6,138.7a7.224,7.224,0,0,1-7.19-7.257l.257-55.21a7.242,7.242,0,0,1,.119-1.273l9.453-51.393a7.223,7.223,0,0,1,7.138-5.917l67.4.313a7.224,7.224,0,0,1,7.023,5.678l11.312,51.646a7.228,7.228,0,0,1,.167,1.579l-.256,55.053a7.224,7.224,0,0,1-7.257,7.19" transform="translate(-243.063 -13.345)" fill="#e2eaff"/>
    <path id="Trazado_884460" data-name="Trazado 884460" d="M444.384,60.668a.244.244,0,0,1-.106-.463L499.768,33.6a.244.244,0,1,1,.211.439L444.49,60.644a.24.24,0,0,1-.105.024" transform="translate(-335.882 -25.388)"/>
    <path id="Trazado_884461" data-name="Trazado 884461" d="M464.592,425.193a.243.243,0,0,1-.061-.008L384.108,404.3a.244.244,0,0,1,.123-.472l80.423,20.883a.244.244,0,0,1-.061.48" transform="translate(-290.344 -305.391)"/>
    <rect id="Rectángulo_403926" data-name="Rectángulo 403926" width="3.976" height="18.642" transform="translate(1.715 92.877)" fill="#fff"/>
    <path id="Trazado_884462" data-name="Trazado 884462" d="M10.257,399.166H6.281a.244.244,0,0,1-.244-.244V380.281a.244.244,0,0,1,.244-.244h3.976a.244.244,0,0,1,.244.244v18.642a.244.244,0,0,1-.244.244m-3.733-.487h3.489V380.525H6.524Z" transform="translate(-4.565 -287.403)"/>
    <path id="Trazado_884463" data-name="Trazado 884463" d="M148.261,65.7,136.949,14.057c-.724-3.3-3.456-4.861-7.023-5.678L101.86,1.127A3.891,3.891,0,0,0,97,4.893V117.76a3.89,3.89,0,0,0,3.147,3.818l40.774,7.947a7.224,7.224,0,0,0,7.257-7.19l.256-55.053a7.228,7.228,0,0,0-.167-1.579" transform="translate(-73.353 -0.757)" fill="#fff"/>
    <path id="Trazado_884464" data-name="Trazado 884464" d="M140.192,129.012a.41.41,0,0,1-.081,0L99.338,121.06A4.142,4.142,0,0,1,95.994,117V4.136a4.134,4.134,0,0,1,5.169-4L129.23,7.386c4.247.973,6.537,2.836,7.2,5.861l11.312,51.647a7.5,7.5,0,0,1,.173,1.632l-.256,55.053a7.476,7.476,0,0,1-7.467,7.433m-.01-.488h.01a6.988,6.988,0,0,0,6.98-6.948l.256-55.052A7,7,0,0,0,147.266,65L135.954,13.352c-.617-2.82-2.791-4.565-6.839-5.492L101.042.605a3.648,3.648,0,0,0-4.56,3.531V117a3.653,3.653,0,0,0,2.949,3.579Z" transform="translate(-72.596 0)"/>
    <path id="Trazado_884465" data-name="Trazado 884465" d="M154.9,221.436a6.254,6.254,0,0,1,.1,1.1l.029,6.345a1.191,1.191,0,0,1-1.375,1.183l-42.012-6.549a1.192,1.192,0,0,1-1.008-1.177V209.8a1.192,1.192,0,0,1,1.375-1.177l40.89,6.375a1.191,1.191,0,0,1,.988.962Z" transform="translate(-83.672 -157.757)" fill="#e2eaff"/>
    <path id="Trazado_884466" data-name="Trazado 884466" d="M110.64,48.534V30.752a4.566,4.566,0,0,1,4.757-4.561,4.347,4.347,0,0,1,.855.137l24.267,6.061c3.22.625,4.668,2.678,5.216,5.661l3.6,16a1.192,1.192,0,0,1-1.356,1.393l-36.335-5.728a1.191,1.191,0,0,1-1.008-1.177" transform="translate(-83.672 -19.804)" fill="#e2eaff"/>
    <path id="Trazado_884467" data-name="Trazado 884467" d="M154.08,313.28a1.192,1.192,0,0,1,1.008,1.172l.14,33.206a6.262,6.262,0,0,1-6.144,6.29c-.059,0-35.477-7.356-35.477-7.356a3.373,3.373,0,0,1-2.967-3.348V307.9a1.192,1.192,0,0,1,1.375-1.177Z" transform="translate(-83.672 -231.948)" fill="#e2eaff"/>
    <path id="Trazado_884468" data-name="Trazado 884468" d="M772.679,10.366c-3.714.721-6.62,3.1-7.253,6.54l-9.338,50.769a7.219,7.219,0,0,0-.119,1.273l-.257,55.21a7.224,7.224,0,0,0,7.19,7.257l40.821-4.95a3.891,3.891,0,0,0,3.423-3.862V9.5a3.891,3.891,0,0,0-4.494-3.843Z" transform="translate(-571.508 -4.245)" fill="#fff"/>
    <path id="Trazado_884469" data-name="Trazado 884469" d="M762.145,130.906h0a7.467,7.467,0,0,1-7.433-7.5l.257-55.21a7.473,7.473,0,0,1,.123-1.316L764.43,16.11c.622-3.384,3.476-5.965,7.446-6.736l.008,0,29.972-4.7a4.135,4.135,0,0,1,4.776,4.084v113.1a4.138,4.138,0,0,1-3.637,4.1l-40.821,4.95-.029,0M771.965,9.853c-3.767.732-6.47,3.163-7.056,6.344l-9.338,50.769a6.972,6.972,0,0,0-.115,1.23l-.257,55.21a6.98,6.98,0,0,0,6.932,7.012l40.805-4.948a3.65,3.65,0,0,0,3.208-3.62V8.752a3.647,3.647,0,0,0-4.213-3.6Z" transform="translate(-570.751 -3.492)"/>
    <path id="Trazado_884470" data-name="Trazado 884470" d="M770.68,202.447a6.205,6.205,0,0,0-.1,1.1l-.029,6.345a1.191,1.191,0,0,0,1.375,1.183l42.011-6.549a1.191,1.191,0,0,0,1.008-1.177V190.807a1.191,1.191,0,0,0-1.375-1.177L772.676,196a1.191,1.191,0,0,0-.988.962Z" transform="translate(-582.727 -143.397)" fill="#e2eaff"/>
    <path id="Trazado_884471" data-name="Trazado 884471" d="M831.283,42.418v-15.5a4.565,4.565,0,0,0-5.273-4.509L801.4,26.273c-3.22.625-5.739,2.687-6.288,5.67l-2.941,15.988a1.192,1.192,0,0,0,1.356,1.393L830.275,43.6a1.192,1.192,0,0,0,1.008-1.177" transform="translate(-599.068 -16.905)" fill="#e2eaff"/>
    <path id="Trazado_884472" data-name="Trazado 884472" d="M770.9,294.291a1.192,1.192,0,0,0-1.008,1.172l-.14,30.141a6.262,6.262,0,0,0,6.144,6.29,1.3,1.3,0,0,0,.176-.01l35.3-4.28a3.373,3.373,0,0,0,2.967-3.348V288.91a1.192,1.192,0,0,0-1.375-1.177Z" transform="translate(-582.127 -217.587)" fill="#e2eaff"/>
    <path id="Trazado_884473" data-name="Trazado 884473" d="M752.815,289.851a1.183,1.183,0,0,1-1.182-1.182v-8.525a1.182,1.182,0,0,1,2.365,0v8.525a1.182,1.182,0,0,1-1.182,1.182" transform="translate(-568.423 -210.965)" fill="#fff"/>
    <path id="Trazado_884474" data-name="Trazado 884474" d="M752.059,289.339a1.428,1.428,0,0,1-1.426-1.426v-8.525a1.426,1.426,0,0,1,2.852,0v8.525a1.427,1.427,0,0,1-1.426,1.426m0-10.889a.94.94,0,0,0-.939.938v8.525a.939.939,0,0,0,1.877,0v-8.525a.939.939,0,0,0-.938-.938" transform="translate(-567.667 -210.209)"/>
    <path id="Trazado_884475" data-name="Trazado 884475" d="M752.815,438.4a1.183,1.183,0,0,1-1.182-1.182V428.7a1.182,1.182,0,0,1,2.365,0v8.525a1.182,1.182,0,0,1-1.182,1.182" transform="translate(-568.423 -323.309)" fill="#fff"/>
    <path id="Trazado_884476" data-name="Trazado 884476" d="M752.059,437.892a1.428,1.428,0,0,1-1.426-1.426v-8.525a1.426,1.426,0,0,1,2.852,0v8.525a1.427,1.427,0,0,1-1.426,1.426m0-10.889a.94.94,0,0,0-.939.938v8.525a.939.939,0,0,0,1.877,0v-8.525a.939.939,0,0,0-.938-.938" transform="translate(-567.667 -322.552)"/>
    <path id="Trazado_884477" data-name="Trazado 884477" d="M303.729,289.851a1.182,1.182,0,0,1-1.182-1.182v-8.525a1.182,1.182,0,0,1,2.365,0v8.525a1.182,1.182,0,0,1-1.182,1.182" transform="translate(-228.801 -210.965)" fill="#fff"/>
    <path id="Trazado_884478" data-name="Trazado 884478" d="M302.973,289.339a1.428,1.428,0,0,1-1.426-1.426v-8.525a1.426,1.426,0,0,1,2.852,0v8.525a1.427,1.427,0,0,1-1.426,1.426m0-10.889a.94.94,0,0,0-.939.938v8.525a.939.939,0,0,0,1.877,0v-8.525a.94.94,0,0,0-.938-.938" transform="translate(-228.045 -210.209)"/>
    <path id="Trazado_884479" data-name="Trazado 884479" d="M303.729,438.4a1.182,1.182,0,0,1-1.182-1.182V428.7a1.182,1.182,0,0,1,2.365,0v8.525a1.182,1.182,0,0,1-1.182,1.182" transform="translate(-228.801 -323.309)" fill="#fff"/>
    <path id="Trazado_884480" data-name="Trazado 884480" d="M302.973,437.892a1.428,1.428,0,0,1-1.426-1.426v-8.525a1.426,1.426,0,0,1,2.852,0v8.525a1.427,1.427,0,0,1-1.426,1.426m0-10.889a.94.94,0,0,0-.939.938v8.525a.939.939,0,0,0,1.877,0v-8.525a.94.94,0,0,0-.938-.938" transform="translate(-228.045 -322.552)"/>
    <path id="Trazado_884481" data-name="Trazado 884481" d="M853.689,651.5H763.406s.243-32.435,2.775-57.419l74.278,1.023Z" transform="translate(-577.327 -449.274)" fill="#fff"/>
    <path id="Trazado_884482" data-name="Trazado 884482" d="M852.932,639.238a.244.244,0,0,1-.237-.187l-14.7-61.005-72.353,5.108c-2.644,21.36-2.748,55.5-2.748,55.84a.244.244,0,0,1-.244.243h0a.244.244,0,0,1-.243-.244c0-.345.105-34.723,2.777-56.1a.244.244,0,0,1,.225-.213l72.759-5.137a.244.244,0,0,1,.254.186l14.749,61.206a.244.244,0,0,1-.18.294.255.255,0,0,1-.057.007" transform="translate(-576.57 -436.769)"/>
    <path id="Trazado_884483" data-name="Trazado 884483" d="M890.384,632.732a.242.242,0,0,1-.163-.063l-6.5-5.881a.244.244,0,1,1,.327-.361l6.5,5.881a.244.244,0,0,1-.164.424" transform="translate(-668.255 -473.688)"/>
    <path id="Trazado_884484" data-name="Trazado 884484" d="M916.53,683.283l9.1-10.051a3.9,3.9,0,0,0-.274-5.506L897.2,642.246a3.9,3.9,0,0,0-5.505.274l-9.1,10.051a3.9,3.9,0,0,0,.274,5.506l28.156,25.48a3.9,3.9,0,0,0,5.505-.274" transform="translate(-666.701 -484.937)" fill="#fff"/>
    <path id="Trazado_884485" data-name="Trazado 884485" d="M912.882,684.057a4.126,4.126,0,0,1-2.777-1.069l-28.156-25.48a4.142,4.142,0,0,1-.291-5.85l9.1-10.05a4.146,4.146,0,0,1,5.849-.291l28.156,25.48a4.142,4.142,0,0,1,.291,5.851l-9.1,10.05a4.131,4.131,0,0,1-3.072,1.36m-19.053-43.323a3.646,3.646,0,0,0-2.711,1.2l-9.1,10.05a3.654,3.654,0,0,0,.257,5.162l28.156,25.48a3.659,3.659,0,0,0,5.161-.257l9.1-10.051a3.654,3.654,0,0,0-.257-5.162l-28.156-25.48a3.641,3.641,0,0,0-2.45-.943" transform="translate(-665.944 -484.187)"/>
    <path id="Trazado_884486" data-name="Trazado 884486" d="M907.323,693.453l9.1-10.051a3.9,3.9,0,0,0-.274-5.506l-28.156-25.48a3.9,3.9,0,0,0-5.505.274l-9.1,10.051a3.9,3.9,0,0,0,.274,5.506l28.156,25.48a3.9,3.9,0,0,0,5.505-.274" transform="translate(-659.738 -492.628)" fill="#fff"/>
    <path id="Trazado_884487" data-name="Trazado 884487" d="M903.675,694.227a4.126,4.126,0,0,1-2.777-1.069l-28.156-25.48a4.141,4.141,0,0,1-.291-5.85l9.1-10.051a4.146,4.146,0,0,1,5.849-.291l28.156,25.48a4.141,4.141,0,0,1,.291,5.85l-9.1,10.051a4.131,4.131,0,0,1-3.072,1.36M884.622,650.9a3.646,3.646,0,0,0-2.711,1.2l-9.1,10.051a3.654,3.654,0,0,0,.257,5.162l28.156,25.48a3.659,3.659,0,0,0,5.161-.257l9.1-10.051a3.654,3.654,0,0,0-.257-5.162l-28.156-25.48a3.64,3.64,0,0,0-2.45-.943" transform="translate(-658.982 -491.879)"/>
    <rect id="Rectángulo_403927" data-name="Rectángulo 403927" width="14.926" height="9.479" transform="matrix(0.671, -0.741, 0.741, 0.671, 215.957, 173.491)" fill="#fff"/>
    <path id="Trazado_884488" data-name="Trazado 884488" d="M892.252,683.28a.241.241,0,0,1-.163-.063l-7.028-6.36a.244.244,0,0,1-.017-.344l10.017-11.065a.243.243,0,0,1,.344-.017l7.028,6.36a.244.244,0,0,1,.017.344L892.433,683.2a.243.243,0,0,1-.181.08m-6.684-6.621,6.667,6.033,9.69-10.7-6.667-6.033Z" transform="translate(-669.268 -503.185)"/>
    <rect id="Rectángulo_403928" data-name="Rectángulo 403928" width="3.05" height="3.05" transform="translate(234.913 174.63) rotate(-47.847)" fill="#fff"/>
    <path id="Trazado_884489" data-name="Trazado 884489" d="M965.255,710.952a.242.242,0,0,1-.163-.063l-2.262-2.047a.244.244,0,0,1-.017-.344l2.047-2.261a.243.243,0,0,1,.344-.017l2.262,2.047a.243.243,0,0,1,.017.344l-2.047,2.261a.244.244,0,0,1-.181.08m-1.917-2.308,1.9,1.72,1.72-1.9-1.9-1.72Z" transform="translate(-728.08 -534.031)"/>
    <rect id="Rectángulo_403929" data-name="Rectángulo 403929" width="3.05" height="3.05" transform="translate(230.425 179.588) rotate(-47.847)" fill="#fff"/>
    <path id="Trazado_884490" data-name="Trazado 884490" d="M946.84,731.293a.242.242,0,0,1-.163-.063l-2.262-2.047a.244.244,0,0,1-.017-.344l2.047-2.261a.243.243,0,0,1,.344-.017l2.262,2.047a.243.243,0,0,1,.017.344l-2.047,2.261a.244.244,0,0,1-.181.08m-1.917-2.308,1.9,1.72,1.72-1.9-1.9-1.72Z" transform="translate(-714.154 -549.414)"/>
    <rect id="Rectángulo_403930" data-name="Rectángulo 403930" width="3.05" height="3.05" transform="translate(225.936 184.546) rotate(-47.847)" fill="#fff"/>
    <path id="Trazado_884491" data-name="Trazado 884491" d="M928.425,751.635a.242.242,0,0,1-.163-.063L926,749.525a.244.244,0,0,1-.017-.344l2.048-2.261a.243.243,0,0,1,.344-.017l2.262,2.047a.243.243,0,0,1,.017.344l-2.047,2.261a.243.243,0,0,1-.181.08m-1.917-2.308,1.9,1.72,1.72-1.9-1.9-1.72Z" transform="translate(-700.228 -564.798)"/>
    <rect id="Rectángulo_403931" data-name="Rectángulo 403931" width="3.05" height="3.05" transform="translate(239.872 179.118) rotate(-47.847)" fill="#fff"/>
    <path id="Trazado_884492" data-name="Trazado 884492" d="M985.6,729.363a.242.242,0,0,1-.164-.063l-2.262-2.047a.244.244,0,0,1-.017-.344l2.047-2.261a.243.243,0,0,1,.344-.017l2.262,2.047a.243.243,0,0,1,.017.344l-2.047,2.262a.242.242,0,0,1-.181.08m-1.918-2.308,1.9,1.72,1.72-1.9-1.9-1.72Z" transform="translate(-743.466 -547.955)"/>
    <rect id="Rectángulo_403932" data-name="Rectángulo 403932" width="3.05" height="3.05" transform="translate(235.384 184.076) rotate(-47.847)" fill="#fff"/>
    <path id="Trazado_884493" data-name="Trazado 884493" d="M967.184,749.7a.243.243,0,0,1-.164-.063l-2.262-2.047a.244.244,0,0,1-.017-.344l2.047-2.261a.243.243,0,0,1,.344-.017l2.262,2.047a.243.243,0,0,1,.017.344l-2.047,2.262a.243.243,0,0,1-.181.08m-1.918-2.308,1.9,1.72,1.72-1.9-1.9-1.72Z" transform="translate(-729.539 -563.338)"/>
    <rect id="Rectángulo_403933" data-name="Rectángulo 403933" width="3.051" height="3.051" transform="translate(230.895 189.034) rotate(-47.847)" fill="#fff"/>
    <path id="Trazado_884494" data-name="Trazado 884494" d="M948.769,770.046a.242.242,0,0,1-.164-.063l-2.262-2.047a.244.244,0,0,1-.017-.344l2.047-2.261a.243.243,0,0,1,.344-.017l2.262,2.047a.243.243,0,0,1,.017.344l-2.047,2.262a.243.243,0,0,1-.181.08m-1.918-2.308,1.9,1.72,1.72-1.9-1.9-1.72Z" transform="translate(-715.613 -578.721)"/>
    <rect id="Rectángulo_403934" data-name="Rectángulo 403934" width="3.05" height="3.05" transform="translate(244.831 183.606) rotate(-47.847)" fill="#fff"/>
    <path id="Trazado_884495" data-name="Trazado 884495" d="M1005.945,747.775a.242.242,0,0,1-.163-.063l-2.262-2.047a.244.244,0,0,1-.017-.344l2.047-2.261a.243.243,0,0,1,.344-.017l2.262,2.047a.243.243,0,0,1,.017.344l-2.047,2.262a.243.243,0,0,1-.181.08m-1.917-2.308,1.9,1.72,1.72-1.9-1.9-1.72Z" transform="translate(-758.852 -561.879)"/>
    <rect id="Rectángulo_403935" data-name="Rectángulo 403935" width="3.05" height="3.05" transform="translate(240.343 188.564) rotate(-47.847)" fill="#fff"/>
    <path id="Trazado_884496" data-name="Trazado 884496" d="M987.53,768.116a.242.242,0,0,1-.163-.063l-2.262-2.047a.244.244,0,0,1-.017-.344l2.047-2.262a.243.243,0,0,1,.344-.017l2.262,2.047a.243.243,0,0,1,.017.344l-2.047,2.261a.243.243,0,0,1-.181.08m-1.917-2.308,1.9,1.72,1.72-1.9-1.9-1.72Z" transform="translate(-744.926 -577.261)"/>
    <rect id="Rectángulo_403936" data-name="Rectángulo 403936" width="3.051" height="3.051" transform="matrix(0.671, -0.741, 0.741, 0.671, 235.854, 193.522)" fill="#fff"/>
    <path id="Trazado_884497" data-name="Trazado 884497" d="M969.115,788.457a.242.242,0,0,1-.163-.063l-2.262-2.047a.244.244,0,0,1-.017-.344l2.047-2.261a.243.243,0,0,1,.344-.017l2.262,2.047a.243.243,0,0,1,.017.344l-2.047,2.262a.244.244,0,0,1-.181.08M967.2,786.15l1.9,1.72,1.72-1.9-1.9-1.72Z" transform="translate(-731 -592.645)"/>
    <rect id="Rectángulo_403937" data-name="Rectángulo 403937" width="3.05" height="3.05" transform="matrix(0.671, -0.741, 0.741, 0.671, 249.79, 188.093)" fill="#fff"/>
    <path id="Trazado_884498" data-name="Trazado 884498" d="M1026.289,766.188a.242.242,0,0,1-.163-.063l-2.262-2.047a.244.244,0,0,1-.017-.344l2.047-2.261a.244.244,0,0,1,.344-.017l2.262,2.047a.243.243,0,0,1,.017.344l-2.047,2.261a.244.244,0,0,1-.181.08m-1.917-2.308,1.9,1.72,1.72-1.9-1.9-1.72Z" transform="translate(-774.237 -575.804)"/>
    <rect id="Rectángulo_403938" data-name="Rectángulo 403938" width="3.05" height="3.05" transform="matrix(0.671, -0.741, 0.741, 0.671, 245.302, 193.051)" fill="#fff"/>
    <path id="Trazado_884499" data-name="Trazado 884499" d="M1007.874,786.528a.242.242,0,0,1-.164-.063l-2.262-2.047a.244.244,0,0,1-.017-.344l2.047-2.261a.244.244,0,0,1,.344-.017l2.262,2.047a.243.243,0,0,1,.017.344l-2.047,2.261a.242.242,0,0,1-.181.08m-1.918-2.308,1.9,1.72,1.72-1.9-1.9-1.72Z" transform="translate(-760.311 -591.186)"/>
    <rect id="Rectángulo_403939" data-name="Rectángulo 403939" width="3.05" height="3.05" transform="matrix(0.671, -0.741, 0.741, 0.671, 240.813, 198.01)" fill="#fff"/>
    <path id="Trazado_884500" data-name="Trazado 884500" d="M989.459,806.869a.243.243,0,0,1-.164-.063l-2.262-2.047a.244.244,0,0,1-.017-.344l2.047-2.261a.244.244,0,0,1,.344-.017l2.262,2.047a.243.243,0,0,1,.017.344l-2.047,2.262a.243.243,0,0,1-.181.08m-1.918-2.308,1.9,1.72,1.72-1.9-1.9-1.72Z" transform="translate(-746.385 -606.569)"/>
    <path id="Trazado_884501" data-name="Trazado 884501" d="M907.361,649.246l2.193-2.423-1.877-1.062-1.418,1.566Z" transform="translate(-685.36 -488.358)" fill="#fff"/>
    <path id="Trazado_884502" data-name="Trazado 884502" d="M906.605,648.733h-.026a.244.244,0,0,1-.185-.121l-1.1-1.918a.244.244,0,0,1,.031-.285l1.418-1.566a.243.243,0,0,1,.3-.049l1.877,1.062a.244.244,0,0,1,.061.376l-2.193,2.423a.244.244,0,0,1-.181.08m-.8-2.13.846,1.474,1.764-1.949-1.442-.816Z" transform="translate(-684.604 -487.601)"/>
    <path id="Trazado_884503" data-name="Trazado 884503" d="M990.644,591.01s-20.9,15.679-28.458,20.125-14.438,14.614-13.5,17.637,5.641-1.245,5.641-1.245-4.18,6.915-2.25,8.233,10.177-5.974,10.177-5.974-5.846,5.753-5.521,8.361,2.972,2.767,9.73-3c0,0-3.222,3.606-1.115,5.574,1.573,1.469,12.934-6.95,18.622-12.019,0,0,1.13-2.743,12.525-6.575Z" transform="translate(-717.382 -446.952)" fill="#fff"/>
    <path id="Trazado_884504" data-name="Trazado 884504" d="M965.121,640.358a.971.971,0,0,1-.685-.218c-1.357-1.269-.732-3.1.011-4.386-3.583,2.858-6.11,4.029-7.521,3.482a2.014,2.014,0,0,1-1.18-1.814c-.191-1.536,1.57-4.023,3.167-5.924-2.648,2.069-6.385,4.618-7.719,3.707-1.622-1.108.387-5.325,1.531-7.425-1.066.792-2.739,1.82-3.9,1.5a1.619,1.619,0,0,1-1.115-1.193c-.485-1.555.894-4.813,3.6-8.5a35.592,35.592,0,0,1,10.007-9.418c7.455-4.388,28.226-19.954,28.435-20.11a.244.244,0,0,1,.386.15l5.855,31.113a.244.244,0,0,1-.162.276c-11.047,3.716-12.367,6.414-12.379,6.441a.259.259,0,0,1-.062.086c-4.39,3.912-15.048,12.234-18.266,12.234m.6-6.215a.244.244,0,0,1,.182.406c-.031.034-3.039,3.451-1.131,5.234.451.422,2.648-.3,7.464-3.581a116.257,116.257,0,0,0,10.795-8.411c.23-.429,2.008-3.052,12.444-6.588l-5.743-30.521c-2.642,1.975-21.193,15.8-28.167,19.906-7.718,4.544-14.259,14.555-13.387,17.354a1.149,1.149,0,0,0,.777.868c1.276.347,3.657-1.486,4.467-2.221a.244.244,0,0,1,.372.306c-1.569,2.6-3.587,7.04-2.321,7.905,1.292.883,6.745-3.185,9.878-5.955a.244.244,0,0,1,.333.356c-.058.057-5.757,5.7-5.451,8.158a1.569,1.569,0,0,0,.873,1.42c.971.377,3.226-.112,8.457-4.579a.243.243,0,0,1,.158-.058" transform="translate(-716.633 -446.195)"/>
    <path id="Trazado_884505" data-name="Trazado 884505" d="M973.082,715.015a.244.244,0,0,1-.194-.391,27.5,27.5,0,0,1,8.7-7.495.244.244,0,0,1,.233.428,27.009,27.009,0,0,0-8.55,7.361.243.243,0,0,1-.194.1" transform="translate(-735.71 -534.745)"/>
    <path id="Trazado_884506" data-name="Trazado 884506" d="M1005.61,736a.244.244,0,0,1-.16-.427,45.059,45.059,0,0,1,5.258-3.952.244.244,0,0,1,.263.41,44.622,44.622,0,0,0-5.2,3.909.242.242,0,0,1-.16.06" transform="translate(-760.309 -553.256)"/>
    <path id="Trazado_884507" data-name="Trazado 884507" d="M1022.6,754.677a.244.244,0,0,1-.175-.414,37.179,37.179,0,0,1,6.124-5.079.244.244,0,0,1,.269.407,36.66,36.66,0,0,0-6.044,5.012.244.244,0,0,1-.175.074" transform="translate(-773.161 -566.54)"/>
    <path id="Trazado_884508" data-name="Trazado 884508" d="M800.839,230.036s-11.259-15.531-35.36-16.617v-6.447a7.66,7.66,0,0,0-9.216-7.5l-22.156,4.594a7.659,7.659,0,0,0-6.1,7.5c-18.35,3.751-25.8,14.082-25.8,14.082l-13.66,19.138,20.1,57.849,73.688,1.012,9.995,29.577s16.861-11.545,21.758-16.246c12.307-11.812,12.508-32.85,3.868-48.21Z" transform="translate(-520.708 -150.729)" fill="#2b63a8"/>
    <path id="Trazado_884509" data-name="Trazado 884509" d="M933.922,500.231l-.032,0-42-5.477a.244.244,0,0,1-.212-.242V479.051a.243.243,0,0,1,.088-.187.24.24,0,0,1,.2-.052l38.959,7.356a.244.244,0,0,1,.193.186l3.039,13.58a.244.244,0,0,1-.238.3M892.167,494.3l41.44,5.4-2.928-13.083-38.513-7.272Z" transform="translate(-674.334 -362.099)"/>
    <path id="Trazado_884510" data-name="Trazado 884510" d="M951.929,342.162l-7.63-.594.669-8.59-6.193-.482-.669,8.59-7.63-.594-.543,6.972,7.63.594-.669,8.59,6.193.482.669-8.59,7.63.594Z" transform="translate(-703.263 -251.45)" fill="#fff"/>
    <path id="Trazado_884511" data-name="Trazado 884511" d="M1053.65,489.889a.244.244,0,0,1-.126-.453c.1-.06,9.955-6.049,8.5-11.629-1.5-5.732-14.547-31.934-14.679-32.2a.244.244,0,0,1,.436-.218c.538,1.08,13.206,26.512,14.714,32.292,1.548,5.932-8.3,11.918-8.72,12.17a.242.242,0,0,1-.125.035" transform="translate(-792.036 -336.726)"/>
    <path id="Trazado_884512" data-name="Trazado 884512" d="M848.03,334.694a.244.244,0,0,1-.244-.238c-1.036-42.349,8.149-90.069,8.242-90.546a.244.244,0,1,1,.478.093c-.093.477-9.268,48.146-8.233,90.441a.244.244,0,0,1-.238.25Z" transform="translate(-641.077 -184.308)"/>
    <path id="Trazado_884513" data-name="Trazado 884513" d="M865.553,75.665s5.585-1.188,4.634-6.3-3.327-12.6-2.02-17.586-.357-10.219-6.417-10.457-9.625-4.515-14.378-2.5-10.694,1.188-12,8.674a12.463,12.463,0,0,0,8.555,14.021c4.4,1.188,21.626,14.14,21.626,14.14" transform="translate(-631.602 -28.957)"/>
    <path id="Trazado_884514" data-name="Trazado 884514" d="M910.861,130.569l.98,22.19-17.517,2.591-.574-12.662Z" transform="translate(-675.899 -98.743)" fill="#fff"/>
    <path id="Trazado_884515" data-name="Trazado 884515" d="M893.372,150.525a.244.244,0,0,1-.243-.233l-.378-8.349a.244.244,0,0,1,.1-.21l17.11-12.12a.244.244,0,0,1,.385.188l.746,16.9a.244.244,0,0,1-.487.021l-.727-16.452-16.637,11.785.372,8.216a.244.244,0,0,1-.233.254h-.011" transform="translate(-675.143 -97.986)"/>
    <path id="Trazado_884516" data-name="Trazado 884516" d="M859.444,80.313s-4.842,24.565,5.979,28.474c8.783,3.174,16.583-12.222,16.583-12.222s7.224-1.534,5.352-8.463c-1.185-4.387-7.285-2.719-7.473,2.018,0,0-2.7,2.98-2.914,1.034s-.6-16.076-17.527-10.84" transform="translate(-649.139 -59.863)" fill="#fff"/>
    <path id="Trazado_884517" data-name="Trazado 884517" d="M867.071,108.7a7.266,7.266,0,0,1-2.487-.439c-4.527-1.636-7.02-7.143-7.208-15.927a68.129,68.129,0,0,1,1.073-12.824.243.243,0,0,1,.167-.185c5.532-1.712,9.888-1.538,12.945.515,4.214,2.83,4.7,8.364,4.863,10.182.012.141.023.259.033.35.019.172.07.387.206.431.426.134,1.556-.814,2.227-1.538a4.9,4.9,0,0,1,4.166-4.687,3.388,3.388,0,0,1,3.782,2.7,6.669,6.669,0,0,1-.538,5.393,8.334,8.334,0,0,1-4.884,3.346,40.14,40.14,0,0,1-4.979,7.251c-3.168,3.589-6.36,5.427-9.365,5.427M858.9,79.751c-.369,2.012-4.229,24.414,5.849,28.056a6.822,6.822,0,0,0,2.331.412c7.517,0,13.882-12.378,13.952-12.516a.245.245,0,0,1,.167-.128,8.058,8.058,0,0,0,4.686-3.153,6.2,6.2,0,0,0,.482-5.008,2.923,2.923,0,0,0-3.257-2.347,4.411,4.411,0,0,0-3.737,4.312.244.244,0,0,1-.063.154c-.309.341-1.9,2.032-2.8,1.738-.308-.1-.49-.383-.54-.841-.01-.093-.021-.215-.034-.36-.156-1.761-.629-7.121-4.649-9.821-2.9-1.949-7.071-2.117-12.389-.5" transform="translate(-648.383 -59.111)"/>
    <path id="Trazado_884518" data-name="Trazado 884518" d="M952.249,131.36l-.037,0a.244.244,0,0,1-.2-.277,4.232,4.232,0,0,1,3.247-3.24.244.244,0,1,1,.109.475,3.731,3.731,0,0,0-2.874,2.838.244.244,0,0,1-.241.207" transform="translate(-719.954 -96.674)"/>
    <path id="Trazado_884519" data-name="Trazado 884519" d="M508.767,639.336l14.49,46.474-98.609-.018,7.624-42.645Z" transform="translate(-321.14 -483.499)" fill="#fff"/>
    <path id="Trazado_884520" data-name="Trazado 884520" d="M546.153,685.3a.244.244,0,0,1-.233-.171l-14.433-46.294-76.307,3.8a.244.244,0,0,1-.024-.487l76.5-3.811a.239.239,0,0,1,.245.171l14.49,46.474a.244.244,0,0,1-.16.305.25.25,0,0,1-.073.011" transform="translate(-344.036 -482.74)"/>
    <path id="Trazado_884521" data-name="Trazado 884521" d="M419.331,71.448s16.216-15.864,1.013-18.58c0,0-17.659-20.717-33.134,4.55-2.17,3.543-4.333,12.3-3.761,18.777,0,0-8.985,1.461-11.458,12.029,0,0-8.446-2.71-9.881,8.676,0,0-8.067-1.426-9.892,7.167,0,0-7.85-.205-13.579,22.088,0,0,16.574-7.221,17.825-17.019,0,0,5.925.832,8.054-6.381,0,0,14.5.344,17.323-10.109,0,0,13.352.086,16.658-10.346,0,0,16.4-15.581,20.833-10.853" transform="translate(-256.096 -33.936)"/>
    <path id="Trazado_884522" data-name="Trazado 884522" d="M490.378,209.416a7.1,7.1,0,0,0-4.489-6.6l-24.74-9.756a6.745,6.745,0,0,0-9.213,6.288v7.766L436.5,224.2l-2.5,95.18a4.987,4.987,0,0,0,6.661,4.836l81.058-14.775a5,5,0,0,0,3.058-6.266l-22.954-78.262a35.3,35.3,0,0,0-11.444-15.5" transform="translate(-328.211 -145.639)" fill="#1e4678"/>
    <path id="Trazado_884523" data-name="Trazado 884523" d="M737.114,413.57a.244.244,0,0,1-.233-.174l-20.012-67.341a.244.244,0,0,1,.467-.139l20.012,67.341a.244.244,0,0,1-.164.3.254.254,0,0,1-.069.01" transform="translate(-542.125 -261.467)"/>
    <path id="Trazado_884524" data-name="Trazado 884524" d="M281.29,548.352a23.391,23.391,0,0,0,23.169,11.2l43-21.83,11,52.855s-20.3,18.493-59.151,18.381c-20.908-.061-36.618-10.415-37.3-13.154-1.859-7.429,2.2-38.3,19.29-47.454" transform="translate(-197.825 -406.655)" fill="#fff"/>
    <path id="Trazado_884525" data-name="Trazado 884525" d="M586.521,563.9c.85,15.023-7.353,27.705-18.322,28.325s-20.549-11.056-21.4-26.08,7.353-27.706,18.322-28.325,20.549,11.056,21.4,26.08" transform="translate(-413.473 -406.707)" fill="#e2eaff"/>
    <path id="Trazado_884526" data-name="Trazado 884526" d="M298.89,641.419h-.348c-21.37-.062-36.853-10.6-37.539-13.339-.982-3.923-.3-13.677,2.543-23.209,2.506-8.406,7.467-19.484,16.869-24.519a.244.244,0,0,1,.23.43c-9.254,4.956-14.153,15.911-16.632,24.228-2.818,9.452-3.5,19.092-2.537,22.952.645,2.576,16.33,12.91,37.068,12.97h.347c19.852,0,34.708-4.955,43.695-9.126,9.784-4.541,14.894-9.146,14.945-9.192a.244.244,0,1,1,.328.36c-.051.047-5.216,4.7-15.068,9.274-9.031,4.191-23.961,9.171-43.9,9.171" transform="translate(-197.064 -438.869)"/>
    <path id="Trazado_884527" data-name="Trazado 884527" d="M466.464,259.034s24.678-8.938,49.8,36.133l-8,4.778s-14.533-38.747-41.8-40.912" transform="translate(-352.764 -195.35)" fill="#fff"/>
    <path id="Trazado_884528" data-name="Trazado 884528" d="M626.391,393.828c-.3-2.887-4.975-3.346-4.975-3.346-3.168-6.079-11.562.462-11.562.462-6.636-1.1-13.722,9.534-14.168,10.216l11.4,19.508c10.441-4.962,14.835-8.421,17.962-11.02,8.2-6.813,4.92-11.2,4.92-11.2-.214-4.405-3.581-4.625-3.581-4.625" transform="translate(-450.487 -293.346)" fill="#fff"/>
    <path id="Trazado_884529" data-name="Trazado 884529" d="M680.808,405.8a.244.244,0,0,1-.128-.451,9.907,9.907,0,0,0,4.509-6.772.244.244,0,1,1,.481.077,10.4,10.4,0,0,1-4.734,7.109.243.243,0,0,1-.128.036" transform="translate(-514.677 -301.272)"/>
    <path id="Trazado_884530" data-name="Trazado 884530" d="M697.036,419.806a.244.244,0,0,1-.105-.464,10.148,10.148,0,0,0,5.621-7.977.244.244,0,0,1,.485.049,10.644,10.644,0,0,1-5.9,8.367.241.241,0,0,1-.1.024" transform="translate(-526.95 -310.93)"/>
    <path id="Trazado_884531" data-name="Trazado 884531" d="M711.435,437.862a.244.244,0,0,1-.134-.448,15.421,15.421,0,0,0,5.8-7.052.244.244,0,0,1,.452.183,15.915,15.915,0,0,1-5.981,7.277.244.244,0,0,1-.133.04" transform="translate(-537.839 -325.347)"/>
    <path id="Trazado_884532" data-name="Trazado 884532" d="M628.541,400.484a.246.246,0,0,1-.069-.01.243.243,0,0,1-.154-.134L627,397.406a.244.244,0,1,1,.444-.2l1.205,2.676a82.077,82.077,0,0,1,7.531-4.308l-.792-1.35a.244.244,0,0,1,.421-.246l.923,1.575a.244.244,0,0,1-.1.341,81.515,81.515,0,0,0-7.955,4.552.245.245,0,0,1-.133.039" transform="translate(-474.151 -297.854)"/>
    <path id="Trazado_884533" data-name="Trazado 884533" d="M393.974,305.552l-16.07,6.3,6.309-25.666c2.371-9.647-2.9-17.47-12.555-19.718l-1.257-1.5a16.857,16.857,0,0,0-19.929,10.242l-18.211,47.609c-7.392,19.326,13.152,37.463,31.352,27.679l43.092-23.166Z" transform="translate(-250.104 -200.008)" fill="#1e4678"/>
    <path id="Trazado_884534" data-name="Trazado 884534" d="M424.276,352.823l-7.413-1.717,1.717-7.409-6.017-1.394-1.717,7.409L403.432,348l-1.393,6.014,7.413,1.717-1.717,7.409,6.017,1.394,1.717-7.409,7.413,1.717Z" transform="translate(-304.042 -258.867)" fill="#fff"/>
    <path id="Trazado_884535" data-name="Trazado 884535" d="M523.556,360.6a.244.244,0,0,1-.237-.3l6.309-25.666a18,18,0,0,0,.5-5.758.244.244,0,1,1,.486-.04,18.473,18.473,0,0,1-.516,5.914l-6.2,25.21,15.632-6.128a.244.244,0,0,1,.3.1l1.327,2.27a.244.244,0,0,1-.421.246l-1.221-2.09-15.876,6.224a.245.245,0,0,1-.089.017" transform="translate(-395.755 -248.512)"/>
    <path id="Trazado_884536" data-name="Trazado 884536" d="M436.718,547.412a.244.244,0,0,1-.042-.484,22.658,22.658,0,0,0,6.8-2.387l43.092-23.166a.244.244,0,1,1,.231.429L443.71,544.971a23.145,23.145,0,0,1-6.949,2.438.251.251,0,0,1-.042,0" transform="translate(-330.084 -394.269)"/>
    <path id="Trazado_884537" data-name="Trazado 884537" d="M440.062,465.7a.244.244,0,0,1-.083-.473l20.352-7.369a.244.244,0,0,1,.166.458l-20.352,7.369a.247.247,0,0,1-.083.015" transform="translate(-332.613 -346.247)"/>
    <path id="Trazado_884538" data-name="Trazado 884538" d="M587.133,171.286l-.763,18.543-14.143-5.7,3.466-13.312Z" transform="translate(-432.748 -129.18)" fill="#fff"/>
    <path id="Trazado_884539" data-name="Trazado 884539" d="M632.623,185.78h-.01a.244.244,0,0,1-.234-.253l.557-13.549a.24.24,0,0,1,.253-.234.243.243,0,0,1,.233.253l-.557,13.549a.243.243,0,0,1-.243.234" transform="translate(-478.237 -129.881)"/>
    <path id="Trazado_884540" data-name="Trazado 884540" d="M591.948,115.5c.234,3.955-1.12,8.22-4.34,10.515a10.032,10.032,0,0,1-8.179,1.4,12.972,12.972,0,0,1-6.958-4.728,5.457,5.457,0,0,1-5.715.457,4.519,4.519,0,0,1-2.122-5.172,3.828,3.828,0,0,1,4.868-2.322,7.58,7.58,0,0,0,1.466.636,2.885,2.885,0,0,0,2.624-1.331,6.753,6.753,0,0,0,1.134-5.886c2.552.111,5.173.33,7.627-.38,4.718-1.365,6.234-4.039,6.234-4.039s3.16,7.464,3.361,10.852" transform="translate(-426.856 -79.141)" fill="#fff"/>
    <path id="Trazado_884541" data-name="Trazado 884541" d="M581.246,127.222a10.8,10.8,0,0,1-2.635-.327,13.133,13.133,0,0,1-6.949-4.634,5.661,5.661,0,0,1-5.784.338,4.741,4.741,0,0,1-2.234-5.462,4.081,4.081,0,0,1,2.225-2.373,3.73,3.73,0,0,1,2.969-.1c.178.076.35.166.516.252a3.348,3.348,0,0,0,.9.369c1.152.22,2.118-.894,2.386-1.241a6.507,6.507,0,0,0,1.092-5.67.244.244,0,0,1,.043-.218.239.239,0,0,1,.2-.092l.782.036a20.861,20.861,0,0,0,6.767-.407c4.57-1.322,6.075-3.9,6.09-3.925a.244.244,0,0,1,.436.025c.13.306,3.18,7.542,3.38,10.933.265,4.476-1.437,8.587-4.442,10.727a9.926,9.926,0,0,1-5.745,1.765m-9.534-5.535a.243.243,0,0,1,.193.095,12.693,12.693,0,0,0,6.825,4.641,9.773,9.773,0,0,0,7.978-1.362c2.869-2.044,4.493-5.992,4.238-10.3-.169-2.854-2.512-8.748-3.171-10.358a11.493,11.493,0,0,1-6.113,3.764,21.209,21.209,0,0,1-6.925.426l-.451-.021a7.015,7.015,0,0,1-1.259,5.777,3.071,3.071,0,0,1-2.863,1.421,3.781,3.781,0,0,1-1.035-.415c-.164-.086-.32-.167-.48-.236a3.245,3.245,0,0,0-2.579.092,3.642,3.642,0,0,0-1.963,2.085,4.3,4.3,0,0,0,2.01,4.881,5.18,5.18,0,0,0,5.454-.441.244.244,0,0,1,.143-.046" transform="translate(-426.097 -78.385)"/>
    <path id="Trazado_884542" data-name="Trazado 884542" d="M581.17,164.373a.243.243,0,0,1-.193-.1,3.432,3.432,0,0,0-3.214-1.257.244.244,0,1,1-.082-.48,3.926,3.926,0,0,1,3.682,1.44.244.244,0,0,1-.193.392" transform="translate(-436.719 -122.883)"/>
  </g>
</svg>
