<svg xmlns="http://www.w3.org/2000/svg" xmlns:xlink="http://www.w3.org/1999/xlink" width="138" height="138" viewBox="0 0 138 138">
  <defs>
    <filter id="Elipse_11581" x="0" y="0" width="138" height="138" filterUnits="userSpaceOnUse">
      <feOffset dy="3" input="SourceAlpha"/>
      <feGaussianBlur stdDeviation="3" result="blur"/>
      <feFlood flood-opacity="0.161"/>
      <feComposite operator="in" in2="blur"/>
      <feComposite in="SourceGraphic"/>
    </filter>
    <clipPath id="clip-path">
      <rect id="Rect치ngulo_403922" data-name="Rect치ngulo 403922" width="50.282" height="56.621" fill="none"/>
    </clipPath>
    <clipPath id="clip-path-2">
      <path id="Trazado_884446" data-name="Trazado 884446" d="M123.912,902.973l-.089.13-.156-.052a6.837,6.837,0,0,0-2.177-.216l-3.157.07.631.36c-.017.685.07.893-.374,1.436a37.682,37.682,0,0,1-6.326.24c-.773-.014-1.539-.027-2.29-.024l-20.553.151a64.319,64.319,0,0,0-7.715.321,6.776,6.776,0,0,0,1.853.854,18.273,18.273,0,0,0,5.1.24c.706-.03,1.384-.06,1.991-.059l15.077,0,9.621,0c1.823.005,3.74.122,5.554-.028a5.151,5.151,0,0,0,2.116-.73c.589-.37,1.044-.663,1.206-1.347.011-1.587.34-4.261-.321-5.667a10.222,10.222,0,0,1,.011,4.315" transform="translate(-81.705 -898.658)" fill="none"/>
    </clipPath>
    <linearGradient id="linear-gradient" x1="-2.015" y1="0.638" x2="-2.01" y2="0.638" gradientUnits="objectBoundingBox">
      <stop offset="0" stop-color="#e2ddde"/>
      <stop offset="1" stop-color="#c4e3e8"/>
    </linearGradient>
  </defs>
  <g id="Grupo_1103867" data-name="Grupo 1103867" transform="translate(-724.333 -372)">
    <g transform="matrix(1, 0, 0, 1, 724.33, 372)" filter="url(#Elipse_11581)">
      <g id="Elipse_11581-2" data-name="Elipse 11581" transform="translate(19 16)" fill="#fff7e6" stroke="rgba(250,246,237,0.5)" stroke-width="10">
        <circle cx="50" cy="50" r="50" stroke="none"/>
        <circle cx="50" cy="50" r="55" fill="none"/>
      </g>
    </g>
    <g id="Grupo_1103864" data-name="Grupo 1103864" transform="translate(770 409.687)">
      <g id="Grupo_1103859" data-name="Grupo 1103859" transform="translate(0 0.002)">
        <g id="Grupo_1103858" data-name="Grupo 1103858" transform="translate(0 0)" clip-path="url(#clip-path)">
          <path id="Trazado_884441" data-name="Trazado 884441" d="M23.541.116a12.271,12.271,0,0,1,9.35,2.362c2.894,2.246,4.111,5.3,4.569,8.816h5.683a7.125,7.125,0,0,1,3.3.4l.128.068a6.167,6.167,0,0,1,1.516,1.1,6.729,6.729,0,0,1,2.127,5.128l.036,21.748.014,6.513a24.15,24.15,0,0,1-.151,4.24,7.3,7.3,0,0,1-2.127,3.957,7.123,7.123,0,0,1-3.72,1.934,30.722,30.722,0,0,1-5.747.139l-12.1,0-13.531.012c-2.311,0-5.423.384-7.608-.376A7.646,7.646,0,0,1,.805,52.079a6.819,6.819,0,0,1-.614-2.365C-.183,45.23.13,40.471.121,35.954L.1,23.453c0-2.077-.38-5.044.335-6.98a8.226,8.226,0,0,1,1.979-3.1c2.956-2.967,7.02-2.268,10.843-2.253.449-.449.7-2.023.915-2.678A12.82,12.82,0,0,1,15.419,5.7,12.539,12.539,0,0,1,23.541.116" transform="translate(0 -0.002)"/>
          <path id="Trazado_884442" data-name="Trazado 884442" d="M397.851,152.306a4.136,4.136,0,0,1-2.107-.18,4.654,4.654,0,0,1,2.046-2.933c.673.872.491,1.555.494,2.62Z" transform="translate(-375.189 -141.443)" fill="#fff"/>
          <path id="Trazado_884443" data-name="Trazado 884443" d="M435.133,132.019c1.622-.721,2.959-1.319,4.725-.649,1.987.754,2.777,1.945,3.631,3.8l-8.3-.04.433-.494c0-1.065.179-1.748-.494-2.62" transform="translate(-412.532 -124.27)" fill="#a5e2ff"/>
          <path id="Trazado_884444" data-name="Trazado 884444" d="M315.7,41.642a8.631,8.631,0,0,0-5.021.756c-2.236,1.184-3.115,3.046-3.843,5.344l-2.252-.082c-.3-.891.26-2.239.653-3.049a10.45,10.45,0,0,1,5.736-5.182c1.443-.472,3.933-1,5.337-.3a8.9,8.9,0,0,1,5.9,3.79,13.647,13.647,0,0,1,2.035,5.007l-2.858-.019c-.525-2.267-1.116-4.126-3.207-5.408a7.258,7.258,0,0,0-2.481-.86" transform="translate(-288.68 -36.778)" fill="#a5e2ff"/>
          <path id="Trazado_884445" data-name="Trazado 884445" d="M42.872,292.693l-.407-.445a6.115,6.115,0,0,1-1.583-3.311,36.1,36.1,0,0,1-.073-4.825l-.011-9.13V263.27c0-1.99-.145-4.1.042-6.081a5.636,5.636,0,0,1,2.085-3.5,4.716,4.716,0,0,1,2.395-1.162,61.626,61.626,0,0,1,6.763-.069l13.827.008,11.809.01a47.6,47.6,0,0,1,5.635.067,3.489,3.489,0,0,1,2.378,1.429,5.548,5.548,0,0,1,.968,2.554c.212,2.149.073,4.443.075,6.612l.025,12.508.008,9.436a23.485,23.485,0,0,1-.106,4.458,3.035,3.035,0,0,1-1.315,2.089c-.162.684-.617.978-1.206,1.347a5.151,5.151,0,0,1-2.116.73c-1.814.15-3.732.033-5.554.028l-9.621,0-15.077,0c-2.107,0-5.08.364-7.089-.181a6.778,6.778,0,0,1-1.853-.855" transform="translate(-38.629 -239.287)" fill="#fff"/>
        </g>
      </g>
      <g id="Grupo_1103861" data-name="Grupo 1103861" transform="translate(4.244 46.678)">
        <g id="Grupo_1103860" data-name="Grupo 1103860" clip-path="url(#clip-path-2)">
          <rect id="Rect치ngulo_403923" data-name="Rect치ngulo 403923" width="10.207" height="43.216" transform="translate(-0.417 7.95) rotate(-86.994)" fill="url(#linear-gradient)"/>
        </g>
      </g>
      <g id="Grupo_1103863" data-name="Grupo 1103863" transform="translate(0 0.002)">
        <g id="Grupo_1103862" data-name="Grupo 1103862" transform="translate(0 0)" clip-path="url(#clip-path)">
          <path id="Trazado_884447" data-name="Trazado 884447" d="M164.835,300.541c2-.524,4.709-.2,6.816-.195,2.576.01,24.509.311,24.91,0a3.627,3.627,0,0,1,2.975-.671c1.058.141,1.8.779,2.875.965a1.89,1.89,0,0,1,.424,1.165c.176,1.953.067,4.014.081,5.977l.064,11.291.025,7.44a25.931,25.931,0,0,1-.019,3.485,2.01,2.01,0,0,1-.274.73,10.22,10.22,0,0,1,.011,4.315l-.089.13-.156-.052a6.836,6.836,0,0,0-2.177-.216l.555-.439L200.9,300.6Z" transform="translate(-156.274 -284.052)" fill="#a5e2ff"/>
          <path id="Trazado_884448" data-name="Trazado 884448" d="M124,317.463l36.061.058-.039,33.867-.555.439-3.157.07-34.353-.087-.059-.112a6.32,6.32,0,0,1-.078-1.814l-.008-5.021-.028-18.61-.011-4.679a6.02,6.02,0,0,1,.207-2.261,3.5,3.5,0,0,1,2.021-1.85" transform="translate(-115.44 -300.974)"/>
          <path id="Trazado_884449" data-name="Trazado 884449" d="M162.572,387.373a14.469,14.469,0,0,1-2.825.083l-.075-21.872-.008-5.413a8.785,8.785,0,0,1,.1-2.336c.137-.434.3-.483.681-.692l23.467.021,6.534.006a12.064,12.064,0,0,1,3.3.155,2.068,2.068,0,0,1-.36,1.565l-.151.016-30.3-.023.039,19.035a83.1,83.1,0,0,1-.022,8.707,1.536,1.536,0,0,1-.385.75" transform="translate(-151.345 -338.584)" fill="#fff"/>
          <path id="Trazado_884450" data-name="Trazado 884450" d="M216.155,419.28a1.536,1.536,0,0,0,.385-.75,83.107,83.107,0,0,0,.022-8.707l-.039-19.035,30.3.023.151-.016a1.8,1.8,0,0,1,.419.842,89.633,89.633,0,0,1,.017,9l0,18.72Z" transform="translate(-204.928 -370.492)" fill="#a5e2ff"/>
          <path id="Trazado_884451" data-name="Trazado 884451" d="M333.347,483.007l1.091-.147.463.357a4.859,4.859,0,0,1,.24,2.279l-.05,4.707,4.449-.011a6,6,0,0,1,1.6.09,3.1,3.1,0,0,1,.5.469,1.278,1.278,0,0,1-.184,1.189c-1.423.782-4.65.347-6.355.348l-.034,6.834c-.382.6-.519.543-1.22.73l-.5-.373a5.282,5.282,0,0,1-.218-2.287l.014-4.931-6.339-.041c-.62-.365-.631-.372-.86-1.051l.315-.628a4.613,4.613,0,0,1,2.582-.33l4.321,0c-.02-2.223-.368-5.069.19-7.2" transform="translate(-309.01 -457.781)"/>
        </g>
      </g>
    </g>
  </g>
</svg>
