<svg xmlns="http://www.w3.org/2000/svg" xmlns:xlink="http://www.w3.org/1999/xlink" width="138" height="138" viewBox="0 0 138 138">
  <defs>
    <filter id="Elipse_11581" x="0" y="0" width="138" height="138" filterUnits="userSpaceOnUse">
      <feOffset dy="3" input="SourceAlpha"/>
      <feGaussianBlur stdDeviation="3" result="blur"/>
      <feFlood flood-opacity="0.161"/>
      <feComposite operator="in" in2="blur"/>
      <feComposite in="SourceGraphic"/>
    </filter>
  </defs>
  <g id="Grupo_1103891" data-name="Grupo 1103891" transform="translate(-1169.333 -386)">
    <g id="Grupo_1100448" data-name="Grupo 1100448" transform="translate(391 -41)">
      <g transform="matrix(1, 0, 0, 1, 778.33, 427)" filter="url(#Elipse_11581)">
        <g id="Elipse_11581-2" data-name="Elipse 11581" transform="translate(19 16)" fill="#fff7e6" stroke="rgba(250,246,237,0.5)" stroke-width="10">
          <circle cx="50" cy="50" r="50" stroke="none"/>
          <circle cx="50" cy="50" r="55" fill="none"/>
        </g>
      </g>
      <g id="Layer_24" data-name="Layer 24" transform="translate(806.515 455.233)">
        <path id="Trazado_884806" data-name="Trazado 884806" d="M140.884,12.211a30.392,30.392,0,0,0,8.5,2,1.781,1.781,0,0,1,1.643,1.771v10.08H142.52V18.1a4.539,4.539,0,0,1-1.636-1.8l1.363-.545S140.448,14.883,140.884,12.211Z" transform="translate(-106.715 -2.792)" fill="#ffcaca"/>
        <path id="Trazado_884807" data-name="Trazado 884807" d="M104.907,89.072h-1.568v-.421a1.526,1.526,0,0,0-1.526-1.526.983.983,0,0,0-.983.983v.964H88.722V86.094H84.059v2.978H71.952v-.964a.983.983,0,0,0-.983-.983,1.526,1.526,0,0,0-1.526,1.526v.421H67.874a1.118,1.118,0,0,0-1.118,1.118v2.06a1.118,1.118,0,0,0,1.118,1.118h13.52v11.351h9.993V93.368h13.521a1.117,1.117,0,0,0,1.117-1.118V90.19A1.118,1.118,0,0,0,104.907,89.072Z" transform="translate(-46.536 -62.827)" fill="#ffcaca"/>
        <path id="Trazado_884808" data-name="Trazado 884808" d="M144.928,224.17l-1.815-.918V203.379H133.12v19.872l-1.816.918a1.624,1.624,0,0,0-.891,1.449v1.08h15.406v-1.08a1.624,1.624,0,0,0-.891-1.449Z" transform="translate(-98.262 -158.128)" fill="#ffcaca"/>
        <path id="Trazado_884809" data-name="Trazado 884809" d="M159.07,86.094v1.329l4.663,1.649V86.094Z" transform="translate(-121.547 -62.827)" fill="#464965"/>
        <rect id="Rect치ngulo_403967" data-name="Rect치ngulo 403967" width="15.734" height="15.734" rx="3" transform="translate(10.129 52.721)" fill="#464965"/>
        <path id="Trazado_884810" data-name="Trazado 884810" d="M36.213,265.727l-2.24-2.24a1.6,1.6,0,1,0-2.7-.842,1.6,1.6,0,1,0,.842,2.7l2.24,2.24a1.6,1.6,0,1,0,2.7.842,1.6,1.6,0,1,0-.842-2.7Z" transform="translate(-16.166 -204.75)" fill="#fff"/>
        <path id="Trazado_884811" data-name="Trazado 884811" d="M169.361,227.48V204.986a.644.644,0,0,0-1.288,0V227.48Z" transform="translate(-128.863 -158.911)" fill="#ef9199"/>
        <path id="Trazado_884812" data-name="Trazado 884812" d="M162.8,66.224a4.456,4.456,0,0,1-1.275-.19.552.552,0,1,1,.32-1.056,2.734,2.734,0,0,0,2.535-.394.552.552,0,1,1,.688.863A3.573,3.573,0,0,1,162.8,66.224Z" transform="translate(-123.21 -45.25)" fill="#ef9199"/>
        <path id="Trazado_884813" data-name="Trazado 884813" d="M28.586,17.67a.643.643,0,0,0-.818.4,4.972,4.972,0,1,1-1.19-5.124.644.644,0,1,0,.911-.911,6.258,6.258,0,1,0,1.5,6.452.644.644,0,0,0-.4-.819Z" transform="translate(-5.95 -1.162)" fill="#b3b3d0"/>
        <path id="Trazado_884814" data-name="Trazado 884814" d="M77.068,33.312a.644.644,0,1,0-1.249.314q.034.133.06.269a.644.644,0,0,0,.632.522.652.652,0,0,0,.123-.012.644.644,0,0,0,.511-.754C77.122,33.538,77.1,33.424,77.068,33.312Z" transform="translate(-53.885 -19.542)" fill="#b3b3d0"/>
        <path id="Trazado_884815" data-name="Trazado 884815" d="M261.508,16.021H268a.644.644,0,1,0,0-1.288h-6.5a.644.644,0,0,0,0,1.288Z" transform="translate(-204.262 -4.841)" fill="#b3b3d0"/>
        <path id="Trazado_884816" data-name="Trazado 884816" d="M238.818,34.928h10.749a.644.644,0,0,0,0-1.288H238.818a.644.644,0,0,0,0,1.288Z" transform="translate(-185.825 -20.204)" fill="#b3b3d0"/>
        <path id="Trazado_884817" data-name="Trazado 884817" d="M245.462,52.834a.644.644,0,0,0-.644-.644h-6a.644.644,0,0,0,0,1.288h6A.644.644,0,0,0,245.462,52.834Z" transform="translate(-185.825 -35.277)" fill="#b3b3d0"/>
        <path id="Trazado_884818" data-name="Trazado 884818" d="M42.742,157.387h-6.5a.644.644,0,0,0,0,1.288h6.5a.644.644,0,0,0,0-1.288Z" transform="translate(-21.223 -120.757)" fill="#b3b3d0"/>
        <path id="Trazado_884819" data-name="Trazado 884819" d="M24.3,176.294H13.553a.644.644,0,1,0,0,1.288H24.3a.644.644,0,0,0,0-1.288Z" transform="translate(-2.782 -136.12)" fill="#b3b3d0"/>
        <path id="Trazado_884820" data-name="Trazado 884820" d="M19.552,194.843h-6a.644.644,0,1,0,0,1.288h6a.644.644,0,1,0,0-1.288Z" transform="translate(-2.781 -151.192)" fill="#b3b3d0"/>
        <path id="Trazado_884821" data-name="Trazado 884821" d="M268.558,276.707a.644.644,0,0,0,.644.644h6.5a.644.644,0,1,0,0-1.288h-6.5A.644.644,0,0,0,268.558,276.707Z" transform="translate(-210.514 -217.188)" fill="#b3b3d0"/>
        <path id="Trazado_884822" data-name="Trazado 884822" d="M257.257,294.972H246.508a.644.644,0,1,0,0,1.288h10.749a.644.644,0,0,0,0-1.288Z" transform="translate(-192.073 -232.553)" fill="#b3b3d0"/>
        <path id="Trazado_884823" data-name="Trazado 884823" d="M252.508,313.521h-6a.644.644,0,1,0,0,1.288h6a.644.644,0,1,0,0-1.288Z" transform="translate(-192.073 -247.626)" fill="#b3b3d0"/>
        <path id="Trazado_884824" data-name="Trazado 884824" d="M238.831,16.021h.883a.644.644,0,1,0,0-1.288h-.883a.644.644,0,1,0,0,1.288Z" transform="translate(-185.835 -4.841)" fill="#b3b3d0"/>
        <path id="Trazado_884825" data-name="Trazado 884825" d="M13.565,158.675h.883a.644.644,0,1,0,0-1.288h-.883a.644.644,0,1,0,0,1.288Z" transform="translate(-2.792 -120.757)" fill="#b3b3d0"/>
        <path id="Trazado_884826" data-name="Trazado 884826" d="M246.52,276.065a.644.644,0,1,0,0,1.288h.883a.644.644,0,0,0,0-1.288Z" transform="translate(-192.083 -217.19)" fill="#b3b3d0"/>
        <path id="Trazado_884827" data-name="Trazado 884827" d="M144.853,185.456v3.359l3.578,2.106a2.8,2.8,0,0,0,2.836,0l3.578-2.106v-3.359Z" transform="translate(-109.995 -143.565)" fill="#464965"/>
        <rect id="Rect치ngulo_403968" data-name="Rect치ngulo 403968" width="15.734" height="15.734" rx="7.867" transform="translate(53.28 37.66)" fill="#f76b99"/>
        <path id="Trazado_884828" data-name="Trazado 884828" d="M269.682,190.5c-1.562-1.788-3.632.477-3.632.477s-2.069-2.265-3.632-.477c-1.879,2.15.232,3.492.762,3.782.148.081.3.163.44.249,2.145,1.281,2.43,2.016,2.43,2.016s.284-.735,2.43-2.016c.145-.086.292-.169.44-.249C269.45,193.992,271.561,192.65,269.682,190.5Z" transform="translate(-204.903 -147.104)" fill="#fff"/>
        <path id="Trazado_884829" data-name="Trazado 884829" d="M66.935,37.016H55.358a2.723,2.723,0,0,0-2.723,2.723v5.144H51.165a2.074,2.074,0,0,1-2.074-2.074V38.116a3.362,3.362,0,0,0-3.362-3.362h-.235v-3.57H58.371a1.762,1.762,0,0,0,1.762-1.762v-2.06A1.762,1.762,0,0,0,58.371,25.6h-.936a2.174,2.174,0,0,0-2.227-1.946,1.626,1.626,0,0,0-1.559,1.633V25.6H42.83V23.912h1.481a.644.644,0,0,0,.644-.644V13.187a2.438,2.438,0,0,0-2.236-2.414,30.022,30.022,0,0,1-8.3-1.947.646.646,0,0,0-.75.183.667.667,0,0,0-.14.322,4.108,4.108,0,0,0,.777,3.427l-.378.151a.644.644,0,0,0-.327.9,5.605,5.605,0,0,0,1.558,1.837v7.616a.644.644,0,0,0,.644.644h1.073V25.6H26.059v-.314A1.625,1.625,0,0,0,24.5,23.655,2.174,2.174,0,0,0,22.273,25.6h-.935a1.762,1.762,0,0,0-1.762,1.762v2.06a1.762,1.762,0,0,0,1.762,1.762H34.214V49.426a.655.655,0,0,0,.51.647.645.645,0,0,0,.778-.631V46.377l2.608,1.535a3.432,3.432,0,0,0,1.1.413v19.6H32.8V67.49a.979.979,0,0,1,.538-.874l1.815-.918a.643.643,0,0,0,.353-.574V52.486h1.22a.655.655,0,0,0,.648-.51.645.645,0,0,0-.631-.778H33.43a3.362,3.362,0,0,0-3.361,3.361V58.07a2.074,2.074,0,0,1-2.073,2.074H26.507V54.8a2.722,2.722,0,0,0-2.723-2.722H12.208A2.723,2.723,0,0,0,9.485,54.8V66.376A2.723,2.723,0,0,0,12.208,69.1H23.784a2.723,2.723,0,0,0,2.723-2.723V61.432h1.488a3.362,3.362,0,0,0,3.362-3.362V54.56a2.073,2.073,0,0,1,2.073-2.073h.784v12.24l-1.462.739a2.268,2.268,0,0,0-1.244,2.024v1.08a.644.644,0,0,0,.644.644H47.557a.644.644,0,0,0,.644-.644V67.49a2.268,2.268,0,0,0-1.245-2.025l-1.462-.739V37.678a.655.655,0,0,0-.51-.647.645.645,0,0,0-.778.63v3.587H35.5V30.541a.644.644,0,0,0-.644-.644H21.337a.474.474,0,0,1-.474-.474V27.363a.473.473,0,0,1,.473-.473h1.568a.644.644,0,0,0,.644-.644v-.421a.883.883,0,0,1,.876-.881.341.341,0,0,1,.346.339v.964a.644.644,0,0,0,.644.644H37.523a.644.644,0,0,0,.644-.644v-.739l3.426,1.263a1.923,1.923,0,0,0,.666.119H54.294a.644.644,0,0,0,.644-.644v-.964a.341.341,0,0,1,.345-.339.883.883,0,0,1,.876.881v.421a.644.644,0,0,0,.644.644h1.568a.473.473,0,0,1,.473.473v2.06a.473.473,0,0,1-.473.473H44.851a.644.644,0,0,0-.644.644v4.214h-1.77a.655.655,0,0,0-.648.51.645.645,0,0,0,.631.778h3.31A2.074,2.074,0,0,1,47.8,38.115v4.694a3.362,3.362,0,0,0,3.362,3.362h1.471v5.144a2.723,2.723,0,0,0,2.723,2.723H66.935a2.723,2.723,0,0,0,2.723-2.723V39.739a2.723,2.723,0,0,0-2.723-2.723ZM25.219,66.376a1.436,1.436,0,0,1-1.435,1.434H12.208a1.436,1.436,0,0,1-1.435-1.434V54.8a1.436,1.436,0,0,1,1.435-1.434H23.784A1.436,1.436,0,0,1,25.219,54.8Zm21.157.24a.975.975,0,0,1,.538.874v.436H40.5v-19.6a3.433,3.433,0,0,0,1.1-.413l2.608-1.535V65.123a.644.644,0,0,0,.353.575Zm-2.169-24.08v2.347L40.945,46.8a2.154,2.154,0,0,1-2.183,0L35.5,44.883V42.535Zm-8.1-27.8a3.6,3.6,0,0,1-.979-.924l.64-.256a.644.644,0,0,0,.042-1.177,2.3,2.3,0,0,1-1.066-2.051,31.335,31.335,0,0,0,7.869,1.726,1.143,1.143,0,0,1,1.05,1.129v9.437H36.449V15.307A.653.653,0,0,0,36.111,14.74Zm2.056,9.171h3.375v1.423l-3.375-1.193Zm30.2,27.4a1.436,1.436,0,0,1-1.435,1.435H55.358a1.436,1.436,0,0,1-1.435-1.435V39.739A1.436,1.436,0,0,1,55.358,38.3H66.935a1.436,1.436,0,0,1,1.435,1.435Z" fill="#464965"/>
      </g>
    </g>
  </g>
</svg>
