<svg xmlns="http://www.w3.org/2000/svg" xmlns:xlink="http://www.w3.org/1999/xlink" width="176.75" height="37.129" viewBox="0 0 176.75 37.129">
  <defs>
    <clipPath id="clip-path">
      <rect id="Rectángulo_403459" data-name="Rectángulo 403459" width="176.75" height="37.129" transform="translate(0 0)" fill="none"/>
    </clipPath>
  </defs>
  <g id="Grupo_1103088" data-name="Grupo 1103088" transform="translate(0 0)">
    <g id="Grupo_1103087" data-name="Grupo 1103087" clip-path="url(#clip-path)">
      <path id="Trazado_882565" data-name="Trazado 882565" d="M169.813,37.129H6.938a6.938,6.938,0,0,1,0-13.875H169.813a6.938,6.938,0,0,1,0,13.875" fill="#3e8ff2"/>
      <path id="Trazado_882566" data-name="Trazado 882566" d="M169.31,20.174c-.72,1.59-2.44,1.99-4.02,2.2a34.851,34.851,0,0,0-5.45,1.1,3.975,3.975,0,0,1-2.55-.04,8.971,8.971,0,0,0-2.59-.13c-2.411.119-4.8-.087-7.214.115-2.5.21-4.951.75-7.441,1.01a66.945,66.945,0,0,1-8.869.138,16.155,16.155,0,0,1-3.97-.444,15.653,15.653,0,0,0-2.485-.7,7.933,7.933,0,0,0-2.038.121L112.264,25.06c-3.205.468-6.362,1.15-9.524,1.824-5.02,1.07-10.26,2.06-15.44,1.8a28.205,28.205,0,0,1-5.31-.76c-3.29-.82-6.31-2.11-9.59-2.83-.5-.1-.99-.19-1.5-.27-.09-.02-.2.01-.26-.06-1.19-1.05-5.59-.5-7.28-.43A58.789,58.789,0,0,0,54.3,25.4c-2.22.44-4.43,1.01-6.69,1.27a14.282,14.282,0,0,1-5.68-.07,4.178,4.178,0,0,1-1.78-.9,4.256,4.256,0,0,1-1.02-2.79,9.164,9.164,0,0,0-.42-3.04,1.694,1.694,0,0,0-1.21-.81,8.585,8.585,0,0,0-6.77,1.35,2.419,2.419,0,0,1-1.4.54.316.316,0,0,1-.17-.06.287.287,0,0,1-.04-.27c.44-2.57,1.57-5.02.71-7.64-.48-1.48-1.6-2.81-1.6-4.43-.01-.23.04-.52.27-.58a.568.568,0,0,1,.37.09,43.1,43.1,0,0,1,3.75,2.23c.66.44,1.31.89,1.96,1.38a1.254,1.254,0,0,0,.35.21,1.067,1.067,0,0,0,.47.05c.49,0,.99,0,1.49-.01a2.04,2.04,0,0,0,.82-.11c.68-.29.9-1.34,1.1-1.96.43-1.34.69-2.73,1.08-4.09.62-2.14,1.74-4.35,3.77-5.27,1.61-.73,3.48-.5,5.23-.26,3.25.44,6.49.89,9.74,1.33a45.482,45.482,0,0,1,8.16,1.39c.83.28,3.8,1.6,2.97,2.77a13,13,0,0,1-1.22,1.45,9.679,9.679,0,0,0,4.37-1.32c1.32-.68,2.59-1.51,3.89-2.16,4.6-2.29,9.63-2.51,14.57-1.75a48.915,48.915,0,0,1,6.68,1.51c5.37,1.58,10.49,4.38,16,5.43,5.8,1.1,11.71-.59,17.52.43a37.735,37.735,0,0,1,6.69,2.06c2.72,1.02,5.43,2.04,8.15,3.06l4.08,1.53c1.71.64,3.54,1.72,5.36,2.01,1.42.23,2.84.42,4.25.66a6.818,6.818,0,0,0,4.29-1.07,9.394,9.394,0,0,1,4.11-1.52.871.871,0,0,1,.67.18.961.961,0,0,1,.25.57,5.562,5.562,0,0,1-.11,3.38" fill="#e8b894"/>
      <path id="Trazado_882567" data-name="Trazado 882567" d="M94.55,17.024a6.345,6.345,0,0,1,.51,1.81c-.56.22-1.56.69-1.64.75a15.475,15.475,0,0,0-3.75,3.78,16.847,16.847,0,0,0-2.37,5.32,28.205,28.205,0,0,1-5.31-.76c-3.29-.82-6.31-2.11-9.59-2.83-.06-6.42.07-12.84.51-19.24,1.32-.68,2.59-1.51,3.89-2.16,4.6-2.29,9.63-2.51,14.57-1.75a21.847,21.847,0,0,0,.65,6.4,10.929,10.929,0,0,0,1.72,3.55,8.733,8.733,0,0,0,1.84,1.7,4.564,4.564,0,0,1-.87,2.2,1.373,1.373,0,0,0-.33.6,1.3,1.3,0,0,0,.17.63" fill="#c3c3d9"/>
      <path id="Trazado_882568" data-name="Trazado 882568" d="M48.937,3.774a1.677,1.677,0,0,1,.626-.574,1.522,1.522,0,0,1,.98.063l6.5,1.907A38.273,38.273,0,0,0,66.557,7.1a12.885,12.885,0,0,0,9.051-2.892,35.215,35.215,0,0,1-.279,21.451.329.329,0,0,1-.479.177c-1.533-.881-8.6-1.607-9.318-1.576a53.99,53.99,0,0,0-9.8.863c-1.249.261-3.445,1-4.665.677a34.036,34.036,0,0,0-4.08-1.166,11.7,11.7,0,0,0-4.806-.159,9.842,9.842,0,0,0-1.969.614.655.655,0,0,1-.719.026.727.727,0,0,1-.184-.444l-.258-1.552q-.125-.741-.248-1.483a.542.542,0,0,1,0-.283.528.528,0,0,1,.123-.167C40.476,19.584,42.122,18,42.084,15.6a6.564,6.564,0,0,0-2.114-4.629c-.3-.271-1.12-.582-1.256-.941a1.268,1.268,0,0,1-.028-.613c.095-.749.112-2.589.7-3.1a.374.374,0,0,1,.153-.088c.147-.035.284.071.416.144A6.622,6.622,0,0,0,42.6,6.71a8.15,8.15,0,0,0,6.332-2.936" fill="#e7e7e9"/>
      <path id="Trazado_882569" data-name="Trazado 882569" d="M94.455,15.9a87.309,87.309,0,0,0,15.433.777c5.175-.1,10.359-.392,15.557-.348,10.416.079,20.687,1.85,30.894,3.614l-.034.01a4.091,4.091,0,0,1,2.308-1.132c.866-.118,1.733.017,2.6-.025-.863.055-1.736-.066-2.591.064a4.029,4.029,0,0,0-2.262,1.149l-.013.014-.019,0c-10.232-1.612-20.523-3.224-30.882-3.147-5.173.032-10.344.4-15.534.576A88.205,88.205,0,0,1,94.3,16.888Z" fill="#d19b71"/>
      <path id="Trazado_882570" data-name="Trazado 882570" d="M93.15,24.424a6.914,6.914,0,0,0,1.67-3.6,6.507,6.507,0,0,0-.569-3.858,1.19,1.19,0,0,1-.109-.63,1.27,1.27,0,0,1,.28-.556,4.131,4.131,0,0,0,.53-.817,4.98,4.98,0,0,0,.469-1.894,14.174,14.174,0,0,0-.371-4.015A10.875,10.875,0,0,1,95.8,13.1a4.775,4.775,0,0,1-.44,2.062,4.62,4.62,0,0,1-.56.908.551.551,0,0,0-.093.706A6.654,6.654,0,0,1,95.2,20.89a6.182,6.182,0,0,1-2.047,3.534" fill="#d19b71"/>
      <path id="Trazado_882571" data-name="Trazado 882571" d="M34,14.687c0,4.246-4.477,7.687-10,7.687s-10-3.441-10-7.687S18.477,7,24,7s10,3.441,10,7.687" fill="#613e3a"/>
      <path id="Trazado_882572" data-name="Trazado 882572" d="M46.693,1.817a96.183,96.183,0,0,0,9.946,3.034c1.677.429,3.376.782,5.077,1.086a18.379,18.379,0,0,0,5.162.274,14.828,14.828,0,0,1-5.219.107c-1.733-.229-3.439-.588-5.139-.982-1.689-.435-3.367-.916-5.009-1.5a45.575,45.575,0,0,1-4.818-2.017" fill="#d19b71"/>
      <path id="Trazado_882573" data-name="Trazado 882573" d="M160.267,18.836a14.94,14.94,0,0,0-1.883.258,3.764,3.764,0,0,0-1.658.791,1.76,1.76,0,0,0-.721,1.568,2.835,2.835,0,0,0,.757,1.677,2.6,2.6,0,0,1-.948-1.656,1.936,1.936,0,0,1,.751-1.78,3.775,3.775,0,0,1,1.78-.788,8.786,8.786,0,0,1,1.922-.07" fill="#d19b71"/>
      <path id="Trazado_882574" data-name="Trazado 882574" d="M38.116,23.783a2.551,2.551,0,0,1-.053,1.462c-.393.915-1.669.878-2.511.934-2.108.142-4.222.06-6.332.115a92.267,92.267,0,0,1-11.187-.45c-2.836-.275-5.694-.452-8.507-.749a26.856,26.856,0,0,1-3.573-.287.981.981,0,0,1-.632-.361,1.027,1.027,0,0,1-.1-.589,12.909,12.909,0,0,1,.432-2.931,3.4,3.4,0,0,1,.529-1.221,3.055,3.055,0,0,1,1.43-.939,14.853,14.853,0,0,1,5.422-.755c1.811.072,3.649-.1,5.48,0a47.18,47.18,0,0,1,6.2.8c3.578.673,7.017.663,10.451,2.091a5.776,5.776,0,0,1,2.361,1.515,3.415,3.415,0,0,1,.593,1.374" fill="#ffdee1"/>
      <path id="Trazado_882575" data-name="Trazado 882575" d="M41.336,25.677a21.921,21.921,0,0,1-1.479-2.906c-.528-1.261-.731-2.475-1.693-3.509a7.957,7.957,0,0,0-3.049-1.954,32.166,32.166,0,0,0-5.6-1.214,36.535,36.535,0,0,1-7.192-2.088c.235,2.076,1.772,3.758,3.386,5.085a22.3,22.3,0,0,0,5.174,3.329,14,14,0,0,1,4.447,2.611c.9.84,1.481,1.965,2.363,2.787a8.727,8.727,0,0,0,6.585,2.174,4.473,4.473,0,0,0,2.1-.586,12.807,12.807,0,0,1-2.851-1.361,6.165,6.165,0,0,1-1.121-.879,6.8,6.8,0,0,1-.843-1.122c-.077-.121-.153-.244-.228-.367" fill="#613e3a"/>
      <path id="Trazado_882576" data-name="Trazado 882576" d="M24.5,14.356h-.011l-.5-.022a.25.25,0,0,1-.238-.261.243.243,0,0,1,.261-.238l.5.022a.25.25,0,0,1-.012.5" fill="#19b34b"/>
      <path id="Trazado_882577" data-name="Trazado 882577" d="M78.895,16.829h-.011l-1.008-.046a.249.249,0,0,1-.238-.26.239.239,0,0,1,.261-.239l1.007.046a.25.25,0,0,1-.011.5m-2.015-.092h-.011l-1.007-.045a.25.25,0,0,1,.011-.5h.011l1.007.045a.25.25,0,0,1-.011.5m-2.014-.091h-.012L73.847,16.6a.249.249,0,0,1-.238-.26.243.243,0,0,1,.26-.239l1.008.046a.25.25,0,0,1-.011.5m-2.015-.092H72.84l-1.008-.045a.25.25,0,0,1-.238-.261.247.247,0,0,1,.261-.239l1.007.046a.25.25,0,0,1-.011.5m-2.015-.091h-.011l-1.007-.046a.25.25,0,0,1-.239-.261.238.238,0,0,1,.261-.238l1.007.046a.25.25,0,0,1-.011.5m-2.014-.092H68.81L67.8,16.324a.25.25,0,0,1,.022-.5l1.008.046a.25.25,0,0,1-.011.5m-2.015-.092H66.8l-1.008-.045a.25.25,0,0,1,.012-.5h.011l1.007.045a.25.25,0,0,1-.011.5m-2.015-.091h-.011l-1.007-.046a.25.25,0,0,1-.239-.26.246.246,0,0,1,.261-.239l1.007.046a.25.25,0,0,1-.011.5M62.778,16.1h-.012l-1.007-.046a.248.248,0,0,1-.238-.26.236.236,0,0,1,.261-.238l1.007.045a.25.25,0,0,1-.011.5M60.763,16h-.011l-1.008-.046a.25.25,0,0,1,.012-.5h.011l1.007.046a.25.25,0,0,1-.011.5m-2.015-.091h-.011l-1.007-.046a.25.25,0,0,1-.239-.26.243.243,0,0,1,.261-.239l1.008.046a.25.25,0,0,1-.012.5m-2.014-.092h-.012l-1.007-.045a.249.249,0,0,1-.238-.261.242.242,0,0,1,.261-.238l1.007.045a.25.25,0,0,1-.011.5m-2.015-.091h-.011L53.7,15.683a.25.25,0,0,1,.023-.5l1.007.046a.25.25,0,0,1-.011.5M52.7,15.638h-.011l-1.007-.045a.25.25,0,0,1,.022-.5l1.008.046a.25.25,0,0,1-.012.5m-2.014-.092h-.012L49.671,15.5a.25.25,0,0,1-.238-.261A.23.23,0,0,1,49.694,15l1.007.046a.25.25,0,0,1-.011.5m-2.015-.091h-.011l-1.007-.046a.249.249,0,0,1-.239-.26.243.243,0,0,1,.261-.239l1.007.046a.25.25,0,0,1-.011.5m-2.015-.092h-.011l-1.007-.045a.249.249,0,0,1-.238-.261.245.245,0,0,1,.26-.238l1.008.045a.25.25,0,0,1-.012.5m-2.014-.092h-.011l-1.008-.046a.25.25,0,0,1-.238-.261.227.227,0,0,1,.261-.238l1.007.046a.25.25,0,0,1-.011.5m-2.015-.091H42.62l-1.007-.046a.249.249,0,0,1-.239-.26.24.24,0,0,1,.261-.239l1.007.046a.25.25,0,0,1-.011.5m-2.015-.092H40.6L39.6,15.042a.249.249,0,0,1-.238-.261.241.241,0,0,1,.26-.238l1.008.046a.25.25,0,0,1-.012.5M38.6,15h-.011l-1.008-.046a.249.249,0,0,1-.238-.26.245.245,0,0,1,.261-.239l1.007.046a.25.25,0,0,1-.011.5M36.587,14.9h-.011l-1.007-.045a.25.25,0,0,1-.239-.261.235.235,0,0,1,.261-.238L36.6,14.4a.25.25,0,0,1-.011.5m-2.014-.092h-.012l-1.007-.046a.25.25,0,0,1,.011-.5h.011l1.008.046a.25.25,0,0,1-.011.5m-2.015-.091h-.011l-1.008-.045a.25.25,0,0,1-.238-.261.242.242,0,0,1,.261-.239l1.007.046a.25.25,0,0,1-.011.5m-2.015-.092h-.011l-1.007-.046a.25.25,0,0,1-.239-.261.243.243,0,0,1,.261-.238l1.007.046a.25.25,0,0,1-.011.5m-2.014-.092h-.012l-1.007-.046a.25.25,0,0,1,.011-.5h.011l1.008.046a.25.25,0,0,1-.011.5m-2.015-.091H26.5L25.5,14.4a.25.25,0,0,1,.023-.5l1.007.046a.25.25,0,0,1-.011.5" fill="#19b34b"/>
      <path id="Trazado_882578" data-name="Trazado 882578" d="M80.4,16.9h-.011l-.5-.022a.25.25,0,0,1-.238-.261.225.225,0,0,1,.261-.238l.5.022a.25.25,0,0,1-.011.5" fill="#19b34b"/>
      <path id="Trazado_882579" data-name="Trazado 882579" d="M23.338,14.006a1.014,1.014,0,1,1-1.014-1.014,1.014,1.014,0,0,1,1.014,1.014" fill="#19b34b"/>
      <path id="Trazado_882580" data-name="Trazado 882580" d="M82.913,16.715A1.014,1.014,0,1,1,81.9,15.7a1.014,1.014,0,0,1,1.014,1.014" fill="#19b34b"/>
    </g>
  </g>
</svg>
