<svg id="Grupo_1103163" data-name="Grupo 1103163" xmlns="http://www.w3.org/2000/svg" xmlns:xlink="http://www.w3.org/1999/xlink" width="64.688" height="50.478" viewBox="0 0 64.688 50.478">
  <defs>
    <clipPath id="clip-path">
      <rect id="Rectángulo_403528" data-name="Rectángulo 403528" width="64.688" height="50.478" fill="none"/>
    </clipPath>
  </defs>
  <g id="Grupo_1103162" data-name="Grupo 1103162" clip-path="url(#clip-path)">
    <path id="Trazado_882885" data-name="Trazado 882885" d="M26.147,66.1c-.023,0-.046,0-.069,0a.765.765,0,0,1-.694-.69l-2.052-21.97L21.424,54.144a.764.764,0,0,1-.752.63c-10.664,0-10.855,0-11.568.013-.577.009-1.5.023-8.338.044h0a.764.764,0,0,1,0-1.528c6.824-.021,7.743-.035,8.319-.044.725-.011.908-.014,10.951-.014L22.817,37.62a.738.738,0,0,1,.784-.629.765.765,0,0,1,.729.692l2.191,23.449,2.173-7.817a.764.764,0,0,1,.736-.559h6.186a.764.764,0,1,1,0,1.528h-5.6L26.882,65.538a.764.764,0,0,1-.735.56" transform="translate(0 -29.04)" fill="#2f3542"/>
    <path id="Trazado_882886" data-name="Trazado 882886" d="M47.778,50.478a2.171,2.171,0,0,1-1.547-.641l-20.8-20.8a.764.764,0,1,1,1.08-1.081l20.8,20.8a.672.672,0,0,0,.93,0c4.69-4.689,8.621-8.562,11.916-11.807C74.807,22.522,76.69,20.669,76.69,14.546A13.135,13.135,0,0,0,54.246,5.4l-5.928,5.928a.764.764,0,0,1-1.081,0l-5.59-5.589a14.061,14.061,0,0,0-9.868-4.1,13.075,13.075,0,0,0-13.018,13.1,13.277,13.277,0,0,0,1.362,5.85.764.764,0,0,1-1.371.677,14.828,14.828,0,0,1-1.519-6.527A14.605,14.605,0,0,1,31.78.105a15.6,15.6,0,0,1,10.948,4.55L47.778,9.7l5.388-5.387a14.662,14.662,0,0,1,25.052,10.23c0,6.762-1.934,8.666-16.987,23.493-3.293,3.243-7.222,7.113-11.907,11.8a2.169,2.169,0,0,1-1.546.641" transform="translate(-13.53)" fill="#2f3542"/>
    <path id="Trazado_882887" data-name="Trazado 882887" d="M239.451,32.478a.783.783,0,0,1-.115-.008.764.764,0,0,1-.641-.87,8.737,8.737,0,0,0-2.009-7.1,8.841,8.841,0,0,0-6.727-3.056.764.764,0,0,1,0-1.528A10.3,10.3,0,0,1,240.2,31.828a.764.764,0,0,1-.754.65" transform="translate(-179.939 -15.635)" fill="#2f3542"/>
    <path id="Trazado_882888" data-name="Trazado 882888" d="M260.279,90.9a.764.764,0,0,1-.54-1.3,9.93,9.93,0,0,0,1.723-2.314.764.764,0,1,1,1.345.723,11.4,11.4,0,0,1-1.988,2.671.761.761,0,0,1-.54.224" transform="translate(-203.743 -68.207)" fill="#2f3542"/>
  </g>
</svg>
