<svg xmlns="http://www.w3.org/2000/svg" xmlns:xlink="http://www.w3.org/1999/xlink" width="81.43" height="69.014" viewBox="0 0 81.43 69.014">
  <defs>
    <clipPath id="clip-path">
      <rect id="Rectángulo_403424" data-name="Rectángulo 403424" width="81.43" height="69.014" fill="#ffb27e"/>
    </clipPath>
  </defs>
  <g id="Grupo_1103020" data-name="Grupo 1103020" transform="translate(0 0)">
    <g id="Grupo_1103019" data-name="Grupo 1103019" transform="translate(0 0)" clip-path="url(#clip-path)">
      <path id="Trazado_882298" data-name="Trazado 882298" d="M81.306,19.64A22.177,22.177,0,0,0,71.24,3.344a22.422,22.422,0,0,0-27.89,3.483L40.713,9.465,38.079,6.827a22.439,22.439,0,0,0-27.89-3.486A22.193,22.193,0,0,0,.124,19.64,21.952,21.952,0,0,0,6.457,37.517L36.012,67.074a6.661,6.661,0,0,0,9.406,0L74.972,37.517A21.952,21.952,0,0,0,81.306,19.64" transform="translate(0 -0.001)" fill="#d7f38d"/>
      <path id="Trazado_882299" data-name="Trazado 882299" d="M22.021,33.968a2.22,2.22,0,0,1-1.984-1.227l-5.3-10.6h-7.5a2.218,2.218,0,0,1,0-4.435h8.871a2.215,2.215,0,0,1,1.984,1.227l3.637,7.277L28.816,7.317a2.287,2.287,0,0,1,2.117-1.44A2.219,2.219,0,0,1,33,7.394l4.778,14.338,3.377-3.377A2.208,2.208,0,0,1,42.72,17.7H54.547a2.218,2.218,0,0,1,0,4.435H43.639L38.373,27.4a2.218,2.218,0,0,1-3.672-.866l-3.933-11.8L24.1,32.528a2.218,2.218,0,0,1-1.96,1.437Z" transform="translate(9.822 11.5)" fill="#3e8ff2"/>
      <path id="Trazado_882300" data-name="Trazado 882300" d="M40.716,69.017a6.636,6.636,0,0,1-4.7-1.946L6.457,37.517A21.952,21.952,0,0,1,.124,19.64a22.183,22.183,0,0,1,10.068-16.3A22.434,22.434,0,0,1,38.079,6.827l2.638,2.638,2.635-2.638A22.422,22.422,0,0,1,71.24,3.344a22.047,22.047,0,0,1,3.735,34.173L45.421,67.071a6.636,6.636,0,0,1-4.7,1.946M21.724,4.4a16.625,16.625,0,0,0-9.113,2.658A17.752,17.752,0,0,0,4.538,20.1,17.533,17.533,0,0,0,9.595,34.383L39.149,63.934a2.217,2.217,0,0,0,3.134,0L71.838,34.383A17.533,17.533,0,0,0,76.894,20.1,17.757,17.757,0,0,0,68.822,7.058,17.973,17.973,0,0,0,46.488,9.965l-4.2,4.2a2.215,2.215,0,0,1-3.134,0l-4.2-4.2A18.787,18.787,0,0,0,21.724,4.4" transform="translate(0 -0.001)" fill="#3e8ff2"/>
    </g>
  </g>
</svg>
