<svg xmlns="http://www.w3.org/2000/svg" xmlns:xlink="http://www.w3.org/1999/xlink" width="46.878" height="49.753" viewBox="0 0 46.878 49.753">
  <defs>
    <clipPath id="clip-path">
      <rect id="Rectángulo_403531" data-name="Rectángulo 403531" width="46.878" height="49.753" fill="#12263f"/>
    </clipPath>
  </defs>
  <g id="Grupo_1103169" data-name="Grupo 1103169" transform="translate(0 0)">
    <g id="Grupo_1103168" data-name="Grupo 1103168" transform="translate(0 0)" clip-path="url(#clip-path)">
      <path id="Trazado_882903" data-name="Trazado 882903" d="M13.62,31.416a.775.775,0,0,1-.228-.035l-2.755-.854a4.715,4.715,0,0,0-2.54.066l-.915.287a.77.77,0,0,1-.461-1.47l.916-.287a6.308,6.308,0,0,1,3.422-.077l2.789.864a.77.77,0,0,1-.228,1.506" transform="translate(-2.042 -9.53)" fill="#12263f"/>
      <path id="Trazado_882904" data-name="Trazado 882904" d="M21.23,44.593a5.611,5.611,0,0,1-.958-.082,2.392,2.392,0,0,1-1.6-1.042,2.513,2.513,0,0,1-.362-1.943c.063-.278.133-.558.208-.864a44.215,44.215,0,0,0,1.057-5.75.77.77,0,1,1,1.527.2,45.923,45.923,0,0,1-1.089,5.925c-.072.293-.14.564-.2.831a.963.963,0,0,0,.139.748.863.863,0,0,0,.577.38,4.129,4.129,0,0,0,1.551-.028.77.77,0,1,1,.31,1.509,5.837,5.837,0,0,1-1.165.119" transform="translate(-6.031 -11.312)" fill="#12263f"/>
      <path id="Trazado_882905" data-name="Trazado 882905" d="M10.5,35.88a3.147,3.147,0,0,1-1-.168,3.993,3.993,0,0,1-1.452-.88.77.77,0,0,1,1.088-1.09,1.75,1.75,0,0,0,2.6.007.77.77,0,0,1,1.087,1.091A3.269,3.269,0,0,1,10.5,35.88" transform="translate(-2.583 -11.074)" fill="#12263f"/>
      <path id="Trazado_882906" data-name="Trazado 882906" d="M27.657,31.416a.77.77,0,0,1-.228-1.506l2.755-.854a6.306,6.306,0,0,1,3.456.068l.916.287a.77.77,0,1,1-.461,1.47l-.915-.287a4.718,4.718,0,0,0-2.573-.057l-2.721.845a.775.775,0,0,1-.228.035" transform="translate(-8.883 -9.531)" fill="#12263f"/>
      <path id="Trazado_882907" data-name="Trazado 882907" d="M16.74,55.666a.77.77,0,0,1-.254-1.5,11.429,11.429,0,0,1,3.85-.57h.232a11.424,11.424,0,0,1,3.85.57.77.77,0,0,1-.508,1.454,9.926,9.926,0,0,0-3.342-.483h-.232a9.928,9.928,0,0,0-3.342.483.78.78,0,0,1-.254.043" transform="translate(-5.276 -17.708)" fill="#12263f"/>
      <path id="Trazado_882908" data-name="Trazado 882908" d="M32.25,35.88a3.272,3.272,0,0,1-2.323-1.041.77.77,0,0,1,1.088-1.091,1.609,1.609,0,0,0,1.747.5,2.532,2.532,0,0,0,.85-.506A.77.77,0,0,1,34.7,34.832a3.993,3.993,0,0,1-1.452.88,3.141,3.141,0,0,1-1,.168" transform="translate(-9.813 -11.074)" fill="#12263f"/>
      <path id="Trazado_882909" data-name="Trazado 882909" d="M46.153,49.753A12,12,0,0,1,39.2,27.96V6.949a6.949,6.949,0,0,1,13.9,0V27.96a12,12,0,0,1-6.949,21.793m0-48.212a5.414,5.414,0,0,0-5.408,5.408V28.366a.772.772,0,0,1-.346.643,10.466,10.466,0,1,0,11.508,0,.772.772,0,0,1-.346-.643V6.949a5.414,5.414,0,0,0-5.408-5.408" transform="translate(-11.281 0)" fill="#12263f"/>
      <path id="Trazado_882910" data-name="Trazado 882910" d="M48.649,49.934A6.945,6.945,0,0,1,46.3,36.453V18.211a2.352,2.352,0,0,1,4.7,0V36.453a6.945,6.945,0,0,1-2.352,13.481m0-32.535a.812.812,0,0,0-.812.812V37.02a.769.769,0,0,1-.573.744,5.408,5.408,0,1,0,2.77,0,.769.769,0,0,1-.573-.744V18.211a.812.812,0,0,0-.812-.812" transform="translate(-13.777 -5.239)" fill="#12263f"/>
      <path id="Trazado_882911" data-name="Trazado 882911" d="M60.118,39.447H58.486a.77.77,0,1,1,0-1.541h1.633a.77.77,0,0,1,0,1.541" transform="translate(-19.068 -12.523)" fill="#12263f"/>
      <path id="Trazado_882912" data-name="Trazado 882912" d="M60.118,34.862H58.486a.77.77,0,1,1,0-1.541h1.633a.77.77,0,0,1,0,1.541" transform="translate(-19.068 -11.009)" fill="#12263f"/>
      <path id="Trazado_882913" data-name="Trazado 882913" d="M60.118,30.276H58.486a.77.77,0,1,1,0-1.541h1.633a.77.77,0,0,1,0,1.541" transform="translate(-19.068 -9.493)" fill="#12263f"/>
      <path id="Trazado_882914" data-name="Trazado 882914" d="M60.118,25.69H58.486a.77.77,0,1,1,0-1.541h1.633a.77.77,0,0,1,0,1.541" transform="translate(-19.068 -7.978)" fill="#12263f"/>
      <path id="Trazado_882915" data-name="Trazado 882915" d="M60.118,21.1H58.486a.77.77,0,1,1,0-1.541h1.633a.77.77,0,0,1,0,1.541" transform="translate(-19.068 -6.463)" fill="#12263f"/>
      <path id="Trazado_882916" data-name="Trazado 882916" d="M60.118,16.519H58.486a.77.77,0,1,1,0-1.541h1.633a.77.77,0,0,1,0,1.541" transform="translate(-19.068 -4.948)" fill="#12263f"/>
      <path id="Trazado_882917" data-name="Trazado 882917" d="M60.118,11.934H58.486a.77.77,0,1,1,0-1.541h1.633a.77.77,0,0,1,0,1.541" transform="translate(-19.068 -3.434)" fill="#12263f"/>
      <path id="Trazado_882918" data-name="Trazado 882918" d="M50.72,57.774a2.751,2.751,0,1,1,2.75-2.75,2.753,2.753,0,0,1-2.75,2.75m0-3.961a1.21,1.21,0,1,0,1.21,1.211,1.212,1.212,0,0,0-1.21-1.211" transform="translate(-15.848 -17.27)" fill="#12263f"/>
      <path id="Trazado_882919" data-name="Trazado 882919" d="M15.465,55.051C11.2,55.051,5.607,50.815,4,43.972c-.379-1.616-.793-3.149-1.194-4.632C1.588,34.825.534,30.924.98,26.759c.026-.248.06-.511.1-.785A.77.77,0,1,1,2.6,26.2q-.056.38-.093.722c-.416,3.878.6,7.65,1.784,12.016.4,1.5.822,3.041,1.207,4.682,1.387,5.916,6.272,9.889,9.963,9.889A8.929,8.929,0,0,0,21.093,51a.77.77,0,0,1,1.025,1.151,10.469,10.469,0,0,1-6.653,2.9" transform="translate(-0.289 -8.364)" fill="#12263f"/>
      <path id="Trazado_882920" data-name="Trazado 882920" d="M30.979,11.74a.77.77,0,0,1-.62-.313,11.408,11.408,0,0,0-9.665-4.764A13.544,13.544,0,0,0,17.646,7,.77.77,0,0,1,17.3,5.5a15.061,15.061,0,0,1,3.4-.373,12.876,12.876,0,0,1,10.9,5.389.771.771,0,0,1-.619,1.228" transform="translate(-5.518 -1.692)" fill="#12263f"/>
      <path id="Trazado_882921" data-name="Trazado 882921" d="M5.625,17.225A5.632,5.632,0,0,1,0,11.6C0,6.128,4.928,2.033,5.138,1.862a.767.767,0,0,1,.975,0c.21.171,5.139,4.266,5.139,9.738a5.633,5.633,0,0,1-5.626,5.626m0-13.728c-1.179,1.132-4.086,4.31-4.086,8.1a4.086,4.086,0,0,0,8.172,0c0-3.792-2.907-6.97-4.086-8.1" transform="translate(0 -0.557)" fill="#12263f"/>
      <path id="Trazado_882922" data-name="Trazado 882922" d="M9.016,18.4a.77.77,0,0,1-.387-1.437,1.7,1.7,0,0,0,.85-1.47.77.77,0,0,1,1.54,0A3.253,3.253,0,0,1,9.4,18.3a.774.774,0,0,1-.386.1" transform="translate(-2.724 -4.864)" fill="#12263f"/>
    </g>
  </g>
</svg>
