<svg xmlns="http://www.w3.org/2000/svg" xmlns:xlink="http://www.w3.org/1999/xlink" width="610" height="307" viewBox="0 0 610 307">
  <defs>
    <linearGradient id="linear-gradient" x1="0.102" y1="0.826" x2="0.464" y2="0.371" gradientUnits="objectBoundingBox">
      <stop offset="0.006" stop-color="#4891e5"/>
      <stop offset="0.999" stop-color="#246bd1"/>
    </linearGradient>
    <linearGradient id="linear-gradient-2" x1="0.019" y1="0.732" x2="0.538" y2="0.343" gradientUnits="objectBoundingBox">
      <stop offset="0.006" stop-color="#4891e5"/>
      <stop offset="0.999" stop-color="#1651a6"/>
    </linearGradient>
    <linearGradient id="linear-gradient-3" x1="0.557" y1="0.154" x2="0.42" y2="0.887" gradientUnits="objectBoundingBox">
      <stop offset="0" stop-color="#f55182"/>
      <stop offset="1" stop-color="#db1550"/>
    </linearGradient>
    <linearGradient id="linear-gradient-4" x1="0.416" y1="0.078" x2="0.643" y2="1.019" gradientUnits="objectBoundingBox">
      <stop offset="0.003" stop-color="#f44f7f"/>
      <stop offset="1" stop-color="#bc0a3f"/>
    </linearGradient>
    <linearGradient id="linear-gradient-5" x1="0.341" y1="-0.165" x2="1.078" y2="2.049" gradientUnits="objectBoundingBox">
      <stop offset="0" stop-color="#d83d71"/>
      <stop offset="0.996" stop-color="#a83651"/>
    </linearGradient>
    <linearGradient id="linear-gradient-6" x1="0.348" y1="0.034" x2="0.801" y2="0.865" xlink:href="#linear-gradient-5"/>
    <linearGradient id="linear-gradient-7" x1="0.291" y1="0.435" x2="3.332" y2="2.51" xlink:href="#linear-gradient-5"/>
    <linearGradient id="linear-gradient-8" x1="0.396" y1="0.06" x2="0.976" y2="1.602" xlink:href="#linear-gradient-5"/>
    <linearGradient id="linear-gradient-9" x1="-0.08" y1="-1.315" x2="1.2" y2="2.705" xlink:href="#linear-gradient-5"/>
    <linearGradient id="linear-gradient-10" x1="0.761" y1="0.235" x2="0.558" y2="0.523" gradientUnits="objectBoundingBox">
      <stop offset="0" stop-color="#cb4737"/>
      <stop offset="0.993" stop-color="#9c2f30"/>
    </linearGradient>
    <linearGradient id="linear-gradient-11" x1="0.591" y1="0.119" x2="0.46" y2="0.716" gradientUnits="objectBoundingBox">
      <stop offset="0" stop-color="#f06654"/>
      <stop offset="0.994" stop-color="#b33636"/>
    </linearGradient>
    <linearGradient id="linear-gradient-12" x1="0.12" y1="0.313" x2="0.883" y2="0.786" gradientUnits="objectBoundingBox">
      <stop offset="0.006" stop-color="#4891e5"/>
      <stop offset="0.498" stop-color="#256cd2"/>
      <stop offset="0.996" stop-color="#4891e5"/>
    </linearGradient>
    <linearGradient id="linear-gradient-13" x1="0.22" y1="0.183" x2="0.669" y2="0.68" xlink:href="#linear-gradient-2"/>
    <linearGradient id="linear-gradient-14" x1="0.637" y1="0.828" x2="0.505" y2="0.437" gradientUnits="objectBoundingBox">
      <stop offset="0.002" stop-color="#4265ce"/>
      <stop offset="0.999" stop-color="#1651a6"/>
    </linearGradient>
    <linearGradient id="linear-gradient-15" x1="0.956" y1="0.207" x2="0.068" y2="1.023" xlink:href="#linear-gradient-2"/>
    <linearGradient id="linear-gradient-16" x1="0.596" y1="-0.309" x2="0.534" y2="0.301" gradientUnits="objectBoundingBox">
      <stop offset="0.006" stop-color="#f7a8b9"/>
      <stop offset="0.991" stop-color="#ea7c8a"/>
    </linearGradient>
    <linearGradient id="linear-gradient-17" x1="1.084" y1="-0.151" x2="0.229" y2="0.627" gradientUnits="objectBoundingBox">
      <stop offset="0.006" stop-color="#f7a8b9"/>
      <stop offset="0.991" stop-color="#ea5c6e"/>
    </linearGradient>
    <linearGradient id="linear-gradient-18" x1="0.561" y1="0.309" x2="0.341" y2="1.084" xlink:href="#linear-gradient-16"/>
    <linearGradient id="linear-gradient-19" x1="0.52" y1="0.469" x2="0.346" y2="1.248" xlink:href="#linear-gradient-16"/>
    <linearGradient id="linear-gradient-20" x1="0.117" y1="0.224" x2="0.497" y2="0.539" gradientUnits="objectBoundingBox">
      <stop offset="0" stop-color="#f06654"/>
      <stop offset="0.993" stop-color="#c13a3a"/>
    </linearGradient>
    <linearGradient id="linear-gradient-21" x1="0.277" y1="0.337" x2="0.501" y2="0.543" xlink:href="#linear-gradient-10"/>
    <linearGradient id="linear-gradient-22" y1="0.5" x2="1" y2="0.5" gradientUnits="objectBoundingBox">
      <stop offset="0.006" stop-color="#a5cce5"/>
      <stop offset="0.999" stop-color="#79aad1"/>
    </linearGradient>
    <linearGradient id="linear-gradient-24" x1="0.053" y1="0.031" x2="0.574" y2="0.572" gradientUnits="objectBoundingBox">
      <stop offset="0.006" stop-color="#f7d2dd"/>
      <stop offset="0.991" stop-color="#eaa4b3"/>
    </linearGradient>
    <linearGradient id="linear-gradient-25" x1="0.92" y1="0.102" x2="0.204" y2="0.846" xlink:href="#linear-gradient-24"/>
    <linearGradient id="linear-gradient-26" x1="0.47" y1="0.295" x2="0.498" y2="0.503" xlink:href="#linear-gradient-24"/>
  </defs>
  <g id="Grupo_1103894" data-name="Grupo 1103894" transform="translate(-180 -1653)">
    <rect id="Rectángulo_403536" data-name="Rectángulo 403536" width="609" height="307" rx="8" transform="translate(181 1653)" fill="#eefad1"/>
    <path id="Sustracción_15" data-name="Sustracción 15" d="M3.092,89.108c-1.031,0-2.071-.035-3.092-.1V65.847a22.19,22.19,0,0,0,3.092.216,21.579,21.579,0,0,0,15.309-6.3,21.412,21.412,0,0,0,0-30.418,21.578,21.578,0,0,0-15.309-6.3A22.189,22.189,0,0,0,0,23.262V.1C1.029.034,2.069,0,3.092,0A44.825,44.825,0,0,1,20.548,3.5,44.714,44.714,0,0,1,34.8,13.05a44.392,44.392,0,0,1,9.61,14.162,44.44,44.44,0,0,1,0,34.686A44.392,44.392,0,0,1,34.8,76.059a44.712,44.712,0,0,1-14.254,9.548A44.825,44.825,0,0,1,3.092,89.108Z" transform="translate(180 1677)" fill="#3e8ff2"/>
    <path id="Trazado_884831" data-name="Trazado 884831" d="M9.18-10.148H5.523V0H4.031V-10.148H.383v-1.227h8.8ZM14.977,0a3.036,3.036,0,0,1-.2-.891A3.225,3.225,0,0,1,12.367.156a2.984,2.984,0,0,1-2.051-.707,2.287,2.287,0,0,1-.8-1.793,2.39,2.39,0,0,1,1-2.051,4.733,4.733,0,0,1,2.824-.73H14.75v-.664A1.623,1.623,0,0,0,14.3-7a1.821,1.821,0,0,0-1.336-.449,2.107,2.107,0,0,0-1.3.391,1.151,1.151,0,0,0-.523.945H9.688a2,2,0,0,1,.449-1.223,3.066,3.066,0,0,1,1.219-.934,4.1,4.1,0,0,1,1.691-.344,3.342,3.342,0,0,1,2.289.73A2.635,2.635,0,0,1,16.2-5.867v3.891a4.757,4.757,0,0,0,.3,1.852V0Zm-2.4-1.1a2.54,2.54,0,0,0,1.289-.352,2.127,2.127,0,0,0,.883-.914V-4.1H13.617q-2.656,0-2.656,1.555a1.316,1.316,0,0,0,.453,1.063A1.742,1.742,0,0,0,12.578-1.1Zm5.531-3.2a4.961,4.961,0,0,1,.914-3.152,2.962,2.962,0,0,1,2.453-1.16A2.96,2.96,0,0,1,23.844-7.6l.063-.852h1.328V3.25H23.789V-.781a3.033,3.033,0,0,1-2.328.938A2.915,2.915,0,0,1,19.02-1.035a5.072,5.072,0,0,1-.91-3.16Zm1.445.164a3.761,3.761,0,0,0,.613,2.281,1.951,1.951,0,0,0,1.652.828,2.164,2.164,0,0,0,1.969-1.141V-6.3a2.171,2.171,0,0,0-1.953-1.117,1.965,1.965,0,0,0-1.664.832A4.094,4.094,0,0,0,19.555-4.133Zm13.219,3.3A3.07,3.07,0,0,1,30.3.156a2.628,2.628,0,0,1-2.059-.785,3.4,3.4,0,0,1-.715-2.324v-5.5h1.445v5.461q0,1.922,1.563,1.922a2.163,2.163,0,0,0,2.2-1.234V-8.453H34.18V0H32.8ZM37.945,0H36.5V-8.453h1.445ZM36.383-10.7a.863.863,0,0,1,.215-.594.807.807,0,0,1,.637-.242.819.819,0,0,1,.641.242.854.854,0,0,1,.219.594.826.826,0,0,1-.219.586.834.834,0,0,1-.641.234.821.821,0,0,1-.637-.234A.834.834,0,0,1,36.383-10.7Zm7.266,9.672A2.082,2.082,0,0,0,45-1.492a1.649,1.649,0,0,0,.641-1.172h1.367a2.621,2.621,0,0,1-.5,1.383,3.293,3.293,0,0,1-1.23,1.047,3.55,3.55,0,0,1-1.629.391A3.482,3.482,0,0,1,40.9-1a4.59,4.59,0,0,1-1.02-3.152v-.242a5.089,5.089,0,0,1,.453-2.2,3.451,3.451,0,0,1,1.3-1.492,3.7,3.7,0,0,1,2-.531A3.39,3.39,0,0,1,46-7.758a3.043,3.043,0,0,1,1,2.211H45.641a1.992,1.992,0,0,0-.621-1.348,1.932,1.932,0,0,0-1.379-.527,2.023,2.023,0,0,0-1.707.793,3.724,3.724,0,0,0-.605,2.293v.273a3.65,3.65,0,0,0,.6,2.25A2.033,2.033,0,0,0,43.648-1.023ZM53.852,0a3.036,3.036,0,0,1-.2-.891A3.225,3.225,0,0,1,51.242.156a2.984,2.984,0,0,1-2.051-.707,2.287,2.287,0,0,1-.8-1.793,2.39,2.39,0,0,1,1-2.051,4.733,4.733,0,0,1,2.824-.73h1.406v-.664A1.623,1.623,0,0,0,53.172-7a1.821,1.821,0,0,0-1.336-.449,2.107,2.107,0,0,0-1.3.391,1.151,1.151,0,0,0-.523.945H48.563a2,2,0,0,1,.449-1.223,3.066,3.066,0,0,1,1.219-.934,4.1,4.1,0,0,1,1.691-.344,3.342,3.342,0,0,1,2.289.73,2.635,2.635,0,0,1,.859,2.012v3.891a4.757,4.757,0,0,0,.3,1.852V0Zm-2.4-1.1a2.54,2.54,0,0,0,1.289-.352,2.127,2.127,0,0,0,.883-.914V-4.1H52.492q-2.656,0-2.656,1.555a1.316,1.316,0,0,0,.453,1.063A1.742,1.742,0,0,0,51.453-1.1Zm9.969-6.055a4.331,4.331,0,0,0-.711-.055A1.9,1.9,0,0,0,58.781-6V0H57.336V-8.453h1.406l.023.977a2.251,2.251,0,0,1,2.016-1.133,1.477,1.477,0,0,1,.641.109ZM62.4-4.3a4.952,4.952,0,0,1,.922-3.129,2.915,2.915,0,0,1,2.414-1.184,2.932,2.932,0,0,1,2.352,1.016V-12h1.445V0H68.2l-.07-.906A2.943,2.943,0,0,1,65.719.156a2.887,2.887,0,0,1-2.395-1.2A5.008,5.008,0,0,1,62.4-4.187Zm1.445.164a3.749,3.749,0,0,0,.594,2.25,1.92,1.92,0,0,0,1.641.813A2.109,2.109,0,0,0,68.086-2.3V-6.187a2.125,2.125,0,0,0-1.992-1.2,1.929,1.929,0,0,0-1.656.82A4.128,4.128,0,0,0,63.844-4.133ZM73.344,0H71.9V-8.453h1.445ZM71.781-10.7A.863.863,0,0,1,72-11.289a.807.807,0,0,1,.637-.242.819.819,0,0,1,.641.242.854.854,0,0,1,.219.594.826.826,0,0,1-.219.586.834.834,0,0,1-.641.234A.821.821,0,0,1,72-10.109.834.834,0,0,1,71.781-10.7ZM80.875,0a3.036,3.036,0,0,1-.2-.891A3.225,3.225,0,0,1,78.266.156a2.984,2.984,0,0,1-2.051-.707,2.288,2.288,0,0,1-.8-1.793,2.39,2.39,0,0,1,1-2.051,4.733,4.733,0,0,1,2.824-.73h1.406v-.664A1.623,1.623,0,0,0,80.2-7a1.821,1.821,0,0,0-1.336-.449,2.108,2.108,0,0,0-1.3.391,1.151,1.151,0,0,0-.523.945H75.586a2,2,0,0,1,.449-1.223,3.066,3.066,0,0,1,1.219-.934,4.1,4.1,0,0,1,1.691-.344,3.342,3.342,0,0,1,2.289.73,2.635,2.635,0,0,1,.859,2.012v3.891a4.757,4.757,0,0,0,.3,1.852V0Zm-2.4-1.1a2.54,2.54,0,0,0,1.289-.352,2.127,2.127,0,0,0,.883-.914V-4.1H79.516q-2.656,0-2.656,1.555a1.316,1.316,0,0,0,.453,1.063A1.742,1.742,0,0,0,78.477-1.1Z" transform="translate(495 1824.467)" fill="#12263f"/>
    <g id="Grupo_11" data-name="Grupo 11" transform="translate(-179.158 1339.911)">
      <g id="Grupo_3" data-name="Grupo 3" transform="translate(506.965 356.736)">
        <path id="Trazado_1" data-name="Trazado 1" d="M589.317,1152.032s4.44,8.342,4.844,23.546-5.92,25.564-6.593,27.448.171,6.189,6.611,9.956,13.571,3.633,15.454,2.422,10.629-21.662,12.647-33.1,2.64-21.943,1.32-23.815C616.9,1148.99,598.735,1143.018,589.317,1152.032Z" transform="translate(-569.905 -984.091)" fill="url(#linear-gradient)"/>
        <path id="Trazado_2" data-name="Trazado 2" d="M630.594,1158.491c-6.7-9.5-24.865-15.473-34.284-6.458,0,0,3.926,7.38,4.73,20.9,5.676,5.053,12.939,12.318,13.1,16.531.175,4.54-5.482,17.084-9.408,25.2,5.309,1.991,10.354,1.722,11.894.732,1.884-1.211,10.629-21.662,12.647-33.1S631.914,1160.363,630.594,1158.491Z" transform="translate(-576.898 -984.091)" fill="url(#linear-gradient-2)"/>
        <path id="Trazado_3" data-name="Trazado 3" d="M572.3,691.22c-13.848,0-36.77,8.937-46.473,22.471s-11.692,22.155-12.23,32.016-2.581,37.694,22.188,61.7,60.773,30.9,74.562,29.365,36.52-42.578,36.515-70.476c0-20.685-8.682-40.09-16.853-51.325s-41.749-20.879-41.749-20.879S585.071,691.22,572.3,691.22Z" transform="translate(-511.942 -626.881)" fill="url(#linear-gradient-3)"/>
        <path id="Trazado_4" data-name="Trazado 4" d="M630.012,757.3c-3.2-4.405-10.313-8.565-17.774-12,15.4,19.027,22.51,53.062,13.545,78.97-10.779,31.151-63.831,38.993-85.2,13.087-17.036-20.657-22.559-46.2-23.3-66.568a49.428,49.428,0,0,0-3.682,17.247c-.538,9.861-2.581,37.694,22.188,61.7s60.773,30.9,74.562,29.365,36.52-42.578,36.515-70.476C646.861,787.944,638.184,768.539,630.012,757.3Z" transform="translate(-511.942 -669.218)" fill="url(#linear-gradient-4)"/>
        <g id="Grupo_1" data-name="Grupo 1" transform="translate(5.588 57.179)">
          <path id="Trazado_5" data-name="Trazado 5" d="M889.911,708.374c2.054.982,4.214,1.754,6.181,2.9a36.894,36.894,0,0,1,7.38,6.27,22.591,22.591,0,0,1,3.541,4.23c2.1,3.561,2.093,7.926,2.321,12.056a35.369,35.369,0,0,0,2.25,11.654,49.171,49.171,0,0,1-1.267-15.1c.206-2.882.811-6.015,3.034-7.862.49-.407,1.093-.817,1.159-1.45a2.066,2.066,0,0,0-.575-1.373c-3.69-4.88-7.684-9.521-11.675-14.159-3.86-4.485-7.829-9.061-12.982-11.97-3.156-1.781-14.193-3.83-13.536,2.77.273,2.743,3.574,4.976,5.553,6.522A47.3,47.3,0,0,0,889.911,708.374Z" transform="translate(-801.184 -684.521)" fill="url(#linear-gradient-5)"/>
          <path id="Trazado_6" data-name="Trazado 6" d="M712.515,668.708c8.7,2.308,17.822,4.855,24.2,11.2a44.294,44.294,0,0,1,4.864,6.025A156.507,156.507,0,0,1,758.3,716.49c2.528,6.163,4.659,12.48,6.725,18.812,3.6,11.034,7.032,22.25,7.866,33.826.774,10.745-.711,21.511-2.237,32.176a116.1,116.1,0,0,0,1.529-51.493c-.981-4.965-2.285-9.859-3.59-14.749l-3.821-14.326c-2.264-8.491-4.567-17.078-8.808-24.774-2.039-3.7-4.511-7.165-6.288-11s-2.834-8.195-1.823-12.3c1.21-4.91,5.112-8.625,8.835-12.047a45.712,45.712,0,0,0-42.707,7.45c-1.269,1.02-2.562,2.252-2.784,3.865Z" transform="translate(-672.416 -658.268)" fill="url(#linear-gradient-6)"/>
          <path id="Trazado_7" data-name="Trazado 7" d="M779.191,756.5c1.942-4.768,4.954-9.015,8.046-13.132,2.224-2.962,4.6-6.136,4.782-9.835a2.406,2.406,0,0,0-.1-.973,2.779,2.779,0,0,0-.82-1.012l-4.044-3.625c-2.253-2.019-4.567-4.078-7.375-5.206a29.974,29.974,0,0,1,4.948,7.669,12.886,12.886,0,0,1,1.34,5.421c-.046,2.441-1.172,4.718-2.329,6.867-2.678,4.977-5.926,9.175-6.778,14.763-.648,4.249-.81,8.981.786,13.153C776.3,766.093,777.468,760.725,779.191,756.5Z" transform="translate(-723.442 -708.712)" fill="url(#linear-gradient-7)"/>
          <path id="Trazado_8" data-name="Trazado 8" d="M570.7,706.634c-6.892,2.45-12.4,7.652-17.621,12.771-2.339,2.291-4.67,4.6-6.808,7.075a62.437,62.437,0,0,0-13.586,27.007c1.986-4.876,5.111-9.189,8.205-13.449-1.591,3.22-2.9,4.922-4.257,9.27a51.663,51.663,0,0,0-1.414,8.3,49.687,49.687,0,0,0-.249,5.832c.188,1.567.436,3.131.688,4.686.809,5,1.785,10.284,5.132,14.09a31.966,31.966,0,0,1-4.622-18.486,50.927,50.927,0,0,1,4.77-18.636,27.25,27.25,0,0,1,2.217-4.151c3.14-4.638,8.4-7.439,11.872-11.831q-1.177,6.873-1.892,13.815c.02,1.138.028,2.277.036,3.415a101.883,101.883,0,0,0,.519,11.041q.173.858.349,1.715c.35,1.7.7,3.407,1.028,5.115.412,1.45.868,2.888,1.379,4.3.448,1.24.937,2.468,1.479,3.671.05.035.1.069.152.1a52.652,52.652,0,0,1-1.29-5.551,70.956,70.956,0,0,1-.9-16.063q.109-2.087.323-4.169a46.252,46.252,0,0,1,.567-6.74c1.239-7.506,4.784-14.478,9.22-20.659,4.166-5.8,9.361-11.164,15.984-13.845A26.062,26.062,0,0,0,570.7,706.634Z" transform="translate(-532.684 -694.953)" fill="url(#linear-gradient-8)"/>
          <path id="Trazado_9" data-name="Trazado 9" d="M918.384,843.1c3.58,2.723,7.542,5.1,10.253,8.692,3.369,4.459,4.386,10.209,5.3,15.721a34.527,34.527,0,0,0-5.621-12.5,18.923,18.923,0,0,0-11.291-7.385,3.491,3.491,0,0,1-1.272-.388,3.141,3.141,0,0,1-.935-1.146c-.706-1.221-4.665-6.753-2.643-8.1C913.042,837.418,917.238,842.229,918.384,843.1Z" transform="translate(-829.281 -798.907)" fill="url(#linear-gradient-9)"/>
        </g>
        <path id="Trazado_10" data-name="Trazado 10" d="M858.242,651.982a104.791,104.791,0,0,1,20.736,11.155c9.187,6.693,11.155,10.368,16.142,14.83s8.531,3.937,9.712,3.937,6.825-5.381,4.331-17.324-13.386-24.8-15.617-25.46-11.024-4.068-20.211,1.181S862.967,649.488,858.242,651.982Z" transform="translate(-781.921 -584.774)" fill="url(#linear-gradient-10)"/>
        <path id="Trazado_11" data-name="Trazado 11" d="M975.4,642.332c-3.785,2.86.775,9.381,4.652,14.875s18.037,20.093,18.384,14.449-1.972-11.163-7.53-20.465C985.937,642.873,979.036,639.586,975.4,642.332Z" transform="translate(-872.515 -587.872)" fill="url(#linear-gradient-11)"/>
        <path id="Trazado_12" data-name="Trazado 12" d="M687.016,421.129c-3.1-1.89-6.356-1.714-7.476-.257-3.254,4.236-4.544,9.682-12.448,14.621s-24.9,9.286-39.517,6.718-27.267-11.525-31.866-16.387-8.189-11.518-13.682-19.98c-1.345-2.071-5.634-2.613-11.416,1.592s-5.7,7.585-4.524,9.784A111.857,111.857,0,0,1,576.6,443.329c2.976,11.215,1.233,13.5,1.233,13.5s6.186,14.792,29.891,14.778c15.526-.01,38.548-4.4,56.648-14.989a71.162,71.162,0,0,0,26.525-28.478C691.433,426.773,691.74,424.012,687.016,421.129Zm-79.673,29.722c-8.123-2.665-14.077-11.083-14.077-11.083l4.819-5.028c12.151,14.037,32.2,13.816,32.2,13.816S619.767,454.927,607.343,450.851Z" transform="translate(-552.744 -402.276)" fill="url(#linear-gradient-12)"/>
        <g id="Grupo_2" data-name="Grupo 2" transform="translate(13.542 11.776)">
          <path id="Trazado_13" data-name="Trazado 13" d="M582.823,495.284l17.072-16.1a36.171,36.171,0,0,1-3.623-4.177l4.7-4.9a28.968,28.968,0,0,1-8.551-3.363c-5.972-3.828-12.5-17.449-12.5-17.449a28.269,28.269,0,0,1-4.666,2.425,15.486,15.486,0,0,1-5.956,1.114A111.27,111.27,0,0,1,579.6,478.572c2.976,11.215,1.233,13.5,1.233,13.5A16.37,16.37,0,0,0,582.823,495.284Z" transform="translate(-569.292 -449.295)" fill="url(#linear-gradient-13)"/>
        </g>
        <path id="Trazado_14" data-name="Trazado 14" d="M756.672,558.05l-8.122,3.322a45.294,45.294,0,0,0,14.572,6.172l8.9-4.781q-.568-.085-1.132-.183A58.947,58.947,0,0,1,756.672,558.05Z" transform="translate(-696.061 -522.645)" fill="url(#linear-gradient-14)"/>
        <path id="Trazado_15" data-name="Trazado 15" d="M784.036,511.064s-11.07,18.108-42.381,28.885c-26.059,8.97-44.121,5.11-44.121,5.11L692.5,552.9a43.642,43.642,0,0,0,14.666,2.3c15.526-.01,38.548-4.4,56.648-14.989,16.112-9.426,24.407-24.254,26.168-27.738A13.991,13.991,0,0,1,784.036,511.064Z" transform="translate(-652.19 -485.867)" fill="url(#linear-gradient-15)"/>
        <path id="Trazado_16" data-name="Trazado 16" d="M699.945,516.2a67.8,67.8,0,0,1-20.806,2.023,16.576,16.576,0,0,0-9.462-2.529c-5.238.259-12.882,3.021-18.989,8.13a76.461,76.461,0,0,0-11.9,13.028l-14.177-5.447s2.968-8.993,13.616-19.382,30.218-13.686,41.359-9.966C688.564,505.057,696.108,512.1,699.945,516.2Z" transform="translate(-599.047 -477.66)" fill="url(#linear-gradient-16)"/>
        <path id="Trazado_17" data-name="Trazado 17" d="M641.751,549.99a32.492,32.492,0,0,0-9.863,1.256c-5.552,7.1-7.281,12.337-7.281,12.337l14.177,5.447A76.461,76.461,0,0,1,650.688,556c6.107-5.109,13.75-7.871,18.989-8.13a16.576,16.576,0,0,1,9.462,2.529,62.676,62.676,0,0,0,10.736-.231c-2.432-2.226-7.594-5.718-17.468-7.87C657.019,538.947,648.931,550.487,641.751,549.99Z" transform="translate(-599.047 -509.838)" fill="url(#linear-gradient-17)"/>
        <path id="Trazado_18" data-name="Trazado 18" d="M733.066,426.619a25.407,25.407,0,0,0-.675-6.739c-.845-3.14-2.892-12.206-4.211-16.47-.419-1.353.522-3.454,4.141-4.638,4.126-1.35,6.56-.34,7.118,1.309a176.11,176.11,0,0,0,6.133,16.549c1.345,2.934,3.734,6.984,3.734,6.984S736.723,427.319,733.066,426.619Z" transform="translate(-680.045 -397.482)" fill="url(#linear-gradient-18)"/>
        <path id="Trazado_19" data-name="Trazado 19" d="M802.064,419.98s5.482-8.025,9.326-14.528c2.88-4.873,4.51-7.426,5.223-8.618,1.159-1.939,4.662-2.6,8.457-.188,4.111,2.613,4.528,4.794,3.12,7.239-1.419,2.464-3.619,6.387-5.849,10.714a34.532,34.532,0,0,0-2.858,6.961s-2.466,2.747-8.478,1.7S802.064,419.98,802.064,419.98Z" transform="translate(-737.949 -395.093)" fill="url(#linear-gradient-19)"/>
        <path id="Trazado_20" data-name="Trazado 20" d="M508.623,675.664s-4.066-14.334.535-38.259c2.3-11.964,8.553-23.464,15.9-28.613,8.526-5.979,17.8-7.868,22.043-6.754,12.673,3.324,11.915,13.078,9.707,18.476-1.47,3.595-7.388,11.514-14.15,16.686-5.14,3.931-10.989,6.938-14.655,9.677C521.055,652.067,509.731,665.422,508.623,675.664Z" transform="translate(-506.965 -556.838)" fill="url(#linear-gradient-20)"/>
        <path id="Trazado_21" data-name="Trazado 21" d="M1099.594,483c-.592.864.348,2.455,2.822,4.295,1.221.908,4.151,2.065,4.662,1.231.438-.715.082-2.437-2.576-4.482C1102.827,482.76,1100.126,482.228,1099.594,483Z" transform="translate(-970.701 -463.621)" fill="#275893"/>
        <path id="Trazado_22" data-name="Trazado 22" d="M880.6,402.028c-.342.891,1.121,2.415,3.254,3.592s4.5,1.965,4.875,1.253c.349-.672.1-2.169-3.072-4.063C883.432,401.484,880.918,401.19,880.6,402.028Z" transform="translate(-799.379 -400.153)" fill="#aa5063"/>
        <path id="Trazado_23" data-name="Trazado 23" d="M573.866,421.3c.758,1.137,5.186-.125,8.054-2.306,3.032-2.306,5.148-5.148,4.548-6-.669-.95-4.471-.194-8.022,2.369C576.45,416.8,573.2,420.3,573.866,421.3Z" transform="translate(-559.261 -408.794)" fill="#275893"/>
        <path id="Trazado_24" data-name="Trazado 24" d="M556.8,620.518c2.208-5.4,2.966-15.152-9.707-18.476a14.257,14.257,0,0,0-5.112-.151,40.912,40.912,0,0,1-9.459,24.286c-8.664,10.464-18.3,12.272-24.3,16.7-3.054,20.623.4,32.789.4,32.789,1.107-10.241,12.431-23.6,19.375-28.786,3.666-2.74,9.515-5.747,14.655-9.678C549.417,632.032,555.334,624.113,556.8,620.518Z" transform="translate(-506.966 -556.842)" fill="url(#linear-gradient-21)"/>
        <path id="Trazado_25" data-name="Trazado 25" d="M652.78,449.087a18.635,18.635,0,0,0,3.514,3.618,50.792,50.792,0,0,1-6.925-10.141c-.473-.913-.915-1.84-1.393-2.75-.343-.654-.822-2.026-1.443-2.446-1.076-.73-.352,1.444-.106,1.976A50.953,50.953,0,0,0,652.78,449.087Z" transform="translate(-615.761 -428.067)" fill="url(#linear-gradient-22)"/>
        <path id="Trazado_26" data-name="Trazado 26" d="M1045.968,499.935a9.79,9.79,0,0,1,1.787-2.539,5,5,0,0,1-1.192,3.319,40.453,40.453,0,0,1-4.167,5.273c-1.319,1.381-3.2,3.39-5.051,3.969.336-.783,1.366-1.27,2-1.8a24.72,24.72,0,0,0,2.543-2.472A33.432,33.432,0,0,0,1045.968,499.935Z" transform="translate(-922.11 -475.169)" fill="url(#linear-gradient-22)"/>
        <path id="Trazado_27" data-name="Trazado 27" d="M782.249,430.343c-1.341-5.295-2.555-11.051-4.741-16.066-.471.737.524,2.855.756,3.673q.6,2.123,1.256,4.231C780.362,424.9,781.552,427.593,782.249,430.343Z" transform="translate(-718.63 -410.109)" fill="url(#linear-gradient-24)"/>
        <path id="Trazado_28" data-name="Trazado 28" d="M833.341,429.03l6.738-11.017a28.777,28.777,0,0,1-2.1,4.389,31.775,31.775,0,0,1-5.354,7.771Z" transform="translate(-761.866 -413.033)" fill="url(#linear-gradient-25)"/>
        <path id="Trazado_29" data-name="Trazado 29" d="M700.157,523.824c4.364-3.559,9.879-5.359,15.332-6.766.7-.182,1.561-.319,2.067.2a48.216,48.216,0,0,0-14.087,4.7,15.124,15.124,0,0,0-4.841,3.542Z" transform="translate(-656.987 -490.432)" fill="url(#linear-gradient-26)"/>
      </g>
      <g id="Grupo_4" data-name="Grupo 4" transform="translate(658.022 346.089)">
        <path id="Trazado_30" data-name="Trazado 30" d="M1492.126,384.283a.7.7,0,0,1-.446-.165c-.3-.248-.637-.53-1.315-7.737-.387-4.112-.779-9.319-1.157-14.355-.285-3.787-.591-7.862-.858-10.817-.161,1.98-.328,4.4-.484,6.671-.26,3.78-.53,7.689-.824,10.732-.161,1.66-.312,2.888-.462,3.754-.191,1.1-.394,1.946-1.1,1.946-1.062,0-1.688-1.746-2.968-6.032-.2-.663-.422-1.413-.617-2.007l-.071.276c-.417,1.637-.936,3.675-2.257,4.249l-.164.072c-.953.42-1.939.855-5.182.855v-1.24c2.982,0,3.846-.381,4.682-.749l.17-.074c.763-.332,1.255-2.264,1.549-3.418.33-1.3.529-2.078,1.244-2.078.69,0,.889.6,1.834,3.762a40.29,40.29,0,0,0,1.587,4.652c.484-2.357.99-9.707,1.339-14.783.2-2.929.392-5.695.575-7.746.313-3.525.454-3.852,1.032-3.952a.652.652,0,0,1,.51.129c.446.347.593.99,1.7,15.707.521,6.929,1.2,15.934,1.749,19.665.341-1.874.713-5,1.031-7.681,1.2-10.122,1.64-12.046,2.759-12.11h.058c.979,0,1.295,1.455,1.912,4.3.578,2.662,1.545,7.119,2.984,7.119.814,0,1.477-2.481,1.915-4.122.62-2.32,1.109-4.153,2.424-4.153,1.264,0,1.824,1.454,2.366,2.859.481,1.248,1.026,2.662,1.894,2.662.8,0,1.513,0,2.155,0,1.136,0,2.032.007,2.9,0l.016,1.24c-.875.011-1.776.008-2.917,0-.641,0-1.349,0-2.151,0-1.72,0-2.458-1.917-3.052-3.457-.336-.871-.8-2.065-1.208-2.065-.4.143-.937,2.153-1.225,3.232-.662,2.479-1.347,5.043-3.114,5.043-2.44,0-3.373-4.3-4.2-8.1-.215-.992-.468-2.157-.694-2.848a95.176,95.176,0,0,0-1.591,10.541c-1.054,8.873-1.328,10.114-2.256,10.214A.659.659,0,0,1,1492.126,384.283Z" transform="translate(-1474.221 -346.089)" fill="#54071d"/>
        <path id="Trazado_31" data-name="Trazado 31" d="M1677.959,384.283a.7.7,0,0,1-.447-.165c-.3-.248-.637-.53-1.315-7.737-.387-4.112-.779-9.32-1.157-14.356-.284-3.787-.591-7.861-.858-10.816-.161,1.98-.328,4.4-.484,6.672-.26,3.78-.53,7.688-.824,10.731-.161,1.66-.312,2.888-.462,3.754-.191,1.1-.394,1.946-1.1,1.946-1.062,0-1.688-1.746-2.967-6.031-.2-.663-.422-1.414-.617-2.008-.025.095-.048.188-.07.276-.417,1.637-.936,3.675-2.257,4.249l-.164.072c-.953.42-1.939.855-5.183.855v-1.24c2.983,0,3.847-.381,4.682-.749l.169-.074c.763-.332,1.255-2.264,1.549-3.418.33-1.3.529-2.078,1.244-2.078.69,0,.89.6,1.834,3.762a40.242,40.242,0,0,0,1.587,4.651c.484-2.357.99-9.706,1.339-14.782.2-2.929.392-5.695.575-7.746.313-3.525.454-3.852,1.032-3.953a.652.652,0,0,1,.51.129c.446.347.593.989,1.7,15.706.521,6.929,1.2,15.934,1.749,19.666.341-1.874.713-5,1.031-7.681,1.2-10.122,1.64-12.046,2.759-12.11h.058c.979,0,1.295,1.455,1.912,4.3.578,2.662,1.545,7.119,2.985,7.119.814,0,1.477-2.481,1.915-4.122.62-2.32,1.109-4.153,2.424-4.153,1.264,0,1.824,1.454,2.365,2.859.481,1.248,1.026,2.662,1.894,2.662.8,0,1.513,0,2.155,0,1.136,0,2.032.007,2.9,0l.016,1.24c-.875.011-1.777.008-2.917,0-.641,0-1.348,0-2.151,0-1.72,0-2.458-1.917-3.052-3.457-.336-.871-.8-2.065-1.208-2.065-.4.143-.937,2.153-1.225,3.233-.662,2.479-1.347,5.042-3.114,5.042-2.44,0-3.373-4.3-4.2-8.1-.215-.992-.468-2.157-.694-2.848a95.343,95.343,0,0,0-1.591,10.541c-1.054,8.873-1.328,10.114-2.256,10.214A.66.66,0,0,1,1677.959,384.283Z" transform="translate(-1619.678 -346.089)" fill="#54071d"/>
        <path id="Trazado_32" data-name="Trazado 32" d="M1863.793,384.283a.7.7,0,0,1-.447-.165c-.3-.248-.637-.53-1.315-7.737-.387-4.112-.779-9.319-1.157-14.355-.285-3.787-.591-7.862-.858-10.817-.161,1.98-.327,4.4-.484,6.671-.26,3.78-.53,7.689-.824,10.732-.161,1.66-.312,2.888-.462,3.754-.192,1.1-.394,1.946-1.1,1.946-1.062,0-1.688-1.746-2.968-6.032-.2-.663-.422-1.413-.617-2.007l-.071.276c-.417,1.637-.936,3.675-2.257,4.249l-.164.072c-.953.42-1.939.855-5.183.855v-1.24c2.983,0,3.847-.381,4.682-.749l.17-.074c.763-.332,1.255-2.264,1.549-3.418.33-1.3.529-2.078,1.244-2.078.69,0,.889.6,1.834,3.762a40.314,40.314,0,0,0,1.587,4.652c.484-2.357.99-9.707,1.34-14.783.2-2.929.392-5.695.575-7.746.313-3.525.454-3.852,1.032-3.952a.65.65,0,0,1,.51.129c.446.347.594.99,1.7,15.707.521,6.929,1.2,15.934,1.749,19.665.341-1.874.713-5,1.031-7.681,1.2-10.122,1.641-12.046,2.759-12.11h.058c.979,0,1.295,1.455,1.912,4.3.578,2.662,1.545,7.119,2.984,7.119.815,0,1.477-2.481,1.915-4.122.62-2.32,1.109-4.153,2.424-4.153,1.264,0,1.824,1.454,2.366,2.859.481,1.248,1.026,2.662,1.894,2.662.8,0,1.513,0,2.155,0,1.136,0,2.032.007,2.9,0l.016,1.24c-.875.011-1.776.008-2.917,0-.641,0-1.349,0-2.151,0-1.72,0-2.458-1.917-3.052-3.457-.336-.871-.8-2.065-1.208-2.065-.4.143-.937,2.153-1.225,3.232-.662,2.479-1.347,5.043-3.114,5.043-2.44,0-3.373-4.3-4.2-8.1-.215-.992-.468-2.157-.694-2.848a95.235,95.235,0,0,0-1.591,10.541c-1.054,8.873-1.328,10.114-2.256,10.214A.655.655,0,0,1,1863.793,384.283Z" transform="translate(-1765.136 -346.089)" fill="#54071d"/>
      </g>
      <g id="Grupo_5" data-name="Grupo 5" transform="translate(658.022 432.622)">
        <path id="Trazado_33" data-name="Trazado 33" d="M1486.252,1203.7a.566.566,0,0,1-.354-.127c-.262-.214-.489-.4-.971-7.6-.276-4.124-.555-9.374-.825-14.45-.176-3.315-.356-6.683-.519-9.4-.089,1.66-.179,3.5-.264,5.254-.184,3.778-.375,7.686-.582,10.725-.113,1.654-.219,2.876-.325,3.736-.148,1.207-.262,1.89-.864,1.89-.776,0-1.124-.954-2.19-6-.05-.236-.1-.481-.154-.728-.121,1.557-.362,2.736-1.1,3.191l-.115.072a5.938,5.938,0,0,1-3.766.881V1190.1a4.957,4.957,0,0,0,3.214-.723l.12-.075c.516-.317.628-2.538.677-3.486.069-1.355.1-2.036.76-2.036.58,0,.677.369,1.387,3.733.266,1.26.657,3.11,1,4.259.327-2.675.652-9.334.9-14.442.559-11.46.593-11.469,1.17-11.61l.238-.059.209.149c.359.266.434.322,1.249,15.658.329,6.189.746,14.019,1.112,18.31.131-1.839.246-4.206.349-6.3.534-10.926.766-11.971,1.614-12.039s.967,1.024,1.278,4.267a48.611,48.611,0,0,0,.647,4.989c.448,2.121.917,2.145.937,2.145.406-.26.456-2.834.48-4.071.049-2.532.08-4.2,1.186-4.2,1.06,0,1.218,1.422,1.384,2.926.1.907.288,2.6.736,2.6.569,0,1.071,0,1.526,0,.8,0,1.435.006,2.045,0l.019,1.043c-.622.011-1.26.008-2.069,0-.453,0-.953,0-1.521,0-1.383,0-1.59-1.872-1.773-3.524a10.936,10.936,0,0,0-.294-1.793,19.049,19.049,0,0,0-.2,2.976c-.052,2.733-.1,5.094-1.523,5.094-1.715,0-2.169-3.348-2.623-8.077-.058-.605-.122-1.274-.192-1.864-.262,2.255-.462,6.356-.62,9.587-.123,2.51-.239,4.882-.376,6.682-.237,3.1-.434,3.405-.936,3.482A.509.509,0,0,1,1486.252,1203.7Z" transform="translate(-1474.221 -1165.659)" fill="#54071d"/>
        <path id="Trazado_34" data-name="Trazado 34" d="M1597.752,1203.7a.564.564,0,0,1-.354-.127c-.263-.214-.489-.4-.971-7.6-.276-4.124-.555-9.373-.825-14.449-.177-3.316-.355-6.685-.519-9.4-.089,1.66-.179,3.5-.264,5.256-.184,3.778-.375,7.685-.582,10.724-.113,1.654-.219,2.876-.325,3.735-.148,1.207-.261,1.89-.863,1.89-.776,0-1.124-.954-2.19-6l-.154-.727c-.121,1.556-.362,2.735-1.1,3.191l-.115.072a5.938,5.938,0,0,1-3.766.881V1190.1a4.957,4.957,0,0,0,3.214-.723l.12-.075c.516-.317.629-2.538.677-3.486.069-1.355.1-2.036.76-2.036.58,0,.677.369,1.387,3.732.266,1.26.657,3.11,1,4.259.328-2.675.652-9.333.9-14.441.559-11.461.593-11.47,1.171-11.612l.238-.059.209.149c.359.266.433.322,1.249,15.66.329,6.188.746,14.017,1.112,18.308.131-1.839.246-4.205.349-6.3.534-10.926.766-11.971,1.614-12.039.865-.067.967,1.024,1.278,4.268a48.678,48.678,0,0,0,.647,4.988c.448,2.12.917,2.145.937,2.145.406-.26.456-2.834.48-4.071.049-2.532.08-4.2,1.186-4.2,1.06,0,1.218,1.422,1.384,2.926.1.907.288,2.6.736,2.6.569,0,1.071,0,1.526,0,.8,0,1.435.006,2.045,0l.019,1.043c-.622.011-1.26.008-2.069,0-.453,0-.953,0-1.521,0-1.383,0-1.59-1.872-1.773-3.524a10.911,10.911,0,0,0-.294-1.793,19.049,19.049,0,0,0-.2,2.976c-.052,2.733-.1,5.094-1.523,5.094-1.715,0-2.169-3.348-2.623-8.077-.058-.605-.122-1.275-.192-1.865-.261,2.255-.462,6.357-.62,9.587-.123,2.51-.238,4.882-.376,6.682-.237,3.1-.434,3.405-.936,3.482A.509.509,0,0,1,1597.752,1203.7Z" transform="translate(-1561.496 -1165.659)" fill="#54071d"/>
        <path id="Trazado_35" data-name="Trazado 35" d="M1709.252,1203.7a.565.565,0,0,1-.354-.127c-.263-.214-.489-.4-.971-7.6-.276-4.124-.555-9.373-.825-14.449-.177-3.316-.355-6.685-.519-9.4-.089,1.66-.178,3.5-.264,5.256-.184,3.778-.375,7.685-.582,10.724-.113,1.654-.219,2.876-.325,3.735-.148,1.207-.261,1.89-.863,1.89-.776,0-1.124-.954-2.19-6-.049-.236-.1-.481-.154-.728-.121,1.557-.362,2.736-1.1,3.191l-.115.072a5.938,5.938,0,0,1-3.766.881V1190.1a4.958,4.958,0,0,0,3.214-.723l.12-.075c.516-.317.629-2.538.677-3.486.069-1.355.1-2.036.76-2.036.58,0,.677.369,1.387,3.733.266,1.26.657,3.11,1,4.259.328-2.675.652-9.333.9-14.441.559-11.461.593-11.47,1.17-11.612l.238-.059.209.149c.359.266.433.322,1.249,15.66.329,6.188.746,14.017,1.112,18.308.131-1.839.246-4.205.349-6.3.534-10.926.766-11.971,1.614-12.039s.967,1.024,1.278,4.268a48.712,48.712,0,0,0,.647,4.988c.448,2.12.917,2.145.937,2.145.406-.26.456-2.834.48-4.071.049-2.532.081-4.2,1.186-4.2,1.06,0,1.218,1.422,1.384,2.926.1.907.288,2.6.736,2.6.569,0,1.071,0,1.526,0,.8,0,1.435.006,2.045,0l.019,1.043c-.622.011-1.26.008-2.069,0-.453,0-.953,0-1.521,0-1.383,0-1.59-1.872-1.773-3.524a10.923,10.923,0,0,0-.294-1.793,19.049,19.049,0,0,0-.2,2.976c-.052,2.733-.1,5.094-1.523,5.094-1.715,0-2.169-3.348-2.623-8.077-.058-.605-.122-1.275-.192-1.865-.262,2.255-.462,6.357-.62,9.587-.123,2.51-.238,4.882-.376,6.682-.237,3.1-.434,3.405-.936,3.482A.508.508,0,0,1,1709.252,1203.7Z" transform="translate(-1648.77 -1165.659)" fill="#54071d"/>
        <path id="Trazado_36" data-name="Trazado 36" d="M1820.752,1203.7a.565.565,0,0,1-.354-.127c-.262-.214-.489-.4-.971-7.6-.276-4.124-.555-9.373-.825-14.449-.177-3.316-.355-6.685-.519-9.4-.089,1.66-.179,3.5-.264,5.256-.184,3.778-.375,7.685-.583,10.724-.113,1.654-.219,2.876-.325,3.735-.148,1.207-.261,1.89-.864,1.89-.776,0-1.124-.954-2.19-6-.05-.236-.1-.481-.154-.728-.121,1.557-.362,2.736-1.1,3.191l-.115.072a5.938,5.938,0,0,1-3.766.881V1190.1a4.958,4.958,0,0,0,3.214-.723l.12-.075c.516-.317.629-2.538.677-3.486.069-1.355.1-2.036.76-2.036.58,0,.677.369,1.387,3.733.266,1.26.657,3.11,1,4.259.327-2.675.652-9.333.9-14.441.559-11.461.593-11.47,1.171-11.612l.238-.059.209.149c.359.266.433.322,1.249,15.66.329,6.188.746,14.017,1.112,18.308.131-1.839.246-4.205.349-6.3.534-10.926.766-11.971,1.614-12.039s.967,1.024,1.278,4.268a48.711,48.711,0,0,0,.647,4.988c.448,2.12.917,2.145.937,2.145.407-.26.456-2.834.48-4.071.049-2.532.081-4.2,1.186-4.2,1.06,0,1.218,1.422,1.384,2.926.1.907.288,2.6.736,2.6.569,0,1.071,0,1.526,0,.8,0,1.435.006,2.045,0l.019,1.043c-.622.011-1.26.008-2.069,0-.453,0-.953,0-1.521,0-1.383,0-1.59-1.872-1.773-3.524a10.9,10.9,0,0,0-.294-1.793,19.05,19.05,0,0,0-.2,2.976c-.052,2.733-.1,5.094-1.523,5.094-1.715,0-2.169-3.348-2.622-8.077-.058-.605-.122-1.275-.192-1.865-.262,2.255-.462,6.357-.62,9.587-.123,2.51-.239,4.882-.376,6.682-.237,3.1-.434,3.405-.936,3.482A.511.511,0,0,1,1820.752,1203.7Z" transform="translate(-1736.045 -1165.659)" fill="#54071d"/>
        <path id="Trazado_37" data-name="Trazado 37" d="M1932.252,1203.7a.564.564,0,0,1-.354-.127c-.263-.214-.489-.4-.971-7.6-.276-4.124-.555-9.373-.825-14.449-.176-3.316-.355-6.685-.519-9.4-.089,1.66-.179,3.5-.264,5.256-.184,3.778-.375,7.685-.583,10.724-.113,1.654-.219,2.876-.325,3.735-.148,1.207-.261,1.89-.864,1.89-.776,0-1.123-.954-2.189-6l-.155-.729c-.121,1.557-.362,2.736-1.1,3.191l-.115.072a5.938,5.938,0,0,1-3.766.881V1190.1a4.957,4.957,0,0,0,3.214-.723l.12-.075c.516-.317.629-2.538.677-3.486.069-1.355.1-2.036.76-2.036.58,0,.678.37,1.388,3.733.266,1.26.657,3.109,1,4.258.328-2.675.652-9.333.9-14.441.559-11.461.593-11.47,1.171-11.612l.238-.059.209.149c.359.266.433.322,1.249,15.66.329,6.188.746,14.017,1.112,18.308.131-1.839.246-4.205.349-6.3.534-10.926.766-11.971,1.614-12.039.865-.067.967,1.024,1.278,4.268a48.711,48.711,0,0,0,.647,4.988c.448,2.12.917,2.145.937,2.145.407-.26.456-2.834.48-4.071.049-2.532.081-4.2,1.186-4.2,1.06,0,1.218,1.422,1.384,2.926.1.907.287,2.6.736,2.6.569,0,1.071,0,1.526,0,.8,0,1.435.006,2.045,0l.019,1.043c-.622.011-1.26.008-2.069,0-.453,0-.953,0-1.521,0-1.382,0-1.59-1.872-1.773-3.524a10.906,10.906,0,0,0-.294-1.793,19.032,19.032,0,0,0-.2,2.976c-.052,2.733-.1,5.094-1.523,5.094-1.715,0-2.169-3.348-2.623-8.077-.058-.605-.122-1.275-.192-1.865-.262,2.255-.462,6.357-.62,9.587-.123,2.51-.239,4.882-.376,6.682-.237,3.1-.434,3.405-.936,3.482A.511.511,0,0,1,1932.252,1203.7Z" transform="translate(-1823.319 -1165.659)" fill="#54071d"/>
      </g>
      <g id="Grupo_6" data-name="Grupo 6" transform="translate(654.158 524.859)">
        <path id="Trazado_38" data-name="Trazado 38" d="M1498.363,794.063c-.707,0-.943-.929-1.239-2.43-.23-1.164-.491-2.826-.8-5.08-.565-4.143-1.178-9.484-1.77-14.649-.512-4.462-1.069-9.323-1.485-12.27-.312,2.151-.687,5.259-1.033,8.135-.457,3.787-.929,7.7-1.386,10.755-.777,5.183-1.152,5.7-1.881,5.7-1,0-1.82-1.519-3.773-6.084-.4-.928-.865-2.023-1.183-2.648-.2.315-.44.746-.651,1.122-.895,1.593-2.008,3.575-3.289,4.1l-.174.072c-1.007.418-2.048.851-5.479.851v-1.278c3.176,0,4.1-.383,4.989-.753l.179-.074c.869-.356,1.946-2.274,2.659-3.543.818-1.456,1.192-2.121,1.824-2.121s.909.521,2.3,3.77a37.846,37.846,0,0,0,2.411,5c.627-2.095,1.552-9.771,2.185-15.022.352-2.92.685-5.678.974-7.723.517-3.647.7-3.835,1.238-3.924a.667.667,0,0,1,.515.129c.489.37.725,1.661,2.33,15.66.786,6.859,1.917,16.714,2.641,20.1.438-1.565.981-4.5,1.405-6.8,1.5-8.122,2.078-10.33,3.271-10.394l.057,0c.739,0,1.306.782,2.313,2.173,1.8,2.491,4.531,6.253,8.935,6.253h.025c4.345-.014,7.252-2.2,9.376-3.8,1.241-.933,2.137-1.607,3.012-1.607a4.73,4.73,0,0,1,2.81,1.308,4.737,4.737,0,0,0,2.888,1.329c1.208,0,1.384,0,1.469.007.065,0,.064,0,.562,0l.189,0,.016,1.278-.189,0c-.54.007-.54.006-.611,0s-.244-.006-1.435-.006a5.882,5.882,0,0,1-3.666-1.594,3.739,3.739,0,0,0-2.032-1.044,6.294,6.294,0,0,0-2.244,1.35c-2.139,1.607-5.37,4.037-10.139,4.052h-.029c-5.057,0-8.131-4.244-9.97-6.781a14.579,14.579,0,0,0-1.2-1.535c-.643,1.112-1.539,5.959-2.145,9.24-1.375,7.44-1.751,8.669-2.676,8.764A.823.823,0,0,1,1498.363,794.063Z" transform="translate(-1474.221 -755.96)" fill="#54071d"/>
        <path id="Trazado_39" data-name="Trazado 39" d="M1777.113,794.063c-.707,0-.943-.929-1.239-2.43-.23-1.164-.491-2.826-.8-5.08-.565-4.143-1.178-9.484-1.77-14.649-.512-4.462-1.069-9.323-1.485-12.27-.312,2.15-.686,5.257-1.033,8.132-.457,3.787-.929,7.7-1.387,10.756-.778,5.184-1.152,5.7-1.881,5.7-1,0-1.82-1.519-3.773-6.084-.4-.928-.865-2.023-1.183-2.648-.2.315-.439.746-.651,1.122-.895,1.593-2.008,3.575-3.289,4.1l-.174.072c-1.007.418-2.048.851-5.48.851v-1.278c3.177,0,4.1-.383,4.989-.753l.18-.074c.869-.356,1.946-2.274,2.659-3.543.818-1.456,1.192-2.121,1.824-2.121s.909.521,2.3,3.77a37.862,37.862,0,0,0,2.411,5c.627-2.1,1.553-9.772,2.186-15.024.352-2.92.684-5.677.974-7.721.516-3.647.7-3.834,1.238-3.923a.666.666,0,0,1,.515.129c.489.37.725,1.661,2.33,15.66.786,6.859,1.917,16.714,2.641,20.1.438-1.565.981-4.5,1.406-6.8,1.5-8.121,2.078-10.33,3.271-10.393l.057,0c.74,0,1.306.782,2.314,2.173,1.8,2.491,4.53,6.253,8.935,6.253h.025c4.345-.014,7.252-2.2,9.375-3.8,1.241-.933,2.137-1.607,3.012-1.607a4.73,4.73,0,0,1,2.81,1.308,4.737,4.737,0,0,0,2.888,1.329c1.208,0,1.384,0,1.469.007.065,0,.064,0,.562,0l.189,0,.016,1.278-.189,0c-.54.007-.54.006-.611,0s-.244-.006-1.435-.006a5.881,5.881,0,0,1-3.666-1.594,3.738,3.738,0,0,0-2.032-1.044,6.3,6.3,0,0,0-2.244,1.35c-2.139,1.607-5.37,4.037-10.139,4.052h-.03c-5.057,0-8.131-4.244-9.969-6.781a14.562,14.562,0,0,0-1.2-1.535c-.643,1.112-1.539,5.959-2.146,9.24-1.375,7.441-1.75,8.669-2.676,8.764A.823.823,0,0,1,1777.113,794.063Z" transform="translate(-1692.407 -755.96)" fill="#54071d"/>
      </g>
    </g>
    <path id="Sustracción_26" data-name="Sustracción 26" d="M42.6,90.465h0l-41.449,0A77.494,77.494,0,0,1,0,77.115a76.648,76.648,0,0,1,22.726-54.53A77.582,77.582,0,0,1,77.59,0,79.1,79.1,0,0,1,89.527.9V41.809A37.714,37.714,0,0,0,77.59,39.888,37.328,37.328,0,0,0,51.1,50.791a37.146,37.146,0,0,0-8.5,39.671Z" transform="translate(700.473 1869.535)" fill="#d7f38d"/>
    <path id="Trazado_884832" data-name="Trazado 884832" d="M1.32,0V-11.375H5.039a4.317,4.317,0,0,1,2.785.766,2.759,2.759,0,0,1,.934,2.266A2.31,2.31,0,0,1,8.3-6.934a2.938,2.938,0,0,1-1.234.949A2.638,2.638,0,0,1,8.527-5a2.814,2.814,0,0,1,.535,1.723A3.042,3.042,0,0,1,8.07-.875,4.1,4.1,0,0,1,5.266,0Zm1.5-5.32v4.094H5.3A2.385,2.385,0,0,0,6.949-1.77a1.907,1.907,0,0,0,.605-1.5q0-2.055-2.234-2.055Zm0-1.2H5.086A2.375,2.375,0,0,0,6.66-7.017a1.654,1.654,0,0,0,.59-1.339A1.626,1.626,0,0,0,6.7-9.722a2.686,2.686,0,0,0-1.664-.427H2.82Zm12.32-.633a4.331,4.331,0,0,0-.711-.055A1.9,1.9,0,0,0,12.5-6V0H11.055V-8.453h1.406l.023.977A2.251,2.251,0,0,1,14.5-8.609a1.477,1.477,0,0,1,.641.109ZM21.375,0a3.036,3.036,0,0,1-.2-.891A3.225,3.225,0,0,1,18.766.156a2.984,2.984,0,0,1-2.051-.707,2.287,2.287,0,0,1-.8-1.793,2.39,2.39,0,0,1,1-2.051,4.733,4.733,0,0,1,2.824-.73h1.406v-.664A1.623,1.623,0,0,0,20.7-7a1.821,1.821,0,0,0-1.336-.449,2.108,2.108,0,0,0-1.3.391,1.151,1.151,0,0,0-.523.945H16.086a2,2,0,0,1,.449-1.223,3.066,3.066,0,0,1,1.219-.934,4.1,4.1,0,0,1,1.691-.344,3.342,3.342,0,0,1,2.289.73,2.635,2.635,0,0,1,.859,2.012v3.891a4.757,4.757,0,0,0,.3,1.852V0Zm-2.4-1.1a2.54,2.54,0,0,0,1.289-.352,2.127,2.127,0,0,0,.883-.914V-4.1H20.016q-2.656,0-2.656,1.555a1.316,1.316,0,0,0,.453,1.063A1.742,1.742,0,0,0,18.977-1.1Zm5.531-3.2a4.952,4.952,0,0,1,.922-3.129,2.915,2.915,0,0,1,2.414-1.184A2.932,2.932,0,0,1,30.2-7.594V-12h1.445V0H30.313l-.07-.906A2.943,2.943,0,0,1,27.828.156a2.887,2.887,0,0,1-2.395-1.2,5.008,5.008,0,0,1-.926-3.141Zm1.445.164a3.749,3.749,0,0,0,.594,2.25,1.92,1.92,0,0,0,1.641.813A2.108,2.108,0,0,0,30.2-2.3V-6.187a2.125,2.125,0,0,0-1.992-1.2,1.929,1.929,0,0,0-1.656.82A4.128,4.128,0,0,0,25.953-4.133ZM35.453,0H34.008V-8.453h1.445ZM33.891-10.7a.863.863,0,0,1,.215-.594.807.807,0,0,1,.637-.242.819.819,0,0,1,.641.242.854.854,0,0,1,.219.594.826.826,0,0,1-.219.586.834.834,0,0,1-.641.234.821.821,0,0,1-.637-.234A.834.834,0,0,1,33.891-10.7Zm7.266,9.672a2.082,2.082,0,0,0,1.352-.469,1.649,1.649,0,0,0,.641-1.172h1.367a2.621,2.621,0,0,1-.5,1.383,3.293,3.293,0,0,1-1.23,1.047,3.55,3.55,0,0,1-1.629.391A3.482,3.482,0,0,1,38.41-1a4.59,4.59,0,0,1-1.02-3.152v-.242a5.089,5.089,0,0,1,.453-2.2,3.451,3.451,0,0,1,1.3-1.492,3.7,3.7,0,0,1,2-.531,3.39,3.39,0,0,1,2.363.852,3.043,3.043,0,0,1,1,2.211H43.148a1.992,1.992,0,0,0-.621-1.348,1.932,1.932,0,0,0-1.379-.527,2.023,2.023,0,0,0-1.707.793,3.724,3.724,0,0,0-.605,2.293v.273a3.65,3.65,0,0,0,.6,2.25A2.033,2.033,0,0,0,41.156-1.023ZM51.359,0a3.036,3.036,0,0,1-.2-.891A3.225,3.225,0,0,1,48.75.156,2.984,2.984,0,0,1,46.7-.551a2.287,2.287,0,0,1-.8-1.793,2.39,2.39,0,0,1,1-2.051,4.733,4.733,0,0,1,2.824-.73h1.406v-.664A1.623,1.623,0,0,0,50.68-7a1.821,1.821,0,0,0-1.336-.449,2.107,2.107,0,0,0-1.3.391,1.151,1.151,0,0,0-.523.945H46.07a2,2,0,0,1,.449-1.223,3.066,3.066,0,0,1,1.219-.934,4.1,4.1,0,0,1,1.691-.344,3.342,3.342,0,0,1,2.289.73,2.635,2.635,0,0,1,.859,2.012v3.891a4.757,4.757,0,0,0,.3,1.852V0Zm-2.4-1.1a2.54,2.54,0,0,0,1.289-.352,2.127,2.127,0,0,0,.883-.914V-4.1H50q-2.656,0-2.656,1.555A1.316,1.316,0,0,0,47.8-1.484,1.742,1.742,0,0,0,48.961-1.1ZM58.93-7.156a4.331,4.331,0,0,0-.711-.055A1.9,1.9,0,0,0,56.289-6V0H54.844V-8.453H56.25l.023.977a2.251,2.251,0,0,1,2.016-1.133,1.477,1.477,0,0,1,.641.109ZM59.906-4.3a4.952,4.952,0,0,1,.922-3.129,2.915,2.915,0,0,1,2.414-1.184,2.932,2.932,0,0,1,2.352,1.016V-12h1.445V0H65.711l-.07-.906A2.943,2.943,0,0,1,63.227.156a2.887,2.887,0,0,1-2.395-1.2,5.008,5.008,0,0,1-.926-3.141Zm1.445.164a3.749,3.749,0,0,0,.594,2.25,1.92,1.92,0,0,0,1.641.813A2.109,2.109,0,0,0,65.594-2.3V-6.187a2.125,2.125,0,0,0-1.992-1.2,1.929,1.929,0,0,0-1.656.82A4.128,4.128,0,0,0,61.352-4.133ZM70.852,0H69.406V-8.453h1.445ZM69.289-10.7a.863.863,0,0,1,.215-.594.807.807,0,0,1,.637-.242.819.819,0,0,1,.641.242A.854.854,0,0,1,71-10.7a.826.826,0,0,1-.219.586.834.834,0,0,1-.641.234.821.821,0,0,1-.637-.234A.834.834,0,0,1,69.289-10.7ZM78.383,0a3.036,3.036,0,0,1-.2-.891A3.225,3.225,0,0,1,75.773.156a2.984,2.984,0,0,1-2.051-.707,2.288,2.288,0,0,1-.8-1.793,2.39,2.39,0,0,1,1-2.051,4.733,4.733,0,0,1,2.824-.73h1.406v-.664A1.623,1.623,0,0,0,77.7-7a1.821,1.821,0,0,0-1.336-.449,2.108,2.108,0,0,0-1.3.391,1.151,1.151,0,0,0-.523.945H73.094a2,2,0,0,1,.449-1.223,3.066,3.066,0,0,1,1.219-.934,4.1,4.1,0,0,1,1.691-.344,3.342,3.342,0,0,1,2.289.73A2.635,2.635,0,0,1,79.6-5.867v3.891a4.757,4.757,0,0,0,.3,1.852V0Zm-2.4-1.1a2.54,2.54,0,0,0,1.289-.352,2.127,2.127,0,0,0,.883-.914V-4.1H77.023q-2.656,0-2.656,1.555a1.316,1.316,0,0,0,.453,1.063A1.742,1.742,0,0,0,75.984-1.1Z" transform="translate(491.136 1924.719)" fill="#12263f"/>
    <path id="Trazado_884830" data-name="Trazado 884830" d="M10.063,0H8.555L2.828-8.766V0H1.32V-11.375H2.828L8.57-2.57v-8.8h1.492Zm2.055-4.3a4.993,4.993,0,0,1,.488-2.234A3.643,3.643,0,0,1,13.965-8.07a3.7,3.7,0,0,1,1.988-.539,3.565,3.565,0,0,1,2.793,1.2,4.6,4.6,0,0,1,1.066,3.18v.1a5.036,5.036,0,0,1-.473,2.215A3.589,3.589,0,0,1,17.988-.391a3.743,3.743,0,0,1-2.02.547,3.556,3.556,0,0,1-2.785-1.2A4.575,4.575,0,0,1,12.117-4.2Zm1.453.172a3.616,3.616,0,0,0,.652,2.258,2.088,2.088,0,0,0,1.746.852,2.075,2.075,0,0,0,1.75-.863A3.955,3.955,0,0,0,18.367-4.3a3.61,3.61,0,0,0-.66-2.254,2.1,2.1,0,0,0-1.754-.863,2.075,2.075,0,0,0-1.727.852A3.925,3.925,0,0,0,13.57-4.133ZM25.711-7.156A4.331,4.331,0,0,0,25-7.211,1.9,1.9,0,0,0,23.07-6V0H21.625V-8.453h1.406l.023.977A2.251,2.251,0,0,1,25.07-8.609a1.477,1.477,0,0,1,.641.109Zm2.688-1.3.039.938a3.122,3.122,0,0,1,2.508-1.094A2.417,2.417,0,0,1,33.359-7.25a3.2,3.2,0,0,1,1.1-.984,3.242,3.242,0,0,1,1.6-.375q2.781,0,2.828,2.945V0H37.438V-5.578a1.941,1.941,0,0,0-.414-1.355,1.823,1.823,0,0,0-1.391-.449A1.917,1.917,0,0,0,34.3-6.9a1.949,1.949,0,0,0-.617,1.293V0H32.227V-5.539a1.613,1.613,0,0,0-1.8-1.844,1.934,1.934,0,0,0-1.945,1.211V0H27.031V-8.453ZM46.281,0a3.036,3.036,0,0,1-.2-.891A3.225,3.225,0,0,1,43.672.156a2.984,2.984,0,0,1-2.051-.707,2.287,2.287,0,0,1-.8-1.793,2.39,2.39,0,0,1,1-2.051,4.733,4.733,0,0,1,2.824-.73h1.406v-.664A1.623,1.623,0,0,0,45.6-7a1.821,1.821,0,0,0-1.336-.449,2.107,2.107,0,0,0-1.3.391,1.151,1.151,0,0,0-.523.945H40.992a2,2,0,0,1,.449-1.223,3.066,3.066,0,0,1,1.219-.934,4.1,4.1,0,0,1,1.691-.344,3.342,3.342,0,0,1,2.289.73A2.635,2.635,0,0,1,47.5-5.867v3.891a4.757,4.757,0,0,0,.3,1.852V0Zm-2.4-1.1a2.54,2.54,0,0,0,1.289-.352,2.127,2.127,0,0,0,.883-.914V-4.1H44.922q-2.656,0-2.656,1.555a1.316,1.316,0,0,0,.453,1.063A1.742,1.742,0,0,0,43.883-1.1ZM51.336,0H49.891V-12h1.445Z" transform="translate(507 1743)" fill="#12263f"/>
  </g>
</svg>
