<svg id="Grupo_1103559" data-name="Grupo 1103559" xmlns="http://www.w3.org/2000/svg" xmlns:xlink="http://www.w3.org/1999/xlink" width="122.772" height="140.013" viewBox="0 0 122.772 140.013">
  <defs>
    <clipPath id="clip-path">
      <rect id="Rectángulo_403666" data-name="Rectángulo 403666" width="122.772" height="140.013" fill="none"/>
    </clipPath>
  </defs>
  <g id="Grupo_1103552" data-name="Grupo 1103552">
    <g id="Grupo_1103551" data-name="Grupo 1103551" clip-path="url(#clip-path)">
      <path id="Trazado_883105" data-name="Trazado 883105" d="M98.894,336.729s.135,1.011.539.944a71.137,71.137,0,0,1,16.85-3.437c9.571-.741,19.681-.4,23.522.472s9.571,2.157,9.571,1.955.067-.539.067-.876-2.224-1.281-6.336-1.954a151.848,151.848,0,0,0-18.4-1.82c-4.92,0-15.165.809-19.007,2.157s-6.807,2.561-6.807,2.561" transform="translate(-68.508 -229.997)" fill="#c2c2c2"/>
      <path id="Trazado_883106" data-name="Trazado 883106" d="M98.894,336.729s.135,1.011.539.944a71.137,71.137,0,0,1,16.85-3.437c9.571-.741,19.681-.4,23.522.472s9.571,2.157,9.571,1.955.067-.539.067-.876-2.224-1.281-6.336-1.954a151.848,151.848,0,0,0-18.4-1.82c-4.92,0-15.165.809-19.007,2.157S98.894,336.729,98.894,336.729Z" transform="translate(-68.508 -229.997)" fill="none" stroke="#263238" stroke-miterlimit="10" stroke-width="1"/>
      <path id="Trazado_883107" data-name="Trazado 883107" d="M99.572,330.141s-1.82,3.572-1.078,3.5A97.69,97.69,0,0,1,122.96,329.8c14.222-.4,23.388,2.426,24.8,2.9s1.618,0,1.281-.674a9.5,9.5,0,0,0-1.887-2.764c-.539-.269-13.48-1.011-22.511-1.617s-24.668,2.157-25.072,2.494" transform="translate(-68.107 -226.914)" fill="#fff"/>
      <path id="Trazado_883108" data-name="Trazado 883108" d="M99.572,330.141s-1.82,3.572-1.078,3.5A97.69,97.69,0,0,1,122.96,329.8c14.222-.4,23.388,2.426,24.8,2.9s1.618,0,1.281-.674a9.5,9.5,0,0,0-1.887-2.764c-.539-.269-13.48-1.011-22.511-1.617S99.976,329.8,99.572,330.141Z" transform="translate(-68.107 -226.914)" fill="none" stroke="#263238" stroke-miterlimit="10" stroke-width="1"/>
    </g>
  </g>
  <g id="Grupo_1103554" data-name="Grupo 1103554">
    <g id="Grupo_1103553" data-name="Grupo 1103553" clip-path="url(#clip-path)">
      <path id="Trazado_883109" data-name="Trazado 883109" d="M354.1,369.486l.828,3.258" transform="translate(-245.3 -255.958)" fill="none" stroke="#263238" stroke-miterlimit="10" stroke-width="1"/>
      <path id="Trazado_883110" data-name="Trazado 883110" d="M213.414,150.644c2.716,3.592,7.208,7.872,10.477,9.121,4.295,1.64,12.729,2.577,16.711,3.9s7.575,6.4,8.2,10.933,1.562,18.429,1.64,18.82c.056.282,3.69,14.59,5.71,22.536" transform="translate(-147.84 -104.357)" fill="none" stroke="#263238" stroke-miterlimit="10" stroke-width="1"/>
      <path id="Trazado_883111" data-name="Trazado 883111" d="M20.767,98.547,23.592,89.1s1.327-11.245,1.562-16.711,3.826-12.416,7.418-13.822,13.2-2.265,15.7-3.2,10-4.373,10-5.076-.39-4.373-1.405-5.623-6.091,0-8.356-.468-2.655-.937-2.811-2.889.078-8.2,0-8.824-2.108-1.249-2.655-2.577,3.124-4.763,3.358-6.325-.625-2.655-.937-3.67,1.015-3.046,1.562-5.388a12.32,12.32,0,0,1,1.64-3.9s-.078.391-1.718-.156-.469-2.811,1.405-4.373S55.14.856,59.826.544A69.69,69.69,0,0,1,76.927,2.5c2.5.859,5.076,5.388,5.232,6.013s1.171-1.015,1.327.078a2.491,2.491,0,0,1-.078,1.484A60.053,60.053,0,0,1,84.19,17.1c.234,4.139.078,7.809-.469,9.449a50.908,50.908,0,0,1-3.436,6.95c-1.406,2.5-2.5,2.655-2.655,4.295s-1.328,2.108.391,5.779a11.943,11.943,0,0,0,.592,1.095" transform="translate(-14.386 -0.346)" fill="none" stroke="#263238" stroke-miterlimit="10" stroke-width="1"/>
      <line id="Línea_565" data-name="Línea 565" y1="18.829" x2="5.629" transform="translate(0.147 100.222)" fill="none" stroke="#263238" stroke-miterlimit="10" stroke-width="1"/>
      <path id="Trazado_883112" data-name="Trazado 883112" d="M52.593,344.034l8.367-19.125s3.515,14.06,3.921,17.575S61.5,365.06,61.5,365.06" transform="translate(-36.433 -225.077)" fill="none" stroke="#263238" stroke-miterlimit="10" stroke-width="1"/>
      <line id="Línea_566" data-name="Línea 566" y1="2.214" x2="0.968" transform="translate(14.117 121.411)" fill="none" stroke="#263238" stroke-miterlimit="10" stroke-width="1"/>
      <path id="Trazado_883113" data-name="Trazado 883113" d="M269.822,431.227c.742,4.142,1.405,7.484,1.405,7.484" transform="translate(-186.916 -298.728)" fill="none" stroke="#263238" stroke-miterlimit="10" stroke-width="1"/>
      <path id="Trazado_883114" data-name="Trazado 883114" d="M276.545,349.243l-9.3-24.334s-3.515,14.06-3.92,17.575c-.2,1.7.587,7.033,1.449,12.09" transform="translate(-182.396 -225.077)" fill="none" stroke="#263238" stroke-miterlimit="10" stroke-width="1"/>
      <line id="Línea_567" data-name="Línea 567" x1="3.159" y1="10.721" transform="translate(19.762 83.659)" fill="none" stroke="#263238" stroke-miterlimit="10" stroke-width="1"/>
      <line id="Línea_568" data-name="Línea 568" x1="0.89" y1="3.019" transform="translate(23.637 96.812)" fill="none" stroke="#263238" stroke-miterlimit="10" stroke-width="1"/>
      <line id="Línea_569" data-name="Línea 569" y1="2.632" x2="0.633" transform="translate(88.919 80.279)" fill="none" stroke="#263238" stroke-miterlimit="10" stroke-width="1"/>
      <line id="Línea_570" data-name="Línea 570" x2="10.936" y2="0.596" transform="translate(30.499 58.805)" fill="none" stroke="#263238" stroke-miterlimit="10" stroke-width="1"/>
      <line id="Línea_571" data-name="Línea 571" x1="8.55" y2="0.795" transform="translate(70.464 59.203)" fill="none" stroke="#263238" stroke-miterlimit="10" stroke-width="1"/>
      <line id="Línea_572" data-name="Línea 572" y1="14.861" x2="3.573" transform="translate(84.852 84.971)" fill="none" stroke="#263238" stroke-miterlimit="10" stroke-width="1"/>
      <path id="Trazado_883115" data-name="Trazado 883115" d="M175.052,75.362a7.009,7.009,0,0,1,2.369-2.827c1.528-.917,3.515-.077,3.744,3.362s-1.223,5.12-2.139,5.884a14.85,14.85,0,0,1-3.133,1.6" transform="translate(-121.265 -50.009)" fill="none" stroke="#263238" stroke-miterlimit="10" stroke-width="1"/>
      <path id="Trazado_883116" data-name="Trazado 883116" d="M133.131,47.044a8.764,8.764,0,0,1-2.6.993c-.611-.077.611-1.375.611-1.375s-1.146.305-1.6-.153.841-1.6.611-1.911-6.113-2.6-6.419-3.362.688-6.572.688-6.572a14.1,14.1,0,0,1-5.5,1.528c-2.6,0-.306-2.675-1.07-3.286s-1.987,0-1.987,0" transform="translate(-80.262 -22.608)" fill="none" stroke="#263238" stroke-miterlimit="10" stroke-width="1"/>
      <path id="Trazado_883117" data-name="Trazado 883117" d="M139.494,137.166a47.157,47.157,0,0,0,5.1-1.457" transform="translate(-96.633 -94.011)" fill="none" stroke="#263238" stroke-miterlimit="10" stroke-width="1"/>
    </g>
  </g>
  <g id="Grupo_1103556" data-name="Grupo 1103556">
    <g id="Grupo_1103555" data-name="Grupo 1103555" clip-path="url(#clip-path)">
      <path id="Trazado_883118" data-name="Trazado 883118" d="M192.5,195.981s.607-1.348,2.966-1.82,6.74,3.168,9.436,6.538,4.381,10.042,4.583,10.312,1.348,1.281,2.224,5.325.674,10.919.876,11.525a20.946,20.946,0,0,1,.741,6.2c-.269,1.82-.944,3.842-3.033,4.516s-4.252,1.561-5.8.809c-5.533-2.7-8.5-1.146-10.925-2.224s-3.566-2.831-4.779-6.672a23.572,23.572,0,0,1-.135-11.66c.741-2.561.741-6.605,1.617-12a32.4,32.4,0,0,0,.674-7.414c.067-3.235,1.55-3.437,1.55-3.437" transform="translate(-130.231 -134.475)" fill="#ffb27e"/>
      <path id="Trazado_883119" data-name="Trazado 883119" d="M192.5,195.981s.607-1.348,2.966-1.82,6.74,3.168,9.436,6.538,4.381,10.042,4.583,10.312,1.348,1.281,2.224,5.325.674,10.919.876,11.525a20.946,20.946,0,0,1,.741,6.2c-.269,1.82-.944,3.842-3.033,4.516s-4.252,1.561-5.8.809c-5.533-2.7-8.5-1.146-10.925-2.224s-3.566-2.831-4.779-6.672a23.572,23.572,0,0,1-.135-11.66c.741-2.561.741-6.605,1.617-12a32.4,32.4,0,0,0,.674-7.414C191.021,196.184,192.5,195.981,192.5,195.981Z" transform="translate(-130.231 -134.475)" fill="none" stroke="#263238" stroke-miterlimit="10" stroke-width="1"/>
      <path id="Trazado_883120" data-name="Trazado 883120" d="M192.4,200.3c.2,1.887,2.831,10.717,1.214,14.221-1.475,3.2-4.178,5.95-5.564,10.855a19.5,19.5,0,0,0,.785,5.119,12.141,12.141,0,0,0,.488,1.269c1.534.686,3.845.617,6.246.686,4.718.135,7.886,5.324,10.582,6.268.425.149.819.277,1.186.392a12.9,12.9,0,0,0,3-.527c2.089-.674,2.763-2.7,3.033-4.516a20.944,20.944,0,0,0-.741-6.2c-.2-.607,0-7.481-.877-11.525s-2.021-5.055-2.224-5.325-1.887-6.942-4.583-10.312-7.077-7.01-9.436-6.538-2.965,1.82-2.965,1.82a21.07,21.07,0,0,0-.142,4.314" transform="translate(-130.27 -134.475)" fill="#c2c2c2"/>
      <path id="Trazado_883121" data-name="Trazado 883121" d="M192.4,200.3c.2,1.887,2.831,10.717,1.214,14.221-1.475,3.2-4.178,5.95-5.564,10.855a19.5,19.5,0,0,0,.785,5.119,12.141,12.141,0,0,0,.488,1.269c1.534.686,3.845.617,6.246.686,4.718.135,7.886,5.324,10.582,6.268.425.149.819.277,1.186.392a12.9,12.9,0,0,0,3-.527c2.089-.674,2.763-2.7,3.033-4.516a20.944,20.944,0,0,0-.741-6.2c-.2-.607,0-7.481-.877-11.525s-2.021-5.055-2.224-5.325-1.887-6.942-4.583-10.312-7.077-7.01-9.436-6.538-2.965,1.82-2.965,1.82A21.07,21.07,0,0,0,192.4,200.3Z" transform="translate(-130.27 -134.475)" fill="none" stroke="#263238" stroke-miterlimit="10" stroke-width="1"/>
      <path id="Trazado_883122" data-name="Trazado 883122" d="M205.74,235.4a.161.161,0,0,0-.2-.108l-.606.183.549-.929a.162.162,0,0,0-.28-.165l-.648,1.1a.162.162,0,0,0-.018.118l-2,.6a.162.162,0,0,0-.092.074q-.429-.189-.849-.393a24.108,24.108,0,0,1-3.258-1.929,8.513,8.513,0,0,1-1.4-1.208,4.185,4.185,0,0,1-.274-.352l-.281-.388-.562-.776-2.161-2.984c0-.047.01-.092.013-.139a7.5,7.5,0,0,0-.138-1.691,8.026,8.026,0,0,1,1.739.394,1.511,1.511,0,0,1,.2.1.345.345,0,0,1,.078.053.416.416,0,0,1,.075.071,2.933,2.933,0,0,1,.316.386,1.755,1.755,0,0,1,.214.923,9.4,9.4,0,0,0,.025,1.1,6.693,6.693,0,0,0,.221,1.1,6.227,6.227,0,0,0,.4,1.039c.186.342.382.622.572.936a.115.115,0,0,0,.153.042.114.114,0,0,0,.046-.155c-.171-.314-.372-.642-.517-.945a5.9,5.9,0,0,1-.332-1,6.354,6.354,0,0,1-.159-1.042,9.142,9.142,0,0,1,.029-1.069,4.01,4.01,0,0,0-.014-.446,4.752,4.752,0,0,1,.825.676c.517.543,2.487,2.387,2.57,2.466a.162.162,0,0,0,.222-.237c-.016-.015-1.265-1.185-2.049-1.948a7.087,7.087,0,0,1,.752.318,9.518,9.518,0,0,0,1.721.5l.029,0a.162.162,0,0,0,.036-.321,9.518,9.518,0,0,1-1.633-.468,12.614,12.614,0,0,0-1.442-.566,5.2,5.2,0,0,0-1.115-.855,1.526,1.526,0,0,0-.131-.3,3.4,3.4,0,0,0-.347-.474,1.137,1.137,0,0,0-.255-.23,2.061,2.061,0,0,0-.274-.154,9.142,9.142,0,0,0-2.088-.564,29.588,29.588,0,0,0-1.475-4.88A15,15,0,0,0,190.9,219a12.258,12.258,0,0,1,1.351-.214,3.738,3.738,0,0,1,.885,0c.029,0,.1.026.193.045q1.13,1.242,2.349,2.382.346.319.7.63a.158.158,0,0,0,.015.153,13.317,13.317,0,0,0,2.286,2.487A15.448,15.448,0,0,1,200.4,226.2l-.036,1.526a.162.162,0,1,0,.325.007l.027-1.175c.722.829,1.309,1.563,1.32,1.577a.162.162,0,1,0,.254-.2c-.052-.065-.769-.962-1.594-1.891a.162.162,0,0,0-.031-.035,15.866,15.866,0,0,0-1.781-1.779,11.087,11.087,0,0,1-1.636-1.659c.393.316.794.623,1.213.908a25.554,25.554,0,0,0,3.109,1.77l1.593.78a5.513,5.513,0,0,1,.742.44l.725.514a.162.162,0,0,0,.19-.264l-.718-.523a5.858,5.858,0,0,0-.778-.476l-1.587-.8c-.2-.1-.391-.2-.587-.307l1.809.008a.162.162,0,0,0,.163-.162.158.158,0,0,0-.162-.163l-2.31-.01a.163.163,0,0,0-.069.017,20.9,20.9,0,0,1-1.883-1.164,23.752,23.752,0,0,1-2.7-2.257c-.7-.669-1.376-1.366-2.025-2.082a2.044,2.044,0,0,0,.331-.161c.029-.018.055-.038.083-.056a.325.325,0,0,0,.173-.111l.013-.018c.191-.14.361-.277.537-.394a2.413,2.413,0,0,1,.789-.366,6.6,6.6,0,0,1,.925-.1c.16-.009.32-.015.477-.017.078,0,.157,0,.232,0l.06,0a5.727,5.727,0,0,1,1.11.593,14.846,14.846,0,0,0,1.744.955.16.16,0,0,0,0,.134l.887,1.976a.162.162,0,0,0,.144.1.164.164,0,0,0,.07-.014.163.163,0,0,0,.082-.215l-.807-1.8.167.077,1.793,1.241a.163.163,0,0,0,.185-.267l-1.817-1.255a21.583,21.583,0,0,1-2.255-1.193c-.042-.03-.087-.059-.131-.088.077.015.152.032.229.046a4.6,4.6,0,0,0,1.334.093l.4-.03,2.191.718a.156.156,0,0,0,.047.008.162.162,0,0,0,.054-.316l-1.449-.475,1.293-.1h.006a.162.162,0,0,0-.02-.324l-1.52.065,1.076-.855a.162.162,0,1,0-.2-.254l-1.358,1.079a.161.161,0,0,0-.042.052l-.519.022a4.241,4.241,0,0,1-1.2-.132c-.408-.088-.819-.194-1.22-.309l.018.006a.958.958,0,0,0-.177-.036l-.135-.014c-.088-.007-.173-.01-.258-.013-.17,0-.336,0-.5,0a6.931,6.931,0,0,0-1.026.074,2.316,2.316,0,0,0-.495.153l.009-.017a4.91,4.91,0,0,0,.428-1.344,5.214,5.214,0,0,0,.05-.83,18.13,18.13,0,0,0,1.437-1.349s.009,0,.013,0a13.832,13.832,0,0,1,1.818-1.138,2.754,2.754,0,0,1,1-.272.162.162,0,1,0,.008-.324,2.969,2.969,0,0,0-1.142.3,7.674,7.674,0,0,0-.962.545c.015-.022.032-.045.047-.067a6.874,6.874,0,0,0,.908-1.849.162.162,0,0,0-.314-.082,6.721,6.721,0,0,1-.865,1.752,12.3,12.3,0,0,1-1.961,2.069c0-.045,0-.089,0-.135-.009-.19-.023-.378-.038-.567a14.531,14.531,0,0,0,.843-3.53,13.109,13.109,0,0,1,.321-2.49.162.162,0,1,0-.315-.078,13.172,13.172,0,0,0-.331,2.56,11.722,11.722,0,0,1-.6,2.74c-.052-.438-.117-.875-.2-1.31a7.763,7.763,0,0,0-.352-1.324c-.351-.833-.751-1.62-1.158-2.414a.162.162,0,0,0-.291.143v0c.377.8.754,1.6,1.066,2.417a7.388,7.388,0,0,1,.288,1.254c.068.431.119.866.156,1.3s.061.874.068,1.31a6.8,6.8,0,0,1-.07,1.269,5.242,5.242,0,0,1-1.095,2.211l-.075.048a.849.849,0,0,1-.328.121,1.241,1.241,0,0,1-.377-.079,4.288,4.288,0,0,0-1.069-.049,13.613,13.613,0,0,0-1.752.234,19.3,19.3,0,0,0-2.042-2.551c-1.3-1.319-4.036-4.094-4.036-4.094l-1.287,3.747s.573.191,1.191.383a21.468,21.468,0,0,1,4.468,2.726,12.663,12.663,0,0,1,2.694,4.462,17.035,17.035,0,0,1,.9,7.041,7.4,7.4,0,0,0-.062,1.577,15.019,15.019,0,0,0-2.048.952,24.684,24.684,0,0,1-2.145,1.315l-.584.3a.162.162,0,0,0,.07.307.165.165,0,0,0,.077-.018l.584-.3c.393-.2,1.01-.574,1.531-.908a3.937,3.937,0,0,0-.552,2,.162.162,0,0,0,.158.155h.012a.163.163,0,0,0,.155-.17,4.308,4.308,0,0,1,.9-2.426,14.954,14.954,0,0,1,1.919-.887c0,.011.008.022.013.033a8.016,8.016,0,0,0-1.356,2.619c-.057.195-.1.385-.145.57a3.09,3.09,0,0,0-1.042,1.112c-.061.134-.121.25-.179.361a3.4,3.4,0,0,0-.308.741c-.307.127-1.176.535-1.394,1.18a.162.162,0,0,0,.1.206.141.141,0,0,0,.048.009.162.162,0,0,0,.158-.11,1.955,1.955,0,0,1,1.013-.9,4.231,4.231,0,0,0-.031.425,4.848,4.848,0,0,0,.416,1.949.162.162,0,0,0,.143.093.158.158,0,0,0,.073-.015.163.163,0,0,0,.078-.216,4.568,4.568,0,0,1-.385-1.8,3.42,3.42,0,0,1,.063-.606.16.16,0,0,0,.035-.148,3.146,3.146,0,0,1,.278-.659c.06-.116.123-.237.186-.375a2.359,2.359,0,0,1,.657-.774,9.279,9.279,0,0,0-.034,2.659c.111.929.267,1.87.268,1.88a.163.163,0,0,0,.156.135.173.173,0,0,0,.031,0,.163.163,0,0,0,.134-.187c0-.009-.156-.944-.266-1.865a8.677,8.677,0,0,1,.1-2.938.164.164,0,0,0,.013-.065c.041-.185.088-.374.144-.57a7.807,7.807,0,0,1,1.226-2.412l.028.038c.043.332.085.663.122.995.092.835.161,1.677.233,2.518s.126,1.681.141,2.522a8.833,8.833,0,0,1-.227,2.495v0a.044.044,0,0,0,.083.026,8.937,8.937,0,0,0,.373-2.52c.022-.579.02-1.158.012-1.736a17.123,17.123,0,0,0,2.085,3.969,5.084,5.084,0,0,0,1.948,1.422.142.142,0,0,0,.046.008.162.162,0,0,0,.054-.316,4.884,4.884,0,0,1-1.809-1.332,21.6,21.6,0,0,1-2.3-4.579.16.16,0,0,0-.037-.056c-.04-1.553-.1-3.11-.265-4.671.143-.5.352-1.152.5-1.9l1.835,2.414.578.76.289.38.032.041c-.12.4-.11,1.372,1.314,3.377.98,1.381,1.982,2.636,2.738,3.52l.112,2.459a.163.163,0,0,0,.158.155h.011a.163.163,0,0,0,.155-.17l-.093-2.048a5.981,5.981,0,0,0,.884.9.173.173,0,0,0,.056.01.167.167,0,0,0,.163-.1.151.151,0,0,0-.087-.2,13.28,13.28,0,0,1-1.04-1.129V239.5a.161.161,0,0,0-.134-.15c-.709-.832-1.661-2.018-2.658-3.423a5.377,5.377,0,0,1-1.3-2.846l.009.01a8.956,8.956,0,0,0,1.518,1.251,24.511,24.511,0,0,0,3.363,1.89,21.505,21.505,0,0,0,3.627,1.307.149.149,0,0,0,.077-.289l-.006,0a19.639,19.639,0,0,1-2.275-.8l2.777-.84a.162.162,0,0,0,.108-.2" transform="translate(-126.83 -143.92)" fill="#fff"/>
      <path id="Trazado_883123" data-name="Trazado 883123" d="M205.74,235.4a.161.161,0,0,0-.2-.108l-.606.183.549-.929a.162.162,0,0,0-.28-.165l-.648,1.1a.162.162,0,0,0-.018.118l-2,.6a.162.162,0,0,0-.092.074q-.429-.189-.849-.393a24.108,24.108,0,0,1-3.258-1.929,8.513,8.513,0,0,1-1.4-1.208,4.185,4.185,0,0,1-.274-.352l-.281-.388-.562-.776-2.161-2.984c0-.047.01-.092.013-.139a7.5,7.5,0,0,0-.138-1.691,8.026,8.026,0,0,1,1.739.394,1.511,1.511,0,0,1,.2.1.345.345,0,0,1,.078.053.416.416,0,0,1,.075.071,2.933,2.933,0,0,1,.316.386,1.755,1.755,0,0,1,.214.923,9.4,9.4,0,0,0,.025,1.1,6.693,6.693,0,0,0,.221,1.1,6.227,6.227,0,0,0,.4,1.039c.186.342.382.622.572.936a.115.115,0,0,0,.153.042.114.114,0,0,0,.046-.155c-.171-.314-.372-.642-.517-.945a5.9,5.9,0,0,1-.332-1,6.354,6.354,0,0,1-.159-1.042,9.142,9.142,0,0,1,.029-1.069,4.01,4.01,0,0,0-.014-.446,4.752,4.752,0,0,1,.825.676c.517.543,2.487,2.387,2.57,2.466a.162.162,0,0,0,.222-.237c-.016-.015-1.265-1.185-2.049-1.948a7.087,7.087,0,0,1,.752.318,9.518,9.518,0,0,0,1.721.5l.029,0a.162.162,0,0,0,.036-.321,9.518,9.518,0,0,1-1.633-.468,12.614,12.614,0,0,0-1.442-.566,5.2,5.2,0,0,0-1.115-.855,1.526,1.526,0,0,0-.131-.3,3.4,3.4,0,0,0-.347-.474,1.137,1.137,0,0,0-.255-.23,2.061,2.061,0,0,0-.274-.154,9.142,9.142,0,0,0-2.088-.564,29.588,29.588,0,0,0-1.475-4.88A15,15,0,0,0,190.9,219a12.258,12.258,0,0,1,1.351-.214,3.738,3.738,0,0,1,.885,0c.029,0,.1.026.193.045q1.13,1.242,2.349,2.382.346.319.7.63a.158.158,0,0,0,.015.153,13.317,13.317,0,0,0,2.286,2.487A15.448,15.448,0,0,1,200.4,226.2l-.036,1.526a.162.162,0,1,0,.325.007l.027-1.175c.722.829,1.309,1.563,1.32,1.577a.162.162,0,1,0,.254-.2c-.052-.065-.769-.962-1.594-1.891a.162.162,0,0,0-.031-.035,15.866,15.866,0,0,0-1.781-1.779,11.087,11.087,0,0,1-1.636-1.659c.393.316.794.623,1.213.908a25.554,25.554,0,0,0,3.109,1.77l1.593.78a5.513,5.513,0,0,1,.742.44l.725.514a.162.162,0,0,0,.19-.264l-.718-.523a5.858,5.858,0,0,0-.778-.476l-1.587-.8c-.2-.1-.391-.2-.587-.307l1.809.008a.162.162,0,0,0,.163-.162.158.158,0,0,0-.162-.163l-2.31-.01a.163.163,0,0,0-.069.017,20.9,20.9,0,0,1-1.883-1.164,23.752,23.752,0,0,1-2.7-2.257c-.7-.669-1.376-1.366-2.025-2.082a2.044,2.044,0,0,0,.331-.161c.029-.018.055-.038.083-.056a.325.325,0,0,0,.173-.111l.013-.018c.191-.14.361-.277.537-.394a2.413,2.413,0,0,1,.789-.366,6.6,6.6,0,0,1,.925-.1c.16-.009.32-.015.477-.017.078,0,.157,0,.232,0l.06,0a5.727,5.727,0,0,1,1.11.593,14.846,14.846,0,0,0,1.744.955.16.16,0,0,0,0,.134l.887,1.976a.162.162,0,0,0,.144.1.164.164,0,0,0,.07-.014.163.163,0,0,0,.082-.215l-.807-1.8.167.077,1.793,1.241a.163.163,0,0,0,.185-.267l-1.817-1.255a21.583,21.583,0,0,1-2.255-1.193c-.042-.03-.087-.059-.131-.088.077.015.152.032.229.046a4.6,4.6,0,0,0,1.334.093l.4-.03,2.191.718a.156.156,0,0,0,.047.008.162.162,0,0,0,.054-.316l-1.449-.475,1.293-.1h.006a.162.162,0,0,0-.02-.324l-1.52.065,1.076-.855a.162.162,0,1,0-.2-.254l-1.358,1.079a.161.161,0,0,0-.042.052l-.519.022a4.241,4.241,0,0,1-1.2-.132c-.408-.088-.819-.194-1.22-.309l.018.006a.958.958,0,0,0-.177-.036l-.135-.014c-.088-.007-.173-.01-.258-.013-.17,0-.336,0-.5,0a6.931,6.931,0,0,0-1.026.074,2.316,2.316,0,0,0-.495.153l.009-.017a4.91,4.91,0,0,0,.428-1.344,5.214,5.214,0,0,0,.05-.83,18.13,18.13,0,0,0,1.437-1.349s.009,0,.013,0a13.832,13.832,0,0,1,1.818-1.138,2.754,2.754,0,0,1,1-.272.162.162,0,1,0,.008-.324,2.969,2.969,0,0,0-1.142.3,7.674,7.674,0,0,0-.962.545c.015-.022.032-.045.047-.067a6.874,6.874,0,0,0,.908-1.849.162.162,0,0,0-.314-.082,6.721,6.721,0,0,1-.865,1.752,12.3,12.3,0,0,1-1.961,2.069c0-.045,0-.089,0-.135-.009-.19-.023-.378-.038-.567a14.531,14.531,0,0,0,.843-3.53,13.109,13.109,0,0,1,.321-2.49.162.162,0,1,0-.315-.078,13.172,13.172,0,0,0-.331,2.56,11.722,11.722,0,0,1-.6,2.74c-.052-.438-.117-.875-.2-1.31a7.763,7.763,0,0,0-.352-1.324c-.351-.833-.751-1.62-1.158-2.414a.162.162,0,0,0-.291.143v0c.377.8.754,1.6,1.066,2.417a7.388,7.388,0,0,1,.288,1.254c.068.431.119.866.156,1.3s.061.874.068,1.31a6.8,6.8,0,0,1-.07,1.269,5.242,5.242,0,0,1-1.095,2.211l-.075.048a.849.849,0,0,1-.328.121,1.241,1.241,0,0,1-.377-.079,4.288,4.288,0,0,0-1.069-.049,13.613,13.613,0,0,0-1.752.234,19.3,19.3,0,0,0-2.042-2.551c-1.3-1.319-4.036-4.094-4.036-4.094l-1.287,3.747s.573.191,1.191.383a21.468,21.468,0,0,1,4.468,2.726,12.663,12.663,0,0,1,2.694,4.462,17.035,17.035,0,0,1,.9,7.041,7.4,7.4,0,0,0-.062,1.577,15.019,15.019,0,0,0-2.048.952,24.684,24.684,0,0,1-2.145,1.315l-.584.3a.162.162,0,0,0,.07.307.165.165,0,0,0,.077-.018l.584-.3c.393-.2,1.01-.574,1.531-.908a3.937,3.937,0,0,0-.552,2,.162.162,0,0,0,.158.155h.012a.163.163,0,0,0,.155-.17,4.308,4.308,0,0,1,.9-2.426,14.954,14.954,0,0,1,1.919-.887c0,.011.008.022.013.033a8.016,8.016,0,0,0-1.356,2.619c-.057.195-.1.385-.145.57a3.09,3.09,0,0,0-1.042,1.112c-.061.134-.121.25-.179.361a3.4,3.4,0,0,0-.308.741c-.307.127-1.176.535-1.394,1.18a.162.162,0,0,0,.1.206.141.141,0,0,0,.048.009.162.162,0,0,0,.158-.11,1.955,1.955,0,0,1,1.013-.9,4.231,4.231,0,0,0-.031.425,4.848,4.848,0,0,0,.416,1.949.162.162,0,0,0,.143.093.158.158,0,0,0,.073-.015.163.163,0,0,0,.078-.216,4.568,4.568,0,0,1-.385-1.8,3.42,3.42,0,0,1,.063-.606.16.16,0,0,0,.035-.148,3.146,3.146,0,0,1,.278-.659c.06-.116.123-.237.186-.375a2.359,2.359,0,0,1,.657-.774,9.279,9.279,0,0,0-.034,2.659c.111.929.267,1.87.268,1.88a.163.163,0,0,0,.156.135.173.173,0,0,0,.031,0,.163.163,0,0,0,.134-.187c0-.009-.156-.944-.266-1.865a8.677,8.677,0,0,1,.1-2.938.164.164,0,0,0,.013-.065c.041-.185.088-.374.144-.57a7.807,7.807,0,0,1,1.226-2.412l.028.038c.043.332.085.663.122.995.092.835.161,1.677.233,2.518s.126,1.681.141,2.522a8.833,8.833,0,0,1-.227,2.495v0a.044.044,0,0,0,.083.026,8.937,8.937,0,0,0,.373-2.52c.022-.579.02-1.158.012-1.736a17.123,17.123,0,0,0,2.085,3.969,5.084,5.084,0,0,0,1.948,1.422.142.142,0,0,0,.046.008.162.162,0,0,0,.054-.316,4.884,4.884,0,0,1-1.809-1.332,21.6,21.6,0,0,1-2.3-4.579.16.16,0,0,0-.037-.056c-.04-1.553-.1-3.11-.265-4.671.143-.5.352-1.152.5-1.9l1.835,2.414.578.76.289.38.032.041c-.12.4-.11,1.372,1.314,3.377.98,1.381,1.982,2.636,2.738,3.52l.112,2.459a.163.163,0,0,0,.158.155h.011a.163.163,0,0,0,.155-.17l-.093-2.048a5.981,5.981,0,0,0,.884.9.173.173,0,0,0,.056.01.167.167,0,0,0,.163-.1.151.151,0,0,0-.087-.2,13.28,13.28,0,0,1-1.04-1.129V239.5a.161.161,0,0,0-.134-.15c-.709-.832-1.661-2.018-2.658-3.423a5.377,5.377,0,0,1-1.3-2.846l.009.01a8.956,8.956,0,0,0,1.518,1.251,24.511,24.511,0,0,0,3.363,1.89,21.505,21.505,0,0,0,3.627,1.307.149.149,0,0,0,.077-.289l-.006,0a19.639,19.639,0,0,1-2.275-.8l2.777-.84A.162.162,0,0,0,205.74,235.4Z" transform="translate(-126.83 -143.92)" fill="none" stroke="#263238" stroke-miterlimit="10" stroke-width="1"/>
      <path id="Trazado_883124" data-name="Trazado 883124" d="M183.381,224.342l1.624-3.2-.634-.644-1.287,3.746.3.1" transform="translate(-126.829 -152.748)" fill="#263238"/>
      <path id="Trazado_883125" data-name="Trazado 883125" d="M183.381,224.342l1.624-3.2-.634-.644-1.287,3.746Z" transform="translate(-126.829 -152.748)" fill="none" stroke="#263238" stroke-miterlimit="10" stroke-width="1"/>
      <path id="Trazado_883126" data-name="Trazado 883126" d="M193.985,230.074l-.507-.514a5.518,5.518,0,0,1-1.211,2.167c.185.106.375.218.568.335a6.112,6.112,0,0,0,1.149-1.987" transform="translate(-133.191 -159.025)" fill="#263238"/>
      <path id="Trazado_883127" data-name="Trazado 883127" d="M193.985,230.074l-.507-.514a5.518,5.518,0,0,1-1.211,2.167c.185.106.375.218.568.335A6.112,6.112,0,0,0,193.985,230.074Z" transform="translate(-133.191 -159.025)" fill="none" stroke="#263238" stroke-miterlimit="10" stroke-width="1"/>
      <path id="Trazado_883128" data-name="Trazado 883128" d="M187.929,228.605a7.345,7.345,0,0,0,1.475-2.321l-.515-.522a6.684,6.684,0,0,1-1.585,2.551c.151.059.366.159.625.292" transform="translate(-129.753 -156.394)" fill="#263238"/>
      <path id="Trazado_883129" data-name="Trazado 883129" d="M187.929,228.605a7.345,7.345,0,0,0,1.475-2.321l-.515-.522a6.684,6.684,0,0,1-1.585,2.551C187.455,228.372,187.67,228.472,187.929,228.605Z" transform="translate(-129.753 -156.394)" fill="none" stroke="#263238" stroke-miterlimit="10" stroke-width="1"/>
      <path id="Trazado_883130" data-name="Trazado 883130" d="M201.78,238.026c-.141-.188-.283-.373-.426-.551a7.3,7.3,0,0,1-1.006,1.353c.126.1.247.194.354.286.049.042.092.092.139.136a7.657,7.657,0,0,0,.939-1.225" transform="translate(-138.788 -164.508)" fill="#263238"/>
      <path id="Trazado_883131" data-name="Trazado 883131" d="M201.78,238.026c-.141-.188-.283-.373-.426-.551a7.3,7.3,0,0,1-1.006,1.353c.126.1.247.194.354.286.049.042.092.092.139.136A7.657,7.657,0,0,0,201.78,238.026Z" transform="translate(-138.788 -164.508)" fill="none" stroke="#263238" stroke-miterlimit="10" stroke-width="1"/>
      <path id="Trazado_883132" data-name="Trazado 883132" d="M197.937,234.007c-.127-.142-.253-.278-.377-.4l-.094-.1a8.76,8.76,0,0,1-1.169,1.7c.187.12.371.242.549.363a9.206,9.206,0,0,0,1.091-1.57" transform="translate(-135.983 -161.761)" fill="#263238"/>
      <path id="Trazado_883133" data-name="Trazado 883133" d="M197.937,234.007c-.127-.142-.253-.278-.377-.4l-.094-.1a8.76,8.76,0,0,1-1.169,1.7c.187.12.371.242.549.363A9.206,9.206,0,0,0,197.937,234.007Z" transform="translate(-135.983 -161.761)" fill="none" stroke="#263238" stroke-miterlimit="10" stroke-width="1"/>
      <path id="Trazado_883134" data-name="Trazado 883134" d="M112.707,242.784a.162.162,0,0,1,.183-.138l.627.089-.684-.835a.162.162,0,1,1,.251-.206l.807.984a.161.161,0,0,1,.035.114l2.065.293a.161.161,0,0,1,.1.059q.395-.252.779-.517a24.1,24.1,0,0,0,2.926-2.4,8.52,8.52,0,0,0,1.2-1.407,4.244,4.244,0,0,0,.218-.389l.219-.426.438-.853,1.682-3.278c-.011-.045-.024-.09-.034-.136a7.5,7.5,0,0,1-.121-1.692,8.01,8.01,0,0,0-1.66.654,1.541,1.541,0,0,0-.187.131.351.351,0,0,0-.069.065.414.414,0,0,0-.063.081,2.918,2.918,0,0,0-.253.43,1.755,1.755,0,0,0-.072.945,9.4,9.4,0,0,1,.143,1.094,6.72,6.72,0,0,1-.052,1.116,6.269,6.269,0,0,1-.239,1.089c-.132.366-.282.672-.423,1.012a.115.115,0,0,1-.145.065.114.114,0,0,1-.069-.146c.12-.336.27-.691.367-1.013a5.948,5.948,0,0,0,.176-1.042,6.389,6.389,0,0,0,0-1.054,9.206,9.206,0,0,0-.192-1.052,4,4,0,0,1-.054-.443,4.724,4.724,0,0,0-.713.794c-.429.615-2.095,2.738-2.165,2.828a.163.163,0,0,1-.1.06.162.162,0,0,1-.156-.26c.014-.018,1.07-1.364,1.73-2.237a7.21,7.21,0,0,0-.695.429,9.464,9.464,0,0,1-1.625.755.146.146,0,0,1-.028.008.162.162,0,0,1-.084-.312,9.51,9.51,0,0,0,1.543-.711,12.772,12.772,0,0,1,1.339-.779,5.206,5.206,0,0,1,.972-1.015,1.5,1.5,0,0,1,.085-.312,3.349,3.349,0,0,1,.27-.521,1.126,1.126,0,0,1,.217-.266,2.064,2.064,0,0,1,.248-.194,9.119,9.119,0,0,1,1.977-.875,29.578,29.578,0,0,1,.715-5.047,14.979,14.979,0,0,1,.733-2,12.17,12.17,0,0,0-1.368-.006,3.711,3.711,0,0,0-.874.137c-.028.009-.1.041-.183.074-.619.933-1.27,1.834-1.96,2.712q-.294.368-.6.729a.159.159,0,0,1,.009.153,13.332,13.332,0,0,1-1.881,2.806,15.5,15.5,0,0,0-1.435,1.956l.268,1.5a.162.162,0,0,1-.32.057l-.206-1.157c-.587.929-1.056,1.744-1.065,1.759a.162.162,0,0,1-.112.079.16.16,0,0,1-.109-.019.162.162,0,0,1-.06-.221c.041-.072.613-1.067,1.287-2.111a.156.156,0,0,1,.026-.039,15.879,15.879,0,0,1,1.49-2.029,11.063,11.063,0,0,0,1.365-1.889c-.34.372-.69.736-1.061,1.082a25.539,25.539,0,0,1-2.8,2.223l-1.456,1.014a5.523,5.523,0,0,0-.666.548l-.638.618a.162.162,0,0,1-.227-.232l.63-.626a5.865,5.865,0,0,1,.7-.589l1.447-1.035c.179-.129.356-.261.533-.393l-1.786.283a.162.162,0,0,1-.186-.135.158.158,0,0,1,.135-.186l2.282-.361a.164.164,0,0,1,.07.006,20.788,20.788,0,0,0,1.683-1.437,23.721,23.721,0,0,0,2.323-2.641c.588-.768,1.153-1.559,1.684-2.366a2.031,2.031,0,0,1-.351-.109c-.032-.014-.06-.029-.09-.043a.325.325,0,0,1-.188-.084l-.016-.016c-.21-.109-.4-.219-.591-.307a2.411,2.411,0,0,0-.835-.242,6.675,6.675,0,0,0-.929.046c-.159.016-.318.034-.473.057-.077.012-.155.024-.229.039l-.058.013a5.73,5.73,0,0,0-1.007.755,14.884,14.884,0,0,1-1.578,1.209.161.161,0,0,1,.022.132l-.576,2.087a.163.163,0,0,1-.128.117.169.169,0,0,1-.072,0,.162.162,0,0,1-.113-.2l.524-1.9-.153.1-1.583,1.5a.165.165,0,0,1-.083.042.162.162,0,0,1-.14-.278l1.6-1.517a21.477,21.477,0,0,0,2.048-1.522c.037-.037.077-.071.116-.106-.073.026-.145.054-.219.079a4.6,4.6,0,0,1-1.3.3l-.4.03-2.056,1.043a.154.154,0,0,1-.045.015.162.162,0,0,1-.1-.3l1.36-.69-1.293.1h-.006a.162.162,0,0,1-.03-.323l1.513-.167-1.193-.681a.162.162,0,1,1,.161-.282l1.506.86a.16.16,0,0,1,.05.045l.517-.057a4.241,4.241,0,0,0,1.165-.313c.39-.148.78-.316,1.159-.491l-.017.008a.956.956,0,0,1,.169-.062l.131-.034c.086-.021.169-.037.253-.053.167-.03.332-.055.5-.077a6.928,6.928,0,0,1,1.025-.083,2.334,2.334,0,0,1,.513.076l-.011-.015a4.912,4.912,0,0,1-.627-1.263,5.2,5.2,0,0,1-.175-.812,18,18,0,0,1-1.626-1.114s-.01,0-.014,0a13.833,13.833,0,0,0-1.97-.849,2.744,2.744,0,0,0-1.034-.116.162.162,0,0,1-.057-.32,2.971,2.971,0,0,1,1.174.122,7.684,7.684,0,0,1,1.034.393c-.018-.02-.039-.039-.057-.059a6.863,6.863,0,0,1-1.178-1.69.162.162,0,0,1,.3-.128,6.71,6.71,0,0,0,1.121,1.6,12.287,12.287,0,0,0,2.253,1.747l-.016-.133c-.02-.189-.035-.378-.049-.566a14.527,14.527,0,0,1-1.37-3.361,13.108,13.108,0,0,0-.7-2.412.162.162,0,1,1,.3-.125,13.173,13.173,0,0,1,.716,2.48,11.7,11.7,0,0,0,1.006,2.617c-.015-.441-.018-.882,0-1.325a7.75,7.75,0,0,1,.146-1.362c.22-.877.5-1.715.777-2.562a.162.162,0,0,1,.31.1v0c-.251.844-.5,1.7-.686,2.55a7.375,7.375,0,0,0-.094,1.283c0,.437.015.875.044,1.312s.073.873.132,1.3a6.79,6.79,0,0,0,.263,1.243,5.239,5.239,0,0,0,1.418,2.019l.081.036a.854.854,0,0,0,.342.071,1.25,1.25,0,0,0,.361-.136,4.29,4.29,0,0,1,1.05-.211,13.646,13.646,0,0,1,1.767-.035,19.314,19.314,0,0,1,1.63-2.832c1.086-1.5,3.366-4.66,3.366-4.66l1.842,3.507s-.537.276-1.118.56a21.448,21.448,0,0,0-4,3.374,12.658,12.658,0,0,0-1.985,4.82,17.038,17.038,0,0,0,.18,7.1,7.4,7.4,0,0,1,.3,1.549,15.061,15.061,0,0,1,2.169.63,24.6,24.6,0,0,0,2.32.974l.623.205a.162.162,0,0,1-.1.309l-.623-.2c-.419-.138-1.086-.414-1.651-.664a3.936,3.936,0,0,1,.849,1.891.163.163,0,0,1-.133.177l-.011,0a.162.162,0,0,1-.179-.144,4.312,4.312,0,0,0-1.256-2.262,14.984,14.984,0,0,0-2.032-.585c0,.011,0,.023-.008.034a8.019,8.019,0,0,1,1.739,2.382c.085.184.162.364.23.541a3.088,3.088,0,0,1,1.2.941c.081.123.158.229.232.329a3.389,3.389,0,0,1,.417.686,2.512,2.512,0,0,1,1.557.955.163.163,0,0,1-.069.219.167.167,0,0,1-.047.016.162.162,0,0,1-.172-.085,1.956,1.956,0,0,0-1.138-.731,4.207,4.207,0,0,1,.1.416,4.848,4.848,0,0,1-.115,1.989.162.162,0,1,1-.311-.092,4.577,4.577,0,0,0,.106-1.84,3.4,3.4,0,0,0-.154-.59.159.159,0,0,1-.057-.141,3.168,3.168,0,0,0-.375-.61c-.077-.1-.158-.215-.242-.343a2.359,2.359,0,0,0-.767-.666,9.278,9.278,0,0,1,.438,2.623c.032.934.021,1.889.021,1.9a.162.162,0,0,1-.133.158l-.031,0a.162.162,0,0,1-.16-.164c0-.01.011-.957-.021-1.884a8.688,8.688,0,0,0-.547-2.888.159.159,0,0,1-.022-.063c-.068-.176-.143-.356-.229-.541a7.816,7.816,0,0,0-1.579-2.2l-.022.042c.008.334.017.669.03,1,.036.839.1,1.683.153,2.524s.132,1.681.244,2.515a8.815,8.815,0,0,0,.6,2.431v0a.044.044,0,0,1-.078.039,8.945,8.945,0,0,1-.752-2.434c-.109-.569-.2-1.141-.276-1.714a17.147,17.147,0,0,1-1.457,4.24,5.084,5.084,0,0,1-1.709,1.7.162.162,0,0,1-.147-.289,4.887,4.887,0,0,0,1.585-1.592,21.591,21.591,0,0,0,1.58-4.876.161.161,0,0,1,.028-.061c-.2-1.541-.37-3.09-.449-4.657-.217-.471-.523-1.085-.781-1.8l-1.446,2.665-.455.839-.228.42-.026.046c.18.379.317,1.339-.784,3.538-.759,1.513-1.558,2.906-2.17,3.9l.264,2.447a.163.163,0,0,1-.133.177l-.011,0a.163.163,0,0,1-.179-.144l-.22-2.038a5.96,5.96,0,0,1-.737,1.023.186.186,0,0,1-.054.018.167.167,0,0,1-.177-.077.151.151,0,0,1,.055-.213,13.247,13.247,0,0,0,.856-1.274v-.007a.162.162,0,0,1,.11-.168c.574-.93,1.334-2.247,2.107-3.787a5.379,5.379,0,0,0,.849-3.01l-.007.011a8.945,8.945,0,0,1-1.31,1.467,24.47,24.47,0,0,1-3.037,2.379,21.48,21.48,0,0,1-3.386,1.844.149.149,0,0,1-.12-.273l.006,0a19.637,19.637,0,0,0,2.127-1.14l-2.873-.408a.162.162,0,0,1-.138-.183" transform="translate(-77.762 -148.193)" fill="#fff"/>
      <path id="Trazado_883135" data-name="Trazado 883135" d="M112.707,242.784a.162.162,0,0,1,.183-.138l.627.089-.684-.835a.162.162,0,1,1,.251-.206l.807.984a.161.161,0,0,1,.035.114l2.065.293a.161.161,0,0,1,.1.059q.395-.252.779-.517a24.1,24.1,0,0,0,2.926-2.4,8.52,8.52,0,0,0,1.2-1.407,4.244,4.244,0,0,0,.218-.389l.219-.426.438-.853,1.682-3.278c-.011-.045-.024-.09-.034-.136a7.5,7.5,0,0,1-.121-1.692,8.01,8.01,0,0,0-1.66.654,1.541,1.541,0,0,0-.187.131.351.351,0,0,0-.069.065.414.414,0,0,0-.063.081,2.918,2.918,0,0,0-.253.43,1.755,1.755,0,0,0-.072.945,9.4,9.4,0,0,1,.143,1.094,6.72,6.72,0,0,1-.052,1.116,6.269,6.269,0,0,1-.239,1.089c-.132.366-.282.672-.423,1.012a.115.115,0,0,1-.145.065.114.114,0,0,1-.069-.146c.12-.336.27-.691.367-1.013a5.948,5.948,0,0,0,.176-1.042,6.389,6.389,0,0,0,0-1.054,9.206,9.206,0,0,0-.192-1.052,4,4,0,0,1-.054-.443,4.724,4.724,0,0,0-.713.794c-.429.615-2.095,2.738-2.165,2.828a.163.163,0,0,1-.1.06.162.162,0,0,1-.156-.26c.014-.018,1.07-1.364,1.73-2.237a7.21,7.21,0,0,0-.695.429,9.464,9.464,0,0,1-1.625.755.146.146,0,0,1-.028.008.162.162,0,0,1-.084-.312,9.51,9.51,0,0,0,1.543-.711,12.772,12.772,0,0,1,1.339-.779,5.206,5.206,0,0,1,.972-1.015,1.5,1.5,0,0,1,.085-.312,3.349,3.349,0,0,1,.27-.521,1.126,1.126,0,0,1,.217-.266,2.064,2.064,0,0,1,.248-.194,9.119,9.119,0,0,1,1.977-.875,29.578,29.578,0,0,1,.715-5.047,14.979,14.979,0,0,1,.733-2,12.17,12.17,0,0,0-1.368-.006,3.711,3.711,0,0,0-.874.137c-.028.009-.1.041-.183.074-.619.933-1.27,1.834-1.96,2.712q-.294.368-.6.729a.159.159,0,0,1,.009.153,13.332,13.332,0,0,1-1.881,2.806,15.5,15.5,0,0,0-1.435,1.956l.268,1.5a.162.162,0,0,1-.32.057l-.206-1.157c-.587.929-1.056,1.744-1.065,1.759a.162.162,0,0,1-.112.079.16.16,0,0,1-.109-.019.162.162,0,0,1-.06-.221c.041-.072.613-1.067,1.287-2.111a.156.156,0,0,1,.026-.039,15.879,15.879,0,0,1,1.49-2.029,11.063,11.063,0,0,0,1.365-1.889c-.34.372-.69.736-1.061,1.082a25.539,25.539,0,0,1-2.8,2.223l-1.456,1.014a5.523,5.523,0,0,0-.666.548l-.638.618a.162.162,0,0,1-.227-.232l.63-.626a5.865,5.865,0,0,1,.7-.589l1.447-1.035c.179-.129.356-.261.533-.393l-1.786.283a.162.162,0,0,1-.186-.135.158.158,0,0,1,.135-.186l2.282-.361a.164.164,0,0,1,.07.006,20.788,20.788,0,0,0,1.683-1.437,23.721,23.721,0,0,0,2.323-2.641c.588-.768,1.153-1.559,1.684-2.366a2.031,2.031,0,0,1-.351-.109c-.032-.014-.06-.029-.09-.043a.325.325,0,0,1-.188-.084l-.016-.016c-.21-.109-.4-.219-.591-.307a2.411,2.411,0,0,0-.835-.242,6.675,6.675,0,0,0-.929.046c-.159.016-.318.034-.473.057-.077.012-.155.024-.229.039l-.058.013a5.73,5.73,0,0,0-1.007.755,14.884,14.884,0,0,1-1.578,1.209.161.161,0,0,1,.022.132l-.576,2.087a.163.163,0,0,1-.128.117.169.169,0,0,1-.072,0,.162.162,0,0,1-.113-.2l.524-1.9-.153.1-1.583,1.5a.165.165,0,0,1-.083.042.162.162,0,0,1-.14-.278l1.6-1.517a21.477,21.477,0,0,0,2.048-1.522c.037-.037.077-.071.116-.106-.073.026-.145.054-.219.079a4.6,4.6,0,0,1-1.3.3l-.4.03-2.056,1.043a.154.154,0,0,1-.045.015.162.162,0,0,1-.1-.3l1.36-.69-1.293.1h-.006a.162.162,0,0,1-.03-.323l1.513-.167-1.193-.681a.162.162,0,1,1,.161-.282l1.506.86a.16.16,0,0,1,.05.045l.517-.057a4.241,4.241,0,0,0,1.165-.313c.39-.148.78-.316,1.159-.491l-.017.008a.956.956,0,0,1,.169-.062l.131-.034c.086-.021.169-.037.253-.053.167-.03.332-.055.5-.077a6.928,6.928,0,0,1,1.025-.083,2.334,2.334,0,0,1,.513.076l-.011-.015a4.912,4.912,0,0,1-.627-1.263,5.2,5.2,0,0,1-.175-.812,18,18,0,0,1-1.626-1.114s-.01,0-.014,0a13.833,13.833,0,0,0-1.97-.849,2.744,2.744,0,0,0-1.034-.116.162.162,0,0,1-.057-.32,2.971,2.971,0,0,1,1.174.122,7.684,7.684,0,0,1,1.034.393c-.018-.02-.039-.039-.057-.059a6.863,6.863,0,0,1-1.178-1.69.162.162,0,0,1,.3-.128,6.71,6.71,0,0,0,1.121,1.6,12.287,12.287,0,0,0,2.253,1.747l-.016-.133c-.02-.189-.035-.378-.049-.566a14.527,14.527,0,0,1-1.37-3.361,13.108,13.108,0,0,0-.7-2.412.162.162,0,1,1,.3-.125,13.173,13.173,0,0,1,.716,2.48,11.7,11.7,0,0,0,1.006,2.617c-.015-.441-.018-.882,0-1.325a7.75,7.75,0,0,1,.146-1.362c.22-.877.5-1.715.777-2.562a.162.162,0,0,1,.31.1v0c-.251.844-.5,1.7-.686,2.55a7.375,7.375,0,0,0-.094,1.283c0,.437.015.875.044,1.312s.073.873.132,1.3a6.79,6.79,0,0,0,.263,1.243,5.239,5.239,0,0,0,1.418,2.019l.081.036a.854.854,0,0,0,.342.071,1.25,1.25,0,0,0,.361-.136,4.29,4.29,0,0,1,1.05-.211,13.646,13.646,0,0,1,1.767-.035,19.314,19.314,0,0,1,1.63-2.832c1.086-1.5,3.366-4.66,3.366-4.66l1.842,3.507s-.537.276-1.118.56a21.448,21.448,0,0,0-4,3.374,12.658,12.658,0,0,0-1.985,4.82,17.038,17.038,0,0,0,.18,7.1,7.4,7.4,0,0,1,.3,1.549,15.061,15.061,0,0,1,2.169.63,24.6,24.6,0,0,0,2.32.974l.623.205a.162.162,0,0,1-.1.309l-.623-.2c-.419-.138-1.086-.414-1.651-.664a3.936,3.936,0,0,1,.849,1.891.163.163,0,0,1-.133.177l-.011,0a.162.162,0,0,1-.179-.144,4.312,4.312,0,0,0-1.256-2.262,14.984,14.984,0,0,0-2.032-.585c0,.011,0,.023-.008.034a8.019,8.019,0,0,1,1.739,2.382c.085.184.162.364.23.541a3.088,3.088,0,0,1,1.2.941c.081.123.158.229.232.329a3.389,3.389,0,0,1,.417.686,2.512,2.512,0,0,1,1.557.955.163.163,0,0,1-.069.219.167.167,0,0,1-.047.016.162.162,0,0,1-.172-.085,1.956,1.956,0,0,0-1.138-.731,4.207,4.207,0,0,1,.1.416,4.848,4.848,0,0,1-.115,1.989.162.162,0,1,1-.311-.092,4.577,4.577,0,0,0,.106-1.84,3.4,3.4,0,0,0-.154-.59.159.159,0,0,1-.057-.141,3.168,3.168,0,0,0-.375-.61c-.077-.1-.158-.215-.242-.343a2.359,2.359,0,0,0-.767-.666,9.278,9.278,0,0,1,.438,2.623c.032.934.021,1.889.021,1.9a.162.162,0,0,1-.133.158l-.031,0a.162.162,0,0,1-.16-.164c0-.01.011-.957-.021-1.884a8.688,8.688,0,0,0-.547-2.888.159.159,0,0,1-.022-.063c-.068-.176-.143-.356-.229-.541a7.816,7.816,0,0,0-1.579-2.2l-.022.042c.008.334.017.669.03,1,.036.839.1,1.683.153,2.524s.132,1.681.244,2.515a8.815,8.815,0,0,0,.6,2.431v0a.044.044,0,0,1-.078.039,8.945,8.945,0,0,1-.752-2.434c-.109-.569-.2-1.141-.276-1.714a17.147,17.147,0,0,1-1.457,4.24,5.084,5.084,0,0,1-1.709,1.7.162.162,0,0,1-.147-.289,4.887,4.887,0,0,0,1.585-1.592,21.591,21.591,0,0,0,1.58-4.876.161.161,0,0,1,.028-.061c-.2-1.541-.37-3.09-.449-4.657-.217-.471-.523-1.085-.781-1.8l-1.446,2.665-.455.839-.228.42-.026.046c.18.379.317,1.339-.784,3.538-.759,1.513-1.558,2.906-2.17,3.9l.264,2.447a.163.163,0,0,1-.133.177l-.011,0a.163.163,0,0,1-.179-.144l-.22-2.038a5.96,5.96,0,0,1-.737,1.023.186.186,0,0,1-.054.018.167.167,0,0,1-.177-.077.151.151,0,0,1,.055-.213,13.247,13.247,0,0,0,.856-1.274v-.007a.162.162,0,0,1,.11-.168c.574-.93,1.334-2.247,2.107-3.787a5.379,5.379,0,0,0,.849-3.01l-.007.011a8.945,8.945,0,0,1-1.31,1.467,24.47,24.47,0,0,1-3.037,2.379,21.48,21.48,0,0,1-3.386,1.844.149.149,0,0,1-.12-.273l.006,0a19.637,19.637,0,0,0,2.127-1.14l-2.873-.408A.162.162,0,0,1,112.707,242.784Z" transform="translate(-77.762 -148.193)" fill="none" stroke="#263238" stroke-miterlimit="10" stroke-width="1"/>
      <path id="Trazado_883136" data-name="Trazado 883136" d="M171.087,224.588l-2.092-2.917.529-.733,1.842,3.507-.28.142" transform="translate(-117.07 -153.053)" fill="#263238"/>
      <path id="Trazado_883137" data-name="Trazado 883137" d="M171.087,224.588l-2.092-2.917.529-.733,1.842,3.507Z" transform="translate(-117.07 -153.053)" fill="none" stroke="#263238" stroke-miterlimit="10" stroke-width="1"/>
      <path id="Trazado_883138" data-name="Trazado 883138" d="M161.89,231.84l.423-.585a5.517,5.517,0,0,0,1.526,1.958c-.167.133-.338.273-.511.417a6.111,6.111,0,0,1-1.438-1.789" transform="translate(-112.148 -160.2)" fill="#263238"/>
      <path id="Trazado_883139" data-name="Trazado 883139" d="M161.89,231.84l.423-.585a5.517,5.517,0,0,0,1.526,1.958c-.167.133-.338.273-.511.417A6.111,6.111,0,0,1,161.89,231.84Z" transform="translate(-112.148 -160.2)" fill="none" stroke="#263238" stroke-miterlimit="10" stroke-width="1"/>
      <path id="Trazado_883140" data-name="Trazado 883140" d="M166.8,229.6a7.345,7.345,0,0,1-1.811-2.07l.429-.594a6.685,6.685,0,0,0,1.954,2.28c-.14.081-.337.213-.573.383" transform="translate(-114.297 -157.205)" fill="#263238"/>
      <path id="Trazado_883141" data-name="Trazado 883141" d="M166.8,229.6a7.345,7.345,0,0,1-1.811-2.07l.429-.594a6.685,6.685,0,0,0,1.954,2.28C167.236,229.293,167.039,229.425,166.8,229.6Z" transform="translate(-114.297 -157.205)" fill="none" stroke="#263238" stroke-miterlimit="10" stroke-width="1"/>
      <path id="Trazado_883142" data-name="Trazado 883142" d="M156.042,240.815c.111-.207.224-.411.338-.609a7.3,7.3,0,0,0,1.2,1.185c-.11.116-.214.229-.307.336-.042.049-.077.105-.116.156a7.644,7.644,0,0,1-1.115-1.068" transform="translate(-108.096 -166.4)" fill="#263238"/>
      <path id="Trazado_883143" data-name="Trazado 883143" d="M156.042,240.815c.111-.207.224-.411.338-.609a7.3,7.3,0,0,0,1.2,1.185c-.11.116-.214.229-.307.336-.042.049-.077.105-.116.156A7.644,7.644,0,0,1,156.042,240.815Z" transform="translate(-108.096 -166.4)" fill="none" stroke="#263238" stroke-miterlimit="10" stroke-width="1"/>
      <path id="Trazado_883144" data-name="Trazado 883144" d="M158.748,236.314c.1-.159.208-.313.311-.456l.079-.109a8.754,8.754,0,0,0,1.415,1.508c-.167.147-.33.3-.487.442a9.2,9.2,0,0,1-1.318-1.386" transform="translate(-109.971 -163.313)" fill="#263238"/>
      <path id="Trazado_883145" data-name="Trazado 883145" d="M158.748,236.314c.1-.159.208-.313.311-.456l.079-.109a8.754,8.754,0,0,0,1.415,1.508c-.167.147-.33.3-.487.442A9.2,9.2,0,0,1,158.748,236.314Z" transform="translate(-109.971 -163.313)" fill="none" stroke="#263238" stroke-miterlimit="10" stroke-width="1"/>
      <path id="Trazado_883146" data-name="Trazado 883146" d="M168.853,174.707c0-.065-.055-1.6.02-2.823.059-.95-.333-4.174-.875-8.637l-.089-.731c-.625-5.15-1.448-11.691-1.456-11.757l3.221-.405c.008.065.832,6.614,1.458,11.771l.089.731a79.449,79.449,0,0,1,.893,9.229c-.066,1.063-.016,2.493-.016,2.508Z" transform="translate(-115.309 -104.156)" fill="#263238"/>
      <path id="Trazado_883147" data-name="Trazado 883147" d="M168.853,174.707c0-.065-.055-1.6.02-2.823.059-.95-.333-4.174-.875-8.637l-.089-.731c-.625-5.15-1.448-11.691-1.456-11.757l3.221-.405c.008.065.832,6.614,1.458,11.771l.089.731a79.449,79.449,0,0,1,.893,9.229c-.066,1.063-.016,2.493-.016,2.508Z" transform="translate(-115.309 -104.156)" fill="none" stroke="#263238" stroke-miterlimit="10" stroke-width="1"/>
      <path id="Trazado_883148" data-name="Trazado 883148" d="M160.822,130.827s-.611,2.9-.229,3.592a.908.908,0,0,0,1.07.458s-.764,1.146-.382,1.528,1.987.917,2.216.688l.229-.229a2.913,2.913,0,0,0,1.146.229c.382-.077,1.223-.458,1.376-1.07a4.6,4.6,0,0,0,.153-1.223c0-.23.841-.535.764-1.452a12.075,12.075,0,0,0-.688-2.674c-.153-.382-.229-1.223-2.216-.993s-3.057.535-3.439,1.146" transform="translate(-111.162 -89.808)" fill="#fff"/>
      <path id="Trazado_883149" data-name="Trazado 883149" d="M160.822,130.827s-.611,2.9-.229,3.592a.908.908,0,0,0,1.07.458s-.764,1.146-.382,1.528,1.987.917,2.216.688l.229-.229a2.913,2.913,0,0,0,1.146.229c.382-.077,1.223-.458,1.376-1.07a4.6,4.6,0,0,0,.153-1.223c0-.23.841-.535.764-1.452a12.075,12.075,0,0,0-.688-2.674c-.153-.382-.229-1.223-2.216-.993S161.2,130.216,160.822,130.827Z" transform="translate(-111.162 -89.808)" fill="none" stroke="#263238" stroke-miterlimit="10" stroke-width="1"/>
      <path id="Trazado_883150" data-name="Trazado 883150" d="M164.358,145.667a3.441,3.441,0,0,1,1.262-.45" transform="translate(-113.857 -100.598)" fill="none" stroke="#263238" stroke-miterlimit="10" stroke-width="1"/>
      <path id="Trazado_883151" data-name="Trazado 883151" d="M176.648,145.269a1.852,1.852,0,0,0-1.389-.506" transform="translate(-121.409 -100.277)" fill="none" stroke="#263238" stroke-miterlimit="10" stroke-width="1"/>
      <path id="Trazado_883152" data-name="Trazado 883152" d="M166.362,157.128s-.407.3-.282.66.068.89.239,1.161,1.015.29,1.639.216a7.2,7.2,0,0,0,1.024-.109c.269-.083,1.036-.6,1.043-.909s.031-1.332-.191-1.337a16.68,16.68,0,0,1-1.787.4,14,14,0,0,1-1.686-.084" transform="translate(-115.034 -108.628)" fill="#fff"/>
      <path id="Trazado_883153" data-name="Trazado 883153" d="M166.362,157.128s-.407.3-.282.66.068.89.239,1.161,1.015.29,1.639.216a7.2,7.2,0,0,0,1.024-.109c.269-.083,1.036-.6,1.043-.909s.031-1.332-.191-1.337a16.68,16.68,0,0,1-1.787.4A14,14,0,0,1,166.362,157.128Z" transform="translate(-115.034 -108.628)" fill="none" stroke="#263238" stroke-miterlimit="10" stroke-width="1"/>
      <path id="Trazado_883154" data-name="Trazado 883154" d="M167.611,165.544s-.407.3-.282.66.068.89.239,1.161,1.015.29,1.639.216a7.2,7.2,0,0,0,1.024-.109c.269-.083,1.036-.6,1.043-.909s.031-1.332-.191-1.337a16.7,16.7,0,0,1-1.787.4,14.007,14.007,0,0,1-1.686-.084" transform="translate(-115.899 -114.458)" fill="#fff"/>
      <path id="Trazado_883155" data-name="Trazado 883155" d="M167.611,165.544s-.407.3-.282.66.068.89.239,1.161,1.015.29,1.639.216a7.2,7.2,0,0,0,1.024-.109c.269-.083,1.036-.6,1.043-.909s.031-1.332-.191-1.337a16.7,16.7,0,0,1-1.787.4A14.007,14.007,0,0,1,167.611,165.544Z" transform="translate(-115.899 -114.458)" fill="none" stroke="#263238" stroke-miterlimit="10" stroke-width="1"/>
      <path id="Trazado_883156" data-name="Trazado 883156" d="M168.86,173.96s-.407.3-.282.66.068.89.239,1.161,1.015.29,1.639.216a7.2,7.2,0,0,0,1.024-.109c.269-.083,1.036-.6,1.043-.909s.031-1.332-.191-1.337a16.7,16.7,0,0,1-1.787.4,14,14,0,0,1-1.686-.084" transform="translate(-116.764 -120.289)" fill="#fff"/>
      <path id="Trazado_883157" data-name="Trazado 883157" d="M168.86,173.96s-.407.3-.282.66.068.89.239,1.161,1.015.29,1.639.216a7.2,7.2,0,0,0,1.024-.109c.269-.083,1.036-.6,1.043-.909s.031-1.332-.191-1.337a16.7,16.7,0,0,1-1.787.4A14,14,0,0,1,168.86,173.96Z" transform="translate(-116.764 -120.289)" fill="none" stroke="#263238" stroke-miterlimit="10" stroke-width="1"/>
      <path id="Trazado_883158" data-name="Trazado 883158" d="M170.108,182.376s-.407.3-.282.66.068.89.239,1.161,1.015.29,1.639.216a7.2,7.2,0,0,0,1.024-.109c.269-.083,1.036-.6,1.043-.909s.031-1.332-.191-1.337a16.7,16.7,0,0,1-1.787.4,14,14,0,0,1-1.686-.084" transform="translate(-117.629 -126.119)" fill="#fff"/>
      <path id="Trazado_883159" data-name="Trazado 883159" d="M170.108,182.376s-.407.3-.282.66.068.89.239,1.161,1.015.29,1.639.216a7.2,7.2,0,0,0,1.024-.109c.269-.083,1.036-.6,1.043-.909s.031-1.332-.191-1.337a16.7,16.7,0,0,1-1.787.4A14,14,0,0,1,170.108,182.376Z" transform="translate(-117.629 -126.119)" fill="none" stroke="#263238" stroke-miterlimit="10" stroke-width="1"/>
      <path id="Trazado_883160" data-name="Trazado 883160" d="M170.769,191.212s-.407.3-.282.66.068.89.239,1.161,1.015.29,1.639.216a7.2,7.2,0,0,0,1.024-.109c.269-.083,1.036-.6,1.043-.909s.031-1.332-.191-1.337a16.779,16.779,0,0,1-1.787.4,14,14,0,0,1-1.686-.084" transform="translate(-118.087 -132.24)" fill="#fff"/>
      <path id="Trazado_883161" data-name="Trazado 883161" d="M170.769,191.212s-.407.3-.282.66.068.89.239,1.161,1.015.29,1.639.216a7.2,7.2,0,0,0,1.024-.109c.269-.083,1.036-.6,1.043-.909s.031-1.332-.191-1.337a16.779,16.779,0,0,1-1.787.4A14,14,0,0,1,170.769,191.212Z" transform="translate(-118.087 -132.24)" fill="none" stroke="#263238" stroke-miterlimit="10" stroke-width="1"/>
      <path id="Trazado_883162" data-name="Trazado 883162" d="M172,200.351s-.407.3-.282.66.068.89.239,1.161,1.015.29,1.639.216a7.2,7.2,0,0,0,1.024-.109c.269-.083,1.036-.6,1.043-.909s.031-1.332-.191-1.337a16.7,16.7,0,0,1-1.787.4,14,14,0,0,1-1.686-.084" transform="translate(-118.94 -138.571)" fill="#fff"/>
      <path id="Trazado_883163" data-name="Trazado 883163" d="M172,200.351s-.407.3-.282.66.068.89.239,1.161,1.015.29,1.639.216a7.2,7.2,0,0,0,1.024-.109c.269-.083,1.036-.6,1.043-.909s.031-1.332-.191-1.337a16.7,16.7,0,0,1-1.787.4A14,14,0,0,1,172,200.351Z" transform="translate(-118.94 -138.571)" fill="none" stroke="#263238" stroke-miterlimit="10" stroke-width="1"/>
      <path id="Trazado_883164" data-name="Trazado 883164" d="M171.6,211.9s-.355-.008.482.278a4.418,4.418,0,0,1,1.36.743s.451-.3.813-.559.593-.653.856-.513a7.322,7.322,0,0,1,.738,2.639c.072.713-1.287,3.746-1.287,3.746a3.874,3.874,0,0,0-1.1-.292c-.444-.01-.583.208-.8.2s-.57-.324-1.119-1.537a12.146,12.146,0,0,1-.75-2.106,14.459,14.459,0,0,1,.816-2.6" transform="translate(-118.312 -146.733)" fill="#fff"/>
      <path id="Trazado_883165" data-name="Trazado 883165" d="M171.6,211.9s-.355-.008.482.278a4.418,4.418,0,0,1,1.36.743s.451-.3.813-.559.593-.653.856-.513a7.322,7.322,0,0,1,.738,2.639c.072.713-1.287,3.746-1.287,3.746a3.874,3.874,0,0,0-1.1-.292c-.444-.01-.583.208-.8.2s-.57-.324-1.119-1.537a12.146,12.146,0,0,1-.75-2.106A14.459,14.459,0,0,1,171.6,211.9Z" transform="translate(-118.312 -146.733)" fill="none" stroke="#263238" stroke-miterlimit="10" stroke-width="1"/>
      <path id="Trazado_883166" data-name="Trazado 883166" d="M117.9,91.64a5.309,5.309,0,0,0-.229-1.376,8.015,8.015,0,0,0-.917-2.216c-.611-1.07-1.375-2.445-.382-2.445s2.6,2.292,3.057,1.3-.306-2.6-1.681-3.668-2.522-2.216-5.2-2.216-6.037-.076-7.565-.076-3.744-.382-4.738-.23-2.369.459-2.827-.382.458-2.292.917-2.751a21.112,21.112,0,0,0,2.9-3.592c.458-.993,3.973-1.834,7.336-1.3s4.2,1.07,4.738,2.139,1.375,2.675,2.827,3.21,2.063.611,2.369,1.223l.305.611s.764-.459.917.076l.153.535s.764.229.688.535l-.077.306s.841.535.535.917-.382.535-.229.764.535-.077.688.688.535.458.841,2.9-.306,2.369-.153,3.592.077,1.3.077,1.3a4.815,4.815,0,0,0-4.356.153" transform="translate(-67.403 -50.239)" fill="#263238"/>
      <path id="Trazado_883167" data-name="Trazado 883167" d="M117.9,91.64a5.309,5.309,0,0,0-.229-1.376,8.015,8.015,0,0,0-.917-2.216c-.611-1.07-1.375-2.445-.382-2.445s2.6,2.292,3.057,1.3-.306-2.6-1.681-3.668-2.522-2.216-5.2-2.216-6.037-.076-7.565-.076-3.744-.382-4.738-.23-2.369.459-2.827-.382.458-2.292.917-2.751a21.112,21.112,0,0,0,2.9-3.592c.458-.993,3.973-1.834,7.336-1.3s4.2,1.07,4.738,2.139,1.375,2.675,2.827,3.21,2.063.611,2.369,1.223l.305.611s.764-.459.917.076l.153.535s.764.229.688.535l-.077.306s.841.535.535.917-.382.535-.229.764.535-.077.688.688.535.458.841,2.9-.306,2.369-.153,3.592.077,1.3.077,1.3A4.815,4.815,0,0,0,117.9,91.64Z" transform="translate(-67.403 -50.239)" fill="none" stroke="#263238" stroke-miterlimit="10" stroke-width="1"/>
      <path id="Trazado_883168" data-name="Trazado 883168" d="M112.579,195.981s-.607-1.348-2.966-1.82-6.74,3.168-9.436,6.538-4.381,10.042-4.583,10.312-1.348,1.281-2.224,5.325-.674,10.919-.876,11.525a20.946,20.946,0,0,0-.741,6.2c.269,1.82.944,3.842,3.033,4.516s4.111.472,5.8.809,5.662,1.685,8.088.607,6.4-5.662,7.616-9.5a23.569,23.569,0,0,0,.135-11.66c-.741-2.561-.741-6.605-1.617-12a32.4,32.4,0,0,1-.674-7.414c-.067-3.235-1.55-3.437-1.55-3.437" transform="translate(-63.523 -134.475)" fill="#ffb27e"/>
      <path id="Trazado_883169" data-name="Trazado 883169" d="M112.579,195.981s-.607-1.348-2.966-1.82-6.74,3.168-9.436,6.538-4.381,10.042-4.583,10.312-1.348,1.281-2.224,5.325-.674,10.919-.876,11.525a20.946,20.946,0,0,0-.741,6.2c.269,1.82.944,3.842,3.033,4.516s4.111.472,5.8.809,5.662,1.685,8.088.607,6.4-5.662,7.616-9.5a23.569,23.569,0,0,0,.135-11.66c-.741-2.561-.741-6.605-1.617-12a32.4,32.4,0,0,1-.674-7.414C114.062,196.184,112.579,195.981,112.579,195.981Z" transform="translate(-63.523 -134.475)" fill="none" stroke="#263238" stroke-miterlimit="10" stroke-width="1"/>
      <path id="Trazado_883170" data-name="Trazado 883170" d="M163.849,290.362a5.07,5.07,0,0,0,1.677-.906" transform="translate(-113.505 -200.518)" fill="none" stroke="#263238" stroke-miterlimit="10" stroke-width="1"/>
      <path id="Trazado_883171" data-name="Trazado 883171" d="M104.6,252.6s.067,7.144,3.033,9.5c2.262,1.8,8.8,3.677,13.358,3.121" transform="translate(-72.458 -174.989)" fill="none" stroke="#263238" stroke-miterlimit="10" stroke-width="1"/>
      <path id="Trazado_883172" data-name="Trazado 883172" d="M106.27,330.636a7.67,7.67,0,0,0,2.115,2.242" transform="translate(-73.617 -229.045)" fill="none" stroke="#263238" stroke-miterlimit="10" stroke-width="1"/>
      <path id="Trazado_883173" data-name="Trazado 883173" d="M95.165,307.223a37.329,37.329,0,0,0,3.024,6.593" transform="translate(-65.925 -212.826)" fill="none" stroke="#263238" stroke-miterlimit="10" stroke-width="1"/>
    </g>
  </g>
  <g id="Grupo_1103558" data-name="Grupo 1103558">
    <g id="Grupo_1103557" data-name="Grupo 1103557" clip-path="url(#clip-path)">
      <path id="Trazado_883174" data-name="Trazado 883174" d="M313.577,136.967a18.96,18.96,0,1,1-18.96-18.96c.175,0,.347,0,.518.006a18.945,18.945,0,0,1,18.442,18.954" transform="translate(-190.959 -81.748)" fill="#ffb27e"/>
      <path id="Trazado_883175" data-name="Trazado 883175" d="M313.577,136.967a18.96,18.96,0,1,1-18.96-18.96c.175,0,.347,0,.518.006a18.945,18.945,0,0,1,18.442,18.954Z" transform="translate(-190.959 -81.748)" fill="none" stroke="#263238" stroke-miterlimit="10" stroke-width="1"/>
      <path id="Trazado_883176" data-name="Trazado 883176" d="M322.7,144.473l-2.36.693c-.952-1.4-1.938-4.692-2.721-7.848l-.145-.588c-.12-.491-.232-.973-.34-1.441-.045-.2-.091-.395-.133-.587-.123-.546-.235-1.064-.338-1.546-.042-.2-.084-.4-.124-.588h0c-.313-1.519-.5-2.535-.5-2.535-.627,1-1.257,1.98-1.872,2.914-.108.169-.22.338-.332.5q-.407.615-.8,1.2l-.341.5c-.208.3-.41.6-.609.889q-.176.253-.344.5c-2.327,3.351-4.036,5.576-4.036,5.576L306.318,141s1.272-1.634,3.813-5.564q.158-.248.326-.506c.223-.347.452-.708.693-1.088l.325-.512c.214-.344.44-.7.672-1.073v0q.158-.253.308-.515a20.244,20.244,0,0,0,.925-1.82c.09-.2.178-.4.262-.6.353-.844.666-1.715.94-2.589.064-.2.124-.4.184-.6.344-1.163.624-2.32.85-3.42.045-.2.084-.4.12-.591h0c.3-1.567.506-2.987.636-4.087a18.783,18.783,0,0,1,2.658.259c-.211,1.124-.449,2.565-.618,4.087-.024.2-.042.395-.063.6-.1,1.052-.166,2.131-.163,3.155,0,.2.006.407.012.6.009.323.027.639.054.946.042.479.12,1.034.229,1.643.036.2.072.4.115.6.115.582.25,1.2.4,1.848.045.193.093.389.142.588.132.542.274,1.1.422,1.657.051.2.1.389.154.585h0c.151.561.3,1.127.464,1.685.054.2.108.389.166.582,1.154,4.027,2.348,7.61,2.348,7.61" transform="translate(-212.199 -81.762)" fill="#fff"/>
      <path id="Trazado_883177" data-name="Trazado 883177" d="M322.7,144.473l-2.36.693c-.952-1.4-1.938-4.692-2.721-7.848l-.145-.588c-.12-.491-.232-.973-.34-1.441-.045-.2-.091-.395-.133-.587-.123-.546-.235-1.064-.338-1.546-.042-.2-.084-.4-.124-.588h0c-.313-1.519-.5-2.535-.5-2.535-.627,1-1.257,1.98-1.872,2.914-.108.169-.22.338-.332.5q-.407.615-.8,1.2l-.341.5c-.208.3-.41.6-.609.889q-.176.253-.344.5c-2.327,3.351-4.036,5.576-4.036,5.576L306.318,141s1.272-1.634,3.813-5.564q.158-.248.326-.506c.223-.347.452-.708.693-1.088l.325-.512c.214-.344.44-.7.672-1.073v0q.158-.253.308-.515a20.244,20.244,0,0,0,.925-1.82c.09-.2.178-.4.262-.6.353-.844.666-1.715.94-2.589.064-.2.124-.4.184-.6.344-1.163.624-2.32.85-3.42.045-.2.084-.4.12-.591h0c.3-1.567.506-2.987.636-4.087a18.783,18.783,0,0,1,2.658.259c-.211,1.124-.449,2.565-.618,4.087-.024.2-.042.395-.063.6-.1,1.052-.166,2.131-.163,3.155,0,.2.006.407.012.6.009.323.027.639.054.946.042.479.12,1.034.229,1.643.036.2.072.4.115.6.115.582.25,1.2.4,1.848.045.193.093.389.142.588.132.542.274,1.1.422,1.657.051.2.1.389.154.585h0c.151.561.3,1.127.464,1.685.054.2.108.389.166.582C321.5,140.89,322.7,144.473,322.7,144.473Z" transform="translate(-212.199 -81.762)" fill="none" stroke="#263238" stroke-miterlimit="10" stroke-width="1"/>
      <path id="Trazado_883178" data-name="Trazado 883178" d="M339.378,131.586c-.024.2-.042.395-.063.6l-2.736-.265c.045-.2.084-.4.12-.591h0Z" transform="translate(-233.161 -90.975)" fill="#263238"/>
      <path id="Trazado_883179" data-name="Trazado 883179" d="M336.834,144.985h-3.62c.063-.2.124-.4.184-.6h3.424c0,.2.006.407.012.6" transform="translate(-230.831 -100.019)" fill="#263238"/>
      <path id="Trazado_883180" data-name="Trazado 883180" d="M334.521,155.372H329.3c.09-.2.178-.4.262-.6h4.843c.036.2.073.4.115.6" transform="translate(-228.12 -107.215)" fill="#263238"/>
      <path id="Trazado_883181" data-name="Trazado 883181" d="M318.727,173.549l1.609,1.1.34-.5-1.624-1.106Z" transform="translate(-220.795 -119.874)" fill="#263238"/>
      <path id="Trazado_883182" data-name="Trazado 883182" d="M322.367,167.835l1.558,1.317-.344.5-1.54-1.306.325-.512" transform="translate(-223.091 -116.266)" fill="#263238"/>
      <path id="Trazado_883183" data-name="Trazado 883183" d="M327.3,163.864c-.108.169-.22.338-.332.5l-1.685-1.193v0q.159-.253.308-.515Z" transform="translate(-225.34 -112.678)" fill="#263238"/>
      <path id="Trazado_883184" data-name="Trazado 883184" d="M342.183,163.331l-2.481.8c-.042-.2-.084-.4-.124-.588l2.462-.8c.045.193.093.389.142.588" transform="translate(-235.24 -112.739)" fill="#263238"/>
      <path id="Trazado_883185" data-name="Trazado 883185" d="M343.8,170.636l-2.586.693c-.045-.2-.09-.395-.132-.588l2.565-.69c.051.2.1.389.154.585" transform="translate(-236.28 -117.801)" fill="#263238"/>
      <path id="Trazado_883186" data-name="Trazado 883186" d="M345.5,178.019l-2.733.455-.145-.588,2.712-.449c.054.2.108.389.166.582" transform="translate(-237.346 -122.918)" fill="#263238"/>
      <path id="Trazado_883187" data-name="Trazado 883187" d="M313.089,189.182a1.806,1.806,0,1,0-1.806,1.806,1.806,1.806,0,0,0,1.806-1.806" transform="translate(-214.387 -129.803)" fill="#fff"/>
      <circle id="Elipse_11769" data-name="Elipse 11769" cx="1.806" cy="1.806" r="1.806" transform="translate(95.09 57.573)" fill="none" stroke="#263238" stroke-miterlimit="10" stroke-width="1"/>
      <path id="Trazado_883188" data-name="Trazado 883188" d="M304.058,182.4a1.806,1.806,0,1,0-1.806,1.806,1.806,1.806,0,0,0,1.806-1.806" transform="translate(-208.131 -125.105)" fill="#fff"/>
      <circle id="Elipse_11770" data-name="Elipse 11770" cx="1.806" cy="1.806" r="1.806" transform="translate(92.315 55.489)" fill="none" stroke="#263238" stroke-miterlimit="10" stroke-width="1"/>
      <path id="Trazado_883189" data-name="Trazado 883189" d="M313.067,177.068a1.806,1.806,0,1,0-1.806,1.806,1.806,1.806,0,0,0,1.806-1.806" transform="translate(-214.372 -121.411)" fill="#fff"/>
      <circle id="Elipse_11771" data-name="Elipse 11771" cx="1.806" cy="1.806" r="1.806" transform="translate(95.083 53.851)" fill="none" stroke="#263238" stroke-miterlimit="10" stroke-width="1"/>
      <path id="Trazado_883190" data-name="Trazado 883190" d="M316.744,182.216a1.806,1.806,0,1,0-1.806,1.806,1.806,1.806,0,0,0,1.806-1.806" transform="translate(-216.919 -124.977)" fill="#fff"/>
      <circle id="Elipse_11772" data-name="Elipse 11772" cx="1.806" cy="1.806" r="1.806" transform="translate(96.213 55.433)" fill="none" stroke="#263238" stroke-miterlimit="10" stroke-width="1"/>
      <path id="Trazado_883191" data-name="Trazado 883191" d="M299.129,178.146a1.806,1.806,0,1,0-1.806,1.806,1.806,1.806,0,0,0,1.806-1.806" transform="translate(-204.716 -122.158)" fill="#fff"/>
      <circle id="Elipse_11773" data-name="Elipse 11773" cx="1.806" cy="1.806" r="1.806" transform="translate(90.801 54.182)" fill="none" stroke="#263238" stroke-miterlimit="10" stroke-width="1"/>
      <path id="Trazado_883192" data-name="Trazado 883192" d="M293.219,189.773a1.806,1.806,0,1,0-1.806,1.806,1.806,1.806,0,0,0,1.806-1.806" transform="translate(-200.622 -130.212)" fill="#fff"/>
      <circle id="Elipse_11774" data-name="Elipse 11774" cx="1.806" cy="1.806" r="1.806" transform="matrix(0.995, -0.099, 0.099, 0.995, 88.816, 57.942)" fill="none" stroke="#263238" stroke-miterlimit="10" stroke-width="1"/>
      <path id="Trazado_883193" data-name="Trazado 883193" d="M299.1,189.773a1.806,1.806,0,1,0-1.806,1.806,1.806,1.806,0,0,0,1.806-1.806" transform="translate(-204.694 -130.212)" fill="#fff"/>
      <circle id="Elipse_11775" data-name="Elipse 11775" cx="1.806" cy="1.806" r="1.806" transform="matrix(0.995, -0.099, 0.099, 0.995, 90.622, 57.942)" fill="none" stroke="#263238" stroke-miterlimit="10" stroke-width="1"/>
      <path id="Trazado_883194" data-name="Trazado 883194" d="M305.409,196.221a1.806,1.806,0,1,0-1.806,1.806,1.806,1.806,0,0,0,1.806-1.806" transform="translate(-209.067 -134.679)" fill="#fff"/>
      <circle id="Elipse_11776" data-name="Elipse 11776" cx="1.806" cy="1.806" r="1.806" transform="translate(92.73 59.736)" fill="none" stroke="#263238" stroke-miterlimit="10" stroke-width="1"/>
      <path id="Trazado_883195" data-name="Trazado 883195" d="M317.727,199.9a1.806,1.806,0,1,0-1.806,1.806,1.806,1.806,0,0,0,1.806-1.806" transform="translate(-217.6 -137.226)" fill="#fff"/>
      <circle id="Elipse_11777" data-name="Elipse 11777" cx="1.806" cy="1.806" r="1.806" transform="matrix(0.995, -0.099, 0.099, 0.995, 96.346, 61.053)" fill="none" stroke="#263238" stroke-miterlimit="10" stroke-width="1"/>
      <path id="Trazado_883196" data-name="Trazado 883196" d="M323.184,189.609a1.806,1.806,0,1,0-1.806,1.806,1.806,1.806,0,0,0,1.806-1.806" transform="translate(-221.38 -130.099)" fill="#fff"/>
      <circle id="Elipse_11778" data-name="Elipse 11778" cx="1.806" cy="1.806" r="1.806" transform="translate(98.192 57.705)" fill="none" stroke="#263238" stroke-miterlimit="10" stroke-width="1"/>
      <path id="Trazado_883197" data-name="Trazado 883197" d="M309.931,188.725a1.806,1.806,0,1,0-1.806,1.806,1.806,1.806,0,0,0,1.806-1.806" transform="translate(-212.199 -129.486)" fill="#fff"/>
      <circle id="Elipse_11779" data-name="Elipse 11779" cx="1.806" cy="1.806" r="1.806" transform="translate(94.12 57.433)" fill="none" stroke="#263238" stroke-miterlimit="10" stroke-width="1"/>
      <path id="Trazado_883198" data-name="Trazado 883198" d="M307,174.333a1.806,1.806,0,1,0-1.806,1.806A1.806,1.806,0,0,0,307,174.333" transform="translate(-210.169 -119.516)" fill="#fff"/>
      <circle id="Elipse_11780" data-name="Elipse 11780" cx="1.806" cy="1.806" r="1.806" transform="translate(93.219 53.011)" fill="none" stroke="#263238" stroke-miterlimit="10" stroke-width="1"/>
      <path id="Trazado_883199" data-name="Trazado 883199" d="M310.07,203.507a1.806,1.806,0,1,0-1.806,1.806,1.806,1.806,0,0,0,1.806-1.806" transform="translate(-212.296 -139.726)" fill="#fff"/>
      <circle id="Elipse_11781" data-name="Elipse 11781" cx="1.806" cy="1.806" r="1.806" transform="translate(94.162 61.975)" fill="none" stroke="#263238" stroke-miterlimit="10" stroke-width="1"/>
      <path id="Trazado_883200" data-name="Trazado 883200" d="M296.989,200.136a1.806,1.806,0,1,0-1.806,1.806,1.806,1.806,0,0,0,1.806-1.806" transform="translate(-203.234 -137.391)" fill="#fff"/>
      <circle id="Elipse_11782" data-name="Elipse 11782" cx="1.806" cy="1.806" r="1.806" transform="matrix(0.995, -0.099, 0.099, 0.995, 89.974, 61.126)" fill="none" stroke="#263238" stroke-miterlimit="10" stroke-width="1"/>
      <path id="Trazado_883201" data-name="Trazado 883201" d="M302.666,206.917a1.806,1.806,0,1,0-1.806,1.806,1.806,1.806,0,0,0,1.806-1.806" transform="translate(-207.167 -142.089)" fill="#fff"/>
      <circle id="Elipse_11783" data-name="Elipse 11783" cx="1.806" cy="1.806" r="1.806" transform="translate(91.888 63.022)" fill="none" stroke="#263238" stroke-miterlimit="10" stroke-width="1"/>
      <path id="Trazado_883202" data-name="Trazado 883202" d="M343.812,196.148a1.806,1.806,0,1,1,1.806,1.806,1.806,1.806,0,0,1-1.806-1.806" transform="translate(-238.172 -134.628)" fill="#fff"/>
      <circle id="Elipse_11784" data-name="Elipse 11784" cx="1.806" cy="1.806" r="1.806" transform="matrix(0.099, -0.995, 0.995, 0.099, 105.471, 63.139)" fill="none" stroke="#263238" stroke-miterlimit="10" stroke-width="1"/>
      <path id="Trazado_883203" data-name="Trazado 883203" d="M352.843,189.367a1.806,1.806,0,1,1,1.806,1.806,1.806,1.806,0,0,1-1.806-1.806" transform="translate(-244.428 -129.931)" fill="#fff"/>
      <circle id="Elipse_11785" data-name="Elipse 11785" cx="1.806" cy="1.806" r="1.806" transform="translate(108.415 57.63)" fill="none" stroke="#263238" stroke-miterlimit="10" stroke-width="1"/>
      <path id="Trazado_883204" data-name="Trazado 883204" d="M343.834,184.035a1.806,1.806,0,1,1,1.806,1.806,1.806,1.806,0,0,1-1.806-1.806" transform="translate(-238.187 -126.237)" fill="#fff"/>
      <circle id="Elipse_11786" data-name="Elipse 11786" cx="1.806" cy="1.806" r="1.806" transform="translate(105.647 55.992)" fill="none" stroke="#263238" stroke-miterlimit="10" stroke-width="1"/>
      <path id="Trazado_883205" data-name="Trazado 883205" d="M340.157,189.183a1.806,1.806,0,1,1,1.806,1.806,1.806,1.806,0,0,1-1.806-1.806" transform="translate(-235.64 -129.803)" fill="#fff"/>
      <circle id="Elipse_11787" data-name="Elipse 11787" cx="1.806" cy="1.806" r="1.806" transform="translate(104.517 57.573)" fill="none" stroke="#263238" stroke-miterlimit="10" stroke-width="1"/>
      <path id="Trazado_883206" data-name="Trazado 883206" d="M357.772,185.112a1.806,1.806,0,1,1,1.806,1.806,1.806,1.806,0,0,1-1.806-1.806" transform="translate(-247.843 -126.983)" fill="#fff"/>
      <circle id="Elipse_11788" data-name="Elipse 11788" cx="1.806" cy="1.806" r="1.806" transform="translate(109.929 56.323)" fill="none" stroke="#263238" stroke-miterlimit="10" stroke-width="1"/>
      <path id="Trazado_883207" data-name="Trazado 883207" d="M363.682,196.74a1.806,1.806,0,1,1,1.806,1.806,1.806,1.806,0,0,1-1.806-1.806" transform="translate(-251.937 -135.039)" fill="#fff"/>
      <circle id="Elipse_11789" data-name="Elipse 11789" cx="1.806" cy="1.806" r="1.806" transform="matrix(0.099, -0.995, 0.995, 0.099, 111.576, 63.321)" fill="none" stroke="#263238" stroke-miterlimit="10" stroke-width="1"/>
      <path id="Trazado_883208" data-name="Trazado 883208" d="M357.8,196.74a1.806,1.806,0,1,1,1.806,1.806,1.806,1.806,0,0,1-1.806-1.806" transform="translate(-247.865 -135.039)" fill="#fff"/>
      <circle id="Elipse_11790" data-name="Elipse 11790" cx="1.806" cy="1.806" r="1.806" transform="matrix(0.099, -0.995, 0.995, 0.099, 109.77, 63.321)" fill="none" stroke="#263238" stroke-miterlimit="10" stroke-width="1"/>
      <path id="Trazado_883209" data-name="Trazado 883209" d="M351.492,203.188a1.806,1.806,0,1,1,1.806,1.806,1.806,1.806,0,0,1-1.806-1.806" transform="translate(-243.492 -139.505)" fill="#fff"/>
      <circle id="Elipse_11791" data-name="Elipse 11791" cx="1.806" cy="1.806" r="1.806" transform="translate(108 61.877)" fill="none" stroke="#263238" stroke-miterlimit="10" stroke-width="1"/>
      <path id="Trazado_883210" data-name="Trazado 883210" d="M339.174,206.865a1.806,1.806,0,1,1,1.806,1.806,1.806,1.806,0,0,1-1.806-1.806" transform="translate(-234.959 -142.052)" fill="#fff"/>
      <circle id="Elipse_11792" data-name="Elipse 11792" cx="1.806" cy="1.806" r="1.806" transform="translate(104.215 63.006)" fill="none" stroke="#263238" stroke-miterlimit="10" stroke-width="1"/>
      <path id="Trazado_883211" data-name="Trazado 883211" d="M333.717,196.576a1.806,1.806,0,1,1,1.806,1.806,1.806,1.806,0,0,1-1.806-1.806" transform="translate(-231.179 -134.925)" fill="#fff"/>
      <circle id="Elipse_11793" data-name="Elipse 11793" cx="1.806" cy="1.806" r="1.806" transform="translate(102.538 59.845)" fill="none" stroke="#263238" stroke-miterlimit="10" stroke-width="1"/>
      <path id="Trazado_883212" data-name="Trazado 883212" d="M346.97,195.692a1.806,1.806,0,1,1,1.806,1.806,1.806,1.806,0,0,1-1.806-1.806" transform="translate(-240.36 -134.313)" fill="#fff"/>
      <circle id="Elipse_11794" data-name="Elipse 11794" cx="1.806" cy="1.806" r="1.806" transform="translate(106.61 59.573)" fill="none" stroke="#263238" stroke-miterlimit="10" stroke-width="1"/>
      <path id="Trazado_883213" data-name="Trazado 883213" d="M349.9,181.3a1.806,1.806,0,1,1,1.806,1.806A1.806,1.806,0,0,1,349.9,181.3" transform="translate(-242.391 -124.342)" fill="#fff"/>
      <circle id="Elipse_11795" data-name="Elipse 11795" cx="1.806" cy="1.806" r="1.806" transform="translate(107.511 55.151)" fill="none" stroke="#263238" stroke-miterlimit="10" stroke-width="1"/>
      <path id="Trazado_883214" data-name="Trazado 883214" d="M346.831,210.474a1.806,1.806,0,1,1,1.806,1.806,1.806,1.806,0,0,1-1.806-1.806" transform="translate(-240.264 -144.553)" fill="#fff"/>
      <circle id="Elipse_11796" data-name="Elipse 11796" cx="1.806" cy="1.806" r="1.806" transform="translate(106.567 64.115)" fill="none" stroke="#263238" stroke-miterlimit="10" stroke-width="1"/>
      <path id="Trazado_883215" data-name="Trazado 883215" d="M359.912,207.1a1.806,1.806,0,1,1,1.806,1.806,1.806,1.806,0,0,1-1.806-1.806" transform="translate(-249.325 -142.217)" fill="#fff"/>
      <circle id="Elipse_11797" data-name="Elipse 11797" cx="1.806" cy="1.806" r="1.806" transform="translate(110.587 63.08)" fill="none" stroke="#263238" stroke-miterlimit="10" stroke-width="1"/>
      <path id="Trazado_883216" data-name="Trazado 883216" d="M354.235,213.883a1.806,1.806,0,1,1,1.806,1.806,1.806,1.806,0,0,1-1.806-1.806" transform="translate(-245.393 -146.914)" fill="#fff"/>
      <circle id="Elipse_11798" data-name="Elipse 11798" cx="1.806" cy="1.806" r="1.806" transform="translate(108.842 65.163)" fill="none" stroke="#263238" stroke-miterlimit="10" stroke-width="1"/>
      <circle id="Elipse_11799" data-name="Elipse 11799" cx="2.237" cy="2.237" r="2.237" transform="translate(72.223 94.967)" fill="none" stroke="#263238" stroke-miterlimit="10" stroke-width="1"/>
      <line id="Línea_573" data-name="Línea 573" y1="25.091" x2="16.406" transform="translate(76.374 70.665)" fill="none" stroke="#263238" stroke-miterlimit="10" stroke-width="1"/>
    </g>
  </g>
</svg>
