<svg xmlns="http://www.w3.org/2000/svg" xmlns:xlink="http://www.w3.org/1999/xlink" width="292.5" height="192.254" viewBox="0 0 292.5 192.254">
  <defs>
    <clipPath id="clip-path">
      <rect id="Rectángulo_403677" data-name="Rectángulo 403677" width="292.5" height="192.254" fill="none"/>
    </clipPath>
  </defs>
  <g id="Grupo_1103568" data-name="Grupo 1103568" transform="translate(0 0.004)">
    <g id="Grupo_1103563" data-name="Grupo 1103563" transform="translate(0 -0.004)">
      <g id="Grupo_1103562" data-name="Grupo 1103562" clip-path="url(#clip-path)">
        <path id="Trazado_883217" data-name="Trazado 883217" d="M587.523,724.1c.195,8.122-.93,16.473-1.824,24.306a260.743,260.743,0,0,1-7.5,39.038H542.44q5.411-23.358,10.822-46.719L568.9,727.868c3.979-3.273,10.065-9.411,15.749-6.5a7.087,7.087,0,0,1,2.877,2.74" transform="translate(-448.46 -595.755)" fill="#95a862"/>
        <path id="Trazado_883218" data-name="Trazado 883218" d="M523.2,632.9q-5.411,23.358-10.822,46.719h-2.211q-1.926-37.4-3.852-74.8-.117-2.306-.238-4.609a22.225,22.225,0,0,0,3.283-.1c5.7-.556,10.246-.7,15.516-3.491,4.306-2.279,8.456-5.066,13.208-6.126,8.281-1.844,15.241,4.582,17.434,12.081a53.218,53.218,0,0,1,1.943,13.7,7.089,7.089,0,0,0-2.877-2.74c-5.685-2.906-11.77,3.231-15.749,6.5L523.2,632.9" transform="translate(-418.394 -487.925)" fill="#95a862"/>
        <path id="Trazado_883219" data-name="Trazado 883219" d="M499.594,456.411a21.133,21.133,0,0,1-9.437,2.427,60.943,60.943,0,0,1-10.84-.847l-10.468-1.45-.329-.038q.366-3.166.728-6.334a48.287,48.287,0,0,0,4.678-2.4q.88-.514,1.737-1.069a42.681,42.681,0,0,0,13.19-13.627c1.06-1.752,2.37-1.911,4.156-2.308a36.995,36.995,0,0,1-.421,5.543c-.526,3.847-1.261,7.766-.526,11.579a10.725,10.725,0,0,0,7.533,8.526" transform="translate(-387.346 -356.131)" fill="#12263f"/>
        <path id="Trazado_883220" data-name="Trazado 883220" d="M471.217,202.526a1.522,1.522,0,0,1-.838,1.606c-1.06.428-2.137-.6-3.076-.941a22.1,22.1,0,0,0-3.451-.937c-1.382-.264-3.347-.222-4.571-.959a1.492,1.492,0,0,1-.721-1.768,1.763,1.763,0,0,1,1.385-1.149c1.459-.367,3.551.157,4.992.509a22.348,22.348,0,0,1,2.877.993,9.165,9.165,0,0,1,2.373,1.051,2.487,2.487,0,0,1,1.031,1.6" transform="translate(-379.036 -163.904)" fill="#5e2929"/>
        <path id="Trazado_883221" data-name="Trazado 883221" d="M336.93,599.037q.118,2.306.238,4.609a39.286,39.286,0,0,1-10.972,7.508c-4.051,1.83-10.143,1.517-14.125-.262a37.2,37.2,0,0,1-10.587-7.246l.229-4.448a8.038,8.038,0,0,0,3.908-.6c2.357-1.342,3.2-5.326,3.24-7.768a16.811,16.811,0,0,0-.094-2.073,18.924,18.924,0,0,0,19.8,1.132q.854-.474,1.66-1.022c-.092.8-.186,1.606-.278,2.409a8.286,8.286,0,0,0,.235,4.163c1.107,2.633,3.979,3.455,6.749,3.6" transform="translate(-249.25 -486.753)" fill="#fbbf94"/>
        <path id="Trazado_883222" data-name="Trazado 883222" d="M334.969,548.261c-.341-1.573-.816-3.126-1.3-4.663a33.276,33.276,0,0,0,10.564,2.193,31.425,31.425,0,0,0,13.527-3.02q-.363,3.166-.728,6.334c-.065.58-.132,1.163-.2,1.743q-.807.548-1.66,1.022a18.924,18.924,0,0,1-19.8-1.131,23.322,23.322,0,0,0-.408-2.478" transform="translate(-275.862 -448.733)" fill="#f28657"/>
        <path id="Trazado_883223" data-name="Trazado 883223" d="M451.184,404.6a.482.482,0,0,1,.195-.24.889.889,0,0,1,.513-.119l.677-.02a1.925,1.925,0,0,1,.726.072.659.659,0,0,1,.453.529.6.6,0,0,1-.231.484,1.073,1.073,0,0,1-.509.213c-.361.063-1.97-.392-1.824-.919" transform="translate(-373.006 -334.185)" fill="#f28657"/>
        <path id="Trazado_883224" data-name="Trazado 883224" d="M349.614,404.361c.188.139.233.276.184.406-.172.453-1.49.809-1.813.753a1.072,1.072,0,0,1-.509-.213.6.6,0,0,1-.231-.484.656.656,0,0,1,.45-.529,1.937,1.937,0,0,1,.728-.072l.677.02a.89.89,0,0,1,.513.119" transform="translate(-287.082 -334.185)" fill="#f28657"/>
        <path id="Trazado_883225" data-name="Trazado 883225" d="M275.889,199.528a1.5,1.5,0,0,1-.724,1.768c-1.221.737-3.188.695-4.569.959a22.2,22.2,0,0,0-3.453.937c-.937.343-2.014,1.369-3.074.941a1.526,1.526,0,0,1-.84-1.606,2.5,2.5,0,0,1,1.033-1.6,9.166,9.166,0,0,1,2.373-1.051,22.488,22.488,0,0,1,2.875-.993c1.441-.352,3.536-.876,4.992-.508a1.766,1.766,0,0,1,1.387,1.149" transform="translate(-217.613 -163.904)" fill="#5e2929"/>
        <path id="Trazado_883226" data-name="Trazado 883226" d="M260.379,500.553c.482,1.537.957,3.09,1.3,4.663a18.46,18.46,0,0,0-11.873.632c-.9.358-1.7.9-2.586,1.253a11.95,11.95,0,0,1-1.452.475,5.853,5.853,0,0,0,2.518-3.7,12.035,12.035,0,0,0-.238-5.362,29.38,29.38,0,0,0-3.027-7.811,42.471,42.471,0,0,0,6.85,5.55q.854.554,1.736,1.069a44.234,44.234,0,0,0,6.773,3.229" transform="translate(-202.569 -405.688)" fill="#12263f"/>
        <path id="Trazado_883227" data-name="Trazado 883227" d="M40.536,632.9,24.9,620.038c-3.979-3.273-10.065-9.41-15.749-6.5a7.089,7.089,0,0,0-2.877,2.74,53.22,53.22,0,0,1,1.943-13.7c2.193-7.5,9.153-13.925,17.434-12.081,4.752,1.06,8.9,3.847,13.208,6.126,5.27,2.79,9.82,2.935,15.516,3.491.849.083,2.05.222,3.273.258q-.114,2.225-.229,4.448-1.926,37.4-3.852,74.8H51.358Q45.947,656.26,40.536,632.9" transform="translate(-5.188 -487.925)" fill="#95a862"/>
        <path id="Trazado_883228" data-name="Trazado 883228" d="M40.43,740.73q5.411,23.358,10.822,46.719H15.494a261.023,261.023,0,0,1-7.5-39.038C7.1,740.577,5.974,732.227,6.169,724.1a7.088,7.088,0,0,1,2.877-2.74c5.684-2.906,11.77,3.231,15.749,6.5L40.43,740.73" transform="translate(-5.082 -595.756)" fill="#95a862"/>
        <path id="Trazado_883229" data-name="Trazado 883229" d="M180.2,158.606c-.146.527,1.463.981,1.824.919a1.073,1.073,0,0,0,.509-.213.6.6,0,0,0,.231-.484.659.659,0,0,0-.453-.529,1.925,1.925,0,0,0-.726-.072l-.677.02a.891.891,0,0,0-.513.119.484.484,0,0,0-.195.24m-15.462.166c.049-.13,0-.267-.184-.406a.891.891,0,0,0-.513-.119l-.677-.02a1.941,1.941,0,0,0-.728.072.656.656,0,0,0-.45.529.6.6,0,0,0,.231.484,1.072,1.072,0,0,0,.509.213c.323.056,1.64-.3,1.813-.753M144.47,173.208q-1.385-1.385-2.642-2.893a42.536,42.536,0,0,1-3.7-5.185c-1.134-1.871-2.55-1.925-4.531-2.393a17.538,17.538,0,0,1-4.649-1.763,10.884,10.884,0,0,1-5.306-6.473c-.06-.238-.112-.477-.15-.721a7.321,7.321,0,0,1,2.615-6.993c2.312-1.694,6-1.369,7.67.961l.018-.009a1.048,1.048,0,0,0,1.365.459,1.7,1.7,0,0,0,.9-1.259c.2-1.028.17-2.028.415-3.081a21.958,21.958,0,0,1,1.033-3.247c.881-2.169,2.382-3.955,3.493-6.021a18.4,18.4,0,0,0,2.379-6.87,8.81,8.81,0,0,1,2.808-6.171,57.85,57.85,0,0,0,6.144-6.771,22.726,22.726,0,0,0,2.608-4.627c.293-.712.816-3.865,1.992-3.442.372.134.786,1.073,1.035,1.38a14.254,14.254,0,0,0,1.407,1.513,15.515,15.515,0,0,0,3.493,2.456c4.006,2.061,8.633,2.543,13.139,2.626,2.48.047,5.234-.4,7.656.531,2.579.984,3.919,4.091,5.763,6.038,1.654,1.746,3.964,2.541,5.87,3.939a11.094,11.094,0,0,1,4.006,6.731c.69,2.81.95,5.707,1.441,8.557a54.054,54.054,0,0,0,4.889,14.916c.39.782.811,1.55,1.241,2.314a16.106,16.106,0,0,1,.809,5.111c-1.786.4-3.1.556-4.156,2.308a42.67,42.67,0,0,1-13.19,13.627q-.854.555-1.736,1.069a48.3,48.3,0,0,1-4.678,2.4,31.43,31.43,0,0,1-13.527,3.02,33.281,33.281,0,0,1-10.565-2.194,44.245,44.245,0,0,1-6.773-3.229q-.88-.514-1.736-1.069a42.459,42.459,0,0,1-6.85-5.55m48.892-44.79a1.522,1.522,0,0,0,.838-1.606,2.487,2.487,0,0,0-1.031-1.6,9.164,9.164,0,0,0-2.373-1.051,22.338,22.338,0,0,0-2.877-.993c-1.441-.352-3.533-.876-4.992-.509a1.763,1.763,0,0,0-1.385,1.149,1.492,1.492,0,0,0,.722,1.768c1.223.737,3.188.695,4.571.959a22.113,22.113,0,0,1,3.451.937c.939.343,2.017,1.369,3.076.941m-33.791-2.837a1.5,1.5,0,0,0,.724-1.768,1.766,1.766,0,0,0-1.387-1.149c-1.456-.367-3.551.157-4.992.509a22.443,22.443,0,0,0-2.875.993,9.166,9.166,0,0,0-2.373,1.051,2.5,2.5,0,0,0-1.033,1.6,1.526,1.526,0,0,0,.84,1.606c1.06.428,2.137-.6,3.074-.941A22.2,22.2,0,0,1,155,126.54c1.38-.264,3.347-.222,4.569-.959" transform="translate(-102.019 -88.19)" fill="#fbbf94"/>
        <path id="Trazado_883230" data-name="Trazado 883230" d="M122.4,382.936c-.238-1.43-.513-2.861-.751-4.3l.4-.067c.038.244.09.484.15.721a10.883,10.883,0,0,0,5.306,6.473,17.544,17.544,0,0,0,4.649,1.763c1.981.468,3.4.522,4.531,2.393a42.521,42.521,0,0,0,3.7,5.185q1.253,1.506,2.642,2.893a29.379,29.379,0,0,1,3.027,7.811,12.035,12.035,0,0,1,.238,5.362,5.853,5.853,0,0,1-2.518,3.7A15.419,15.419,0,0,1,132.1,412.9a19.06,19.06,0,0,1-8.983-12.348,26.411,26.411,0,0,1-.426-6.574,49.558,49.558,0,0,0-.3-11.046" transform="translate(-100.57 -312.979)" fill="#12263f"/>
        <path id="Trazado_883231" data-name="Trazado 883231" d="M121.909,58.592a7.321,7.321,0,0,0-2.615,6.993l-.4.067a31.69,31.69,0,0,1-.54-7.082c.264-4.472,2.035-8.691,3.435-12.946a80.915,80.915,0,0,0,2.718-10.656c.571-3.112.614-6.339,1.725-9.278,2.151-5.693,4.2-10.827,9.4-14.483A21.473,21.473,0,0,1,143.8,7.742c2.326-.457,4.757-.54,6.968-1.463,2.052-.856,3.78-2.391,5.8-3.359A30.81,30.81,0,0,1,169.932,0a31.828,31.828,0,0,1,3.3.184,44.17,44.17,0,0,1,20.387,8.207c5.8,4.08,9.267,10.508,11.882,17.022,2.265,5.642,3.6,12.007,7.488,16.838,1.851,2.3,4.387,3.677,6.177,6.007a21.351,21.351,0,0,1,4.185,15.61c-.347,2.633-1.192,5.209-1.215,7.867-.025,3.249,1.878,4.9,3.137,7.6a16.427,16.427,0,0,1,1.284,9.231c-.979,6.271-5.805,11.544-12.287,12.106a11.505,11.505,0,0,1-4.206-.39,10.725,10.725,0,0,1-7.533-8.526c-.735-3.814,0-7.732.527-11.579a37.023,37.023,0,0,0,.421-5.543,16.1,16.1,0,0,0-.809-5.111c-.43-.764-.851-1.532-1.241-2.315a54.053,54.053,0,0,1-4.889-14.916c-.491-2.85-.751-5.747-1.441-8.557A11.1,11.1,0,0,0,191.1,37c-1.907-1.4-4.217-2.194-5.87-3.939-1.844-1.947-3.184-5.055-5.763-6.038-2.422-.928-5.176-.484-7.656-.531-4.506-.083-9.133-.565-13.139-2.626a15.513,15.513,0,0,1-3.493-2.456,14.252,14.252,0,0,1-1.407-1.512c-.249-.307-.663-1.246-1.035-1.38-1.176-.423-1.7,2.729-1.992,3.442a22.715,22.715,0,0,1-2.608,4.627,57.838,57.838,0,0,1-6.144,6.771,8.811,8.811,0,0,0-2.807,6.171A18.4,18.4,0,0,1,136.8,46.4c-1.111,2.066-2.613,3.852-3.493,6.02a21.965,21.965,0,0,0-1.033,3.247c-.244,1.053-.211,2.052-.414,3.081a1.7,1.7,0,0,1-.9,1.259,1.048,1.048,0,0,1-1.365-.459l-.018.009c-1.667-2.33-5.357-2.655-7.67-.961" transform="translate(-97.82 0.004)" fill="#12263f"/>
        <path id="Trazado_883232" data-name="Trazado 883232" d="M1210,277.139a3.113,3.113,0,1,1-2.816,3.1,2.968,2.968,0,0,1,2.816-3.1" transform="translate(-998.03 -229.123)" fill="#5e2929"/>
        <path id="Trazado_883233" data-name="Trazado 883233" d="M1385.243,280.825a3.112,3.112,0,1,1-2.816,3.1,2.968,2.968,0,0,1,2.816-3.1" transform="translate(-1142.915 -232.17)" fill="#5e2929"/>
        <path id="Trazado_883234" data-name="Trazado 883234" d="M1537.642,883.822q.729,11.854,1.463,23.708h-31.258q1.465-14.032,2.93-28.064l24.92-13.616a133.067,133.067,0,0,1,1.945,17.972" transform="translate(-1246.605 -715.837)" fill="#95a862"/>
        <path id="Trazado_883235" data-name="Trazado 883235" d="M1442.8,687.569q-1.465,14.032-2.931,28.064h-10.029q-1.926-37.4-3.852-74.8-.181-3.545-.365-7.094a34.259,34.259,0,0,0,7.024,3.677,89.536,89.536,0,0,1,12.032,5.832c8.133,4.723,15.74,11.216,19.675,19.921a49.986,49.986,0,0,1,3.365,10.784l-24.92,13.616" transform="translate(-1178.626 -523.939)" fill="#95a862"/>
        <path id="Trazado_883236" data-name="Trazado 883236" d="M984.049,879.466l2.931,28.064H955.721q.733-11.854,1.463-23.708a132.349,132.349,0,0,1,1.945-17.972q12.459,6.813,24.92,13.616" transform="translate(-790.138 -715.837)" fill="#95a862"/>
        <path id="Trazado_883237" data-name="Trazado 883237" d="M1000.311,685.088q-12.459-6.806-24.92-13.616a49.872,49.872,0,0,1,3.365-10.784c3.932-8.7,11.541-15.2,19.675-19.921a89.4,89.4,0,0,1,12.032-5.832,34.319,34.319,0,0,0,7.766-4.2l.224.309q-.188,3.653-.376,7.3-1.926,37.4-3.852,74.8h-10.983l-2.931-28.064" transform="translate(-806.4 -521.459)" fill="#95a862"/>
        <path id="Trazado_883238" data-name="Trazado 883238" d="M1257.087,594.616q.181,3.546.365,7.094a39.288,39.288,0,0,1-10.972,7.508c-4.051,1.831-10.143,1.517-14.125-.262a37.2,37.2,0,0,1-10.587-7.246q.188-3.653.376-7.3l-.224-.309c.8-.574,1.6-1.2,2.431-1.882a12.322,12.322,0,0,0,3.265-3.612,6.824,6.824,0,0,0,.7-2.185l.2.029a18.942,18.942,0,0,0,20.325,1.508c.428-.238.849-.488,1.259-.757a6.712,6.712,0,0,0,.542,1.4,12.346,12.346,0,0,0,3.262,3.612c1.089.9,2.129,1.689,3.175,2.4" transform="translate(-1010.091 -484.818)" fill="#fbbf94"/>
        <path id="Trazado_883239" data-name="Trazado 883239" d="M1276.448,550.055a8.217,8.217,0,0,0,.26,1.871c-.41.269-.831.52-1.259.757a18.942,18.942,0,0,1-20.325-1.508l-.2-.029a9.013,9.013,0,0,0,.056-2.144,21.636,21.636,0,0,0-1.033-4.591,33.315,33.315,0,0,0,10.569,2.194,31.076,31.076,0,0,0,13.132-2.85,19.542,19.542,0,0,0-1.2,6.3" transform="translate(-1036.692 -449.545)" fill="#f28657"/>
        <path id="Trazado_883240" data-name="Trazado 883240" d="M1042.481,379.29a10.871,10.871,0,0,0,5.3,6.473,17.528,17.528,0,0,0,4.651,1.763c1.978.468,3.394.522,4.528,2.393a42.554,42.554,0,0,0,3.7,5.185q1.254,1.506,2.642,2.893a29.379,29.379,0,0,1,3.027,7.811,12.006,12.006,0,0,1,.238,5.362,5.852,5.852,0,0,1-2.519,3.7,15.429,15.429,0,0,1-11.667-1.963,19.06,19.06,0,0,1-8.983-12.348,26.51,26.51,0,0,1-.426-6.574,49.4,49.4,0,0,0-.3-11.046c-.238-1.43-.513-2.861-.75-4.3l.4-.069c.038.242.09.484.15.721" transform="translate(-861.411 -312.979)" fill="#12263f"/>
        <path id="Trazado_883241" data-name="Trazado 883241" d="M1318.252,406.684c1.369,0,2.478,1.795,2.478,4.011s-1.109,4.008-2.478,4.008-2.478-1.795-2.478-4.008,1.109-4.011,2.478-4.011" transform="translate(-1087.81 -336.223)" fill="#fff"/>
        <path id="Trazado_883242" data-name="Trazado 883242" d="M1391.506,210.415a1.52,1.52,0,0,1-.838,1.606c-1.06.43-2.137-.6-3.074-.941a22.2,22.2,0,0,0-3.453-.937c-1.38-.264-3.347-.22-4.568-.959a1.493,1.493,0,0,1-.724-1.768,1.767,1.767,0,0,1,1.385-1.149c1.459-.367,3.551.157,4.992.509a22.354,22.354,0,0,1,2.877.993,9.166,9.166,0,0,1,2.373,1.051,2.491,2.491,0,0,1,1.031,1.6" transform="translate(-1139.881 -170.427)" fill="#5e2929"/>
        <path id="Trazado_883243" data-name="Trazado 883243" d="M1196.181,207.417a1.493,1.493,0,0,1-.724,1.768c-1.221.739-3.188.695-4.569.959a22.215,22.215,0,0,0-3.453.936c-.937.343-2.015,1.371-3.074.941a1.52,1.52,0,0,1-.838-1.606,2.492,2.492,0,0,1,1.031-1.6,9.164,9.164,0,0,1,2.373-1.051,22.4,22.4,0,0,1,2.877-.993c1.441-.352,3.534-.876,4.992-.508a1.767,1.767,0,0,1,1.384,1.149" transform="translate(-978.461 -170.427)" fill="#5e2929"/>
        <path id="Trazado_883244" data-name="Trazado 883244" d="M1408.222,447.886a10.708,10.708,0,0,0,11.736,8.915c.067-.007.134-.011.2-.02a54.618,54.618,0,0,1-13.845,2.057,60.963,60.963,0,0,1-10.84-.847l-6.368-.88c-1.636-.229-3.614-.811-5.29-.471a19.546,19.546,0,0,1,1.2-6.3,47.576,47.576,0,0,0,5.07-2.572q.881-.514,1.737-1.069a42.685,42.685,0,0,0,13.19-13.627c1.062-1.752,2.37-1.911,4.156-2.308a37.015,37.015,0,0,1-.419,5.543c-.529,3.847-1.264,7.766-.526,11.579" transform="translate(-1144.062 -356.131)" fill="#12263f"/>
        <path id="Trazado_883245" data-name="Trazado 883245" d="M1180.662,500.553a21.63,21.63,0,0,1,1.033,4.591,18.443,18.443,0,0,0-11.6.7c-.9.358-1.7.9-2.588,1.253a11.688,11.688,0,0,1-1.452.475,5.853,5.853,0,0,0,2.518-3.7,12,12,0,0,0-.237-5.362,29.383,29.383,0,0,0-3.027-7.811,42.471,42.471,0,0,0,6.85,5.55q.853.554,1.736,1.069a44.407,44.407,0,0,0,6.771,3.229" transform="translate(-963.41 -405.688)" fill="#1e4678"/>
        <path id="Trazado_883246" data-name="Trazado 883246" d="M1042.2,58.592a7.311,7.311,0,0,0-2.615,6.993l-.4.069a31.72,31.72,0,0,1-.54-7.085c.264-4.472,2.035-8.691,3.435-12.946a80.9,80.9,0,0,0,2.718-10.656c.571-3.112.614-6.339,1.725-9.278,2.151-5.693,4.2-10.827,9.4-14.483a21.474,21.474,0,0,1,8.163-3.464c2.326-.457,4.757-.54,6.968-1.463,2.052-.856,3.782-2.391,5.8-3.359A30.81,30.81,0,0,1,1090.216,0a31.829,31.829,0,0,1,3.3.184,44.17,44.17,0,0,1,20.387,8.207c5.8,4.08,9.27,10.508,11.882,17.022,2.265,5.642,3.6,12.007,7.488,16.838,1.851,2.3,4.387,3.677,6.18,6.007a21.349,21.349,0,0,1,4.183,15.61c-.347,2.633-1.192,5.209-1.215,7.867-.025,3.249,1.878,4.9,3.137,7.6a16.409,16.409,0,0,1,1.284,9.231c-.968,6.206-5.7,11.434-12.086,12.086-.067.009-.134.013-.2.02a10.708,10.708,0,0,1-11.736-8.915c-.737-3.814,0-7.732.526-11.579a37.031,37.031,0,0,0,.419-5.543,16.106,16.106,0,0,0-.809-5.111c-.43-.764-.852-1.532-1.241-2.315a54.047,54.047,0,0,1-4.889-14.916c-.488-2.85-.75-5.747-1.441-8.557A11.1,11.1,0,0,0,1111.381,37c-1.9-1.4-4.217-2.194-5.868-3.939-1.846-1.947-3.186-5.055-5.763-6.038-2.424-.928-5.176-.484-7.658-.531-4.506-.083-9.133-.565-13.139-2.626a15.617,15.617,0,0,1-3.493-2.456,14.5,14.5,0,0,1-1.407-1.512c-.249-.307-.663-1.246-1.035-1.38-1.176-.423-1.7,2.729-1.99,3.442a22.942,22.942,0,0,1-2.608,4.627,58.064,58.064,0,0,1-6.146,6.771,8.81,8.81,0,0,0-2.807,6.171,18.435,18.435,0,0,1-2.377,6.87c-1.114,2.066-2.615,3.852-3.5,6.02a21.694,21.694,0,0,0-1.031,3.247c-.246,1.053-.213,2.052-.417,3.081a1.7,1.7,0,0,1-.9,1.259,1.045,1.045,0,0,1-1.362-.459l-.02.009c-1.667-2.33-5.357-2.655-7.667-.961" transform="translate(-858.66 0.004)" fill="#12263f"/>
        <path id="Trazado_883247" data-name="Trazado 883247" d="M1080.117,183.055a44.421,44.421,0,0,1-6.771-3.229q-.881-.514-1.737-1.069a42.469,42.469,0,0,1-6.849-5.55q-1.385-1.385-2.642-2.893a42.553,42.553,0,0,1-3.7-5.185c-1.134-1.871-2.55-1.925-4.528-2.393a17.523,17.523,0,0,1-4.651-1.763,10.871,10.871,0,0,1-5.3-6.473c-.061-.238-.112-.48-.15-.722a7.311,7.311,0,0,1,2.615-6.993c2.31-1.694,6-1.369,7.667.961l.02-.009a1.045,1.045,0,0,0,1.362.459,1.7,1.7,0,0,0,.9-1.259c.2-1.028.17-2.028.417-3.081a21.66,21.66,0,0,1,1.031-3.247c.88-2.169,2.382-3.955,3.5-6.021a18.436,18.436,0,0,0,2.377-6.87,8.81,8.81,0,0,1,2.808-6.171,58.065,58.065,0,0,0,6.146-6.771,22.944,22.944,0,0,0,2.608-4.627c.291-.712.813-3.865,1.99-3.442.372.134.786,1.073,1.035,1.38a14.458,14.458,0,0,0,1.407,1.513,15.624,15.624,0,0,0,3.493,2.456c4.006,2.061,8.633,2.543,13.139,2.626,2.483.047,5.234-.4,7.658.531,2.577.984,3.916,4.091,5.763,6.038,1.651,1.746,3.964,2.541,5.868,3.939a11.093,11.093,0,0,1,4.006,6.731c.69,2.81.952,5.707,1.441,8.557a54.053,54.053,0,0,0,4.889,14.916c.39.782.811,1.55,1.241,2.314a16.1,16.1,0,0,1,.809,5.111c-1.786.4-3.094.556-4.156,2.308a42.675,42.675,0,0,1-13.191,13.627c-.569.37-1.149.726-1.736,1.069a47.549,47.549,0,0,1-5.071,2.572,31.072,31.072,0,0,1-13.132,2.85,33.315,33.315,0,0,1-10.569-2.193m33.535-53.27a1.52,1.52,0,0,0,.838-1.606,2.493,2.493,0,0,0-1.031-1.6,9.167,9.167,0,0,0-2.373-1.051,22.4,22.4,0,0,0-2.877-.993c-1.441-.352-3.533-.876-4.992-.509a1.767,1.767,0,0,0-1.385,1.149,1.494,1.494,0,0,0,.724,1.768c1.221.739,3.188.695,4.568.959a22.214,22.214,0,0,1,3.453.936c.937.343,2.014,1.371,3.074.941m-5.642,10.159a2.829,2.829,0,1,0-2.816,3.1,2.968,2.968,0,0,0,2.816-3.1m-12.225,22.718c0-2.216-1.109-4.011-2.478-4.011s-2.478,1.795-2.478,4.011,1.109,4.008,2.478,4.008,2.478-1.795,2.478-4.008m-15.924-35.713a1.493,1.493,0,0,0,.724-1.768,1.767,1.767,0,0,0-1.385-1.149c-1.459-.367-3.551.157-4.992.509a22.4,22.4,0,0,0-2.877.993,9.164,9.164,0,0,0-2.373,1.051,2.493,2.493,0,0,0-1.031,1.6,1.52,1.52,0,0,0,.838,1.606c1.06.43,2.137-.6,3.074-.941a22.218,22.218,0,0,1,3.453-.936c1.38-.264,3.348-.22,4.569-.959m-2.214,12.357a2.829,2.829,0,1,0-2.816,3.1,2.968,2.968,0,0,0,2.816-3.1" transform="translate(-862.866 -88.19)" fill="#fbbf94"/>
        <path id="Trazado_883248" data-name="Trazado 883248" d="M292.209,740.107a75.035,75.035,0,0,0,34.027,6.72q-1.857-36.07-3.715-72.145a39.282,39.282,0,0,1-10.972,7.508c-4.051,1.831-10.143,1.517-14.125-.262a37.19,37.19,0,0,1-10.587-7.246q-1.535,29.8-3.069,59.608a24.272,24.272,0,0,0,8.441,5.817" transform="translate(-234.604 -557.789)" fill="#fff"/>
        <path id="Trazado_883249" data-name="Trazado 883249" d="M288.477,1024.548a24.273,24.273,0,0,1-8.441-5.817l-.782,15.192H322.64l-.137-2.656a75.035,75.035,0,0,1-34.027-6.72" transform="translate(-230.871 -842.23)" fill="#ededed"/>
        <path id="Trazado_883250" data-name="Trazado 883250" d="M1199.537,1058.9h43.387q-.139-2.69-.277-5.381a230.308,230.308,0,0,1-42.6-4.577q-.256,4.979-.513,9.958" transform="translate(-991.712 -867.208)" fill="#ededed"/>
        <path id="Trazado_883251" data-name="Trazado 883251" d="M1230.547,682.19c-4.051,1.831-10.143,1.517-14.125-.262a37.191,37.191,0,0,1-10.587-7.246q-1.669,32.421-3.339,64.842a230.285,230.285,0,0,0,42.6,4.577q-1.787-34.707-3.575-69.419a39.276,39.276,0,0,1-10.972,7.508" transform="translate(-994.159 -557.789)" fill="#fff"/>
        <path id="Trazado_883252" data-name="Trazado 883252" d="M1422.065,339.429a4.554,4.554,0,0,0-.314,5.023,5.294,5.294,0,0,0,4.454,2.521,6.338,6.338,0,0,0,4.72-2.157,5.355,5.355,0,0,0,1.348-4.833c-1.117-4.082-8.059-3.21-10.208-.554" transform="translate(-1174.924 -278.76)" fill="#f7a17c"/>
        <path id="Trazado_883253" data-name="Trazado 883253" d="M504.3,333.631a4.554,4.554,0,0,0-.314,5.023,5.293,5.293,0,0,0,4.454,2.521,6.337,6.337,0,0,0,4.72-2.157,5.355,5.355,0,0,0,1.348-4.833c-1.117-4.082-8.059-3.21-10.208-.554" transform="translate(-416.168 -273.966)" fill="#f7a17c"/>
        <path id="Trazado_883254" data-name="Trazado 883254" d="M1165.76,341.361a4.554,4.554,0,0,1,.314,5.023,5.293,5.293,0,0,1-4.454,2.521,6.337,6.337,0,0,1-4.72-2.157,5.355,5.355,0,0,1-1.348-4.833c1.117-4.082,8.059-3.21,10.208-.554" transform="translate(-955.224 -280.357)" fill="#f7a17c"/>
        <path id="Trazado_883255" data-name="Trazado 883255" d="M240.266,337.5a4.554,4.554,0,0,1,.314,5.023,5.293,5.293,0,0,1-4.454,2.521,6.337,6.337,0,0,1-4.72-2.157,5.355,5.355,0,0,1-1.348-4.833c1.117-4.082,8.059-3.21,10.208-.554" transform="translate(-190.076 -277.162)" fill="#f7a17c"/>
        <path id="Trazado_883256" data-name="Trazado 883256" d="M398.111,324.846a1.52,1.52,0,0,0,.5,2.666,4.185,4.185,0,0,0,3.945-.208,3.505,3.505,0,0,0,1.616-3.533c-.453-1.437-2.716-1-3.807-.55a5.805,5.805,0,0,0-2.251,1.625" transform="translate(-328.655 -266.864)" fill="#f7a17c"/>
        <path id="Trazado_883257" data-name="Trazado 883257" d="M1322.328,344.688a.484.484,0,0,0,.157-.328.364.364,0,0,0-.351-.3,1.215,1.215,0,0,0-.489.108,5.633,5.633,0,0,1-3.22.158,1.879,1.879,0,0,0-.574-.091.523.523,0,0,0-.465.3.5.5,0,0,0,.113.482,1.2,1.2,0,0,0,.429.286,3.9,3.9,0,0,0,4.4-.612" transform="translate(-1089.123 -284.447)" fill="#f7a17c"/>
      </g>
    </g>
    <g id="Grupo_1103565" data-name="Grupo 1103565" transform="translate(0 -0.004)">
      <g id="Grupo_1103564" data-name="Grupo 1103564" clip-path="url(#clip-path)">
        <path id="Trazado_883258" data-name="Trazado 883258" d="M279.139,301.731a7.665,7.665,0,0,1-4.862-1.746.52.52,0,1,1,.663-.8,6.561,6.561,0,0,0,9.2-.82.52.52,0,1,1,.794.671A7.657,7.657,0,0,1,279.8,301.7q-.331.03-.661.029" transform="translate(-226.601 -246.518)" fill="#6a3650"/>
        <path id="Trazado_883259" data-name="Trazado 883259" d="M463.891,301.731q-.331,0-.661-.029a7.657,7.657,0,0,1-5.132-2.667.52.52,0,1,1,.794-.671,6.561,6.561,0,0,0,9.2.82.52.52,0,0,1,.663.8,7.666,7.666,0,0,1-4.862,1.746" transform="translate(-378.628 -246.518)" fill="#6a3650"/>
        <path id="Trazado_883260" data-name="Trazado 883260" d="M407.668,285.224a.52.52,0,0,1-.05-1.037,3.618,3.618,0,0,0,2.209-6.158,7.817,7.817,0,0,0-.915-.744,10.574,10.574,0,0,1-.849-.67,5.731,5.731,0,0,1-1.528-6.008.52.52,0,1,1,.981.345,4.667,4.667,0,0,0,1.245,4.893,9.651,9.651,0,0,0,.767.6,8.7,8.7,0,0,1,1.035.847,4.658,4.658,0,0,1-2.844,7.928l-.051,0" transform="translate(-335.853 -223.435)" fill="#f28657"/>
        <path id="Trazado_883261" data-name="Trazado 883261" d="M371.294,392.971a.513.513,0,0,1-.059,0,14.51,14.51,0,0,1-4.077-1.076,11.17,11.17,0,0,1-1.265-.666,6.678,6.678,0,0,0-1.761-.811,9.363,9.363,0,0,0-6.456,1l-.135.07a10.044,10.044,0,0,1-4.53,1.483h0a.52.52,0,0,1,0-1.04h0a9.284,9.284,0,0,0,4.055-1.368l.136-.07a10.389,10.389,0,0,1,7.182-1.08,7.577,7.577,0,0,1,2.034.922,10.205,10.205,0,0,0,1.148.607,13.475,13.475,0,0,0,3.785,1,.52.52,0,0,1-.057,1.036" transform="translate(-291.42 -321.737)" fill="#f28657"/>
        <path id="Trazado_883262" data-name="Trazado 883262" d="M150.063,363.473h-.025a.52.52,0,0,1-.495-.543c.022-.47-.7-.861-1.018-1.008l-.018-.008c-.71-.332-1.594-.745-1.827-1.664a2.633,2.633,0,0,1,.27-1.678,4,4,0,0,0,.229-.669,1.913,1.913,0,0,0-1.155-2,3.072,3.072,0,0,0-2.631.2.52.52,0,0,1-.481-.921,4.113,4.113,0,0,1,3.537-.226,2.945,2.945,0,0,1,1.749,3.159,4.834,4.834,0,0,1-.285.851,1.807,1.807,0,0,0-.226,1.031c.112.442.722.727,1.26.978l.018.008c1.383.647,1.642,1.443,1.616,2a.52.52,0,0,1-.519.5" transform="translate(-117.921 -293.206)" fill="#f28657"/>
        <path id="Trazado_883263" data-name="Trazado 883263" d="M608.841,413.3a.52.52,0,0,1-.518-.481c-.273-3.653-2.012-6.69-3.853-9.906l-.331-.578a.52.52,0,0,1,.9-.515l.33.577c1.817,3.175,3.7,6.457,3.987,10.345a.52.52,0,0,1-.48.557h-.039" transform="translate(-499.413 -331.989)" fill="#6a3650"/>
        <path id="Trazado_883264" data-name="Trazado 883264" d="M487.909,576.7a69.989,69.989,0,0,1-9.576-.879l-10.469-1.45a.52.52,0,1,1,.143-1.03l10.469,1.45a60.572,60.572,0,0,0,10.746.843,19.683,19.683,0,0,0,10.075-2.887.52.52,0,0,1,.568.87,20.7,20.7,0,0,1-10.6,3.056q-.678.028-1.356.027" transform="translate(-386.433 -473.443)" fill="#6a3650"/>
        <path id="Trazado_883265" data-name="Trazado 883265" d="M199.9,827.662a.52.52,0,0,1-.506-.4l-13.428-57.972a.52.52,0,0,1,1.013-.234L200.4,827.025a.52.52,0,0,1-.507.637" transform="translate(-153.732 -635.478)" fill="#cbc9b7"/>
        <path id="Trazado_883266" data-name="Trazado 883266" d="M35.341,738.728a.517.517,0,0,1-.33-.118L19.384,725.755c-.439-.361-.9-.752-1.384-1.167-3.817-3.252-9.046-7.706-13.8-5.277A6.535,6.535,0,0,0,1.012,723a.52.52,0,1,1-.984-.334,7.582,7.582,0,0,1,3.7-4.28c5.372-2.747,10.906,1.969,14.947,5.411.483.411.939.8,1.371,1.155l15.627,12.855a.52.52,0,0,1-.33.921" transform="translate(0 -593.241)" fill="#cbc9b7"/>
        <path id="Trazado_883267" data-name="Trazado 883267" d="M540.22,827.494a.52.52,0,0,1-.507-.637l13.389-57.8a.52.52,0,1,1,1.013.234l-13.389,57.8a.52.52,0,0,1-.506.4" transform="translate(-446.194 -635.478)" fill="#cbc9b7"/>
        <path id="Trazado_883268" data-name="Trazado 883268" d="M602.673,738.7a.52.52,0,0,1-.331-.921l15.591-12.826c.432-.355.888-.744,1.37-1.155,4.041-3.442,9.574-8.158,14.947-5.411a7.647,7.647,0,0,1,3.1,2.96.52.52,0,0,1-.9.52,6.6,6.6,0,0,0-2.673-2.555c-4.754-2.43-9.982,2.025-13.8,5.277-.486.414-.946.806-1.384,1.166L603,738.581a.517.517,0,0,1-.33.119" transform="translate(-497.827 -593.241)" fill="#cbc9b7"/>
        <path id="Trazado_883269" data-name="Trazado 883269" d="M1327.955,285.225a.52.52,0,0,1-.05-1.037,3.618,3.618,0,0,0,2.209-6.158,7.818,7.818,0,0,0-.916-.744,10.618,10.618,0,0,1-.849-.669,5.731,5.731,0,0,1-1.528-6.009.52.52,0,1,1,.981.345,4.667,4.667,0,0,0,1.244,4.893,9.642,9.642,0,0,0,.767.6,8.687,8.687,0,0,1,1.036.847,4.657,4.657,0,0,1-2.843,7.928l-.051,0" transform="translate(-1096.696 -223.435)" fill="#f28657"/>
        <path id="Trazado_883270" data-name="Trazado 883270" d="M1070.35,363.473h-.024a.52.52,0,0,1-.5-.543c.022-.47-.7-.861-1.018-1.008l-.017-.008c-.71-.332-1.594-.745-1.828-1.664a2.633,2.633,0,0,1,.27-1.678,3.98,3.98,0,0,0,.229-.669,1.913,1.913,0,0,0-1.155-2,3.071,3.071,0,0,0-2.631.2.52.52,0,0,1-.481-.921,4.114,4.114,0,0,1,3.537-.226,2.945,2.945,0,0,1,1.749,3.159,4.833,4.833,0,0,1-.285.851,1.8,1.8,0,0,0-.226,1.031c.112.442.722.727,1.26.979l.017.008c1.383.647,1.642,1.443,1.616,2a.52.52,0,0,1-.519.5" transform="translate(-878.764 -293.206)" fill="#f28657"/>
        <path id="Trazado_883271" data-name="Trazado 883271" d="M1528.606,412.39a.52.52,0,0,1-.518-.481c-.273-3.653-2.012-6.69-3.853-9.906q-.22-.385-.44-.771a.52.52,0,1,1,.9-.514l.439.768c1.818,3.175,3.7,6.457,3.987,10.344a.52.52,0,0,1-.48.557h-.039" transform="translate(-1259.734 -331.075)" fill="#6a3650"/>
        <path id="Trazado_883272" data-name="Trazado 883272" d="M1400.585,575.93a69.964,69.964,0,0,1-9.576-.879l-6.368-.882c-.426-.059-.86-.139-1.321-.224a9.2,9.2,0,0,0-4.152-.162.52.52,0,1,1-.306-.993,10.069,10.069,0,0,1,4.645.133c.449.082.872.16,1.275.216l6.368.882a60.651,60.651,0,0,0,10.746.843c5.017-.208,10.924-.738,16.694-3.094a.52.52,0,1,1,.393.962c-5.918,2.417-11.937,2.959-17.044,3.171q-.678.028-1.356.027" transform="translate(-1139.666 -472.675)" fill="#6a3650"/>
        <path id="Trazado_883273" data-name="Trazado 883273" d="M1110.41,881.778a.519.519,0,0,1-.516-.466l-4.865-46.6a.52.52,0,1,1,1.034-.108l4.865,46.6a.519.519,0,0,1-.463.571.472.472,0,0,1-.055,0" transform="translate(-913.575 -689.618)" fill="#cbc9b7"/>
        <path id="Trazado_883274" data-name="Trazado 883274" d="M997.907,877.554a.519.519,0,0,1-.249-.064l-24.933-13.622a.52.52,0,0,1,.5-.912l24.933,13.622a.52.52,0,0,1-.25.976" transform="translate(-803.973 -713.391)" fill="#cbc9b7"/>
        <path id="Trazado_883275" data-name="Trazado 883275" d="M1505.342,881.872a.491.491,0,0,1-.055,0,.52.52,0,0,1-.463-.571l4.875-46.7a.52.52,0,1,1,1.034.108l-4.875,46.7a.519.519,0,0,1-.516.466" transform="translate(-1244.104 -689.618)" fill="#cbc9b7"/>
        <path id="Trazado_883276" data-name="Trazado 883276" d="M1522.557,877.521a.52.52,0,0,1-.25-.976l24.857-13.581a.52.52,0,0,1,.5.912l-24.857,13.581a.519.519,0,0,1-.249.064" transform="translate(-1258.336 -713.398)" fill="#cbc9b7"/>
      </g>
    </g>
    <g id="Grupo_1103567" data-name="Grupo 1103567" transform="translate(0 -0.004)">
      <g id="Grupo_1103566" data-name="Grupo 1103566" clip-path="url(#clip-path)">
        <path id="Trazado_883277" data-name="Trazado 883277" d="M486.119,414.8a5.062,5.062,0,0,1-2.213-2.821c-.4-1.245-.159-2.154-1.089-3.205a4.133,4.133,0,0,1-1.386-3.533,3.665,3.665,0,0,1,2.636-2.741c.569-.156,1.133-.025,1.562-.489.34-.367.431-.909.782-1.274a2.872,2.872,0,0,1,2.14-.906,3.15,3.15,0,0,1,2.463,1.706c.563.79,1.449.863,2.209,1.381a5.1,5.1,0,0,1,1.759,2.052,4.2,4.2,0,0,1,.349,2.24c-.064.865.187,1.69.208,2.561a4.489,4.489,0,0,1-.613,2.518c-.873,1.372-2.561,1.874-3.929,2.576a5.171,5.171,0,0,1-4.879-.064" transform="translate(-397.976 -330.558)" fill="#fff"/>
        <path id="Trazado_883278" data-name="Trazado 883278" d="M545.455,397.6a1.094,1.094,0,1,1-.758-1.348,1.094,1.094,0,0,1,.758,1.348" transform="translate(-449.177 -327.569)" fill="#fff"/>
        <path id="Trazado_883279" data-name="Trazado 883279" d="M265.646,420a5.062,5.062,0,0,0,2.077-2.922c.343-1.263.057-2.159.937-3.253a4.133,4.133,0,0,0,1.217-3.6,3.665,3.665,0,0,0-2.763-2.613c-.576-.129-1.133.028-1.583-.414-.357-.351-.474-.888-.842-1.235a2.873,2.873,0,0,0-2.181-.8,3.149,3.149,0,0,0-2.38,1.821c-.525.815-1.406.931-2.142,1.484a4.991,4.991,0,0,0-1.934,4.988c.154.83.64,1.475.8,2.283a6.744,6.744,0,0,0,.343,1.454,3.779,3.779,0,0,0,.867,1.117c2.016,1.955,4.917,3.415,7.579,1.691" transform="translate(-211.617 -334.958)" fill="#fff"/>
        <path id="Trazado_883280" data-name="Trazado 883280" d="M260.8,404.286a1.093,1.093,0,1,0,.694-1.382,1.094,1.094,0,0,0-.694,1.382" transform="translate(-215.57 -333.052)" fill="#fff"/>
        <path id="Trazado_883281" data-name="Trazado 883281" d="M243.824,470.243a24.038,24.038,0,0,1-5.7,7.551,5.8,5.8,0,0,0,3.4-1.777,15.659,15.659,0,0,0,3.828-4.193Z" transform="translate(-196.865 -388.771)" fill="#fff"/>
        <path id="Trazado_883282" data-name="Trazado 883282" d="M537.406,471.567a24.035,24.035,0,0,0,5.7,7.551,5.8,5.8,0,0,1-3.4-1.777,15.659,15.659,0,0,1-3.828-4.193Z" transform="translate(-443.04 -389.865)" fill="#fff"/>
        <path id="Trazado_883283" data-name="Trazado 883283" d="M1139.589,450.591a6.744,6.744,0,0,1-3.3,6.789c-.825.447-1.974.48-2.573,1.284-.31.413-.474.949-.795,1.374a6.23,6.23,0,0,1-2.577,2.007,6.161,6.161,0,0,1-8.382-4.476c-.126-.592.073-1.275-.188-1.816-.236-.483-.762-.728-1.169-1.041a4.34,4.34,0,0,1-1.4-2.217,5.759,5.759,0,0,1,.706-4.448,6.853,6.853,0,0,1,3.8-2.976,6.552,6.552,0,0,1,3.09-.195c2.109.377,3.279-1.671,5.394-1.649a4.694,4.694,0,0,1,3.479,1.68,4.187,4.187,0,0,1,3.843,2.493,47.77,47.77,0,0,0,11.456-4.088,21.8,21.8,0,0,1-11.383,7.28" transform="translate(-925.144 -366.434)" fill="#fff"/>
      </g>
    </g>
  </g>
</svg>
