<svg id="Grupo_1103712" data-name="Grupo 1103712" xmlns="http://www.w3.org/2000/svg" xmlns:xlink="http://www.w3.org/1999/xlink" width="298.227" height="218.363" viewBox="0 0 298.227 218.363">
  <defs>
    <clipPath id="clip-path">
      <rect id="Rectángulo_403756" data-name="Rectángulo 403756" width="298.227" height="218.363" fill="none"/>
    </clipPath>
    <clipPath id="clip-path-3">
      <rect id="Rectángulo_403738" data-name="Rectángulo 403738" width="19.63" height="8.722" fill="none"/>
    </clipPath>
    <clipPath id="clip-path-4">
      <rect id="Rectángulo_403739" data-name="Rectángulo 403739" width="8.499" height="4.352" fill="none"/>
    </clipPath>
    <clipPath id="clip-path-5">
      <rect id="Rectángulo_403740" data-name="Rectángulo 403740" width="17.779" height="12.153" fill="none"/>
    </clipPath>
    <clipPath id="clip-path-6">
      <rect id="Rectángulo_403741" data-name="Rectángulo 403741" width="8.275" height="4.869" fill="none"/>
    </clipPath>
    <clipPath id="clip-path-7">
      <rect id="Rectángulo_403742" data-name="Rectángulo 403742" width="19.364" height="8.824" fill="none"/>
    </clipPath>
    <clipPath id="clip-path-8">
      <rect id="Rectángulo_403743" data-name="Rectángulo 403743" width="8.826" height="3.272" fill="none"/>
    </clipPath>
    <clipPath id="clip-path-9">
      <rect id="Rectángulo_403744" data-name="Rectángulo 403744" width="10.108" height="62.248" fill="none"/>
    </clipPath>
    <clipPath id="clip-path-10">
      <rect id="Rectángulo_403745" data-name="Rectángulo 403745" width="30.335" height="4.152" fill="none"/>
    </clipPath>
    <clipPath id="clip-path-11">
      <rect id="Rectángulo_403746" data-name="Rectángulo 403746" width="30.335" height="3.83" fill="none"/>
    </clipPath>
    <clipPath id="clip-path-12">
      <rect id="Rectángulo_403747" data-name="Rectángulo 403747" width="107.364" height="26.244" fill="none"/>
    </clipPath>
    <clipPath id="clip-path-13">
      <rect id="Rectángulo_403748" data-name="Rectángulo 403748" width="156.788" height="57.913" fill="none"/>
    </clipPath>
    <clipPath id="clip-path-14">
      <rect id="Rectángulo_403749" data-name="Rectángulo 403749" width="34.165" height="14.449" fill="none"/>
    </clipPath>
    <clipPath id="clip-path-15">
      <rect id="Rectángulo_403750" data-name="Rectángulo 403750" width="23.769" height="11.558" fill="none"/>
    </clipPath>
    <clipPath id="clip-path-16">
      <rect id="Rectángulo_403751" data-name="Rectángulo 403751" width="35.572" height="27.843" fill="none"/>
    </clipPath>
    <clipPath id="clip-path-17">
      <rect id="Rectángulo_403752" data-name="Rectángulo 403752" width="11.831" height="11.3" fill="none"/>
    </clipPath>
    <clipPath id="clip-path-18">
      <rect id="Rectángulo_403753" data-name="Rectángulo 403753" width="7.62" height="6.608" fill="none"/>
    </clipPath>
    <clipPath id="clip-path-19">
      <rect id="Rectángulo_403754" data-name="Rectángulo 403754" width="51.067" height="52.758" fill="none"/>
    </clipPath>
  </defs>
  <g id="Grupo_1103711" data-name="Grupo 1103711" clip-path="url(#clip-path)">
    <g id="Grupo_1103710" data-name="Grupo 1103710">
      <g id="Grupo_1103709" data-name="Grupo 1103709" clip-path="url(#clip-path)">
        <path id="Trazado_883600" data-name="Trazado 883600" d="M98.27,136.461a4.933,4.933,0,0,1,.345,2.015,4.818,4.818,0,0,1-.4,1.777A4.935,4.935,0,0,1,95.5,142.9l-9.961,3.952a4.955,4.955,0,0,1-6.432-2.783,3.576,3.576,0,0,1-.118-.351,4.949,4.949,0,0,1,2.895-6.078l9.961-3.952a4.95,4.95,0,0,1,6.429,2.777" transform="translate(-29.065 -49.208)" fill="#ed6d7e"/>
        <path id="Trazado_883601" data-name="Trazado 883601" d="M103.013,136.461a4.949,4.949,0,0,1-2.774,6.436l-4.977,1.975-3.655-9.212,4.977-1.975a4.95,4.95,0,0,1,6.429,2.777" transform="translate(-33.808 -49.208)" fill="#5ba4d1"/>
        <g id="Grupo_1103660" data-name="Grupo 1103660" transform="translate(49.92 89.268)" opacity="0.2" style="mix-blend-mode: multiply;isolation: isolate">
          <g id="Grupo_1103659" data-name="Grupo 1103659">
            <g id="Grupo_1103658" data-name="Grupo 1103658" clip-path="url(#clip-path-3)">
              <path id="Trazado_883602" data-name="Trazado 883602" d="M98.75,141.485a4.834,4.834,0,0,1-.4,1.777A4.932,4.932,0,0,1,95.63,145.9l-9.961,3.953a4.956,4.956,0,0,1-6.432-2.783,3.576,3.576,0,0,1-.118-.351c3.085.651,9.227.5,19.63-5.239" transform="translate(-79.12 -141.485)" fill="#492455"/>
            </g>
          </g>
        </g>
        <g id="Grupo_1103663" data-name="Grupo 1103663" transform="translate(54.235 85.895)" style="mix-blend-mode: soft-light;isolation: isolate">
          <g id="Grupo_1103662" data-name="Grupo 1103662">
            <g id="Grupo_1103661" data-name="Grupo 1103661" clip-path="url(#clip-path-4)">
              <path id="Trazado_883603" data-name="Trazado 883603" d="M93.976,137.681l-6.942,2.755a.766.766,0,0,1-.994-.429l-.026-.066a.765.765,0,0,1,.429-.994l6.942-2.755a.765.765,0,0,1,.993.429l.027.066a.765.765,0,0,1-.429.994" transform="translate(-85.96 -136.139)" fill="#fff"/>
            </g>
          </g>
        </g>
        <path id="Trazado_883604" data-name="Trazado 883604" d="M320.742,297.035a4.929,4.929,0,0,1-1.257,1.613,4.848,4.848,0,0,1-1.58.9,4.933,4.933,0,0,1-3.788-.232l-9.631-4.7a4.956,4.956,0,0,1-2.276-6.628,3.371,3.371,0,0,1,.18-.324,4.948,4.948,0,0,1,6.442-1.956l9.631,4.7a4.949,4.949,0,0,1,2.28,6.622" transform="translate(-111.348 -105.261)" fill="#ed6d7e"/>
        <path id="Trazado_883605" data-name="Trazado 883605" d="M325.187,298.7a4.947,4.947,0,0,1-6.625,2.285l-4.813-2.348,4.345-8.907,4.813,2.348a4.949,4.949,0,0,1,2.28,6.622" transform="translate(-115.793 -106.93)" fill="#5ba4d1"/>
        <g id="Grupo_1103666" data-name="Grupo 1103666" transform="translate(190.358 182.409)" opacity="0.2" style="mix-blend-mode: multiply;isolation: isolate">
          <g id="Grupo_1103665" data-name="Grupo 1103665">
            <g id="Grupo_1103664" data-name="Grupo 1103664" clip-path="url(#clip-path-5)">
              <path id="Trazado_883606" data-name="Trazado 883606" d="M319.485,300.086a4.828,4.828,0,0,1-1.58.9,4.936,4.936,0,0,1-3.788-.232l-9.631-4.7a4.955,4.955,0,0,1-2.276-6.627,3.375,3.375,0,0,1,.18-.324c1.6,2.719,5.846,7.157,17.1,10.977" transform="translate(-301.706 -289.109)" fill="#492455"/>
            </g>
          </g>
        </g>
        <g id="Grupo_1103669" data-name="Grupo 1103669" transform="translate(197.43 181.968)" style="mix-blend-mode: soft-light;isolation: isolate">
          <g id="Grupo_1103668" data-name="Grupo 1103668">
            <g id="Grupo_1103667" data-name="Grupo 1103667" clip-path="url(#clip-path-6)">
              <path id="Trazado_883607" data-name="Trazado 883607" d="M320.059,293.2l-6.713-3.275a.765.765,0,0,1-.352-1.023l.031-.064a.766.766,0,0,1,1.023-.353l6.713,3.275a.765.765,0,0,1,.352,1.023l-.031.064a.765.765,0,0,1-1.023.352" transform="translate(-312.916 -288.409)" fill="#fff"/>
            </g>
          </g>
        </g>
        <path id="Trazado_883608" data-name="Trazado 883608" d="M365.858,18.2a4.927,4.927,0,0,1-.86,1.855,4.83,4.83,0,0,1-1.334,1.239,4.931,4.931,0,0,1-3.742.63l-10.444-2.4a4.955,4.955,0,0,1-3.716-5.942,3.323,3.323,0,0,1,.1-.355A4.949,4.949,0,0,1,351.7,9.867l10.444,2.4a4.95,4.95,0,0,1,3.717,5.935" transform="translate(-127.561 -3.595)" fill="#ed6d7e"/>
        <path id="Trazado_883609" data-name="Trazado 883609" d="M371.163,18.978a4.948,4.948,0,0,1-5.936,3.724l-5.219-1.2,2.219-9.66,5.219,1.2a4.95,4.95,0,0,1,3.717,5.935" transform="translate(-132.865 -4.371)" fill="#5ba4d1"/>
        <g id="Grupo_1103672" data-name="Grupo 1103672" transform="translate(218.074 9.634)" opacity="0.2" style="mix-blend-mode: multiply;isolation: isolate">
          <g id="Grupo_1103671" data-name="Grupo 1103671">
            <g id="Grupo_1103670" data-name="Grupo 1103670" clip-path="url(#clip-path-7)">
              <path id="Trazado_883610" data-name="Trazado 883610" d="M365,22.1a4.829,4.829,0,0,1-1.334,1.238,4.935,4.935,0,0,1-3.743.631l-10.444-2.4a4.956,4.956,0,0,1-3.716-5.942,3.529,3.529,0,0,1,.1-.356c2.171,2.287,7.313,5.65,19.135,6.828" transform="translate(-345.635 -15.27)" fill="#492455"/>
            </g>
          </g>
        </g>
        <g id="Grupo_1103675" data-name="Grupo 1103675" transform="translate(224.596 7.561)" style="mix-blend-mode: soft-light;isolation: isolate">
          <g id="Grupo_1103674" data-name="Grupo 1103674">
            <g id="Grupo_1103673" data-name="Grupo 1103673" clip-path="url(#clip-path-8)">
              <path id="Trazado_883611" data-name="Trazado 883611" d="M363.844,15.235l-7.279-1.672a.765.765,0,0,1-.574-.917l.016-.069a.766.766,0,0,1,.917-.575l7.279,1.673a.766.766,0,0,1,.575.917l-.016.069a.766.766,0,0,1-.917.574" transform="translate(-355.971 -11.983)" fill="#fff"/>
            </g>
          </g>
        </g>
        <path id="Trazado_883612" data-name="Trazado 883612" d="M204.917,265.848a86.369,86.369,0,0,1-29.751-5.211,77.708,77.708,0,0,1-31.481-21.421c-9.653-10.842-16.585-24.565-20.605-40.786-8.26-33.336-18.5-40.382-25.672-40.382H97.3c-11.529.112-22.743,18.366-25.707,31.4l-2.461-.56a61.564,61.564,0,0,1,10.1-21.567c3.976-5.342,10.333-11.725,18.047-11.8h.14c11.7,0,21.157,14.228,28.112,42.3,9.424,38.035,32.669,53.865,50.51,60.446,24.058,8.874,52.72,5.9,71.321-7.413,16.72-11.963,26.393-27.058,29.573-46.146,2.785-16.721.24-34.274-2.007-49.761-1.372-9.462-2.668-18.4-2.668-26.285h2.524c0,7.7,1.283,16.554,2.642,25.923,4.559,31.428,10.231,70.541-28.595,98.322-11.881,8.5-27.707,12.938-43.913,12.939" transform="translate(-25.515 -47.485)" fill="#5c2e39"/>
        <path id="Trazado_883613" data-name="Trazado 883613" d="M398.485,133.319a9.022,9.022,0,1,1-9.022-9.022,9.022,9.022,0,0,1,9.022,9.022" transform="translate(-140.406 -45.873)" fill="#5c2e39"/>
        <path id="Trazado_883614" data-name="Trazado 883614" d="M412.3,52.6V100.97a6.94,6.94,0,0,1-6.94,6.94H364.243a6.94,6.94,0,0,1-6.94-6.94V52.6a6.94,6.94,0,0,1,6.94-6.94h41.113a6.94,6.94,0,0,1,6.94,6.94" transform="translate(-131.867 -16.852)" fill="#5c2e39"/>
        <path id="Trazado_883615" data-name="Trazado 883615" d="M396.37,57.95V92.506a2.566,2.566,0,0,1-2.568,2.568H368.6a2.566,2.566,0,0,1-2.568-2.568V57.95a2.566,2.566,0,0,1,2.568-2.568h25.2a2.566,2.566,0,0,1,2.568,2.568" transform="translate(-135.089 -20.439)" fill="#fff"/>
        <path id="Trazado_883616" data-name="Trazado 883616" d="M372.32,127.382a3.143,3.143,0,1,1-3.143-3.143,3.143,3.143,0,0,1,3.143,3.143" transform="translate(-135.089 -45.852)" fill="#e35856"/>
        <path id="Trazado_883617" data-name="Trazado 883617" d="M410.435,127.382a3.143,3.143,0,1,1-3.143-3.143,3.143,3.143,0,0,1,3.143,3.143" transform="translate(-149.157 -45.852)" fill="#e35856"/>
        <path id="Trazado_883618" data-name="Trazado 883618" d="M392.066,127.545H380.472a.707.707,0,0,0,0,1.413h11.594a.707.707,0,1,0,0-1.413" transform="translate(-140.157 -47.072)" fill="#b43e3b"/>
        <path id="Trazado_883619" data-name="Trazado 883619" d="M419.83,70.893h0a1.649,1.649,0,0,1-1.649-1.649V65.475a1.649,1.649,0,1,1,3.3,0v3.769a1.649,1.649,0,0,1-1.649,1.649" transform="translate(-154.335 -23.556)" fill="#5ba4d1"/>
        <path id="Trazado_883620" data-name="Trazado 883620" d="M419.83,86.2h0a1.649,1.649,0,0,1-1.649-1.649V80.783a1.649,1.649,0,0,1,3.3,0v3.769A1.649,1.649,0,0,1,419.83,86.2" transform="translate(-154.335 -29.205)" fill="#5ba4d1"/>
        <path id="Trazado_883621" data-name="Trazado 883621" d="M419.83,101.508h0a1.649,1.649,0,0,1-1.649-1.649V96.09a1.649,1.649,0,0,1,3.3,0v3.769a1.649,1.649,0,0,1-1.649,1.649" transform="translate(-154.335 -34.855)" fill="#5ba4d1"/>
        <g id="Grupo_1103678" data-name="Grupo 1103678" transform="translate(270.321 28.81)" opacity="0.2" style="mix-blend-mode: multiply;isolation: isolate">
          <g id="Grupo_1103677" data-name="Grupo 1103677">
            <g id="Grupo_1103676" data-name="Grupo 1103676" clip-path="url(#clip-path-9)">
              <path id="Trazado_883622" data-name="Trazado 883622" d="M438.552,52.6V100.97a6.94,6.94,0,0,1-6.94,6.94h-3.167V45.662h3.167a6.94,6.94,0,0,1,6.94,6.94" transform="translate(-428.444 -45.662)" fill="#492455"/>
            </g>
          </g>
        </g>
        <g id="Grupo_1103681" data-name="Grupo 1103681" transform="translate(230.945 34.943)" opacity="0.2" style="mix-blend-mode: multiply;isolation: isolate">
          <g id="Grupo_1103680" data-name="Grupo 1103680">
            <g id="Grupo_1103679" data-name="Grupo 1103679" clip-path="url(#clip-path-10)">
              <path id="Trazado_883623" data-name="Trazado 883623" d="M396.37,57.95v1.584H366.034V57.95a2.566,2.566,0,0,1,2.568-2.568h25.2a2.566,2.566,0,0,1,2.568,2.568" transform="translate(-366.034 -55.382)" fill="#492455"/>
            </g>
          </g>
        </g>
        <path id="Trazado_883624" data-name="Trazado 883624" d="M374.581,93.357s-1.487-1.381-2.777-.5c-1.5,1.027-1.007,3.9,2.777,5.971,3.658-2.025,4.269-4.8,2.893-5.823-1.167-.869-2.893.351-2.893.351" transform="translate(-136.928 -34.162)" fill="#e35856"/>
        <g id="Grupo_1103684" data-name="Grupo 1103684" transform="translate(230.945 70.805)" opacity="0.2" style="mix-blend-mode: multiply;isolation: isolate">
          <g id="Grupo_1103683" data-name="Grupo 1103683">
            <g id="Grupo_1103682" data-name="Grupo 1103682" clip-path="url(#clip-path-11)">
              <path id="Trazado_883625" data-name="Trazado 883625" d="M396.37,112.222v1.262a2.566,2.566,0,0,1-2.568,2.568H368.6a2.566,2.566,0,0,1-2.568-2.568v-1.262Z" transform="translate(-366.034 -112.222)" fill="#492455"/>
            </g>
          </g>
        </g>
        <path id="Trazado_883626" data-name="Trazado 883626" d="M283.647,227.486s26.265,17.57,51.3,11.995c3.043-.687,29.823-10.986,41.956-14.879s19.473-5.44,20.3-8a5.311,5.311,0,0,0-.848-4.057c-.982-1.645-2.536-3.052-3.963-3.264-3.946-.558-25.477,4.457-28.193,5.063-.137.037-.218.054-.259.063.678-.359,17.817-9.391,18.985-11.457a3.524,3.524,0,0,0-.049-4.142c-1.163-1.468-3.641-2.213-6.414-1.8-2.018.3-16.669,7.675-19.093,8.9a1.135,1.135,0,0,0-.14.064c.187-.124.493-.307.892-.539,2.954-1.8,10.907-6.747,11.055-8.016.112-.909-.9-2.212-2.509-2.824a5.71,5.71,0,0,0-4.348.164,91.435,91.435,0,0,0-8.465,4.326,2.9,2.9,0,0,0-3.188-2.227c-2.062.171-13.47,5.3-18.63,7.659-1.546.7-2.535,1.164-2.535,1.164a31.312,31.312,0,0,0-8.239-.58c-4.8.271-10.819,1.712-15.535,6.408a96.53,96.53,0,0,1-16.737,12.871c-3.186,1.977-5.338,3.1-5.338,3.1" transform="translate(-104.683 -71.69)" fill="#fbcaae"/>
        <g id="Grupo_1103687" data-name="Grupo 1103687" transform="translate(184.302 132.834)" opacity="0.59">
          <g id="Grupo_1103686" data-name="Grupo 1103686">
            <g id="Grupo_1103685" data-name="Grupo 1103685" clip-path="url(#clip-path-12)">
              <path id="Trazado_883627" data-name="Trazado 883627" d="M395.51,215.3c-3.946-.558-25.477,4.457-28.193,5.063l-.259.063-9.576,2.478a6.718,6.718,0,0,0-1.685-1.442c-1.913-1.127-4.944-1.648-8.069-1.982a122.1,122.1,0,0,0-12.573-8.942c-1.546.7-2.535,1.163-2.535,1.163l11.662,7.462c-2.061-.17-4-.325-5.486-.592-3.175-.574-7.855-4.174-14.414-7.449-4.8.271-10.819,1.712-15.535,6.408A96.559,96.559,0,0,1,292.108,230.4l15.434,6.381s15.654-.2,23.728-.411,20.576-.471,25.043-2.83c3-1.587,3.632-4.688,2.859-7.44,2.051-.474,11.5-2.666,17.608-4.215,6.358-1.6,16.2-4.249,22.693-3.323-.982-1.645-2.535-3.052-3.962-3.264" transform="translate(-292.108 -210.535)" fill="#f59d80"/>
            </g>
          </g>
        </g>
        <path id="Trazado_883628" data-name="Trazado 883628" d="M247.1,223.244c-2.126,1.445-10.537,1.811-19.906,2.2-7.918.334-16.518.688-22.581,1.748a69.808,69.808,0,0,1-16.253,1.035,32.736,32.736,0,0,1-4.934-.612s-11.123,4.29-26.638,10.127C122.5,250.645,66.753,271.094,62.1,269.5,55.34,267.182,0,248.9,0,248.9V186.46l68.583,33.276,71.971-12.076c8.322-1.35,37.049-5.849,46.216-7.073,14.543-2.12,27.793,6.234,38.759,10.474,7.628,2.953,14.341.063,19.944,2.6,2.833,1.293,5.54,6.915,1.628,9.584" transform="translate(0 -68.815)" fill="#fbcaae"/>
        <g id="Grupo_1103690" data-name="Grupo 1103690" transform="translate(0 142.857)" opacity="0.59">
          <g id="Grupo_1103689" data-name="Grupo 1103689">
            <g id="Grupo_1103688" data-name="Grupo 1103688" clip-path="url(#clip-path-13)">
              <path id="Trazado_883629" data-name="Trazado 883629" d="M156.788,252.49c-34.285,12.9-90.035,33.351-94.691,31.755C55.34,281.93,0,263.652,0,263.652V226.42c17.925,19.275,62,50.626,156.788,26.07" transform="translate(0 -226.42)" fill="#f59d80"/>
            </g>
          </g>
        </g>
        <g id="Grupo_1103693" data-name="Grupo 1103693" transform="translate(244.023 125.21)" opacity="0.59">
          <g id="Grupo_1103692" data-name="Grupo 1103692">
            <g id="Grupo_1103691" data-name="Grupo 1103691" clip-path="url(#clip-path-14)">
              <path id="Trazado_883630" data-name="Trazado 883630" d="M386.762,212.9c.893-.387,15.257-6.639,22.239-10.2a23.709,23.709,0,0,1,11.927-2.34c-1.163-1.468-3.641-2.213-6.414-1.8-2.018.3-16.669,7.675-19.093,8.905Z" transform="translate(-386.762 -198.45)" fill="#f59d80"/>
            </g>
          </g>
        </g>
        <g id="Grupo_1103696" data-name="Grupo 1103696" transform="translate(238.21 122.559)" opacity="0.59">
          <g id="Grupo_1103695" data-name="Grupo 1103695">
            <g id="Grupo_1103694" data-name="Grupo 1103694" clip-path="url(#clip-path-15)">
              <path id="Trazado_883631" data-name="Trazado 883631" d="M377.549,205.806c6.044-3.123,18.184-8.672,23.769-11.205a5.713,5.713,0,0,0-4.348.165,91.336,91.336,0,0,0-8.465,4.326s-3.128,1.871-10.956,6.715" transform="translate(-377.549 -194.249)" fill="#f59d80"/>
            </g>
          </g>
        </g>
        <path id="Trazado_883632" data-name="Trazado 883632" d="M379.9,240.225l-.7-6.914s5.613-.025,6.564.463,1.152,4.836.1,5.813-5.964.637-5.964.637" transform="translate(-139.95 -86.106)" fill="#ffe6dd"/>
        <path id="Trazado_883633" data-name="Trazado 883633" d="M76.768,224.592,65.531,275.553a5.173,5.173,0,0,1-6.852,3.735l-1.022-.379L23.883,266.341l-1.741-.65a5.163,5.163,0,0,1-3.262-5.868l10.915-53.787a5.162,5.162,0,0,1,7.167-3.691l.688.3L72.793,218.3l1.028.461a5.183,5.183,0,0,1,2.946,5.836" transform="translate(-6.929 -74.511)" fill="#3b76b1"/>
        <path id="Trazado_883634" data-name="Trazado 883634" d="M78.184,212.43a9.022,9.022,0,1,1-9.022-9.022,9.022,9.022,0,0,1,9.022,9.022" transform="translate(-22.195 -75.07)" fill="#3b76b1"/>
        <path id="Trazado_883635" data-name="Trazado 883635" d="M75.78,218.737,72.5,231.873l-.94,3.779-9.117,36.506-1.8,7.193L26.87,266.783l3.3-15.275,6.865-31.755.909-4.2,2.694-12.461Z" transform="translate(-9.917 -74.953)" fill="#5ba4d1"/>
        <path id="Trazado_883636" data-name="Trazado 883636" d="M92.373,232.778a1.817,1.817,0,1,1-1.817-1.817,1.817,1.817,0,0,1,1.817,1.817" transform="translate(-32.75 -85.239)" fill="#ffe6dd"/>
        <path id="Trazado_883637" data-name="Trazado 883637" d="M78.445,239.162l-.94,3.779-34.525-15.9.909-4.2Z" transform="translate(-15.862 -82.242)" fill="#3b76b1"/>
        <g id="Grupo_1103699" data-name="Grupo 1103699" transform="translate(16.953 176.555)" opacity="0.2" style="mix-blend-mode: multiply;isolation: isolate">
          <g id="Grupo_1103698" data-name="Grupo 1103698">
            <g id="Grupo_1103697" data-name="Grupo 1103697" clip-path="url(#clip-path-16)">
              <path id="Trazado_883638" data-name="Trazado 883638" d="M62.442,300.481l-1.8,7.193L26.87,295.105l3.3-15.275c5.754,10.77,15.534,20.43,32.272,20.651" transform="translate(-26.87 -279.83)" fill="#492455"/>
            </g>
          </g>
        </g>
        <path id="Trazado_883639" data-name="Trazado 883639" d="M271.162,78.251a50.983,50.983,0,1,0-50.983,50.983,50.983,50.983,0,0,0,50.983-50.983" transform="translate(-62.444 -10.064)" fill="#2b63a8"/>
        <path id="Trazado_883640" data-name="Trazado 883640" d="M227.792,126.967,195.883,95.058A20.686,20.686,0,1,1,225.138,65.8l2.654,2.654,2.654-2.654A20.686,20.686,0,0,1,259.7,95.058Z" transform="translate(-70.057 -22.049)" fill="#e35856"/>
        <path id="Trazado_883641" data-name="Trazado 883641" d="M240.731,119.833c-1.856,0-2.445-2.917-3.936-19.511-.449-4.992-.984-10.952-1.527-13.712-.726,2.671-1.54,8.451-2.119,12.559-1.438,10.209-1.686,11.147-2.952,11.147-1.187,0-1.527-1.131-3.106-8.176-.847-3.778-2.378-10.612-3.488-12.026-.977,1.36-2.681,7.175-3.808,12.246l-.165.741H208.3a.946.946,0,1,1,0-1.893h9.814c2.988-13.153,4.768-13.154,5.446-13.154,2.1,0,3.248,4.165,5.378,13.671.368,1.645.789,3.523,1.155,4.921.375-2.013.808-5.09,1.182-7.742,1.823-12.944,2.474-15.389,4.1-15.389,1.588,0,1.989,2.022,3.3,16.637.524,5.829,1.281,14.254,2.1,17.082a84.514,84.514,0,0,0,1.661-10.5c1.288-10.589,2.035-14.9,4.267-14.9,2.485,0,3.471,5.524,3.855,9.378h10.045a.946.946,0,1,1,0,1.893h-11.78l-.073-.868c-.326-3.892-1.243-7.744-1.982-8.436-1.008,1.286-1.908,8.677-2.454,13.163-1.184,9.728-1.723,12.872-3.588,12.872" transform="translate(-76.527 -30.823)" fill="#5c2e39"/>
        <g id="Grupo_1103702" data-name="Grupo 1103702" transform="translate(125.859 42.757)" style="mix-blend-mode: soft-light;isolation: isolate">
          <g id="Grupo_1103701" data-name="Grupo 1103701">
            <g id="Grupo_1103700" data-name="Grupo 1103700" clip-path="url(#clip-path-17)">
              <path id="Trazado_883642" data-name="Trazado 883642" d="M210.6,68.683c1.547,1.7.469,5.2-2.407,7.817s-6.463,3.353-8.01,1.651-.469-5.2,2.407-7.817,6.463-3.353,8.01-1.651" transform="translate(-199.479 -67.767)" fill="#fff"/>
            </g>
          </g>
        </g>
        <g id="Grupo_1103705" data-name="Grupo 1103705" transform="translate(177.748 40.548)" style="mix-blend-mode: soft-light;isolation: isolate">
          <g id="Grupo_1103704" data-name="Grupo 1103704">
            <g id="Grupo_1103703" data-name="Grupo 1103703" clip-path="url(#clip-path-18)">
              <path id="Trazado_883643" data-name="Trazado 883643" d="M289,69.966c-.868,1.256-3.124,1.2-5.041-.122s-2.767-3.415-1.9-4.671,3.124-1.2,5.041.123,2.767,3.415,1.9,4.671" transform="translate(-281.721 -64.266)" fill="#fff"/>
            </g>
          </g>
        </g>
        <path id="Trazado_883644" data-name="Trazado 883644" d="M202.489,141.711c-2.068,0-4.233-.079-6.51-.245-24.565-1.8-42.15-15.8-52.577-27.234a104.738,104.738,0,0,1-16.889-24.584l2.3-1.045a104.263,104.263,0,0,0,16.509,23.986c10.11,11.066,27.137,24.622,50.843,26.359,22.728,1.667,34.147-5.7,39.772-12.387a13.939,13.939,0,0,1-5.154-6.964,12.371,12.371,0,0,1,3.663-13.508c3.461-3.07,5.991-1.963,6.919-1.345,3.14,2.092,3.858,8.158,1.708,14.424a27.848,27.848,0,0,1-3.345,6.567,9.233,9.233,0,0,0,2.436.542c5.361.438,10.631-3.705,14.838-11.672,6.885-13.04,9.316-45.725,2.232-63.867-2.284-5.847-5.27-9.458-8.877-10.735-11.111-3.932-21.485,18.717-21.589,18.946l-2.3-1.039c.461-1.022,11.459-24.985,24.73-20.287,4.329,1.533,7.824,5.636,10.386,12.2,6.84,17.514,5.654,50.8-2.351,65.964-6.353,12.033-13.554,13.318-17.276,13.009a11.822,11.822,0,0,1-3.789-.97c-5.366,6.588-15.8,13.887-35.678,13.888m36.475-35.166a4.831,4.831,0,0,0-2.844,1.433,9.792,9.792,0,0,0-2.945,10.821,11.4,11.4,0,0,0,4.3,5.764,25.343,25.343,0,0,0,3.214-6.213c1.9-5.543,1.107-10.289-.721-11.505a1.769,1.769,0,0,0-1-.3" transform="translate(-46.691 -13.66)" fill="#5c2e39"/>
        <path id="Trazado_883645" data-name="Trazado 883645" d="M291.941,63.65a12.49,12.49,0,1,1-12.49-12.491,12.49,12.49,0,0,1,12.49,12.491" transform="translate(-98.525 -18.881)" fill="#3b76b1"/>
        <path id="Trazado_883646" data-name="Trazado 883646" d="M290.354,65.887a8.667,8.667,0,1,1-8.667-8.667,8.667,8.667,0,0,1,8.667,8.667" transform="translate(-100.761 -21.118)" fill="#5ba4d1"/>
        <path id="Trazado_883647" data-name="Trazado 883647" d="M288.2,68.924a3.475,3.475,0,1,1-3.474-3.475,3.475,3.475,0,0,1,3.474,3.475" transform="translate(-103.798 -24.155)" fill="#ffe6dd"/>
        <path id="Trazado_883648" data-name="Trazado 883648" d="M64.823,63.58A1.474,1.474,0,0,1,63.556,63c-5.625-7.431-17.774-26.433-17.39-29.41.411-3.19,4.967-7.589,5.876-8.438a1.476,1.476,0,0,1,2.015,2.157c-1.915,1.791-4.691,5-4.956,6.6.25,2.006,10.077,18.42,16.808,27.311a1.475,1.475,0,0,1-1.086,2.363" transform="translate(-17.035 -9.135)" fill="#5c2e39"/>
        <path id="Trazado_883649" data-name="Trazado 883649" d="M51.281,22.676c-.369.741,1.5,4.789,3.068,4.877s9.051-5.2,7.31-8.369S52.17,20.89,51.281,22.676" transform="translate(-18.909 -6.694)" fill="#5c2e39"/>
        <path id="Trazado_883650" data-name="Trazado 883650" d="M122.924,38.549a1.476,1.476,0,0,1-1.533-1.176c-2.247-10.925-8.125-29.132-9.468-30.643-1.378-.856-5.617-.88-8.223-.616a1.476,1.476,0,0,1-.3-2.936c1.237-.124,7.546-.657,10.216,1.135,2.492,1.673,8.784,23.334,10.662,32.466a1.474,1.474,0,0,1-1.148,1.742,1.423,1.423,0,0,1-.21.028M111.9,6.7h0" transform="translate(-37.673 -1.11)" fill="#5c2e39"/>
        <path id="Trazado_883651" data-name="Trazado 883651" d="M115.209,70.525c-3.428,4.871-13.43,9.843-15.9,10.744-2.535,1.367-12.635,5.519-18.548,4.894-6.784-.724-15.429-17.656-15.429-17.656L67.021,67.5l1.748-1.05a4.308,4.308,0,0,1,5.894,1.442c2.09,3.408,5.262,8.12,7.486,9.317,2.784,1.5,12-2.321,14.451-3.379,2.177-1.039,10.258-5.078,10.97-8.159.565-2.464-.89-7.962-2.075-11.782a4.307,4.307,0,0,1,2.8-5.381l1.322-.425,2.493-.8s7.037,17.663,3.1,23.244" transform="translate(-24.113 -17.45)" fill="#e35856"/>
        <path id="Trazado_883652" data-name="Trazado 883652" d="M118.4,93.246l-7.541,3.424,7.986,17.62c.941,2.078,2.941,3.2,4.466,2.507l2.018-.917c1.525-.692,2-2.938,1.057-5.015Z" transform="translate(-40.913 -34.414)" fill="#e35856"/>
        <g id="Grupo_1103708" data-name="Grupo 1103708" transform="translate(41.223 29.831)" opacity="0.2" style="mix-blend-mode: multiply;isolation: isolate">
          <g id="Grupo_1103707" data-name="Grupo 1103707">
            <g id="Grupo_1103706" data-name="Grupo 1103706" clip-path="url(#clip-path-19)">
              <path id="Trazado_883653" data-name="Trazado 883653" d="M112.1,47.281l-2.493.8c1.36,5.683,3.447,15.649,2.3,18.813-1.636,4.514-15.924,13.112-25.947,15.143-7.959,1.617-15.987-9.785-18.943-14.54l-1.685,1.006S73.98,85.439,80.764,86.163c4.215.446,10.553-1.535,14.766-3.205l6.513,14.369c.941,2.077,2.94,3.2,4.466,2.507l2.018-.917c1.525-.693,2-2.938,1.056-5.015L103.07,79.531c4.009-2.071,9.715-5.563,12.139-9.006,3.932-5.581-3.105-23.244-3.105-23.244" transform="translate(-65.336 -47.281)" fill="#492455"/>
            </g>
          </g>
        </g>
        <path id="Trazado_883654" data-name="Trazado 883654" d="M101.29.062c.8.211,2.609,4.288,1.644,5.523s-9.873,3.388-11.106-.01S99.362-.445,101.29.062" transform="translate(-33.846 0)" fill="#5c2e39"/>
        <path id="Trazado_883655" data-name="Trazado 883655" d="M101.13,28.03A5.573,5.573,0,0,0,106.7,33.6a5.573,5.573,0,0,0-5.573,5.573A5.573,5.573,0,0,0,95.556,33.6a5.574,5.574,0,0,0,5.574-5.574" transform="translate(-35.266 -10.345)" fill="#fff"/>
        <path id="Trazado_883656" data-name="Trazado 883656" d="M32.87,82.705a5.574,5.574,0,0,0,5.574,5.574,5.573,5.573,0,0,0-5.574,5.573A5.573,5.573,0,0,0,27.3,88.279a5.574,5.574,0,0,0,5.574-5.574" transform="translate(-10.074 -30.523)" fill="#fff"/>
        <path id="Trazado_883657" data-name="Trazado 883657" d="M393.125,306.065a5.573,5.573,0,0,0,5.573,5.574,5.573,5.573,0,0,0-5.573,5.573,5.573,5.573,0,0,0-5.574-5.573,5.574,5.574,0,0,0,5.574-5.574" transform="translate(-143.03 -112.957)" fill="#fff"/>
        <path id="Trazado_883658" data-name="Trazado 883658" d="M460.579,130.753a5.573,5.573,0,0,0,5.573,5.574,5.573,5.573,0,0,0-5.573,5.574,5.574,5.574,0,0,0-5.574-5.574,5.574,5.574,0,0,0,5.574-5.574" transform="translate(-167.925 -48.256)" fill="#fff"/>
        <path id="Trazado_883659" data-name="Trazado 883659" d="M161.792,21.532a3.62,3.62,0,0,0,3.619,3.62,3.619,3.619,0,0,0-3.619,3.619,3.619,3.619,0,0,0-3.619-3.619,3.62,3.62,0,0,0,3.619-3.62" transform="translate(-58.376 -7.947)" fill="#fff"/>
        <path id="Trazado_883660" data-name="Trazado 883660" d="M167.966,205.184a2.873,2.873,0,0,0,2.873,2.873,2.872,2.872,0,0,0-2.873,2.873,2.872,2.872,0,0,0-2.873-2.873,2.873,2.873,0,0,0,2.873-2.873" transform="translate(-60.93 -75.726)" fill="#fff"/>
        <path id="Trazado_883661" data-name="Trazado 883661" d="M416.815,23.833a2.873,2.873,0,0,0,2.873,2.873,2.872,2.872,0,0,0-2.873,2.873,2.873,2.873,0,0,0-2.873-2.873,2.873,2.873,0,0,0,2.873-2.873" transform="translate(-152.77 -8.796)" fill="#fff"/>
      </g>
    </g>
    <text id="_140" data-name="140" transform="translate(237.051 51.221)" fill="#3b76b1" font-size="10" font-family="MartelSans-ExtraBold, Martel Sans" font-weight="800"><tspan x="0" y="0" letter-spacing="0.16em">14</tspan><tspan y="0">0</tspan></text>
    <text id="_72" data-name="72" transform="translate(245.205 64.463)" fill="#3b76b1" font-size="10" font-family="MartelSans-ExtraBold, Martel Sans" font-weight="800"><tspan x="0" y="0" letter-spacing="0.13em">7</tspan><tspan y="0">2</tspan></text>
  </g>
</svg>
