<svg id="Grupo_1103746" data-name="Grupo 1103746" xmlns="http://www.w3.org/2000/svg" xmlns:xlink="http://www.w3.org/1999/xlink" width="219.828" height="219.967" viewBox="0 0 219.828 219.967">
  <defs>
    <clipPath id="clip-path">
      <rect id="Rectángulo_403774" data-name="Rectángulo 403774" width="219.828" height="219.967" fill="none"/>
    </clipPath>
    <clipPath id="clip-path-2">
      <rect id="Rectángulo_403760" data-name="Rectángulo 403760" width="219.828" height="219.967" fill="#95a862"/>
    </clipPath>
    <clipPath id="clip-path-5">
      <rect id="Rectángulo_403763" data-name="Rectángulo 403763" width="10.074" height="10.074" fill="none"/>
    </clipPath>
    <clipPath id="clip-path-6">
      <rect id="Rectángulo_403764" data-name="Rectángulo 403764" width="15.826" height="9.627" fill="none"/>
    </clipPath>
    <clipPath id="clip-path-9">
      <rect id="Rectángulo_403769" data-name="Rectángulo 403769" width="36.932" height="71.394" fill="none"/>
    </clipPath>
    <clipPath id="clip-path-10">
      <rect id="Rectángulo_403770" data-name="Rectángulo 403770" width="5.615" height="22.328" fill="none"/>
    </clipPath>
    <clipPath id="clip-path-11">
      <rect id="Rectángulo_403771" data-name="Rectángulo 403771" width="5.539" height="17.979" fill="none"/>
    </clipPath>
    <clipPath id="clip-path-12">
      <rect id="Rectángulo_403772" data-name="Rectángulo 403772" width="13.082" height="7.32" fill="#eefad1"/>
    </clipPath>
  </defs>
  <g id="Grupo_1103745" data-name="Grupo 1103745" clip-path="url(#clip-path)">
    <path id="Trazado_883662" data-name="Trazado 883662" d="M250.339,227.522l.016,0-.013-.009Z" transform="translate(-135.326 -122.99)" fill="#f5f5f5"/>
    <path id="Trazado_883663" data-name="Trazado 883663" d="M250.251,227.485l.035.013-.021-.022Z" transform="translate(-135.278 -122.967)" fill="#f5f5f5"/>
    <path id="Trazado_883664" data-name="Trazado 883664" d="M250.1,227.427l.062.019-.028-.04Z" transform="translate(-135.199 -122.929)" fill="#f5f5f5"/>
    <path id="Trazado_883665" data-name="Trazado 883665" d="M250.068,227.341l.011,0-.012-.008Z" transform="translate(-135.178 -122.888)" fill="#f5f5f5"/>
    <path id="Trazado_883666" data-name="Trazado 883666" d="M250.1,227.177l.009.011-.007-.016Z" transform="translate(-135.195 -122.802)" fill="#f5f5f5"/>
    <path id="Trazado_883667" data-name="Trazado 883667" d="M250.32,227.446l.008.01,0-.017Z" transform="translate(-135.315 -122.947)" fill="#f5f5f5"/>
    <path id="Trazado_883668" data-name="Trazado 883668" d="M249.8,227.214l.028-.007.006-.034-.154-.1Z" transform="translate(-134.971 -122.746)" fill="#f5f5f5"/>
    <path id="Trazado_883669" data-name="Trazado 883669" d="M250.007,227.337l.027-.006-.012-.021Z" transform="translate(-135.146 -122.877)" fill="#f5f5f5"/>
    <path id="Trazado_883670" data-name="Trazado 883670" d="M250.287,227.414l.012-.013h-.023Z" transform="translate(-135.292 -122.926)" fill="#f5f5f5"/>
    <path id="Trazado_883671" data-name="Trazado 883671" d="M250.247,227.467l.008-.009-.01-.006Z" transform="translate(-135.275 -122.954)" fill="#f5f5f5"/>
    <g id="Grupo_1103718" data-name="Grupo 1103718">
      <g id="Grupo_1103717" data-name="Grupo 1103717" clip-path="url(#clip-path-2)">
        <path id="Trazado_883672" data-name="Trazado 883672" d="M267.864,4.69l-8.826,51.4.21.035-8.7,50.361L272.925,60.54l.1.05,22.41-46.132A110.832,110.832,0,0,0,267.864,4.69" transform="translate(-135.438 -2.535)" fill="#95a862"/>
        <path id="Trazado_883673" data-name="Trazado 883673" d="M338.173,84.63a110.1,110.1,0,0,0-18.731-22.388L285.1,99.941l.092.085L250.5,138.034Z" transform="translate(-135.411 -33.646)" fill="#95a862"/>
        <path id="Trazado_883674" data-name="Trazado 883674" d="M99.534,99.3h0l42.257,28.763-.184-.059.408.277-.007,0h.011l.025-.007v.008h.034l0-.011,0,.011h.011l-.007.008.007.018.034-.021.028.04-.062-.019.023.038.033-.011-.01.012h.024v0h.031v.011l.024-.011.01.007-.035.01.163.143-.123-.149,42.5,28.928c-.021.031-.042.061-.062.092l47.146,32.163a110.456,110.456,0,0,0,9.868-21.99c.707-2.186,1.333-4.377,1.9-6.573L191.2,144.037l-.027.084-48.938-15.769-.016-.005h.006l-.016-.02.02-.042.235.005-.213.057.476.012-.212-.068,104.5,2.594a109.7,109.7,0,0,0-4.8-29.422l-99.723,26.82-.168-.054.1-.059-.152.041h0l0-.008-.013.005.131-.249-.154.169-.011.069-.072.024-.006-.05-.041-.013.031-.064-.023-.194-.039.227.01.023-.013,0v.007l-.079-.1.031.074-.162-.052L73.075,44.043A109.82,109.82,0,0,0,50.29,65.782Zm42.667,29.04.013.008-.016,0Zm-.042-.011.014-.009.021.022Zm.042-.026,0,.017-.008-.01Zm-.008-.017-.012.012-.011-.013Zm-.027.029-.007.009,0-.015Zm-.09-.051v-.011l.012.008Zm.015-.083.006.016-.009-.011Zm-.03.063.012.021-.026.007Zm-.009-.006-.006.034-.028.007-.12-.146Z" transform="translate(-27.185 -23.808)" fill="#95a862"/>
        <path id="Trazado_883675" data-name="Trazado 883675" d="M180.882,56.975l.009,0,20.077,47.319L195.048,53.2l.018,0L188.842,0a109.9,109.9,0,0,0-29.57,6.068Z" transform="translate(-86.098 -0.001)" fill="#95a862"/>
        <path id="Trazado_883676" data-name="Trazado 883676" d="M282.992,267.678l-.041.034-32.486-39.691,20.061,47.256-.1.042,23.832,56.322A110.491,110.491,0,0,0,320.4,313.494Z" transform="translate(-135.393 -123.261)" fill="#95a862"/>
        <path id="Trazado_883677" data-name="Trazado 883677" d="M250.227,227.733l-.006-.007,0,.011Z" transform="translate(-135.262 -123.102)" fill="#f5f5f5"/>
        <path id="Trazado_883678" data-name="Trazado 883678" d="M250.009,227.436l-.01.011-.015-.018-.006.039.005,0,0,0h.036l-.013-.016.016-.01.008.005v-.009l.01-.006-.049-.016Z" transform="translate(-135.131 -122.935)" fill="#f5f5f5"/>
        <path id="Trazado_883679" data-name="Trazado 883679" d="M249.677,227.461l.022-.045-.009-.011-.227.051Z" transform="translate(-134.852 -122.928)" fill="#f5f5f5"/>
        <path id="Trazado_883680" data-name="Trazado 883680" d="M117.594,227.776,68.078,241.093l-.048-.181-62.6,16.76a110.578,110.578,0,0,0,12.249,30.855L82.258,249.3Z" transform="translate(-2.933 -123.129)" fill="#95a862"/>
        <path id="Trazado_883681" data-name="Trazado 883681" d="M63.419,185.334l51.4,1.276L7.258,151.95c-.791,2.03-1.534,4.092-2.214,6.192A110.352,110.352,0,0,0,0,183.7l63.419,1.64v-.009" transform="translate(0 -82.14)" fill="#95a862"/>
        <path id="Trazado_883682" data-name="Trazado 883682" d="M156.707,228.185,77.749,314.692a109.342,109.342,0,0,0,27.844,18.436Z" transform="translate(-42.029 -123.35)" fill="#95a862"/>
        <path id="Trazado_883683" data-name="Trazado 883683" d="M250.3,227.576l-.016,0,.006.016Z" transform="translate(-135.293 -123.021)" fill="#f5f5f5"/>
        <path id="Trazado_883684" data-name="Trazado 883684" d="M226.992,228.349,207.281,342.432a109.278,109.278,0,0,0,32.866-.572Z" transform="translate(-112.05 -123.439)" fill="#95a862"/>
        <path id="Trazado_883685" data-name="Trazado 883685" d="M249.847,227.734l-.066.384.164-.339-.016-.136Z" transform="translate(-135.024 -123.057)" fill="#f5f5f5"/>
        <path id="Trazado_883686" data-name="Trazado 883686" d="M250.253,227.591l-.008,0,.009.006Z" transform="translate(-135.275 -123.029)" fill="#f5f5f5"/>
        <path id="Trazado_883687" data-name="Trazado 883687" d="M53.939,247.082l-4.305.19a14.376,14.376,0,1,0,3.482,3.794l.006.006Z" transform="translate(-14.397 -132.099)" fill="#1e4678"/>
        <path id="Trazado_883688" data-name="Trazado 883688" d="M53.785,246.973s-.026.094-.065.269-.1.441-.171.77l-.637,2.939.1-.03L53,250.914a.057.057,0,0,0-.081,0,.058.058,0,0,0-.006.07,14.219,14.219,0,0,1,2.117,8.778c-.027.381-.107.763-.159,1.154a7.937,7.937,0,0,1-.249,1.178,14.12,14.12,0,0,1-2.157,4.692,14.186,14.186,0,0,1-16.474,5.168,14.463,14.463,0,0,1-3.057-1.532,14.726,14.726,0,0,1-4.633-5.114,14.345,14.345,0,0,1-1.222-3.162,14.067,14.067,0,0,1-.15-6.491,14.278,14.278,0,0,1,22.513-8.449.062.062,0,0,0,.038.012l3.182-.176.831-.05c.188-.012.29-.023.29-.023s-.086,0-.268,0L52.7,247l-3.223.107.038.012a14.278,14.278,0,0,0-6.431-2.767A14.478,14.478,0,0,0,26.667,255.6a14.315,14.315,0,0,0,.144,6.616,14.589,14.589,0,0,0,1.244,3.226,14.3,14.3,0,0,0,7.843,6.775,14.474,14.474,0,0,0,16.76-5.295,14.285,14.285,0,0,0,2.169-4.776,8.051,8.051,0,0,0,.246-1.2c.051-.4.129-.785.153-1.171a14.614,14.614,0,0,0,.006-2.232,14.391,14.391,0,0,0-2.221-6.623l-.087.073.006.005a.057.057,0,0,0,.08,0,.063.063,0,0,0,.015-.028c.25-1.294.444-2.3.577-2.99.061-.325.108-.577.142-.76a2.486,2.486,0,0,0,.041-.25" transform="translate(-14.242 -131.99)" fill="#e0e0e0"/>
        <path id="Trazado_883689" data-name="Trazado 883689" d="M397.219,134.684l3.845.152a12.837,12.837,0,1,0-2.816-3.635l-.005-.006Z" transform="translate(-214.498 -60.802)" fill="#ff6d7a"/>
        <path id="Trazado_883690" data-name="Trazado 883690" d="M397.124,134.546s.03-.082.078-.234l.21-.672.786-2.568-.087.02.005.005a.051.051,0,0,0,.072,0,.052.052,0,0,0,.011-.062,12.685,12.685,0,0,1-1.229-7.97c.052-.337.152-.671.227-1.015a7.083,7.083,0,0,1,.309-1.03,12.609,12.609,0,0,1,2.27-4.015,12.763,12.763,0,0,1,17.651-1.78,13.165,13.165,0,0,1,3.742,4.9,12.8,12.8,0,0,1,.851,2.905,12.566,12.566,0,0,1-.351,5.787A12.75,12.75,0,0,1,401,134.659a.054.054,0,0,0-.033-.013l-2.844-.081-.743-.017c-.169,0-.26,0-.26,0s.077.009.238.018l.729.041,2.876.145-.033-.013a12.756,12.756,0,0,0,5.516,2.942,12.929,12.929,0,0,0,15.448-8.791,12.79,12.79,0,0,0,.365-5.9,13.028,13.028,0,0,0-.867-2.963,12.768,12.768,0,0,0-6.474-6.614,12.925,12.925,0,0,0-15.31,3.462,12.765,12.765,0,0,0-2.287,4.088,7.193,7.193,0,0,0-.308,1.047c-.074.35-.173.689-.224,1.031a13.054,13.054,0,0,0-.171,1.986,12.849,12.849,0,0,0,1.483,6.059l.083-.058,0-.005a.05.05,0,0,0-.072,0,.052.052,0,0,0-.015.024l-.737,2.618-.184.666a2.26,2.26,0,0,0-.055.22" transform="translate(-214.403 -60.664)" fill="#e0e0e0"/>
        <path id="Trazado_883691" data-name="Trazado 883691" d="M407.879,141.747h-1.456v1.421H405.1v-1.421h-1.464v-1.258H405.1v-1.421h1.327v1.421h1.456Z" transform="translate(-218.191 -75.176)" fill="#e0e0e0"/>
        <path id="Trazado_883692" data-name="Trazado 883692" d="M417.233,139.185a4.348,4.348,0,0,1-1.719-1.619,4.728,4.728,0,0,1,0-4.7,4.351,4.351,0,0,1,1.719-1.619,5.178,5.178,0,0,1,2.469-.581,5.3,5.3,0,0,1,2.163.425,4.162,4.162,0,0,1,1.6,1.225l-1.575,1.425a2.593,2.593,0,0,0-2.063-1.025,2.548,2.548,0,0,0-1.269.312,2.168,2.168,0,0,0-.862.882,2.938,2.938,0,0,0,0,2.613,2.168,2.168,0,0,0,.862.882,2.543,2.543,0,0,0,1.269.312,2.592,2.592,0,0,0,2.063-1.025l1.575,1.425a4.153,4.153,0,0,1-1.6,1.225,5.308,5.308,0,0,1-2.163.425,5.184,5.184,0,0,1-2.469-.581" transform="translate(-224.277 -70.633)" fill="#e0e0e0"/>
        <path id="Trazado_883693" data-name="Trazado 883693" d="M436.33,133.564a2.157,2.157,0,0,1-.876-.744,1.972,1.972,0,0,1,0-2.15,2.161,2.161,0,0,1,.876-.744,2.848,2.848,0,0,1,1.256-.269,2.885,2.885,0,0,1,1.269.269,2.116,2.116,0,0,1,.868.744,2,2,0,0,1,0,2.15,2.112,2.112,0,0,1-.868.744,2.878,2.878,0,0,1-1.269.269,2.842,2.842,0,0,1-1.256-.269M438.2,132.4a1.017,1.017,0,0,0,0-1.307.928.928,0,0,0-1.225,0,1.016,1.016,0,0,0,0,1.307.909.909,0,0,0,1.225,0" transform="translate(-235.221 -70.089)" fill="#e0e0e0"/>
        <path id="Trazado_883694" data-name="Trazado 883694" d="M439.845,434.815l-4.687-.017-.016,4.576-4.271-.016.017-4.576-4.715-.017.015-4.049,4.715.017.016-4.576,4.271.016-.017,4.576,4.687.017Z" transform="translate(-230.376 -230.368)" fill="#ebebeb"/>
        <path id="Trazado_883695" data-name="Trazado 883695" d="M456.756,408.169l-1.846-.007-.006,1.8-1.683-.006.006-1.8-1.857-.007.006-1.6,1.857.006.006-1.8,1.683.006-.007,1.8,1.847.007Z" transform="translate(-243.997 -218.8)" fill="#ebebeb"/>
        <path id="Trazado_883696" data-name="Trazado 883696" d="M390.462,440.915l-1.846-.007-.006,1.8-1.683-.006.006-1.8-1.857-.007.006-1.6,1.857.006.006-1.8,1.683.006-.007,1.8,1.847.007Z" transform="translate(-208.16 -236.501)" fill="#ebebeb"/>
        <path id="Trazado_883697" data-name="Trazado 883697" d="M32.321,437.445l-4.687-.017L27.617,442l-4.271-.015.017-4.576-4.715-.017.015-4.049,4.715.017.016-4.575,4.271.016-.017,4.575,4.687.017Z" transform="translate(-10.081 -231.789)" fill="#ebebeb"/>
        <path id="Trazado_883698" data-name="Trazado 883698" d="M20.282,396.835l-1.846-.007-.006,1.8-1.683-.006.006-1.8-1.857-.007.006-1.6,1.857.006.006-1.8,1.683.006-.006,1.8,1.846.007Z" transform="translate(-8.052 -212.673)" fill="#ebebeb"/>
        <path id="Trazado_883699" data-name="Trazado 883699" d="M84.812,452.618l-1.847-.007-.006,1.8-1.683-.006.006-1.8-1.857-.007.006-1.6,1.857.006.006-1.8,1.682.006-.006,1.8,1.847.007Z" transform="translate(-42.935 -242.827)" fill="#ebebeb"/>
        <path id="Trazado_883700" data-name="Trazado 883700" d="M438.217,45.64l-4.687-.017-.016,4.576-4.271-.015.017-4.576-4.715-.017.015-4.049,4.715.017.016-4.575,4.271.016-.017,4.575,4.687.017Z" transform="translate(-229.496 -19.992)" fill="#ebebeb"/>
        <path id="Trazado_883701" data-name="Trazado 883701" d="M463.882,21.008,462.035,21l-.006,1.8-1.683-.006.006-1.8-1.857-.007.006-1.6,1.857.006.006-1.8,1.683.006-.007,1.8,1.847.007Z" transform="translate(-247.848 -9.512)" fill="#ebebeb"/>
        <path id="Trazado_883702" data-name="Trazado 883702" d="M34.093,41.109l-4.687-.017-.016,4.576-4.271-.015.017-4.576L20.42,41.06l.015-4.049,4.715.017.016-4.575,4.271.016-.017,4.575,4.687.017Z" transform="translate(-11.039 -17.542)" fill="#ebebeb"/>
        <path id="Trazado_883703" data-name="Trazado 883703" d="M23.375,97.31,21.528,97.3l-.006,1.8L19.839,99.1l.006-1.8-1.857-.007.006-1.6,1.857.006.006-1.8,1.683.006-.007,1.8,1.847.007Z" transform="translate(-9.724 -50.759)" fill="#ebebeb"/>
        <path id="Trazado_883704" data-name="Trazado 883704" d="M362.715,12.616l-1.847-.007-.006,1.8-1.683-.006.006-1.8-1.857-.007.006-1.6,1.857.006.006-1.8,1.683.006-.007,1.8,1.847.007Z" transform="translate(-193.161 -4.976)" fill="#ebebeb"/>
        <path id="Trazado_883705" data-name="Trazado 883705" d="M45.135,271.376a2.267,2.267,0,0,1,.553,1.54,2.51,2.51,0,0,1-.4,1.367,2.807,2.807,0,0,1-1.212,1.017,4.685,4.685,0,0,1-2.016.386,7.191,7.191,0,0,1-1.742-.214,5.166,5.166,0,0,1-1.492-.606l.856-1.772a3.826,3.826,0,0,0,1.1.511,4.313,4.313,0,0,0,1.207.178,1.784,1.784,0,0,0,.963-.226.717.717,0,0,0,.357-.642q0-.808-1.272-.809H41.05v-1.486l1.486-1.605H39.255V267.2h6.016v1.474l-1.724,1.855a2.771,2.771,0,0,1,1.587.85" transform="translate(-20.989 -144.439)" fill="#e0e0e0"/>
        <path id="Trazado_883706" data-name="Trazado 883706" d="M60.494,270.942a2.372,2.372,0,0,1,.838,1.9,2.659,2.659,0,0,1-.4,1.42,2.763,2.763,0,0,1-1.213,1.035,4.679,4.679,0,0,1-2.016.386,7.17,7.17,0,0,1-1.742-.214,4.987,4.987,0,0,1-1.48-.606l.844-1.771a4.054,4.054,0,0,0,1.1.511,4.216,4.216,0,0,0,1.207.179,1.773,1.773,0,0,0,.969-.232.729.729,0,0,0,.363-.648.693.693,0,0,0-.357-.63,2.641,2.641,0,0,0-1.26-.214H55.09l.416-4.863h5.3v1.819H57.457l-.107,1.213h.559a3.928,3.928,0,0,1,2.586.713" transform="translate(-29.452 -144.439)" fill="#e0e0e0"/>
        <path id="Trazado_883707" data-name="Trazado 883707" d="M71.38,269.593a2.055,2.055,0,0,1-.832-.708,1.875,1.875,0,0,1,0-2.045,2.047,2.047,0,0,1,.832-.708,2.711,2.711,0,0,1,1.195-.256,2.741,2.741,0,0,1,1.207.256,2.006,2.006,0,0,1,.826.708,1.907,1.907,0,0,1,0,2.045,2.013,2.013,0,0,1-.826.708,2.741,2.741,0,0,1-1.207.255,2.711,2.711,0,0,1-1.195-.255m1.778-1.112a.967.967,0,0,0,0-1.243.881.881,0,0,0-1.165,0,.967.967,0,0,0,0,1.243.865.865,0,0,0,1.165,0" transform="translate(-37.972 -143.725)" fill="#e0e0e0"/>
        <path id="Trazado_883708" data-name="Trazado 883708" d="M416.54,240.276l.665-4.258a14.377,14.377,0,1,0-4.407,2.664l-.007.005Z" transform="translate(-212.627 -114.018)" fill="#3e8ff2"/>
        <path id="Trazado_883709" data-name="Trazado 883709" d="M416.4,240.132s-.087-.044-.25-.117l-.721-.32-2.755-1.206.011.1.006-.005a.056.056,0,0,0,.014-.079.058.058,0,0,0-.068-.02,14.208,14.208,0,0,1-9.024.34c-.368-.1-.726-.255-1.1-.383a7.839,7.839,0,0,1-1.105-.476,14.109,14.109,0,0,1-4.173-3.042,14.186,14.186,0,0,1-1.811-17.17,14.1,14.1,0,0,1,11.375-6.8,14.066,14.066,0,0,1,6.393,1.136,14.278,14.278,0,0,1,3.834,23.739.057.057,0,0,0-.019.035c-.2,1.367-.351,2.424-.457,3.154-.05.353-.088.627-.115.825s-.035.289-.035.289.02-.084.051-.263.079-.46.139-.805c.123-.736.3-1.8.532-3.181l-.019.035a14.286,14.286,0,0,0,3.983-5.757,14.478,14.478,0,0,0-7.788-18.317,14.317,14.317,0,0,0-6.514-1.167,14.61,14.61,0,0,0-3.408.582,14.3,14.3,0,0,0-8.191,6.35,14.473,14.473,0,0,0,1.878,17.476,14.29,14.29,0,0,0,4.253,3.07,8,8,0,0,0,1.124.477c.38.128.744.281,1.118.382a14.543,14.543,0,0,0,2.187.447,14.389,14.389,0,0,0,6.931-.869l-.054-.1-.006.005a.056.056,0,0,0-.014.079.057.057,0,0,0,.025.02l2.817,1.157.717.29a2.423,2.423,0,0,0,.237.09" transform="translate(-212.483 -113.875)" fill="#e0e0e0"/>
        <path id="Trazado_883710" data-name="Trazado 883710" d="M411.817,238.3a2.211,2.211,0,0,1,.522,1.505,2.446,2.446,0,0,1-.4,1.329,2.733,2.733,0,0,1-1.192.978,4.56,4.56,0,0,1-1.967.355,6.985,6.985,0,0,1-1.7-.226,5.039,5.039,0,0,1-1.447-.606l.852-1.717a3.752,3.752,0,0,0,1.066.509,4.2,4.2,0,0,0,1.174.186,1.737,1.737,0,0,0,.941-.21.7.7,0,0,0,.354-.622q.008-.788-1.231-.8l-.962-.01.016-1.448,1.464-1.548-3.2-.034.019-1.772,5.861.062-.015,1.437-1.7,1.789a2.7,2.7,0,0,1,1.538.845" transform="translate(-219.274 -126.583)" fill="#e0e0e0"/>
        <path id="Trazado_883711" data-name="Trazado 883711" d="M428.2,234.395l-.015,1.437-2.933,6.642-2.5-.027,2.8-6.261-2.131-.022-.014,1.25-1.958-.021.033-3.069Z" transform="translate(-227.821 -126.668)" fill="#e0e0e0"/>
        <path id="Trazado_883712" data-name="Trazado 883712" d="M438.987,236.872a2,2,0,0,1-.8-.7,1.828,1.828,0,0,1,.021-1.993,2.01,2.01,0,0,1,.818-.681,2.876,2.876,0,0,1,2.34.025,1.958,1.958,0,0,1,.8.7,1.857,1.857,0,0,1-.021,1.993,1.959,1.959,0,0,1-.812.68,2.67,2.67,0,0,1-1.178.237,2.632,2.632,0,0,1-1.161-.262m1.743-1.064a.942.942,0,0,0,.013-1.211.858.858,0,0,0-1.135-.011.8.8,0,0,0-.227.605.816.816,0,0,0,.214.606.842.842,0,0,0,1.135.011" transform="translate(-236.715 -126.096)" fill="#e0e0e0"/>
      </g>
    </g>
    <g id="Grupo_1103720" data-name="Grupo 1103720">
      <g id="Grupo_1103719" data-name="Grupo 1103719" clip-path="url(#clip-path)">
        <path id="Trazado_883713" data-name="Trazado 883713" d="M317.439,132.4C315.6,128.2,301.068,131,301.068,131s-14.419,3.32-14.4,7.911c0,0,.378,23.83,7.628,43.2a33.5,33.5,0,0,0,5.437,9.466,120.611,120.611,0,0,1,10.6,14.8,107.494,107.494,0,0,1,6.087,12.18l10.866,51.408a2.99,2.99,0,0,0,3.544,2.308l.113-.024a2.991,2.991,0,0,0,2.308-3.544l-10.776-50.982a102.343,102.343,0,0,1,.622-14.043,120.647,120.647,0,0,1,3.706-17.826A33.494,33.494,0,0,0,327.946,175c-1.21-20.651-10.507-42.6-10.507-42.6" transform="translate(-154.964 -70.32)" fill="#2b63a8"/>
        <path id="Trazado_883714" data-name="Trazado 883714" d="M322.408,195.033l-8.237,1.741a9.252,9.252,0,0,1-10.965-7.139l-3.182-15.054a9.251,9.251,0,0,1,7.138-10.965l8.237-1.741a9.251,9.251,0,0,1,10.965,7.138l3.182,15.054a9.251,9.251,0,0,1-7.138,10.965" transform="translate(-162.075 -87.396)" fill="#263238"/>
        <path id="Trazado_883715" data-name="Trazado 883715" d="M375.886,422.432h0a2.991,2.991,0,0,1-3.544-2.308L370.01,409.1l5.852-1.237,2.331,11.029a2.991,2.991,0,0,1-2.308,3.544" transform="translate(-200.016 -220.476)" fill="#e0e0e0"/>
        <path id="Trazado_883716" data-name="Trazado 883716" d="M374.946,422.406a3.226,3.226,0,0,1-3.151-2.554L369.416,408.6l6.3-1.332,2.379,11.254a3.222,3.222,0,0,1-3.151,3.887m-4.985-13.454,2.284,10.8a2.761,2.761,0,0,0,5.4-1.142l-2.283-10.8Z" transform="translate(-199.695 -220.155)" fill="#263238"/>
        <path id="Trazado_883717" data-name="Trazado 883717" d="M324.6,198.17a1.774,1.774,0,0,1,.731,1.141,1.938,1.938,0,0,1-.069,1.081,2,2,0,0,1-.705.912,3.334,3.334,0,0,1-1.344.568,4.567,4.567,0,0,1-1.37.082,3.461,3.461,0,0,1-1.2-.316l.318-1.037a2.668,2.668,0,0,0,.949.284,3.26,3.26,0,0,0,1.07-.049,1.71,1.71,0,0,0,.941-.473.85.85,0,0,0,.213-.788.841.841,0,0,0-.494-.631,1.82,1.82,0,0,0-1.105-.03l-.588.125-.173-.819,1.094-2.045-2.922.618-.212-1,4.383-.926.17.8-1.17,2.187a2.209,2.209,0,0,1,1.488.319" transform="translate(-172.838 -105.338)" fill="#fff"/>
        <path id="Trazado_883718" data-name="Trazado 883718" d="M336.881,195.23a1.918,1.918,0,0,1,.937.526,1.95,1.95,0,0,1,.5.978,2,2,0,0,1-.081,1.165,2.116,2.116,0,0,1-.691.909,2.776,2.776,0,0,1-1.141.51,2.654,2.654,0,0,1-2.228-.393,3.545,3.545,0,0,1-1.232-2.216,4.089,4.089,0,0,1,0-1.935,2.8,2.8,0,0,1,.861-1.4,3.381,3.381,0,0,1,1.565-.748,4.014,4.014,0,0,1,.955-.091,2.578,2.578,0,0,1,.823.147l-.25.994a2.237,2.237,0,0,0-1.288-.054,1.915,1.915,0,0,0-1.332.877,2.4,2.4,0,0,0-.175,1.755v.01a1.82,1.82,0,0,1,.621-.654,2.8,2.8,0,0,1,.956-.38,2.634,2.634,0,0,1,1.191,0m.114,2.673a1.108,1.108,0,0,0-.337-1.594,1.439,1.439,0,0,0-1-.1,1.419,1.419,0,0,0-.876.511,1.019,1.019,0,0,0-.2.867,1,1,0,0,0,.518.7,1.473,1.473,0,0,0,1.044.1,1.379,1.379,0,0,0,.846-.491" transform="translate(-179.921 -104.076)" fill="#fff"/>
        <path id="Trazado_883719" data-name="Trazado 883719" d="M345.113,193.025a1.5,1.5,0,0,1-.715-.411,1.46,1.46,0,0,1-.38-.73,1.445,1.445,0,0,1,.054-.813,1.5,1.5,0,0,1,.488-.665,2.088,2.088,0,0,1,1.733-.366,1.5,1.5,0,0,1,.711.412,1.442,1.442,0,0,1,.378.721,1.461,1.461,0,0,1-.051.822,1.511,1.511,0,0,1-.483.664,2.086,2.086,0,0,1-1.733.366m1.365-1.013a.84.84,0,0,0,.113-.672.822.822,0,0,0-.377-.559,1.023,1.023,0,0,0-1.287.272.821.821,0,0,0-.119.663.838.838,0,0,0,.374.569,1.035,1.035,0,0,0,1.3-.274" transform="translate(-185.947 -102.698)" fill="#fff"/>
        <rect id="Rectángulo_403761" data-name="Rectángulo 403761" width="2.788" height="1.323" transform="translate(142.056 81.561) rotate(-11.938)" fill="#fff"/>
      </g>
    </g>
    <g id="Grupo_1103728" data-name="Grupo 1103728">
      <g id="Grupo_1103727" data-name="Grupo 1103727" clip-path="url(#clip-path)">
        <path id="Trazado_883720" data-name="Trazado 883720" d="M155.4,66.919h70.017A13.318,13.318,0,0,0,238.734,53.6h0a13.318,13.318,0,0,0-13.318-13.318H155.136c-17.669,0-25.234,6.778-25.234,6.778s-13.221,3.7-40.606,3.777V56.2s31.984-1.365,41.322,3.361c7.048,7.232,24.782,7.355,24.782,7.355" transform="translate(-48.271 -21.776)" fill="#fff"/>
        <path id="Trazado_883721" data-name="Trazado 883721" d="M155.282,66.777a54.879,54.879,0,0,1-6.881-.5,54.417,54.417,0,0,1-8.121-1.622,33.2,33.2,0,0,1-4.924-1.832,17.625,17.625,0,0,1-4.9-3.36l.017.013a19.412,19.412,0,0,0-4-1.378q-2.134-.52-4.458-.86c-3.092-.459-6.4-.751-9.886-.948-6.975-.382-14.674-.429-22.945-.136l-.1,0v-.1c0-1.648,0-3.493,0-5.364v-.1h.1c6.184-.024,12.726-.221,19.535-.758,3.4-.257,6.875-.612,10.394-1.087a98.041,98.041,0,0,0,10.647-1.942l-.045.025a22.6,22.6,0,0,1,4.8-2.87,37.06,37.06,0,0,1,5.343-1.959,52.5,52.5,0,0,1,11.5-1.872c1.974-.094,3.966-.12,5.964-.111H175.63l32.554,0,15.48,0a21.8,21.8,0,0,1,3.78.188,11.932,11.932,0,0,1,3.58,1.11,13.466,13.466,0,0,1,5.508,4.79,14.219,14.219,0,0,1,1.558,3.267,13.5,13.5,0,0,1,.606,3.52,13.474,13.474,0,0,1-6.03,11.769,13.512,13.512,0,0,1-6.172,2.146c-1.083.077-2.146.058-3.2.058h-3.138l-6.1,0-11.469-.008-34.611-.038-9.41-.023-2.447-.011c-.551,0-.834-.012-.834-.012s.283-.008.834-.012l2.447-.011,9.41-.023,34.611-.038,11.469-.008,6.1,0h3.138c1.055,0,2.123.016,3.184-.061a13.1,13.1,0,0,0,8.593-4.285,13.059,13.059,0,0,0,3.412-9.423,13.293,13.293,0,0,0-.6-3.462,14.008,14.008,0,0,0-1.534-3.212,13.244,13.244,0,0,0-5.42-4.708,11.73,11.73,0,0,0-3.52-1.088,21.545,21.545,0,0,0-3.744-.184l-15.48,0-32.554,0H157.314c-2-.01-3.985.016-5.951.109a52.3,52.3,0,0,0-11.453,1.86,36.828,36.828,0,0,0-5.31,1.945,22.434,22.434,0,0,0-4.739,2.831l-.024.019-.021.006a98.08,98.08,0,0,1-10.679,1.943c-3.524.473-7,.826-10.407,1.081-6.816.534-13.362.725-19.551.742l.1-.1c0,1.872,0,3.716,0,5.364l-.1-.1c8.28-.284,15.981-.228,22.963.165,3.49.2,6.8.5,9.9.967q2.324.341,4.469.871a19.539,19.539,0,0,1,4.024,1.4l.009.005.008.008a17.525,17.525,0,0,0,4.86,3.346,33.2,33.2,0,0,0,4.9,1.84,55,55,0,0,0,8.1,1.651c2.23.289,3.951.413,5.111.482l1.316.063c.295.011.445.018.445.018" transform="translate(-48.153 -21.634)" fill="#263238"/>
        <path id="Trazado_883722" data-name="Trazado 883722" d="M235.149,61.781h0a6.366,6.366,0,0,1,6.366-6.366h21.3a6.366,6.366,0,1,1,0,12.733h-21.3a6.366,6.366,0,0,1-6.366-6.366" transform="translate(-127.114 -29.956)" fill="#263238"/>
        <g id="Grupo_1103723" data-name="Grupo 1103723" transform="translate(149.992 27.237)" opacity="0.3">
          <g id="Grupo_1103722" data-name="Grupo 1103722">
            <g id="Grupo_1103721" data-name="Grupo 1103721" clip-path="url(#clip-path-5)">
              <path id="Trazado_883723" data-name="Trazado 883723" d="M331.512,69.359a5.037,5.037,0,1,1,5.037-5.037,5.037,5.037,0,0,1-5.037,5.037" transform="translate(-326.475 -59.285)" fill="#263238"/>
            </g>
          </g>
        </g>
        <path id="Trazado_883724" data-name="Trazado 883724" d="M329.38,68.382a5.037,5.037,0,1,1,5.037-5.037,5.037,5.037,0,0,1-5.037,5.037" transform="translate(-175.33 -31.519)" fill="#1e4678"/>
        <path id="Trazado_883725" data-name="Trazado 883725" d="M53.979,66h0a2.749,2.749,0,0,1,2.75-2.749H70.666v5.5H56.729A2.75,2.75,0,0,1,53.979,66" transform="translate(-29.179 -34.194)" fill="#e0e0e0"/>
        <path id="Trazado_883726" data-name="Trazado 883726" d="M53.972,65.864c.011,0,.013.125.048.357a2.74,2.74,0,0,0,1.512,2.05,2.668,2.668,0,0,0,.972.26c.356.019.753,0,1.16,0l13-.04-.119.119c0-.88,0-1.806,0-2.748s0-1.869,0-2.75l.119.119-13-.04c-.407,0-.8-.017-1.161,0a2.664,2.664,0,0,0-.97.26,2.739,2.739,0,0,0-1.512,2.05c-.035.232-.037.357-.048.357a1.857,1.857,0,0,1,0-.363,2.59,2.59,0,0,1,.309-1,2.8,2.8,0,0,1,2.207-1.446c.378-.026.76-.012,1.172-.02l13-.04h.119v.119c0,.88,0,1.808,0,2.75s0,1.868,0,2.748v.119h-.119l-13-.04c-.412-.008-.793.006-1.171-.02a2.8,2.8,0,0,1-2.207-1.446,2.584,2.584,0,0,1-.309-1,1.859,1.859,0,0,1,0-.363" transform="translate(-29.172 -34.054)" fill="#263238"/>
        <path id="Trazado_883727" data-name="Trazado 883727" d="M365.651,66.919V40.284h9.155A13.318,13.318,0,0,1,388.124,53.6h0a13.318,13.318,0,0,1-13.318,13.318Z" transform="translate(-197.66 -21.776)" fill="#2b63a8"/>
        <path id="Trazado_883728" data-name="Trazado 883728" d="M267.252,66.591a1.125,1.125,0,0,1,.3.8,1.228,1.228,0,0,1-.184.66,1.268,1.268,0,0,1-.556.472,2.108,2.108,0,0,1-.906.175,2.884,2.884,0,0,1-.859-.128,2.19,2.19,0,0,1-.7-.354l.333-.6a1.683,1.683,0,0,0,.55.3,2.057,2.057,0,0,0,.668.11,1.086,1.086,0,0,0,.645-.169.538.538,0,0,0,.235-.461.532.532,0,0,0-.223-.455,1.152,1.152,0,0,0-.68-.164h-.38v-.529l.945-1.124h-1.891v-.648h2.835V65l-1.01,1.2a1.4,1.4,0,0,1,.88.392" transform="translate(-142.897 -34.856)" fill="#fff"/>
        <path id="Trazado_883729" data-name="Trazado 883729" d="M275.06,66.162a1.214,1.214,0,0,1,.511.449,1.231,1.231,0,0,1,.184.672,1.259,1.259,0,0,1-.2.71,1.337,1.337,0,0,1-.547.473,1.759,1.759,0,0,1-.773.166,1.679,1.679,0,0,1-1.329-.535,2.244,2.244,0,0,1-.472-1.534,2.588,2.588,0,0,1,.255-1.2,1.774,1.774,0,0,1,.716-.755,2.143,2.143,0,0,1,1.067-.258,2.594,2.594,0,0,1,.6.068,1.651,1.651,0,0,1,.49.2l-.285.583a1.417,1.417,0,0,0-.791-.2,1.211,1.211,0,0,0-.939.368,1.517,1.517,0,0,0-.339,1.064v.006a1.148,1.148,0,0,1,.469-.324,1.78,1.78,0,0,1,.642-.11,1.678,1.678,0,0,1,.737.158m-.279,1.67a.7.7,0,0,0,0-1.031,1.04,1.04,0,0,0-1.216.012.646.646,0,0,0-.234.511.636.636,0,0,0,.229.5.932.932,0,0,0,.633.2.875.875,0,0,0,.588-.193" transform="translate(-147.269 -34.787)" fill="#fff"/>
        <path id="Trazado_883730" data-name="Trazado 883730" d="M280.737,65.666a.955.955,0,0,1-.39-.348.929.929,0,0,1-.139-.5.919.919,0,0,1,.139-.5.954.954,0,0,1,.39-.347,1.319,1.319,0,0,1,1.121,0,.955.955,0,0,1,.386.347.915.915,0,0,1,.14.5.925.925,0,0,1-.14.5.957.957,0,0,1-.386.348,1.32,1.32,0,0,1-1.121,0m.978-.449a.532.532,0,0,0,.158-.4.519.519,0,0,0-.161-.4.648.648,0,0,0-.832,0,.519.519,0,0,0-.161.4.531.531,0,0,0,.158.4.655.655,0,0,0,.838,0" transform="translate(-151.472 -34.514)" fill="#fff"/>
        <path id="Trazado_883731" data-name="Trazado 883731" d="M389.267,54.607c-.024,0-.006-.386-.043-1.077a11.323,11.323,0,0,0-.539-2.869,11.808,11.808,0,0,0-6.183-7.029,17.646,17.646,0,0,0-5.085-1.472,27.665,27.665,0,0,0-4.339-.272c-1.24.016-2.243.085-2.935.145l-.8.069a1.224,1.224,0,0,1-.28.01,1.219,1.219,0,0,1,.274-.058c.181-.028.447-.075.793-.114.69-.089,1.7-.184,2.941-.221a26.271,26.271,0,0,1,4.373.222,17.454,17.454,0,0,1,5.157,1.474,11.793,11.793,0,0,1,6.241,7.194,10.583,10.583,0,0,1,.471,2.916,7.134,7.134,0,0,1-.02.8,1.217,1.217,0,0,1-.03.278" transform="translate(-199.506 -22.546)" fill="#263238"/>
        <g id="Grupo_1103726" data-name="Grupo 1103726" transform="translate(173.028 33.513)" opacity="0.4">
          <g id="Grupo_1103725" data-name="Grupo 1103725">
            <g id="Grupo_1103724" data-name="Grupo 1103724" clip-path="url(#clip-path-6)">
              <path id="Trazado_883732" data-name="Trazado 883732" d="M392.243,73.643c-.3-.807-1.5-.882-2.208-.4a7.464,7.464,0,0,0-1.606,2A8.912,8.912,0,0,1,384,78.318a22.921,22.921,0,0,1-5.372.963c-.788.071-1.751.267-1.976,1.025a1.314,1.314,0,0,0,.481,1.317,3.228,3.228,0,0,0,1.348.589A13.218,13.218,0,0,0,389.226,80.1a8.458,8.458,0,0,0,2.594-2.845,4.616,4.616,0,0,0,.423-3.61" transform="translate(-376.615 -72.944)" fill="#fff"/>
            </g>
          </g>
        </g>
      </g>
    </g>
    <g id="Grupo_1103730" data-name="Grupo 1103730">
      <g id="Grupo_1103729" data-name="Grupo 1103729" clip-path="url(#clip-path)">
        <path id="Trazado_883733" data-name="Trazado 883733" d="M249.017,115.656a5.947,5.947,0,0,0-5.657,5.917V228.167a25.83,25.83,0,0,0,3.862,13.562V266.2a2.1,2.1,0,0,0,1.878,2.1,2.059,2.059,0,0,0,2.288-2.009V241.729a6.147,6.147,0,0,0,.773-1.105A25.792,25.792,0,0,0,255.25,228.4V121.411a5.866,5.866,0,0,0-6.232-5.754" transform="translate(-131.553 -62.517)" fill="#f5f5f5"/>
        <path id="Trazado_883734" data-name="Trazado 883734" d="M248.886,115.653s.069,0,.205-.005a4.641,4.641,0,0,1,.611.015,5.717,5.717,0,0,1,2.293.652,5.911,5.911,0,0,1,2.66,2.772,5.713,5.713,0,0,1,.5,2.429q0,1.329.006,2.829c.009,8,.022,19.567.038,33.861s.016,31.319.026,50.22q0,7.088,0,14.515,0,1.855,0,3.73c0,1.247.025,2.509-.084,3.774a25.835,25.835,0,0,1-1.728,7.451c-.241.6-.493,1.2-.781,1.777a11,11,0,0,1-.959,1.709q-.147.2-.308.387V245.1q0,3.923,0,7.906t0,8.023V266.1a2.335,2.335,0,0,1-.186,1.043,2.2,2.2,0,0,1-1.656,1.247,2.174,2.174,0,0,1-1.778-.493,2.254,2.254,0,0,1-.783-1.667q0-1.8,0-3.581,0-3.568,0-7.088,0-7.037,0-13.835l.017.062a26.027,26.027,0,0,1-3.866-12.979q0-6.707-.008-13.167c0-8.6.006-16.855.009-24.677.01-15.643.019-29.571.026-41.19s.027-20.923.035-27.33a8.828,8.828,0,0,1,.177-2.259,6.085,6.085,0,0,1,.783-1.826,6.606,6.606,0,0,1,1.118-1.282,5.988,5.988,0,0,1,2.977-1.369c.426-.048.645-.056.645-.056s-.054.009-.162.021-.269.024-.48.057a6.112,6.112,0,0,0-1.791.6,5.941,5.941,0,0,0-1.154.786,6.584,6.584,0,0,0-1.1,1.276,6.039,6.039,0,0,0-.764,1.809,8.764,8.764,0,0,0-.165,2.242c.008,6.407.02,15.714.035,27.33s.016,25.547.026,41.19c0,7.822.006,16.072.009,24.677q.008,6.452.015,13.161a25.794,25.794,0,0,0,3.835,12.861l.017.029v.034q0,6.787,0,13.835,0,3.518,0,7.088,0,1.783,0,3.578a2.015,2.015,0,0,0,.7,1.489,1.929,1.929,0,0,0,1.584.438,1.959,1.959,0,0,0,1.476-1.109,2.094,2.094,0,0,0,.165-.944v-5.069q0-4.038,0-8.023t0-7.906v-3.359c-.012-.006.072-.18.056-.127q.156-.182.3-.374a10.772,10.772,0,0,0,.936-1.671c.285-.576.535-1.167.774-1.761a25.607,25.607,0,0,0,1.715-7.384c.108-1.251.08-2.5.085-3.756s0-2.493,0-3.73q0-7.42,0-14.515c.01-18.9.018-35.923.026-50.22s.029-25.862.038-33.861c-.051-1.983.227-3.822-.481-5.229a5.873,5.873,0,0,0-2.617-2.758,5.782,5.782,0,0,0-2.274-.67,5.108,5.108,0,0,0-.608-.027c-.136,0-.206-.007-.206-.007" transform="translate(-131.421 -62.514)" fill="#263238"/>
        <rect id="Rectángulo_403766" data-name="Rectángulo 403766" width="1.042" height="138.356" transform="translate(117.231 59.487)" fill="#e0e0e0"/>
        <rect id="Rectángulo_403767" data-name="Rectángulo 403767" width="1.042" height="121.408" transform="translate(117.231 76.435)" fill="#ff725e"/>
        <path id="Trazado_883735" data-name="Trazado 883735" d="M256,151.839a45.287,45.287,0,0,1-6.574,0,45.293,45.293,0,0,1,6.574,0" transform="translate(-134.831 -82.015)" fill="#263238"/>
        <path id="Trazado_883736" data-name="Trazado 883736" d="M256,171.478a45.293,45.293,0,0,1-6.574,0,45.287,45.287,0,0,1,6.574,0" transform="translate(-134.831 -92.632)" fill="#263238"/>
        <path id="Trazado_883737" data-name="Trazado 883737" d="M256,191.116a45.293,45.293,0,0,1-6.574,0,45.287,45.287,0,0,1,6.574,0" transform="translate(-134.831 -103.247)" fill="#263238"/>
        <path id="Trazado_883738" data-name="Trazado 883738" d="M256,210.754a45.293,45.293,0,0,1-6.574,0,45.287,45.287,0,0,1,6.574,0" transform="translate(-134.831 -113.863)" fill="#263238"/>
        <path id="Trazado_883739" data-name="Trazado 883739" d="M256,230.392a45.293,45.293,0,0,1-6.574,0,45.281,45.281,0,0,1,6.574,0" transform="translate(-134.831 -124.479)" fill="#263238"/>
        <path id="Trazado_883740" data-name="Trazado 883740" d="M256,250.031a45.293,45.293,0,0,1-6.574,0,45.287,45.287,0,0,1,6.574,0" transform="translate(-134.831 -135.095)" fill="#263238"/>
        <path id="Trazado_883741" data-name="Trazado 883741" d="M256,269.669a45.109,45.109,0,0,1-6.574,0,45.293,45.293,0,0,1,6.574,0" transform="translate(-134.831 -145.711)" fill="#263238"/>
        <path id="Trazado_883742" data-name="Trazado 883742" d="M256,289.307a45.281,45.281,0,0,1-6.574,0,45.293,45.293,0,0,1,6.574,0" transform="translate(-134.831 -156.326)" fill="#263238"/>
        <path id="Trazado_883743" data-name="Trazado 883743" d="M256,308.945a45.293,45.293,0,0,1-6.574,0,45.293,45.293,0,0,1,6.574,0" transform="translate(-134.831 -166.942)" fill="#263238"/>
        <path id="Trazado_883744" data-name="Trazado 883744" d="M256,328.584a45.3,45.3,0,0,1-6.574,0,45.281,45.281,0,0,1,6.574,0" transform="translate(-134.831 -177.558)" fill="#263238"/>
        <path id="Trazado_883745" data-name="Trazado 883745" d="M256,348.222a45.293,45.293,0,0,1-6.574,0,45.293,45.293,0,0,1,6.574,0" transform="translate(-134.831 -188.174)" fill="#263238"/>
        <path id="Trazado_883746" data-name="Trazado 883746" d="M256.2,344.483a18.988,18.988,0,0,1-4.253,0,18.988,18.988,0,0,1,4.253,0" transform="translate(-136.197 -186.153)" fill="#263238"/>
        <path id="Trazado_883747" data-name="Trazado 883747" d="M256.2,340.429a18.988,18.988,0,0,1-4.253,0,18.988,18.988,0,0,1,4.253,0" transform="translate(-136.197 -183.961)" fill="#263238"/>
        <path id="Trazado_883748" data-name="Trazado 883748" d="M256.2,336.376a18.984,18.984,0,0,1-4.253,0,18.988,18.988,0,0,1,4.253,0" transform="translate(-136.197 -181.77)" fill="#263238"/>
        <path id="Trazado_883749" data-name="Trazado 883749" d="M256.2,332.323a18.984,18.984,0,0,1-4.253,0,18.993,18.993,0,0,1,4.253,0" transform="translate(-136.197 -179.579)" fill="#263238"/>
        <path id="Trazado_883750" data-name="Trazado 883750" d="M256.2,324.038a18.988,18.988,0,0,1-4.253,0,18.988,18.988,0,0,1,4.253,0" transform="translate(-136.197 -175.101)" fill="#263238"/>
        <path id="Trazado_883751" data-name="Trazado 883751" d="M256.2,320.522a18.988,18.988,0,0,1-4.253,0,18.988,18.988,0,0,1,4.253,0" transform="translate(-136.197 -173.2)" fill="#263238"/>
        <path id="Trazado_883752" data-name="Trazado 883752" d="M256.2,317.007a18.988,18.988,0,0,1-4.253,0,18.988,18.988,0,0,1,4.253,0" transform="translate(-136.197 -171.3)" fill="#263238"/>
        <path id="Trazado_883753" data-name="Trazado 883753" d="M256.2,313.491a18.988,18.988,0,0,1-4.253,0,18.988,18.988,0,0,1,4.253,0" transform="translate(-136.197 -169.399)" fill="#263238"/>
        <path id="Trazado_883754" data-name="Trazado 883754" d="M256.2,304.4a18.988,18.988,0,0,1-4.253,0,18.988,18.988,0,0,1,4.253,0" transform="translate(-136.197 -164.485)" fill="#263238"/>
        <path id="Trazado_883755" data-name="Trazado 883755" d="M256.2,300.884a18.988,18.988,0,0,1-4.253,0,18.988,18.988,0,0,1,4.253,0" transform="translate(-136.197 -162.585)" fill="#263238"/>
        <path id="Trazado_883756" data-name="Trazado 883756" d="M256.2,297.368a18.984,18.984,0,0,1-4.253,0,18.988,18.988,0,0,1,4.253,0" transform="translate(-136.197 -160.684)" fill="#263238"/>
        <path id="Trazado_883757" data-name="Trazado 883757" d="M256.2,293.853a18.988,18.988,0,0,1-4.253,0,18.988,18.988,0,0,1,4.253,0" transform="translate(-136.197 -158.784)" fill="#263238"/>
        <path id="Trazado_883758" data-name="Trazado 883758" d="M256.2,284.761a18.993,18.993,0,0,1-4.253,0,18.984,18.984,0,0,1,4.253,0" transform="translate(-136.197 -153.869)" fill="#263238"/>
        <path id="Trazado_883759" data-name="Trazado 883759" d="M256.2,281.246a18.988,18.988,0,0,1-4.253,0,18.988,18.988,0,0,1,4.253,0" transform="translate(-136.197 -151.969)" fill="#263238"/>
        <path id="Trazado_883760" data-name="Trazado 883760" d="M256.2,277.73a18.984,18.984,0,0,1-4.253,0,18.988,18.988,0,0,1,4.253,0" transform="translate(-136.197 -150.068)" fill="#263238"/>
        <path id="Trazado_883761" data-name="Trazado 883761" d="M256.2,274.215a18.988,18.988,0,0,1-4.253,0,18.988,18.988,0,0,1,4.253,0" transform="translate(-136.197 -148.168)" fill="#263238"/>
        <path id="Trazado_883762" data-name="Trazado 883762" d="M256.2,265.123a18.988,18.988,0,0,1-4.253,0,18.988,18.988,0,0,1,4.253,0" transform="translate(-136.197 -143.253)" fill="#263238"/>
        <path id="Trazado_883763" data-name="Trazado 883763" d="M256.2,261.607a18.988,18.988,0,0,1-4.253,0,18.988,18.988,0,0,1,4.253,0" transform="translate(-136.197 -141.353)" fill="#263238"/>
        <path id="Trazado_883764" data-name="Trazado 883764" d="M256.2,258.092a18.988,18.988,0,0,1-4.253,0,18.984,18.984,0,0,1,4.253,0" transform="translate(-136.197 -139.452)" fill="#263238"/>
        <path id="Trazado_883765" data-name="Trazado 883765" d="M256.2,254.576a18.988,18.988,0,0,1-4.253,0,18.988,18.988,0,0,1,4.253,0" transform="translate(-136.197 -137.552)" fill="#263238"/>
        <path id="Trazado_883766" data-name="Trazado 883766" d="M256.2,245.485a18.988,18.988,0,0,1-4.253,0,18.988,18.988,0,0,1,4.253,0" transform="translate(-136.197 -132.637)" fill="#263238"/>
        <path id="Trazado_883767" data-name="Trazado 883767" d="M256.2,241.969a18.988,18.988,0,0,1-4.253,0,18.988,18.988,0,0,1,4.253,0" transform="translate(-136.197 -130.737)" fill="#263238"/>
        <path id="Trazado_883768" data-name="Trazado 883768" d="M256.2,238.454a18.986,18.986,0,0,1-4.253,0,18.988,18.988,0,0,1,4.253,0" transform="translate(-136.197 -128.837)" fill="#263238"/>
        <path id="Trazado_883769" data-name="Trazado 883769" d="M256.2,234.938a18.988,18.988,0,0,1-4.253,0,18.988,18.988,0,0,1,4.253,0" transform="translate(-136.197 -126.936)" fill="#263238"/>
        <path id="Trazado_883770" data-name="Trazado 883770" d="M256.2,225.847a18.986,18.986,0,0,1-4.253,0,18.988,18.988,0,0,1,4.253,0" transform="translate(-136.197 -122.022)" fill="#263238"/>
        <path id="Trazado_883771" data-name="Trazado 883771" d="M256.2,222.331a18.988,18.988,0,0,1-4.253,0,18.988,18.988,0,0,1,4.253,0" transform="translate(-136.197 -120.121)" fill="#263238"/>
        <path id="Trazado_883772" data-name="Trazado 883772" d="M256.2,218.815a18.986,18.986,0,0,1-4.253,0,18.988,18.988,0,0,1,4.253,0" transform="translate(-136.197 -118.22)" fill="#263238"/>
        <path id="Trazado_883773" data-name="Trazado 883773" d="M256.2,215.3a18.988,18.988,0,0,1-4.253,0,18.988,18.988,0,0,1,4.253,0" transform="translate(-136.197 -116.32)" fill="#263238"/>
        <path id="Trazado_883774" data-name="Trazado 883774" d="M256.2,206.208a18.986,18.986,0,0,1-4.253,0,18.988,18.988,0,0,1,4.253,0" transform="translate(-136.197 -111.406)" fill="#263238"/>
        <path id="Trazado_883775" data-name="Trazado 883775" d="M256.2,202.693a18.988,18.988,0,0,1-4.253,0,18.988,18.988,0,0,1,4.253,0" transform="translate(-136.197 -109.505)" fill="#263238"/>
        <path id="Trazado_883776" data-name="Trazado 883776" d="M256.2,199.177a18.914,18.914,0,0,1-4.253,0,18.988,18.988,0,0,1,4.253,0" transform="translate(-136.197 -107.605)" fill="#263238"/>
        <path id="Trazado_883777" data-name="Trazado 883777" d="M256.2,195.662a18.986,18.986,0,0,1-4.253,0,18.988,18.988,0,0,1,4.253,0" transform="translate(-136.197 -105.705)" fill="#263238"/>
        <path id="Trazado_883778" data-name="Trazado 883778" d="M256.2,186.57a18.988,18.988,0,0,1-4.253,0,18.986,18.986,0,0,1,4.253,0" transform="translate(-136.197 -100.79)" fill="#263238"/>
        <path id="Trazado_883779" data-name="Trazado 883779" d="M256.2,183.055a18.988,18.988,0,0,1-4.253,0,18.988,18.988,0,0,1,4.253,0" transform="translate(-136.197 -98.89)" fill="#263238"/>
        <path id="Trazado_883780" data-name="Trazado 883780" d="M256.2,179.539a18.988,18.988,0,0,1-4.253,0,18.986,18.986,0,0,1,4.253,0" transform="translate(-136.197 -96.989)" fill="#263238"/>
        <path id="Trazado_883781" data-name="Trazado 883781" d="M256.2,176.023a18.986,18.986,0,0,1-4.253,0,18.988,18.988,0,0,1,4.253,0" transform="translate(-136.197 -95.088)" fill="#263238"/>
        <path id="Trazado_883782" data-name="Trazado 883782" d="M256.2,166.932a18.986,18.986,0,0,1-4.253,0,18.988,18.988,0,0,1,4.253,0" transform="translate(-136.197 -90.174)" fill="#263238"/>
        <path id="Trazado_883783" data-name="Trazado 883783" d="M256.2,163.416a18.988,18.988,0,0,1-4.253,0,18.988,18.988,0,0,1,4.253,0" transform="translate(-136.197 -88.273)" fill="#263238"/>
        <path id="Trazado_883784" data-name="Trazado 883784" d="M256.2,159.9a18.988,18.988,0,0,1-4.253,0,18.986,18.986,0,0,1,4.253,0" transform="translate(-136.197 -86.373)" fill="#263238"/>
        <path id="Trazado_883785" data-name="Trazado 883785" d="M256.2,156.385a18.988,18.988,0,0,1-4.253,0,18.986,18.986,0,0,1,4.253,0" transform="translate(-136.197 -84.473)" fill="#263238"/>
        <path id="Trazado_883786" data-name="Trazado 883786" d="M251.766,424.266v8.785a2.083,2.083,0,0,0,4.166,0v-8.785Z" transform="translate(-136.097 -229.345)" fill="#e0e0e0"/>
        <path id="Trazado_883787" data-name="Trazado 883787" d="M251.634,424.165a1.507,1.507,0,0,1,.273-.018l.819-.021,3.074-.046h.085v.086c.008,1.287.016,2.8.026,4.484,0,.844,0,1.73.007,2.647q0,.688,0,1.4a2.374,2.374,0,0,1-.349,1.442,2.192,2.192,0,0,1-2.644.863,2.186,2.186,0,0,1-1.078-.9,2.269,2.269,0,0,1-.324-1.3c.012-1.7.023-3.229.033-4.527.017-1.254.031-2.28.041-3.025.007-.331.014-.6.018-.81a1.467,1.467,0,0,1,.017-.271,2.26,2.26,0,0,1,.017.3c0,.217.011.495.018.837.01.747.024,1.776.041,3.034.01,1.28.021,2.789.033,4.462a1.97,1.97,0,0,0,3.624,1.207,2.14,2.14,0,0,0,.312-1.313q0-.711,0-1.4c0-.917,0-1.8.007-2.647.01-1.68.018-3.2.026-4.484l.085.085-3.022-.045-.838-.021a2.326,2.326,0,0,1-.305-.018" transform="translate(-135.965 -229.244)" fill="#263238"/>
      </g>
    </g>
    <g id="Grupo_1103744" data-name="Grupo 1103744">
      <g id="Grupo_1103743" data-name="Grupo 1103743" clip-path="url(#clip-path)">
        <path id="Trazado_883788" data-name="Trazado 883788" d="M122.917,278.6a11.641,11.641,0,0,1-8.294-5.472l2.662-12.276.121-.557s2.759,1.766,4.228,7.956a41.5,41.5,0,0,1,1.283,10.35" transform="translate(-61.962 -140.71)" fill="#ff725e"/>
        <path id="Trazado_883789" data-name="Trazado 883789" d="M47.982,130.754h43.75l12.759,4.375c8.4.359,9.239,5.428,9.524,13.065l3.467,47.438s5.691,25.169,5.617,38.594c-.084,15.35,1.189,35.426-7.844,37.586s-27.813,0-27.813,0-5.467-.864-4.516-11.017a246.59,246.59,0,0,0,1.189-36.29c-.714-13.609-.951-47.955-29.239-53.572l-3.8-1.512L41.8,145.875Z" transform="translate(-22.597 -70.682)" fill="#f5f5f5"/>
        <path id="Trazado_883790" data-name="Trazado 883790" d="M171.352,354.363,132.612,353a275.533,275.533,0,0,1-1.432,27.936c-.951,10.153,4.516,11.017,4.516,11.017s18.779,2.16,27.813,0,7.76-22.236,7.844-37.586" transform="translate(-70.852 -190.82)" fill="#1e4678"/>
        <path id="Trazado_883791" data-name="Trazado 883791" d="M44.891,130.754s-7.858.268-8.513,6.814-.357,19.621,2.333,24.156a16.937,16.937,0,0,0,9.27,7.7l3.8,1.512s-7.554-9.471-8.453-18.278-.389-15.194,1.555-18.845a6.563,6.563,0,0,1,4.064-3.056Z" transform="translate(-19.506 -70.682)" fill="#e0e0e0"/>
        <path id="Trazado_883792" data-name="Trazado 883792" d="M114.259,195.5s.089.338.245,1l.666,2.952c.566,2.6,1.369,6.44,2.243,11.417.439,2.488.884,5.262,1.3,8.309s.791,6.368,1.035,9.95.192,7.426.256,11.494c.033,4.069.058,8.374-.2,12.889a67.616,67.616,0,0,1-.731,6.9,25.108,25.108,0,0,1-2.069,6.943,9.6,9.6,0,0,1-2.242,3l-.366.308c-.128.1-.267.176-.4.265s-.265.181-.409.253l-.437.205a7.6,7.6,0,0,1-1.851.535,47.864,47.864,0,0,1-7.8.776,145.649,145.649,0,0,1-16.453-.631l-2.122-.2-.532-.056a2.028,2.028,0,0,1-.543-.115,4.571,4.571,0,0,1-.991-.47,5.563,5.563,0,0,1-1.588-1.5,7.006,7.006,0,0,1-.586-.931c-.176-.323-.3-.67-.452-1.005a13.5,13.5,0,0,1-.736-4.347c0-.37-.023-.742-.009-1.113l.065-1.114c.032-.746.126-1.481.186-2.226.541-5.945.985-12.05,1.174-18.3.095-3.123.127-6.28.079-9.468s-.2-6.4-.362-9.648a121.18,121.18,0,0,0-2.187-19.66,60.91,60.91,0,0,0-2.834-9.7,42.3,42.3,0,0,0-4.792-9.024c-.285-.4-.6-.787-.9-1.181l-.453-.586c-.153-.194-.324-.372-.486-.559l-.98-1.107-1.051-1.035-.526-.515-.561-.476-1.123-.947-1.188-.858-.594-.428c-.2-.136-.415-.255-.622-.384a31.956,31.956,0,0,0-10.713-4.193l-.011,0-.01,0-3.141-1.249a31.735,31.735,0,0,1-3.086-1.359,15.855,15.855,0,0,1-5.19-4.181,18.257,18.257,0,0,1-1.856-2.753,14.465,14.465,0,0,1-1.14-3.1,43.942,43.942,0,0,1-1.024-6.436A84.981,84.981,0,0,1,36,139.083a14.057,14.057,0,0,1,.426-3.116,6.486,6.486,0,0,1,1.587-2.692,8.252,8.252,0,0,1,2.564-1.745,12.315,12.315,0,0,1,2.945-.876,16.487,16.487,0,0,1,3.035-.141h3l5.92,0,11.5,0,21.53.008h.016l.015.006,12.757,4.381-.025,0,.955.079a6.858,6.858,0,0,1,.946.115l.934.164.908.26a7.444,7.444,0,0,1,3.148,1.919,8.047,8.047,0,0,1,1.763,3.138,19.954,19.954,0,0,1,.679,3.443c.115,1.146.2,2.281.237,3.4s.15,2.211.22,3.292q.234,3.241.454,6.278c.583,8.093,1.086,15.069,1.5,20.774l.937,13.144.238,3.421c.052.771.072,1.168.072,1.168s-.038-.394-.1-1.164-.147-1.918-.263-3.418c-.225-3.008-.557-7.439-.984-13.14s-.94-12.681-1.54-20.775q-.224-3.036-.464-6.279c-.072-1.081-.179-2.177-.225-3.293s-.125-2.245-.241-3.386a19.813,19.813,0,0,0-.677-3.41,7.881,7.881,0,0,0-1.729-3.072,7.275,7.275,0,0,0-3.078-1.87l-.893-.255-.923-.16a6.759,6.759,0,0,0-.935-.113l-.946-.077h-.015l-.01,0-12.761-4.369.031.005-21.53.009-11.5,0H46.56a16.3,16.3,0,0,0-3,.14,9.807,9.807,0,0,0-5.385,2.559,6.27,6.27,0,0,0-1.532,2.6,13.851,13.851,0,0,0-.415,3.066,84.682,84.682,0,0,0,.176,12.711,43.8,43.8,0,0,0,1.019,6.4,14.293,14.293,0,0,0,1.12,3.047,18.061,18.061,0,0,0,1.833,2.717,15.618,15.618,0,0,0,5.117,4.12,31.577,31.577,0,0,0,3.065,1.349L51.7,170.69l-.021-.006a32.191,32.191,0,0,1,10.794,4.224c.209.13.423.249.627.387l.6.43,1.2.866,1.132.955.565.48.531.52,1.059,1.043.988,1.115c.162.188.335.368.489.563l.456.591c.3.4.618.782.906,1.189a42.492,42.492,0,0,1,4.82,9.076,61.04,61.04,0,0,1,2.844,9.739,121.329,121.329,0,0,1,2.189,19.7c.16,3.243.323,6.465.36,9.656s.013,6.352-.083,9.478c-.192,6.252-.639,12.362-1.183,18.31-.061.743-.156,1.485-.187,2.222l-.066,1.1c-.014.368.007.735.009,1.1a13.3,13.3,0,0,0,.719,4.277c.149.326.269.667.44.98a6.759,6.759,0,0,0,.568.9,5.35,5.35,0,0,0,1.529,1.449,4.369,4.369,0,0,0,.944.449,1.828,1.828,0,0,0,.5.107l.531.057,2.118.2a145.552,145.552,0,0,0,16.428.642,47.636,47.636,0,0,0,7.763-.766,7.4,7.4,0,0,0,1.812-.521l.424-.2c.14-.068.264-.164.4-.245s.265-.164.389-.256l.357-.3a9.418,9.418,0,0,0,2.2-2.94,24.933,24.933,0,0,0,2.059-6.889,67.521,67.521,0,0,0,.737-6.883c.26-4.506.24-8.81.213-12.877-.058-4.069.013-7.909-.237-11.487s-.594-6.9-1.015-9.943-.849-5.82-1.281-8.308c-.86-4.978-1.648-8.821-2.2-11.423-.561-2.569-.83-3.8-.865-3.964" transform="translate(-19.373 -70.549)" fill="#263238"/>
        <path id="Trazado_883793" data-name="Trazado 883793" d="M142.165,130.754s-8.514,1.278-6.853,13.946,9.49,33.645,15.782,44.646c5.582,9.761,7.683,11.483,16.82,12.8l4.114-4.056s0-13.447-.958-29.806c-.962-16.474,3.4-34.8-15.158-36.967Z" transform="translate(-73.029 -70.682)" fill="#2b63a8"/>
        <path id="Trazado_883794" data-name="Trazado 883794" d="M164.5,146.275l3.735,22.858h13.744l-4.1-22.328Z" transform="translate(-88.922 -79.072)" fill="#263238"/>
        <path id="Trazado_883795" data-name="Trazado 883795" d="M177.548,198.352s-.071.023-.212.057l-.629.144a16.008,16.008,0,0,1-2.46.317,11.019,11.019,0,0,1-3.885-.528,13.045,13.045,0,0,1-4.447-2.668,28.58,28.58,0,0,1-4.176-4.717c-.166-.23-.34-.457-.5-.695l-.479-.729c-.317-.493-.661-.98-.968-1.5-.6-1.045-1.253-2.106-1.825-3.245a111.33,111.33,0,0,1-6.456-15.241,150.819,150.819,0,0,1-4.569-15.916c-.53-2.49-1.02-4.862-1.319-7.109q-.062-.42-.124-.833-.036-.417-.071-.827c-.039-.546-.1-1.081-.119-1.608q.015-.791.03-1.55a4.381,4.381,0,0,1,.061-.747q.048-.368.1-.728a12.163,12.163,0,0,1,1.755-4.874A9.606,9.606,0,0,1,150,132.572a9.911,9.911,0,0,1,2.213-1.118c.272-.084.478-.15.621-.18a1.379,1.379,0,0,1,.216-.04c0,.006-.071.021-.21.064s-.343.11-.61.2a10.368,10.368,0,0,0-2.177,1.149,9.613,9.613,0,0,0-2.693,2.781,12.091,12.091,0,0,0-1.7,4.825q-.045.356-.091.72a4.341,4.341,0,0,0-.056.74q-.011.751-.022,1.535c.018.522.084,1.053.124,1.595l.074.819q.062.412.126.831c.307,2.239.8,4.6,1.338,7.089a153.817,153.817,0,0,0,4.58,15.886,112.9,112.9,0,0,0,6.425,15.217c.568,1.137,1.211,2.2,1.81,3.238.3.519.645,1,.958,1.5l.474.727c.161.238.334.464.5.693a28.637,28.637,0,0,0,4.127,4.706,12.978,12.978,0,0,0,4.378,2.668,11.054,11.054,0,0,0,3.839.561,17.3,17.3,0,0,0,2.455-.271l.632-.121c.143-.026.218-.033.218-.033" transform="translate(-78.549 -70.941)" fill="#263238"/>
        <g id="Grupo_1103733" data-name="Grupo 1103733" transform="translate(62.068 60.072)" opacity="0.3">
          <g id="Grupo_1103732" data-name="Grupo 1103732">
            <g id="Grupo_1103731" data-name="Grupo 1103731" clip-path="url(#clip-path-9)">
              <path id="Trazado_883796" data-name="Trazado 883796" d="M155.85,190.022c-7.268-10.383-14.121-31.98-15.782-44.646s7.464-14.4,7.464-14.4l-5.368-.22s-8.514,1.278-6.852,13.946,9.49,33.644,15.782,44.646c5.582,9.761,7.684,11.483,16.82,12.8l4.114-4.056c-5.96,1.418-10.545-.022-16.178-8.069" transform="translate(-135.097 -130.754)"/>
            </g>
          </g>
        </g>
        <g id="Grupo_1103736" data-name="Grupo 1103736" transform="translate(88.953 67.732)" opacity="0.3">
          <g id="Grupo_1103735" data-name="Grupo 1103735">
            <g id="Grupo_1103734" data-name="Grupo 1103734" clip-path="url(#clip-path-10)">
              <path id="Trazado_883797" data-name="Trazado 883797" d="M193.617,147.427h1.511l4.1,22.328h-1.514Z" transform="translate(-193.617 -147.427)"/>
            </g>
          </g>
        </g>
        <path id="Trazado_883798" data-name="Trazado 883798" d="M138.215,355.12a.631.631,0,0,1,0-.143c0-.107.007-.245.012-.417.017-.383.04-.921.069-1.6.062-1.393.177-3.408.324-5.9.289-4.977.781-11.85,1.019-19.45.107-3.8.111-7.425.029-10.719-.057-1.646-.1-3.211-.206-4.672-.072-1.464-.195-2.822-.3-4.064-.09-1.243-.245-2.36-.347-3.344s-.221-1.829-.32-2.518l-.215-1.591-.05-.415a.628.628,0,0,1-.009-.142.616.616,0,0,1,.033.138l.074.411c.062.379.149.909.26,1.585s.248,1.531.361,2.516.282,2.1.383,3.344c.118,1.242.251,2.6.331,4.067.111,1.463.165,3.029.229,4.678.094,3.3.1,6.926-.01,10.732-.239,7.608-.758,14.479-1.09,19.454-.168,2.475-.305,4.483-.4,5.891-.049.683-.087,1.219-.114,1.6-.015.172-.027.31-.036.416a.629.629,0,0,1-.02.141" transform="translate(-74.712 -162.249)" fill="#263238"/>
        <g id="Grupo_1103739" data-name="Grupo 1103739" transform="translate(55.416 119.916)" opacity="0.3">
          <g id="Grupo_1103738" data-name="Grupo 1103738">
            <g id="Grupo_1103737" data-name="Grupo 1103737" clip-path="url(#clip-path-11)">
              <path id="Trazado_883799" data-name="Trazado 883799" d="M120.62,261.01l1.4,16.584a10.033,10.033,0,0,0,4.143,1.4l-1.234-5.855s-2.325-8.616-4.305-12.125" transform="translate(-120.62 -261.01)"/>
            </g>
          </g>
        </g>
        <path id="Trazado_883800" data-name="Trazado 883800" d="M176.579,168.558a1.152,1.152,0,0,1,.312.824,1.261,1.261,0,0,1-.189.677,1.306,1.306,0,0,1-.571.486,2.178,2.178,0,0,1-.93.18,2.971,2.971,0,0,1-.882-.131,2.263,2.263,0,0,1-.723-.363l.342-.617a1.734,1.734,0,0,0,.565.308,2.116,2.116,0,0,0,.686.113,1.114,1.114,0,0,0,.662-.174.553.553,0,0,0,.241-.473.547.547,0,0,0-.229-.467,1.183,1.183,0,0,0-.7-.168h-.391v-.543l.971-1.154H173.8v-.665h2.911v.531l-1.038,1.233a1.437,1.437,0,0,1,.9.4" transform="translate(-93.84 -89.947)" fill="#fff"/>
        <path id="Trazado_883801" data-name="Trazado 883801" d="M184.593,168.117a1.245,1.245,0,0,1,.525.461,1.264,1.264,0,0,1,.189.69,1.29,1.29,0,0,1-.208.729,1.371,1.371,0,0,1-.561.485,1.8,1.8,0,0,1-.793.171,1.725,1.725,0,0,1-1.364-.549,2.3,2.3,0,0,1-.485-1.574,2.658,2.658,0,0,1,.263-1.229,1.818,1.818,0,0,1,.735-.775,2.2,2.2,0,0,1,1.1-.266,2.625,2.625,0,0,1,.62.07,1.686,1.686,0,0,1,.5.2l-.293.6a1.462,1.462,0,0,0-.812-.207,1.244,1.244,0,0,0-.964.379,1.559,1.559,0,0,0-.348,1.092v.006a1.18,1.18,0,0,1,.482-.332,1.808,1.808,0,0,1,.659-.113,1.719,1.719,0,0,1,.757.162m-.287,1.715a.72.72,0,0,0,0-1.059.934.934,0,0,0-.623-.2.924.924,0,0,0-.625.207.688.688,0,0,0-.006,1.041.957.957,0,0,0,.65.2.9.9,0,0,0,.6-.2" transform="translate(-98.327 -89.875)" fill="#fff"/>
        <path id="Trazado_883802" data-name="Trazado 883802" d="M190.423,167.609a.974.974,0,0,1-.4-.357.951.951,0,0,1-.143-.515.939.939,0,0,1,.143-.509.975.975,0,0,1,.4-.357,1.358,1.358,0,0,1,1.15,0,.979.979,0,0,1,.4.357.939.939,0,0,1,.143.509.951.951,0,0,1-.143.515.978.978,0,0,1-.4.357,1.354,1.354,0,0,1-1.15,0m1-.461a.546.546,0,0,0,.162-.412.534.534,0,0,0-.165-.406.665.665,0,0,0-.854,0,.534.534,0,0,0-.165.406.544.544,0,0,0,.162.412.672.672,0,0,0,.861,0" transform="translate(-102.643 -89.595)" fill="#fff"/>
        <path id="Trazado_883803" data-name="Trazado 883803" d="M184.183,215.772h-5.763a3.66,3.66,0,0,1,0-7.32h5.763a3.66,3.66,0,0,1,0,7.32" transform="translate(-94.471 -112.683)" fill="#ff725e"/>
        <path id="Trazado_883804" data-name="Trazado 883804" d="M184.056,215.631a4.751,4.751,0,0,0,1.308-.295,3.634,3.634,0,0,0,1.281-.878,3.571,3.571,0,0,0-1.674-5.913,5.609,5.609,0,0,0-1.546-.119l-1.654,0-3.477,0a3.552,3.552,0,0,0-.5,7.068,9.476,9.476,0,0,0,1.211.047l3.7.038,1.006.023a1.95,1.95,0,0,1,.351.024,1.92,1.92,0,0,1-.351.024l-1.006.022-3.7.038a9.4,9.4,0,0,1-1.236-.034,3.71,3.71,0,0,1-1.289-.42,3.765,3.765,0,0,1-1.254-5.484,3.8,3.8,0,0,1,1.319-1.153,3.869,3.869,0,0,1,1.752-.432l3.477,0,1.654,0a5.785,5.785,0,0,1,1.6.135,3.743,3.743,0,0,1,2.7,4.343,3.711,3.711,0,0,1-.99,1.875,3.648,3.648,0,0,1-1.344.872,3.521,3.521,0,0,1-.989.214,1.943,1.943,0,0,1-.352-.006" transform="translate(-94.343 -112.542)" fill="#263238"/>
        <g id="Grupo_1103742" data-name="Grupo 1103742" transform="translate(80.262 95.769)" opacity="0.3">
          <g id="Grupo_1103741" data-name="Grupo 1103741">
            <g id="Grupo_1103740" data-name="Grupo 1103740" clip-path="url(#clip-path-12)">
              <path id="Trazado_883805" data-name="Trazado 883805" d="M184.122,215.772H178.36a3.66,3.66,0,0,1,0-7.32h5.763a3.66,3.66,0,0,1,0,7.32" transform="translate(-174.7 -208.452)" fill="#eefad1"/>
            </g>
          </g>
        </g>
        <path id="Trazado_883806" data-name="Trazado 883806" d="M189.9,215.772h-5.763a3.66,3.66,0,0,1,0-7.32H189.9a3.66,3.66,0,0,1,0,7.32" transform="translate(-97.562 -112.683)" fill="#d7f38d"/>
        <path id="Trazado_883807" data-name="Trazado 883807" d="M189.774,215.631a4.751,4.751,0,0,0,1.308-.295,3.634,3.634,0,0,0,1.281-.878,3.571,3.571,0,0,0-1.674-5.913,5.607,5.607,0,0,0-1.546-.119l-1.654,0-3.477,0a3.552,3.552,0,0,0-.5,7.068,9.475,9.475,0,0,0,1.211.047l3.7.038,1.006.023a1.95,1.95,0,0,1,.351.024,1.92,1.92,0,0,1-.351.024l-1.006.022-3.7.038a9.4,9.4,0,0,1-1.236-.034,3.713,3.713,0,0,1-1.289-.42,3.765,3.765,0,0,1-1.254-5.484,3.8,3.8,0,0,1,1.319-1.153,3.869,3.869,0,0,1,1.752-.432l3.477,0,1.654,0a5.783,5.783,0,0,1,1.6.135,3.743,3.743,0,0,1,2.7,4.343,3.71,3.71,0,0,1-.99,1.875,3.648,3.648,0,0,1-1.344.872,3.521,3.521,0,0,1-.989.214,1.943,1.943,0,0,1-.352-.006" transform="translate(-97.434 -112.542)" fill="#263238"/>
      </g>
    </g>
  </g>
</svg>
