<svg xmlns="http://www.w3.org/2000/svg" xmlns:xlink="http://www.w3.org/1999/xlink" width="183" height="199" viewBox="0 0 183 199">
  <defs>
    <clipPath id="clip-path">
      <rect id="Rectángulo_403786" data-name="Rectángulo 403786" width="183" height="199" transform="translate(495 7051)" fill="#fff" stroke="#707070" stroke-width="1"/>
    </clipPath>
    <clipPath id="clip-path-2">
      <rect id="Rectángulo_403785" data-name="Rectángulo 403785" width="128.195" height="290.351" fill="none"/>
    </clipPath>
    <clipPath id="clip-path-4">
      <rect id="Rectángulo_403777" data-name="Rectángulo 403777" width="128.195" height="25.101" fill="none"/>
    </clipPath>
    <clipPath id="clip-path-5">
      <rect id="Rectángulo_403778" data-name="Rectángulo 403778" width="4.05" height="99.448" fill="none"/>
    </clipPath>
    <clipPath id="clip-path-6">
      <rect id="Rectángulo_403779" data-name="Rectángulo 403779" width="6.886" height="97.61" fill="none"/>
    </clipPath>
    <clipPath id="clip-path-7">
      <rect id="Rectángulo_403780" data-name="Rectángulo 403780" width="8.018" height="98.255" fill="none"/>
    </clipPath>
    <clipPath id="clip-path-8">
      <rect id="Rectángulo_403781" data-name="Rectángulo 403781" width="6.261" height="99.831" fill="none"/>
    </clipPath>
    <clipPath id="clip-path-9">
      <rect id="Rectángulo_403782" data-name="Rectángulo 403782" width="30.136" height="41.061" fill="none"/>
    </clipPath>
    <clipPath id="clip-path-10">
      <rect id="Rectángulo_403783" data-name="Rectángulo 403783" width="30.137" height="41.025" fill="none"/>
    </clipPath>
  </defs>
  <g id="Enmascarar_grupo_1099697" data-name="Enmascarar grupo 1099697" transform="translate(-495 -7051)" clip-path="url(#clip-path)">
    <g id="Grupo_1103771" data-name="Grupo 1103771" transform="translate(515.902 7051.077)">
      <g id="Grupo_1103770" data-name="Grupo 1103770" clip-path="url(#clip-path-2)">
        <g id="Grupo_1103769" data-name="Grupo 1103769">
          <g id="Grupo_1103768" data-name="Grupo 1103768" clip-path="url(#clip-path-2)">
            <g id="Grupo_1103749" data-name="Grupo 1103749" transform="translate(0 265.25)" opacity="0.25">
              <g id="Grupo_1103748" data-name="Grupo 1103748">
                <g id="Grupo_1103747" data-name="Grupo 1103747" clip-path="url(#clip-path-4)">
                  <path id="Trazado_883808" data-name="Trazado 883808" d="M114.886,404.887q2.136.356,4.25.769c2.172.424,4.43.961,6.1,2.416,10.478,9.139-9.79,14.585-15.257,15.221A583.945,583.945,0,0,1,27.316,427c-7.81-.2-28.57-.609-27.256-12.83C1.487,400.9,33.47,403.3,42.594,402.949c23.509-.915,48.847-1.972,72.292,1.937" transform="translate(0 -402.094)" fill="#414f93"/>
                </g>
              </g>
            </g>
            <path id="Trazado_883809" data-name="Trazado 883809" d="M34.089,400.964a2.964,2.964,0,0,0-1.5,2.835,11.466,11.466,0,0,0,.235,3.494,4.5,4.5,0,0,0,1.978,2.8,6.042,6.042,0,0,0,2.275.632c4.736.6,9.53-.1,14.253-.793l5.139-.755a25.081,25.081,0,0,0,6.043-1.406,8.438,8.438,0,0,0,4.547-4.034,12.059,12.059,0,0,0,.777-4.938q.036-3.389-.082-6.778a.888.888,0,0,0-.92-1.029,44.224,44.224,0,0,0-14.875-.363,12.914,12.914,0,0,0-4.526,1.87c-2.178,1.223-4.344,2.467-6.469,3.781-2.36,1.459-4.67,3-6.874,4.69" transform="translate(-11.081 -132.784)" fill="#ef86b9"/>
            <path id="Trazado_883810" data-name="Trazado 883810" d="M146.154,400.964a2.963,2.963,0,0,1,1.5,2.835,11.466,11.466,0,0,1-.235,3.494,4.5,4.5,0,0,1-1.978,2.8,6.045,6.045,0,0,1-2.275.632c-4.736.6-9.53-.1-14.253-.793l-5.139-.755a25.081,25.081,0,0,1-6.043-1.406,8.438,8.438,0,0,1-4.547-4.034,12.059,12.059,0,0,1-.777-4.938q-.036-3.389.082-6.778a.888.888,0,0,1,.92-1.029,44.224,44.224,0,0,1,14.875-.363,12.914,12.914,0,0,1,4.526,1.87c2.178,1.223,4.344,2.467,6.468,3.781,2.36,1.459,4.67,3,6.875,4.69" transform="translate(-38.252 -132.784)" fill="#ef86b9"/>
            <path id="Trazado_883811" data-name="Trazado 883811" d="M80.92,245.982q-1.128,11.415-1.98,22.856-2.574,34.657-2.6,69.438c-1.685.274-3.379.477-5.08.6-1.255.1-2.519.15-3.774.155a57.365,57.365,0,0,1-6.874-.347c-1.27-.135-2.525-.311-3.779-.539-.249-.036-.487-.078-.731-.13a5.3,5.3,0,0,1-3.379-1.591,5.551,5.551,0,0,1-.783-3.38q-.21-15.139-.316-30.289-.117-18.18-.083-36.37.016-9.082.073-18.164c.036-4.712.067-9.424.119-14.137.047-3.732.026-5.287,3.893-5.858,8.289-1.218,17.754.249,25.831,2.131.54,5.194-.02,10.43-.534,15.63" transform="translate(-17.537 -77.519)" fill="#6c83c4"/>
            <path id="Trazado_883812" data-name="Trazado 883812" d="M131.361,266.847q.039,17.955-.083,35.9-.109,15.147-.316,30.289a5.58,5.58,0,0,1-.778,3.38,5.338,5.338,0,0,1-3.385,1.591c-.695.13-1.395.255-2.094.358-1.27.2-2.54.347-3.821.445a56.3,56.3,0,0,1-6.417.2c-1.255-.026-2.519-.1-3.774-.218-1.379-.125-2.763-.3-4.137-.518q-.023-34.773-2.608-69.474-.847-11.423-1.975-22.82c-.513-5.2-1.067-10.435-.528-15.629,8.071-1.882,17.542-3.349,25.831-2.131,3.862.57,3.851,2.125,3.893,5.858q.078,7.068.114,14.136.062,9.315.078,18.631" transform="translate(-34.45 -77.519)" fill="#6c83c4"/>
            <g id="Grupo_1103752" data-name="Grupo 1103752" transform="translate(39.019 161.715)" opacity="0.2">
              <g id="Grupo_1103751" data-name="Grupo 1103751">
                <g id="Grupo_1103750" data-name="Grupo 1103750" clip-path="url(#clip-path-5)">
                  <path id="Trazado_883813" data-name="Trazado 883813" d="M63.2,344.593q-1.9-.2-3.775-.539-.138-48.549-.275-97.087c-.005-2.432,3.769-2.427,3.775,0q.138,48.815.275,97.626" transform="translate(-59.15 -245.145)" fill="#4e589f"/>
                </g>
              </g>
            </g>
            <g id="Grupo_1103755" data-name="Grupo 1103755" transform="translate(49.928 163.899)" opacity="0.2">
              <g id="Grupo_1103754" data-name="Grupo 1103754">
                <g id="Grupo_1103753" data-name="Grupo 1103753" clip-path="url(#clip-path-6)">
                  <path id="Trazado_883814" data-name="Trazado 883814" d="M79.478,345.908c-1.257.1-2.519.151-3.775.156q-.242-47.943,3.09-95.8c.167-2.41,3.942-2.421,3.775,0q-3.325,47.749-3.09,95.642" transform="translate(-75.687 -248.455)" fill="#4e589f"/>
                </g>
              </g>
            </g>
            <g id="Grupo_1103758" data-name="Grupo 1103758" transform="translate(72.187 163.238)" opacity="0.2">
              <g id="Grupo_1103757" data-name="Grupo 1103757">
                <g id="Grupo_1103756" data-name="Grupo 1103756" clip-path="url(#clip-path-7)">
                  <path id="Trazado_883815" data-name="Trazado 883815" d="M117.26,345.708c-1.257-.027-2.519-.1-3.775-.216.426-31.929.593-64-4.034-95.669-.35-2.383,3.29-3.4,3.64-1,4.692,32.091,4.589,64.532,4.168,96.887" transform="translate(-109.428 -247.453)" fill="#4e589f"/>
                </g>
              </g>
            </g>
            <g id="Grupo_1103761" data-name="Grupo 1103761" transform="translate(86.15 161.467)" opacity="0.2">
              <g id="Grupo_1103760" data-name="Grupo 1103760">
                <g id="Grupo_1103759" data-name="Grupo 1103759" clip-path="url(#clip-path-8)">
                  <path id="Trazado_883816" data-name="Trazado 883816" d="M134.7,344.153q-1.9.291-3.818.447a515.887,515.887,0,0,0-.274-98.025c-.237-2.422,3.542-2.395,3.775,0a515.664,515.664,0,0,1,.318,97.577" transform="translate(-130.595 -244.769)" fill="#4e589f"/>
                </g>
              </g>
            </g>
            <path id="Trazado_883817" data-name="Trazado 883817" d="M147.167,395.392a8.339,8.339,0,0,0-4.133,2.61,1.086,1.086,0,0,0,.387,1.476,1.1,1.1,0,0,0,1.476-.387,5.965,5.965,0,0,1,2.844-1.619c1.3-.466.738-2.552-.573-2.08" transform="translate(-48.624 -134.54)" fill="#fff"/>
            <path id="Trazado_883818" data-name="Trazado 883818" d="M155.167,400.925a1.1,1.1,0,0,0-1.327-.753,6.06,6.06,0,0,0-3.371,1.922c-.92,1.035.6,2.565,1.525,1.525a4.172,4.172,0,0,1,2.419-1.367,1.088,1.088,0,0,0,.753-1.327" transform="translate(-51.112 -136.181)" fill="#fff"/>
            <path id="Trazado_883819" data-name="Trazado 883819" d="M48.426,395.392A8.339,8.339,0,0,1,52.559,398a1.086,1.086,0,0,1-.387,1.476,1.1,1.1,0,0,1-1.476-.387,5.965,5.965,0,0,0-2.844-1.619c-1.3-.466-.738-2.552.573-2.08" transform="translate(-16.035 -134.54)" fill="#fff"/>
            <path id="Trazado_883820" data-name="Trazado 883820" d="M40.727,400.925a1.1,1.1,0,0,1,1.327-.753,6.064,6.064,0,0,1,3.372,1.922c.919,1.035-.6,2.565-1.526,1.525a4.168,4.168,0,0,0-2.419-1.367,1.088,1.088,0,0,1-.753-1.327" transform="translate(-13.849 -136.181)" fill="#fff"/>
            <g id="Grupo_1103764" data-name="Grupo 1103764" transform="translate(34 150.257)" opacity="0.25">
              <g id="Grupo_1103763" data-name="Grupo 1103763">
                <g id="Grupo_1103762" data-name="Grupo 1103762" clip-path="url(#clip-path-9)">
                  <path id="Trazado_883821" data-name="Trazado 883821" d="M81.457,230.353c.539,5.194-.02,10.43-.534,15.63Q79.8,257.4,78.943,268.838A163.217,163.217,0,0,1,54.9,266.806c-1.011-.166-2.162-.285-3.359-.425q.016-9.082.073-18.164c.036-4.713.067-9.425.119-14.137.046-3.732.026-5.287,3.893-5.858,8.289-1.218,17.755.249,25.831,2.131" transform="translate(-51.541 -227.776)" fill="#414f93"/>
                </g>
              </g>
            </g>
            <g id="Grupo_1103767" data-name="Grupo 1103767" transform="translate(66.775 150.257)" opacity="0.25">
              <g id="Grupo_1103766" data-name="Grupo 1103766">
                <g id="Grupo_1103765" data-name="Grupo 1103765" clip-path="url(#clip-path-10)">
                  <path id="Trazado_883822" data-name="Trazado 883822" d="M131.361,266.847q-6.236.684-12.483,1.177c-4.966.383-9.948.658-14.93.778q-.847-11.423-1.975-22.82c-.513-5.2-1.067-10.435-.528-15.629,8.071-1.882,17.542-3.349,25.831-2.131,3.862.57,3.851,2.125,3.893,5.858q.078,7.068.114,14.136.062,9.315.078,18.631" transform="translate(-101.224 -227.776)" fill="#414f93"/>
                </g>
              </g>
            </g>
            <path id="Trazado_883823" data-name="Trazado 883823" d="M121.8,2.345c6.859,3.8,11.25,11.683,11.932,19.79.247,2.944.064,5.983.98,8.777.795,2.424,2.358,4.474,3.513,6.733a21.654,21.654,0,0,1,2.141,12.591c-.259,1.946-.784,3.856-.865,5.82-.231,5.579,3.06,10.532,5.254,15.619,3.157,7.313,4.012,16.3-.035,23.118-4.427,7.452-13.406,10.388-21.745,11.119-6.089.534-13.055-.2-16.861-5.218-2.132-2.809-2.872-6.489-3.34-10.046-2.678-20.349,1.436-41.164-1.088-61.534-.782-6.31-4.771-18.493-.991-24.281,4.171-6.386,15.494-5.6,21.1-2.488" transform="translate(-33.725 0)" fill="#181f38"/>
            <path id="Trazado_883824" data-name="Trazado 883824" d="M60.364,4.341a23.185,23.185,0,0,0-9.172,15.393c-.75,5.285.206,11.073-2.367,15.683-1.606,2.877-4.361,4.824-6.361,7.415a16.941,16.941,0,0,0-3.444,10.651c.071,2.852.853,5.737.251,8.519-.56,2.589-2.238,4.721-3.679,6.9a32.482,32.482,0,0,0-5.626,15.954c-.3,5.734,1.438,11.7,5.281,15.788a26.176,26.176,0,0,0,9.833,6.077,57.935,57.935,0,0,0,33.652,2.507,4.1,4.1,0,0,0,1.742-.7c.982-.8,1.121-2.28,1.179-3.585Q83.533,62.6,83.271,20.182c-.035-5.679-.334-14.768-5.329-18.506C73.164-1.9,64.594,1.3,60.364,4.341" transform="translate(-10.187 -0.033)" fill="#181f38"/>
            <path id="Trazado_883825" data-name="Trazado 883825" d="M124.552,189.455c-1.249,7.745-6.765,14.109-13.341,17.853-.4.232-.81.451-1.22.662-7.1,3.63-15.118,4.668-22.985,5.3q-6.185.494-12.391.687a258.445,258.445,0,0,1-29.1-.726,48.383,48.383,0,0,1-10.8-1.832,19.866,19.866,0,0,1-7.023-3.806c-6.085-5.25-7.853-14.586-6.385-22.744a52.389,52.389,0,0,1,5.465-14.878.035.035,0,0,1,0-.013c1.114-2.148,2.309-4.254,3.511-6.339.253-.435.5-.866.755-1.3a4.6,4.6,0,0,0,.667-1.579c.013-.088.021-.181.025-.274a4.233,4.233,0,0,0-.708-2.03,34.591,34.591,0,0,1-2.116-28.446c2.656-6.871,7.632-12.518,13.29-16.911,5.12-3.98,11.34-8.137,17.4-10.294,5.558-1.975,11.505-.224,17.022.966a39.572,39.572,0,0,0,9.3.877c5.326-.135,10.99-1.282,15.752,1.241a18.718,18.718,0,0,1,4.038,3.09c12.556,11.961,17.9,31.734,13.21,48.9a15.064,15.064,0,0,0-.9,5.808,13.589,13.589,0,0,0,1.608,4.267c3.343,6.638,6.124,14.109,4.925,21.52" transform="translate(-7.086 -34.677)" fill="#4e589f"/>
            <path id="Trazado_883826" data-name="Trazado 883826" d="M101.163,230.934a26.46,26.46,0,0,0-.261,5.487c.04,1.9,2.995,1.905,2.955,0a22.851,22.851,0,0,1,.155-4.7c.346-1.859-2.5-2.655-2.849-.786" transform="translate(-34.331 -78.23)" fill="#fff"/>
            <path id="Trazado_883827" data-name="Trazado 883827" d="M112.08,231.031c.183-1.891-2.773-1.879-2.953,0a47,47,0,0,0-.2,5.979c.06,1.9,3.014,1.905,2.955,0a46.878,46.878,0,0,1,.194-5.979" transform="translate(-37.064 -78.145)" fill="#fff"/>
            <path id="Trazado_883828" data-name="Trazado 883828" d="M120.566,231.452c.09-1.9-2.864-1.9-2.955,0a55.665,55.665,0,0,0,.021,5.7c.1,1.891,3.059,1.9,2.954,0a55.666,55.666,0,0,1-.02-5.7" transform="translate(-40.005 -78.285)" fill="#fff"/>
            <path id="Trazado_883829" data-name="Trazado 883829" d="M126.039,232.09q-.1,2.78-.2,5.56c-.068,1.9,2.887,1.9,2.955,0q.1-2.78.2-5.56c.069-1.9-2.886-1.9-2.954,0" transform="translate(-42.826 -78.502)" fill="#fff"/>
            <path id="Trazado_883830" data-name="Trazado 883830" d="M124.079,129.557c-.034,1.2-.123,2.4-.266,3.587-.317,2.575-.887,5.115-1.406,7.66-.2.95-.384,1.9-.548,2.858a35.525,35.525,0,0,0-.57,5.478c-.046,3.072.456,6.132.553,9.2,0,.177.009.359.013.536q.026,1.475-.059,2.941c-.266,4.951-1.313,9.859-1.967,14.789-.113.874-.215,1.751-.295,2.633-.106,1.077-.177,2.157-.207,3.238a27.333,27.333,0,0,0,2.081,12.222c-.641.152-1.283.291-1.933.409-.984.195-1.975.35-2.971.473-.882.109-1.769.194-2.655.253q-1.475.095-2.955.1-1.355,0-2.705-.076c-.983-.051-1.966-.139-2.945-.257-.794-.093-1.587-.211-2.376-.35q-1.444-.247-2.866-.591c-.009,0-.017,0-.026,0a2.631,2.631,0,0,1-1.769-1,2.507,2.507,0,0,1-.21-1.477c.261-3.807,1.616-7.449,2.3-11.205.106-.574.194-1.148.262-1.73.05-.426.084-.848.113-1.274.174-2.6,0-5.225.11-7.834a58.075,58.075,0,0,1,1.139-8.605c.228-1.186.468-2.372.705-3.554l.1-.493a115.272,115.272,0,0,0,2.359-17.312c.055-1.051.08-2.1.084-3.149s-.021-2.085-.067-3.128a54.5,54.5,0,0,0-.831-7.36,11.232,11.232,0,0,1-.228-3.368,3.713,3.713,0,0,1,2.832-3.25,9.906,9.906,0,0,1,1.371-.359c1.5-.291,14.473-1.371,14.848.245a38.649,38.649,0,0,1,.988,9.749" transform="translate(-33.344 -40.479)" fill="#f495bf"/>
            <path id="Trazado_883831" data-name="Trazado 883831" d="M120.727,209.659c-.106,1.077-.177,2.156-.207,3.237a14.176,14.176,0,0,1-2.055.836,12.916,12.916,0,0,1-5.9.3c-2.828-.506-7.935-4.035-11.079-2.637.106-.575.195-1.148.262-1.73.051-.427.084-.848.114-1.275,2.482-.358,5.259.54,7.677,1.549,3.343,1.4,6.386,1.794,9.8.321.472-.2.933-.406,1.393-.6" transform="translate(-34.539 -70.893)" fill="#fff"/>
            <path id="Trazado_883832" data-name="Trazado 883832" d="M123.887,178.819q.026,1.475-.059,2.941c-1.364.253-2.782.959-4.048,1.119a12.391,12.391,0,0,1-5.465-.743c-3.655-1.207-7.255-2.634-10.365-.663.228-1.186.468-2.372.7-3.554a14.084,14.084,0,0,1,8.568.7c3,1.076,5.279,1.718,8.415.743a14.507,14.507,0,0,1,2.249-.54" transform="translate(-35.377 -60.416)" fill="#fff"/>
            <path id="Trazado_883833" data-name="Trazado 883833" d="M126.073,149.807c-.2.949-.384,1.9-.549,2.857-2.41-.321-4.735-1.6-7.014-2.781a11.559,11.559,0,0,0-9.762-.7c.055-1.051.08-2.1.084-3.149a13.431,13.431,0,0,1,5.82-.528A18.344,18.344,0,0,1,121,147.865a13.8,13.8,0,0,0,5.073,1.941" transform="translate(-37.01 -49.48)" fill="#fff"/>
            <path id="Trazado_883834" data-name="Trazado 883834" d="M127.181,129.557c-3.571,2.182-8.082,2.19-12.172,3.241a30.984,30.984,0,0,1-4.664,1.119,10.739,10.739,0,0,1-2.144-.017,54.5,54.5,0,0,0-.831-7.36,11.232,11.232,0,0,1-.228-3.368c.232-.181.456-.371.667-.57a16.583,16.583,0,0,0,2.165-2.68,9.906,9.906,0,0,1,1.371-.359c1.5-.291,14.473-1.371,14.848.245a38.649,38.649,0,0,1,.988,9.749" transform="translate(-36.446 -40.479)" fill="#ef86b9"/>
            <path id="Trazado_883835" data-name="Trazado 883835" d="M114.076,116.737a17.937,17.937,0,0,1-5.63,3.309c-.544.224-1.093.439-1.65.641-1.051.393-2.115.751-3.191,1.064a34.894,34.894,0,0,1-8.082,1.405,45.569,45.569,0,0,1-7.542-.384c-.553-.063-1.1-.135-1.65-.207-.422-.055-.848-.113-1.271-.169A107.7,107.7,0,0,0,73.374,121.2c-.384-.009-.768-.017-1.152-.017-1.038-.013-2.073-.013-3.106-.05a23.343,23.343,0,0,1-3.195-.3,10.093,10.093,0,0,1-6.411-3.478c-1.507-1.984-1.786-5.01-.177-6.913.468-.553,1.118-1.174.907-1.87a2.212,2.212,0,0,0-.582-.78,6.206,6.206,0,0,1-.959-6.6,9.911,9.911,0,0,1,5.516-5.12A14.75,14.75,0,0,1,71,95.01a11.149,11.149,0,0,1,1.384.186c.672.131,1.338.282,2.009.447,3.1.764,6.212,1.832,9.344,2.642.954.245,1.908.468,2.862.65a27.045,27.045,0,0,0,4.381.511,28.658,28.658,0,0,0,9.2-1.54c1-.3,1.992-.633,2.98-.958l.452-.152a12.469,12.469,0,0,1,5.469-.937,6.224,6.224,0,0,1,3.773,10.387,4.969,4.969,0,0,1,3.841,4.546c0,.05,0,.1.009.152a7.707,7.707,0,0,1-2.629,5.795" transform="translate(-19.796 -32.318)" fill="#f495bf"/>
            <path id="Trazado_883836" data-name="Trazado 883836" d="M114.076,117.311a17.937,17.937,0,0,1-5.63,3.309c-.544.224-1.093.439-1.65.641-1.051.393-2.115.751-3.191,1.064a34.9,34.9,0,0,1-8.082,1.405,45.57,45.57,0,0,1-7.542-.384c-.553-.063-1.1-.135-1.65-.207-.422-.055-.848-.113-1.271-.169a107.7,107.7,0,0,0-11.687-1.194c-.384-.009-.768-.017-1.152-.017-1.038-.013-2.073-.013-3.106-.05a23.342,23.342,0,0,1-3.195-.3,10.093,10.093,0,0,1-6.411-3.478c-1.507-1.984-1.786-5.01-.177-6.913.468-.553,1.118-1.174.907-1.87a2.212,2.212,0,0,0-.582-.78,6.206,6.206,0,0,1-.959-6.6,9.911,9.911,0,0,1,5.516-5.12,9.6,9.6,0,0,0-1.587,1.7,10.084,10.084,0,0,0-1.406,4.221,6.47,6.47,0,0,0,.769,4.013,3.791,3.791,0,0,0,3.461,1.883c-1.418.848-2.938,1.9-3.288,3.515-.418,1.946,1.1,3.816,2.823,4.82,4.8,2.8,10.842,1.262,16.376,1.747a76.423,76.423,0,0,1,7.584,1.367c7.812,1.464,16.342.9,23.023-3.406a12.3,12.3,0,0,0,4.727-5.14c0,.05,0,.1.009.152a7.707,7.707,0,0,1-2.629,5.795" transform="translate(-19.796 -32.892)" fill="#ef86b9"/>
            <path id="Trazado_883837" data-name="Trazado 883837" d="M77.246,101.806c.114,2.469,1.608,4.608,2,7.023.435,2.617-.662,4.693-1.49,7.09a7.788,7.788,0,0,0-.059,5.293c-1.038-.013-2.072-.013-3.106-.051a9.677,9.677,0,0,1-.249-3.7c.426-3.474,2.806-6.014,1.6-9.644-.962-2.9-2.072-5.39-1.435-8.5a10.4,10.4,0,0,1,1.971-4.288,11.275,11.275,0,0,1,1.384.185c.672.131,1.338.283,2.009.448a7.8,7.8,0,0,0-2.629,6.136" transform="translate(-25.276 -32.343)" fill="#fff"/>
            <path id="Trazado_883838" data-name="Trazado 883838" d="M100.988,124.487c-.553-.063-1.1-.135-1.65-.207-.422-.055-.848-.113-1.27-.168.317-1.709.814-3.381,1.241-5.086a10.84,10.84,0,0,0-.941-8.487A15.034,15.034,0,0,1,96.747,100c.954.245,1.908.468,2.862.65a10.341,10.341,0,0,0-.055,5.094c.578,2.372,2.16,4.322,2.857,6.651,1.237,4.132-.671,8.057-1.422,12.092" transform="translate(-32.804 -34.033)" fill="#fff"/>
            <path id="Trazado_883839" data-name="Trazado 883839" d="M128.471,121.712c-1.051.393-2.114.751-3.191,1.063a8.663,8.663,0,0,0-.856-5.981,10.209,10.209,0,0,1-1.2-6.584c.477-2.7,1.7-5.242.658-7.973a11.682,11.682,0,0,0-2.026-3.308c1-.3,1.992-.633,2.98-.959a13.928,13.928,0,0,1,1.5,2.5c1.292,2.785.962,5.469.228,8.348-.515,2.009-.823,3.63,0,5.613a28.143,28.143,0,0,1,1.667,3.971,9.791,9.791,0,0,1,.241,3.309" transform="translate(-41.472 -33.343)" fill="#fff"/>
            <path id="Trazado_883840" data-name="Trazado 883840" d="M118.091,185.531A44.179,44.179,0,0,0,147.8,181.22c.28-.151.587-.341.656-.652a1.142,1.142,0,0,0-.007-.393q-.653-4.831-1.305-9.662a21.234,21.234,0,0,0-1.192-5.322,7.148,7.148,0,0,0-3.583-3.95,2.117,2.117,0,0,0-1.18-.206,2.661,2.661,0,0,0-1.255.774q-6.488,5.932-13.313,11.482a43.5,43.5,0,0,1-5.153,3.758,46.842,46.842,0,0,1-5.448,2.629c-1.573.677-5.733,1.506-3.744,3.509,1.395,1.405,3.96,1.957,5.817,2.344" transform="translate(-38.03 -54.798)" fill="#4e589f"/>
            <path id="Trazado_883841" data-name="Trazado 883841" d="M143.8,130.461a5.379,5.379,0,0,1,5.7-2.982,20.438,20.438,0,0,1,6.518.708c.522.175,1.1.477,1.192,1.019.137.806-.848,1.292-1.639,1.5a2.109,2.109,0,0,1,2.589,1.1,1.582,1.582,0,0,1-1.513,2.09A2.134,2.134,0,0,1,159,135.2c.275.939-.707,2.077-1.62,1.726,1.086.5,2.373,1.357,2.125,2.525-.241,1.143-1.713,1.433-2.879,1.481l-2.215.092a1.073,1.073,0,0,0-.569.131c-.276.188-.313.569-.391.894-.409,1.713-2.391,2.482-4.126,2.781a23.47,23.47,0,0,1-3.438.334,2.874,2.874,0,0,1-2.93-1.461,23.278,23.278,0,0,1-3.481-6.558,1.323,1.323,0,0,1-.1-.561c.062-.593,1.309-1.615,1.685-2.211.844-1.34,1.83-2.611,2.739-3.908" transform="translate(-47.433 -43.385)" fill="#f9ccc5"/>
            <path id="Trazado_883842" data-name="Trazado 883842" d="M53.634,177.639a32.057,32.057,0,0,0,8.539,2.94c6.3,1.024,12.68-1.015,18.539-3.531a110.75,110.75,0,0,0,28.105-17.458,32.088,32.088,0,0,0,6.727-7.277,4.035,4.035,0,0,0,.637-1.49,4.489,4.489,0,0,0-1-2.94,141.771,141.771,0,0,0-8.762-12.2,33.345,33.345,0,0,1-5.829,5.163,131.768,131.768,0,0,1-17.4,10.885c-4.109,2.145-8.458,4.106-13.088,4.388a29.576,29.576,0,0,1-12.319-2.417,3.631,3.631,0,0,0-2.031-.371,3.28,3.28,0,0,0-1.064.513A25.419,25.419,0,0,0,44.8,166.373c-.762,2.088-2,4.731-.026,6.341,2.521,2.055,5.941,3.534,8.862,4.925" transform="translate(-14.875 -46.178)" fill="#4e589f"/>
            <path id="Trazado_883843" data-name="Trazado 883843" d="M110.978,136.1A81.615,81.615,0,0,0,99.91,143.2,68.858,68.858,0,0,1,88,149.977q-6.854,3.052-13.811,5.866c-2.161.876-4.735,2.315-7.128,2.137-2.563-.191-3.747-2.594-4.739-4.658-.706-1.468-2.89-.185-2.187,1.278,1.874,3.9,4.62,6.733,9.26,5.687a51.932,51.932,0,0,0,8.086-3.073q3.7-1.527,7.378-3.115a84.894,84.894,0,0,0,14.225-7.252c4.345-2.941,8.44-6.24,13.175-8.557,1.464-.716.182-2.9-1.278-2.187" transform="translate(-20.418 -46.271)" fill="#414f93"/>
            <path id="Trazado_883844" data-name="Trazado 883844" d="M113.986,163.939a94.483,94.483,0,0,1-17.093,13.7,169.2,169.2,0,0,1-17.5,9.555c-6.1,2.933-12.362,6.048-19.034,7.415-5.951,1.22-12.214.785-17.477-2.457a21.778,21.778,0,0,1-7.707-8.158l.756-1.3a4.607,4.607,0,0,0,.666-1.579,19.026,19.026,0,0,0,13.662,11.243c8.264,1.646,16.6-2.1,23.918-5.5,13.763-6.386,27.34-13.738,38.018-24.715,1.139-1.173,2.929.621,1.794,1.79" transform="translate(-11.97 -55.054)" fill="#414f93"/>
            <path id="Trazado_883845" data-name="Trazado 883845" d="M144.967,190.22c-10.522,5.529-23.091,7.037-33.993,1.664-1.463-.721-2.637,1.523-1.173,2.245,11.763,5.8,25.2,4.178,36.546-1.786,1.441-.757.055-2.877-1.38-2.123" transform="translate(-37.14 -64.683)" fill="#414f93"/>
            <path id="Trazado_883846" data-name="Trazado 883846" d="M58.632,137.094a7.172,7.172,0,0,0-1.926-2.853,7.169,7.169,0,0,0-3.147-1.1,20.438,20.438,0,0,0-6.539-.468c-.544.079-1.167.272-1.355.789-.279.769.6,1.423,1.344,1.769a2.108,2.108,0,0,0-2.744.616,1.583,1.583,0,0,0,1.115,2.328,2.132,2.132,0,0,0-2.552.859c-.439.875.323,2.17,1.285,1.988-1.158.294-2.577.91-2.543,2.1.033,1.167,1.43,1.716,2.568,1.972l2.164.487a1.081,1.081,0,0,1,.536.23c.238.234.206.616.225.95.1,1.757,1.909,2.869,3.563,3.473a23.481,23.481,0,0,0,3.322.943,2.874,2.874,0,0,0,3.144-.913,23.3,23.3,0,0,0,4.6-5.83,1.343,1.343,0,0,0,.2-.534c.045-.6-1-1.823-1.263-2.476-.592-1.469-1.334-2.9-2-4.335" transform="translate(-14.147 -45.113)" fill="#f9ccc5"/>
            <path id="Trazado_883847" data-name="Trazado 883847" d="M117.933,264.862c-1.072,2.271-3.786,3.17-6.221,3.777a150.639,150.639,0,0,1-65.054,1.625A6.688,6.688,0,0,1,43.429,269a5.927,5.927,0,0,1-1.544-3.22,48.38,48.38,0,0,0,10.8,1.831,258.475,258.475,0,0,0,29.1.726q6.2-.2,12.391-.688c7.867-.629,15.882-1.667,22.984-5.3.41-.211.819-.431,1.22-.663a6.121,6.121,0,0,1-.447,3.17" transform="translate(-14.255 -89.061)" fill="#414f93"/>
            <path id="Trazado_883848" data-name="Trazado 883848" d="M39.791,216.362q-.59-.016-1.179-.043c0-.338-.011-.676-.026-1.013-.06-1.352-2.17-1.36-2.11,0,.013.294.018.586.022.878-.594-.047-1.188-.1-1.781-.165-1.348-.146-1.338,1.965,0,2.11.577.063,1.154.115,1.731.162-.028.458-.062.916-.112,1.375-.147,1.348,1.964,1.338,2.11,0,.045-.413.078-.826.106-1.239q.618.029,1.239.046a1.056,1.056,0,0,0,0-2.11" transform="translate(-11.472 -72.929)" fill="#5c69aa"/>
            <path id="Trazado_883849" data-name="Trazado 883849" d="M59.624,254.749q-.59-.016-1.179-.043c0-.338-.011-.675-.026-1.013-.06-1.352-2.17-1.36-2.11,0,.013.293.018.586.022.879-.594-.047-1.188-.1-1.781-.166-1.348-.146-1.338,1.965,0,2.11.577.063,1.154.115,1.731.162-.028.458-.062.916-.112,1.375-.147,1.348,1.964,1.338,2.11,0,.045-.413.078-.826.106-1.239q.618.029,1.239.046a1.056,1.056,0,0,0,0-2.11" transform="translate(-18.222 -85.993)" fill="#5c69aa"/>
            <path id="Trazado_883850" data-name="Trazado 883850" d="M87.774,220.2q-.59-.016-1.179-.043c0-.338-.011-.676-.026-1.013-.06-1.352-2.17-1.36-2.11,0,.013.294.018.586.022.878-.594-.047-1.188-.1-1.781-.165-1.348-.146-1.338,1.964,0,2.11.577.063,1.154.115,1.731.162-.028.458-.062.916-.112,1.375-.147,1.348,1.964,1.338,2.11,0,.045-.413.078-.826.106-1.239q.618.029,1.239.046a1.056,1.056,0,0,0,0-2.11" transform="translate(-27.802 -74.235)" fill="#5c69aa"/>
            <path id="Trazado_883851" data-name="Trazado 883851" d="M140.876,252.829q-.59-.016-1.179-.043c0-.338-.011-.676-.026-1.013-.06-1.352-2.17-1.36-2.11,0,.013.294.018.586.022.878-.594-.047-1.188-.1-1.781-.165-1.348-.146-1.338,1.965,0,2.11.577.063,1.154.115,1.731.162-.028.458-.062.916-.112,1.375-.147,1.348,1.964,1.338,2.11,0,.045-.413.078-.826.106-1.239q.618.029,1.239.046a1.056,1.056,0,0,0,0-2.11" transform="translate(-45.875 -85.34)" fill="#5c69aa"/>
            <path id="Trazado_883852" data-name="Trazado 883852" d="M161.989,222.12q-.59-.016-1.179-.044c0-.337-.011-.675-.026-1.013-.06-1.352-2.17-1.36-2.11,0,.013.293.018.586.022.879-.594-.048-1.188-.1-1.781-.166-1.348-.146-1.338,1.965,0,2.11.577.063,1.154.115,1.731.161-.028.458-.062.917-.112,1.375-.147,1.348,1.964,1.338,2.11,0,.045-.413.079-.826.106-1.239q.618.029,1.239.046a1.056,1.056,0,0,0,0-2.11" transform="translate(-53.06 -74.888)" fill="#5c69aa"/>
            <path id="Trazado_883853" data-name="Trazado 883853" d="M157.51,177.591q-.59-.016-1.179-.044c0-.337-.011-.675-.026-1.013-.06-1.352-2.17-1.36-2.11,0,.013.293.018.586.022.878-.594-.047-1.188-.1-1.781-.165-1.348-.146-1.338,1.964,0,2.11.577.063,1.154.115,1.731.161-.028.458-.062.917-.112,1.375-.147,1.348,1.964,1.338,2.11,0,.045-.413.078-.826.106-1.239q.618.029,1.239.046a1.056,1.056,0,0,0,0-2.11" transform="translate(-51.536 -59.734)" fill="#5c69aa"/>
            <path id="Trazado_883854" data-name="Trazado 883854" d="M48.747,173.113q-.59-.016-1.179-.043c0-.338-.011-.676-.026-1.013-.06-1.352-2.17-1.36-2.11,0,.013.294.018.586.022.879-.594-.048-1.188-.1-1.781-.166-1.348-.146-1.338,1.965,0,2.11.577.063,1.154.115,1.731.161-.028.458-.062.917-.112,1.375-.147,1.348,1.965,1.338,2.11,0,.045-.413.079-.826.106-1.239q.618.029,1.238.046a1.056,1.056,0,0,0,0-2.11" transform="translate(-14.52 -58.21)" fill="#5c69aa"/>
            <path id="Trazado_883855" data-name="Trazado 883855" d="M92.892,183.093q-.59-.016-1.179-.044c0-.337-.011-.674-.026-1.013-.06-1.352-2.17-1.36-2.11,0,.013.293.018.586.022.879-.594-.047-1.188-.1-1.781-.166-1.348-.146-1.338,1.964,0,2.11.577.063,1.154.115,1.731.162-.028.458-.062.916-.112,1.375-.147,1.348,1.964,1.338,2.11,0,.045-.413.078-.826.106-1.239q.618.029,1.239.046a1.056,1.056,0,0,0,0-2.11" transform="translate(-29.544 -61.606)" fill="#5c69aa"/>
            <path id="Trazado_883856" data-name="Trazado 883856" d="M131.914,157.554q-.59-.016-1.179-.044c0-.337-.011-.675-.026-1.013-.06-1.352-2.17-1.36-2.11,0,.013.293.018.586.022.878-.594-.047-1.188-.1-1.781-.165-1.348-.146-1.338,1.965,0,2.11.577.063,1.154.115,1.731.161-.028.458-.062.917-.112,1.375-.147,1.348,1.964,1.338,2.11,0,.045-.413.079-.826.106-1.239q.618.029,1.239.046a1.056,1.056,0,0,0,0-2.11" transform="translate(-42.825 -52.915)" fill="#5c69aa"/>
            <path id="Trazado_883857" data-name="Trazado 883857" d="M88.414,144.962q-.59-.016-1.179-.043c0-.338-.011-.675-.026-1.013-.06-1.352-2.17-1.36-2.11,0,.013.294.018.586.022.879-.594-.048-1.188-.1-1.781-.166-1.348-.146-1.338,1.965,0,2.11.577.063,1.154.115,1.731.162-.028.458-.062.916-.112,1.375-.147,1.348,1.964,1.338,2.11,0,.045-.413.078-.826.106-1.239q.618.029,1.239.046a1.056,1.056,0,0,0,0-2.11" transform="translate(-28.02 -48.629)" fill="#5c69aa"/>
            <path id="Trazado_883858" data-name="Trazado 883858" d="M69.431,35.693c0,4.515-.784,9.034-.706,13.589.137,7.975,1.038,16.694,5.144,23.71,4.5,7.688,14.055,10.257,22.417,8.388a21.524,21.524,0,0,0,13.137-9.055c5.63-8.313,6.405-19.251,6.074-28.977-.082-2.415-.251-4.827-.486-7.233,0,0-1.688-17.3-24.478-18.148,0,0-21.1.422-21.1,17.726" transform="translate(-23.387 -6.115)" fill="#f9ccc5"/>
            <path id="Trazado_883859" data-name="Trazado 883859" d="M64.005,64.828a4.7,4.7,0,0,0-5.382.15,5.845,5.845,0,0,0-1.761,2.941A10.457,10.457,0,0,0,65.2,81.169,3.485,3.485,0,0,0,67.32,81a3.4,3.4,0,0,0,1.554-2.48c.812-3.975-1.187-11.327-4.869-13.691" transform="translate(-19.213 -21.801)" fill="#f9ccc5"/>
            <path id="Trazado_883860" data-name="Trazado 883860" d="M137.988,65.454a4.7,4.7,0,0,1,5.362.478,5.848,5.848,0,0,1,1.578,3.044A10.457,10.457,0,0,1,135.8,81.692a3.487,3.487,0,0,1-2.11-.3,3.407,3.407,0,0,1-1.4-2.571c-.568-4.017,1.876-11.234,5.7-13.369" transform="translate(-44.995 -22.066)" fill="#f9ccc5"/>
            <path id="Trazado_883861" data-name="Trazado 883861" d="M116.385,43c-.412-5.583-1.146-11.214-3.205-16.421s-5.567-10-10.47-12.705a25.843,25.843,0,0,0-11.648-2.856c-6.716-.221-13.8,1.466-18.634,6.138a24.076,24.076,0,0,0-6.48,13.04,59.717,59.717,0,0,0-.406,14.754C70.665,41.8,75.856,38.595,79.966,34.2a24.127,24.127,0,0,0,6.746-13.874C91.041,32.709,103.336,42.04,116.385,43" transform="translate(-22.218 -3.744)" fill="#181f38"/>
            <path id="Trazado_883862" data-name="Trazado 883862" d="M66.441,76.783a7.215,7.215,0,0,0-3.68-4.719c-1.445-.749-2.727,1.436-1.278,2.186A4.756,4.756,0,0,1,64,77.457c.379,1.584,2.821.913,2.442-.674" transform="translate(-20.708 -24.473)" fill="#f9bcb7"/>
            <path id="Trazado_883863" data-name="Trazado 883863" d="M144.278,71.615a11.253,11.253,0,0,0-3.971,3.853c-.862,1.389,1.328,2.662,2.186,1.278a8.578,8.578,0,0,1,3.062-2.945,1.267,1.267,0,0,0-1.278-2.187" transform="translate(-47.683 -24.312)" fill="#f9bcb7"/>
            <path id="Trazado_883864" data-name="Trazado 883864" d="M105.069,84.095a12.02,12.02,0,0,0-6.593-.081,1.056,1.056,0,0,0,.561,2.035,9.852,9.852,0,0,1,5.471.081,1.056,1.056,0,0,0,.561-2.035" transform="translate(-33.26 -28.449)" fill="#fff"/>
            <path id="Trazado_883865" data-name="Trazado 883865" d="M86.894,67.694a1.814,1.814,0,0,0-.158-.168,10.547,10.547,0,0,0,.986-.85,1.056,1.056,0,0,0-1.492-1.492A8.007,8.007,0,0,1,81,67.544c-1.35.08-1.359,2.191,0,2.11a10.739,10.739,0,0,0,2.482-.449c-.009.047-.019.093-.025.141a2.774,2.774,0,0,0-.009.487A3.2,3.2,0,0,0,84.7,72.614a1.954,1.954,0,0,0,3-1.186,4.258,4.258,0,0,0-.615-3.571,2.131,2.131,0,0,0-.19-.163" transform="translate(-27.221 -22.079)" fill="#181f38"/>
            <path id="Trazado_883866" data-name="Trazado 883866" d="M122.38,67.636a7.743,7.743,0,0,1-5.047-2.971c-.834-1.069-2.318.433-1.492,1.492a9.409,9.409,0,0,0,1.053,1.131,2.375,2.375,0,0,0-.708.889c-.023.051-.042.106-.064.158l-.006.016a3.493,3.493,0,0,0,.021,2.9c0,.007.008.012.011.018a2.025,2.025,0,0,0,1.983,1.375,1.789,1.789,0,0,0,1.722-1.63,1.751,1.751,0,0,0,.208-.7,5.772,5.772,0,0,0-.027-1.106,9.473,9.473,0,0,0,1.784.464c1.328.208,1.9-1.825.561-2.035" transform="translate(-39.342 -21.882)" fill="#181f38"/>
            <path id="Trazado_883867" data-name="Trazado 883867" d="M84.748,56.106,81.21,57.161a1.267,1.267,0,0,0,.673,2.442l3.538-1.055a1.267,1.267,0,0,0-.673-2.442" transform="translate(-27.336 -19.074)" fill="#181f38"/>
            <path id="Trazado_883868" data-name="Trazado 883868" d="M122.917,56.958l-3.535-.916a1.267,1.267,0,0,0-.673,2.442l3.535.916a1.267,1.267,0,0,0,.673-2.442" transform="translate(-40.094 -19.057)" fill="#181f38"/>
            <path id="Trazado_883869" data-name="Trazado 883869" d="M103.842,72.525a2.776,2.776,0,0,0-1.447-.42c-.028,0-.053-.009-.08-.009a2.182,2.182,0,0,0-.741.117,3.459,3.459,0,0,0-.627.23,1.08,1.08,0,0,0-.463.477,1.3,1.3,0,0,0,.424,1.8c.081.04.162.073.244.1a2.194,2.194,0,0,0,1.114.373,2.229,2.229,0,0,0,.509-.029,1.624,1.624,0,0,0,.4-.065,2.066,2.066,0,0,0,1.124-.851,1.282,1.282,0,0,0-.455-1.732" transform="translate(-34.128 -24.536)" fill="#f9bcb7"/>
            <path id="Trazado_883870" data-name="Trazado 883870" d="M73.118,20.814a1.407,1.407,0,0,0-1.377-.7,1.432,1.432,0,0,0-1.26.391,6.383,6.383,0,0,0-.491.526,4.706,4.706,0,0,0-1.49,3.633c.062,1.161,1.645,2.1,2.521,1.045a9.347,9.347,0,0,0,1.692-2.957,1.514,1.514,0,0,0,.4-1.941" transform="translate(-23.311 -6.838)" fill="#212a44"/>
            <path id="Trazado_883871" data-name="Trazado 883871" d="M83.283,26.925A1.778,1.778,0,0,0,81.059,25.2a3.571,3.571,0,0,0-1.833,1.749,3.5,3.5,0,0,0-.507,2.54,2.026,2.026,0,0,0,.257.628c.009.016.013.034.022.05a1.383,1.383,0,0,0,.271.321,1.61,1.61,0,0,0,1.633.42,3.332,3.332,0,0,0,1.682-1.629,4.74,4.74,0,0,0,.282-.639,3.825,3.825,0,0,0,.418-1.711" transform="translate(-26.767 -8.554)" fill="#212a44"/>
            <path id="Trazado_883872" data-name="Trazado 883872" d="M118.019,32.84a3.8,3.8,0,0,0-.611-.95l-.025-.036c-.784-1.075-2.132-2.645-3.571-1.533-1.187.917-.709,2.4.048,3.421a3.461,3.461,0,0,0,1.561,1.252,2.629,2.629,0,0,0,2.068-.133,1.466,1.466,0,0,0,.679-.883,1.714,1.714,0,0,0-.149-1.139" transform="translate(-38.489 -10.19)" fill="#212a44"/>
            <path id="Trazado_883873" data-name="Trazado 883873" d="M127.05,24.949a3.571,3.571,0,0,0-1.811-1.225,1.488,1.488,0,0,0-1.87,1.425,3.547,3.547,0,0,0,.895,2.1,3.152,3.152,0,0,0,1.74.983,1.522,1.522,0,0,0,1.288-.265,1.418,1.418,0,0,0,.581-1.16,2.8,2.8,0,0,0-.823-1.862" transform="translate(-41.984 -8.057)" fill="#212a44"/>
            <path id="Trazado_883874" data-name="Trazado 883874" d="M135.28,15.932a1.687,1.687,0,0,0-.9.317,1.523,1.523,0,0,0-.475.6,1.329,1.329,0,0,0-.138,1.071c.015.049.036.1.051.147a2.583,2.583,0,0,0,.373,1.06,3,3,0,0,0,.535.625c.033.04.061.084.1.123a1.9,1.9,0,0,0,1.4.648,1.712,1.712,0,0,0,1.609-1.248c.345-1.416-.94-3.554-2.555-3.343" transform="translate(-45.507 -5.417)" fill="#212a44"/>
            <path id="Trazado_883875" data-name="Trazado 883875" d="M124.851,80.8a2.319,2.319,0,0,0-1.671-1.939,7.329,7.329,0,0,0-5.109.608c-1.456.722-1.6,3.352,0,4.028.184.078.367.143.551.206a1.811,1.811,0,0,0,.974.263,5.973,5.973,0,0,0,4-.589,2.193,2.193,0,0,0,.977-1.131,2.254,2.254,0,0,0,.28-1.444" transform="translate(-39.793 -26.766)" fill="#f9bcb7"/>
            <path id="Trazado_883876" data-name="Trazado 883876" d="M87.917,80.013a2.319,2.319,0,0,0-1.671-1.939,7.326,7.326,0,0,0-5.109.608c-1.456.722-1.6,3.352,0,4.028.184.078.367.143.551.206a1.811,1.811,0,0,0,.974.263,5.973,5.973,0,0,0,4-.589,2.193,2.193,0,0,0,.977-1.131,2.254,2.254,0,0,0,.28-1.444" transform="translate(-27.223 -26.498)" fill="#f9bcb7"/>
            <path id="Trazado_883877" data-name="Trazado 883877" d="M21.1,140.085a.391.391,0,0,0-.611.471c1.046,2.342-.385,3.036-1.718,4.661a2.448,2.448,0,0,0-.609,1.9c.075.953.778,1.679.985,2.58.492,2.138-1.436,2.2-2.673,3.184-1.414,1.121-1.371,2.257-.726,3.769.443,1.036.519.159.525,1.821.005,1.275-.119,1.153-.714,2.007a3.522,3.522,0,0,0-.752,2.056c-.039.93,1.53,1.178,1.659.224.288-2.125,2.912-3,1.868-5.434-.183-.426-1-1.22-1.1-1.544-.515-1.6.881-1.854,1.72-2.332a3.775,3.775,0,0,0,2.018-2.019,3.488,3.488,0,0,0-.308-2.477c-.379-.929-1.206-1.694-.563-2.876.276-.507,1.112-.814,1.476-1.309a3.418,3.418,0,0,0-.476-4.679" transform="translate(-5.04 -47.641)" fill="#12263f"/>
            <path id="Trazado_883878" data-name="Trazado 883878" d="M177.325,111.541c-.133-.394-.421-.737-.559-1.115a3.944,3.944,0,0,1,.08-2.521,4.17,4.17,0,0,0,.042-2.577c-.35-.943-1.069-1.346-1.63-2.123-.983-1.363.055-2.7-.449-4.125a2.607,2.607,0,0,0-3.424-1.631.411.411,0,0,0,0,.785c1.76.515,1.03,2.966,1.322,4.327a3.594,3.594,0,0,0,.6,1.2,5.389,5.389,0,0,1,1.267,2.415c.5,1.968.123.942-.044,2.253a4.636,4.636,0,0,0-.142,1.152c.153,1.838,2.541,3.114.451,4.975-.75.668.214,1.872,1.06,1.374a3.589,3.589,0,0,0,1.423-4.393" transform="translate(-58.229 -33.103)" fill="#12263f"/>
            <path id="Trazado_883879" data-name="Trazado 883879" d="M15.758,237.289c-2.163-1.016-.446-4.646-2.286-6.266-.808-.711-.965-.349-1.073-1.705-.093-1.17.2-1.327.6-2.282a3.794,3.794,0,0,0,.372-2.349c-.188-.767-.646-.99-1.094-1.522a3.792,3.792,0,0,0-.852-.417q.052-.723.106-1.447c.148-.422.576-.792.756-1.221a4.407,4.407,0,0,0-1.317-5.03c-.456-.44-1.147.248-.7.7,3.092,3.076-2.166,4.711-.663,7.566.494.938,2.016,1.139,2,2.36-.017,1.143-1.355,2.219-1.49,3.434a2.647,2.647,0,0,0,.616,2.11c.247.294.579.437.84.705a3.611,3.611,0,0,1,.983,2.856c.041,1.98.484,3.4,2.536,4.089.914.308,1.556-1.158.665-1.577" transform="translate(-3.177 -73.139)" fill="#12263f"/>
            <path id="Trazado_883880" data-name="Trazado 883880" d="M187.845,215.235c.178-.794.941-1.229,1.014-2.146a4.012,4.012,0,0,0-.941-2.373c-.7-1.193-1.439-.409-1.271-2.909.034-.507.394-.992.429-1.522.135-2.011-1.746-3.4-3.387-4.172a.282.282,0,0,0-.383.383c.357.685.929,1.184,1.292,1.842,1.3,2.347.506,2.023.2,3.662a3.514,3.514,0,0,0,.964,3.031c1.059,1.386.977,1.323.422,2.817a3.69,3.69,0,0,0-.422,1.234,10.582,10.582,0,0,0,.424,1.871c.2,1.717-.64,2.6-2.05,3.319-.931.477-.256,1.8.679,1.61a4.352,4.352,0,0,0,3.312-3.708c.138-1-.482-2.03-.278-2.94" transform="translate(-62.372 -68.774)" fill="#12263f"/>
          </g>
        </g>
      </g>
    </g>
  </g>
</svg>
