<svg id="Grupo_1103835" data-name="Grupo 1103835" xmlns="http://www.w3.org/2000/svg" xmlns:xlink="http://www.w3.org/1999/xlink" width="167.06" height="167.019" viewBox="0 0 167.06 167.019">
  <defs>
    <clipPath id="clip-path">
      <rect id="Rectángulo_403824" data-name="Rectángulo 403824" width="167.06" height="167.019" fill="none"/>
    </clipPath>
  </defs>
  <g id="Grupo_1103834" data-name="Grupo 1103834" clip-path="url(#clip-path)">
    <path id="Trazado_883956" data-name="Trazado 883956" d="M161.1,80.552A80.552,80.552,0,1,1,80.551,0,80.552,80.552,0,0,1,161.1,80.552" fill="#fff"/>
    <path id="Trazado_883957" data-name="Trazado 883957" d="M328.5,179.484H284.772v-4.137l16.219-18.339h28.091Z" transform="translate(-169.69 -93.558)" fill="#225fc2"/>
    <path id="Trazado_883958" data-name="Trazado 883958" d="M371.106,179.484H350.013v-4.137l16.219-18.339h4.874Z" transform="translate(-208.566 -93.558)" fill="#14448e"/>
    <path id="Trazado_883959" data-name="Trazado 883959" d="M314.6,178.366H292.566l12.615-14.215h22.037Z" transform="translate(-174.334 -97.814)" fill="#14448e"/>
    <path id="Trazado_883960" data-name="Trazado 883960" d="M315.314,178.4h-.007c-.074,0-.086-.061-.032-.136l2.511-3.464-1.063.833a.439.439,0,0,1-.238.1h-1.472c-.089,0-.1-.072-.02-.16a.478.478,0,0,1,.3-.161h1.363l1.635-1.281a.4.4,0,0,1,.255-.1c.065.008.074.064.022.135l-2.357,3.251,6.636-5.9a.437.437,0,0,1,.276-.121c.073.007.08.07.016.148l-3.768,4.672.974-.711a.422.422,0,0,1,.222-.09h1.538l1.73-1.454a.443.443,0,0,1,.261-.112c.07,0,.084.059.034.131l-2.04,2.943,3.106-2.769a.44.44,0,0,1,.268-.122c.074,0,.09.057.039.131l-.858,1.252h7.589c.089,0,.1.072.02.161a.479.479,0,0,1-.3.16h-7.722c-.077,0-.1-.055-.043-.131l.452-.66-3.121,2.782a.521.521,0,0,1-.268.122c-.074,0-.089-.057-.038-.132l2.108-3.041-1.126.947a.451.451,0,0,1-.252.112h-1.556l-1.581,1.155a.368.368,0,0,1-.251.086c-.059-.014-.059-.074,0-.146l3.426-4.247-6.4,5.7a.458.458,0,0,1-.263.122" transform="translate(-187.666 -102.131)" fill="#225fc2"/>
    <path id="Trazado_883961" data-name="Trazado 883961" d="M406.728,193.361h-.321a1.343,1.343,0,0,0-1.342-1.341h-2.857V191.7h2.857a1.665,1.665,0,0,1,1.663,1.663" transform="translate(-239.668 -114.229)" fill="#6f98e2"/>
    <path id="Trazado_883962" data-name="Trazado 883962" d="M404.277,191.745h-2.069v-1.479h2.069a.7.7,0,0,1,.7.7v.083a.7.7,0,0,1-.7.7" transform="translate(-239.668 -113.376)" fill="#de4544"/>
    <path id="Trazado_883963" data-name="Trazado 883963" d="M406.728,264.172h-.321V183a1.343,1.343,0,0,0-1.342-1.341h-2.857v-.321h2.857A1.664,1.664,0,0,1,406.728,183Z" transform="translate(-239.668 -108.058)" fill="#6f98e2"/>
    <path id="Trazado_883964" data-name="Trazado 883964" d="M404.277,181.388h-2.069v-1.479h2.069a.7.7,0,0,1,.7.7v.083a.7.7,0,0,1-.7.7" transform="translate(-239.668 -107.204)" fill="#e88c45"/>
    <rect id="Rectángulo_403820" data-name="Rectángulo 403820" width="9.178" height="4.989" transform="translate(145.178 130.889)" fill="#efbc40"/>
    <path id="Trazado_883965" data-name="Trazado 883965" d="M367.817,321.073h-7.964a.607.607,0,0,1-.607-.607v-.694a.607.607,0,0,1,.607-.607h7.964a.607.607,0,0,1,.607.607v.694a.607.607,0,0,1-.607.607" transform="translate(-214.068 -190.184)" fill="#e88c45"/>
    <path id="Trazado_883966" data-name="Trazado 883966" d="M321.564,323.293h-6.121a.666.666,0,0,1-.666-.666v-8.277a.666.666,0,0,1,.666-.666h6.121a.666.666,0,0,1,.666.666v8.277a.666.666,0,0,1-.666.666" transform="translate(-187.57 -186.919)" fill="#ff7168"/>
    <path id="Trazado_883967" data-name="Trazado 883967" d="M321.515,310.531h-6.023a.714.714,0,0,1-.714-.714v-.71a.714.714,0,0,1,.714-.714h6.023a.714.714,0,0,1,.714.714v.71a.714.714,0,0,1-.714.714" transform="translate(-187.57 -183.765)" fill="#de4544"/>
    <path id="Trazado_883968" data-name="Trazado 883968" d="M294.169,328.6h22.5v3.58H299.505Z" transform="translate(-175.29 -195.806)" fill="#225fc2"/>
    <path id="Trazado_883969" data-name="Trazado 883969" d="M371.388,328.6l-5.336,3.58H355.5V328.6Z" transform="translate(-211.833 -195.806)" fill="#225fc2"/>
    <path id="Trazado_883970" data-name="Trazado 883970" d="M307.625,217.05H276.8v-4.423h30.83Zm-30.509-.321H307.3v-3.781H277.116Z" transform="translate(-164.937 -126.7)" fill="#6f98e2"/>
    <path id="Trazado_883971" data-name="Trazado 883971" d="M374.72,217.05H352.29v-4.423h22.43Zm-22.109-.321H374.4v-3.781H352.611Z" transform="translate(-209.923 -126.7)" fill="#6f98e2"/>
    <path id="Trazado_883972" data-name="Trazado 883972" d="M279.276,288.853H276.8V222.777h2.481Zm-2.16-.321h1.839V223.1h-1.839Z" transform="translate(-164.937 -132.749)" fill="#6f98e2"/>
    <path id="Trazado_883973" data-name="Trazado 883973" d="M352.1,288.853h-2.481V222.777H352.1Zm-2.16-.321h1.839V223.1h-1.839Z" transform="translate(-208.33 -132.749)" fill="#6f98e2"/>
    <path id="Trazado_883974" data-name="Trazado 883974" d="M404.135,288.853h-2.481V222.777h2.481Zm-2.16-.321h1.839V223.1h-1.839Z" transform="translate(-239.338 -132.749)" fill="#6f98e2"/>
    <path id="Trazado_883975" data-name="Trazado 883975" d="M309.73,340.377H282.14v-3.235h27.59Zm-27.268-.321h26.947v-2.592H282.461Z" transform="translate(-168.122 -200.897)" fill="#6f98e2"/>
    <path id="Trazado_883976" data-name="Trazado 883976" d="M374.151,340.377h-19.19v-3.235h19.19Zm-18.869-.321H373.83v-2.592H355.282Z" transform="translate(-211.515 -200.897)" fill="#6f98e2"/>
    <path id="Trazado_883977" data-name="Trazado 883977" d="M307.361,79.276h-34.65a2.02,2.02,0,0,1-2.02-2.019V42.606a2.02,2.02,0,0,1,2.02-2.019h34.65a2.019,2.019,0,0,1,2.019,2.019v34.65a2.019,2.019,0,0,1-2.019,2.019" transform="translate(-161.3 -24.185)" fill="#6f98e2"/>
    <rect id="Rectángulo_403821" data-name="Rectángulo 403821" width="34.939" height="34.939" transform="translate(111.267 18.277)" fill="#acc7ff"/>
    <path id="Trazado_883978" data-name="Trazado 883978" d="M336.137,80.467a.161.161,0,0,1-.156-.124,52.541,52.541,0,0,1-1.068-9.641c-.034-.782-.022-1.569-.011-2.331l.006-.433a5.706,5.706,0,0,0-2.31-4.356,6.834,6.834,0,0,0-2.208-1.238c-.288-.093-.576-.177-.862-.259a9.2,9.2,0,0,1-2.567-1.036,3.982,3.982,0,0,1-1.91-2.212.16.16,0,1,1,.313-.071,3.7,3.7,0,0,0,1.773,2.014,8.838,8.838,0,0,0,2.48,1c.289.083.58.167.872.262a7.148,7.148,0,0,1,2.313,1.3,6.02,6.02,0,0,1,2.428,4.608l-.006.434c-.011.757-.023,1.54.011,2.313a52.267,52.267,0,0,0,1.06,9.582.161.161,0,0,1-.12.193.165.165,0,0,1-.037,0" transform="translate(-193.688 -34.943)" fill="#225fc2"/>
    <path id="Trazado_883979" data-name="Trazado 883979" d="M335.175,101.873h-.011a.161.161,0,0,1-.149-.171c.3-4.554,1.158-10.748,1.167-10.809a.161.161,0,0,1,.159-.139h0a.161.161,0,0,1,.158.142c.008.074.864,7.346,1.637,8.713a.16.16,0,1,1-.279.158c-.61-1.079-1.238-5.424-1.522-7.6-.265,2.044-.779,6.235-1,9.552a.16.16,0,0,1-.16.15" transform="translate(-199.629 -54.079)" fill="#225fc2"/>
    <path id="Trazado_883980" data-name="Trazado 883980" d="M297.31,101.873a.16.16,0,0,1-.16-.15c-.221-3.317-.736-7.508-1-9.552-.284,2.171-.912,6.517-1.522,7.6a.16.16,0,1,1-.279-.158c.772-1.367,1.628-8.64,1.637-8.713a.161.161,0,0,1,.158-.142h0a.16.16,0,0,1,.159.139c.009.062.864,6.255,1.167,10.809a.161.161,0,0,1-.149.171h-.011" transform="translate(-175.384 -54.079)" fill="#225fc2"/>
    <path id="Trazado_883981" data-name="Trazado 883981" d="M284.391,80.467a.165.165,0,0,1-.037,0,.161.161,0,0,1-.12-.193,52.269,52.269,0,0,0,1.06-9.582c.034-.765.022-1.54.011-2.29l-.006-.457a6.02,6.02,0,0,1,2.428-4.608,7.139,7.139,0,0,1,2.313-1.3c.291-.095.582-.179.872-.262a8.839,8.839,0,0,0,2.48-1,3.7,3.7,0,0,0,1.772-2.014.159.159,0,0,1,.192-.122.161.161,0,0,1,.121.192,3.979,3.979,0,0,1-1.909,2.212A9.2,9.2,0,0,1,291,62.084c-.286.082-.573.166-.862.259a6.832,6.832,0,0,0-2.208,1.238,5.706,5.706,0,0,0-2.31,4.356l.006.456c.011.754.022,1.535-.011,2.308a52.576,52.576,0,0,1-1.068,9.641.161.161,0,0,1-.156.124" transform="translate(-169.368 -34.943)" fill="#225fc2"/>
    <path id="Trazado_883982" data-name="Trazado 883982" d="M321.382,87.324a2.385,2.385,0,1,1,2.384-2.384,2.387,2.387,0,0,1-2.384,2.384m0-4.448a2.063,2.063,0,1,0,2.063,2.063,2.066,2.066,0,0,0-2.063-2.063" transform="translate(-190.084 -49.193)" fill="#225fc2"/>
    <path id="Trazado_883983" data-name="Trazado 883983" d="M324.326,86.678a1.205,1.205,0,1,1-1.205-1.205,1.205,1.205,0,0,1,1.205,1.205" transform="translate(-191.824 -50.932)" fill="#225fc2"/>
    <path id="Trazado_883984" data-name="Trazado 883984" d="M324.661,70.85a.15.15,0,0,1-.04-.005.16.16,0,0,1-.116-.2l3.035-11.888a.161.161,0,0,1,.156-.121H335.4a.161.161,0,1,1,0,.321H327.82l-3,11.767a.161.161,0,0,1-.156.121" transform="translate(-193.364 -34.943)" fill="#225fc2"/>
    <rect id="Rectángulo_403822" data-name="Rectángulo 403822" width="7.65" height="0.912" transform="translate(134.391 21.64)" fill="#14448e"/>
    <path id="Trazado_883989" data-name="Trazado 883989" d="M222.79,288.967h2.481v50.242H222.79Zm2.16.321h-1.839v49.6h1.839Z" transform="translate(-132.756 -172.19)" fill="#6f98e2"/>
    <path id="Trazado_883990" data-name="Trazado 883990" d="M265.844,288.967h2.481v50.242h-2.481Zm2.16.321h-1.839v49.6H268Z" transform="translate(-158.411 -172.19)" fill="#6f98e2"/>
    <path id="Trazado_883991" data-name="Trazado 883991" d="M179.736,288.967h2.481v50.242h-2.481Zm2.16.321h-1.839v49.6H181.9Z" transform="translate(-107.101 -172.19)" fill="#6f98e2"/>
    <path id="Trazado_883992" data-name="Trazado 883992" d="M228.135,387.564H243.7v2.377h-15.56Zm15.239.321H228.456v1.735h14.918Z" transform="translate(-135.941 -230.942)" fill="#6f98e2"/>
    <path id="Trazado_883993" data-name="Trazado 883993" d="M185.081,387.564h15.56v2.377h-15.56Zm15.239.321H185.4v1.735H200.32Z" transform="translate(-110.286 -230.942)" fill="#6f98e2"/>
    <path id="Trazado_883994" data-name="Trazado 883994" d="M177.448,279.6h34.842a3.6,3.6,0,0,0,3.6-3.6v-1.72a3.6,3.6,0,0,0-3.6-3.6H177.448a3.6,3.6,0,0,0-3.6,3.6v1.72a3.6,3.6,0,0,0,3.6,3.6" transform="translate(-103.595 -161.3)" fill="#de4544"/>
    <path id="Trazado_883995" data-name="Trazado 883995" d="M194.283,151.406s-9.81,11.539-10.3,45.495h3.989s.752-20.775,7.5-33.425Z" transform="translate(-109.635 -90.22)" fill="#e89787"/>
    <path id="Trazado_883996" data-name="Trazado 883996" d="M197.1,157.83s-6.542,8.382-8.157,27.621l-4.96,1.4s.284-33.248,13.335-43.887Z" transform="translate(-109.635 -85.193)" fill="#efbc40"/>
    <path id="Trazado_883997" data-name="Trazado 883997" d="M143.062,360.019c-3.583,2.764-9.745,2.041-9.609,5.355a59.272,59.272,0,0,0,14.89-.716,8.184,8.184,0,0,0,.219-4.9Z" transform="translate(-79.521 -214.371)" fill="#1e4678"/>
    <path id="Trazado_883998" data-name="Trazado 883998" d="M168.919,242.756l11.525.044.1,2.2a10.472,10.472,0,0,1-9.775,10.9q-12.69.837-22.555,1.724c2.116,25.22,3.51,32.413,3.51,32.413a4.856,4.856,0,0,1-5.5.265c-1.808-7.538-5.007-22.7-7.294-33.25a7.11,7.11,0,0,1,5.367-8.438c13.258-3.03,24.642-5.608,24.627-5.859" transform="translate(-82.686 -144.654)" fill="#0e2e58"/>
    <path id="Trazado_883999" data-name="Trazado 883999" d="M169.3,360.188c-3.5,2.873-9.678,2.339-9.44,5.647a59.244,59.244,0,0,0,14.861-1.173,8.182,8.182,0,0,0,.069-4.907Z" transform="translate(-95.255 -214.371)" fill="#1e4678"/>
    <path id="Trazado_884000" data-name="Trazado 884000" d="M196.748,243.393l9.677-.527.1,2.2a10.471,10.471,0,0,1-9.774,10.9q-12.69.837-22.555,1.724c2.116,25.22,3.51,32.412,3.51,32.412-1.828,1.2-3.647,1.514-5.486.434-1.808-7.538-5.022-22.871-7.309-33.418a7.11,7.11,0,0,1,5.367-8.438c13.258-3.031,26.49-5.037,26.475-5.287" transform="translate(-98.168 -144.719)" fill="#14448e"/>
    <path id="Trazado_884001" data-name="Trazado 884001" d="M263.5,151.406s9.81,11.539,10.3,45.495H269.8s-.752-20.775-7.5-33.425Z" transform="translate(-156.303 -90.22)" fill="#e89787"/>
    <path id="Trazado_884002" data-name="Trazado 884002" d="M277.606,266.393c-.007.3-.063.738.241.93a.555.555,0,0,0,.783-.3,9.721,9.721,0,0,0,.384-1.253l.124-.412a8.151,8.151,0,0,1,.081,2.639,7.962,7.962,0,0,1-.408,1.666c-.15.412-.353.913.027,1.279a.611.611,0,0,0,.653.13.769.769,0,0,0,.773.025,1.091,1.091,0,0,0,.2-.138.225.225,0,0,0,.288.1,1.967,1.967,0,0,0,.905-.75.235.235,0,0,0,.241-.065,6.806,6.806,0,0,0,1.792-5.325,5.2,5.2,0,0,0-.943-2.705c-.739-.9-1.957-.794-2.994-.62a.254.254,0,0,0-.074.028.225.225,0,0,0-.344.015,8.013,8.013,0,0,0-1.726,4.757" transform="translate(-165.415 -155.809)" fill="#e89787"/>
    <path id="Trazado_884003" data-name="Trazado 884003" d="M282.276,278.2a.1.1,0,0,0,.1-.055,9.713,9.713,0,0,0,.9-4.455.1.1,0,0,0-.1-.093.1.1,0,0,0-.094.1,9.515,9.515,0,0,1-.884,4.364.1.1,0,0,0,.046.129.091.091,0,0,0,.026.008" transform="translate(-168.154 -163.032)" fill="#c16b5b"/>
    <path id="Trazado_884004" data-name="Trazado 884004" d="M284.8,278.076a.1.1,0,0,0,.1-.055,8.048,8.048,0,0,0,.738-4.147.1.1,0,1,0-.194.018,7.853,7.853,0,0,1-.72,4.046.1.1,0,0,0,.047.129.085.085,0,0,0,.025.008" transform="translate(-169.661 -163.144)" fill="#c16b5b"/>
    <path id="Trazado_884005" data-name="Trazado 884005" d="M287.8,277.4a.1.1,0,0,0,.1-.067,9.474,9.474,0,0,0,.463-3.4.1.1,0,0,0-.1-.093.1.1,0,0,0-.093.1,9.268,9.268,0,0,1-.453,3.326.1.1,0,0,0,.062.122.086.086,0,0,0,.022,0" transform="translate(-171.44 -163.179)" fill="#c16b5b"/>
    <path id="Trazado_884006" data-name="Trazado 884006" d="M257.765,142.969s11.5,7.5,13.737,44.174l-5.047.642s-2.008-18.669-8.243-29.948Z" transform="translate(-153.597 -85.193)" fill="#efbc40"/>
    <path id="Trazado_884007" data-name="Trazado 884007" d="M278.633,251.6l4.714-.491a.859.859,0,0,1,.856.857.88.88,0,0,1-.856.856l-4.714.491a.859.859,0,0,1-.856-.857.88.88,0,0,1,.856-.856" transform="translate(-165.522 -149.632)" fill="#e88c45"/>
    <path id="Trazado_884008" data-name="Trazado 884008" d="M216.523,138.5a15.6,15.6,0,0,0-5.537,1.806s-2.715,22.777-4.069,41.081c5.223,4.62,24.749.921,24.749.921-1.036-21.552-4.2-42-4.2-42a18.052,18.052,0,0,0-5.5-1.806Z" transform="translate(-123.297 -82.53)" fill="#efbc40"/>
    <path id="Trazado_884009" data-name="Trazado 884009" d="M220.974,134.692c-.346-.3-.727-.7-.609-1.132a.885.885,0,0,1,.769-.565,2.954,2.954,0,0,1,1.015.116,22.43,22.43,0,0,0,9.688.039A4.083,4.083,0,0,1,233.2,133a1.182,1.182,0,0,1,1.031.755,1.642,1.642,0,0,1-.547,1.366,17.9,17.9,0,0,1-3.009,3.078,6.327,6.327,0,0,1-4.076,1.361,3.733,3.733,0,0,1-3.168-1.963,7.973,7.973,0,0,0-2.456-2.9" transform="translate(-131.298 -79.242)" fill="#efbc40"/>
    <path id="Trazado_884010" data-name="Trazado 884010" d="M238.284,145.41a2.23,2.23,0,0,0,.538-.067,3.949,3.949,0,0,0,1.519-.854,11.231,11.231,0,0,0,2.051-2.209.161.161,0,0,0-.263-.184,10.916,10.916,0,0,1-1.992,2.145,3.657,3.657,0,0,1-1.393.791,1.563,1.563,0,0,1-1.443-.3.16.16,0,1,0-.23.224,1.689,1.689,0,0,0,1.212.456" transform="translate(-141.239 -84.631)" fill="#e88c45"/>
    <path id="Trazado_884011" data-name="Trazado 884011" d="M228.546,144.827a1.306,1.306,0,0,0,1.043-.482.161.161,0,1,0-.25-.2,1.156,1.156,0,0,1-1.461.183,3.344,3.344,0,0,1-1.155-1.389c-.08-.152-.156-.307-.233-.462a7.725,7.725,0,0,0-.734-1.273.161.161,0,1,0-.255.195,7.443,7.443,0,0,1,.7,1.22c.078.157.156.314.237.468a3.628,3.628,0,0,0,1.279,1.518,1.691,1.691,0,0,0,.828.221" transform="translate(-134.351 -84.103)" fill="#e88c45"/>
    <path id="Trazado_884012" data-name="Trazado 884012" d="M240.1,163.026a.161.161,0,0,0,.16-.15,123.43,123.43,0,0,0,.1-14.585.163.163,0,0,0-.169-.152.161.161,0,0,0-.152.169,123.033,123.033,0,0,1-.1,14.547.161.161,0,0,0,.15.171h.011" transform="translate(-142.974 -88.272)" fill="#fff"/>
    <path id="Trazado_884013" data-name="Trazado 884013" d="M229.86,162.772h0a.161.161,0,0,0,.158-.163,124.014,124.014,0,0,1,.647-14.945.161.161,0,1,0-.319-.034,124.335,124.335,0,0,0-.648,14.984.16.16,0,0,0,.16.158" transform="translate(-136.863 -87.884)" fill="#fff"/>
    <path id="Trazado_884014" data-name="Trazado 884014" d="M213.233,81.117a7.766,7.766,0,0,1,6.271-3.224,9.129,9.129,0,0,1,6.359,2.607,1.927,1.927,0,0,1-.006-.719.747.747,0,0,1,.468-.548.879.879,0,0,1,.868.369,3.109,3.109,0,0,1,.8,2.1,3.319,3.319,0,0,1,2.237.055,1.577,1.577,0,0,1,.792.6.866.866,0,0,1-.031.965,1.344,1.344,0,0,1-1.256.347,3.307,3.307,0,0,0-1.327-.094,2.876,2.876,0,0,1,1.621,2.064,7.225,7.225,0,0,1-.026,2.75,14.553,14.553,0,0,1-1.755,5.288c-.975,1.628-2.6,3.683-4.491,3.717-1.022.019-1.561-.824-1.984-1.574-1.939-3.436-6.408-4.507-8.4-7.929a6.6,6.6,0,0,1-.145-6.779" transform="translate(-126.541 -46.415)" fill="#0e2e58"/>
    <path id="Trazado_884015" data-name="Trazado 884015" d="M227.6,88.055c-2.457-4.5-11.1-2.966-11.771.614-1.382,7.365-.333,10.389,1.714,12.129,2.369,2.014,3.915,1.757,3.915,5.988a2.953,2.953,0,0,0,5.442,0,25.5,25.5,0,0,1,1.855-9.851s-.143-7.023-1.155-8.88" transform="translate(-128.237 -50.816)" fill="#e89787"/>
    <path id="Trazado_884016" data-name="Trazado 884016" d="M226.626,88.259c-1.484,2.139-4.47,1.646-4.47,1.646l1.723-1.484s-4.265,2.525-8.668,1.65c0,0-.646-1.616,1.333-4.311,1.266-1.724,4.947-2.15,8.086-1.57s4.5,1.945,4.606,4.2.331,5.064.331,5.064l-1.218.929c-1.911-1.275-1.723-6.121-1.723-6.121" transform="translate(-128.18 -50.022)" fill="#0e2e58"/>
    <path id="Trazado_884017" data-name="Trazado 884017" d="M231.188,108.514a.554.554,0,1,1-.554-.554.554.554,0,0,1,.554.554" transform="translate(-137.1 -64.331)"/>
    <path id="Trazado_884018" data-name="Trazado 884018" d="M230.853,108.657a.2.2,0,1,1-.2-.2.2.2,0,0,1,.2.2" transform="translate(-137.319 -64.626)" fill="#fff"/>
    <path id="Trazado_884019" data-name="Trazado 884019" d="M220.582,108.514a.554.554,0,1,1-.554-.554.554.554,0,0,1,.554.554" transform="translate(-130.78 -64.331)"/>
    <path id="Trazado_884020" data-name="Trazado 884020" d="M220.247,108.657a.2.2,0,1,1-.2-.2.2.2,0,0,1,.2.2" transform="translate(-130.999 -64.626)" fill="#fff"/>
    <path id="Trazado_884021" data-name="Trazado 884021" d="M219.647,103.46a1.813,1.813,0,0,0-2.256.111.365.365,0,0,0-.051.458.265.265,0,0,0,.4.059,1.3,1.3,0,0,1,.947-.313,1.328,1.328,0,0,1,.492.135c.138.069.272.188.427.1a.289.289,0,0,0,.094-.09.362.362,0,0,0-.052-.458" transform="translate(-129.474 -61.447)" fill="#0e2e58"/>
    <path id="Trazado_884022" data-name="Trazado 884022" d="M228.294,103.46a2.32,2.32,0,0,1,2.587.111.327.327,0,1,1-.4.516,1.628,1.628,0,0,0-1.085-.308,1.756,1.756,0,0,0-.565.133c-.158.066-.313.184-.489.1a.313.313,0,0,1-.108-.09.329.329,0,0,1,.06-.458" transform="translate(-135.962 -61.447)" fill="#0e2e58"/>
    <path id="Trazado_884023" data-name="Trazado 884023" d="M224.027,115.375a1.961,1.961,0,0,1-.92-.226.289.289,0,1,1,.269-.512,1.519,1.519,0,0,0,1.783-.331.29.29,0,0,1,.468.341,2.074,2.074,0,0,1-1.6.728" transform="translate(-132.853 -68.042)" fill="#c16b5b"/>
    <path id="Trazado_884024" data-name="Trazado 884024" d="M223.741,111.932a.073.073,0,0,1-.07-.052c-.137-.472.023-.633.182-.685a.7.7,0,0,1,.574.125.072.072,0,1,1-.076.123.564.564,0,0,0-.453-.111c-.143.046-.172.216-.088.506a.072.072,0,0,1-.049.09.07.07,0,0,1-.02,0" transform="translate(-133.251 -66.246)" fill="#c16b5b"/>
    <path id="Trazado_884025" data-name="Trazado 884025" d="M248.839,110.12a1.7,1.7,0,1,1,.072-2.664,1.91,1.91,0,0,1-.072,2.664" transform="translate(-146.422 -63.839)" fill="#e89787"/>
    <path id="Trazado_884026" data-name="Trazado 884026" d="M249.832,108.825a1.278,1.278,0,0,0-1.123.022,1.045,1.045,0,0,0-.429.334.634.634,0,0,0-.091.586.9.9,0,0,0,.308.364.854.854,0,0,1,.207.209.325.325,0,0,1-.417.459.145.145,0,0,0-.122.263.6.6,0,0,0,.252.055.613.613,0,0,0,.538-.923,1.112,1.112,0,0,0-.274-.287.663.663,0,0,1-.221-.243.349.349,0,0,1,.057-.314.292.292,0,0,1,.525.032.517.517,0,0,1,.126.424.145.145,0,0,0,.119.166l.024,0a.145.145,0,0,0,.143-.121.8.8,0,0,0-.2-.667.666.666,0,0,0-.217-.148.91.91,0,0,1,.659.045.559.559,0,0,1,.281.68.145.145,0,0,0,.263.122.847.847,0,0,0-.409-1.058" transform="translate(-147.826 -64.775)" fill="#c16b5b"/>
    <path id="Trazado_884027" data-name="Trazado 884027" d="M261.038,139.167a9.953,9.953,0,0,0-.018-13.562,8.786,8.786,0,0,0-12.879.019,9.968,9.968,0,0,0-.992,12.286l-2.215,4.681,4.439-2.346a8.763,8.763,0,0,0,11.665-1.079" transform="translate(-145.951 -73.178)" fill="#fffeff"/>
    <path id="Trazado_884028" data-name="Trazado 884028" d="M266.005,139.709a3.173,3.173,0,0,0-3.088-3.252,3.042,3.042,0,0,0-2.537,1.4,3.043,3.043,0,0,0-2.537-1.4,3.173,3.173,0,0,0-3.088,3.252,3.316,3.316,0,0,0,1.061,2.449l0,0,4.566,4.331,4.566-4.331,0,0a3.315,3.315,0,0,0,1.062-2.449" transform="translate(-151.804 -81.312)" fill="#de4544"/>
    <path id="Trazado_884029" data-name="Trazado 884029" d="M51.077,224.86l13.413.365,12.876.205s-3.164,25.631-7.549,69.987c-1.834,1.11-2.6,1.039-4.434-.135,0,0-1.57-21.489-.023-30.029-.242-9.022-.811-17.866-.508-28.508-.465-.016-5.482,31.458-9.888,58.671-1.813,1.123-2.579,1.028-4.436-.133a120.113,120.113,0,0,1,1.2-29.781c.36-14.241-2.08-25.787-.655-40.641" transform="translate(-29.856 -133.99)" fill="#345783"/>
    <path id="Trazado_884030" data-name="Trazado 884030" d="M87.855,404.016a48.886,48.886,0,0,0,13.831.368c.043-2.308-2.921-2.591-5.953-3.452a11.679,11.679,0,0,1-3.777-1.679l-4.436-.133a.334.334,0,0,0-.021.069,8.26,8.26,0,0,0,.356,4.826" transform="translate(-51.995 -237.829)"/>
    <path id="Trazado_884031" data-name="Trazado 884031" d="M87.857,399.19c8.406,4.5,8.153,1.871,8.234,1.743a11.671,11.671,0,0,1-3.777-1.679l-4.436-.133a.33.33,0,0,0-.021.068" transform="translate(-52.352 -237.829)" fill="#e7ac8d"/>
    <path id="Trazado_884032" data-name="Trazado 884032" d="M51.1,404.016a48.886,48.886,0,0,0,13.831.368c.043-2.308-2.921-2.591-5.953-3.452a11.673,11.673,0,0,1-3.777-1.679l-4.436-.133a.311.311,0,0,0-.022.069,8.26,8.26,0,0,0,.356,4.826" transform="translate(-30.093 -237.829)"/>
    <path id="Trazado_884033" data-name="Trazado 884033" d="M51.1,399.19c8.406,4.5,8.153,1.871,8.234,1.743a11.672,11.672,0,0,1-3.777-1.679l-4.436-.133a.33.33,0,0,0-.021.068" transform="translate(-30.45 -237.829)" fill="#e7ac8d"/>
    <path id="Trazado_884034" data-name="Trazado 884034" d="M52.526,163.283l-.021-.009.024-.036a23.941,23.941,0,0,1,.478-3.035c.426-1.97,3.105-7.088,4.109-14.7a34.928,34.928,0,0,0-.04-6.695c-.254-3.148-.676-5.893-.681-5.922h0c.41-5.561.622-9.513.551-9.54,1.2-1.08,3.809-1.722,5.981-1.717h.33a29.038,29.038,0,0,1,6.332.127c.447.066.9.145,1.336.241l1.347.346a4.965,4.965,0,0,1,2.1,1c.485.7.771,2.876,1.058,6.552,1.1,2.172,2.375,5.711.6,8.812v0h0a7.055,7.055,0,0,1-.832,1.162s-.045.259-.107.706a33.478,33.478,0,0,0-.314,7.159c.308,3.126,3.349,9.884,4.039,15.572v0h0c0,.005,0,.011,0,.016a1.892,1.892,0,0,1-1.457,2,44.664,44.664,0,0,1-23.349.206,1.919,1.919,0,0,1-1.5-1.95c.006-.095.014-.194.022-.3" transform="translate(-31.284 -72.404)" fill="#d4a99c"/>
    <path id="Trazado_884035" data-name="Trazado 884035" d="M94.787,122.114s3.951,36.619,2.923,60.8a9.8,9.8,0,0,0,7.153-3.9s.64-14.578-.841-18.208-4-12.134-3.789-13.888.544-6.647.544-6.647,3.789-3.979-.152-10.022c0,0-.1-5.308-1.058-6.552s-4.781-1.59-4.781-1.59" transform="translate(-56.482 -72.765)" fill="#e1d2c8"/>
    <path id="Trazado_884036" data-name="Trazado 884036" d="M59.439,121.881s2.59,41.7-1.977,60.9a21.231,21.231,0,0,1-9.317-4.733s.365-10.883,1.1-15.16,4.892-12.6,5.1-16.6-.546-13.181-.546-13.181l.551-9.54c1.071-1.053,3.124-1.589,5.089-1.684" transform="translate(-28.689 -72.627)" fill="#e1d2c8"/>
    <path id="Trazado_884037" data-name="Trazado 884037" d="M41.061,134.413s-9.809,11.539-10.3,45.495h3.721s1.021-20.775,7.766-33.425Z" transform="translate(-18.333 -80.094)" fill="#e89787"/>
    <path id="Trazado_884038" data-name="Trazado 884038" d="M32.836,245.273a.225.225,0,0,0-.344-.014.251.251,0,0,0-.074-.028c-1.037-.174-2.255-.278-2.994.62a5.19,5.19,0,0,0-.943,2.7,6.806,6.806,0,0,0,1.792,5.325.236.236,0,0,0,.241.066,1.966,1.966,0,0,0,.905.75.225.225,0,0,0,.288-.1,1.107,1.107,0,0,0,.2.138.769.769,0,0,0,.773-.025.611.611,0,0,0,.653-.13c.381-.366.177-.867.027-1.278a7.974,7.974,0,0,1-.408-1.666,8.152,8.152,0,0,1,.08-2.639l.124.412a9.693,9.693,0,0,0,.383,1.253.555.555,0,0,0,.783.3c.3-.192.248-.635.241-.93a8.016,8.016,0,0,0-1.726-4.757" transform="translate(-16.951 -146.059)" fill="#e89787"/>
    <path id="Trazado_884039" data-name="Trazado 884039" d="M37.307,261.838a.1.1,0,0,1-.1-.055,9.714,9.714,0,0,1-.9-4.455.1.1,0,0,1,.1-.093.1.1,0,0,1,.094.1,9.515,9.515,0,0,0,.884,4.365.1.1,0,0,1-.047.129.087.087,0,0,1-.025.008" transform="translate(-21.627 -153.281)" fill="#c16b5b"/>
    <path id="Trazado_884040" data-name="Trazado 884040" d="M34.985,261.713a.1.1,0,0,1-.1-.055,8.048,8.048,0,0,1-.738-4.147.1.1,0,1,1,.194.018,7.852,7.852,0,0,0,.72,4.046.1.1,0,0,1-.047.129.085.085,0,0,1-.025.008" transform="translate(-20.327 -153.394)" fill="#c16b5b"/>
    <path id="Trazado_884041" data-name="Trazado 884041" d="M32.422,261.037a.1.1,0,0,1-.1-.067,9.474,9.474,0,0,1-.463-3.395.1.1,0,0,1,.1-.093.1.1,0,0,1,.093.1,9.282,9.282,0,0,0,.454,3.325.1.1,0,0,1-.062.123.083.083,0,0,1-.022,0" transform="translate(-18.978 -153.429)" fill="#c16b5b"/>
    <path id="Trazado_884042" data-name="Trazado 884042" d="M29.792,172.186h5.354S35,153.8,43.8,138.4l-.385-12.354c-10.735,9.678-11.741,26.35-13.622,46.137" transform="translate(-17.752 -75.11)" fill="#e1d2c8"/>
    <path id="Trazado_884043" data-name="Trazado 884043" d="M111.07,142.216a8.51,8.51,0,0,0-1.037-6.112,4.533,4.533,0,0,0-.417-.537l5.054,1.442a60,60,0,0,0,12.383,10.458c9.6,1.393,23.579.537,23.579.537l.258,3.981c-6.462.326-18.257.595-24.352.339a6.731,6.731,0,0,1-3.136-.932,84.039,84.039,0,0,1-12.456-8.82,1.594,1.594,0,0,0,.123-.356" transform="translate(-65.318 -80.782)" fill="#e89787"/>
    <path id="Trazado_884044" data-name="Trazado 884044" d="M214.646,164.248a2.134,2.134,0,1,0-.259-2.841,2.023,2.023,0,0,0,.259,2.841" transform="translate(-127.476 -95.639)" fill="#14448e"/>
    <path id="Trazado_884045" data-name="Trazado 884045" d="M208.34,162.95a7.687,7.687,0,0,0,3.091-3.05c.145-.257.4-.621.227-.934a.555.555,0,0,0-.834-.1,9.73,9.73,0,0,0-.93.923l-.3.3a8.136,8.136,0,0,1,1.177-2.364,8.006,8.006,0,0,1,1.146-1.275c.327-.292.743-.637.58-1.14a.611.611,0,0,0-.514-.423.77.77,0,0,0-.67-.388,1.092,1.092,0,0,0-.24.028.224.224,0,0,0-.2-.228,1.966,1.966,0,0,0-1.153.233.235.235,0,0,0-.243-.056,6.8,6.8,0,0,0-4.1,3.845,5.2,5.2,0,0,0-.447,2.829,2.25,2.25,0,0,0,1.208,1.485,2.843,2.843,0,0,0,1.518.494,1.8,1.8,0,0,0,.686-.183" transform="translate(-122.078 -91.938)" fill="#e89787"/>
    <path id="Trazado_884046" data-name="Trazado 884046" d="M217.793,155.888a.1.1,0,0,0-.117,0,9.7,9.7,0,0,0-2.9,3.5.1.1,0,0,0,.044.131.1.1,0,0,0,.131-.045,9.512,9.512,0,0,1,2.842-3.428.1.1,0,0,0,.02-.136.1.1,0,0,0-.019-.019" transform="translate(-127.975 -92.879)" fill="#c16b5b"/>
    <path id="Trazado_884047" data-name="Trazado 884047" d="M215.718,155.21a.1.1,0,0,0-.117,0,8.041,8.041,0,0,0-2.61,3.305.1.1,0,1,0,.179.076,7.851,7.851,0,0,1,2.547-3.225.1.1,0,0,0,0-.155" transform="translate(-126.912 -92.475)" fill="#c16b5b"/>
    <path id="Trazado_884048" data-name="Trazado 884048" d="M213.111,155.347a.1.1,0,0,0-.12.011,9.465,9.465,0,0,0-2.013,2.773.1.1,0,0,0,.046.13.1.1,0,0,0,.13-.046,9.274,9.274,0,0,1,1.972-2.716.1.1,0,0,0,0-.137.1.1,0,0,0-.017-.014" transform="translate(-125.712 -92.559)" fill="#c16b5b"/>
    <path id="Trazado_884049" data-name="Trazado 884049" d="M144.443,146.063V140.9s-15.392.7-19.966-.528c0,0-15.708-14.72-20.264-15.81l2.124,11.936s12.423,8.58,15.237,9.569,22.868,0,22.868,0" transform="translate(-62.099 -74.222)" fill="#e1d2c8"/>
    <path id="Trazado_884050" data-name="Trazado 884050" d="M58.924,83.646l16.642-.034a4.636,4.636,0,0,0,4.152-6.7,11.46,11.46,0,0,0-1.59-2.369A6.466,6.466,0,0,0,76.552,67.9a8.237,8.237,0,0,0-5.534-6.765,7.85,7.85,0,0,0-8.206,2.521c-1.209.094-4.552,1.757-4.211,4.855a6.234,6.234,0,0,0-2.718,7q-.108.087-.216.188a4.63,4.63,0,0,0,3.258,7.954" transform="translate(-32.312 -36.237)" fill="#0e2e58"/>
    <path id="Trazado_884051" data-name="Trazado 884051" d="M73.905,71.061c2.457-4.5,11.1-2.966,11.771.614,1.382,7.365.333,10.389-1.714,12.129-2.369,2.014-3.915,1.758-3.915,5.988a2.953,2.953,0,0,1-5.442,0,25.5,25.5,0,0,0-1.855-9.852s.143-7.023,1.155-8.88" transform="translate(-43.35 -40.689)" fill="#e89787"/>
    <path id="Trazado_884052" data-name="Trazado 884052" d="M73.552,71.266s.188,4.846-1.723,6.121l-1.218-.929s.229-2.812.331-5.064,1.467-3.617,4.606-4.2,6.82-.155,8.086,1.57c1.979,2.7,1.333,4.311,1.333,4.311-1.632,0-3.282.036-4.575-.959a9.84,9.84,0,0,1-6.839-.853" transform="translate(-42.076 -39.896)" fill="#0e2e58"/>
    <path id="Trazado_884053" data-name="Trazado 884053" d="M88.673,91.521a.554.554,0,1,0,.554-.554.554.554,0,0,0-.554.554" transform="translate(-52.839 -54.206)"/>
    <path id="Trazado_884054" data-name="Trazado 884054" d="M90.044,91.664a.2.2,0,1,0,.2-.2.2.2,0,0,0-.2.2" transform="translate(-53.656 -54.5)" fill="#fff"/>
    <path id="Trazado_884055" data-name="Trazado 884055" d="M99.278,91.521a.554.554,0,1,0,.554-.554.554.554,0,0,0-.554.554" transform="translate(-59.158 -54.206)"/>
    <path id="Trazado_884056" data-name="Trazado 884056" d="M100.649,91.664a.2.2,0,1,0,.2-.2.2.2,0,0,0-.2.2" transform="translate(-59.975 -54.5)" fill="#fff"/>
    <path id="Trazado_884057" data-name="Trazado 884057" d="M98.2,86.466a1.813,1.813,0,0,1,2.256.111.365.365,0,0,1,.051.458.265.265,0,0,1-.4.059,1.3,1.3,0,0,0-.947-.313,1.328,1.328,0,0,0-.492.135c-.138.069-.272.188-.427.1a.289.289,0,0,1-.094-.09.362.362,0,0,1,.052-.458" transform="translate(-58.45 -51.321)" fill="#0e2e58"/>
    <path id="Trazado_884058" data-name="Trazado 884058" d="M89.017,86.466a2.32,2.32,0,0,0-2.587.111.327.327,0,1,0,.4.516,1.628,1.628,0,0,1,1.085-.308,1.756,1.756,0,0,1,.565.133c.158.066.313.184.489.1a.313.313,0,0,0,.107-.09.329.329,0,0,0-.06-.458" transform="translate(-51.428 -51.321)" fill="#0e2e58"/>
    <path id="Trazado_884059" data-name="Trazado 884059" d="M93.44,98.381a1.96,1.96,0,0,0,.92-.226.289.289,0,0,0-.269-.512,1.52,1.52,0,0,1-1.784-.331.289.289,0,1,0-.468.341,2.072,2.072,0,0,0,1.6.728" transform="translate(-54.692 -57.916)" fill="#c16b5b"/>
    <path id="Trazado_884060" data-name="Trazado 884060" d="M96.511,94.938a.072.072,0,0,0,.07-.052c.137-.472-.023-.633-.182-.685a.7.7,0,0,0-.574.125.073.073,0,1,0,.076.123.562.562,0,0,1,.453-.111c.143.046.172.216.088.506a.073.073,0,0,0,.049.09.07.07,0,0,0,.02,0" transform="translate(-57.08 -56.12)" fill="#c16b5b"/>
    <path id="Trazado_884061" data-name="Trazado 884061" d="M67.209,93.126a1.7,1.7,0,1,0-.072-2.664,1.91,1.91,0,0,0,.072,2.664" transform="translate(-39.705 -53.713)" fill="#e89787"/>
    <path id="Trazado_884062" data-name="Trazado 884062" d="M68.384,91.831a1.278,1.278,0,0,1,1.123.022,1.045,1.045,0,0,1,.429.334.635.635,0,0,1,.092.586.9.9,0,0,1-.308.364.849.849,0,0,0-.207.209.326.326,0,0,0,.418.459.145.145,0,1,1,.122.263.6.6,0,0,1-.252.055.612.612,0,0,1-.537-.923,1.1,1.1,0,0,1,.274-.287.665.665,0,0,0,.221-.243.349.349,0,0,0-.057-.314.581.581,0,0,0-.11-.111.591.591,0,0,0-.415.142.518.518,0,0,0-.126.424.145.145,0,0,1-.119.166l-.024,0a.145.145,0,0,1-.143-.121.8.8,0,0,1,.2-.667.665.665,0,0,1,.217-.148.91.91,0,0,0-.659.045.56.56,0,0,0-.281.68.145.145,0,0,1-.263.122.847.847,0,0,1,.409-1.058" transform="translate(-40.468 -54.649)" fill="#c16b5b"/>
    <path id="Trazado_884063" data-name="Trazado 884063" d="M71.861,94.951c.1.745,2.647,18.184,7.254,18.184,4.625,0,5.465-14.017,5.5-14.612a.2.2,0,0,0-.094-.184,5.661,5.661,0,0,1-.355.476c-.1,1.412-.6,7.208-2.1,10.853a5.447,5.447,0,0,1-5.949-.014C73.7,104.6,72.3,95.024,72.284,94.891a.216.216,0,0,0-.244-.18.212.212,0,0,0-.18.24m4.594,15.362a6.169,6.169,0,0,0,2.685.652,5.863,5.863,0,0,0,2.643-.656c-.688,1.429-1.561,2.4-2.668,2.4-.98,0-1.87-.943-2.66-2.393" transform="translate(-42.819 -56.435)" fill="#14448e"/>
    <path id="Trazado_884064" data-name="Trazado 884064" d="M71.543,94.144c-.27.252-.448.706-.27.9s.644.044.913-.207a.475.475,0,1,0-.644-.69" transform="translate(-42.428 -55.995)" fill="#fffeff"/>
    <path id="Trazado_884065" data-name="Trazado 884065" d="M90.2,139.56c.563,5.492,7.4,12.174,16.261,15.888,5.215,2.186,17.775,6.007,30.138-.973l.934-.04a31.363,31.363,0,0,1-16.343,4.476,39.413,39.413,0,0,1-14.895-3.069c-9-3.771-15.944-10.6-16.521-16.24Z" transform="translate(-53.495 -83.161)" fill="#14448e"/>
    <path id="Trazado_884066" data-name="Trazado 884066" d="M263.761,324.813a9.751,9.751,0,0,0-4.466-3.778,32.337,32.337,0,0,1-5.244-2.778,13.666,13.666,0,0,1-4.35-6.236,40.805,40.805,0,0,1-1.759-7.49c2.982,2.808,7,3.352,10.251,5.848a14.007,14.007,0,0,1,4.52,6.57,25.018,25.018,0,0,1,1.047,7.865" transform="translate(-147.744 -181.464)" fill="#efbc40"/>
    <path id="Trazado_884067" data-name="Trazado 884067" d="M265.535,336.974h-.008a.129.129,0,0,1-.12-.138c.273-4.069.582-8.68-1.262-12.665-1.491-3.223-4.247-5.684-6.912-8.063-2.534-2.263-5.155-4.6-6.729-7.615a.13.13,0,0,1,.055-.175.129.129,0,0,1,.175.055c1.552,2.97,4.154,5.295,6.672,7.542,2.685,2.4,5.461,4.876,6.974,8.147,1.872,4.045,1.561,8.692,1.285,12.792a.129.129,0,0,1-.129.121" transform="translate(-149.262 -183.712)" fill="#e88c45"/>
    <path id="Trazado_884068" data-name="Trazado 884068" d="M263.483,350.4a5.281,5.281,0,0,0-2.06-.89,15.372,15.372,0,0,1-4.587-1.369c-2.118-1.3-3.177-3.371-4.878-5.125a9.669,9.669,0,0,1,7.19,1.289,10.118,10.118,0,0,1,4.335,6.095" transform="translate(-150.137 -204.26)" fill="#efbc40"/>
    <path id="Trazado_884069" data-name="Trazado 884069" d="M267.091,358.313a.13.13,0,0,1-.13-.127,13.829,13.829,0,0,0-2.512-7.982,14.348,14.348,0,0,0-4.393-3.7,43.413,43.413,0,0,0-5.283-2.432.129.129,0,1,1,.1-.24,43.6,43.6,0,0,1,5.316,2.447,14.619,14.619,0,0,1,4.47,3.773,14.087,14.087,0,0,1,2.564,8.132.13.13,0,0,1-.126.133Z" transform="translate(-151.766 -204.875)" fill="#e88c45"/>
    <path id="Trazado_884070" data-name="Trazado 884070" d="M291.217,339.17a7.345,7.345,0,0,1,2.249-2.165c1.828-1.245,3.905-2.228,5.307-4.023,2.126-2.722,2.492-5.942,3.852-9.057a13.447,13.447,0,0,0-8.737,5.19,14.071,14.071,0,0,0-2.671,10.055" transform="translate(-173.471 -193.021)" fill="#efbc40"/>
    <path id="Trazado_884071" data-name="Trazado 884071" d="M289.824,347.557a.129.129,0,0,1-.129-.116,20.339,20.339,0,0,1,2.588-11.882,34.243,34.243,0,0,1,7.857-9.4.129.129,0,1,1,.17.2,33.99,33.99,0,0,0-7.8,9.328,20.084,20.084,0,0,0-2.559,11.73.128.128,0,0,1-.114.143h-.014" transform="translate(-172.563 -194.333)" fill="#e88c45"/>
    <path id="Trazado_884072" data-name="Trazado 884072" d="M284.251,371.08v10.657a6.079,6.079,0,0,1-6.08,6.08h-4.577a6.079,6.079,0,0,1-6.08-6.08V371.08Z" transform="translate(-159.407 -221.12)" fill="#ff7168"/>
    <rect id="Rectángulo_403823" data-name="Rectángulo 403823" width="16.737" height="2.156" transform="translate(108.107 154.34)" fill="#de4544"/>
  </g>
</svg>
