<svg xmlns="http://www.w3.org/2000/svg" width="263.975" height="175.823" viewBox="0 0 263.975 175.823">
  <g id="Grupo_1103853" data-name="Grupo 1103853" transform="translate(-239.063 -2075.155)">
    <path id="Trazado_884221" data-name="Trazado 884221" d="M1107.2,58.431l6.513,2.083v5.515h3.784V60.514l6.513-2.083a3.476,3.476,0,0,0,2.339-4.045l-.244-1.126a59.963,59.963,0,0,1,0-25.336,3.476,3.476,0,0,0-3.4-4.211h-4.048l-.862-5.052h-4.357l-.861,5.052H1108.5a3.476,3.476,0,0,0-3.4,4.211,59.963,59.963,0,0,1,0,25.336l-.244,1.126a3.476,3.476,0,0,0,2.339,4.045m9.579-37.482a1.159,1.159,0,1,1-1.159-1.159,1.159,1.159,0,0,1,1.159,1.159" transform="translate(-631.743 2060.446)" fill="#fff"/>
    <path id="Trazado_884222" data-name="Trazado 884222" d="M1116.7,65.452h-3.784a.212.212,0,0,1-.212-.212V59.88l-6.366-2.035a3.674,3.674,0,0,1-2.481-4.292l.243-1.126a59.349,59.349,0,0,0,0-25.247,3.688,3.688,0,0,1,3.6-4.467h3.9l.831-4.876a.212.212,0,0,1,.209-.176H1117a.211.211,0,0,1,.208.176l.832,4.876h3.87a3.688,3.688,0,0,1,3.6,4.467,59.353,59.353,0,0,0,0,25.247l.244,1.126a3.674,3.674,0,0,1-2.481,4.292l-6.366,2.035v5.36a.212.212,0,0,1-.212.212m-3.572-.424h3.36v-5.3a.212.212,0,0,1,.147-.2l6.513-2.082a3.252,3.252,0,0,0,2.2-3.8l-.244-1.126a59.778,59.778,0,0,1,0-25.426,3.264,3.264,0,0,0-3.19-3.954h-4.048a.212.212,0,0,1-.209-.176l-.831-4.876h-4l-.831,4.876a.212.212,0,0,1-.209.176h-4.078a3.265,3.265,0,0,0-3.191,3.954,59.77,59.77,0,0,1,0,25.426l-.243,1.126a3.252,3.252,0,0,0,2.2,3.8l6.513,2.082a.212.212,0,0,1,.147.2Zm1.695-43.5a1.371,1.371,0,1,1,1.371-1.371,1.372,1.372,0,0,1-1.371,1.371m0-2.318a.947.947,0,1,0,.947.947.948.948,0,0,0-.947-.947" transform="translate(-630.95 2061.234)" fill="#281d57"/>
    <path id="Trazado_884223" data-name="Trazado 884223" d="M1165.76,168.5a.212.212,0,0,1-.064-.414l4.139-1.323a2.876,2.876,0,0,0,1.943-3.36l-.217-1c-.255-1.18-.473-2.386-.648-3.584a.212.212,0,1,1,.419-.061c.174,1.189.39,2.385.643,3.555l.217,1a3.3,3.3,0,0,1-2.228,3.853l-4.139,1.323a.209.209,0,0,1-.065.01" transform="translate(-679.642 1950.169)" fill="#fff"/>
    <path id="Trazado_884224" data-name="Trazado 884224" d="M1171.24,58.041a.2.2,0,0,1-.034,0,.212.212,0,0,1-.175-.243c.151-.941.329-1.887.53-2.813a2.887,2.887,0,0,0-2.822-3.5h-2.979a.212.212,0,1,1,0-.424h2.979a3.311,3.311,0,0,1,3.236,4.01c-.2.919-.376,1.858-.526,2.791a.212.212,0,0,1-.209.178" transform="translate(-679.642 2034.907)" fill="#fff"/>
    <rect id="Rectángulo_403869" data-name="Rectángulo 403869" width="12.481" height="10.817" transform="translate(477.62 2095.214)" fill="#fff"/>
    <path id="Trazado_884225" data-name="Trazado 884225" d="M1138.112,104.952h-12.481a.212.212,0,0,1-.212-.212V93.924a.212.212,0,0,1,.212-.212h12.481a.212.212,0,0,1,.212.212V104.74a.212.212,0,0,1-.212.212m-12.269-.424H1137.9V94.135h-12.058Z" transform="translate(-648.011 2001.29)" fill="#281d57"/>
    <path id="Trazado_884226" data-name="Trazado 884226" d="M1163.08,108.834h-1.7v-1.7h-1.347v1.7h-1.7v1.347h1.7v1.7h1.347v-1.7h1.7Z" transform="translate(-673.953 1990.711)" fill="#281d57"/>
    <rect id="Rectángulo_403870" data-name="Rectángulo 403870" width="3.724" height="6.34" transform="translate(478.61 2097.844)" fill="#ebecfd"/>
    <path id="Trazado_884227" data-name="Trazado 884227" d="M1144.885,235.192V232.22H1136.8v2.972h2.853v1.248h-1.64l.912,7.253h4.163l.73-7.253h-1.639v-1.248Z" transform="translate(-656.983 1892.115)" fill="#281d57"/>
    <path id="Trazado_884228" data-name="Trazado 884228" d="M980.384,340.1h-.014L962,338.886h0a18.409,18.409,0,0,1-13.441-5.816,19.57,19.57,0,0,1-5.3-14.423.212.212,0,1,1,.423.021,19.145,19.145,0,0,0,5.188,14.11,18,18,0,0,0,13.15,5.684l18.37,1.216c10.089-.719,18.043-5.493,21.822-13.1a20.541,20.541,0,0,0-1.172-20.55c-1.917-2.939-4.273-6.128-6.351-8.942-1.095-1.482-2.129-2.882-2.973-4.075-3.377-4.776-3.621-9.825-3.383-14.57a.212.212,0,0,1,.423.021c-.235,4.669,0,9.633,3.306,14.3.841,1.19,1.874,2.588,2.967,4.068,2.082,2.818,4.442,6.013,6.366,8.962a20.962,20.962,0,0,1,1.2,20.97c-3.85,7.749-11.936,12.609-22.186,13.335h-.015" transform="translate(-504.405 1855.843)" fill="#281d57"/>
    <path id="Trazado_884229" data-name="Trazado 884229" d="M1158.932,131.366a.212.212,0,0,1,0-.424l15.175,0L1174.225.5h-18.442V5.886a.212.212,0,0,1-.424,0V.293a.212.212,0,0,1,.212-.212h18.866a.212.212,0,0,1,.212.212l-.118,130.859a.212.212,0,0,1-.212.212Z" transform="translate(-671.61 2075.092)" fill="#281d57"/>
    <path id="Trazado_884230" data-name="Trazado 884230" d="M803.359,172.936a.212.212,0,0,1-.212-.212v-1.877a2.607,2.607,0,0,0-2.6-2.6H775.813a2.607,2.607,0,0,0-2.6,2.6v1.877a.212.212,0,1,1-.424,0v-1.877a3.031,3.031,0,0,1,3.027-3.027h24.731a3.031,3.031,0,0,1,3.027,3.027v1.877a.212.212,0,0,1-.212.212" transform="translate(-370.06 1942.877)" fill="#281d57"/>
    <path id="Trazado_884231" data-name="Trazado 884231" d="M683.254,189.357H749.2a1.752,1.752,0,1,0,0-3.5H683.254a1.752,1.752,0,0,0,0,3.5" transform="translate(-298.108 1928.664)" fill="#fff"/>
    <path id="Trazado_884232" data-name="Trazado 884232" d="M748.411,188.78H682.466a1.964,1.964,0,1,1,0-3.928h65.945a1.964,1.964,0,0,1,0,3.928m-65.945-3.5a1.54,1.54,0,1,0,0,3.081h65.945a1.54,1.54,0,0,0,0-3.081Z" transform="translate(-297.32 1929.452)" fill="#281d57"/>
    <path id="Trazado_884233" data-name="Trazado 884233" d="M742.307,201.824H667.084a.212.212,0,0,1,0-.424h75.223a.212.212,0,0,1,0,.424" transform="translate(-286.576 1916.408)" fill="#281d57"/>
    <path id="Trazado_884234" data-name="Trazado 884234" d="M934.5,316.479a4.714,4.714,0,1,1,4.714-4.714,4.72,4.72,0,0,1-4.714,4.714m0-9a4.291,4.291,0,1,0,4.291,4.29,4.3,4.3,0,0,0-4.291-4.29" transform="translate(-493.81 1833.133)" fill="#281d57"/>
    <path id="Trazado_884235" data-name="Trazado 884235" d="M941.8,321.819a2.752,2.752,0,1,1,2.753-2.753,2.756,2.756,0,0,1-2.753,2.753m0-5.081a2.329,2.329,0,1,0,2.329,2.329,2.331,2.331,0,0,0-2.329-2.329" transform="translate(-501.111 1825.831)" fill="#281d57"/>
    <path id="Trazado_884236" data-name="Trazado 884236" d="M721.342,316.479a4.714,4.714,0,1,1,4.714-4.714,4.72,4.72,0,0,1-4.714,4.714m0-9a4.291,4.291,0,1,0,4.291,4.29,4.3,4.3,0,0,0-4.291-4.29" transform="translate(-325.795 1833.133)" fill="#281d57"/>
    <path id="Trazado_884237" data-name="Trazado 884237" d="M728.643,321.819a2.752,2.752,0,1,1,2.752-2.753,2.756,2.756,0,0,1-2.752,2.753m0-5.081a2.329,2.329,0,1,0,2.329,2.329,2.332,2.332,0,0,0-2.329-2.329" transform="translate(-333.096 1825.831)" fill="#281d57"/>
    <path id="Trazado_884238" data-name="Trazado 884238" d="M783.4,230.885a.212.212,0,0,1-.106-.029l-45.1-26.291a.212.212,0,0,1,.213-.366l45.1,26.29a.212.212,0,0,1-.107.395" transform="translate(-342.708 1914.225)" fill="#281d57"/>
    <path id="Trazado_884239" data-name="Trazado 884239" d="M738.1,230.885a.212.212,0,0,1-.107-.395L782.787,204.2a.212.212,0,0,1,.214.366l-44.795,26.29a.21.21,0,0,1-.107.029" transform="translate(-342.552 1914.225)" fill="#281d57"/>
    <path id="Trazado_884240" data-name="Trazado 884240" d="M797.188,319.947H762.717a.212.212,0,0,1,0-.424h34.471a.212.212,0,0,1,0,.424" transform="translate(-361.956 1823.302)" fill="#281d57"/>
    <path id="Trazado_884251" data-name="Trazado 884251" d="M466.9,266.917a11.737,11.737,0,1,1-11.737-11.686A11.712,11.712,0,0,1,466.9,266.917" transform="translate(-110.453 1873.978)" fill="#fff"/>
    <path id="Trazado_884252" data-name="Trazado 884252" d="M454.374,278.027a11.9,11.9,0,1,1,11.949-11.9,11.937,11.937,0,0,1-11.949,11.9m0-23.373A11.475,11.475,0,1,0,465.9,266.129a11.513,11.513,0,0,0-11.525-11.475" transform="translate(-109.663 1874.766)" fill="#281d57"/>
    <path id="Trazado_884253" data-name="Trazado 884253" d="M487.582,295.078a4.138,4.138,0,1,1-4.138-4.12,4.129,4.129,0,0,1,4.138,4.12" transform="translate(-138.734 1845.817)" fill="#fff"/>
    <path id="Trazado_884254" data-name="Trazado 884254" d="M482.656,298.622a4.332,4.332,0,1,1,4.35-4.332,4.346,4.346,0,0,1-4.35,4.332m0-8.24a3.908,3.908,0,1,0,3.926,3.908,3.922,3.922,0,0,0-3.926-3.908" transform="translate(-137.946 1846.605)" fill="#281d57"/>
    <path id="Trazado_884265" data-name="Trazado 884265" d="M498.751,100.566l-32.913-4.017s13.778-27.078,21.356-35.257c6.06-6.54,18-2.556,20.654,5.484s-5.217,8.514-5.217,8.514l-1.787,3.525Z" transform="translate(-128.118 2029.427)" fill="#281d57"/>
    <path id="Trazado_884266" data-name="Trazado 884266" d="M422.551,363.4l40.776.954a10.861,10.861,0,0,1,10.225,13.592l-10.282,39.61,3.246,5.45a1.728,1.728,0,0,1-1.482,2.613h-24.22a3.116,3.116,0,0,1-2.89-4.277l11.188-34.59-27.317.252Z" transform="translate(-93.403 1788.713)" fill="#bee00f"/>
    <path id="Trazado_884267" data-name="Trazado 884267" d="M530.578,595.607a57.783,57.783,0,0,1-11.053-1.07.212.212,0,0,1,.081-.416,57.2,57.2,0,0,0,20.9.195.212.212,0,0,1,.073.417,57.811,57.811,0,0,1-10,.874" transform="translate(-170.3 1606.862)" fill="#281d57"/>
    <path id="Trazado_884268" data-name="Trazado 884268" d="M551.078,452.873a.212.212,0,0,1-.2-.273l1.448-4.777a.212.212,0,1,1,.405.123l-1.448,4.777a.212.212,0,0,1-.2.15" transform="translate(-195.138 1722.292)" fill="#281d57"/>
    <path id="Trazado_884269" data-name="Trazado 884269" d="M223.437,346.639c-.058.352-15.8,11.056-2.141,26.9,12.693,14.731,14.076,15.827,14.076,15.827h-31.6a8.325,8.325,0,0,0-5.561,2.942l-11.492,17.6a1.519,1.519,0,0,0,1.163,2.495h70.364a13.1,13.1,0,0,0,10.817-20.477A460.366,460.366,0,0,0,236.447,349.1Z" transform="translate(92.17 1801.929)" fill="#bee00f"/>
    <path id="Trazado_884270" data-name="Trazado 884270" d="M419.221,544.536a.212.212,0,0,1-.023-.422l7.936-.884a.212.212,0,1,1,.047.421l-7.936.884h-.023" transform="translate(-91.207 1646.974)" fill="#281d57"/>
    <path id="Trazado_884271" data-name="Trazado 884271" d="M393.009,372.719a.212.212,0,0,1-.17-.086c-6.591-8.876-12.906-16.769-19.3-24.127L360.6,346.059a.212.212,0,0,1,.079-.416l13.01,2.461a.212.212,0,0,1,.121.069c6.422,7.382,12.759,15.3,19.373,24.208a.212.212,0,0,1-.17.338" transform="translate(-45.029 1802.717)" fill="#281d57"/>
    <path id="Trazado_884272" data-name="Trazado 884272" d="M547.638,519.168a.211.211,0,0,1-.175-.093c-2.757-4.046-5.113-7.422-7.638-10.947a.212.212,0,0,1,.344-.247c2.528,3.529,4.886,6.907,7.644,10.956a.212.212,0,0,1-.175.331" transform="translate(-186.404 1674.904)" fill="#281d57"/>
    <path id="Trazado_884273" data-name="Trazado 884273" d="M606.192,273.241c-8.331.847-17.728,1.188-23.032.419-10.551-1.53-18-37.238-18-37.238l13.7-9.241L594,261.022l10.1.982Z" transform="translate(-206.408 1896.087)" fill="#bee00f"/>
    <path id="Trazado_884274" data-name="Trazado 884274" d="M572.051,295.069a.212.212,0,0,1-.194-.127c-.293-.673-.591-1.387-.887-2.124l-.126-.314a156.516,156.516,0,0,1-6.676-22.432.212.212,0,1,1,.414-.087,156.071,156.071,0,0,0,6.654,22.361l.126.314c.294.733.59,1.444.882,2.113a.212.212,0,0,1-.194.3" transform="translate(-205.62 1862.482)" fill="#281d57"/>
    <path id="Trazado_884275" data-name="Trazado 884275" d="M604.125,394.136a.212.212,0,0,1-.178-.1,45.889,45.889,0,0,1-3.522-6.687.212.212,0,0,1,.388-.169,45.46,45.46,0,0,0,3.489,6.626.212.212,0,0,1-.177.327" transform="translate(-234.188 1770.071)" fill="#281d57"/>
    <path id="Trazado_884276" data-name="Trazado 884276" d="M749.05,385.05s10.919-1.948,12.795-1.747.971,2.765-2.152,3.188c0,0,9.455-.873,9.065,1.787,0,0,2.189-.227,2.077,1.562l-.41,1.241a3.845,3.845,0,0,1-2.691,2.637,152.315,152.315,0,0,1-16.6,2.352l-.28-.716a33.013,33.013,0,0,1-1.8-9.156Z" transform="translate(-351.351 1773.041)" fill="#fff"/>
    <path id="Trazado_884277" data-name="Trazado 884277" d="M800.246,422.836a.212.212,0,0,1-.206-.162c-.167-.69-1.169-.875-1.472-.915a14.224,14.224,0,0,0-3.592.146c-.306.038-.612.077-.917.11a8.36,8.36,0,0,1-4.608-.5.212.212,0,0,1,.187-.38,7.982,7.982,0,0,0,4.375.458c.3-.033.607-.071.91-.109a14.538,14.538,0,0,1,3.7-.145c.475.063,1.6.309,1.828,1.235a.212.212,0,0,1-.206.262" transform="translate(-383.102 1743.227)" fill="#281d57"/>
    <path id="Trazado_884278" data-name="Trazado 884278" d="M777.507,403.048a.212.212,0,0,1-.108-.394,12.293,12.293,0,0,0,2.931-2.422.212.212,0,1,1,.317.281,12.715,12.715,0,0,1-3.032,2.505.21.21,0,0,1-.108.03" transform="translate(-373.614 1759.741)" fill="#281d57"/>
    <path id="Trazado_884279" data-name="Trazado 884279" d="M812.24,414.015a.211.211,0,0,1-.158-.071,3.463,3.463,0,0,0-2.89-.685c-1.9.126-3.81.329-5.69.6a.212.212,0,0,1-.061-.419c1.891-.276,3.817-.481,5.723-.608,1.165-.077,2.461-.04,3.234.825a.212.212,0,0,1-.158.353" transform="translate(-394.08 1749.771)" fill="#281d57"/>
    <path id="Trazado_884280" data-name="Trazado 884280" d="M803.02,405.772a.212.212,0,0,1-.042-.419,26.619,26.619,0,0,1,8.182-.377.212.212,0,0,1-.046.421,26.2,26.2,0,0,0-8.052.371.22.22,0,0,1-.042,0" transform="translate(-393.724 1756.069)" fill="#281d57"/>
    <path id="Trazado_884281" data-name="Trazado 884281" d="M750.347,395.5a.212.212,0,0,1-.021-.423,154.068,154.068,0,0,0,16.553-2.342,3.616,3.616,0,0,0,2.551-2.477.188.188,0,0,1,.007-.026l.4-1.214a1.109,1.109,0,0,0-.307-.907,2.247,2.247,0,0,0-1.538-.4.212.212,0,0,1-.231-.241.751.751,0,0,0-.217-.659c-1.449-1.529-8.547-.894-8.619-.887a.212.212,0,0,1-.048-.421c2.022-.273,2.949-1.417,2.94-2.1-.005-.375-.283-.61-.782-.664-1.822-.2-12.621,1.954-12.73,1.976a.212.212,0,0,1-.083-.415c.447-.089,10.972-2.182,12.858-1.981.718.077,1.152.48,1.161,1.079a2.489,2.489,0,0,1-1.562,2c2.287-.089,6.064-.042,7.174,1.128a1.173,1.173,0,0,1,.341.76,2.39,2.39,0,0,1,1.63.529,1.539,1.539,0,0,1,.436,1.267.216.216,0,0,1-.01.053l-.406,1.229a4.046,4.046,0,0,1-2.828,2.783,150.473,150.473,0,0,1-16.646,2.362h-.022" transform="translate(-350.563 1773.82)" fill="#281d57"/>
    <path id="Trazado_884282" data-name="Trazado 884282" d="M380.962,188.325a8.21,8.21,0,0,0-7.027-7.008l.03-.551a2.037,2.037,0,0,0-.854-1.725,26.069,26.069,0,0,0-11.66-4.161c-2.835-.2-3.885-.185-5.062,2.262-1.753-.276-11.442-4.08-25.651,16.3A267.8,267.8,0,0,0,313.581,222.1a3.668,3.668,0,0,0,2.251,5.176l13.6,2.882-.011.023,26.362,5.507a3.715,3.715,0,0,0,3.818-1.527l15.6-22.619c1.218-19.384,7-15.4,5.766-23.22" transform="translate(-7.795 1937.373)" fill="#bee00f"/>
    <path id="Trazado_884283" data-name="Trazado 884283" d="M365.609,371.947a3.945,3.945,0,0,1-.808-.084l-26.362-5.507a.213.213,0,0,1-.092-.044l-13.493-2.861a.212.212,0,1,1,.088-.414l13.6,2.882a.211.211,0,0,1,.091.044l26.259,5.485a3.5,3.5,0,0,0,3.6-1.44l15.6-22.62a.212.212,0,0,1,.349.24l-15.6,22.62a3.917,3.917,0,0,1-3.228,1.7" transform="translate(-16.86 1801.41)" fill="#281d57"/>
    <path id="Trazado_884284" data-name="Trazado 884284" d="M476.351,277.05a.212.212,0,0,1-.19-.3l21.891-45.395a.212.212,0,1,1,.381.184L476.542,276.93a.211.211,0,0,1-.191.12" transform="translate(-136.238 1892.895)" fill="#281d57"/>
    <path id="Trazado_884285" data-name="Trazado 884285" d="M363.407,259.994c5.889-7.048,25.062-4.719,25.062-4.719l-12.958,18.355,9.26,3.114a46.834,46.834,0,0,0-3.942,14.676c-6.49-.886-13.666-2.4-19.167-5.094-12.991-6.363-4.145-19.283,1.744-26.332" transform="translate(-40.716 1874.233)" fill="#bee00f"/>
    <path id="Trazado_884286" data-name="Trazado 884286" d="M481.082,350.358l8.7,2.924s.77-5.889,3.672-4.864-.211,5.1,2.622,9.408a23.253,23.253,0,0,0,5.558,5.491c1.888,1.2,4.674,2.773,3.529,4.682,0,0,2.138,2.384-1.2,3.233,0,0-1.869,2.148-10.091-4.681-.324-.269-7.891-.311-16.73-1.518a46.816,46.816,0,0,1,3.942-14.676" transform="translate(-137.026 1800.62)" fill="#fff"/>
    <path id="Trazado_884287" data-name="Trazado 884287" d="M576.256,423.741h-.018a.212.212,0,0,1-.193-.229,2.534,2.534,0,0,0-.77-1.87,8.584,8.584,0,0,0-1.429-1.144l-.313-.218a21.485,21.485,0,0,1-4.609-4.392.212.212,0,0,1,.334-.26,21.063,21.063,0,0,0,4.518,4.306c.1.072.207.144.31.216a8.9,8.9,0,0,1,1.5,1.2,2.98,2.98,0,0,1,.882,2.195.212.212,0,0,1-.211.194" transform="translate(-209.336 1747.615)" fill="#281d57"/>
    <path id="Trazado_884288" data-name="Trazado 884288" d="M582.636,421.872a.21.21,0,0,1-.112-.032l-2.4-1.494a13.184,13.184,0,0,1-3.719-3.008.212.212,0,0,1,.338-.255,12.67,12.67,0,0,0,3.6,2.9l2.4,1.494a.212.212,0,0,1-.112.392" transform="translate(-215.234 1746.47)" fill="#281d57"/>
    <path id="Trazado_884289" data-name="Trazado 884289" d="M376.91,340.548l-.029,0a87.011,87.011,0,0,1-21.986-6.827,8.248,8.248,0,0,1-4.5-4.789c-.983-2.977-.2-6.964,2.325-11.85a.212.212,0,0,1,.376.194c-2.472,4.781-3.245,8.657-2.3,11.522a7.841,7.841,0,0,0,4.288,4.542,87.932,87.932,0,0,0,21.858,6.788.212.212,0,0,1-.029.422" transform="translate(-36.796 1825.317)" fill="#281d57"/>
    <path id="Trazado_884290" data-name="Trazado 884290" d="M460.5,297.053a.213.213,0,0,1-.067-.011l-9.26-3.114a.212.212,0,0,1-.106-.323l9.256-13.113a.212.212,0,0,1,.346.244l-9.092,12.88,8.99,3.023a.212.212,0,0,1-.067.413" transform="translate(-116.446 1854.137)" fill="#281d57"/>
    <path id="Trazado_884291" data-name="Trazado 884291" d="M427.227,251.858l-3.533-2.177,2.176-3.531L423,244.383l-2.176,3.531-3.533-2.177-1.766,2.866,3.533,2.177-2.176,3.531,2.868,1.767,2.176-3.531,3.533,2.177Z" transform="translate(-88.462 1882.528)" fill="#fff"/>
    <path id="Trazado_884292" data-name="Trazado 884292" d="M552.339,139.585l-5.915,10.7,8.222,6.8,4.678-10.022Z" transform="translate(-191.637 1965.132)" fill="#fff"/>
    <path id="Trazado_884293" data-name="Trazado 884293" d="M568.743,106.447a2.143,2.143,0,0,0-2.185-1.611A2.721,2.721,0,0,0,564.3,106.5a3.76,3.76,0,0,0,.053,2.881,6.179,6.179,0,0,0,1.791,2.32,13.2,13.2,0,0,0,.895,6.891,5.522,5.522,0,0,0,9.443,1.684,14.472,14.472,0,0,0,2.437-3.744,38.44,38.44,0,0,0,3.7-9.978,9.747,9.747,0,0,0-3.865-2.69,7.885,7.885,0,0,0-4.869-.24c-1.714.687-2.309,1.884-3.092,3.555-.245.524-.953,2.339-1.822,1.733-.583-.407-.1-1.856-.221-2.468" transform="translate(-205.518 1993.706)" fill="#fff"/>
    <path id="Trazado_884294" data-name="Trazado 884294" d="M571.49,121.694a6.4,6.4,0,0,1-5.435-3.788,13.5,13.5,0,0,1-.924-6.892,6.281,6.281,0,0,1-1.766-2.33,3.959,3.959,0,0,1-.052-3.045,2.933,2.933,0,0,1,2.445-1.794,2.358,2.358,0,0,1,2.4,1.781,3.553,3.553,0,0,1-.021.933c-.054.539-.121,1.209.156,1.4a.369.369,0,0,0,.325.072c.468-.129.917-1.129,1.109-1.556.028-.063.053-.119.075-.165.736-1.571,1.371-2.927,3.2-3.662a8.131,8.131,0,0,1,5.016.236,9.954,9.954,0,0,1,3.953,2.747.211.211,0,0,1,.051.187,38.727,38.727,0,0,1-3.713,10.028,14.653,14.653,0,0,1-2.475,3.8,6.283,6.283,0,0,1-4.052,2.04c-.1.006-.2.009-.3.009m-5.615-17.429-.1,0a2.5,2.5,0,0,0-2.078,1.538,3.532,3.532,0,0,0,.054,2.717,5.933,5.933,0,0,0,1.731,2.239.211.211,0,0,1,.075.18,13.242,13.242,0,0,0,.875,6.78,5.312,5.312,0,0,0,9.1,1.629,14.267,14.267,0,0,0,2.4-3.69,38.479,38.479,0,0,0,3.656-9.821,9.461,9.461,0,0,0-3.7-2.553,7.7,7.7,0,0,0-4.722-.244c-1.6.64-2.173,1.728-2.979,3.449-.021.044-.045.1-.072.159-.253.562-.722,1.608-1.382,1.79a.794.794,0,0,1-.68-.133c-.481-.336-.4-1.109-.335-1.792a3.377,3.377,0,0,0,.027-.809,1.917,1.917,0,0,0-1.87-1.442" transform="translate(-204.729 1994.486)" fill="#281d57"/>
    <path id="Trazado_884295" data-name="Trazado 884295" d="M574.407,128.937a.212.212,0,0,1-.211-.2,3.23,3.23,0,0,0-1.219-2.322.212.212,0,1,1,.261-.334,3.66,3.66,0,0,1,1.381,2.631.212.212,0,0,1-.2.224h-.013" transform="translate(-212.502 1975.811)" fill="#281d57"/>
    <path id="Trazado_884296" data-name="Trazado 884296" d="M870.042,719.422l-2.022-.005a2.428,2.428,0,0,0-.046,4.857c4.391.07,13.814.192,19.6.047,2.762-.069,8.135-.023,11.226.012a2.316,2.316,0,1,0,.035-4.631,1.029,1.029,0,0,1-1.025-1.022,1.083,1.083,0,0,1,1.081-1.09l15.232-.039a3.06,3.06,0,1,0-.025-6.12l-1.983.011a.936.936,0,1,1-.005-1.872h6.784a3.6,3.6,0,0,0,0-7.2l-9.45,0a.8.8,0,0,1-.8-.792l-.035-4.618a.8.8,0,0,0-.856-.79c-2.7.2-11.1.921-14.136,2.216-1.69.721-5.054-2.358-8.915-2.419-7.048-.11-7.283,1.721-5.973,3.148a.8.8,0,0,1-.5,1.32l-18.75,2.279a2.621,2.621,0,0,0,.319,5.222l7.568-.007a1.083,1.083,0,0,1,0,2.166l-5.421.015a3.848,3.848,0,0,0,0,7.7l8.1.024a.8.8,0,0,1,0,1.6" transform="translate(-436.577 1526.59)" fill="#ebecfd"/>
    <path id="Trazado_884297" data-name="Trazado 884297" d="M204.881,523.75l-8.194,3.42-63.522-.629-73.369,2L47.249,517.739a2.466,2.466,0,0,0-4.016,2.407L52.8,552.009c.806,3.381,4.327,4.277,7.8,4.092l151.966,1.437Z" transform="translate(205.037 1667.544)" fill="#281d57"/>
    <path id="Trazado_884298" data-name="Trazado 884298" d="M211.791,556.966h0L59.823,555.529c-2.569.137-7.043-.232-8-4.255l-9.566-31.852a2.678,2.678,0,0,1,4.358-2.628L59.1,527.547l24.7-.675a.212.212,0,1,1,.011.423l-24.783.677a.216.216,0,0,1-.144-.051L46.336,517.115a2.255,2.255,0,0,0-3.672,2.2l9.566,31.849c.891,3.735,5.133,4.072,7.583,3.941l151.711,1.434-7.57-33.282-7.961,3.323a.207.207,0,0,1-.083.016l-28.552-.283a.212.212,0,0,1-.21-.214.209.209,0,0,1,.214-.21l28.509.282,8.153-3.4a.212.212,0,0,1,.288.148L212,556.707a.212.212,0,0,1-.206.259" transform="translate(205.812 1668.327)" fill="#281d57"/>
    <path id="Trazado_884299" data-name="Trazado 884299" d="M127.048,598.289h-.02a.212.212,0,0,1-.191-.231c.867-9.231-3.527-21.9-3.572-22.031a.212.212,0,1,1,.4-.14c.045.128,4.47,12.889,3.594,22.211a.212.212,0,0,1-.211.192" transform="translate(141.913 1621.344)" fill="#fff"/>
    <path id="Trazado_884300" data-name="Trazado 884300" d="M239.309,585.6l2.055-1.52L235.65,555.2l-15.275,2.351-50-12.424c-4.512-1.121-9.039-1.584-13.2.563L98.862,573.35l-21.645,1.874a2.414,2.414,0,0,0-.167,4.666l26.992,9.771c2.114,1.077,5.729,1.691,7.879,1.038l54.6-19.57,43.5,17.291c9.407,3.647,17.032,3.049,24.745.075a25.642,25.642,0,0,0,4.545-2.894" transform="translate(179.683 1646.222)" fill="#281d57"/>
    <path id="Trazado_884301" data-name="Trazado 884301" d="M206.063,694a.212.212,0,0,1-.187-.111c-.047-.088-4.888-8.808-18.8-13.28a.212.212,0,0,1,.129-.4c14.088,4.528,19,13.394,19.046,13.483a.212.212,0,0,1-.186.312" transform="translate(91.725 1539.013)" fill="#281d57"/>
    <path id="Trazado_884302" data-name="Trazado 884302" d="M108.747,605.276a11.081,11.081,0,0,1-3.477-.562L76.192,594.188a2.588,2.588,0,0,1-1.851-2.7,2.445,2.445,0,0,1,2.054-2.377l21.624-1.873,53.022-25.152a.212.212,0,1,1,.182.383L98.166,587.64a.208.208,0,0,1-.072.02l-21.645,1.874a2.042,2.042,0,0,0-1.685,1.981,2.176,2.176,0,0,0,1.558,2.271l29.086,10.529a10.628,10.628,0,0,0,6.45.075l53.8-19.36a.21.21,0,0,1,.15,0l43.5,17.292a34.278,34.278,0,0,0,21.374,1.225c2.73-.755,6.4-2.277,8.37-5.235a.212.212,0,0,1,.353.235c-1.641,2.462-4.538,4.282-8.61,5.409a34.711,34.711,0,0,1-21.644-1.24l-43.425-17.262L111.992,604.79a11.142,11.142,0,0,1-3.245.486" transform="translate(180.47 1632.123)" fill="#fff"/>
    <path id="Trazado_884303" data-name="Trazado 884303" d="M616.246,571.16a.216.216,0,0,1-.051-.006L577.731,561.6a.212.212,0,1,1,.1-.411l38.463,9.556a.212.212,0,0,1-.051.417" transform="translate(-216.187 1632.823)" fill="#281d57"/>
    <path id="Trazado_884304" data-name="Trazado 884304" d="M568.03,390.96c4.26.514,7.3,2.966,3.7,4.107-13.7,4.336-.362,4.985.279,4.881.4-.064,20.437,7.252,39.5,7.239,26.28-1.452,27.51-23.6,27.537-26.087-1.695.461-16.388,5.781-29.566,8.668-11.177-3.455-41.672-8.786-44.17-7.348,0,0-5.573,3-5.805,5.944,0,0-1.84,1.188-1.382,2.456.6,1.659,6.228-.3,9.913.14" transform="translate(-200.796 1774.767)" fill="#fff"/>
    <path id="Trazado_884305" data-name="Trazado 884305" d="M564.376,409.319a.212.212,0,0,1-.081-.407c2.338-.967,5.185-1.42,9.521-1.515h0a.212.212,0,0,1,0,.424c-4.28.094-7.082.538-9.369,1.483a.21.21,0,0,1-.081.016" transform="translate(-205.62 1754.039)" fill="#281d57"/>
    <path id="Trazado_884306" data-name="Trazado 884306" d="M571.843,396.069a.212.212,0,0,1-.081-.408,18.7,18.7,0,0,1,6.523-1.487.212.212,0,0,1,.208.216.207.207,0,0,1-.216.208,17.981,17.981,0,0,0-6.354,1.455.21.21,0,0,1-.081.016" transform="translate(-211.506 1764.462)" fill="#281d57"/>
    <path id="Trazado_884307" data-name="Trazado 884307" d="M686.3,406.609c-11.988,0-24.644-2.905-33.159-5.345a.212.212,0,0,1,.116-.407c8.488,2.432,21.106,5.329,33.033,5.329h.051c10.938-.6,18.826-4.828,23.432-12.551a28.871,28.871,0,0,0,3.886-13.039c-.452.14-1.248.407-2.339.772a278.708,278.708,0,0,1-26.963,7.818.214.214,0,0,1-.108,0c-2.585-.8-6.359-1.743-10.915-2.731a.212.212,0,0,1,.09-.414c4.536.984,8.3,1.925,10.9,2.724a278.761,278.761,0,0,0,26.865-7.794c1.371-.459,2.277-.762,2.636-.86a.212.212,0,0,1,.267.207,29.157,29.157,0,0,1-3.953,13.54,24.255,24.255,0,0,1-8.3,8.388,33,33,0,0,1-15.484,4.369Z" transform="translate(-275.63 1775.555)" fill="#281d57"/>
    <path id="Trazado_884308" data-name="Trazado 884308" d="M594.617,451.376a.212.212,0,0,1-.145-.366,12.507,12.507,0,0,1,3.964-1.966.212.212,0,0,1,.143.4,12.4,12.4,0,0,0-3.817,1.876.211.211,0,0,1-.145.057" transform="translate(-229.457 1721.221)" fill="#281d57"/>
    <path id="Trazado_884309" data-name="Trazado 884309" d="M559.1,406.983c-1.03,0-1.748-.2-1.972-.82-.454-1.257,1-2.38,1.38-2.648a5.384,5.384,0,0,1,1.761-2.98.212.212,0,1,1,.3.3,4.852,4.852,0,0,0-1.648,2.816.212.212,0,0,1-.1.161c-.017.011-1.693,1.112-1.3,2.207.29.8,2.351.543,4.534.269a22.868,22.868,0,0,1,5.206-.267q.234.028.463.064a.212.212,0,0,1-.065.419q-.222-.035-.449-.062a22.606,22.606,0,0,0-5.1.267,26.348,26.348,0,0,1-3.013.274" transform="translate(-200.004 1759.495)" fill="#281d57"/>
    <path id="Trazado_884310" data-name="Trazado 884310" d="M847.13,392.44l-18.974,27.782-.008.013-.612.9c-7.981,11.686-37.3,23.9-43.2,26.268a1.015,1.015,0,0,1-1.354-.656c-1.652-5.6-12.929-30.3-15.113-36.912a2.891,2.891,0,0,1,1.144-3.316c4.5-2.99,17.066-9.857,27.468-21h0c-1.794-3.039-8.074-11.658-8.073-11.659,6.924-2.763,18.386-7.475,22.508-6.992,10.06,1.175,21.755,9.742,29.359,16.261a.028.028,0,0,1,.013.011,30.847,30.847,0,0,1,6.326,8.266q.27.511.519,1.036" transform="translate(-366.067 1786.011)" fill="#bee00f"/>
    <path id="Trazado_884311" data-name="Trazado 884311" d="M869.176,603.173c-7.548,1.522-6.647,5.189-4.686,4.412,2.037-.807,6.983-.851,6.983-.851-8.354,1.445-6.947,3.87-5.475,3.661,1.212-.172,5.7-.372,5.7-.372-2.46.331-5.5,1.838-4.784,2.691s6.45.212,6.45.212c-.419.112-2.03.661-2.317.8-2.007,1-.661,2.205,3.959,1.671,3.584-.414,26.082-1.043,40.169-1.268a11.64,11.64,0,0,0,11.454-11.64L925.414,581.8H903.749l2.57,16.79s-29.595,3.062-37.143,4.585" transform="translate(-441.26 1616.572)" fill="#fff"/>
    <path id="Trazado_884312" data-name="Trazado 884312" d="M889.226,614.954c-1.709,0-2.8-.328-2.984-.938-.074-.251-.044-.75,1-1.265.1-.05.341-.143.632-.247a18.968,18.968,0,0,1-3.916-.045.212.212,0,1,1,.076-.417,28.291,28.291,0,0,0,5.6-.115.212.212,0,0,1,.078.415c-.421.112-2.015.658-2.278.789-.532.264-.837.564-.778.766.115.388,1.47.869,4.619.505,3.653-.422,26.542-1.051,40.19-1.269A11.48,11.48,0,0,0,942.7,601.7l-1.2-20.482H920.282l2.532,16.546a.212.212,0,0,1-.188.243c-.06.006-6.055.624-13.748,1.5a.21.21,0,0,1-.234-.187.212.212,0,0,1,.186-.234c6.865-.78,12.378-1.356,13.531-1.475l-2.536-16.57a.212.212,0,0,1,.21-.244H941.7a.212.212,0,0,1,.212.2l1.214,20.694a11.851,11.851,0,0,1-11.662,11.864c-13.639.218-36.507.846-40.148,1.266a18.393,18.393,0,0,1-2.089.132" transform="translate(-457.547 1617.36)" fill="#281d57"/>
    <path id="Trazado_884313" data-name="Trazado 884313" d="M1036.821,515.523l-.938-3.837-.009-.032-4.6-18.836,23.076-9.962q.27.511.519,1.036a30.774,30.774,0,0,1,2.666,8.647l2.107,17.236Z" transform="translate(-573.802 1694.56)" fill="#bee00f"/>
    <path id="Trazado_884314" data-name="Trazado 884314" d="M1045.094,589.1a.212.212,0,0,1-.206-.162l-1.926-7.876a.212.212,0,0,1,.412-.1l1.926,7.876a.212.212,0,0,1-.156.256.2.2,0,0,1-.05.006" transform="translate(-583.013 1617.36)" fill="#281d57"/>
    <path id="Trazado_884315" data-name="Trazado 884315" d="M1068.807,290.386a8.412,8.412,0,0,0,1.88-2.858c.478-1.344,1.5-2.463,1.968-3.819,1.1-3.183-1.2-5.854-3.49-7.735-.626-.515-1.273-1-1.927-1.484-4.411-3.238-8.22-1.32-7.9.772.54,3.505-2.619,4.88-2.545,5.711.025.279-.179,3.125.261,3.553a.587.587,0,0,0,.36.145,7.408,7.408,0,0,1,2.6.619c.345.18.47,1.726.554,2.1q.255,1.132.425,2.286t.251,2.324c.057.815-.071,1.1.866,1.25,2.771.431,4.507-.981,6.7-2.864" transform="translate(-593.901 1860.162)" fill="#281d57"/>
    <path id="Trazado_884316" data-name="Trazado 884316" d="M1025.289,386.586s7.7,1.775,8.408,5.187a7.291,7.291,0,0,1-.906,5.576,31.709,31.709,0,0,1-14.76.3l2.385-6.681-3.516,1.2s-.254-2.733,2.671-5.542c1.379-1.324,5.718-.046,5.718-.046" transform="translate(-562.47 1770.879)" fill="#fff"/>
    <path id="Trazado_884317" data-name="Trazado 884317" d="M1063.8,397.778a.212.212,0,0,1-.2-.277l.031-.1a7.444,7.444,0,0,0,.181-4.259c-.766-3.578-8.035-5.062-8.108-5.076a.212.212,0,1,1,.083-.416c.311.062,7.616,1.555,8.439,5.4a7.831,7.831,0,0,1-.192,4.479l-.031.095a.212.212,0,0,1-.2.147" transform="translate(-592.924 1769.604)" fill="#281d57"/>
    <path id="Trazado_884318" data-name="Trazado 884318" d="M1044.518,369.987l-.633,8.132s-5.3,2.316-9.5-3.844l1.1-5.735s6.678-2.423,9.031,1.447" transform="translate(-576.26 1785.256)" fill="#fff"/>
    <path id="Trazado_884319" data-name="Trazado 884319" d="M1040.689,377.912c-1.984,0-4.823-.767-7.264-4.349a.211.211,0,0,1-.033-.159l1.1-5.735a.212.212,0,0,1,.136-.159c.28-.1,6.869-2.436,9.284,1.536a.214.214,0,0,1,.03.126l-.634,8.132a.212.212,0,0,1-.126.178,6.916,6.916,0,0,1-2.492.43m-6.865-4.515c3.7,5.364,8.288,4.022,9.071,3.741l.618-7.929c-2.1-3.333-7.759-1.626-8.63-1.339Z" transform="translate(-575.471 1786.088)" fill="#281d57"/>
    <path id="Trazado_884320" data-name="Trazado 884320" d="M1038.856,398.329a7.232,7.232,0,0,1-2.725-.528,8.447,8.447,0,0,1-4.921-4.878.212.212,0,0,1,.4-.126,8.176,8.176,0,0,0,4.675,4.611,7.8,7.8,0,0,0,6.913-.807.212.212,0,0,1,.246.345,8.719,8.719,0,0,1-4.593,1.384" transform="translate(-573.746 1765.663)" fill="#281d57"/>
    <path id="Trazado_884321" data-name="Trazado 884321" d="M1036.89,300.02s-6.637,8.81-7.275,12.087c-.847,4.348,5.384,9.655,10.6,4.536,0,0,4.769,1.55,5.858-1.84.985-3.066-3.36-2.257-4.091-1.245l-.941-.327s3.245-3.6,3.206-5.952-7.352-7.259-7.352-7.259" transform="translate(-572.435 1838.675)" fill="#fff"/>
    <path id="Trazado_884322" data-name="Trazado 884322" d="M1034.766,318.162a5.916,5.916,0,0,1-2.818-.728,6.057,6.057,0,0,1-3.331-6.156c.64-3.287,7.042-11.812,7.314-12.174a.212.212,0,0,1,.287-.048c.3.2,7.406,5,7.446,7.431.034,2.077-2.323,5-3.052,5.858l.508.177a3.941,3.941,0,0,1,3.733-.639c.428.216,1.079.79.627,2.2a3.1,3.1,0,0,1-1.567,1.888,6.7,6.7,0,0,1-4.434.126,6.846,6.846,0,0,1-4.712,2.069m1.382-18.641c-.9,1.211-6.542,8.887-7.116,11.838a5.7,5.7,0,0,0,3.116,5.7c2.357,1.268,4.954.773,7.123-1.358a.213.213,0,0,1,.214-.05c.025.008,2.538.806,4.235-.064a2.688,2.688,0,0,0,1.355-1.639c.271-.844.131-1.413-.415-1.689a3.431,3.431,0,0,0-3.3.633.211.211,0,0,1-.241.076l-.941-.327a.212.212,0,0,1-.088-.342c.032-.035,3.188-3.568,3.151-5.806-.029-1.787-4.976-5.532-7.091-6.974" transform="translate(-571.644 1839.463)" fill="#281d57"/>
    <path id="Trazado_884323" data-name="Trazado 884323" d="M1085.988,370.327a.211.211,0,0,1-.093-.022,2.556,2.556,0,0,0-1.892-.134.212.212,0,0,1-.13-.4,2.983,2.983,0,0,1,2.208.157.212.212,0,0,1-.093.4" transform="translate(-615.148 1783.81)" fill="#281d57"/>
    <path id="Trazado_884324" data-name="Trazado 884324" d="M1064.9,304.242s-4.894-7.915-11.372-9.82a17.729,17.729,0,0,1,3.256-5.511s9.1,4.7,11.534,10.112a1.02,1.02,0,0,1-.04.909,14.79,14.79,0,0,1-3.379,4.31" transform="translate(-591.348 1847.431)" fill="#fff"/>
    <path id="Trazado_884325" data-name="Trazado 884325" d="M1064.115,303.665a.209.209,0,0,1-.039,0,.212.212,0,0,1-.141-.1c-.048-.079-4.927-7.868-11.251-9.729a.212.212,0,0,1-.139-.276,17.688,17.688,0,0,1,3.308-5.59.212.212,0,0,1,.244-.036c.374.194,9.2,4.8,11.631,10.214a1.238,1.238,0,0,1-.048,1.1,15.055,15.055,0,0,1-3.437,4.377.212.212,0,0,1-.127.042M1053.023,293.5c5.8,1.837,10.338,8.417,11.145,9.647a15.239,15.239,0,0,0,3.141-4.1.813.813,0,0,0,.032-.72c-2.214-4.922-10.165-9.328-11.3-9.939a17.324,17.324,0,0,0-3.014,5.115" transform="translate(-590.56 1848.219)" fill="#281d57"/>
    <path id="Trazado_884326" data-name="Trazado 884326" d="M1076.878,302.842a.212.212,0,0,1-.2-.151c-1.988-6.578-10.781-11.984-10.87-12.038a.212.212,0,0,1,.22-.362c.09.055,9.021,5.544,11.055,12.277a.212.212,0,0,1-.2.273" transform="translate(-600.942 1846.366)" fill="#281d57"/>
    <path id="Trazado_884327" data-name="Trazado 884327" d="M1065.928,313.09a.212.212,0,0,1-.193-.125,21.932,21.932,0,0,0-8.323-9.305.212.212,0,0,1,.206-.37,22.381,22.381,0,0,1,8.5,9.5.212.212,0,0,1-.193.3" transform="translate(-594.321 1836.119)" fill="#281d57"/>
    <path id="Trazado_884328" data-name="Trazado 884328" d="M14.33,427.024a.212.212,0,0,1-.2-.158l-1.733-6.535H.212a.212.212,0,0,1,0-.424H12.555a.212.212,0,0,1,.2.158l1.51,5.694,2.674-18.3a.212.212,0,0,1,.418,0l2.348,14.61,1.8-2.089a.213.213,0,0,1,.161-.073h5.053l1.67-2.37a.212.212,0,0,1,.335-.014l1.995,2.384h7.826l1.722-4.405a.212.212,0,0,1,.395,0l1.722,4.405h3.728a.212.212,0,0,1,.2.158l1.522,5.741c.991-5.976,2.631-15.882,2.66-16.143a.2.2,0,0,1,.191-.193c.2-.018.2-.018.338.723.068.352.163.855.277,1.458.228,1.207.53,2.816.831,4.425.47,2.51.938,5.02,1.121,6l1.809-2.1a.213.213,0,0,1,.161-.073H66.747a.212.212,0,0,1,0,.424H55.328l-2.034,2.36a.212.212,0,0,1-.369-.1c-.634-3.4-1.722-9.23-2.191-11.7-.486,2.993-1.79,10.861-2.635,15.954a.212.212,0,0,1-.2.177.2.2,0,0,1-.215-.157l-1.733-6.535H42.243a.212.212,0,0,1-.2-.135l-1.577-4.035L38.891,420.2a.212.212,0,0,1-.2.135H30.625a.211.211,0,0,1-.162-.076l-1.881-2.248-1.575,2.234a.212.212,0,0,1-.173.09H21.768l-2.034,2.36a.212.212,0,0,1-.37-.1l-2.2-13.7-2.624,17.953a.211.211,0,0,1-.2.181H14.33" transform="translate(239.063 1754.129)" fill="#281d57"/>
    <path id="Trazado_884329" data-name="Trazado 884329" d="M841.837,58.8a2.908,2.908,0,1,1-2.908-2.9,2.906,2.906,0,0,1,2.908,2.9" transform="translate(-419.903 2031.097)" fill="#ebecfd"/>
    <path id="Trazado_884330" data-name="Trazado 884330" d="M881.91,58.8A2.908,2.908,0,1,1,879,55.9a2.906,2.906,0,0,1,2.908,2.9" transform="translate(-451.489 2031.097)" fill="#ebecfd"/>
    <path id="Trazado_884331" data-name="Trazado 884331" d="M921.983,58.8a2.908,2.908,0,1,1-2.908-2.9,2.906,2.906,0,0,1,2.908,2.9" transform="translate(-483.075 2031.097)" fill="#281d57"/>
    <path id="Trazado_884332" data-name="Trazado 884332" d="M986.633,69.035H960.128a.212.212,0,1,1,0-.424h26.505a.212.212,0,0,1,0,.424" transform="translate(-517.559 2021.075)" fill="#281d57"/>
    <rect id="Rectángulo_403873" data-name="Rectángulo 403873" width="263.975" height="175.823" transform="translate(239.063 2075.155)" fill="none"/>
  </g>
</svg>
