<svg id="Grupo_1103849" data-name="Grupo 1103849" xmlns="http://www.w3.org/2000/svg" xmlns:xlink="http://www.w3.org/1999/xlink" width="261.27" height="142.116" viewBox="0 0 261.27 142.116">
  <defs>
    <clipPath id="clip-path">
      <rect id="Rectángulo_403868" data-name="Rectángulo 403868" width="261.27" height="142.116" fill="none"/>
    </clipPath>
  </defs>
  <g id="Grupo_1103848" data-name="Grupo 1103848" clip-path="url(#clip-path)">
    <path id="Trazado_884085" data-name="Trazado 884085" d="M692.2,327.316a68.786,68.786,0,0,0-6.971,4.819c-2.526,2.2-2.333,6.063-1.274,7.915s3.247.521,3.247.521c1.022,1.958,2.875-.2,2.875-.2.388,1.177,1.967-.033,1.967-.033.606.9,1.913-.517,1.913-.517,5.481-3.331,10.855-7.415,10.855-7.415Z" transform="translate(-539.822 -258.618)" fill="#fff"/>
    <path id="Trazado_884086" data-name="Trazado 884086" d="M687.5,340.813a1.3,1.3,0,0,1-.148-.008,1.432,1.432,0,0,1-1.051-.741,3.165,3.165,0,0,1-2.076.323,2.033,2.033,0,0,1-1.273-1.022,6.938,6.938,0,0,1,1.318-8.178,69.4,69.4,0,0,1,7-4.84.21.21,0,0,1,.218.359,69,69,0,0,0-6.943,4.8c-2.408,2.1-2.256,5.858-1.23,7.653a1.629,1.629,0,0,0,1.013.824,2.943,2.943,0,0,0,1.942-.378.21.21,0,0,1,.3.082,1.136,1.136,0,0,0,.832.7c.664.076,1.451-.652,1.7-.94a.21.21,0,0,1,.358.071.482.482,0,0,0,.3.348c.412.127,1.121-.317,1.337-.482a.21.21,0,0,1,.3.05.412.412,0,0,0,.322.206c.44.034,1.06-.528,1.262-.748a.207.207,0,0,1,.045-.037c5.409-3.288,10.784-7.362,10.837-7.4a.21.21,0,0,1,.254.334c-.054.041-5.43,4.116-10.849,7.413-.155.163-.9.912-1.582.86a.8.8,0,0,1-.5-.225,2.1,2.1,0,0,1-1.552.434.817.817,0,0,1-.435-.323,2.763,2.763,0,0,1-1.7.868" transform="translate(-538.999 -257.828)" fill="#281d57"/>
    <path id="Trazado_884087" data-name="Trazado 884087" d="M698.047,356.359a.21.21,0,0,1-.135-.049c-.809-.676-2.03-.84-3.732-.5-.241.048-.483.1-.725.154a8.021,8.021,0,0,1-3.4.253c-.637-.137-1.4-.562-1.445-1.309-.05-.786.718-1.3,1.3-1.627l3.721-2.059a.21.21,0,1,1,.2.367l-3.721,2.059c-.482.267-1.119.685-1.084,1.233.03.48.581.811,1.114.925a7.71,7.71,0,0,0,3.218-.252c.245-.054.49-.107.734-.156,1.835-.364,3.17-.17,4.083.592a.21.21,0,0,1-.135.371" transform="translate(-544.085 -277.485)" fill="#281d57"/>
    <path id="Trazado_884088" data-name="Trazado 884088" d="M730.708,375.93a.21.21,0,0,1-.135-.371,2.709,2.709,0,0,0,.676-1.979,1.263,1.263,0,0,0-.767-1.024.21.21,0,0,1,.179-.379,1.681,1.681,0,0,1,1,1.35,3.108,3.108,0,0,1-.822,2.354.21.21,0,0,1-.135.049" transform="translate(-577.072 -294.048)" fill="#281d57"/>
    <path id="Trazado_884089" data-name="Trazado 884089" d="M721.309,374.712a.21.21,0,0,1-.135-.371,2.5,2.5,0,0,0,.948-2.033,1.741,1.741,0,0,0-1.352-1.578.21.21,0,0,1,.066-.415,2.147,2.147,0,0,1,1.7,1.961,2.92,2.92,0,0,1-1.1,2.387.209.209,0,0,1-.134.049" transform="translate(-569.354 -292.591)" fill="#281d57"/>
    <path id="Trazado_884090" data-name="Trazado 884090" d="M713.314,375.938a.21.21,0,0,1-.146-.36,3.339,3.339,0,0,0,1.094-1.855,1.542,1.542,0,0,0-.864-1.668.21.21,0,1,1,.139-.4,1.948,1.948,0,0,1,1.141,2.122,3.738,3.738,0,0,1-1.217,2.1.209.209,0,0,1-.146.059" transform="translate(-563.437 -293.645)" fill="#281d57"/>
    <path id="Trazado_884091" data-name="Trazado 884091" d="M701.415,377.3a.21.21,0,0,1-.134-.371l.186-.152a2.691,2.691,0,0,0,1.006-1.2,1.42,1.42,0,0,0-.431-1.648.21.21,0,1,1,.224-.355,1.845,1.845,0,0,1,.6,2.142,3.047,3.047,0,0,1-1.137,1.391l-.183.15a.209.209,0,0,1-.134.048" transform="translate(-554.035 -295.141)" fill="#281d57"/>
    <path id="Trazado_884092" data-name="Trazado 884092" d="M689.836,376.2a.21.21,0,0,1-.17-.333l1.438-1.983a.21.21,0,0,1,.34.246l-1.438,1.983a.21.21,0,0,1-.17.087" transform="translate(-544.887 -295.342)" fill="#281d57"/>
    <path id="Trazado_884093" data-name="Trazado 884093" d="M785.323,332.127a.21.21,0,0,1-.207-.247l.9-5.015a.21.21,0,1,1,.413.074l-.9,5.015a.21.21,0,0,1-.206.173" transform="translate(-620.332 -258.125)" fill="#281d57"/>
    <rect id="Rectángulo_403866" data-name="Rectángulo 403866" width="1.21" height="1.855" transform="translate(141.505 85.057)" fill="#fff"/>
    <path id="Trazado_884094" data-name="Trazado 884094" d="M674.632,406.538h-1.21a.21.21,0,0,1-.21-.21v-1.855a.21.21,0,0,1,.21-.21h1.21a.21.21,0,0,1,.21.21v1.855a.21.21,0,0,1-.21.21m-1-.42h.79v-1.435h-.79Z" transform="translate(-531.917 -319.416)" fill="#281d57"/>
    <rect id="Rectángulo_403867" data-name="Rectángulo 403867" width="1.21" height="1.855" transform="translate(156.175 85.057)" fill="#fff"/>
    <path id="Trazado_884095" data-name="Trazado 884095" d="M744.531,406.538h-1.21a.21.21,0,0,1-.21-.21v-1.855a.21.21,0,0,1,.21-.21h1.21a.21.21,0,0,1,.21.21v1.855a.21.21,0,0,1-.21.21m-1-.42h.79v-1.435h-.79Z" transform="translate(-587.146 -319.416)" fill="#281d57"/>
    <path id="Trazado_884096" data-name="Trazado 884096" d="M674.067,380.674V376.96a1.236,1.236,0,0,1,1.233-1.231h10.1a1.236,1.236,0,0,1,1.233,1.231v3.714h2.1V375.96a2.1,2.1,0,0,0-2.1-2.095H674.067a2.1,2.1,0,0,0-2.1,2.095v4.714Z" transform="translate(-530.935 -295.398)" fill="#fff"/>
    <path id="Trazado_884097" data-name="Trazado 884097" d="M687.943,380.094h-2.1a.21.21,0,0,1-.21-.21V376.17a1.023,1.023,0,0,0-1.023-1.021h-10.1a1.023,1.023,0,0,0-1.023,1.021v3.714a.21.21,0,0,1-.21.21h-2.1a.21.21,0,0,1-.21-.21V375.17a2.309,2.309,0,0,1,2.307-2.3h12.568a2.309,2.309,0,0,1,2.308,2.3v4.714a.21.21,0,0,1-.21.21m-1.888-.42h1.678v-4.5a1.889,1.889,0,0,0-1.888-1.885H673.276a1.889,1.889,0,0,0-1.888,1.885v4.5h1.678v-3.5a1.444,1.444,0,0,1,1.443-1.441h10.1a1.444,1.444,0,0,1,1.443,1.441Z" transform="translate(-530.145 -294.607)" fill="#281d57"/>
    <path id="Trazado_884098" data-name="Trazado 884098" d="M647.45,442.836H606.539a2.105,2.105,0,0,1-2.1-2.1V414.821a2.105,2.105,0,0,1,2.1-2.1H647.45a2.105,2.105,0,0,1,2.1,2.1v25.915a2.105,2.105,0,0,1-2.1,2.1" transform="translate(-477.579 -326.099)" fill="#fff"/>
    <path id="Trazado_884099" data-name="Trazado 884099" d="M646.662,442.256H605.751a2.312,2.312,0,0,1-2.309-2.309V414.031a2.312,2.312,0,0,1,2.309-2.309h40.911a2.312,2.312,0,0,1,2.309,2.309v25.916a2.312,2.312,0,0,1-2.309,2.309m-40.911-30.114a1.891,1.891,0,0,0-1.889,1.889v25.916a1.891,1.891,0,0,0,1.889,1.889h40.911a1.891,1.891,0,0,0,1.889-1.889V414.031a1.891,1.891,0,0,0-1.889-1.889Z" transform="translate(-476.791 -325.309)" fill="#281d57"/>
    <path id="Trazado_884100" data-name="Trazado 884100" d="M688.855,450.623h-5.931V444.7h-4.814v5.922H672.18v4.807h5.931v5.922h4.814V455.43h5.931Z" transform="translate(-531.102 -351.366)" fill="#ebecfd"/>
    <path id="Trazado_884101" data-name="Trazado 884101" d="M741.974,210.813l-7.149,14-18.8,10.873a.587.587,0,0,0,.039,1.01l9.927,7a1.971,1.971,0,0,0,1.586.308c3.832-.9,19.235-4.537,21.765-5.619,2.893-1.238,2.554-15.673,1-19.183s-8.367-8.385-8.367-8.385" transform="translate(-565.529 -166.567)" fill="#bee00f"/>
    <path id="Trazado_884102" data-name="Trazado 884102" d="M696.212,371.627l-.05-.03a5.239,5.239,0,0,0-3.344-.139,11.7,11.7,0,0,1-3.707.464l-2.214,2.851c1.059,1.852,3.247.521,3.247.521,1.022,1.958,2.875-.2,2.875-.2.288.873,1.23.433,1.7.147v.008l.026-.024c.148-.092.242-.164.242-.164.443.66,1.072.255,1.378-.01l.159-.165c.5-.514,1.335-2.482-.311-3.261" transform="translate(-542.73 -293.335)" fill="#fff"/>
    <path id="Trazado_884103" data-name="Trazado 884103" d="M690.226,375.881a1.3,1.3,0,0,1-.148-.008,1.433,1.433,0,0,1-1.053-.744,2.423,2.423,0,0,1-3.32-.8.21.21,0,0,1,.365-.208c.944,1.652,2.853.592,2.934.546a.21.21,0,0,1,.29.085,1.137,1.137,0,0,0,.832.7c.8.092,1.69-.929,1.7-.94a.21.21,0,0,1,.358.071.482.482,0,0,0,.3.348c.413.128,1.105-.3,1.337-.482a.21.21,0,0,1,.3.05.524.524,0,0,0,.358.262,1.048,1.048,0,0,0,.708-.313l.146-.153a2.548,2.548,0,0,0,.576-1.909,1.366,1.366,0,0,0-.826-1.017l-.019-.01-.05-.03a5.092,5.092,0,0,0-3.195-.112c-.241.048-.483.1-.725.154a8.949,8.949,0,0,1-3.05.312.21.21,0,0,1,.054-.416,8.646,8.646,0,0,0,2.905-.306c.245-.054.49-.107.734-.156a5.44,5.44,0,0,1,3.48.157l.054.032a1.785,1.785,0,0,1,1.051,1.317,2.933,2.933,0,0,1-.687,2.276l-.159.165a1.418,1.418,0,0,1-1.052.425.857.857,0,0,1-.518-.275,2.1,2.1,0,0,1-1.548.431.818.818,0,0,1-.435-.323,2.763,2.763,0,0,1-1.7.868" transform="translate(-541.766 -292.819)" fill="#281d57"/>
    <path id="Trazado_884104" data-name="Trazado 884104" d="M721.124,375.08a.21.21,0,0,1-.135-.371,2.5,2.5,0,0,0,.948-2.033,1.742,1.742,0,0,0-1.352-1.578.21.21,0,1,1,.066-.414,2.147,2.147,0,0,1,1.7,1.961,2.921,2.921,0,0,1-1.1,2.387.209.209,0,0,1-.134.049" transform="translate(-569.208 -292.881)" fill="#281d57"/>
    <path id="Trazado_884105" data-name="Trazado 884105" d="M713.13,376.306a.21.21,0,0,1-.146-.36,3.342,3.342,0,0,0,1.094-1.855,1.542,1.542,0,0,0-.864-1.668.21.21,0,0,1,.138-.4,1.948,1.948,0,0,1,1.141,2.122,3.691,3.691,0,0,1-1.217,2.1.209.209,0,0,1-.146.059" transform="translate(-563.291 -293.936)" fill="#281d57"/>
    <path id="Trazado_884106" data-name="Trazado 884106" d="M701.232,377.672a.21.21,0,0,1-.134-.371l.186-.153a2.689,2.689,0,0,0,1.006-1.2,1.42,1.42,0,0,0-.431-1.648.21.21,0,0,1,.224-.355,1.845,1.845,0,0,1,.6,2.142,3.049,3.049,0,0,1-1.137,1.391l-.183.15a.209.209,0,0,1-.134.049" transform="translate(-553.89 -295.432)" fill="#281d57"/>
    <path id="Trazado_884107" data-name="Trazado 884107" d="M689.653,376.566a.21.21,0,0,1-.17-.333l1.438-1.983a.21.21,0,0,1,.34.246l-1.438,1.983a.21.21,0,0,1-.17.087" transform="translate(-544.741 -295.633)" fill="#281d57"/>
    <path id="Trazado_884108" data-name="Trazado 884108" d="M938.773,74.531l2.911,9.342s8.738.025,12.177-.469a129.694,129.694,0,0,1-8.075-15.732,40.732,40.732,0,0,0-7.013,6.859" transform="translate(-741.742 -53.469)" fill="#fff"/>
    <path id="Trazado_884109" data-name="Trazado 884109" d="M941.071,83.293h-.178a.21.21,0,0,1-.2-.147L937.782,73.8a.21.21,0,0,1,.034-.19,41.289,41.289,0,0,1,7.055-6.9.21.21,0,0,1,.319.089,130.737,130.737,0,0,0,8.06,15.7.21.21,0,0,1-.15.316c-3.142.452-10.764.471-12.029.471m-.023-.42c1.143,0,8.374-.015,11.678-.425a133.058,133.058,0,0,1-7.818-15.235,40.614,40.614,0,0,0-6.692,6.568Z" transform="translate(-740.952 -52.679)" fill="#281d57"/>
    <path id="Trazado_884110" data-name="Trazado 884110" d="M881.5,7.371a7.819,7.819,0,0,1,3.948-5.579A11.428,11.428,0,0,1,892.213.455c5.117-1.035,9.562-.863,10.891,6.553a17.243,17.243,0,0,1-.552,7.787c-.741,3.572-2.708,1.466-4.081.473-.859-.622-1.955,1.05-2.984.825-4.957-1.086-15.061.115-13.992-8.722" transform="translate(-696.424 0.001)" fill="#281d57"/>
    <path id="Trazado_884111" data-name="Trazado 884111" d="M895.128,46.026s5.366-3.216,6.83-1.1.928,4.848,3.371,3.838c0,0,2.072-4.136,4.574-2.32s1.069,4.987-1.246,6.1a5.67,5.67,0,0,1-4.1,5.3c-4.239,1.5-7.378-4.822-9.434-11.821" transform="translate(-707.257 -34.928)" fill="#fff"/>
    <path id="Trazado_884112" data-name="Trazado 884112" d="M902.531,57.5a3.838,3.838,0,0,1-1.763-.442c-2.483-1.271-4.714-5.224-6.631-11.75a.21.21,0,0,1,.094-.239c.226-.136,5.553-3.292,7.11-1.035a8.677,8.677,0,0,1,1.027,2.27c.266.8.476,1.424.913,1.623a1.453,1.453,0,0,0,1.109-.1c.218-.41,1.336-2.379,2.9-2.761a2.286,2.286,0,0,1,1.947.437,3.126,3.126,0,0,1,1.389,2.871,4.669,4.669,0,0,1-2.551,3.529,5.945,5.945,0,0,1-4.233,5.367,3.921,3.921,0,0,1-1.311.233m-7.945-12.152c1.847,6.229,4.05,10.148,6.373,11.337a3.359,3.359,0,0,0,2.743.187,5.419,5.419,0,0,0,3.955-5.095.211.211,0,0,1,.119-.2,4.312,4.312,0,0,0,2.432-3.246,2.673,2.673,0,0,0-1.218-2.493,1.884,1.884,0,0,0-1.6-.369c-1.525.372-2.651,2.591-2.663,2.613a.208.208,0,0,1-.107.1,1.891,1.891,0,0,1-1.513.124c-.6-.275-.85-1.015-1.137-1.872A8.346,8.346,0,0,0,901,44.271c-1.212-1.755-5.57.6-6.409,1.076" transform="translate(-706.467 -34.151)" fill="#281d57"/>
    <path id="Trazado_884113" data-name="Trazado 884113" d="M950.717,66.654h-.02a.21.21,0,0,1-.189-.229,3.022,3.022,0,0,1,1.8-2.456.21.21,0,0,1,.16.388,2.592,2.592,0,0,0-1.546,2.108.21.21,0,0,1-.209.19" transform="translate(-751.013 -50.53)" fill="#281d57"/>
    <path id="Trazado_884114" data-name="Trazado 884114" d="M814.983,337.939l-40.638.821a12.3,12.3,0,0,0-11.593,15.395l11.657,44.863-3.68,6.172a1.957,1.957,0,0,0,1.68,2.959h27.461a3.53,3.53,0,0,0,3.276-4.844l-12.686-39.177,30.972.285Z" transform="translate(-602.347 -267.012)" fill="#fff"/>
    <path id="Trazado_884115" data-name="Trazado 884115" d="M809.76,528.579a65.6,65.6,0,0,1-11.334-.989.21.21,0,0,1,.073-.413,64.967,64.967,0,0,0,23.708-.221.21.21,0,0,1,.08.412,65.539,65.539,0,0,1-12.526,1.212" transform="translate(-630.714 -416.354)" fill="#281d57"/>
    <path id="Trazado_884116" data-name="Trazado 884116" d="M883,422.279a.21.21,0,0,1-.2-.149l-2.989-9.847a.21.21,0,0,1,.4-.122l2.988,9.847a.21.21,0,0,1-.14.262.206.206,0,0,1-.061.009" transform="translate(-695.151 -325.538)" fill="#281d57"/>
    <path id="Trazado_884117" data-name="Trazado 884117" d="M799.068,408.133h-27.46a2.167,2.167,0,0,1-1.861-3.277l3.635-6.1-11.635-44.778a12.375,12.375,0,0,1,1.567-9.887.21.21,0,0,1,.354.226,11.959,11.959,0,0,0-1.514,9.555l11.657,44.863a.208.208,0,0,1-.023.16l-3.68,6.172a1.747,1.747,0,0,0,1.5,2.642h27.46a3.32,3.32,0,0,0,3.082-4.556l-12.69-39.19a.21.21,0,0,1,.03-.189.216.216,0,0,1,.171-.086l30.7.283-6.349-26.063a.21.21,0,1,1,.408-.1l6.413,26.325a.21.21,0,0,1-.039.18.2.2,0,0,1-.166.079l-30.68-.283,12.6,38.9a3.739,3.739,0,0,1-3.476,5.118" transform="translate(-601.545 -266.786)" fill="#281d57"/>
    <path id="Trazado_884118" data-name="Trazado 884118" d="M908.378,317.539c.066.4,17.6,12.258,2.427,30.471s-17.348,20.512-17.348,20.512l30.478,3.417a9.442,9.442,0,0,1,6.3,3.332l.193,14.512c.938,1.12.624,1.878-.837,1.878l-60.686.369a14.839,14.839,0,0,1-12.264-23.193,521.494,521.494,0,0,1,36.98-48.511Z" transform="translate(-674.797 -250.893)" fill="#fff"/>
    <path id="Trazado_884119" data-name="Trazado 884119" d="M868.077,391.451a15.048,15.048,0,0,1-12.439-23.521,517.223,517.223,0,0,1,37-48.531.209.209,0,0,1,.119-.069l14.751-2.787a.211.211,0,0,1,.159.034.208.208,0,0,1,.067.077c.046.052.216.2.395.352,10.237,8.833,10.95,19.611,2.007,30.348C897.75,362.219,894,366.51,893.053,367.569l30.071,3.371a9.6,9.6,0,0,1,6.442,3.406.206.206,0,0,1,.049.132l.192,14.438c.614.759.589,1.254.457,1.538s-.5.627-1.5.627ZM892.9,319.729a517.043,517.043,0,0,0-36.917,48.437,14.629,14.629,0,0,0,12.091,22.865l60.685-.369c.609,0,1.007-.136,1.123-.385s-.045-.67-.446-1.149a.21.21,0,0,1-.049-.132l-.192-14.437a9.183,9.183,0,0,0-6.117-3.2L892.6,367.941a.21.21,0,0,1-.129-.353c.022-.023,2.366-2.525,17.339-20.5,8.773-10.533,8.077-21.1-1.959-29.762-.195-.168-.315-.272-.39-.345Zm14.847-3.016h0m0,0h0Z" transform="translate(-673.96 -250.104)" fill="#281d57"/>
    <path id="Trazado_884120" data-name="Trazado 884120" d="M953.256,393.552a.209.209,0,0,1-.141-.054l-3.742-3.383a.21.21,0,1,1,.281-.311l3.742,3.383a.21.21,0,0,1-.141.366" transform="translate(-750.063 -307.948)" fill="#281d57"/>
    <path id="Trazado_884121" data-name="Trazado 884121" d="M970.421,424.944l4.011-4.426a3.156,3.156,0,0,0-.222-4.461l-14.856-13.43a3.159,3.159,0,0,0-4.46.222l-4.011,4.426a3.156,3.156,0,0,0,.222,4.461l14.856,13.431a3.16,3.16,0,0,0,4.46-.222" transform="translate(-750.664 -317.478)" fill="#fff"/>
    <path id="Trazado_884122" data-name="Trazado 884122" d="M967.288,425.406a3.356,3.356,0,0,1-2.258-.868l-14.856-13.43a3.366,3.366,0,0,1-.237-4.758l4.011-4.426a3.374,3.374,0,0,1,4.756-.237l14.856,13.43a3.366,3.366,0,0,1,.237,4.758l-4.011,4.426-.156-.141.156.141a3.362,3.362,0,0,1-2.5,1.1m-10.842-24.168a2.942,2.942,0,0,0-2.187.967l-4.011,4.426a2.946,2.946,0,0,0,.207,4.165l14.856,13.43a2.954,2.954,0,0,0,4.163-.207l4.011-4.426a2.946,2.946,0,0,0-.207-4.165L958.422,402a2.937,2.937,0,0,0-1.977-.76" transform="translate(-749.873 -316.694)" fill="#281d57"/>
    <path id="Trazado_884123" data-name="Trazado 884123" d="M964.263,431.739l4.011-4.426a3.156,3.156,0,0,0-.222-4.461L953.2,409.421a3.159,3.159,0,0,0-4.46.222l-4.011,4.426a3.156,3.156,0,0,0,.222,4.461l14.856,13.43a3.16,3.16,0,0,0,4.46-.222" transform="translate(-745.798 -322.847)" fill="#fff"/>
    <path id="Trazado_884124" data-name="Trazado 884124" d="M961.13,432.2a3.356,3.356,0,0,1-2.258-.868L944.016,417.9a3.366,3.366,0,0,1-.237-4.758l4.011-4.426a3.374,3.374,0,0,1,4.756-.237l14.856,13.43a3.366,3.366,0,0,1,.237,4.758l-4.011,4.426a3.362,3.362,0,0,1-2.5,1.1m-10.842-24.168A2.942,2.942,0,0,0,948.1,409l-4.011,4.426a2.946,2.946,0,0,0,.207,4.165l14.856,13.43a2.954,2.954,0,0,0,4.163-.207l4.011-4.426a2.946,2.946,0,0,0-.207-4.165l-14.856-13.43a2.937,2.937,0,0,0-1.976-.76" transform="translate(-745.008 -322.063)" fill="#281d57"/>
    <path id="Trazado_884125" data-name="Trazado 884125" d="M955.247,426.831l5.768-6.365-4.047-3.659-5.768,6.365Z" transform="translate(-751.56 -329.327)" fill="#fff"/>
    <path id="Trazado_884126" data-name="Trazado 884126" d="M954.456,426.251a.209.209,0,0,1-.141-.054l-4.047-3.658a.21.21,0,0,1-.015-.3l5.768-6.365a.21.21,0,0,1,.3-.014l4.047,3.659a.21.21,0,0,1,.015.3l-5.768,6.365a.21.21,0,0,1-.156.069m-3.75-3.883,3.736,3.377,5.487-6.054-3.736-3.377Z" transform="translate(-750.77 -328.537)" fill="#281d57"/>
    <path id="Trazado_884127" data-name="Trazado 884127" d="M1004.51,446.535l1.179-1.3-1.3-1.177-1.179,1.3Z" transform="translate(-792.653 -350.857)" fill="#fff"/>
    <path id="Trazado_884128" data-name="Trazado 884128" d="M1003.72,445.955a.209.209,0,0,1-.141-.054l-1.3-1.177a.209.209,0,0,1-.015-.3l1.179-1.3a.21.21,0,0,1,.3-.015l1.3,1.177a.21.21,0,0,1,.015.3l-1.179,1.3a.209.209,0,0,1-.156.069m-1.006-1.4.991.9.9-.99-.991-.9Z" transform="translate(-791.863 -350.067)" fill="#281d57"/>
    <path id="Trazado_884129" data-name="Trazado 884129" d="M992.195,460.124l1.179-1.3-1.3-1.177-1.179,1.3Z" transform="translate(-782.922 -361.594)" fill="#fff"/>
    <path id="Trazado_884130" data-name="Trazado 884130" d="M991.405,459.543a.209.209,0,0,1-.141-.054l-1.3-1.177a.21.21,0,0,1-.015-.3l1.179-1.3a.21.21,0,0,1,.3-.015l1.3,1.177a.21.21,0,0,1,.015.3l-1.179,1.3a.209.209,0,0,1-.156.069m-1.006-1.4.991.9.9-.99-.991-.9Z" transform="translate(-782.132 -360.804)" fill="#281d57"/>
    <path id="Trazado_884131" data-name="Trazado 884131" d="M979.88,473.713l1.179-1.3-1.3-1.177-1.179,1.3Z" transform="translate(-773.192 -372.331)" fill="#fff"/>
    <path id="Trazado_884132" data-name="Trazado 884132" d="M979.09,473.133a.209.209,0,0,1-.141-.054l-1.3-1.177a.21.21,0,0,1-.015-.3l1.179-1.3a.21.21,0,0,1,.3-.015l1.3,1.177a.21.21,0,0,1,.015.3l-1.179,1.3a.21.21,0,0,1-.156.069m-1.006-1.4.991.9.9-.99-.991-.9Z" transform="translate(-772.402 -371.541)" fill="#281d57"/>
    <path id="Trazado_884133" data-name="Trazado 884133" d="M1018.116,458.835l1.179-1.3-1.3-1.177-1.179,1.3Z" transform="translate(-803.403 -360.576)" fill="#fff"/>
    <path id="Trazado_884134" data-name="Trazado 884134" d="M1017.326,458.254a.208.208,0,0,1-.141-.054l-1.3-1.177a.21.21,0,0,1-.015-.3l1.179-1.3a.21.21,0,0,1,.3-.015l1.3,1.177a.21.21,0,0,1,.015.3l-1.179,1.3a.209.209,0,0,1-.156.069m-1.006-1.4.991.9.9-.99-.991-.9Z" transform="translate(-802.613 -359.785)" fill="#281d57"/>
    <path id="Trazado_884135" data-name="Trazado 884135" d="M1005.8,472.424l1.179-1.3-1.3-1.177-1.179,1.3Z" transform="translate(-793.673 -371.313)" fill="#fff"/>
    <path id="Trazado_884136" data-name="Trazado 884136" d="M1005.011,471.844a.208.208,0,0,1-.141-.054l-1.3-1.177a.21.21,0,0,1-.015-.3l1.179-1.3a.21.21,0,0,1,.3-.015l1.3,1.177a.21.21,0,0,1,.015.3l-1.179,1.3a.21.21,0,0,1-.156.069m-1.006-1.4.991.9.9-.99-.991-.9Z" transform="translate(-792.883 -370.523)" fill="#281d57"/>
    <path id="Trazado_884137" data-name="Trazado 884137" d="M993.485,486.013l1.179-1.3-1.3-1.177-1.179,1.3Z" transform="translate(-783.942 -382.05)" fill="#fff"/>
    <path id="Trazado_884138" data-name="Trazado 884138" d="M992.7,485.433a.208.208,0,0,1-.141-.054l-1.3-1.177a.21.21,0,0,1-.015-.3l1.179-1.3a.21.21,0,0,1,.3-.015l1.3,1.177a.21.21,0,0,1,.015.3l-1.179,1.3a.209.209,0,0,1-.156.069m-1.006-1.4.991.9.9-.99-.991-.9Z" transform="translate(-783.152 -381.26)" fill="#281d57"/>
    <path id="Trazado_884139" data-name="Trazado 884139" d="M1031.721,471.135l1.179-1.3-1.3-1.177-1.179,1.3Z" transform="translate(-814.153 -370.294)" fill="#fff"/>
    <path id="Trazado_884140" data-name="Trazado 884140" d="M1030.932,470.554a.209.209,0,0,1-.141-.054l-1.3-1.177a.209.209,0,0,1-.015-.3l1.179-1.3a.21.21,0,0,1,.3-.015l1.3,1.177a.209.209,0,0,1,.015.3l-1.179,1.3a.21.21,0,0,1-.156.069m-1.006-1.4.991.9.9-.99-.991-.9Z" transform="translate(-813.363 -369.504)" fill="#281d57"/>
    <path id="Trazado_884141" data-name="Trazado 884141" d="M1019.406,484.724l1.179-1.3-1.3-1.177-1.179,1.3Z" transform="translate(-804.423 -381.031)" fill="#fff"/>
    <path id="Trazado_884142" data-name="Trazado 884142" d="M1018.617,484.143a.208.208,0,0,1-.14-.054l-1.3-1.177a.21.21,0,0,1-.015-.3l1.179-1.3a.209.209,0,0,1,.3-.015l1.3,1.177a.21.21,0,0,1,.015.3l-1.179,1.3a.209.209,0,0,1-.156.069m-1.006-1.4.991.9.9-.99-.991-.9Z" transform="translate(-803.633 -380.241)" fill="#281d57"/>
    <path id="Trazado_884143" data-name="Trazado 884143" d="M1007.091,498.313l1.179-1.3-1.3-1.177-1.179,1.3Z" transform="translate(-794.692 -391.768)" fill="#fff"/>
    <path id="Trazado_884144" data-name="Trazado 884144" d="M1006.3,497.733a.209.209,0,0,1-.141-.054l-1.3-1.177a.21.21,0,0,1-.015-.3l1.179-1.3a.21.21,0,0,1,.3-.015l1.3,1.177a.21.21,0,0,1,.015.3l-1.179,1.3a.21.21,0,0,1-.156.069m-1.006-1.4.991.9.9-.99-.991-.9Z" transform="translate(-793.902 -390.978)" fill="#281d57"/>
    <path id="Trazado_884145" data-name="Trazado 884145" d="M1045.327,483.435l1.179-1.3-1.3-1.177-1.179,1.3Z" transform="translate(-824.903 -380.013)" fill="#fff"/>
    <path id="Trazado_884146" data-name="Trazado 884146" d="M1044.538,482.854a.208.208,0,0,1-.141-.054l-1.3-1.178a.21.21,0,0,1-.015-.3l1.179-1.3a.21.21,0,0,1,.3-.015l1.3,1.178a.21.21,0,0,1,.015.3l-1.179,1.3a.209.209,0,0,1-.156.069m-1.006-1.4.991.9.9-.99-.991-.9Z" transform="translate(-824.114 -379.222)" fill="#281d57"/>
    <path id="Trazado_884147" data-name="Trazado 884147" d="M1033.012,497.024l1.179-1.3-1.3-1.177-1.179,1.3Z" transform="translate(-815.173 -390.75)" fill="#fff"/>
    <path id="Trazado_884148" data-name="Trazado 884148" d="M1032.222,496.444a.209.209,0,0,1-.141-.054l-1.3-1.177a.209.209,0,0,1-.015-.3l1.179-1.3a.21.21,0,0,1,.3-.015l1.3,1.177a.21.21,0,0,1,.015.3l-1.179,1.3a.21.21,0,0,1-.156.069m-1.006-1.4.991.9.9-.99-.991-.9Z" transform="translate(-814.383 -389.96)" fill="#281d57"/>
    <path id="Trazado_884149" data-name="Trazado 884149" d="M1020.7,510.613l1.179-1.3-1.3-1.177-1.179,1.3Z" transform="translate(-805.442 -401.487)" fill="#fff"/>
    <path id="Trazado_884150" data-name="Trazado 884150" d="M1019.907,510.033a.209.209,0,0,1-.141-.054l-1.3-1.177a.21.21,0,0,1-.015-.3l1.179-1.3a.21.21,0,0,1,.3-.015l1.3,1.177a.21.21,0,0,1,.015.3l-1.179,1.3a.21.21,0,0,1-.156.069m-1.006-1.4.991.9.9-.99-.991-.9Z" transform="translate(-804.652 -400.696)" fill="#281d57"/>
    <path id="Trazado_884151" data-name="Trazado 884151" d="M965.4,405.045l1.263-1.394-1.081-.611-.816.9Z" transform="translate(-762.276 -318.45)" fill="#fff"/>
    <path id="Trazado_884152" data-name="Trazado 884152" d="M964.605,404.466h-.022a.209.209,0,0,1-.16-.1l-.634-1.1a.21.21,0,0,1,.026-.246l.817-.9a.21.21,0,0,1,.259-.042l1.081.611a.21.21,0,0,1,.052.324l-1.263,1.394a.21.21,0,0,1-.156.069m-.376-1.286.414.721.893-.986-.706-.4Z" transform="translate(-761.485 -317.66)" fill="#281d57"/>
    <path id="Trazado_884153" data-name="Trazado 884153" d="M1017.288,366.464s-12.038,9.019-16.387,11.577-8.314,8.406-7.771,10.145,3.248-.716,3.248-.716-2.407,3.978-1.3,4.736,5.86-3.436,5.86-3.436-3.366,3.309-3.179,4.81,1.711,1.592,5.6-1.728c0,0-1.856,2.074-.642,3.207.905.845,7.448-4,10.723-6.914,0,0,.651-1.578,7.213-3.783Z" transform="translate(-784.65 -289.55)" fill="#fff"/>
    <path id="Trazado_884154" data-name="Trazado 884154" d="M1002.231,394.584a.56.56,0,0,1-.438-.163,1.875,1.875,0,0,1-.163-2.314c-1.967,1.531-3.327,2.123-4.14,1.807a1.215,1.215,0,0,1-.723-1.1c-.1-.786.638-1.96,1.437-2.974-1.49,1.116-3.3,2.242-4.028,1.749-.918-.626.018-2.777.71-4.089a2.893,2.893,0,0,1-2.055.692,1,1,0,0,1-.69-.733c-.6-1.923,3.514-7.83,7.865-10.389,4.29-2.522,16.247-11.474,16.368-11.564a.21.21,0,0,1,.332.129l3.371,17.9a.21.21,0,0,1-.139.238c-6.295,2.115-7.079,3.649-7.085,3.663a.211.211,0,0,1-.054.077,67.313,67.313,0,0,1-6.272,4.884c-2.649,1.8-3.778,2.189-4.3,2.189m.348-3.733a.21.21,0,0,1,.157.35c-.017.019-1.7,1.935-.655,2.914.051.047.6.392,4.212-2.067a66.93,66.93,0,0,0,6.2-4.826c.17-.3,1.282-1.8,7.14-3.791l-3.275-17.387c-1.808,1.349-12.189,9.067-16.137,11.388-4.278,2.516-8.171,8.319-7.677,9.9a.6.6,0,0,0,.4.453c.7.192,2.049-.846,2.507-1.262a.21.21,0,0,1,.32.264c-.956,1.581-2.01,4.009-1.357,4.454.672.459,3.682-1.724,5.6-3.42a.21.21,0,0,1,.286.307c-.916.9-3.261,3.488-3.118,4.634.051.412.2.66.459.76.442.172,1.656.06,4.8-2.622a.209.209,0,0,1,.136-.05" transform="translate(-783.863 -288.76)" fill="#281d57"/>
    <path id="Trazado_884155" data-name="Trazado 884155" d="M1009.166,448.379a.21.21,0,0,1-.167-.337,15.9,15.9,0,0,1,5.035-4.331.21.21,0,0,1,.2.369,15.474,15.474,0,0,0-4.9,4.215.209.209,0,0,1-.167.083" transform="translate(-797.195 -350.565)" fill="#281d57"/>
    <path id="Trazado_884156" data-name="Trazado 884156" d="M1030.919,462.722a.21.21,0,0,1-.138-.368,26.018,26.018,0,0,1,3.036-2.279.21.21,0,1,1,.227.353,25.575,25.575,0,0,0-2.986,2.243.21.21,0,0,1-.138.052" transform="translate(-814.382 -363.487)" fill="#281d57"/>
    <path id="Trazado_884157" data-name="Trazado 884157" d="M1042.283,475.1a.21.21,0,0,1-.151-.356,21.48,21.48,0,0,1,3.538-2.931.21.21,0,1,1,.232.35,21.048,21.048,0,0,0-3.469,2.874.209.209,0,0,1-.151.064" transform="translate(-823.361 -372.757)" fill="#281d57"/>
    <path id="Trazado_884158" data-name="Trazado 884158" d="M893.638,128.915a34.679,34.679,0,0,0-21.913-18.69s-.645-.941-.958-1.45c-1.707-2.779-2.772-3.307-5.51-2.74l-3.505.771a3.381,3.381,0,0,0-1.487.746L856,111.246l-.722-2.523a.531.531,0,0,0-.661-.363l-.944.28c-2.047.424-2.446,1.935-2.446,4.023a32.517,32.517,0,0,0-6.768,1.759,21.256,21.256,0,0,0-9.975,10.374l-3.5,7.588,8.865,21.97a8.34,8.34,0,0,0,6.433,5.356l36.225,5.922,4.9,14.476a2.018,2.018,0,0,0,3.068,1.005,122.775,122.775,0,0,0,10.32-7.812c7.087-6.795,7.2-18.9,2.227-27.732Z" transform="translate(-656.573 -83.62)" fill="#bee00f"/>
    <path id="Trazado_884159" data-name="Trazado 884159" d="M979.074,303.637l-.027,0-24.184-3.15a.21.21,0,0,1-.183-.208v-8.893a.21.21,0,0,1,.249-.206l22.434,4.232a.209.209,0,0,1,.166.16l1.75,7.811a.21.21,0,0,1-.2.256M955.1,300.093l23.7,3.088-1.654-7.384-22.05-4.159Z" transform="translate(-754.31 -230.062)" fill="#281d57"/>
    <path id="Trazado_884160" data-name="Trazado 884160" d="M1062.48,294.573a.21.21,0,0,1-.108-.39c.057-.034,5.688-3.453,4.863-6.612-.859-3.291-8.372-18.356-8.447-18.508a.21.21,0,1,1,.375-.188c.31.621,7.608,15.257,8.478,18.589.9,3.462-4.809,6.932-5.053,7.078a.208.208,0,0,1-.108.03" transform="translate(-836.55 -212.352)" fill="#281d57"/>
    <path id="Trazado_884161" data-name="Trazado 884161" d="M926.924,182.758a.21.21,0,0,1-.21-.209c0-.216-.083-21.752,1.11-30.009.99-6.855,3.357-18.144,3.38-18.257a.21.21,0,1,1,.411.086c-.024.113-2.387,11.389-3.376,18.231-1.188,8.226-1.107,29.731-1.106,29.947a.21.21,0,0,1-.209.211Z" transform="translate(-732.213 -105.968)" fill="#281d57"/>
    <path id="Trazado_884162" data-name="Trazado 884162" d="M976.294,205.617a5.915,5.915,0,1,0,5.915-5.915,5.915,5.915,0,0,0-5.915,5.915" transform="translate(-771.388 -157.788)" fill="#fff"/>
    <path id="Trazado_884163" data-name="Trazado 884163" d="M986.949,213.208H989.8v-2.852h1.654v2.852h2.852v1.654h-2.852v2.852H989.8v-2.852h-2.852Z" transform="translate(-779.806 -166.206)" fill="#bee00f"/>
    <path id="Trazado_884164" data-name="Trazado 884164" d="M873.515,237.323a.21.21,0,0,1-.209-.191,68.594,68.594,0,0,1,3.015-26.927.21.21,0,0,1,.394.146,68.152,68.152,0,0,0-2.991,26.744.21.21,0,0,1-.191.228h-.019" transform="translate(-689.814 -165.978)" fill="#281d57"/>
    <path id="Trazado_884165" data-name="Trazado 884165" d="M327.018,442.145h5.868a6.814,6.814,0,0,1,5.5,2.789l12.282,16.785a2.537,2.537,0,0,1-2.05,4.034H278.5a9.391,9.391,0,0,1-9.366-10.311c.788-7.721,6.508-19.154,27.839-32.121l19.362-11.774-.15.2c17.9,8.593,19.366,22.858,10.9,30.336l-.069.062" transform="translate(-212.608 -325.171)" fill="#fff"/>
    <path id="Trazado_884166" data-name="Trazado 884166" d="M432.775,572.525a.21.21,0,0,1-.118-.384l23.413-15.774a.21.21,0,0,1,.234.348l-23.413,15.773a.208.208,0,0,1-.117.036" transform="translate(-341.777 -439.567)" fill="#281d57"/>
    <path id="Trazado_884167" data-name="Trazado 884167" d="M520.417,595.275h-.023a.21.21,0,0,1-.185-.232,34.209,34.209,0,0,0-3.38-18.9.21.21,0,0,1,.375-.188,34.63,34.63,0,0,1,3.422,19.132.21.21,0,0,1-.208.187" transform="translate(-408.338 -454.981)" fill="#281d57"/>
    <path id="Trazado_884168" data-name="Trazado 884168" d="M569.121,583.4a.21.21,0,0,1-.208-.184,39.378,39.378,0,0,0-10.019-21.675.21.21,0,0,1,.309-.284,39.8,39.8,0,0,1,10.127,21.908.21.21,0,0,1-.183.234h-.026" transform="translate(-441.549 -443.404)" fill="#281d57"/>
    <path id="Trazado_884169" data-name="Trazado 884169" d="M311.131,578.275a.209.209,0,0,1-.142-.055c-3.06-2.8-4.316-7.681-3.2-12.422.869-3.689,2.979-7.312,6.64-11.4a.21.21,0,0,1,.313.28c-3.613,4.036-5.693,7.6-6.545,11.219-1.082,4.6.125,9.313,3.075,12.017a.21.21,0,0,1-.142.365" transform="translate(-242.872 -437.982)" fill="#281d57"/>
    <path id="Trazado_884170" data-name="Trazado 884170" d="M347.832,465.924H277.714a9.66,9.66,0,0,1-7.158-3.18,9.558,9.558,0,0,1-2.417-7.363c.7-6.9,4.923-13.959,12.537-20.967a.21.21,0,0,1,.284.309c-7.537,6.937-11.71,13.9-12.4,20.7a9.138,9.138,0,0,0,2.311,7.039,9.24,9.24,0,0,0,6.846,3.041h70.119a2.327,2.327,0,0,0,1.881-3.7l-12.282-16.785a6.626,6.626,0,0,0-5.33-2.7h-5.868a.21.21,0,0,1-.14-.366l.071-.063a14,14,0,0,0,4.782-12.568c-.953-6.852-6.506-13.039-15.638-17.422a.21.21,0,0,1,.182-.378c9.262,4.446,14.9,10.747,15.872,17.743a14.38,14.38,0,0,1-4.583,12.635H332.1a7.047,7.047,0,0,1,5.669,2.875l12.282,16.785a2.747,2.747,0,0,1-2.22,4.368" transform="translate(-211.823 -325.133)" fill="#281d57"/>
    <path id="Trazado_884171" data-name="Trazado 884171" d="M103.008,602.716l13.881-.012,8.051-9.616-4.576-3.052-2.895,2.512-12.451.011Z" transform="translate(-81.388 -466.198)" fill="#fff"/>
    <path id="Trazado_884172" data-name="Trazado 884172" d="M102.217,611.033a.21.21,0,0,1-.206-.251l2.01-10.157a.21.21,0,0,1,.2-.169l11.87-.16a.21.21,0,1,1,.006.42l-11.7.157-1.928,9.739L116.1,610.6h0a.21.21,0,0,1,0,.42l-13.881.012Z" transform="translate(-80.598 -474.306)" fill="#281d57"/>
    <path id="Trazado_884173" data-name="Trazado 884173" d="M10.036,571.4a5.822,5.822,0,0,0-4.1-1.944,5.728,5.728,0,0,0-4.67,2.639,8.493,8.493,0,0,0-1.236,5.345,16.869,16.869,0,0,0,1.487,5.36,15.616,15.616,0,0,0,2.953,4.743,7.6,7.6,0,0,0,4.92,2.436c-.094.882.926,1.774,1.811,1.839,2.863.209,3.841.07,6.6.174,2.477.094,4.1-2.408,4.575-4.838a9.234,9.234,0,0,0-2.595-7.932,14.08,14.08,0,0,0-6-3.555c-1.064-.335-1.585-.241-2-1.325a8.975,8.975,0,0,0-1.739-2.94" transform="translate(0 -449.937)" fill="#281d57"/>
    <path id="Trazado_884174" data-name="Trazado 884174" d="M52.786,597.61a2.349,2.349,0,0,0-.386,2.649,2.479,2.479,0,0,0,2.216.988,3.424,3.424,0,0,0,2.857-1.583,2.8,2.8,0,0,0-.22-3.183,10.458,10.458,0,0,0,2.192-7.26,5.887,5.887,0,0,0-1.668-3.922,5.2,5.2,0,0,0-2.745-1.214,11.407,11.407,0,0,0-3.037.037,28.6,28.6,0,0,0-8.423,2.358,3.616,3.616,0,0,0-1.19.756,3.3,3.3,0,0,0-.716,1.838,8.618,8.618,0,0,0,.5,4.493,6.07,6.07,0,0,0,3.075,3.24,7.222,7.222,0,0,0,4.312.287A7.6,7.6,0,0,0,51.4,596.4c.5-.251.77-.442,1.012-.338.4.173.408,1.025.378,1.543" transform="translate(-32.847 -461.428)" fill="#fff"/>
    <path id="Trazado_884175" data-name="Trazado 884175" d="M53.752,600.666a2.6,2.6,0,0,1-2.323-1.093,2.54,2.54,0,0,1,.361-2.835c.04-.837-.1-1.205-.255-1.27-.1-.043-.268.039-.578.2-.078.041-.164.085-.257.132a7.777,7.777,0,0,1-1.893.709,7.414,7.414,0,0,1-4.438-.3,6.28,6.28,0,0,1-3.185-3.352,8.819,8.819,0,0,1-.515-4.6,3.515,3.515,0,0,1,.77-1.953,3.818,3.818,0,0,1,1.256-.8,28.731,28.731,0,0,1,8.484-2.376,11.621,11.621,0,0,1,3.093-.036,5.384,5.384,0,0,1,2.855,1.266,6.137,6.137,0,0,1,1.736,4.06,10.668,10.668,0,0,1-2.134,7.275,3.027,3.027,0,0,1,.133,3.293,3.644,3.644,0,0,1-3.033,1.685h-.078m-2.276-5.63a.557.557,0,0,1,.224.047c.4.171.563.743.5,1.748a.212.212,0,0,1-.049.123,2.137,2.137,0,0,0-.366,2.408,2.246,2.246,0,0,0,2.031.884,3.216,3.216,0,0,0,2.68-1.48,2.576,2.576,0,0,0-.2-2.938.21.21,0,0,1-.006-.268,10.241,10.241,0,0,0,2.148-7.113,5.731,5.731,0,0,0-1.6-3.784,4.967,4.967,0,0,0-2.635-1.161,11.23,11.23,0,0,0-2.98.038,28.309,28.309,0,0,0-8.361,2.341,3.416,3.416,0,0,0-1.123.708,3.14,3.14,0,0,0-.662,1.724,8.4,8.4,0,0,0,.486,4.384,5.855,5.855,0,0,0,2.965,3.129,7,7,0,0,0,4.187.274,7.4,7.4,0,0,0,1.789-.673c.091-.045.174-.089.25-.128a1.69,1.69,0,0,1,.714-.261M52,596.818h0Z" transform="translate(-32.057 -460.636)" fill="#281d57"/>
    <path id="Trazado_884176" data-name="Trazado 884176" d="M106.225,646.306a.209.209,0,0,1-.17-.087,2.3,2.3,0,0,1-.228-2.255.21.21,0,1,1,.383.172,1.879,1.879,0,0,0,.186,1.838.21.21,0,0,1-.17.332" transform="translate(-83.462 -508.71)" fill="#281d57"/>
    <path id="Trazado_884177" data-name="Trazado 884177" d="M550.219,534.154,612.225,522.5l64.017,8.324,12.16-10.462a2.39,2.39,0,0,1,3.893,2.331l-6.466,28.811-139.967.358Z" transform="translate(-431.295 -410.685)" fill="#281d57"/>
    <path id="Trazado_884178" data-name="Trazado 884178" d="M545.071,551.289a.21.21,0,0,1-.2-.26l4.357-17.711a.21.21,0,0,1,.165-.156L611.4,521.511a.211.211,0,0,1,.066,0l63.924,8.312,12.089-10.4a2.6,2.6,0,0,1,4.235,2.535l-6.466,28.811a.21.21,0,0,1-.2.164l-139.967.358Zm4.529-17.74-4.261,17.319,139.531-.357,6.429-28.648a2.125,2.125,0,0,0-1.005-2.343,2.152,2.152,0,0,0-2.546.217L675.588,530.2a.209.209,0,0,1-.164.049l-63.984-8.32Z" transform="translate(-430.504 -409.899)" fill="#281d57"/>
    <path id="Trazado_884179" data-name="Trazado 884179" d="M1152.42,588.5a.21.21,0,0,1-.209-.19,35.327,35.327,0,0,1,2.828-16.763.21.21,0,0,1,.378.183,34.883,34.883,0,0,0-2.788,16.541.21.21,0,0,1-.189.229h-.02" transform="translate(-910.281 -451.496)" fill="#fff"/>
    <path id="Trazado_884180" data-name="Trazado 884180" d="M490.242,506.449H482.01V483.387l8.232-2.807,55.565-15.79a15.055,15.055,0,0,1,12.792.545l67.187,31.838,14.451,6.327c2.111.925,1.512,4.449-.754,4.434l-37.489-.249a7.8,7.8,0,0,1-3.093-.667l-46.6-14.881Z" transform="translate(-380.845 -366.315)" fill="#281d57"/>
    <path id="Trazado_884181" data-name="Trazado 884181" d="M712.294,613.794a.2.2,0,0,1-.064-.01l-46.543-14.863-39.905,9.2a.21.21,0,1,1-.094-.409L665.65,598.5a.21.21,0,0,1,.111,0l46.6,14.881a.21.21,0,0,1-.064.41" transform="translate(-494.239 -472.881)" fill="#fff"/>
    <path id="Trazado_884182" data-name="Trazado 884182" d="M1058.784,571.572a.208.208,0,0,1-.084-.018l-11.231-4.917-31.536-14.944a.21.21,0,1,1,.18-.379l31.53,14.941,11.225,4.915a.21.21,0,0,1-.084.4" transform="translate(-802.613 -435.588)" fill="#fff"/>
    <path id="Trazado_884183" data-name="Trazado 884183" d="M1011.849,609.249a.21.21,0,0,1-.138-.368c.077-.068,7.882-6.809,21.5-11.181a.21.21,0,0,1,.129.4c-13.536,4.346-21.275,11.031-21.351,11.1a.209.209,0,0,1-.138.052" transform="translate(-799.315 -472.246)" fill="#fff"/>
    <path id="Trazado_884184" data-name="Trazado 884184" d="M152.208,578.619c-3.945-.089-6.5-4.618-5.393-8.062A22.591,22.591,0,0,1,153.356,561c3.493-3.225,11.493-6.2,19.2-7.02,9.9-1.058,38.838-1.356,44.363-1.4a.9.9,0,0,1,.912.91l-.155,23.99s-47.621,1.547-65.466,1.145" transform="translate(-115.796 -436.599)" fill="#bee00f"/>
    <path id="Trazado_884185" data-name="Trazado 884185" d="M516.3,624.706c-4.575-.873-15.269-2.331-25-3.594a8.637,8.637,0,0,0-2.93,4.231,17.54,17.54,0,0,0-.575,6.927l32.668.388c.818-6.28-4.159-7.953-4.159-7.953" transform="translate(-385.297 -490.752)" fill="#fff"/>
    <path id="Trazado_884186" data-name="Trazado 884186" d="M519.669,632.078h0L487,631.69a.21.21,0,0,1-.2-.176,17.869,17.869,0,0,1,.578-7.011,8.727,8.727,0,0,1,3-4.344.212.212,0,0,1,.16-.046c12.788,1.658,21.205,2.868,25.017,3.6l.027.007c.051.017,5.13,1.8,4.3,8.179a.21.21,0,0,1-.208.183m-32.488-.806,32.3.384c.657-5.78-3.7-7.422-4.027-7.537-3.8-.725-12.175-1.928-24.887-3.577a8.38,8.38,0,0,0-2.789,4.062,17.785,17.785,0,0,0-.6,6.669" transform="translate(-384.507 -489.962)" fill="#281d57"/>
    <path id="Trazado_884187" data-name="Trazado 884187" d="M272.81,595.828a20.584,20.584,0,0,1,1.83-4.309.66.66,0,0,0-.5-.974c-12-1.52-58.291-6.889-58.291-6.889l-2.919,19.486,59.128-.033a.333.333,0,0,0,.33-.38,19.538,19.538,0,0,1,.418-6.9" transform="translate(-168.244 -461.157)" fill="#bee00f"/>
    <path id="Trazado_884188" data-name="Trazado 884188" d="M280.132,589.641h-.026l-54.08-6.566a.21.21,0,0,1,.051-.417l54.08,6.565a.21.21,0,0,1-.025.418" transform="translate(-178.442 -460.367)" fill="#281d57"/>
    <path id="Trazado_884189" data-name="Trazado 884189" d="M598.32,650.215H598.3a.21.21,0,0,1-.191-.227,3.7,3.7,0,0,0-1.469-3.184,8.044,8.044,0,0,0-2.753-1.2l-5.768-1.7a.21.21,0,0,1,.119-.4l5.768,1.7a8.492,8.492,0,0,1,2.892,1.275,4.123,4.123,0,0,1,1.631,3.553.21.21,0,0,1-.209.192" transform="translate(-464.565 -508.434)" fill="#281d57"/>
    <path id="Trazado_884190" data-name="Trazado 884190" d="M243,113.574c2.471-.192,5.155-.62,6.827-2.448,1.63-1.782,1.852-4.427,1.692-6.835-.619-9.327-5.639-17.865-11.85-24.856a66.559,66.559,0,0,1-6.1-7.24c-1.41-2.134-2.457-4.488-3.846-6.635a16.035,16.035,0,0,0-5.63-5.522,9.542,9.542,0,0,0-7.7-.791,7.976,7.976,0,0,0-5.094,6.715,7,7,0,0,0-7.788,2.954,9.926,9.926,0,0,0-.769,8.616c.508,1.456,1.3,2.884,1.227,4.424-.081,1.813-1.325,3.337-2.508,4.715l-4.993,5.815c-.848.988-1.755,2.236-1.348,3.472a3.762,3.762,0,0,0,1.181,1.515c5.371,4.83,11.418,9.616,17.921,12.837,5.019,2.486,11.789,2.8,17.284,3.247a72.728,72.728,0,0,0,11.489.018" transform="translate(-154.093 -46.428)" fill="#281d57"/>
    <path id="Trazado_884191" data-name="Trazado 884191" d="M203.966,289.063l18.152,9.573-9.111,19.889s8.964,21,10.365,29.974c.094.6,1.157,2.8-.247,2.772-.879-.018-2.4-2.423-2.431-2.319-.124.416-.275,1.986-.462,2.319-.211.374-1.42-.412-1.74-.915-.192-.3-.229,1-.572,1.45a4.3,4.3,0,0,1-2.04-1.955,1.816,1.816,0,0,0-.474.7s-1.36.707-2.541-1.777c-.279-.587-7.523-14.578-12.78-23.7-2.9-5.042-4.34-11.116-2.546-16.65Z" transform="translate(-155.453 -228.394)" fill="#fff"/>
    <path id="Trazado_884192" data-name="Trazado 884192" d="M216.992,340.445a.853.853,0,0,1-.1-.006c-.738-.086-1.428-1.194-1.768-1.835a1.327,1.327,0,0,1-.733.676,1.672,1.672,0,0,1-1.569-.558,5.078,5.078,0,0,1-1.038-1.753c-.226-.5-.482-1.075-.84-1.746-.85-1.592-2.01-3.664-3.352-6.063-3.3-5.892-7.4-13.225-10.013-18.943a19.067,19.067,0,0,1-.793-13.858l7.073-21.752a.21.21,0,0,1,.4.13l-7.073,21.752a18.645,18.645,0,0,0,.776,13.554c2.607,5.7,6.7,13.027,10,18.912,1.344,2.4,2.5,4.476,3.356,6.071.365.683.636,1.287.853,1.772a4.883,4.883,0,0,0,.932,1.609c.465.41.857.569,1.164.473.462-.145.635-.833.636-.84a.21.21,0,0,1,.4-.037c.337.746,1.083,1.953,1.646,2.019a.282.282,0,0,0,.252-.08,2.438,2.438,0,0,0,.23-1.554.21.21,0,0,1,.4-.109c.168.381.727,1.373,1.3,1.384a.33.33,0,0,0,.264-.121c.466-.52.35-2.315.265-2.963a.21.21,0,0,1,.406-.1c.009.026.925,2.558,2.238,2.949.277.082.364-.007.392-.036.612-.625-.577-4.32-1.532-7.289-.413-1.284-.8-2.5-1.087-3.54-1.456-5.356-8-21.413-8.069-21.575a.209.209,0,0,1,0-.169L220.8,288.2a.21.21,0,0,1,.379.179l-8.752,18.543c.521,1.28,6.644,16.361,8.051,21.538.281,1.035.67,2.242,1.081,3.521,1.342,4.171,2.166,6.961,1.432,7.711a.756.756,0,0,1-.812.144,4.114,4.114,0,0,1-2.025-2.117,3.464,3.464,0,0,1-.451,2.107.748.748,0,0,1-.585.261,1.767,1.767,0,0,1-1.256-.9,1.709,1.709,0,0,1-.365,1.051.689.689,0,0,1-.5.206" transform="translate(-154.743 -216.859)" fill="#281d57"/>
    <path id="Trazado_884193" data-name="Trazado 884193" d="M269.667,419.5a.209.209,0,0,1-.2-.137l-.916-2.481a.21.21,0,1,1,.394-.145l.915,2.482a.21.21,0,0,1-.124.269.217.217,0,0,1-.073.013" transform="translate(-212.18 -329.159)" fill="#281d57"/>
    <path id="Trazado_884194" data-name="Trazado 884194" d="M275.154,552.407a.209.209,0,0,1-.209-.2c-.082-1.8-1.3-3.955-3.1-6.644a.21.21,0,0,1,.349-.234c1.839,2.747,3.081,4.965,3.167,6.859a.21.21,0,0,1-.2.219h-.01" transform="translate(-214.764 -430.8)" fill="#281d57"/>
    <path id="Trazado_884195" data-name="Trazado 884195" d="M286.74,550.785a.21.21,0,0,1-.2-.161,25.2,25.2,0,0,0-3.218-7.425.21.21,0,0,1,.36-.216,25.586,25.586,0,0,1,3.266,7.542.21.21,0,0,1-.2.259" transform="translate(-223.831 -428.94)" fill="#281d57"/>
    <path id="Trazado_884196" data-name="Trazado 884196" d="M301.857,549.464h-.008a.21.21,0,0,1-.2-.218,8.5,8.5,0,0,0-2.064-5.918.21.21,0,1,1,.3-.3,8.786,8.786,0,0,1,2.185,6.23.21.21,0,0,1-.21.2" transform="translate(-236.658 -429.011)" fill="#281d57"/>
    <path id="Trazado_884197" data-name="Trazado 884197" d="M318.275,241.889l-40.583,10.386-19.671-48.743,8.277-11.226c-.321-1.17.759-2.966,2.743-3.4,3.772-.82,12.879-4.7,15.6-1.17.649.842.555,1.674,1.25,4.065.415,1.427,17.991,13.046,17.991,13.046l15.37,35.033a1.464,1.464,0,0,1-.979,2.007" transform="translate(-203.867 -147.18)" fill="#bee00f"/>
    <path id="Trazado_884198" data-name="Trazado 884198" d="M228.131,236.587l-5.055,8.856-18.462-9.551s5.385-16.577,9.836-21.572c6.9-7.739,11.564-8.623,11.564-8.623l4.4,23-1.4,5.874Z" transform="translate(-161.668 -162.525)" fill="#bee00f"/>
    <path id="Trazado_884199" data-name="Trazado 884199" d="M290.319,348.089a.21.21,0,0,1-.2-.133l-2.894-7.3a.21.21,0,0,1,.39-.155l2.894,7.3a.21.21,0,0,1-.118.273.213.213,0,0,1-.077.015" transform="translate(-226.934 -268.932)" fill="#281d57"/>
    <path id="Trazado_884200" data-name="Trazado 884200" d="M323.7,302.421c-3.171,1.285-18.935,4.167-18.935,4.167l1.352,19.822-13.362,12.464s-10,9.888-9.9,14.523a2.306,2.306,0,0,0-.407,2.846s-.991,1.877-.616,2.867,1.725.167,3.141-1.821a2.161,2.161,0,0,0-.538,2.616c.827,1.432,5.467-3.944,9.137-6.777,0,0-3,2.966-3.465,4.357s.652,2.463,3.229-.085c1.789-1.768,5.131-4.7,7.009-6.325.438-.379,12.859-11.271,20.011-17.542,3.144-2.757,5.092-4.926,4.841-10.933-.354-8.469-1.267-18.549-1.5-20.179" transform="translate(-222.616 -238.948)" fill="#fff"/>
    <path id="Trazado_884201" data-name="Trazado 884201" d="M297.027,542.7a.21.21,0,0,1-.175-.326,20.768,20.768,0,0,1,4.469-4.856.21.21,0,0,1,.26.33,20.345,20.345,0,0,0-4.379,4.758.209.209,0,0,1-.175.094" transform="translate(-234.521 -424.667)" fill="#281d57"/>
    <path id="Trazado_884202" data-name="Trazado 884202" d="M285.769,534.98a.21.21,0,0,1-.184-.31,20.015,20.015,0,0,1,4.8-5.852.21.21,0,0,1,.268.323,19.593,19.593,0,0,0-4.7,5.728.21.21,0,0,1-.185.11" transform="translate(-225.625 -417.791)" fill="#281d57"/>
    <path id="Trazado_884203" data-name="Trazado 884203" d="M286.236,529.306a.21.21,0,0,1-.179-.318,18.5,18.5,0,0,1,3.666-4.145.21.21,0,0,1,.274.318,18.091,18.091,0,0,0-3.581,4.044.209.209,0,0,1-.18.1" transform="translate(-225.994 -414.647)" fill="#281d57"/>
    <path id="Trazado_884204" data-name="Trazado 884204" d="M284.079,492.831a.8.8,0,0,1-.124-.009.657.657,0,0,1-.483-.334,2.04,2.04,0,0,1-.288-1.185c-.656.645-1.243.967-1.7.908a.771.771,0,0,1-.633-.548c-.355-.935.363-2.508.573-2.934a2.5,2.5,0,0,1,.434-2.936c-.049-2.491,1.63-4.987,3.105-6.888,1.207-1.556,5.326-6.787,7.661-8.766a.21.21,0,1,1,.271.32c-2.363,2-6.746,7.6-7.6,8.7-1.449,1.869-3.1,4.319-3.015,6.705a.211.211,0,0,1-.066.161,2.08,2.08,0,0,0-.372,2.582.21.21,0,0,1,.008.209c-.263.5-.885,1.957-.605,2.695.087.229.21.27.294.281.358.046,1.067-.391,1.935-1.439a3.012,3.012,0,0,1,.577-.747.21.21,0,0,1,.309.28q-.284.4-.561.735a1.666,1.666,0,0,0,.034,1.654.237.237,0,0,0,.182.129c.761.116,2.82-1.782,4.811-3.618,1.279-1.179,2.6-2.4,3.834-3.349a.21.21,0,0,1,.276.315c-.03.029-2.973,2.946-3.413,4.274-.167.5-.1.935.164,1.1.386.24,1.3,0,2.719-1.4,1.8-1.78,5.17-4.733,7.019-6.335.255-.221,9.018-7.849,12.466-10.874a.21.21,0,1,1,.277.315c-3.449,3.025-12.214,10.655-12.468,10.876-1.845,1.6-5.208,4.545-7,6.316-1.369,1.354-2.548,1.885-3.235,1.459a1.312,1.312,0,0,1-.341-1.589,7.584,7.584,0,0,1,1.266-1.972c-.428.388-.856.782-1.279,1.173-2.489,2.294-4.1,3.733-5.035,3.733" transform="translate(-221.832 -371.426)" fill="#281d57"/>
    <path id="Trazado_884205" data-name="Trazado 884205" d="M372.794,199.242s7.943-.356,13.44,5.674a33.437,33.437,0,0,1,7.777,14.824c.982,3.582,3.416,14.708,3.416,14.708l-24.235,4.662-1.979-17.765-1.228-15.2Z" transform="translate(-292.332 -157.422)" fill="#bee00f"/>
    <path id="Trazado_884206" data-name="Trazado 884206" d="M379.87,329.331a.21.21,0,0,1-.208-.183l-1.987-15.636a.21.21,0,0,1,.417-.053l1.959,15.414,1.122-.216a.21.21,0,1,1,.079.412l-1.342.258a.213.213,0,0,1-.04,0" transform="translate(-298.406 -247.525)" fill="#281d57"/>
    <path id="Trazado_884207" data-name="Trazado 884207" d="M479.14,299.31a.21.21,0,0,1-.045-.415l1.769-.392L476.592,281a.21.21,0,0,1,.408-.1l4.323,17.711a.21.21,0,0,1-.158.255l-1.978.439a.214.214,0,0,1-.046.005" transform="translate(-376.559 -221.818)" fill="#281d57"/>
    <path id="Trazado_884208" data-name="Trazado 884208" d="M408.255,300.844a5.278,5.278,0,1,0,5.278-5.278,5.278,5.278,0,0,0-5.278,5.278" transform="translate(-322.57 -233.532)" fill="#fff"/>
    <path id="Trazado_884209" data-name="Trazado 884209" d="M417.761,307.617h2.545v-2.545h1.476v2.545h2.545v1.476h-2.545v2.545h-1.476v-2.545h-2.545Z" transform="translate(-330.081 -241.043)" fill="#bee00f"/>
    <path id="Trazado_884210" data-name="Trazado 884210" d="M357.219,257a3.881,3.881,0,1,1,3.884-3.881A3.887,3.887,0,0,1,357.219,257m0-7.343a3.461,3.461,0,1,0,3.464,3.461,3.443,3.443,0,0,0-3.464-3.461" transform="translate(-279.176 -196.926)" fill="#281d57"/>
    <path id="Trazado_884211" data-name="Trazado 884211" d="M362.038,260.535a2.6,2.6,0,1,1,2.6-2.6,2.606,2.606,0,0,1-2.6,2.6m0-4.784a2.182,2.182,0,1,0,2.184,2.182,2.185,2.185,0,0,0-2.184-2.182" transform="translate(-283.995 -201.742)" fill="#281d57"/>
    <path id="Trazado_884212" data-name="Trazado 884212" d="M289.22,299.49l.538.092a.575.575,0,0,1-.193,1.133l-.538-.092a.575.575,0,1,1,.193-1.133" transform="translate(-227.988 -236.626)" fill="#281d57"/>
    <path id="Trazado_884213" data-name="Trazado 884213" d="M276.687,240.928a3.884,3.884,0,0,1-3.851-3.43l-.895-7.7c-.243-2.092-.3-4.218.886-5.593a5.138,5.138,0,0,1,3.957-1.474c2.239-.062,3.758.407,4.649,1.434s1.116,2.52.739,4.733l-1.305,7.64a3.884,3.884,0,0,1-4.477,3.17.21.21,0,0,1,.07-.414,3.463,3.463,0,0,0,3.993-2.826l1.305-7.64c.355-2.079.151-3.473-.642-4.387s-2.218-1.347-4.32-1.29a4.755,4.755,0,0,0-3.651,1.329c-1.084,1.252-1.019,3.272-.787,5.269l.895,7.7a3.464,3.464,0,0,0,3.836,3.036.21.21,0,0,1,.048.417,3.933,3.933,0,0,1-.45.026" transform="translate(-214.753 -175.981)" fill="#281d57"/>
    <path id="Trazado_884214" data-name="Trazado 884214" d="M294.884,305.358l.542-.063a.574.574,0,0,1,.132,1.141l-.542.063a.574.574,0,1,1-.132-1.141" transform="translate(-232.592 -241.216)" fill="#281d57"/>
    <path id="Trazado_884215" data-name="Trazado 884215" d="M311.405,197.638a.206.206,0,0,1-.069-.012.21.21,0,0,1-.129-.267,43.86,43.86,0,0,0,1.247-5.655c.649-3.658.441-6.089-2.538-7.669h-5.3a10.7,10.7,0,0,0-7.207,3.032,6.229,6.229,0,0,0-1.607,4.95.21.21,0,1,1-.418.037,6.633,6.633,0,0,1,1.716-5.271,11.163,11.163,0,0,1,7.517-3.168h5.352a.211.211,0,0,1,.1.024c3.585,1.875,3.35,5.048,2.8,8.139a43.062,43.062,0,0,1-1.265,5.72.21.21,0,0,1-.2.14" transform="translate(-233.363 -145.078)" fill="#281d57"/>
    <path id="Trazado_884216" data-name="Trazado 884216" d="M311.338,142.94l6.163,11.405-7.059,9.524L303.066,149.8Z" transform="translate(-239.458 -112.94)" fill="#fff"/>
    <path id="Trazado_884217" data-name="Trazado 884217" d="M303.736,153.694a.21.21,0,0,1-.187-.114l-2.23-4.336a.21.21,0,0,1,.052-.258l8.433-7a.21.21,0,0,1,.316.057l5.064,8.814a.21.21,0,0,1-.364.209l-4.94-8.6-8.111,6.731,2.153,4.186a.21.21,0,0,1-.186.306" transform="translate(-238.059 -112.149)" fill="#281d57"/>
    <path id="Trazado_884218" data-name="Trazado 884218" d="M278.823,123.7l.438-1.28a2.929,2.929,0,0,1,3.941-1.164c2.741,1.17,2.422,6.609-3.26,6.559,0,0-1.72,6.452-7.64,7.347-4.151.628-9.634-5.983-7.66-14.464a8.221,8.221,0,0,0,4.83-1.314,10.662,10.662,0,0,0,9.351,4.316" transform="translate(-208.77 -94.329)" fill="#fff"/>
    <path id="Trazado_884219" data-name="Trazado 884219" d="M270.947,134.627a6.4,6.4,0,0,1-4.508-2.331,13.763,13.763,0,0,1-2.794-12.433.211.211,0,0,1,.222-.162,8.077,8.077,0,0,0,4.694-1.278.21.21,0,0,1,.3.061,10.523,10.523,0,0,0,9.022,4.224l.392-1.143a.22.22,0,0,1,.012-.028,3.154,3.154,0,0,1,4.21-1.261,3.229,3.229,0,0,1,1.724,3.69c-.329,1.574-1.793,3.245-4.91,3.273-.317,1-2.3,6.519-7.765,7.345a4,4,0,0,1-.594.044m-6.932-14.5a13.309,13.309,0,0,0,2.732,11.882c1.48,1.6,3.2,2.387,4.732,2.157,5.712-.863,7.451-7.131,7.468-7.194a.209.209,0,0,1,.2-.156h.075c2.921,0,4.28-1.513,4.578-2.939a2.809,2.809,0,0,0-1.477-3.217,2.7,2.7,0,0,0-3.665,1.054l-.433,1.264a.21.21,0,0,1-.19.142,11.042,11.042,0,0,1-9.414-4.238,8.417,8.417,0,0,1-4.61,1.245m14.015,2.783h0Z" transform="translate(-207.979 -93.54)" fill="#281d57"/>
    <path id="Trazado_884220" data-name="Trazado 884220" d="M340.577,139.778a.21.21,0,0,1-.187-.3,4.338,4.338,0,0,1,2.428-2.119.21.21,0,1,1,.137.4,3.916,3.916,0,0,0-2.191,1.913.21.21,0,0,1-.187.115" transform="translate(-268.931 -108.516)" fill="#281d57"/>
  </g>
</svg>
