<svg xmlns="http://www.w3.org/2000/svg" xmlns:xlink="http://www.w3.org/1999/xlink" width="176.75" height="28.415" viewBox="0 0 176.75 28.415">
  <defs>
    <clipPath id="clip-path">
      <rect id="Rectángulo_403457" data-name="Rectángulo 403457" width="176.75" height="28.415" transform="translate(0 0)" fill="none"/>
    </clipPath>
  </defs>
  <g id="Grupo_1103084" data-name="Grupo 1103084" transform="translate(0 0)">
    <g id="Grupo_1103083" data-name="Grupo 1103083" clip-path="url(#clip-path)">
      <path id="Trazado_882538" data-name="Trazado 882538" d="M169.813,28.415H6.938a6.938,6.938,0,0,1,0-13.875H169.813a6.938,6.938,0,0,1,0,13.875" fill="#3e8ff2"/>
      <path id="Trazado_882539" data-name="Trazado 882539" d="M35.26,12.311c.761.052,2.057.535,2.454-.2,1.062-1.96,2.8-3.454,4.159-5.222a3.786,3.786,0,0,0,.234-.33,23.434,23.434,0,0,0-3.658.15C37.4,6.8,35.98,6.989,35.1,6.259a1.11,1.11,0,0,1-.327-.609c-.319-1.266.318-2.742-.363-3.853a.926.926,0,0,0-.611-.468,1.929,1.929,0,0,0-.473.021c-.482.011-.915-.319-1.393-.377a4.823,4.823,0,0,0-1.187.127A1.234,1.234,0,0,1,29.98.986c-.218-.141-.308-.441-.433-.655-.088-.172-.225-.357-.4-.328-.129.022-.214.135-.308.228a2.166,2.166,0,0,1-.522.362,6.851,6.851,0,0,1-2.187.923,3.212,3.212,0,0,1-1.8-.479A4.361,4.361,0,0,0,21.186.812,6.5,6.5,0,0,0,17.881,3.2a8.318,8.318,0,0,0-.823,7.8c.077.2.164.393.252.575A9.954,9.954,0,0,0,21.218,15.8a5.185,5.185,0,0,0,1.09.507,6.2,6.2,0,0,0,1.2.178,13.282,13.282,0,0,0,3.9-.222,6.4,6.4,0,0,0,3.354-1.9,6.151,6.151,0,0,1,4.495-2.055" fill="#e8b894"/>
      <path id="Trazado_882540" data-name="Trazado 882540" d="M166.641,4.881a3.261,3.261,0,0,0-.31.33,1.834,1.834,0,0,0-.23.74,8.158,8.158,0,0,1-2,4.1,7.9,7.9,0,0,0-1.38,1.57c-.58,1.04-.72,3.79-2.53,3.07a6.2,6.2,0,0,1-1.09-.68c-3.25-2.15-8.46-.54-11.88.21a47.119,47.119,0,0,1-21.99-.55,20.364,20.364,0,0,0-6.01-1.331c-4.58.041-10.04,2.641-14.45,3.881a135.171,135.171,0,0,1-16.88,3.84l-.43.06c-5.17.69-6.6-.29-10.61-3.18a6.642,6.642,0,0,0-2-.93c-.3-.09-.6-.16-.9-.23-.42-.09-.85-.17-1.27-.23-4.85-.72-9.83.43-14.73,1.07a65.019,65.019,0,0,1-12.056.4c-2.436-.134-4.99-.8-6.654-2.586-.447-.48-.885-1.342-1.488-1.63-.666-.317-.97.064-.785-.921a46.694,46.694,0,0,1,1.283-4.753.773.773,0,0,1,.13-.291.915.915,0,0,1,.38-.219,39.956,39.956,0,0,1,4.55-1.42c.76-.2,1.51-.42,2.26-.65.81-.26,1.61-.53,2.4-.82,2.21-.79,4.36-1.88,6.64-2.45a4.378,4.378,0,0,1,2.06-.14,6.257,6.257,0,0,1,1.57.74A10.693,10.693,0,0,0,62.7,3.26a32.544,32.544,0,0,1,4.74.891q2.67.539,5.39.85c.5.06.99.11,1.49.16.98.08,1.96.15,2.94.19,2.94.15,5.88.11,8.82-.02.81-.03,1.63-.071,2.44-.12,2.86-.17,5.73-.39,8.59-.6,13.77-1.01,27.07.07,40.71,2.03,4.72.68,9.45,1.449,14.22,1.66a42.748,42.748,0,0,0,7.33-.22,6.13,6.13,0,0,0,3.35-1.491,18.134,18.134,0,0,0,3.08-3c.96-1.3,1.74.361.84,1.291" fill="#e8b894"/>
      <path id="Trazado_882541" data-name="Trazado 882541" d="M87.461,20.121c-5.17.69-6.6-.29-10.61-3.18a6.642,6.642,0,0,0-2-.93c-.3-.09-.6-.16-.9-.23-.42-.09-.85-.17-1.27-.23a22.817,22.817,0,0,1-.01-2.48,19.605,19.605,0,0,1,1.23-7.05c.13-.29.27-.58.42-.86.98.08,1.96.15,2.94.19,2.94.15,5.88.11,8.82-.02-.38.49-.89.96-1.29,1.45a9.448,9.448,0,0,0-2.32,5.89,7.722,7.722,0,0,0,4.49,7.21c.16.07.33.15.5.24" fill="#c3c3d9"/>
      <path id="Trazado_882542" data-name="Trazado 882542" d="M77.261,5.351q-1.02,5.37-2.41,10.659c-.3-.09-.6-.159-.9-.229a19.158,19.158,0,0,0-2.05-.335,31.78,31.78,0,0,0-7.408.228,69.786,69.786,0,0,1-7.415,1.045c-2.23.034-4.461.781-6.727.918a29.67,29.67,0,0,1-7.226-.444c-1.5-.28-3.132-.785-3.912-2.1a4.508,4.508,0,0,1,.391-4.667c1.144-1.149,2.953-1.09,4.326-1.808C45.113,8,46.944,6.76,45.981,5.15c-.12-.2-.29-.4-.41-.6.81-.26,1.61-.53,2.4-.821,2.21-.789,4.36-1.879,6.64-2.449a4.378,4.378,0,0,1,2.06-.141,6.3,6.3,0,0,1,1.57.741A10.693,10.693,0,0,0,62.7,3.26a32.541,32.541,0,0,1,4.74.89q2.67.54,5.39.85c1.47.17,2.95.291,4.43.351" fill="#e7e7e9"/>
      <path id="Trazado_882543" data-name="Trazado 882543" d="M74.585,22.223c-2.34-.042-4.7.153-7.044.065-2.456-.093-4.908-.272-7.357-.479a76.815,76.815,0,0,1-14.091-2.9c-1.9-.526-4.413-1.132-5.726-2.742a3.767,3.767,0,0,1,.116-4.892c2.275-2.234,4.946-.386,7.294.5l10.139,3.845a19.584,19.584,0,0,0,2.445.805,20.06,20.06,0,0,0,2.127.335q12.095,1.479,24.049,3.9a7.638,7.638,0,0,1,2.5.821,2.624,2.624,0,0,1,1.355,2.136,1.1,1.1,0,0,1-.484.98c-.464.253-1.024-.036-1.488-.29-4.032-2.21-8.718-1.889-13.138-2.068q-.348-.014-.7-.02" fill="#e8b894"/>
      <path id="Trazado_882544" data-name="Trazado 882544" d="M31.259,13.825a5.463,5.463,0,0,0-.494.541,6.4,6.4,0,0,1-3.354,1.9,13.314,13.314,0,0,1-3.9.222,6.1,6.1,0,0,1-1.2-.179,11.075,11.075,0,0,1-5.048-3.311,6.121,6.121,0,0,1-1-2.313,8.881,8.881,0,0,1-.382-3.37A8.116,8.116,0,0,1,19.45,1.164a2.375,2.375,0,0,1,.678-.323c1.394-.357,2.171,1.4,2.618,2.4.184.415.271.851.478,1.248A8.637,8.637,0,0,1,23.813,5.9a8.1,8.1,0,0,1,.349,3.019,1.5,1.5,0,0,0,.007.453,1.054,1.054,0,0,0,.2.387,2.234,2.234,0,0,0,1.484.851c.294.036.593.013.887.043a4.275,4.275,0,0,1,1.868.807,7.464,7.464,0,0,1,2.65,2.364" fill="#613e3a"/>
      <path id="Trazado_882545" data-name="Trazado 882545" d="M7.12,14.483a9.112,9.112,0,0,1-5.395.4,3.5,3.5,0,0,0,1.759,1.876A9.463,9.463,0,0,0,9.939,17.9a8.038,8.038,0,0,0,5.346-3.695,9.04,9.04,0,0,1,1.189-1.9c.545-.547,1.386-.459,1.872-.871.54-.458.274-.645-.351-1.014a5.739,5.739,0,0,0-6.641.543C9.928,12.12,8.815,13.679,7.12,14.483" fill="#613e3a"/>
      <path id="Trazado_882546" data-name="Trazado 882546" d="M29.744,15.555a3.012,3.012,0,0,0-.369.695,1.041,1.041,0,0,0,.777,1.445,20.66,20.66,0,0,0,4.622.267c1.5.042,3.674.385,4.244-1.462a3.489,3.489,0,0,0-2.9-4.254,6.173,6.173,0,0,0-2.935.349,8.451,8.451,0,0,0-3.006,2.352c-.125.156-.238.322-.35.487l-.081.121" fill="#ffdee1"/>
      <path id="Trazado_882547" data-name="Trazado 882547" d="M34.772,13.267a3.1,3.1,0,0,0-2.511,1.172,9.75,9.75,0,0,0-.9,1.114c-.263.388-.251.823.16.975a4.273,4.273,0,0,0,1.363.238l1.447.084a5.535,5.535,0,0,0,2.735-.2,1.337,1.337,0,0,0,.274-2.088,4.692,4.692,0,0,0-2.669-.337,2.318,2.318,0,0,0-1.145.659c-.3.314.07.728.512.819s.956.157,1.426.228c.223.022.5.019.63-.16a.611.611,0,0,0,.109-.326.222.222,0,0,0-.044-.162c-.043-.04-.112-.015-.161.016.045-.034.113-.073.173-.03a.241.241,0,0,1,.069.175.648.648,0,0,1-.083.368.771.771,0,0,1-.7.251c-.5-.037-.965-.044-1.474-.121a1.155,1.155,0,0,1-.7-.393.674.674,0,0,1-.012-.849,2.626,2.626,0,0,1,1.305-.847,3.8,3.8,0,0,1,1.528-.081,4.126,4.126,0,0,1,1.5.417,1.8,1.8,0,0,1-.287,2.894,3.054,3.054,0,0,1-1.539.309c-.5,0-.981-.061-1.473-.089l-1.468-.108a3.943,3.943,0,0,1-1.486-.326.862.862,0,0,1-.51-.706,1.241,1.241,0,0,1,.26-.784,9.4,9.4,0,0,1,.989-1.113,3.122,3.122,0,0,1,2.682-1" fill="#e8aeb2"/>
      <path id="Trazado_882548" data-name="Trazado 882548" d="M25.316,9.327h0l-.5-.011a.251.251,0,0,1-.245-.255.258.258,0,0,1,.256-.245l.5.011a.25.25,0,0,1,0,.5" fill="#19b34b"/>
      <path id="Trazado_882549" data-name="Trazado 882549" d="M77.01,10.4H77l-.995-.02a.25.25,0,0,1,.006-.5h.005l.995.02a.25.25,0,0,1-.006.5m-1.989-.041h0l-.995-.02a.25.25,0,0,1,0-.5h.007l.993.02a.25.25,0,0,1-.006.5m-1.987-.041h0l-1-.02a.25.25,0,0,1,.006-.5h0l.993.02a.25.25,0,0,1,0,.5m-1.988-.041H71.04l-.994-.02a.25.25,0,0,1,.005-.5h.006l.993.02a.25.25,0,0,1,0,.5m-1.989-.041h-.006l-.994-.021a.25.25,0,0,1,.011-.5l1,.021a.25.25,0,0,1-.006.5m-1.987-.042h-.007l-.993-.02a.25.25,0,0,1,0-.5h.006l.994.02a.25.25,0,0,1,0,.5m-1.989-.041h-.005l-.995-.02a.25.25,0,0,1,.006-.5h.005l.995.02a.25.25,0,0,1-.006.5m-1.989-.041h0l-.994-.02a.25.25,0,0,1,0-.5H62.1l.994.02a.25.25,0,0,1-.006.5M61.1,10.069H61.1l-.994-.02a.25.25,0,0,1,.007-.5h.005l.994.02a.25.25,0,0,1-.006.5m-1.988-.041h-.005l-.994-.021a.252.252,0,0,1-.246-.256.268.268,0,0,1,.257-.244l.993.021a.25.25,0,0,1,0,.5m-1.988-.042h0l-.994-.02a.25.25,0,0,1,0-.5h.006l.994.02a.25.25,0,0,1-.005.5m-1.989-.041h-.005l-.995-.02a.25.25,0,0,1,.007-.5h.005l.994.02a.25.25,0,0,1-.006.5M53.152,9.9h-.006l-.994-.02a.25.25,0,0,1,.006-.5h0l1,.02a.25.25,0,0,1-.005.5m-1.989-.041h0l-1-.02a.25.25,0,0,1,.007-.5h0l.995.02a.25.25,0,0,1-.006.5m-1.988-.042H49.17l-.995-.02a.25.25,0,0,1,.006-.5h.006l.994.02a.25.25,0,0,1-.006.5M47.187,9.78h-.005l-.994-.02a.25.25,0,0,1,.005-.5H46.2l.994.02a.25.25,0,0,1-.006.5M45.2,9.739h-.005l-.994-.02a.25.25,0,0,1,0-.5h.006l.993.02a.25.25,0,0,1,0,.5M43.211,9.7H43.2l-.993-.02a.25.25,0,0,1,.005-.5h.006l.993.02a.25.25,0,0,1,0,.5m-1.989-.041h-.006l-.994-.021a.25.25,0,0,1,.006-.5h.006l.994.021a.25.25,0,0,1-.006.5m-1.988-.042h-.005l-.994-.02a.25.25,0,0,1,.005-.5h0l1,.02a.25.25,0,0,1-.006.5m-1.989-.041h0l-1-.02a.25.25,0,0,1,.006-.5h.006l.993.02a.25.25,0,0,1-.005.5m-1.988-.041h-.006l-.993-.02a.25.25,0,0,1,.006-.5h.005l.994.02a.25.25,0,0,1-.006.5M33.27,9.492h-.006l-.994-.02a.25.25,0,0,1,.006-.5h0l.994.02a.25.25,0,0,1-.005.5m-1.989-.041h-.005l-.995-.021a.251.251,0,0,1-.244-.256.279.279,0,0,1,.255-.244l1,.021a.25.25,0,0,1-.006.5m-1.988-.042h0l-.994-.02a.25.25,0,0,1-.245-.255.233.233,0,0,1,.255-.245l.995.02a.25.25,0,0,1-.006.5m-1.988-.041H27.3l-.994-.02a.25.25,0,0,1,.005-.5h0l.993.02a.25.25,0,0,1,0,.5" fill="#19b34b"/>
      <path id="Trazado_882550" data-name="Trazado 882550" d="M78.5,10.43h0l-.5-.01a.25.25,0,0,1,0-.5h.005l.5.01a.25.25,0,0,1-.005.5" fill="#19b34b"/>
      <path id="Trazado_882551" data-name="Trazado 882551" d="M81.065,10.212A1.014,1.014,0,1,1,80.051,9.2a1.014,1.014,0,0,1,1.014,1.014" fill="#19b34b"/>
      <path id="Trazado_882552" data-name="Trazado 882552" d="M24.069,9.03a1.014,1.014,0,1,1-1.014-1.014A1.014,1.014,0,0,1,24.069,9.03" fill="#19b34b"/>
    </g>
  </g>
</svg>
