<svg xmlns="http://www.w3.org/2000/svg" xmlns:xlink="http://www.w3.org/1999/xlink" width="176.75" height="30.361" viewBox="0 0 176.75 30.361">
  <defs>
    <clipPath id="clip-path">
      <rect id="Rectángulo_403458" data-name="Rectángulo 403458" width="176.75" height="30.361" transform="translate(0 0)" fill="none"/>
    </clipPath>
  </defs>
  <g id="Grupo_1103086" data-name="Grupo 1103086" transform="translate(0 0)">
    <g id="Grupo_1103085" data-name="Grupo 1103085" clip-path="url(#clip-path)">
      <path id="Trazado_882553" data-name="Trazado 882553" d="M169.813,13.172H6.938a6.938,6.938,0,0,0,0,13.875H169.813a6.938,6.938,0,0,0,0-13.875" fill="#3e8ff2"/>
      <path id="Trazado_882554" data-name="Trazado 882554" d="M169.743,14.49a18.231,18.231,0,0,0-4.15-1.13c-1.56-.33-3.19.06-4.77-.03-2.12-.13-4.15-.37-6.24-.45-.83-.04-1.68-.04-2.54,0-4.77.21-9.5.98-14.22,1.66-13.64,1.96-26.94,3.04-40.71,2.03-2.75-.2-5.52-.31-8.26-.47-.94-.05-1.88-.17-2.82-.3-1.73-.24-3.46-.55-5.2-.67-1.06-.07-2.13-.13-3.2-.17-.56-.02-1.11-.03-1.67-.03a3.381,3.381,0,0,0-.45-.01c-.56,0-1.13.01-1.69.03a38.117,38.117,0,0,0-6.89.74c-.38.08-.76.17-1.14.26s-.75.19-1.13.3c-.41.12-.82.22-1.24.32-.24.06-.47.11-.71.15a29.145,29.145,0,0,1-4.74.53,60.141,60.141,0,0,1-7.79-.32,22.207,22.207,0,0,1-4.22-.66c-.16-.05-.33-.1-.49-.16-1.74,0-3.71-1.41-4.98-2.43a14.168,14.168,0,0,0-2.76-1.88,6.138,6.138,0,0,0-.59-.25,8.791,8.791,0,0,0-6.94.97,1.029,1.029,0,0,1-.58.19c-.43-.04-.61-.56-.68-.99-.27-1.64-1.43-7.44,1.39-7.83.92-.13,1.48.65,2.22.96a6.052,6.052,0,0,0,3.59.4,35.92,35.92,0,0,0,4.45-1.52c.44-.15.87-.27,1.31-.38,4.48-1.08,9.21-.23,13.57,1.09a42.765,42.765,0,0,0,14.7,1.44c.22-.01.44-.03.66-.05.31-.02.61-.05.92-.08.05-.01.11-.01.16-.02.26-.03.51-.06.77-.1.42-.06.85-.14,1.27-.23.3-.07.6-.14.9-.23.16-.05.32-.1.48-.16l.24-.09a6.035,6.035,0,0,0,1.28-.68C79.863,2.07,82.483.1,86.3.01a9.694,9.694,0,0,1,3.14.28c.02.01.04.01.06.02a26.313,26.313,0,0,1,3.57,2.02,14.65,14.65,0,0,0,3.99,1.15,79.262,79.262,0,0,1,11.42,2.68c3.44,1.2,7.04,2.65,10.74,2.68a20.33,20.33,0,0,0,6.01-1.33,47.119,47.119,0,0,1,21.99-.55c1.84.4,3.72.62,5.56,1.01a19.893,19.893,0,0,0,4.54.92c1.49-.03,1.84-1.94,3.21-1.87,1.05.06,1.81,1.44,2.62,1.94a7.993,7.993,0,0,0,1.97.71,8.074,8.074,0,0,1,3.74,2.61,1.915,1.915,0,0,0,.56.54,2.347,2.347,0,0,0,.43.13c1.24.38,1.36,2.21-.11,1.54" fill="#e8b894"/>
      <path id="Trazado_882555" data-name="Trazado 882555" d="M83.043,5.37c-1.36,3.03-.28,6.54,1.75,9.03.39.47.87.93,1.24,1.4-1.73-.24-3.46-.55-5.2-.67a68.363,68.363,0,0,0-7.01-.18,18.858,18.858,0,0,1-1.11-6.01c-.07-1.07-1.01-2.19-.8-3.21.26-.03.51-.06.77-.1.42-.06.85-.14,1.27-.23.3-.07.6-.14.9-.23a6.837,6.837,0,0,0,.72-.25,6.035,6.035,0,0,0,1.28-.68C79.863,2.07,82.483.1,86.3.01a9.694,9.694,0,0,1,3.14.28A7.706,7.706,0,0,0,87.4.94a8.991,8.991,0,0,0-4.36,4.43" fill="#c3c3d9"/>
      <path id="Trazado_882556" data-name="Trazado 882556" d="M77.753,15.06a1.81,1.81,0,0,0-.23-.03c-.52-.04-1.04-.08-1.56-.1a3.381,3.381,0,0,0-.45-.01,34.807,34.807,0,0,0-8.58.77c-.38.08-.76.16-1.14.26s-.75.19-1.13.3c-.41.12-.82.22-1.24.32-.24.06-.47.11-.71.15-.527.107-1.055.19-1.583.262-6.333.983-13.516.258-19.477-.932a7.418,7.418,0,0,1-2.64-.92,3,3,0,0,1-1.47-2.28,2.539,2.539,0,0,1,.19-1.05,4.667,4.667,0,0,1,.96-1.47c.87-.97,2.19-1.76,2.83-2.92.7-1.25.51-2.65.38-4.06,4.48-1.08,9.21-.23,13.57,1.09a42.765,42.765,0,0,0,14.7,1.44c.22-.01.44-.03.66-.05.31-.02.61-.05.92-.08.05-.01.11-.01.16-.02.26-.03.51-.06.77-.1.42-.06.85-.14,1.27-.23.3-.07.6-.14.9-.23.16-.05.32-.1.48-.16a1,1,0,0,1,.14.08c1.5,1.07,1.42,8.87,2.16,9.87a.224.224,0,0,0,.12.1" fill="#e7e7e9"/>
      <path id="Trazado_882557" data-name="Trazado 882557" d="M34.908,9.819c-.19,4.241-4.817,7.479-10.334,7.232s-9.836-3.886-9.646-8.128,4.817-7.479,10.334-7.232S35.1,5.578,34.908,9.819" fill="#613e3a"/>
      <path id="Trazado_882558" data-name="Trazado 882558" d="M15.014,13.151a31.1,31.1,0,0,1,4.665.752,19.6,19.6,0,0,0,6.131.329c1.332-.224,2.609-.7,3.929-.978a6.647,6.647,0,0,1,3.983.161c1.493.635,3.113,2.317,1.961,3.9-1.026,1.413-4.038,1.583-5.57,1.658a133.044,133.044,0,0,1-15.024-.117,5.563,5.563,0,0,1-2.279-.482,2.9,2.9,0,0,1-1.474-2.869c.271-2.026,2-2.356,3.678-2.358" fill="#ffdee1"/>
      <path id="Trazado_882559" data-name="Trazado 882559" d="M16.647,23.187c4.58,1.317,9.165,1.321,13.9,1.7a7.987,7.987,0,0,0,2.135-.021,7.774,7.774,0,0,0,2.9-1.467q3.711-2.611,7.243-5.465c1.8-1.456,4.927-4.019,5.3-6.487.41-2.691-2.965-3.87-5.067-3.1-2.022.742-3.414,2.558-4.8,4.208a22.563,22.563,0,0,1-6.3,5.545c-4.1,2.231-8.926,2.562-13.507,2.543C16.212,20.638,6.776,19.119,7.955,24a1.347,1.347,0,0,0,1.387.355,6.381,6.381,0,0,0,1.364-.649,7.933,7.933,0,0,1,5.941-.523" fill="#e8b894"/>
      <path id="Trazado_882560" data-name="Trazado 882560" d="M38.787,25.011a21.921,21.921,0,0,1-.339-3.243c-.041-1.367.2-2.572-.323-3.883a7.949,7.949,0,0,0-2.145-2.917,32.123,32.123,0,0,0-4.792-3.14A36.623,36.623,0,0,1,25.223,7.3c-.524,2.022.307,4.144,1.338,5.961A22.344,22.344,0,0,0,30.2,18.224a13.98,13.98,0,0,1,3.216,4.031c.534,1.105.677,2.366,1.206,3.449a8.725,8.725,0,0,0,5.369,4.39,4.481,4.481,0,0,0,2.17.206,12.829,12.829,0,0,1-2.174-2.292,6.214,6.214,0,0,1-.731-1.223,6.909,6.909,0,0,1-.385-1.349c-.028-.142-.055-.283-.081-.425" fill="#613e3a"/>
      <path id="Trazado_882561" data-name="Trazado 882561" d="M80.357,15.327A22.361,22.361,0,0,1,83,15.982a2.052,2.052,0,0,1,.706.334.691.691,0,0,1,.269.676c-.11.41-.646.529-1.085.571a102.184,102.184,0,0,1-18.058-.149c-1.808-.15-.9-1.062.139-1.379a28.913,28.913,0,0,1,5.174-.936,35.438,35.438,0,0,1,10.216.228" fill="#fff"/>
      <path id="Trazado_882562" data-name="Trazado 882562" d="M78.993,9.61h0l-1-.013a.25.25,0,0,1,0-.5h0l1,.013a.25.25,0,0,1,0,.5m-2-.026h0l-1-.013a.25.25,0,0,1,0-.5h0l1,.013a.25.25,0,0,1,0,.5m-2-.027h0l-1-.012a.25.25,0,0,1,0-.5h0l1,.012a.25.25,0,0,1,0,.5m-2-.025h0l-1-.014a.25.25,0,0,1,0-.5h0l1,.014a.25.25,0,0,1,0,.5m-2-.026h0l-1-.014a.25.25,0,0,1,0-.5h0l1,.014a.25.25,0,0,1,0,.5m-2-.027h0l-1-.013a.25.25,0,0,1,0-.5h0l1,.013a.25.25,0,0,1,0,.5m-2-.026h0l-1-.013a.25.25,0,0,1,0-.5h0l1,.013a.25.25,0,0,1,0,.5m-2-.027h0l-1-.012a.25.25,0,0,1,0-.5h0l1,.012a.25.25,0,0,1,0,.5m-2-.026h0l-1-.013a.25.25,0,0,1,0-.5h0L63,8.9a.25.25,0,0,1,0,.5m-2-.025h0l-1-.014a.25.25,0,0,1,0-.5h0l1,.014a.25.25,0,0,1,0,.5m-2-.027h0l-1-.013a.25.25,0,0,1,0-.5h0l1,.013a.25.25,0,0,1,0,.5m-2-.026h0l-1-.014a.25.25,0,0,1,0-.5h0l1,.014a.25.25,0,0,1,0,.5M55,9.3h0l-1-.012a.249.249,0,0,1-.247-.253A.231.231,0,0,1,54,8.783L55,8.8a.25.25,0,0,1,0,.5m-2-.026h0l-1-.013a.25.25,0,0,1,.006-.5l1,.013a.25.25,0,0,1,0,.5m-2-.026h0l-1-.013a.25.25,0,0,1,0-.5h0l1,.013a.25.25,0,0,1,0,.5m-2-.026h0l-1-.013a.25.25,0,0,1,0-.5h0l1,.013a.25.25,0,0,1,0,.5m-2-.026h0l-1-.014a.25.25,0,0,1,0-.5h0l1,.014a.25.25,0,0,1,0,.5m-2-.026h0l-1-.014a.249.249,0,0,1-.247-.253A.237.237,0,0,1,44,8.651l1,.014a.25.25,0,0,1,0,.5m-2-.027h0l-1-.012a.25.25,0,0,1-.246-.253A.253.253,0,0,1,42,8.626l1,.012a.25.25,0,0,1,0,.5m-2-.026h0l-1-.013a.25.25,0,0,1,0-.5h0l1,.013a.25.25,0,0,1,0,.5m-2-.026h0l-1-.013a.25.25,0,0,1,0-.5h0l1,.013a.25.25,0,0,1,0,.5m-2-.027h0l-1-.012a.25.25,0,0,1,0-.5h0l1,.012a.25.25,0,0,1,0,.5m-2-.025h0l-1-.014a.25.25,0,0,1,0-.5h0l1,.014a.25.25,0,0,1,0,.5m-2-.027h0l-1-.013a.25.25,0,0,1,0-.5h0l1,.013a.25.25,0,0,1,0,.5m-2-.026h0l-1-.013a.25.25,0,0,1,0-.5h0l1,.013a.25.25,0,0,1,0,.5m-2-.026h0l-1-.013a.25.25,0,0,1,0-.5h0l1,.013a.25.25,0,0,1,0,.5m-2-.027h0l-1-.012a.25.25,0,0,1,0-.5h0l1,.012a.25.25,0,0,1,0,.5M25,8.9h0l-1-.013a.25.25,0,0,1,0-.5h0L25,8.4a.25.25,0,0,1,0,.5" fill="#19b34b"/>
      <path id="Trazado_882563" data-name="Trazado 882563" d="M25.012,8.639A1.014,1.014,0,1,1,24,7.625a1.014,1.014,0,0,1,1.014,1.014" fill="#19b34b"/>
      <path id="Trazado_882564" data-name="Trazado 882564" d="M80.444,9.366A1.014,1.014,0,1,1,79.43,8.352a1.014,1.014,0,0,1,1.014,1.014" fill="#19b34b"/>
    </g>
  </g>
</svg>
