<svg xmlns="http://www.w3.org/2000/svg" xmlns:xlink="http://www.w3.org/1999/xlink" width="138" height="138" viewBox="0 0 138 138">
  <defs>
    <filter id="Elipse_11581" x="0" y="0" width="138" height="138" filterUnits="userSpaceOnUse">
      <feOffset dy="3" input="SourceAlpha"/>
      <feGaussianBlur stdDeviation="3" result="blur"/>
      <feFlood flood-opacity="0.161"/>
      <feComposite operator="in" in2="blur"/>
      <feComposite in="SourceGraphic"/>
    </filter>
    <clipPath id="clip-path">
      <rect id="Rectángulo_403920" data-name="Rectángulo 403920" width="67.78" height="57.681" fill="none"/>
    </clipPath>
  </defs>
  <g id="Grupo_1103865" data-name="Grupo 1103865" transform="translate(-894.333 -402)">
    <g transform="matrix(1, 0, 0, 1, 894.33, 402)" filter="url(#Elipse_11581)">
      <g id="Elipse_11581-2" data-name="Elipse 11581" transform="translate(19 16)" fill="#fff7e6" stroke="rgba(250,246,237,0.5)" stroke-width="10">
        <circle cx="50" cy="50" r="50" stroke="none"/>
        <circle cx="50" cy="50" r="55" fill="none"/>
      </g>
    </g>
    <g id="Grupo_1103855" data-name="Grupo 1103855" transform="translate(931 442.159)">
      <g id="Grupo_1103854" data-name="Grupo 1103854" clip-path="url(#clip-path)">
        <path id="Trazado_884425" data-name="Trazado 884425" d="M18.361.119l.184-.011A21.83,21.83,0,0,1,34,6.08,27.811,27.811,0,0,1,43.109,1,20.262,20.262,0,0,1,58.653,2.2a15.987,15.987,0,0,1,8,10.063c2.185,7.6-.738,15.149-4.437,21.7l4.7.077c.646.647.748.692.867,1.585-1.092,1.626-4.374,1.079-6.227,1.075a5.68,5.68,0,0,0-1.3-.005,7.3,7.3,0,0,0-.675.916c-.72.953-1.5,1.849-2.3,2.727a97.046,97.046,0,0,1-9.144,8.507,94.289,94.289,0,0,1-10.063,7.015,17.89,17.89,0,0,1-3.114,1.786c-2.281.716-17.51-11.3-19.693-13.446l-4.727-5.044A15.86,15.86,0,0,0,8.41,36.652a6.125,6.125,0,0,0-1.257.007c-2.005.009-5.353.469-6.99-.613A1.687,1.687,0,0,1,.2,34.527c1.252-.961,4.624-.553,6.3-.561-2.294-4.291-4.354-9.048-4.819-13.937-.437-4.592.634-9.993,3.636-13.606C8.774,2.262,13.1.633,18.361.119" transform="translate(0 0)"/>
        <path id="Trazado_884426" data-name="Trazado 884426" d="M71.552,72.528a10.435,10.435,0,0,1-2.295-.163l-1.155-1.7c-3.168-5.57-5.475-12.884-3.666-19.263a13.691,13.691,0,0,1,6.385-8.135c4.655-2.5,9.372-2.28,14.285-.8-2.021.526-4.094.757-6.1,1.343a16.694,16.694,0,0,0-9.55,7.222c-2.654,4.531-2.306,10.052-.98,14.943a28.665,28.665,0,0,0,3.072,6.559" transform="translate(-59.428 -38.529)" fill="#fff"/>
        <path id="Trazado_884427" data-name="Trazado 884427" d="M188.461,339.06l5.016,16.808c.418,1.421.788,4.159,1.6,5.33.386.558.458.549,1.125.658a17.8,17.8,0,0,0,3.5-3.513l5.582-5.986,12.69.034a89.356,89.356,0,0,1-12.164,11.434l-10.249,6.794a80.605,80.605,0,0,1-22.78-18.235l10.427.006a21.8,21.8,0,0,0,1.888-4.489Z" transform="translate(-160.939 -315.823)" fill="#a5e2ff"/>
        <path id="Trazado_884428" data-name="Trazado 884428" d="M134.951,41.237c3.4,1.594,5.542,3.562,8.347,5.939,1.429-1.169,2.756-2.551,4.252-3.617a19.447,19.447,0,0,1,12.709-3.433c4.06.391,7.85,1.909,10.452,5.173,2.775,3.482,3.607,8.23,3.057,12.573-.614,4.855-2.987,9.358-5.677,13.379l-11.4-.129c-1.274-.013-3.326-.293-4.5.127l-6.9,7.765L139.9,61.372c-.512-1.619-1.078-4.681-2.246-5.82a2.239,2.239,0,0,0-1.519.172c-1.188,1.555-1.757,3.832-2.486,5.64l-3.9,9.932L121.4,71.3a28.664,28.664,0,0,1-3.072-6.559c-1.327-4.891-1.675-10.412.98-14.943a16.694,16.694,0,0,1,9.55-7.222c2-.586,4.077-.817,6.1-1.343" transform="translate(-109.272 -37.305)" fill="#a5e2ff"/>
      </g>
    </g>
  </g>
</svg>
