<svg xmlns="http://www.w3.org/2000/svg" width="39.725" height="36.221" viewBox="0 0 39.725 36.221">
  <g id="Grupo_1100545" data-name="Grupo 1100545" transform="translate(0 -22.569)">
    <path id="Trazado_875547" data-name="Trazado 875547" d="M65.886,101.062c7-3.29,18.277-14.341,15.58-22.768a8,8,0,0,0-13.385-3.062l-2.2,2.2-2.2-2.2a8,8,0,0,0-13.384,3.062C47.61,86.716,58.873,97.764,65.886,101.062Z" transform="translate(-46.023 -46.299)" fill="#ffbebc" fill-rule="evenodd"/>
    <g id="Grupo_1100544" data-name="Grupo 1100544" transform="translate(0 22.569)">
      <path id="Trazado_875548" data-name="Trazado 875548" d="M39.575,32.65a11.88,11.88,0,0,0-19.713-6.982A11.88,11.88,0,0,0,.15,32.65C-1.016,40.543,4.827,48.1,11.064,53.513c3.166,2.71,6.38,4.683,8.6,5.277,2.259-.173,5.866-2.664,9-5.277C34.9,48.106,40.743,40.537,39.575,32.65ZM35.719,42.938C32.951,48.01,25.207,55.5,19.863,57.233a25.49,25.49,0,0,1-7.789-4.9C3.356,45.152-2.917,33.163,5.6,26.263A10.582,10.582,0,0,1,11.96,24.1a10.255,10.255,0,0,1,7.353,3.191.776.776,0,0,0,1.1,0,10.223,10.223,0,0,1,13.718-1.023C37.715,29.015,40.283,35.033,35.719,42.938Z" transform="translate(0 -22.569)" fill="#020288"/>
      <path id="Trazado_875549" data-name="Trazado 875549" d="M144.328,161.747h0a2.72,2.72,0,0,0-3.842,0l-3.842,3.842a2.717,2.717,0,1,0,3.842,3.842l3.842-3.842a2.72,2.72,0,0,0,0-3.842Zm-4.94,6.587a1.164,1.164,0,0,1-1.647-1.647l1.372-1.372,1.647,1.647Zm3.842-3.842-1.372,1.372-1.647-1.647,1.372-1.372a1.164,1.164,0,0,1,1.647,1.647Z" transform="translate(-125.303 -150.21)" fill="#020288"/>
      <path id="Trazado_875550" data-name="Trazado 875550" d="M218.626,215.956a4.29,4.29,0,0,0-4.21,3.553,4.27,4.27,0,1,0,4.926,4.926,4.27,4.27,0,0,0-.716-8.479Zm-3.493,10.48a2.722,2.722,0,0,1-2.6-1.941h2.6a.776.776,0,0,0,0-1.553h-2.6a2.717,2.717,0,1,1,2.6,3.493Zm5.414-4.289a2.7,2.7,0,0,1-1.233.708,4.248,4.248,0,0,0-.665-1.555l.526-.526a.776.776,0,0,0-1.1-1.1l-.526.526a4.247,4.247,0,0,0-1.555-.665,2.717,2.717,0,1,1,4.55,2.61Z" transform="translate(-194.494 -200.943)" fill="#020288"/>
    </g>
  </g>
</svg>
