<svg id="Grupo_1103875" data-name="Grupo 1103875" xmlns="http://www.w3.org/2000/svg" xmlns:xlink="http://www.w3.org/1999/xlink" width="295" height="197.057" viewBox="0 0 295 197.057">
  <defs>
    <clipPath id="clip-path">
      <rect id="Rect치ngulo_403949" data-name="Rect치ngulo 403949" width="295" height="197.057" fill="none"/>
    </clipPath>
  </defs>
  <g id="Grupo_1103874" data-name="Grupo 1103874" clip-path="url(#clip-path)">
    <path id="Trazado_884620" data-name="Trazado 884620" d="M441.639,1h-173.8a13.5,13.5,0,0,0-12.9,9.536L239.417,61.116a113.594,113.594,0,0,0-.76,64.075l14.072,50.05a13.5,13.5,0,0,0,12.992,9.843H443.752A13.5,13.5,0,0,0,456.835,174.9l13.3-52.6a113.594,113.594,0,0,0-.7-58.33l-14.793-53.1a13.5,13.5,0,0,0-13-9.873" transform="translate(-178.83 -0.763)" fill="#fff"/>
    <path id="Trazado_884621" data-name="Trazado 884621" d="M442.959,184.559H264.928a13.781,13.781,0,0,1-13.22-10.016l-14.072-50.051a113.606,113.606,0,0,1,.761-64.209L253.922,9.7A13.661,13.661,0,0,1,267.05,0h173.8a13.775,13.775,0,0,1,13.228,10.047l14.793,53.1a114.012,114.012,0,0,1,.7,58.452l-13.3,52.6a13.719,13.719,0,0,1-13.314,10.366M267.05.474a13.19,13.19,0,0,0-12.674,9.368L238.851,60.423a113.13,113.13,0,0,0-.758,63.941l14.072,50.051a13.3,13.3,0,0,0,12.763,9.67H442.959a13.245,13.245,0,0,0,12.854-10.008l13.3-52.6a113.541,113.541,0,0,0-.7-58.208l-14.793-53.1a13.3,13.3,0,0,0-12.772-9.7Z" transform="translate(-178.037)"/>
    <path id="Trazado_884622" data-name="Trazado 884622" d="M705.466,156.427H646.411l14.228-49.57h44.827Z" transform="translate(-493.126 -81.518)" fill="#e2eaff"/>
    <path id="Trazado_884623" data-name="Trazado 884623" d="M397.056,149.379H338l14.228-49.57h44.827Z" transform="translate(-257.85 -76.141)" fill="#e2eaff"/>
    <path id="Trazado_884624" data-name="Trazado 884624" d="M181.936,205.394a.237.237,0,0,1-.228-.173l-14.072-50.05a113.606,113.606,0,0,1,.761-64.209l15.524-50.581a.237.237,0,0,1,.453.139L168.851,91.1a113.132,113.132,0,0,0-.758,63.941l14.072,50.05a.237.237,0,0,1-.229.3" transform="translate(-124.636 -30.678)"/>
    <path id="Trazado_884625" data-name="Trazado 884625" d="M523.257,235.235a7.351,7.351,0,0,1-3.58-.934,9.285,9.285,0,0,1-4.33-6.066.237.237,0,0,1,.462-.108,8.931,8.931,0,0,0,4.1,5.76,6.522,6.522,0,0,0,6.828-.18,5.209,5.209,0,0,0,1.768-6.319.237.237,0,0,1,.424-.212,5.7,5.7,0,0,1-1.919,6.918,6.5,6.5,0,0,1-3.753,1.14" transform="translate(-393.137 -173.206)"/>
    <path id="Trazado_884626" data-name="Trazado 884626" d="M602.113,350.008a.237.237,0,0,1-.077-.461,74.649,74.649,0,0,0,12.141-5.412.237.237,0,0,1,.231.414A75.116,75.116,0,0,1,602.19,350a.242.242,0,0,1-.077.013" transform="translate(-459.152 -262.506)"/>
    <path id="Trazado_884627" data-name="Trazado 884627" d="M377.478,247.9a.237.237,0,0,1-.164-.065,14.959,14.959,0,0,1-4.1-6.991.237.237,0,1,1,.459-.119,14.48,14.48,0,0,0,3.969,6.766.237.237,0,0,1-.164.409" transform="translate(-284.707 -183.503)"/>
    <path id="Trazado_884628" data-name="Trazado 884628" d="M617.163,239.919c12.7-14.573,27.573-31.052,30.352-33.5,3.375-2.969,3.629-5.407.25-5.734,0,0,1.7-3.414-2.145-3.22a1.713,1.713,0,0,0-1.84-2.308s-.038-3.654-4.274-1.073a21.1,21.1,0,0,0-3.837,2.792s-.546-8.977-3.04-8.951c-2.411.025-1.705,5.451-5.465,10.335C612.247,217.641,598.7,229,598.994,230.106c.917,3.512,8.907,6.529,18.169,9.813" transform="translate(-456.95 -143.366)" fill="#fff"/>
    <path id="Trazado_884629" data-name="Trazado 884629" d="M616.4,239.394a.234.234,0,0,1-.079-.014c-9.812-3.48-17.391-6.424-18.319-9.977-.135-.514.944-1.64,4.7-5.466a282.336,282.336,0,0,0,23.508-26.58,19.951,19.951,0,0,0,3.177-6.838c.627-2.075,1.079-3.574,2.474-3.589h.013c2.366,0,3.071,6.649,3.231,8.679a25.92,25.92,0,0,1,3.512-2.486c1.553-.946,2.762-1.192,3.593-.731a2.308,2.308,0,0,1,1.025,1.778,2.039,2.039,0,0,1,1.6.744,2.124,2.124,0,0,1,.308,1.547h.01a2.408,2.408,0,0,1,2.163.872,2.8,2.8,0,0,1,.02,2.4c1.522.221,2.052.884,2.225,1.419.381,1.18-.563,2.846-2.66,4.69-2.632,2.316-16.805,17.958-30.33,33.474a.236.236,0,0,1-.179.081m15.477-51.99h-.008c-1,.01-1.382,1.122-2.025,3.252a20.642,20.642,0,0,1-3.255,6.99,282.668,282.668,0,0,1-23.545,26.623c-2.539,2.584-4.545,4.626-4.579,5.038.861,3.286,8.259,6.163,17.863,9.572,12-13.766,27.351-30.83,30.268-33.4,1.917-1.687,2.836-3.213,2.521-4.188-.255-.788-1.3-1.05-2.138-1.131a.237.237,0,0,1-.19-.341c.007-.014.681-1.4.137-2.229-.318-.484-1.013-.7-2.057-.649a.232.232,0,0,1-.2-.091.238.238,0,0,1-.04-.215,1.865,1.865,0,0,0-.172-1.445,1.72,1.72,0,0,0-1.444-.556.237.237,0,0,1-.234-.234,2.024,2.024,0,0,0-.8-1.6c-.662-.365-1.738-.116-3.114.723a21.268,21.268,0,0,0-3.79,2.755.237.237,0,0,1-.407-.151c-.148-2.43-.938-8.728-2.792-8.728" transform="translate(-456.192 -142.603)"/>
    <path id="Trazado_884630" data-name="Trazado 884630" d="M749.357,226.093q-.085,0-.17-.005a1.829,1.829,0,0,1-1.551-.943c-.448-.914.146-1.911.714-2.677a.237.237,0,1,1,.381.282c-.487.658-1,1.5-.668,2.186a1.375,1.375,0,0,0,1.157.678,3.64,3.64,0,0,0,1.506-.312,12.934,12.934,0,0,0,5.744-4.4.237.237,0,1,1,.383.28,13.413,13.413,0,0,1-5.957,4.561,4.36,4.36,0,0,1-1.538.348" transform="translate(-570.227 -168.446)"/>
    <path id="Trazado_884631" data-name="Trazado 884631" d="M760.97,236.231a2.184,2.184,0,0,1-1.578-.612,1.585,1.585,0,0,1-.131-2.089.237.237,0,1,1,.355.315,1.113,1.113,0,0,0,.116,1.443,1.847,1.847,0,0,0,1.6.44,4.559,4.559,0,0,0,1.685-.731,13.864,13.864,0,0,0,4.332-4.4.237.237,0,0,1,.4.249,14.34,14.34,0,0,1-4.481,4.547,4.983,4.983,0,0,1-1.866.8,2.791,2.791,0,0,1-.432.034" transform="translate(-578.962 -175.832)"/>
    <path id="Trazado_884632" data-name="Trazado 884632" d="M771.769,248.657c-.068,0-.137,0-.207-.009a1.779,1.779,0,0,1-1.626-1.262.237.237,0,0,1,.462-.108,1.33,1.33,0,0,0,1.2.9,3.364,3.364,0,0,0,1.7-.435,9.959,9.959,0,0,0,3.978-3.6.237.237,0,0,1,.4.251,10.3,10.3,0,0,1-4.17,3.778,4.009,4.009,0,0,1-1.741.491" transform="translate(-587.355 -186.159)"/>
    <path id="Trazado_884633" data-name="Trazado 884633" d="M784.514,266.122a2.029,2.029,0,0,1-2.02-1.352.237.237,0,1,1,.459-.117,1.587,1.587,0,0,0,1.709.989,5.168,5.168,0,0,0,2.159-.921.237.237,0,1,1,.25.4,5.517,5.517,0,0,1-2.369.991c-.062.005-.126.008-.19.008" transform="translate(-596.934 -201.759)"/>
    <path id="Trazado_884634" data-name="Trazado 884634" d="M729.782,246.786a.237.237,0,0,1-.125-.438,7.411,7.411,0,0,0,3.427-5.734.242.242,0,0,1,.252-.222.237.237,0,0,1,.222.252,7.893,7.893,0,0,1-3.65,6.106.236.236,0,0,1-.125.036" transform="translate(-556.546 -183.388)"/>
    <path id="Trazado_884635" data-name="Trazado 884635" d="M250.951,219.683c9.27-9.374,21.538-16.168,34.666-17.179s29.273,3.015,34.673,15.03c1.346,3,1.346,3,4.016,10.282,3.442-2.332,10.1-9.606,12.429-11.093.98,7.555,4.5,12.817,12.294,19.483-5.729,6.27-12.725,17.546-23.829,18.731-6.75.72-10.951-1.956-12.255-5.129l-6.859,50.308-79.191,8.726,28.728-50.89a16.246,16.246,0,0,1-6.611-1.379c-6.578-3.012-9.7-11.145-8.639-18.315s5.485-13.421,10.579-18.574" transform="translate(-173.09 -154.37)" fill="#fff"/>
    <path id="Trazado_884636" data-name="Trazado 884636" d="M226.132,308.315a.237.237,0,0,1-.207-.354l28.534-50.546a16.158,16.158,0,0,1-6.309-1.391c-7.081-3.243-9.774-11.794-8.776-18.566.926-6.28,4.408-12.4,10.645-18.706l.169.167-.169-.167c10.054-10.168,22.419-16.294,34.816-17.248,13.517-1.04,29.55,3.246,34.908,15.169,1.331,2.963,1.35,3,3.916,10.009a76.427,76.427,0,0,0,6.814-6.111,51.956,51.956,0,0,1,5.37-4.812.237.237,0,0,1,.363.17c.945,7.285,4.256,12.525,12.214,19.332a.237.237,0,0,1,.021.34c-1.07,1.171-2.186,2.52-3.368,3.947-5.121,6.187-11.494,13.887-20.611,14.86-6.71.716-10.627-1.87-12.151-4.559l-6.753,49.534a.238.238,0,0,1-.209.2l-79.191,8.726h-.026m62.65-106.487c-1.318,0-2.625.051-3.909.149-12.283.945-24.542,7.022-34.516,17.109-6.163,6.233-9.6,12.265-10.513,18.441-.973,6.6,1.635,14.92,8.5,18.065a15.926,15.926,0,0,0,6.516,1.357.237.237,0,0,1,.2.354l-28.5,50.487,78.547-8.655,6.834-50.124a.237.237,0,0,1,.454-.058c1.138,2.769,4.969,5.733,12.011,4.983,8.926-.952,15.231-8.57,20.3-14.691,1.125-1.359,2.191-2.647,3.218-3.784-7.786-6.7-11.118-11.928-12.138-19.09a65.32,65.32,0,0,0-4.986,4.54,69.959,69.959,0,0,1-7.127,6.336.238.238,0,0,1-.356-.115c-2.666-7.279-2.666-7.279-4.009-10.266-4.758-10.586-18.144-15.04-30.53-15.04" transform="translate(-172.328 -153.607)"/>
    <path id="Trazado_884637" data-name="Trazado 884637" d="M581.192,335.074a.2.2,0,0,1-.033,0,.237.237,0,0,1-.2-.268l5.334-38.183a.237.237,0,1,1,.47.066l-5.334,38.184a.237.237,0,0,1-.234.2" transform="translate(-443.191 -226.126)"/>
    <path id="Trazado_884638" data-name="Trazado 884638" d="M537.021,273.3a.237.237,0,0,1-.212-.344l8.634-17.181-3.7-5.423a.237.237,0,0,1,.132-.362l5.838-1.639L546.463,228.1a.238.238,0,0,1,.222-.251.243.243,0,0,1,.251.222l1.26,20.445a.237.237,0,0,1-.173.243l-5.7,1.6,3.594,5.266a.238.238,0,0,1,.016.24l-8.7,17.306a.237.237,0,0,1-.212.131" transform="translate(-409.496 -173.816)"/>
    <path id="Trazado_884639" data-name="Trazado 884639" d="M442,246.69l-.027,0a.237.237,0,0,1-.208-.263l2.205-19.242a.237.237,0,0,1,.145-.192L450,224.555l-3.9-4.464a.237.237,0,0,1-.011-.3l12.255-16.413a.237.237,0,1,1,.38.284l-12.14,16.26,3.986,4.569a.237.237,0,0,1-.088.375l-6.068,2.51-2.19,19.1a.237.237,0,0,1-.235.21" transform="translate(-337.005 -155.079)"/>
    <path id="Trazado_884640" data-name="Trazado 884640" d="M410.1,309.448l26.445-91.711,5.114,11.7,5.656-8.613s-.583,12.568-2.84,21.368c-6.084,23.723-18.888,72.062-18.888,72.062Z" transform="translate(-312.854 -166.105)" fill="#2b63a8"/>
    <rect id="Rect치ngulo_403948" data-name="Rect치ngulo 403948" width="27.655" height="41.28" transform="translate(80.648 65.59) rotate(-4.856)" fill="#fff"/>
    <path id="Trazado_884641" data-name="Trazado 884641" d="M342.831,309.672a.237.237,0,0,1-.236-.217L339.1,268.323a.237.237,0,0,1,.216-.256l27.555-2.341a.237.237,0,0,1,.256.216l3.492,41.132a.237.237,0,0,1-.216.256l-27.555,2.341h-.02M339.6,268.519l3.452,40.66,27.082-2.3-3.451-40.66Z" transform="translate(-258.69 -202.713)"/>
    <path id="Trazado_884642" data-name="Trazado 884642" d="M330.841,345.846s28.066-7.5,33.544-4.07c4.343,2.721,1.559,4.64,1.559,4.64s2.286,1.518-.132,4.179a2.239,2.239,0,0,1-1.158,3.016s.9,1.734-1.933,2.961-21.448,6.891-28.453,6.734-3.425-17.461-3.425-17.461" transform="translate(-251.69 -260.045)" fill="#fff"/>
    <path id="Trazado_884643" data-name="Trazado 884643" d="M385.857,367.262a.237.237,0,0,1-.213-.133c-.043-.088-4.261-8.913-2.847-17.644a.235.235,0,0,1,.272-.2.237.237,0,0,1,.2.272c-1.391,8.584,2.763,17.274,2.805,17.361a.236.236,0,0,1-.11.317.233.233,0,0,1-.1.024" transform="translate(-291.802 -266.458)"/>
    <path id="Trazado_884644" data-name="Trazado 884644" d="M341.405,362.808c-.1,0-.2,0-.293,0a.237.237,0,0,1-.232-.242.232.232,0,0,1,.243-.232c7.028.159,25.765-5.592,28.353-6.715a3.1,3.1,0,0,0,1.833-1.58,1.41,1.41,0,0,0-.017-1.056.239.239,0,0,1,.106-.32,2,2,0,0,0,1.05-2.7.239.239,0,0,1,.039-.261,3.137,3.137,0,0,0,1.035-2.405,2.179,2.179,0,0,0-.859-1.417.237.237,0,0,1,0-.392,1.914,1.914,0,0,0,.776-1.462c-.022-.88-.826-1.843-2.326-2.782-3.66-2.294-18.882.419-31.907,3.723a.237.237,0,1,1-.117-.46c6.366-1.615,27.509-6.651,32.275-3.665,1.667,1.045,2.525,2.114,2.548,3.178a2.258,2.258,0,0,1-.744,1.66,2.576,2.576,0,0,1,.826,1.553,3.48,3.48,0,0,1-1.056,2.678,2.434,2.434,0,0,1-1.138,3.078,1.941,1.941,0,0,1-.038,1.2,3.52,3.52,0,0,1-2.1,1.866c-2.568,1.114-20.968,6.757-28.26,6.758" transform="translate(-258.542 -259.305)"/>
    <path id="Trazado_884645" data-name="Trazado 884645" d="M471.511,362.677a.242.242,0,0,1-.073-.012,6.809,6.809,0,0,0-2.779-.3.237.237,0,1,1-.048-.472,7.287,7.287,0,0,1,2.975.318.237.237,0,0,1-.074.463" transform="translate(-357.325 -276.051)"/>
    <path id="Trazado_884646" data-name="Trazado 884646" d="M470.621,381.416a.237.237,0,0,1-.062-.466,5.11,5.11,0,0,1,2.147-.112.237.237,0,0,1-.077.468,4.607,4.607,0,0,0-1.946.1.237.237,0,0,1-.063.008" transform="translate(-358.841 -290.479)"/>
    <path id="Trazado_884647" data-name="Trazado 884647" d="M469.241,394.248a.237.237,0,0,1-.019-.474l1.246-.1a.237.237,0,0,1,.038.473l-1.246.1h-.019" transform="translate(-357.788 -300.321)"/>
    <path id="Trazado_884648" data-name="Trazado 884648" d="M324.851,358.855a.237.237,0,0,1-.054-.468c.739-.171,1.494-.359,2.225-.541.905-.225,1.841-.458,2.8-.674a.237.237,0,0,1,.1.463c-.951.214-1.884.446-2.787.671-.732.182-1.49.371-2.232.543a.238.238,0,0,1-.054.006" transform="translate(-247.637 -272.47)"/>
    <path id="Trazado_884649" data-name="Trazado 884649" d="M552.849,53.587c1.551.976,3.118,2.254,3.488,4.049a5.7,5.7,0,0,1-1,4.1A10.447,10.447,0,0,1,540.385,64.6c-.518,1.574-2.337,2.243-3.94,2.665a8.026,8.026,0,0,1-4.855.208c-2.419-.923-3.437-3.978-2.916-6.515s2.184-4.665,3.8-6.691a10.5,10.5,0,0,1-1.15-19.99A10.423,10.423,0,0,1,545.45,45.112a11.038,11.038,0,0,1-1.089,3.84c-.444.919-.148.915.775,1.18q1.229.354,2.424.812a30.152,30.152,0,0,1,5.289,2.643" transform="translate(-400.171 -25.659)"/>
    <path id="Trazado_884650" data-name="Trazado 884650" d="M589.19,99.975a.233.233,0,0,1-.076-.013,12.85,12.85,0,0,0-6.273-.5.237.237,0,1,1-.079-.468,13.335,13.335,0,0,1,6.505.521.237.237,0,0,1-.076.461" transform="translate(-444.419 -75.376)"/>
    <path id="Trazado_884651" data-name="Trazado 884651" d="M555.362,110.811a.237.237,0,0,1-.2-.368,12.627,12.627,0,0,1,3.789-3.7.237.237,0,0,1,.252.4,12.153,12.153,0,0,0-3.645,3.561.237.237,0,0,1-.2.106" transform="translate(-423.487 -81.402)"/>
    <path id="Trazado_884652" data-name="Trazado 884652" d="M524.542,179.149l7.08-7.936a1.279,1.279,0,0,1,1.881-.031l5.6,5.884a1.279,1.279,0,0,1,.072,1.682l-5.252,6.561a3.867,3.867,0,0,1-3.736,1.386,8.752,8.752,0,0,1-5.956-4.35,2.707,2.707,0,0,1,.31-3.2" transform="translate(-399.628 -130.287)" fill="#fff"/>
    <path id="Trazado_884653" data-name="Trazado 884653" d="M522.572,183.15a.237.237,0,0,1-.175-.4l7.346-8.008a.237.237,0,0,1,.35.32l-7.346,8.008a.237.237,0,0,1-.175.077" transform="translate(-398.473 -133.249)"/>
    <path id="Trazado_884654" data-name="Trazado 884654" d="M562.568,212.9a.237.237,0,0,1-.182-.389l5.677-6.847a.237.237,0,1,1,.365.3l-5.676,6.847a.237.237,0,0,1-.183.086" transform="translate(-428.984 -156.829)"/>
    <path id="Trazado_884655" data-name="Trazado 884655" d="M558.843,153.767a1.789,1.789,0,0,0-1.516-1.485,2.756,2.756,0,0,0-2.788,2.216,3.184,3.184,0,0,0,1.556,3.285,2.854,2.854,0,0,0,2.1.464,9.488,9.488,0,0,0,2.275,4.3,6.439,6.439,0,0,0,4.347,2.031c2.743.08,5.2-1.956,6.434-4.406s1.5-5.262,1.71-8c0,0-4.116,2.8-9.427-1.455-1.03,2.525-2.5,3.8-4.688,3.05" transform="translate(-422.998 -114.977)" fill="#fff"/>
    <path id="Trazado_884656" data-name="Trazado 884656" d="M564.206,164.052l-.162,0a6.666,6.666,0,0,1-4.51-2.1,9.64,9.64,0,0,1-2.279-4.2,3.2,3.2,0,0,1-2.041-.526,3.418,3.418,0,0,1-1.671-3.538,2.992,2.992,0,0,1,3.045-2.4,1.978,1.978,0,0,1,1.7,1.538c1.828.564,3.223-.4,4.264-2.957a.237.237,0,0,1,.368-.1c5.1,4.089,8.983,1.554,9.146,1.444a.237.237,0,0,1,.37.215c-.192,2.451-.431,5.5-1.735,8.086a7.65,7.65,0,0,1-6.491,4.539m-6.776-6.807a.238.238,0,0,1,.23.179,9.253,9.253,0,0,0,2.215,4.193,6.188,6.188,0,0,0,4.183,1.958c2.758.083,5.112-2.089,6.216-4.275a20.243,20.243,0,0,0,1.651-7.472c-1.168.571-4.737,1.815-9.058-1.5-1.157,2.635-2.794,3.608-4.863,2.9a.236.236,0,0,1-.157-.187,1.541,1.541,0,0,0-1.307-1.286,2.533,2.533,0,0,0-2.531,2.027,2.932,2.932,0,0,0,1.441,3.031,2.619,2.619,0,0,0,1.935.437.222.222,0,0,1,.047,0" transform="translate(-422.236 -114.214)"/>
    <path id="Trazado_884657" data-name="Trazado 884657" d="M564.2,168.474a.237.237,0,0,1-.228-.174,2.994,2.994,0,0,0-1.252-1.7.237.237,0,0,1,.257-.4,3.474,3.474,0,0,1,1.453,1.976.237.237,0,0,1-.165.292.245.245,0,0,1-.063.009" transform="translate(-429.195 -126.758)"/>
    <path id="Trazado_884658" data-name="Trazado 884658" d="M622,282.333h93.661l2.162-3.064a185.233,185.233,0,0,0,30.4-72.371H654.564l-3.824,4.172c-17.408,18.988-27.663,44.417-28.74,71.264" transform="translate(-474.504 -157.836)" fill="#fff"/>
    <path id="Trazado_884659" data-name="Trazado 884659" d="M714.9,281.809H621.237a.237.237,0,0,1-.237-.247c1.082-26.973,11.311-52.335,28.8-71.415l3.824-4.171a.237.237,0,0,1,.175-.077h93.661a.237.237,0,0,1,.233.281A189.516,189.516,0,0,1,736.249,244.3a181.646,181.646,0,0,1-18.994,34.342l-2.162,3.064a.237.237,0,0,1-.194.1m-93.414-.474h93.291l2.092-2.963a186.044,186.044,0,0,0,30.31-72h-93.27l-3.753,4.094c-17.363,18.939-27.538,44.1-28.668,70.867" transform="translate(-473.741 -157.074)"/>
    <path id="Trazado_884660" data-name="Trazado 884660" d="M317.232,352.753l-20.32,42.879a28.69,28.69,0,0,1-24.1,16.346l-143.928,9.179a17.069,17.069,0,0,1-4.837-33.686l114.734-25.845,9.951-21.191a2.513,2.513,0,0,1,2.669-1.414L315.357,349.2a2.513,2.513,0,0,1,1.876,3.557" transform="translate(-84.468 -258.605)" fill="#fff"/>
    <path id="Trazado_884661" data-name="Trazado 884661" d="M126.982,420.67a17.307,17.307,0,0,1-3.775-34.19L237.828,360.66l9.9-21.086a2.761,2.761,0,0,1,2.921-1.547L314.606,348.2a2.75,2.75,0,0,1,2.053,3.893l-20.319,42.879a28.939,28.939,0,0,1-24.3,16.48l-143.928,9.179c-.378.024-.756.036-1.13.036m123.24-82.2a2.289,2.289,0,0,0-2.064,1.308l-9.951,21.191a.239.239,0,0,1-.163.131L123.312,386.942a16.832,16.832,0,0,0,4.77,33.218l143.928-9.179a28.464,28.464,0,0,0,23.9-16.21l20.319-42.879.214.1-.214-.1a2.275,2.275,0,0,0-1.7-3.221L250.576,338.5a2.251,2.251,0,0,0-.353-.028" transform="translate(-83.68 -257.845)"/>
    <path id="Trazado_884662" data-name="Trazado 884662" d="M311.465,546.927l-3.84.211c1.18-10.227-.915-18.6-6.229-24.9-9.472-11.225-24.93-12.137-25.1-12.146,0,0,5.815-3.029,8.843-2.066,5.966,1.9,13.586,5.167,19.153,11.765,6.016,7.129,8.475,15.83,7.169,27.138" transform="translate(-210.78 -387.412)"/>
    <path id="Trazado_884663" data-name="Trazado 884663" d="M537.726,504.919l-3.828.09c1.453-12.59-1.131-22.915-7.681-30.69-11.645-13.821-27.576-14.946-30.923-14.415a32.2,32.2,0,0,1,4.2-2.038,11.11,11.11,0,0,1,7.242.024A45.51,45.51,0,0,1,529.1,471.852c7.265,8.609,10.206,19.385,8.626,33.067" transform="translate(-377.844 -348.839)"/>
    <path id="Trazado_884664" data-name="Trazado 884664" d="M735.708,395.674c-.414-.137-38.189-13.355-70.785-10.639l1.7-3.7c9.643-.8,22.744-.433,47.107,4.759a223.07,223.07,0,0,1,23.5,6.076Z" transform="translate(-507.248 -290.66)"/>
    <path id="Trazado_884665" data-name="Trazado 884665" d="M868.478,153.012a13.953,13.953,0,0,0-9.46-7.144c-6.732-1.552-11.9.144-12.725,9.63-.493,5.682,1.048,10.831,6.173,12.974a15.673,15.673,0,0,0,10.842-.386,11.3,11.3,0,0,0,5.508-6,10.794,10.794,0,0,0-.337-9.07" transform="translate(-645.543 -110.892)"/>
    <path id="Trazado_884666" data-name="Trazado 884666" d="M869.844,175.277a.353.353,0,0,1-.192-.056c-.322-.206-7.879-5.119-7.555-11.294a.356.356,0,0,1,.71.037c-.3,5.766,7.153,10.61,7.229,10.658a.356.356,0,0,1-.192.655" transform="translate(-657.658 -124.797)" fill="#fff"/>
    <path id="Trazado_884667" data-name="Trazado 884667" d="M881.367,238.57a17.119,17.119,0,0,0,.7,8.7c2.162,5.013,7.994,5.991,11.985,4.271s6.063-5.844,3.9-10.857c-1.855-4.3-5.79-6.874-9.391-6.432Z" transform="translate(-672.159 -178.664)"/>
    <path id="Trazado_884668" data-name="Trazado 884668" d="M828.267,231.176l-4.576,17.3-18.04,5.265,11.581-22.165Z" transform="translate(-614.606 -176.357)" fill="#fff"/>
    <path id="Trazado_884669" data-name="Trazado 884669" d="M804.89,253.215a.237.237,0,0,1-.21-.347L816.26,230.7a.238.238,0,0,1,.2-.127l11.035-.4a.22.22,0,0,1,.193.089.239.239,0,0,1,.044.209l-4.576,17.3a.237.237,0,0,1-.163.167l-18.04,5.265a.229.229,0,0,1-.066.009m11.727-22.17-11.259,21.549,17.377-5.072,4.46-16.865Z" transform="translate(-613.844 -175.59)"/>
    <path id="Trazado_884670" data-name="Trazado 884670" d="M846.786,177.266S847.734,174,850.6,176s1.446,6.958-4.142,6.06c0,0-5.457,5.49-11.833,2.27S839,165.043,839,165.043s-.036,7.333,7.789,12.223" transform="translate(-635.166 -125.906)" fill="#fff"/>
    <path id="Trazado_884671" data-name="Trazado 884671" d="M837.974,184.81a9.261,9.261,0,0,1-4.222-1.03,3.711,3.711,0,0,1-1.962-2.485c-1.456-5.546,5.929-16.676,6.244-17.147a.237.237,0,0,1,.434.133c0,.071.062,7.106,7.43,11.864a2.922,2.922,0,0,1,1.563-1.679,2.75,2.75,0,0,1,2.507.579,3.435,3.435,0,0,1,1.3,4.157c-.586,1.45-2.336,2.818-5.5,2.35a12.361,12.361,0,0,1-7.8,3.259M838.047,165c-1.522,2.405-7.016,11.537-5.8,16.172a3.255,3.255,0,0,0,1.717,2.182c6.144,3.1,11.5-2.171,11.558-2.225a.238.238,0,0,1,.206-.067c2.956.475,4.572-.743,5.1-2.041a2.969,2.969,0,0,0-1.129-3.59,2.32,2.32,0,0,0-2.078-.521,2.709,2.709,0,0,0-1.371,1.656.237.237,0,0,1-.353.135,16.134,16.134,0,0,1-7.848-11.7" transform="translate(-634.401 -125.143)"/>
    <path id="Trazado_884672" data-name="Trazado 884672" d="M840.485,211.374c-1.182,0-8.075-4.525-8.857-5.041a.237.237,0,0,1,.261-.4c2.908,1.919,7.814,4.962,8.6,4.963.179,0,.345-.519.492-.977.463-1.443,1.239-3.859,5.13-2.612a.237.237,0,0,1-.144.452c-3.441-1.1-4.072.868-4.534,2.306-.225.7-.419,1.306-.943,1.306" transform="translate(-634.341 -157.073)" fill="#5479f7"/>
    <path id="Trazado_884673" data-name="Trazado 884673" d="M893.09,220.688a.237.237,0,0,1-.192-.376,3.867,3.867,0,0,1,2.638-1.549.237.237,0,0,1,.056.471,3.383,3.383,0,0,0-2.31,1.356.237.237,0,0,1-.193.1" transform="translate(-681.129 -166.885)"/>
    <path id="Trazado_884674" data-name="Trazado 884674" d="M770.4,302.189a12.957,12.957,0,0,0-.473-12.551,14.278,14.278,0,0,0-5.987-5.392L750.029,278.2l-15.205,7.262,1.378-9.018-14.739.88a14.3,14.3,0,0,0-11.749,7.629l-2.649,6.825Z" transform="translate(-539.396 -210.891)" fill="#e2eaff"/>
    <path id="Trazado_884675" data-name="Trazado 884675" d="M69.482,408.165a.237.237,0,0,1-.02-.473l227.73-19.64,29.187-62.563a.237.237,0,1,1,.43.2l-29.245,62.687a.237.237,0,0,1-.194.136L69.5,408.164h-.021" transform="translate(-52.825 -248.201)"/>
    <path id="Trazado_884676" data-name="Trazado 884676" d="M439.589,544.053a.237.237,0,0,1-.237-.237V525.151a5.706,5.706,0,0,1,5.246-5.718l69.683-6.01a5.739,5.739,0,0,1,6.232,5.718v17.716a.237.237,0,0,1-.474,0V519.141a5.265,5.265,0,0,0-5.717-5.245l-69.683,6.01a5.235,5.235,0,0,0-4.813,5.245v18.665a.237.237,0,0,1-.237.237" transform="translate(-335.167 -391.658)"/>
    <path id="Trazado_884677" data-name="Trazado 884677" d="M69.482,669.83a.237.237,0,0,1-.02-.473l227.866-19.651a.233.233,0,0,1,.257.216.237.237,0,0,1-.216.257L69.5,669.829h-.021" transform="translate(-52.825 -495.638)"/>
    <path id="Trazado_884678" data-name="Trazado 884678" d="M903.523,702.526a.237.237,0,0,1-.237-.237V662.828a.237.237,0,0,1,.474,0v39.461a.237.237,0,0,1-.237.237" transform="translate(-689.088 -505.469)"/>
    <path id="Trazado_884679" data-name="Trazado 884679" d="M403.523,733.8a.237.237,0,0,1-.237-.237V703.828a.237.237,0,0,1,.474,0v29.739a.237.237,0,0,1-.237.237" transform="translate(-307.654 -536.747)"/>
    <path id="Trazado_884680" data-name="Trazado 884680" d="M183.523,749.061a.237.237,0,0,1-.237-.237v-25a.237.237,0,1,1,.474,0v25a.237.237,0,0,1-.237.237" transform="translate(-139.823 -552.004)"/>
    <path id="Trazado_884681" data-name="Trazado 884681" d="M318.726,186.806l-16.285,13.179,15.329,10.691,9.113-10.041s6.188,2.183,11.254.761,2.741-19.816,2.359-24.742-15.9.074-21.77,10.153" transform="translate(-230.723 -133.302)" fill="#fff"/>
    <path id="Trazado_884682" data-name="Trazado 884682" d="M317.008,210.158a.235.235,0,0,1-.136-.043l-15.329-10.691a.237.237,0,0,1-.013-.379l16.251-13.152A26.808,26.808,0,0,1,328,176.463c3.843-2.081,7.77-3.094,10.006-2.583a2.207,2.207,0,0,1,1.961,2c.041.524.1,1.2.177,1.995.652,7.034,2.008,21.67-2.708,22.994s-10.247-.383-11.247-.714l-9.009,9.926a.236.236,0,0,1-.175.078m-14.935-10.942,14.9,10.391,8.973-9.887a.237.237,0,0,1,.254-.065c.061.022,6.178,2.141,11.111.756,4.335-1.217,2.953-16.126,2.364-22.493-.074-.8-.137-1.476-.178-2-.064-.818-.6-1.347-1.594-1.575-4.371-1-15.176,4.006-19.735,11.829a.235.235,0,0,1-.056.065Zm15.891-13.165h0Z" transform="translate(-229.96 -132.548)"/>
    <path id="Trazado_884683" data-name="Trazado 884683" d="M317.008,248.972a.237.237,0,0,1-.136-.043l-15.33-10.691a.237.237,0,0,1-.013-.379l16.285-13.18a.237.237,0,1,1,.3.369l-16.04,12.981,14.9,10.391,8.826-9.773a.238.238,0,0,1,.255-.065s.337.118.9.278a.237.237,0,1,1-.129.456c-.361-.1-.627-.186-.78-.236l-8.863,9.813a.236.236,0,0,1-.176.078" transform="translate(-229.96 -171.362)"/>
    <path id="Trazado_884684" data-name="Trazado 884684" d="M348.682,156.3a47.416,47.416,0,0,0,3.833,3.722,7.159,7.159,0,0,0,7.7,1.069l5.1-2.387s-5.456-4.335-1.618-7.368c0,0,2.443-1.318,3.522.994,0,0,4.943-1.671,4.5-6.45,0,0,8.152-1.384,8.554-7.538s-9.16-9.318-17.857-7.183-14.025,6.675-12.772,13.863,1.861,8.674-.962,11.277" transform="translate(-265.998 -99.553)"/>
    <path id="Trazado_884685" data-name="Trazado 884685" d="M440.022,142.932a.237.237,0,0,1-.121-.441,7.584,7.584,0,0,0,3.854-5.887,5.744,5.744,0,0,0-1.6-4.33c-1.98-2.154-5.611-3.486-9.715-3.563a.237.237,0,0,1-.233-.241.229.229,0,0,1,.241-.233c4.231.08,7.989,1.47,10.055,3.717a6.21,6.21,0,0,1,1.724,4.683,8.052,8.052,0,0,1-4.086,6.264.234.234,0,0,1-.12.033" transform="translate(-329.717 -97.826)" fill="#fff"/>
    <path id="Trazado_884686" data-name="Trazado 884686" d="M404.756,269.983a.237.237,0,0,1-.166-.406c.6-.592,1.328-1.35,2.03-2.083s1.432-1.5,2.04-2.093a.237.237,0,0,1,.332.339c-.6.592-1.328,1.35-2.03,2.083s-1.432,1.5-2.04,2.093a.237.237,0,0,1-.166.068" transform="translate(-308.594 -202.414)"/>
    <path id="Trazado_884687" data-name="Trazado 884687" d="M419.553,234.221l-.033,0a.237.237,0,0,1-.2-.267,1.97,1.97,0,0,0-1.241-2.052.237.237,0,0,1,.163-.446,2.46,2.46,0,0,1,1.549,2.562.237.237,0,0,1-.235.2" transform="translate(-318.818 -176.558)"/>
    <path id="Trazado_884688" data-name="Trazado 884688" d="M425.18,221.159h0a.237.237,0,0,1-.235-.24,3.021,3.021,0,0,0-.8-2.067.237.237,0,0,1,.347-.323,3.5,3.5,0,0,1,.931,2.4.237.237,0,0,1-.237.235" transform="translate(-323.514 -166.651)"/>
    <path id="Trazado_884689" data-name="Trazado 884689" d="M417.8,248.7a.235.235,0,0,1-.152-.056l-1.207-1.018a.237.237,0,0,1,.306-.363l1.207,1.018a.237.237,0,0,1-.153.419" transform="translate(-317.627 -188.585)"/>
    <path id="Trazado_884690" data-name="Trazado 884690" d="M280.392,276.567s1.452-4.006,4.268-2.672,13.416,7.949,18.047,14.03l-.557,3.85Z" transform="translate(-213.902 -208.738)" fill="#5479f7"/>
    <path id="Trazado_884691" data-name="Trazado 884691" d="M318.129,568.564s39.146,4.509,46.121,14.487c4.244,6.072,8.224,12.4,7.257,14.817s-5,2.588-5.922.714c0,0-1.9,4.381-5.592,2.945,0,0-.537,3.24-5.066,1.843a4.807,4.807,0,0,1-6.387,1.18c-3.875-2.242-3.336-6.849-3.336-6.849s-40.043-9.495-44.695-15.608c-10.282-13.513,17.62-13.529,17.62-13.529" transform="translate(-227.513 -433.739)" fill="#fff"/>
    <path id="Trazado_884692" data-name="Trazado 884692" d="M350.369,604.783a5.363,5.363,0,0,1-2.707-.79c-3.483-2.015-3.515-5.921-3.468-6.871-3.386-.809-40.1-9.693-44.633-15.648-2.261-2.971-2.875-5.553-1.824-7.674,3.049-6.156,18.957-6.235,19.633-6.236l.027,0c.1.011,9.921,1.156,20.469,3.505,14.2,3.165,22.891,6.893,25.819,11.081,4.183,5.984,8.319,12.45,7.283,15.041a3.717,3.717,0,0,1-3.408,2.129,3.252,3.252,0,0,1-2.711-1.027c-.575,1.04-2.417,3.778-5.451,2.78a2.986,2.986,0,0,1-1.26,1.626,4.758,4.758,0,0,1-3.887.178,5.348,5.348,0,0,1-3.882,1.9m-33.012-36.744c-.55,0-16.312.152-19.195,5.972-.964,1.946-.366,4.36,1.777,7.176,4.547,5.976,44.161,15.426,44.56,15.521a.237.237,0,0,1,.181.258c-.005.045-.471,4.482,3.219,6.617a4.526,4.526,0,0,0,6.078-1.115.238.238,0,0,1,.261-.086,4.44,4.44,0,0,0,3.644-.078A2.539,2.539,0,0,0,359,600.726a.238.238,0,0,1,.32-.181c3.438,1.338,5.214-2.649,5.288-2.819a.237.237,0,0,1,.212-.143.22.22,0,0,1,.219.132,2.6,2.6,0,0,0,2.5,1.134,3.288,3.288,0,0,0,2.986-1.831c.968-2.422-3.663-9.488-7.231-14.593-6.787-9.71-45.026-14.279-45.94-14.386" transform="translate(-226.755 -432.977)"/>
    <path id="Trazado_884693" data-name="Trazado 884693" d="M500.174,694.716a.235.235,0,0,1-.142-.047,64.275,64.275,0,0,1-5.424-4.545.237.237,0,1,1,.324-.346,63.756,63.756,0,0,0,5.384,4.511.237.237,0,0,1-.142.427" transform="translate(-377.264 -526.16)"/>
    <path id="Trazado_884694" data-name="Trazado 884694" d="M532.837,698.813a.238.238,0,0,1-.233-.281,6.921,6.921,0,0,0-.97-4.986.237.237,0,0,1,.4-.257,7.4,7.4,0,0,1,1.037,5.331.237.237,0,0,1-.233.193" transform="translate(-405.537 -528.805)"/>
    <path id="Trazado_884695" data-name="Trazado 884695" d="M551.513,686.994h0a.237.237,0,0,1-.234-.24,10.226,10.226,0,0,0-1.869-6,.237.237,0,1,1,.387-.274,10.7,10.7,0,0,1,1.957,6.282.237.237,0,0,1-.237.234" transform="translate(-419.091 -519.039)"/>
    <path id="Trazado_884696" data-name="Trazado 884696" d="M573.219,676.836a.237.237,0,0,1-.228-.173,24.5,24.5,0,0,0-2.363-5.634.237.237,0,1,1,.411-.237,24.963,24.963,0,0,1,2.409,5.743.237.237,0,0,1-.229.3" transform="translate(-435.29 -511.635)"/>
    <path id="Trazado_884697" data-name="Trazado 884697" d="M105.025,307.388a27.518,27.518,0,0,0-12.2-34.48,116.538,116.538,0,0,0-16.914-7.841,24.293,24.293,0,0,0-28.044,7.611c-8.2,10.5-20.44,27.286-29.888,41.889C4.625,335.211,0,344.481,0,397.737H38.308l-.618-22.865L48.2,397.737H96.978L76.164,353.752c4.542,1.7,16.55,5.9,27.039,9.285l14.247-25.05L92.7,330.554c3.275-6.779,8.922-14.8,12.329-23.166" transform="translate(0 -200.918)" fill="#2b63a8"/>
    <path id="Trazado_884698" data-name="Trazado 884698" d="M341.555,421.285l-26.112-12,3.062-6.662,26.112,12a1.244,1.244,0,0,1,.611,1.651l-2.022,4.4a1.245,1.245,0,0,1-1.651.611" transform="translate(-240.641 -307.147)" fill="#e2eaff"/>
    <path id="Trazado_884699" data-name="Trazado 884699" d="M364.512,458.821a.236.236,0,0,1-.149-.053,29.158,29.158,0,0,0-12.161-5.83.237.237,0,1,1,.1-.464,29.634,29.634,0,0,1,12.359,5.926.237.237,0,0,1-.15.421" transform="translate(-268.541 -345.174)" fill="#5479f7"/>
    <path id="Trazado_884700" data-name="Trazado 884700" d="M267.967,446.02a.238.238,0,0,1-.094-.019l-6.915-2.97a15.731,15.731,0,0,1-7.888-21.433l18.547-37.456a.237.237,0,0,1,.425.21L253.5,421.807a15.257,15.257,0,0,0,7.65,20.787l6.915,2.97a.237.237,0,0,1-.094.455" transform="translate(-191.804 -292.948)"/>
    <path id="Trazado_884701" data-name="Trazado 884701" d="M343.914,537.281a.235.235,0,0,1-.085-.016c-5.162-1.994-14.213-2.738-14.3-2.745a.237.237,0,0,1,.038-.473c.092.008,9.211.757,14.436,2.775a.237.237,0,0,1-.085.458" transform="translate(-251.218 -407.407)"/>
    <path id="Trazado_884702" data-name="Trazado 884702" d="M118.558,493.846a.235.235,0,0,1-.078-.013l-43.5-15.1a.237.237,0,0,1,.156-.448l43.5,15.1a.237.237,0,0,1-.078.461" transform="translate(-57.078 -364.855)"/>
  </g>
</svg>
