<svg id="Grupo_1103882" data-name="Grupo 1103882" xmlns="http://www.w3.org/2000/svg" xmlns:xlink="http://www.w3.org/1999/xlink" width="295" height="211.827" viewBox="0 0 295 211.827">
  <defs>
    <clipPath id="clip-path">
      <rect id="Rectángulo_403950" data-name="Rectángulo 403950" width="295" height="211.827" fill="none"/>
    </clipPath>
    <clipPath id="clip-path-2">
      <rect id="Rectángulo_403957" data-name="Rectángulo 403957" width="220.36" height="154.602" fill="none"/>
    </clipPath>
  </defs>
  <g id="Grupo_1103877" data-name="Grupo 1103877">
    <g id="Grupo_1103876" data-name="Grupo 1103876" clip-path="url(#clip-path)">
      <path id="Trazado_884703" data-name="Trazado 884703" d="M1093.716,225.909a.237.237,0,0,1-.237-.237V64.057a.237.237,0,1,1,.474,0V225.673a.237.237,0,0,1-.237.237" transform="translate(-834.59 -48.71)"/>
      <path id="Trazado_884704" data-name="Trazado 884704" d="M1244.237,225.909a.237.237,0,0,1-.237-.237V64.057a.237.237,0,1,1,.474,0V225.673a.237.237,0,0,1-.237.237" transform="translate(-949.474 -48.71)"/>
      <path id="Trazado_884705" data-name="Trazado 884705" d="M1094.219,118.048a.237.237,0,0,1-.2-.367l35.518-53.754a.237.237,0,1,1,.395.261l-35.518,53.754a.237.237,0,0,1-.2.106" transform="translate(-834.974 -48.71)"/>
      <path id="Trazado_884706" data-name="Trazado 884706" d="M1129.738,118.048a.237.237,0,0,1-.2-.106l-35.518-53.754a.237.237,0,1,1,.4-.261l35.518,53.754a.237.237,0,0,1-.2.367" transform="translate(-834.975 -48.71)"/>
      <path id="Trazado_884707" data-name="Trazado 884707" d="M1129.738,345.927a.237.237,0,0,1-.2-.106l-17.562-26.578-17.561,26.578a.237.237,0,1,1-.395-.261l17.672-26.747-17.672-26.747a.237.237,0,0,1,.2-.367h35.517a.236.236,0,0,1,.2.367l-17.672,26.747,17.672,26.747a.237.237,0,0,1-.2.367m-35.078-53.754,17.318,26.211,17.319-26.211Z" transform="translate(-834.975 -222.637)"/>
      <path id="Trazado_884708" data-name="Trazado 884708" d="M1129.738,572.97a.237.237,0,0,1-.2-.106l-17.562-26.578-17.561,26.578a.237.237,0,1,1-.395-.261l17.672-26.747-17.672-26.747a.237.237,0,0,1,.2-.367h35.517a.236.236,0,0,1,.2.367l-17.672,26.747,17.672,26.747a.237.237,0,0,1-.2.367m-35.078-53.754,17.318,26.211,17.319-26.211Z" transform="translate(-834.975 -395.926)"/>
    </g>
  </g>
  <g id="Grupo_1103879" data-name="Grupo 1103879" transform="translate(17.194 15.081)">
    <g id="Grupo_1103878" data-name="Grupo 1103878" clip-path="url(#clip-path-2)">
      <rect id="Rectángulo_403951" data-name="Rectángulo 403951" width="182.966" height="30.291" transform="translate(12.498 71.268)" fill="#fff"/>
      <path id="Trazado_884709" data-name="Trazado 884709" d="M307.612,394.481H124.646a.237.237,0,0,1-.237-.237V363.953a.237.237,0,0,1,.237-.237H307.612a.237.237,0,0,1,.237.237v30.291a.237.237,0,0,1-.237.237m-182.73-.474H307.375V364.19H124.883Z" transform="translate(-112.148 -292.685)"/>
      <rect id="Rectángulo_403952" data-name="Rectángulo 403952" width="182.966" height="30.291" transform="translate(12.498 12.409)" fill="#fff"/>
      <path id="Trazado_884710" data-name="Trazado 884710" d="M307.612,145.878H124.646a.237.237,0,0,1-.237-.237V115.35a.237.237,0,0,1,.237-.237H307.612a.237.237,0,0,1,.237.237v30.291a.237.237,0,0,1-.237.237m-182.73-.474H307.375V115.587H124.883Z" transform="translate(-112.148 -102.941)"/>
      <rect id="Rectángulo_403953" data-name="Rectángulo 403953" width="19.983" height="141.523" transform="translate(3.86 -14.845)" fill="#fff"/>
      <path id="Trazado_884711" data-name="Trazado 884711" d="M108.142,142H88.16a.237.237,0,0,1-.237-.237V.237A.237.237,0,0,1,88.16,0h19.983a.237.237,0,0,1,.237.237V141.76a.237.237,0,0,1-.237.237M88.4,141.523h19.509V.474H88.4Z" transform="translate(-84.3 -15.081)"/>
      <rect id="Rectángulo_403954" data-name="Rectángulo 403954" width="19.983" height="141.523" transform="translate(72.862 -14.845)" fill="#fff"/>
      <path id="Trazado_884712" data-name="Trazado 884712" d="M399.591,142H379.608a.237.237,0,0,1-.237-.237V.237A.237.237,0,0,1,379.608,0h19.983a.237.237,0,0,1,.237.237V141.76a.237.237,0,0,1-.237.237m-19.746-.474h19.509V.474H379.845Z" transform="translate(-306.746 -15.081)"/>
      <rect id="Rectángulo_403955" data-name="Rectángulo 403955" width="19.983" height="141.523" transform="translate(141.865 -14.845)" fill="#fff"/>
      <path id="Trazado_884713" data-name="Trazado 884713" d="M691.039,142H671.056a.237.237,0,0,1-.237-.237V.237A.237.237,0,0,1,671.056,0h19.983a.237.237,0,0,1,.237.237V141.76a.237.237,0,0,1-.237.237m-19.746-.474H690.8V.474H671.292Z" transform="translate(-529.191 -15.081)"/>
      <rect id="Rectángulo_403956" data-name="Rectángulo 403956" width="19.983" height="141.523" transform="translate(189.011 -14.845)" fill="#fff"/>
      <path id="Trazado_884714" data-name="Trazado 884714" d="M890.174,142H870.191a.237.237,0,0,1-.237-.237V.237A.237.237,0,0,1,870.191,0h19.983a.237.237,0,0,1,.237.237V141.76a.237.237,0,0,1-.237.237m-19.746-.474h19.509V.474H870.427Z" transform="translate(-681.179 -15.081)"/>
      <path id="Trazado_884715" data-name="Trazado 884715" d="M59.044,402.166s12.255-29.075,29.5-31.576,29.226,6.7,40.5,3.751c14.059-3.673,45.176-35.377,76.44-35.015,27.021.313,46.632,23.135,66.158,62.839Z" transform="translate(-62.258 -274.068)" fill="#fff"/>
      <path id="Trazado_884716" data-name="Trazado 884716" d="M270.878,401.64H58.28a.237.237,0,0,1-.218-.329,94.587,94.587,0,0,1,8.306-14.892c4.788-6.956,12.383-15.522,21.374-16.826,9.022-1.309,16.654.581,23.387,2.247,6.3,1.56,11.743,2.907,17.092,1.51,4.761-1.244,11.645-5.829,19.616-11.138,7.907-5.266,16.87-11.235,26.544-15.932,11.242-5.457,21.176-8.059,30.342-7.953,13.15.152,24.944,5.62,36.054,16.717,10.145,10.132,19.777,24.83,30.313,46.255a.237.237,0,0,1-.212.341m-212.236-.474H270.5c-21.409-43.422-41.094-62.08-65.78-62.366-.173,0-.347,0-.52,0-20.351,0-40.992,13.747-56.1,23.808-8.007,5.333-14.922,9.938-19.759,11.2-5.464,1.428-10.961.067-17.325-1.508-6.691-1.657-14.276-3.534-23.206-2.238-8.821,1.28-16.317,9.747-21.052,16.626a95.156,95.156,0,0,0-8.117,14.479" transform="translate(-61.495 -273.305)"/>
    </g>
  </g>
  <g id="Grupo_1103881" data-name="Grupo 1103881">
    <g id="Grupo_1103880" data-name="Grupo 1103880" clip-path="url(#clip-path)">
      <path id="Trazado_884717" data-name="Trazado 884717" d="M699.391,457.213a69.353,69.353,0,0,0-7.025,4.856c-2.545,2.22-2.351,6.109-1.284,7.976s3.272.525,3.272.525c1.03,1.973,2.9-.2,2.9-.2.391,1.186,1.982-.034,1.982-.034.611.91,1.928-.521,1.928-.521,5.523-3.357,10.939-7.472,10.939-7.472Z" transform="translate(-526.895 -348.964)" fill="#fff"/>
      <path id="Trazado_884718" data-name="Trazado 884718" d="M694.692,470.872a1.3,1.3,0,0,1-.152-.009,1.458,1.458,0,0,1-1.065-.74,3.2,3.2,0,0,1-2.089.318,2.072,2.072,0,0,1-1.3-1.042c-1.137-1.989-1.306-5.969,1.334-8.272a69.911,69.911,0,0,1,7.058-4.88.237.237,0,1,1,.246.4,69.6,69.6,0,0,0-6.992,4.832c-2.416,2.108-2.264,5.879-1.234,7.68a1.617,1.617,0,0,0,1,.818,2.951,2.951,0,0,0,1.94-.378.237.237,0,0,1,.333.093,1.122,1.122,0,0,0,.819.7c.662.077,1.442-.652,1.689-.938a.237.237,0,0,1,.4.08c.081.245.2.308.289.335.4.125,1.109-.317,1.324-.482a.237.237,0,0,1,.341.056.39.39,0,0,0,.3.2c.429.032,1.063-.542,1.252-.746a.242.242,0,0,1,.051-.042c5.449-3.312,10.865-7.417,10.919-7.459a.237.237,0,0,1,.287.377c-.054.041-5.471,4.147-10.932,7.469-.163.171-.917.925-1.613.872a.828.828,0,0,1-.5-.22,2.12,2.12,0,0,1-1.569.429.843.843,0,0,1-.434-.311,2.783,2.783,0,0,1-1.711.861" transform="translate(-526.106 -348.201)"/>
      <path id="Trazado_884719" data-name="Trazado 884719" d="M704.585,483.692a.236.236,0,0,1-.151-.055c-.809-.676-2.033-.839-3.74-.5-.242.048-.486.1-.73.155a8.1,8.1,0,0,1-3.433.255c-.65-.14-1.427-.575-1.476-1.342-.051-.806.73-1.335,1.323-1.663l3.75-2.074a.237.237,0,0,1,.229.414l-3.75,2.074c-.48.265-1.113.68-1.079,1.219.03.471.575.8,1.1.909a7.754,7.754,0,0,0,3.232-.254c.247-.054.494-.108.74-.157,1.857-.368,3.209-.171,4.135.6a.237.237,0,0,1-.152.419" transform="translate(-530.493 -365.163)"/>
      <path id="Trazado_884720" data-name="Trazado 884720" d="M732.721,501.015a.237.237,0,0,1-.152-.418,2.75,2.75,0,0,0,.672-1.971,1.249,1.249,0,0,0-.759-1.012.237.237,0,0,1,.2-.428,1.718,1.718,0,0,1,1.026,1.38,3.162,3.162,0,0,1-.837,2.394.236.236,0,0,1-.152.055" transform="translate(-558.958 -379.455)"/>
      <path id="Trazado_884721" data-name="Trazado 884721" d="M724.367,500a.237.237,0,0,1-.152-.419,2.489,2.489,0,0,0,.946-2.028,1.728,1.728,0,0,0-1.341-1.567.237.237,0,0,1,.075-.468,2.189,2.189,0,0,1,1.739,2,2.969,2.969,0,0,1-1.115,2.427.237.237,0,0,1-.152.055" transform="translate(-552.298 -378.198)"/>
      <path id="Trazado_884722" data-name="Trazado 884722" d="M717.168,501.081a.237.237,0,0,1-.165-.407,3.341,3.341,0,0,0,1.1-1.855,1.528,1.528,0,0,0-.854-1.653.237.237,0,1,1,.156-.447,1.988,1.988,0,0,1,1.167,2.166,3.791,3.791,0,0,1-1.234,2.128.236.236,0,0,1-.165.067" transform="translate(-547.192 -379.107)"/>
      <path id="Trazado_884723" data-name="Trazado 884723" d="M706.538,502.242a.237.237,0,0,1-.152-.419l.188-.154a2.689,2.689,0,0,0,1.005-1.2,1.4,1.4,0,0,0-.424-1.631.237.237,0,0,1,.253-.4,1.885,1.885,0,0,1,.618,2.188,3.135,3.135,0,0,1-1.153,1.413l-.185.152a.237.237,0,0,1-.151.054" transform="translate(-539.079 -380.399)"/>
      <path id="Trazado_884724" data-name="Trazado 884724" d="M696.194,501.1a.237.237,0,0,1-.192-.376l1.449-2a.237.237,0,0,1,.383.278l-1.449,2a.236.236,0,0,1-.192.1" transform="translate(-531.184 -380.572)"/>
      <path id="Trazado_884725" data-name="Trazado 884725" d="M781.494,462.075a.23.23,0,0,1-.042,0,.236.236,0,0,1-.191-.275l.907-5.054a.237.237,0,1,1,.466.084l-.907,5.054a.237.237,0,0,1-.233.195" transform="translate(-596.288 -348.457)"/>
      <rect id="Rectángulo_403958" data-name="Rectángulo 403958" width="1.219" height="1.869" transform="translate(161.539 124.734)" fill="#fff"/>
      <path id="Trazado_884726" data-name="Trazado 884726" d="M682.751,528.186h-1.219a.237.237,0,0,1-.237-.237v-1.869a.237.237,0,0,1,.237-.237h1.219a.237.237,0,0,1,.237.237v1.869a.237.237,0,0,1-.237.237m-.982-.474h.746v-1.4h-.746Z" transform="translate(-519.993 -401.346)"/>
      <rect id="Rectángulo_403959" data-name="Rectángulo 403959" width="1.219" height="1.869" transform="translate(176.322 124.734)" fill="#fff"/>
      <path id="Trazado_884727" data-name="Trazado 884727" d="M745.191,528.186h-1.22a.237.237,0,0,1-.237-.237v-1.869a.237.237,0,0,1,.237-.237h1.22a.237.237,0,0,1,.237.237v1.869a.237.237,0,0,1-.237.237m-.983-.474h.746v-1.4h-.746Z" transform="translate(-567.65 -401.346)"/>
      <path id="Trazado_884728" data-name="Trazado 884728" d="M682.4,505.656v-3.742a1.245,1.245,0,0,1,1.242-1.241h10.18a1.245,1.245,0,0,1,1.242,1.241v3.742h2.114v-4.751a2.119,2.119,0,0,0-2.114-2.111H682.4a2.119,2.119,0,0,0-2.114,2.111v4.751Z" transform="translate(-519.226 -380.701)" fill="#fff"/>
      <path id="Trazado_884729" data-name="Trazado 884729" d="M696.421,505.13h-2.114a.237.237,0,0,1-.237-.237v-3.742a1.006,1.006,0,0,0-1.006-1h-10.18a1.006,1.006,0,0,0-1.006,1v3.742a.237.237,0,0,1-.237.237h-2.114a.237.237,0,0,1-.237-.237v-4.751a2.352,2.352,0,0,1,2.351-2.348h12.665a2.352,2.352,0,0,1,2.351,2.348v4.751a.237.237,0,0,1-.237.237m-1.877-.474h1.641v-4.514a1.878,1.878,0,0,0-1.877-1.874H681.642a1.878,1.878,0,0,0-1.877,1.874v4.514h1.64v-3.506a1.48,1.48,0,0,1,1.479-1.477h10.18a1.48,1.48,0,0,1,1.479,1.477Z" transform="translate(-518.464 -379.938)"/>
      <path id="Trazado_884730" data-name="Trazado 884730" d="M663.057,563.852H622.336a2.375,2.375,0,0,1-2.368-2.368v-25.61a2.375,2.375,0,0,1,2.368-2.368h40.721a2.375,2.375,0,0,1,2.368,2.368v25.61a2.375,2.375,0,0,1-2.368,2.368" transform="translate(-473.186 -407.194)" fill="#fff"/>
      <path id="Trazado_884731" data-name="Trazado 884731" d="M662.293,563.326H621.573a2.607,2.607,0,0,1-2.6-2.6v-25.61a2.607,2.607,0,0,1,2.6-2.6h40.721a2.607,2.607,0,0,1,2.6,2.6v25.61a2.607,2.607,0,0,1-2.6,2.6m-40.721-30.345a2.134,2.134,0,0,0-2.131,2.131v25.61a2.133,2.133,0,0,0,2.131,2.131h40.721a2.133,2.133,0,0,0,2.131-2.131v-25.61a2.134,2.134,0,0,0-2.131-2.131Z" transform="translate(-472.423 -406.432)"/>
      <path id="Trazado_884732" data-name="Trazado 884732" d="M697.283,568.041h-5.976v-5.968h-4.851v5.968h-5.976v4.844h5.976v5.968h4.851v-5.968h5.976Z" transform="translate(-519.371 -428.998)" fill="#5479f7"/>
      <path id="Trazado_884733" data-name="Trazado 884733" d="M745.827,353.139l-7.2,14.106L719.675,378.2a.592.592,0,0,0,.039,1.018l10,7.051a1.986,1.986,0,0,0,1.6.311c3.862-.9,19.383-4.572,21.932-5.663,2.915-1.247,2.573-15.793,1.011-19.33s-8.431-8.45-8.431-8.45" transform="translate(-549.079 -269.531)" fill="#e2eaff"/>
      <path id="Trazado_884734" data-name="Trazado 884734" d="M703.013,496.839l-.05-.031a5.279,5.279,0,0,0-3.37-.14,11.8,11.8,0,0,1-3.736.467l-2.231,2.872c1.067,1.867,3.272.525,3.272.525,1.03,1.973,2.9-.2,2.9-.2.29.88,1.24.436,1.711.148v.008l.026-.024c.149-.093.244-.165.244-.165.447.665,1.08.257,1.388-.01l.161-.167c.5-.518,1.346-2.5-.314-3.286" transform="translate(-529.405 -378.922)" fill="#fff"/>
      <path id="Trazado_884735" data-name="Trazado 884735" d="M697.039,501.143a1.311,1.311,0,0,1-.152-.009,1.459,1.459,0,0,1-1.067-.743,2.46,2.46,0,0,1-3.358-.826.237.237,0,0,1,.411-.235c.94,1.643,2.842.587,2.923.541a.237.237,0,0,1,.327.1,1.123,1.123,0,0,0,.818.7c.653.075,1.442-.652,1.69-.938a.237.237,0,0,1,.4.08c.081.245.2.308.289.334.4.125,1.109-.317,1.325-.482a.237.237,0,0,1,.341.056.5.5,0,0,0,.344.252,1.049,1.049,0,0,0,.693-.31l.146-.152a2.541,2.541,0,0,0,.574-1.9,1.353,1.353,0,0,0-.819-1.006l-.022-.012-.05-.03a5.112,5.112,0,0,0-3.2-.11c-.243.048-.486.1-.731.155a9.042,9.042,0,0,1-3.082.315.237.237,0,1,1,.061-.47,8.69,8.69,0,0,0,2.919-.308c.247-.054.494-.108.74-.157a5.5,5.5,0,0,1,3.523.161l.054.032a1.822,1.822,0,0,1,1.072,1.345,2.982,2.982,0,0,1-.7,2.315l-.16.166a1.455,1.455,0,0,1-1.081.436.886.886,0,0,1-.522-.269,2.11,2.11,0,0,1-1.563.426.845.845,0,0,1-.434-.311,2.783,2.783,0,0,1-1.711.861" transform="translate(-528.493 -378.394)"/>
      <path id="Trazado_884736" data-name="Trazado 884736" d="M724.2,500.328a.237.237,0,0,1-.152-.419,2.488,2.488,0,0,0,.946-2.027,1.728,1.728,0,0,0-1.341-1.567.237.237,0,1,1,.075-.468,2.189,2.189,0,0,1,1.739,2,2.97,2.97,0,0,1-1.115,2.427.236.236,0,0,1-.151.055" transform="translate(-552.172 -378.449)"/>
      <path id="Trazado_884737" data-name="Trazado 884737" d="M717,501.409a.237.237,0,0,1-.165-.407,3.344,3.344,0,0,0,1.1-1.855,1.528,1.528,0,0,0-.854-1.653.237.237,0,1,1,.156-.447,1.988,1.988,0,0,1,1.167,2.166,3.793,3.793,0,0,1-1.234,2.128.236.236,0,0,1-.165.067" transform="translate(-547.066 -379.358)"/>
      <path id="Trazado_884738" data-name="Trazado 884738" d="M706.374,502.571a.237.237,0,0,1-.151-.419l.188-.154a2.689,2.689,0,0,0,1.005-1.2,1.405,1.405,0,0,0-.424-1.631.237.237,0,0,1,.253-.4,1.885,1.885,0,0,1,.618,2.188,3.133,3.133,0,0,1-1.153,1.413l-.184.152a.236.236,0,0,1-.151.055" transform="translate(-538.954 -380.65)"/>
      <path id="Trazado_884739" data-name="Trazado 884739" d="M696.029,501.426a.237.237,0,0,1-.192-.376l1.449-2a.237.237,0,1,1,.383.278l-1.449,2a.236.236,0,0,1-.192.1" transform="translate(-531.059 -380.823)"/>
      <path id="Trazado_884740" data-name="Trazado 884740" d="M918.629,232.188l1.721,9.415s10.045.028,13.518-.469a130.679,130.679,0,0,1-8.158-15.856,41.057,41.057,0,0,0-7.081,6.91" transform="translate(-701.137 -171.942)" fill="#fff"/>
      <path id="Trazado_884741" data-name="Trazado 884741" d="M919.581,241.07a.236.236,0,0,1-.233-.194l-1.716-9.414a.237.237,0,0,1,.045-.186,41.625,41.625,0,0,1,7.114-6.958.237.237,0,0,1,.36.1,131.752,131.752,0,0,0,8.12,15.821.237.237,0,0,1-.406.244,134.247,134.247,0,0,1-8.033-15.6,40.857,40.857,0,0,0-6.716,6.6l1.7,9.311a.236.236,0,0,1-.19.275.243.243,0,0,1-.043,0" transform="translate(-700.373 -171.173)"/>
      <path id="Trazado_884742" data-name="Trazado 884742" d="M867.472,172.248a7.879,7.879,0,0,1,3.979-5.622,11.516,11.516,0,0,1,6.821-1.347c5.157-1.042,9.636-.87,10.975,6.6a17.375,17.375,0,0,1-.557,7.847c-.747,3.6-2.729,1.477-4.112.476-.866-.626-1.97,1.059-3.007.831-5-1.094-15.177.116-14.1-8.789" transform="translate(-662.031 -125.797)"/>
      <path id="Trazado_884743" data-name="Trazado 884743" d="M879.641,206.142s5.407-3.241,6.882-1.1.935,4.885,3.4,3.867c0,0,2.087-4.168,4.61-2.338s1.077,5.026-1.255,6.146a5.714,5.714,0,0,1-4.127,5.341c-4.272,1.506-7.435-4.859-9.507-11.912" transform="translate(-671.379 -155.937)" fill="#fff"/>
      <path id="Trazado_884744" data-name="Trazado 884744" d="M887.133,217.764a3.888,3.888,0,0,1-1.788-.448c-2.508-1.284-4.761-5.273-6.7-11.856a.236.236,0,0,1,.106-.27c.228-.137,5.616-3.33,7.2-1.036a8.774,8.774,0,0,1,1.037,2.294c.266.8.477,1.425.907,1.621a1.433,1.433,0,0,0,1.089-.1c.231-.433,1.359-2.4,2.935-2.787a2.326,2.326,0,0,1,1.983.444,3.175,3.175,0,0,1,1.411,2.916,4.729,4.729,0,0,1-2.571,3.57,6.017,6.017,0,0,1-4.282,5.417,3.981,3.981,0,0,1-1.33.236M879.156,205.5c1.859,6.26,4.072,10.2,6.4,11.391a3.362,3.362,0,0,0,2.745.188,5.511,5.511,0,0,0,3.969-5.109.237.237,0,0,1,.134-.222,4.32,4.32,0,0,0,2.436-3.251,2.669,2.669,0,0,0-1.217-2.49,1.851,1.851,0,0,0-1.593-.367c-1.525.372-2.655,2.6-2.666,2.62a.237.237,0,0,1-.121.113,1.93,1.93,0,0,1-1.545.125c-.617-.281-.868-1.032-1.159-1.9a8.384,8.384,0,0,0-.978-2.175c-1.068-1.547-4.844.177-6.408,1.08" transform="translate(-670.615 -155.188)"/>
      <path id="Trazado_884745" data-name="Trazado 884745" d="M929.241,224.615h-.023a.237.237,0,0,1-.213-.258,3.07,3.07,0,0,1,1.833-2.5.237.237,0,1,1,.18.438,2.587,2.587,0,0,0-1.542,2.1.237.237,0,0,1-.235.214" transform="translate(-709.055 -169.319)"/>
      <path id="Trazado_884746" data-name="Trazado 884746" d="M878.584,151.8c-.4.112-7.218,3.874-10.176,4.3-.532.872-.269,2.649-5.484,3.182s-7.488.855-7.992.3,2.513-2.892,2.513-2.892-1.278-5.37.373-8.959c1.619-3.519,10.135-6.749,15.444-3.623,3.612,2.127,5.321,7.7,5.321,7.7" transform="translate(-652.477 -109.023)" fill="#fff"/>
      <path id="Trazado_884747" data-name="Trazado 884747" d="M855.511,159.327c-.825,0-1.281-.109-1.517-.371a.472.472,0,0,1-.115-.37c.068-.769,1.928-2.293,2.54-2.776-.2-.914-1.109-5.635.423-8.964.8-1.733,3.136-3.387,6.1-4.317,3.6-1.127,7.124-.913,9.674.589,3.649,2.149,5.356,7.6,5.427,7.832a.237.237,0,0,1-.162.3c-.087.028-.557.266-1.1.541-2.165,1.1-6.629,3.354-8.989,3.745-.053.1-.1.223-.153.357-.376.949-.944,2.383-5.458,2.845l-1.767.183c-2.357.246-3.9.408-4.907.408m11.9-17.039a14.535,14.535,0,0,0-4.326.693c-2.8.878-5.084,2.473-5.816,4.063-1.6,3.475-.371,8.753-.358,8.805a.237.237,0,0,1-.085.242c-1.39,1.076-2.548,2.27-2.478,2.555.357.392,2.489.169,6.019-.2q.822-.086,1.769-.183c4.228-.433,4.712-1.656,5.065-2.548a3.416,3.416,0,0,1,.241-.522.237.237,0,0,1,.169-.111c2.249-.321,6.781-2.614,8.959-3.716.487-.246.779-.393.958-.478-.346-1.009-2.042-5.533-5.149-7.362a9.754,9.754,0,0,0-4.967-1.239" transform="translate(-651.714 -108.24)"/>
      <path id="Trazado_884748" data-name="Trazado 884748" d="M865.731,197.821a63.494,63.494,0,0,0,9.113-1.088Z" transform="translate(-660.763 -150.155)" fill="#fff"/>
      <path id="Trazado_884749" data-name="Trazado 884749" d="M864.968,197.294a.237.237,0,0,1-.009-.474,63.69,63.69,0,0,0,9.074-1.083.237.237,0,1,1,.1.464,64.279,64.279,0,0,1-9.152,1.092h-.009" transform="translate(-659.999 -149.391)"/>
      <path id="Trazado_884750" data-name="Trazado 884750" d="M880.932,143.381a7.123,7.123,0,0,0-3.648,4.422,15.123,15.123,0,0,0-.545,5.69.459.459,0,0,1-.38.5c-.427.073-1.07.175-1.458.205a.412.412,0,0,1-.442-.37c-.135-1.312-.39-5.629,1.619-8.811,0,0,1.117-1.534,4.855-1.636" transform="translate(-667.355 -109.434)" fill="#fff"/>
      <path id="Trazado_884751" data-name="Trazado 884751" d="M874.11,153.673a.646.646,0,0,1-.645-.583c-.131-1.279-.4-5.707,1.654-8.962.057-.079,1.238-1.642,5.048-1.747a.237.237,0,0,1,.1.455,6.953,6.953,0,0,0-3.513,4.271,14.937,14.937,0,0,0-.536,5.6.7.7,0,0,1-.576.758c-.46.078-1.09.178-1.48.208l-.051,0m5.073-10.752c-2.765.3-3.663,1.461-3.673,1.474-1.964,3.113-1.7,7.406-1.574,8.647a.177.177,0,0,0,.189.158c.371-.028.986-.125,1.436-.2a.221.221,0,0,0,.185-.243,15.424,15.424,0,0,1,.554-5.783,7.511,7.511,0,0,1,2.883-4.05" transform="translate(-666.597 -108.671)"/>
      <path id="Trazado_884752" data-name="Trazado 884752" d="M814.067,466.7l-40.951.827a12.4,12.4,0,0,0-11.682,15.513l11.747,45.208-3.709,6.22a1.972,1.972,0,0,0,1.694,2.982h27.672a3.557,3.557,0,0,0,3.3-4.881l-12.783-39.478,31.21.288Z" transform="translate(-580.85 -356.207)" fill="#fff"/>
      <path id="Trazado_884753" data-name="Trazado 884753" d="M804.615,637.132a66.132,66.132,0,0,1-11.426-1,.237.237,0,0,1,.082-.466,65.438,65.438,0,0,0,23.881-.222.237.237,0,0,1,.091.465,66.063,66.063,0,0,1-12.628,1.221" transform="translate(-605.247 -484.995)"/>
      <path id="Trazado_884754" data-name="Trazado 884754" d="M869.1,543.162a.237.237,0,0,1-.227-.168l-3.012-9.923a.237.237,0,0,1,.453-.138l3.011,9.922a.237.237,0,0,1-.158.3.24.24,0,0,1-.069.01" transform="translate(-660.851 -406.63)"/>
      <path id="Trazado_884755" data-name="Trazado 884755" d="M798.065,537.413H770.393a2.209,2.209,0,0,1-1.9-3.34l3.658-6.135-11.722-45.112a12.494,12.494,0,0,1,1.582-9.983.237.237,0,0,1,.4.255,12.026,12.026,0,0,0-1.522,9.608l11.747,45.208a.236.236,0,0,1-.026.181l-3.709,6.22a1.735,1.735,0,0,0,1.49,2.624h27.672a3.321,3.321,0,0,0,3.082-4.556l-12.789-39.493a.236.236,0,0,1,.034-.213.23.23,0,0,1,.193-.1l30.906.285L813.1,466.634a.237.237,0,1,1,.46-.112l6.463,26.528a.237.237,0,0,1-.044.2.223.223,0,0,1-.187.089l-30.882-.285,12.682,39.165a3.794,3.794,0,0,1-3.527,5.191" transform="translate(-580.077 -355.931)"/>
      <path id="Trazado_884756" data-name="Trazado 884756" d="M897.693,448.479c.067.4,17.733,12.352,2.446,30.706s-17.481,20.67-17.481,20.67L913.37,503.3l.074.008a7.32,7.32,0,0,1,6.476,6.9l.688,12.393a2.853,2.853,0,0,1-2.685,2.64l-60-1.694a14.953,14.953,0,0,1-12.359-23.371,525.49,525.49,0,0,1,37.265-48.885Z" transform="translate(-643.368 -342.298)" fill="#fff"/>
      <path id="Trazado_884757" data-name="Trazado 884757" d="M917.119,524.711l-60.007-1.694a15.19,15.19,0,0,1-12.548-23.741,521.258,521.258,0,0,1,37.282-48.907.237.237,0,0,1,.135-.077l14.864-2.809a.237.237,0,0,1,.253.122c.049.053.216.2.393.35,10.329,8.912,11.048,19.785,2.026,30.618-12.337,14.812-16.173,19.206-17.178,20.334l30.327,3.4a7.517,7.517,0,0,1,6.687,7.122l.688,12.393a.237.237,0,0,1,0,.045,3.1,3.1,0,0,1-2.92,2.845m-34.97-73.969a521.016,521.016,0,0,0-37.194,48.8,14.716,14.716,0,0,0,12.163,23l60.007,1.694a2.629,2.629,0,0,0,2.441-2.414l-.686-12.37a7.045,7.045,0,0,0-6.265-6.677l-.072-.007-30.716-3.444a.237.237,0,0,1-.146-.4c.022-.023,2.385-2.546,17.471-20.658,8.83-10.6,8.13-21.24-1.971-29.956-.188-.162-.307-.265-.385-.34Zm14.973-3.066h0m0,0h0" transform="translate(-642.565 -341.535)"/>
      <path id="Trazado_884758" data-name="Trazado 884758" d="M1119.626,695.677a.237.237,0,0,1-.223-.315c2.254-6.41.014-18.191-.009-18.309a.237.237,0,1,1,.465-.09c.094.488,2.288,12.024-.009,18.556a.237.237,0,0,1-.223.158" transform="translate(-854.366 -516.541)"/>
      <path id="Trazado_884759" data-name="Trazado 884759" d="M919.436,291.166l-.807,9.81,11.477.717,1.191-11.477Z" transform="translate(-701.136 -221.506)" fill="#fff"/>
      <path id="Trazado_884760" data-name="Trazado 884760" d="M991.535,492.184s-12.13,9.089-16.513,11.666-8.378,8.471-7.831,10.224,3.273-.722,3.273-.722-2.425,4.008-1.305,4.772,5.905-3.463,5.905-3.463-3.392,3.334-3.2,4.847,1.725,1.6,5.646-1.741c0,0-1.87,2.09-.647,3.231.913.852,7.505-4.029,10.806-6.967,0,0,.656-1.59,7.268-3.812Z" transform="translate(-738.163 -375.656)" fill="#fff"/>
      <path id="Trazado_884761" data-name="Trazado 884761" d="M976.392,520.554a.641.641,0,0,1-.453-.146,1.864,1.864,0,0,1-.214-2.266c-1.946,1.5-3.3,2.078-4.114,1.761a1.248,1.248,0,0,1-.745-1.129c-.095-.763.579-1.88,1.342-2.873-1.479,1.092-3.227,2.144-3.942,1.656-.919-.627-.033-2.73.661-4.065a2.823,2.823,0,0,1-2.009.644,1.03,1.03,0,0,1-.713-.755c-.607-1.945,3.545-7.915,7.938-10.5,4.321-2.541,16.37-11.56,16.491-11.651a.237.237,0,0,1,.375.146l3.4,18.035a.236.236,0,0,1-.157.268c-6.328,2.126-7.12,3.668-7.127,3.683a.262.262,0,0,1-.059.081c-1.358,1.209-8.5,7.11-10.672,7.11m.356-3.787a.237.237,0,0,1,.177.394c-.017.019-1.7,1.931-.662,2.9.59.55,6.25-3.205,10.456-6.943.185-.317,1.333-1.829,7.186-3.821l-3.289-17.46c-1.911,1.426-12.275,9.127-16.231,11.453-4.3,2.53-8.221,8.361-7.725,9.949a.579.579,0,0,0,.385.44c.7.191,2.044-.849,2.5-1.266a.237.237,0,0,1,.362.3c-.959,1.585-2.019,4.015-1.374,4.454.669.456,3.685-1.74,5.615-3.445a.237.237,0,0,1,.323.346c-.92.9-3.278,3.5-3.135,4.649.05.4.2.648.446.746.442.171,1.653.056,4.811-2.638a.236.236,0,0,1,.153-.057" transform="translate(-737.405 -374.892)"/>
      <path id="Trazado_884762" data-name="Trazado 884762" d="M981.453,565.84a.237.237,0,0,1-.188-.38,16.052,16.052,0,0,1,5.081-4.371.237.237,0,0,1,.227.416,15.569,15.569,0,0,0-4.93,4.241.236.236,0,0,1-.189.094" transform="translate(-748.906 -428.225)"/>
      <path id="Trazado_884763" data-name="Trazado 884763" d="M1000.885,578.421a.237.237,0,0,1-.155-.415,26.172,26.172,0,0,1,3.062-2.3.237.237,0,1,1,.255.4,25.811,25.811,0,0,0-3.006,2.258.235.235,0,0,1-.156.058" transform="translate(-763.737 -439.375)"/>
      <path id="Trazado_884764" data-name="Trazado 884764" d="M1011.038,589.549a.237.237,0,0,1-.17-.4,21.7,21.7,0,0,1,3.569-2.957.237.237,0,0,1,.261.395,21.2,21.2,0,0,0-3.491,2.892.236.236,0,0,1-.17.072" transform="translate(-771.486 -447.375)"/>
      <path id="Trazado_884765" data-name="Trazado 884765" d="M885.477,282.62a34.946,34.946,0,0,0-22.082-18.834s-.651-.948-.965-1.461c-1.72-2.8-2.793-3.332-5.552-2.761l-3.532.777a3.409,3.409,0,0,0-1.5.751l-2.392,11.977a.651.651,0,0,1-1.284-.046l-1.353-10.752a.535.535,0,0,0-.667-.366l-.951.282c-2.063.427-2.465,1.949-2.465,4.054a32.748,32.748,0,0,0-6.82,1.772,21.422,21.422,0,0,0-10.052,10.454l-3.528,7.646,8.933,22.139a8.4,8.4,0,0,0,6.483,5.4l36.5,5.968,4.935,14.587a2.032,2.032,0,0,0,3.09,1.014,123.791,123.791,0,0,0,10.4-7.874c7.142-6.847,7.258-19.042,2.245-27.945Z" transform="translate(-627.642 -197.954)" fill="#e2eaff"/>
      <path id="Trazado_884766" data-name="Trazado 884766" d="M1029.48,430.86a.237.237,0,0,1-.122-.44c.057-.034,5.715-3.47,4.889-6.634-.865-3.313-8.434-18.493-8.511-18.646a.237.237,0,0,1,.424-.211c.313.626,7.667,15.376,8.545,18.737.916,3.507-4.857,7.013-5.1,7.16a.236.236,0,0,1-.121.034" transform="translate(-782.866 -308.959)"/>
      <path id="Trazado_884767" data-name="Trazado 884767" d="M884.221,334.957h-.01a.236.236,0,0,1-.227-.246c.009-.22.918-22.1,2.12-30.418,1-6.913,3.43-16.587,3.455-16.684a.237.237,0,0,1,.459.116c-.024.1-2.45,9.747-3.445,16.636-1.2,8.293-2.106,30.15-2.115,30.369a.237.237,0,0,1-.236.227" transform="translate(-674.694 -219.379)"/>
      <path id="Trazado_884768" data-name="Trazado 884768" d="M971.8,331.258a.237.237,0,0,1-.236-.222c-2.181-33.741,5.123-53.628,5.2-53.825a.237.237,0,0,1,.443.166c-.074.2-7.342,20-5.168,53.628a.237.237,0,0,1-.221.251H971.8" transform="translate(-741.225 -211.462)"/>
      <path id="Trazado_884769" data-name="Trazado 884769" d="M928.019,360.41a.237.237,0,0,1-.235-.213c-1.231-12.153.921-41.215.943-41.507a.234.234,0,0,1,.254-.218.237.237,0,0,1,.218.254c-.022.292-2.171,29.313-.944,41.424a.237.237,0,0,1-.212.259h-.024" transform="translate(-707.834 -243.071)"/>
      <path id="Trazado_884770" data-name="Trazado 884770" d="M910.008,360.5a63.164,63.164,0,0,1-16.914-2.24.237.237,0,1,1,.141-.452,63.39,63.39,0,0,0,19.573,2.154.237.237,0,0,1,.022.473q-1.439.066-2.821.064" transform="translate(-681.52 -273.086)"/>
      <path id="Trazado_884771" data-name="Trazado 884771" d="M860.305,379.884a.237.237,0,0,1-.236-.216,69.157,69.157,0,0,1,3.04-27.145.237.237,0,1,1,.444.164,68.66,68.66,0,0,0-3.012,26.939.237.237,0,0,1-.215.257h-.021" transform="translate(-656.246 -268.942)"/>
      <path id="Trazado_884772" data-name="Trazado 884772" d="M100.41,502.943H35.125L24.546,464.027l-2.755-1.015,7.481-15.191A28.2,28.2,0,0,1,46.049,433.4l21.685-6.3,23.072,7.717a28.2,28.2,0,0,1,14.556,11.241l11.369,17.313L102.164,475.5Z" transform="translate(-16.632 -325.98)" fill="#2b63a8"/>
      <path id="Trazado_884773" data-name="Trazado 884773" d="M140.015,572a.237.237,0,0,1-.221-.321l4.383-11.5a.237.237,0,1,1,.442.169l-4.383,11.5a.238.238,0,0,1-.221.153" transform="translate(-106.685 -427.436)"/>
      <path id="Trazado_884774" data-name="Trazado 884774" d="M316.545,553.625a.237.237,0,0,1-.214-.337c4.276-9.194,3.682-24.1,3.676-24.251a.237.237,0,0,1,.473-.021c.006.151.605,15.174-3.72,24.471a.236.236,0,0,1-.215.137" transform="translate(-241.42 -403.596)"/>
      <path id="Trazado_884775" data-name="Trazado 884775" d="M171.868,493.32a.234.234,0,0,1-.07-.011.237.237,0,0,1-.156-.3,97.109,97.109,0,0,0,3.748-38.545,77.361,77.361,0,0,0-3.236-16.125.237.237,0,0,1,.446-.159A77.812,77.812,0,0,1,175.86,454.4a97.588,97.588,0,0,1-3.765,38.751.237.237,0,0,1-.226.166" transform="translate(-130.997 -334.321)"/>
      <path id="Trazado_884776" data-name="Trazado 884776" d="M283.993,493.04a.239.239,0,0,1-.079-.013.237.237,0,0,1-.145-.3c5.385-15.3.71-42.08.662-42.348a.237.237,0,1,1,.466-.083c.048.27,4.744,27.176-.682,42.589a.237.237,0,0,1-.223.158" transform="translate(-216.574 -343.534)"/>
      <path id="Trazado_884777" data-name="Trazado 884777" d="M190.569,565.07a.237.237,0,0,1-.108-.448,34.115,34.115,0,0,1,8.355-2.69c4.429-.82,10.868-1.016,16.4,2.7a.237.237,0,0,1-.264.393c-10.338-6.954-24.136-.056-24.274.014a.238.238,0,0,1-.107.026" transform="translate(-145.269 -428.516)"/>
      <path id="Trazado_884778" data-name="Trazado 884778" d="M417.346,685.941l7.453,1.267,4.7-3.977L444.3,671.507a4.253,4.253,0,0,1,6.714,4.555l-8.928,29.974a10.106,10.106,0,0,1-10.775,7.168l-70.516-7.66-90.031,4.488s27.506-38.921,26.167-38.921l73.02,6.372Z" transform="translate(-206.656 -511.806)" fill="#fff"/>
      <path id="Trazado_884779" data-name="Trazado 884779" d="M431.642,712.743a10.372,10.372,0,0,1-1.123-.061l-70.5-7.658-90.012,4.487a.237.237,0,0,1-.205-.373c10.336-14.626,25.681-36.776,26.159-38.658a.237.237,0,0,1-.036-.136.246.246,0,0,1,.275-.224l73,6.371,47.42,8.46,7.343,1.248,4.619-3.906,14.8-11.729a4.49,4.49,0,0,1,7.088,4.809l-8.928,29.974a10.345,10.345,0,0,1-9.9,7.4m-71.614-8.193h.026l70.516,7.66a9.868,9.868,0,0,0,10.522-7l8.928-29.974a4.017,4.017,0,0,0-6.34-4.3l-14.794,11.724-4.7,3.972a.236.236,0,0,1-.192.053l-7.453-1.267h0l-47.4-8.458-72.74-6.347c-.291.895-2.265,4.323-12.9,19.741-5.785,8.384-11.689,16.764-13.028,18.661l89.545-4.464h.012" transform="translate(-205.893 -511.048)"/>
      <path id="Trazado_884780" data-name="Trazado 884780" d="M902.753,762.584a.237.237,0,0,1-.192-.375c8.683-12.045,4.252-21.925,4.206-22.023a.237.237,0,1,1,.429-.2,17.36,17.36,0,0,1,1.232,6.616c.047,3.711-.867,9.479-5.483,15.884a.236.236,0,0,1-.192.1" transform="translate(-688.839 -564.684)"/>
      <path id="Trazado_884781" data-name="Trazado 884781" d="M247.382,564.74l16.256,9.819a3.685,3.685,0,0,1-1.905,6.839H221.915A11.774,11.774,0,0,1,211.4,574.92l-14.6-28.961-3.852,3.354,5.638,8.161-22.766,16.26A41.146,41.146,0,0,1,151.91,581.4H133.387L120.27,558.244l12.477-.068,57.411-53.151a15.624,15.624,0,0,1,24.51,4.378l23.671,46.282,4.265,7.125Z" transform="translate(-91.795 -382.294)" fill="#fff"/>
      <path id="Trazado_884782" data-name="Trazado 884782" d="M448.851,555.148a.237.237,0,0,1-.211-.129l-23.671-46.281a15.387,15.387,0,0,0-24.138-4.312l-4.359,3.651a.237.237,0,1,1-.3-.363l4.35-3.643a15.861,15.861,0,0,1,24.873,4.452L449.062,554.8a.237.237,0,0,1-.1.319.233.233,0,0,1-.107.026" transform="translate(-302.307 -381.521)"/>
      <path id="Trazado_884783" data-name="Trazado 884783" d="M413.614,621.014a.236.236,0,0,1-.219-.147c-2.387-5.818-8.659-21.039-9.022-21.591a.237.237,0,0,1,.394-.262c.447.671,8.185,19.526,9.066,21.673a.237.237,0,0,1-.219.327" transform="translate(-308.605 -457.112)"/>
      <path id="Trazado_884784" data-name="Trazado 884784" d="M378.088,594.146a.236.236,0,0,1-.194-.1c-.828-1.179-20.207-28.944-13.742-34.674a.237.237,0,1,1,.314.354c-6.151,5.452,13.615,33.762,13.815,34.047a.237.237,0,0,1-.193.373" transform="translate(-276.931 -426.891)"/>
      <path id="Trazado_884785" data-name="Trazado 884785" d="M260.97,726.188H221.152a11.951,11.951,0,0,1-10.723-6.608l-14.462-28.689-3.463,3.015,5.518,7.987a.237.237,0,0,1-.057.327L175.2,718.481a41.151,41.151,0,0,1-24.052,7.708H132.623a.237.237,0,0,1-.206-.12L119.3,702.914a.237.237,0,0,1,.412-.233l13.049,23.034h18.386a40.681,40.681,0,0,0,23.777-7.619L197.5,701.97,191.994,694a.236.236,0,0,1,.04-.313l3.852-3.354a.237.237,0,0,1,.367.072l14.6,28.961a11.48,11.48,0,0,0,10.3,6.347H260.97a3.448,3.448,0,0,0,1.783-6.4L246.507,709.5l-4.918-2.331a.237.237,0,0,1-.1-.09l-4.115-6.719a.237.237,0,1,1,.4-.247l4.078,6.659,4.865,2.306.021.011L263,718.91a3.921,3.921,0,0,1-2.027,7.278" transform="translate(-91.032 -526.848)"/>
      <path id="Trazado_884786" data-name="Trazado 884786" d="M544.015,765.146c-1.528,0-3.16-.073-4.9-.236a.237.237,0,1,1,.044-.471c15.866,1.485,22.583-4.579,22.649-4.64a.237.237,0,1,1,.323.346c-.06.056-5.517,5-18.115,5" transform="translate(-411.31 -579.863)"/>
      <path id="Trazado_884787" data-name="Trazado 884787" d="M8.6,582.207l-6.56,20.759a23.787,23.787,0,0,0,2.515,19.467l17.459,28.23a25.682,25.682,0,0,0,15.614,5.293H54.75a6.9,6.9,0,0,0,5.294-2.475h.285a5.053,5.053,0,0,0,4.864-3.691l1.523-.863a4.217,4.217,0,0,0-1.121-7.775l-11.87-2.758a14.6,14.6,0,0,0-3.51-.377l-7.664.11L25.492,608.746l8.6-20.056Z" transform="translate(-0.763 -444.365)" fill="#fff"/>
      <path id="Trazado_884788" data-name="Trazado 884788" d="M53.987,655.429H36.865a26.062,26.062,0,0,1-15.758-5.341.248.248,0,0,1-.057-.063L3.591,621.795a24.022,24.022,0,0,1-2.54-19.661l6.561-20.761a.237.237,0,1,1,.451.143L1.5,602.274a23.549,23.549,0,0,0,2.49,19.272L21.43,649.738a25.588,25.588,0,0,0,15.436,5.217H53.987a6.65,6.65,0,0,0,5.113-2.39.237.237,0,0,1,.181-.085h.285a4.832,4.832,0,0,0,4.636-3.518.238.238,0,0,1,.111-.142l1.523-.862a3.98,3.98,0,0,0-1.057-7.338l-11.871-2.758a14.323,14.323,0,0,0-3.453-.371l-7.664.11a.24.24,0,0,1-.208-.118l-10.171-17.52a.237.237,0,1,1,.409-.238l10.1,17.4,7.525-.107a14.811,14.811,0,0,1,3.567.383l11.871,2.758a4.454,4.454,0,0,1,1.184,8.211l-1.44.815a5.308,5.308,0,0,1-5.064,3.769h-.175a7.12,7.12,0,0,1-5.4,2.475" transform="translate(0 -443.602)"/>
      <path id="Trazado_884789" data-name="Trazado 884789" d="M212.071,870.749a.237.237,0,0,1-.221-.321,2,2,0,0,0-.672-2.372c-1.967-1.231-10.662-1-10.749-1a.232.232,0,0,1-.243-.23.237.237,0,0,1,.23-.243c.364-.011,8.926-.235,11.013,1.071a2.432,2.432,0,0,1,.864,2.942.237.237,0,0,1-.221.152" transform="translate(-152.79 -661.397)"/>
      <path id="Trazado_884790" data-name="Trazado 884790" d="M219.3,853.205a.237.237,0,0,1-.234-.2,2.657,2.657,0,0,0-2.036-1.968,54.514,54.514,0,0,0-13.373-1.611h0a.237.237,0,0,1,0-.474,55.177,55.177,0,0,1,13.515,1.631,3.115,3.115,0,0,1,2.37,2.355.237.237,0,0,1-.2.268l-.034,0" transform="translate(-155.254 -647.951)"/>
      <path id="Trazado_884791" data-name="Trazado 884791" d="M234.946,836.661a.244.244,0,0,1-.045,0,.237.237,0,0,1-.188-.277c.018-.1.427-2.384-1.562-3.156-2.056-.8-10.1-3.134-13.361-3.18a.237.237,0,0,1,0-.474h0c3.309.047,11.45,2.406,13.526,3.213,2.36.916,1.861,3.659,1.855,3.687a.236.236,0,0,1-.232.192" transform="translate(-167.575 -633.163)"/>
      <path id="Trazado_884792" data-name="Trazado 884792" d="M210.115,307.344a7.812,7.812,0,0,1,2.942-3.754,3.677,3.677,0,0,1,4.466.387c3.159-1.613,2.159-1.407,5.254.325s7.342,5.648,6.788,9.15-1.126,5.879-4.671,5.743a7.8,7.8,0,0,1-7.247,4.991c-2.825.068-8.072-1.556-8.782-4.706a20.1,20.1,0,0,1,1.248-12.136" transform="translate(-159.085 -231.168)"/>
      <path id="Trazado_884793" data-name="Trazado 884793" d="M217.555,395.85l-1.826,5.86a2.622,2.622,0,0,0,.718,2.658c-2.059,4.065-8.547,3.03-14.517-2.455l.757-.449a5.387,5.387,0,0,0,2.446-3.048l2.4-7.891s2.767-3.2,10.023,5.324" transform="translate(-154.121 -297.616)" fill="#fff"/>
      <path id="Trazado_884794" data-name="Trazado 884794" d="M224.688,401.7h-.021a.237.237,0,0,1-.215-.257,2.74,2.74,0,0,1,.113-.57l1.787-5.735c-4.023-4.7-6.6-5.714-8.055-5.731a2.1,2.1,0,0,0-1.493.477l-2.383,7.836c-.047.153-.1.307-.163.458a.237.237,0,1,1-.438-.179c.056-.138.106-.278.148-.417l2.4-7.891a.241.241,0,0,1,.048-.086,2.453,2.453,0,0,1,1.843-.672h.013c1.567.006,4.318,1.051,8.526,6a.238.238,0,0,1,.046.224l-1.826,5.86a2.271,2.271,0,0,0-.094.471.237.237,0,0,1-.236.216" transform="translate(-163.183 -296.853)"/>
      <path id="Trazado_884795" data-name="Trazado 884795" d="M230.725,355.436s2.571,9.393-1.533,11.776c-2.435,1.414-9.546,1.4-13.221-5.311,0,0-3.115-.265-3.448-3.227s1.389-3.837,3.686-1.485c0,0,2.911,1.831,2.41-2.279-.218-1.79,1.621-3.157,5.317-3.626,6.687-.85,5.894.551,6.789,4.153" transform="translate(-162.175 -267.93)" fill="#fff"/>
      <path id="Trazado_884796" data-name="Trazado 884796" d="M225.015,367.429a11.046,11.046,0,0,1-2.957-.411,11.438,11.438,0,0,1-7-5.665,4,4,0,0,1-3.534-3.419c-.17-1.512.18-2.592.959-2.961.823-.389,1.927.059,3.111,1.263.3.182,1.11.542,1.59.236.435-.277.586-1.072.436-2.3-.243-2,1.77-3.413,5.522-3.89,5.725-.728,6.181.141,6.757,3,.08.4.171.848.29,1.33.117.429,2.561,9.6-1.644,12.04a7.323,7.323,0,0,1-3.535.78M213.1,355.312a.95.95,0,0,0-.411.087c-.577.274-.836,1.2-.691,2.481.308,2.737,3.2,3.015,3.233,3.017a.237.237,0,0,1,.188.122,10.994,10.994,0,0,0,6.767,5.542,8.667,8.667,0,0,0,6.128-.322c3.9-2.265,1.449-11.416,1.424-11.509v-.005c-.123-.493-.214-.95-.3-1.354-.515-2.557-.672-3.329-6.233-2.622-3.455.439-5.319,1.665-5.112,3.363.176,1.443-.044,2.371-.654,2.758-.847.537-2.066-.217-2.118-.25a.249.249,0,0,1-.044-.035,3.521,3.521,0,0,0-2.179-1.274" transform="translate(-161.414 -267.163)"/>
      <path id="Trazado_884797" data-name="Trazado 884797" d="M220.967,383.688a.236.236,0,0,1-.215-.137,2.509,2.509,0,0,0-1.921-1.34.237.237,0,1,1,.06-.47,2.958,2.958,0,0,1,2.291,1.611.237.237,0,0,1-.214.336" transform="translate(-166.863 -291.359)"/>
      <path id="Trazado_884798" data-name="Trazado 884798" d="M205.27,313.976c.418-.131,8.5-.7,11.329-2.007.959.461,1.736,2.163,6.6-.324s7.031-3.494,7.155-4.267-3.835-1.1-3.835-1.1-1.925-5.418-5.4-7.621c-3.409-2.16-12.683-.16-15.553,5.58-1.953,3.905-.292,9.743-.292,9.743" transform="translate(-156.168 -227.297)" fill="#fff"/>
      <path id="Trazado_884799" data-name="Trazado 884799" d="M204.49,313.43a.241.241,0,0,1-.232-.17c-.069-.242-1.663-5.972.308-9.914,1.377-2.755,4.336-4.938,8.117-5.99,3.119-.867,6.1-.746,7.774.315,3.229,2.046,5.107,6.7,5.444,7.6.8.074,3.3.353,3.793.984a.48.48,0,0,1,.106.381c-.129.8-1.627,1.561-5.632,3.6l-1.649.841c-4.2,2.15-5.508,1.22-6.372.6-.123-.088-.234-.166-.341-.228-2.279,1-7.466,1.55-9.979,1.819-.635.068-1.183.127-1.272.151a.234.234,0,0,1-.065.009m12.152-16.169a14.513,14.513,0,0,0-3.832.551c-3.652,1.016-6.5,3.11-7.82,5.745-1.686,3.371-.595,8.306-.329,9.367.212-.029.562-.067,1.117-.126,2.528-.27,7.79-.833,9.938-1.826a.236.236,0,0,1,.2,0,3.528,3.528,0,0,1,.5.319c.817.582,1.936,1.379,5.882-.641q.883-.452,1.649-.841c3.41-1.736,5.289-2.692,5.379-3.252-.084-.286-1.776-.677-3.621-.831a.237.237,0,0,1-.2-.157c-.019-.053-1.939-5.368-5.3-7.5a6.822,6.822,0,0,0-3.562-.81" transform="translate(-155.384 -226.516)"/>
      <path id="Trazado_884800" data-name="Trazado 884800" d="M269.461,333.574a66.124,66.124,0,0,1-8.583,4.211Z" transform="translate(-199.113 -254.598)" fill="#fff"/>
      <path id="Trazado_884801" data-name="Trazado 884801" d="M260.114,337.259a.237.237,0,0,1-.086-.457,66.4,66.4,0,0,0,8.547-4.193.237.237,0,0,1,.243.407,66.958,66.958,0,0,1-8.618,4.228.234.234,0,0,1-.086.016" transform="translate(-198.349 -253.835)"/>
      <path id="Trazado_884802" data-name="Trazado 884802" d="M232.525,298.873a7.42,7.42,0,0,1,5.693,1.8,15.751,15.751,0,0,1,3.7,4.666.478.478,0,0,0,.616.222c.415-.178,1.034-.452,1.39-.647a.429.429,0,0,0,.177-.574c-.625-1.223-2.847-5.141-6.406-6.786,0,0-1.845-.709-5.171,1.319" transform="translate(-177.473 -227.014)" fill="#fff"/>
      <path id="Trazado_884803" data-name="Trazado 884803" d="M241.583,305.068a.716.716,0,0,1-.639-.39,15.566,15.566,0,0,0-3.643-4.593,7.254,7.254,0,0,0-5.5-1.746.237.237,0,0,1-.164-.435c3.387-2.065,5.3-1.369,5.379-1.338,3.652,1.687,5.923,5.707,6.532,6.9a.663.663,0,0,1-.275.889c-.358.2-.964.465-1.41.656a.709.709,0,0,1-.282.058m-8.822-7.25a7.811,7.811,0,0,1,4.847,1.907,16.055,16.055,0,0,1,3.757,4.738.24.24,0,0,0,.312.112c.357-.154,1.011-.441,1.37-.637a.192.192,0,0,0,.08-.258c-.592-1.158-2.795-5.062-6.294-6.679,0,0-1.457-.509-4.072.817" transform="translate(-176.71 -226.246)"/>
    </g>
  </g>
</svg>
